<?xml version="1.0" encoding="utf-8"?>
<svg viewBox="0 0 90.03 43.1" xmlns="http://www.w3.org/2000/svg">
  <g style="isolation:isolate;" transform="matrix(1, 0, 0, 1, -7.105427357601002e-15, 0)">
    <g id="b">
      <g id="c">
        <path d="M82.05,6.06s-2.9,10.61-14.11,17.43c-5.31,3.24-12.5,5.63-22.14,5.63-11.91,0-20.08-3.65-25.6-8.05C11.84,14.42,9.56,6.06,9.56,6.06c12.78,7.19,36.24,10.86,36.24,10.86,0,0,23.47-3.67,36.25-10.86Z" style="fill:#812751; stroke-width:0px;"/>
        <path d="M67.94,23.49c-5.31,3.24-12.5,5.63-22.14,5.63-11.91,0-20.08-3.65-25.6-8.05l.5-.88s20.77-5.44,46.3,2.96c.32.11.63.21.94.33Z" style="fill:#ad344e; stroke-width:0px;"/>
        <path d="M23.06,9.92s6.81,9.43,22.32,10.28h.84c15.52-.85,22.32-10.28,22.32-10.28-5.56,2.84-39.93,2.84-45.49,0Z" style="fill:#ffddeb; stroke-width:0px;"/>
        <path d="M81.71,6.79s-9.75,22.34-35.91,22.34S10.15,7.15,10.15,7.15l-2.95-2.08c7.35,16.56,20.84,33.14,38.6,33.14s31.67-17.17,39.02-33.73l-3.11,2.31Z" style="stroke-width: 0px; fill: fillColor;"/>
        <path d="M67.53,9.13c-12.69-.57-30.75-.57-43.44,0C13.1,9.63,5.65,3.88,3.84,2.32c13.9,12.35,30.63,14.6,41.96,14.6s28.07-2.25,41.96-14.6c-1.81,1.56-9.26,7.3-20.24,6.81Z" style="stroke-width: 0px; fill: fillColor;"/>
        <path d="M9.55,1.63c-1.19-.22-7.26.28-9.42,5.61C.14,7.24-.84.34,2.39.03s7.16,1.6,7.16,1.6Z" style="fill: rgb(218, 107, 124); stroke-width: 0px; mix-blend-mode: multiply; opacity: 0.7;"/>
        <path d="M80.47,1.63c1.19-.22,7.26.28,9.42,5.61,0,0,.98-6.9-2.25-7.21-3.23-.3-7.16,1.6-7.16,1.6Z" style="fill: rgb(218, 107, 124); stroke-width: 0px; mix-blend-mode: multiply; opacity: 0.7;"/>
        <path d="M24.85,29.86s11.46,13.88,22.35,13.21c10.88-.67,19.8-13.51,19.8-13.51,0,0-10.66,6.77-21.2,6.77-9.98,0-20.95-6.47-20.95-6.47Z" style="fill: rgb(206, 119, 181); stroke-width: 0px; mix-blend-mode: multiply; opacity: 0.7;"/>
        <path d="M32.04,26.75s7.4,1.18,13.97,1.18,13.69-1.18,13.69-1.18c0,0-2.89,2.37-13.9,2.37s-13.76-2.37-13.76-2.37Z" style="fill:#ffddeb; stroke-width:0px;"/>
      </g>
    </g>
  </g>
</svg>