<?xml version="1.0" encoding="utf-8"?>
<svg viewBox="0 0 83.69 27.35" xmlns="http://www.w3.org/2000/svg">
  <g style="isolation:isolate;">
    <g id="b">
      <g id="c">
        <path d="M45.98,3.48c-1.32-.12-3.56.68-3.56.68,0,0-2.24-.81-3.56-.68-1.32.12-30.46,1.37-30.46,1.37,0,0,5.99,3.01,10.66,3.63s23.36,1,23.36,1c0,0,18.69-.38,23.36-1s10.66-3.63,10.66-3.63c0,0-29.14-1.24-30.46-1.37Z" style="stroke-width: 0px; fill: fillColor;"/>
        <path d="M78.94,2.09c-.73.17.37,1.58-.07,2.08-.44.5-11.29,3.19-15.28,4-3.98.81-21.17.81-21.17.81,0,0-17.18,0-21.17-.81-3.98-.81-14.84-3.5-15.28-4-.44-.5.66-1.9-.07-2.08,0,0-3.81,1.2-4.55,4.23,0,0,2.64-1.34,4.55-1.09s11,4.38,16.42,4.38,16.87.5,20.09.5,14.67-.5,20.09-.5,14.52-4.12,16.42-4.38c1.91-.25,4.55,1.09,4.55,1.09-.73-3.03-4.55-4.23-4.55-4.23Z" style="fill: rgb(129, 39, 81); stroke-width: 0px; mix-blend-mode: multiply;"/>
        <path d="M7.35,1.81s-4.36.23-5.99,4.51c0,0-3.06-3.84,0-5.72s5.99,1.21,5.99,1.21Z" style="fill:#ed7172; stroke-width:0px;"/>
        <path d="M78.94,2.09s3.84.95,4.55,4.23c0,0,.85-3.47-.9-5.22-1.76-1.75-5.28,0-5.28,0l1.64.99Z" style="fill: rgb(237, 113, 114); stroke-width: 0px; mix-blend-mode: multiply;"/>
        <path d="M42.42,10.1s-25.95-.43-33.69-4.01c0,0,9.27,9.76,14.75,11.09,5.47,1.33,18.94.83,18.94.83,0,0,13.46.5,18.94-.83,5.47-1.33,14.75-11.09,14.75-11.09-7.74,3.58-33.69,4.01-33.69,4.01Z" style="stroke-width: 0px; fill: fillColor;"/>
        <path d="M26.33,19.1s17.78,2,30.93,0c0,0-6.89,8.25-16.08,8.25s-14.85-8.25-14.85-8.25Z" style="fill: rgb(206, 119, 181); opacity: 0.8; stroke-width: 0px; mix-blend-mode: multiply;"/>
        <path d="M66.35,14.25c9.76-8.15-13.27-2.99-20.66-2.99-2.33,0,2.51,5.17,6.38,6.03,3.87.85,8.93,1.43,14.28-3.04Z" style="fill:#fff9b5; mix-blend-mode:soft-light; opacity:.5; stroke-width:0px;"/>
        <path d="M 46.011 3.491 C 44.691 3.371 42.451 4.171 42.451 4.171 C 42.451 4.171 40.211 3.361 38.891 3.491 C 37.571 3.611 8.431 4.861 8.431 4.861 C 8.431 4.861 14.421 7.871 19.091 8.491 C 23.761 9.111 42.451 9.491 42.451 9.491 C 42.451 9.491 61.141 9.111 65.811 8.491 C 70.481 7.871 76.471 4.861 76.471 4.861 C 76.471 4.861 47.331 3.621 46.011 3.491 Z" style="stroke-width: 0px; fill: fillColor; mix-blend-mode: multiply;"/>
      </g>
    </g>
  </g>
</svg>