<?xml version="1.0" encoding="utf-8"?>
<svg viewBox="0 0 60.21 28.73" xmlns="http://www.w3.org/2000/svg">
  <g style="isolation:isolate;" transform="matrix(0.9999999999999999, 0, 0, 0.9999999999999999, -3.552713678800501e-15, 0)">
    <g id="b">
      <g id="c">
        <path d="M6.26,13.04s8.47,15.69,23.84,15.69,22.61-14.26,22.61-14.26l-46.46-1.43Z" style="fill:#ce77b5; mix-blend-mode:multiply; opacity:.6; stroke-width:0px;"/>
        <path d="M1.89,5.13s8.27,21.85,28.75,21.85S57.33,4.98,57.33,4.98c0,0-17.11,2.76-21.54,4.51s-8.46,0-12.39-1.14C19.47,7.21,1.89,5.13,1.89,5.13Z" style="stroke-width: 0px; fill: fillColor;"/>
        <path d="M47.28,2.14C40.26-.75,35.57.12,30.64.12s-9.62-.87-16.64,2.01C6.99,5.02,3.18,4.83,3.18,4.83c4.9,1.99,10.28,2.57,13.73,2.62,3.45.05,13.73,2.04,13.73,2.04,0,0,10.28-1.99,13.73-2.04,3.45-.05,8.84-.63,13.73-2.62,0,0-3.81.19-10.83-2.69Z" style="stroke-width: 0px; fill: fillColor;"/>
        <path d="M57.33,4.98c-7.12,2.22-10.48,1.01-17.38,2.65-6.9,1.64-11.85,1.64-18.75,0s-11.9.04-18.85-3.16c-.91-.42-2.34-1.33-2.34-1.33v1.51s9.57,2.64,16.45,3.04,9.39,4.08,14.12,4.08,7.24-3.67,14.12-4.08,15.53-3.04,15.53-3.04v-1.51s-1.91,1.54-2.89,1.84Z" style="fill:#681351; stroke-width:0px;"/>
        <polygon points="45.39 8.29 50.3 9.56 46.91 13.15 43.84 10.72 45.39 8.29" style="fill:#ffd6ff; mix-blend-mode:soft-light; stroke-width:0px;"/>
        <path d="M42.46,12.12l1.84,1.92s-1.5-.99-3.15.61c-1.03,1-5.26,1.36-6.95,2.53l-1.27-2.01s5.18.31,9.53-3.05Z" style="fill:#ffd6ff; mix-blend-mode:soft-light; stroke-width:0px;"/>
      </g>
    </g>
  </g>
</svg>