<?xml version="1.0" encoding="utf-8"?>
<svg viewBox="0 0 64.21 26.68" xmlns="http://www.w3.org/2000/svg">
  <g style="isolation:isolate;">
    <g id="b">
      <g id="c">
        <path d="M3.39,13.96s9.06,8.28,27.91,8.28,29.41-8.03,29.41-8.03c0,0-14.54-6.24-29.41-6.24S3.39,13.96,3.39,13.96Z" style="stroke-width: 0px; fill: fillColor;"/>
        <path d="M6.3,12.74S15.02,0,32.19,0c13.81,0,28.52,14.21,28.52,14.21,0,0-3.11-1.08-8.68-2.21-5.57-1.13-16.58-4.41-23.43-3.65-6.86.76-16.23,4.32-22.29,4.39Z" style="stroke-width: 0px; fill: fillColor;"/>
        <path d="M32.14,6.52C14.11,6.52,0,16.25,0,16.25c0,0,15.81-7.43,32.14-7.43s32.07,7.2,32.07,7.2c0,0-16.58-9.5-32.07-9.5Z" style="fill:#812751; stroke-width:0px;"/>
        <path d="M10.04,11.09S14.11.57,31.56.57s23.09,10.96,23.09,10.96l6.05,2.67S47.48,0,31.59,0,6.3,12.74,6.3,12.74l3.74-1.65Z" style="fill:#ce77b5; mix-blend-mode:multiply; opacity:.6; stroke-width:0px;"/>
        <path d="M10.04,18.24s9.64,8.44,22.15,8.44,23.6-9.65,23.6-9.65c0,0-11.44,5.21-24.5,5.21s-21.26-4-21.26-4Z" style="fill:#ce77b5; mix-blend-mode:multiply; opacity:.6; stroke-width:0px;"/>
        <polygon points="40.01 12.32 42.74 17.03 45.38 16.25 41.92 12.32 40.01 12.32" style="fill:#fff9b5; mix-blend-mode:soft-light; stroke-width:0px;"/>
      </g>
    </g>
  </g>
</svg>