<?xml version="1.0" encoding="utf-8"?>
<svg viewBox="0 0 70.57 34.98" xmlns="http://www.w3.org/2000/svg">
  <g style="isolation:isolate;" transform="matrix(1, 0, 0, 1, 0, -1.7763568394002505e-15)">
    <g id="b">
      <g id="c">
        <path d="M19.94,24.45s5.49,10.54,14.06,10.54,15.8-10.48,15.8-10.48c0,0-4.86,3.28-14.93,3.28s-14.93-3.34-14.93-3.34Z" style="fill: rgb(206, 119, 181); stroke-width: 0px; mix-blend-mode: multiply; opacity: 0.7;"/>
        <path d="M5.31,8.44s11.52,18.51,30,18.51,30-18.51,30-18.51c0,0-9.97,1.32-18.79,3.05-8.81,1.73-16.73,1.84-24.77,0-8.04-1.84-15.42-2.57-16.46-3.05Z" style="stroke-width: 0px; fill: fillColor;"/>
        <path d="M44.24.44c-7.31-.93-8.17.42-9.37.42-1.07,0-.58-1.49-8.11-.56C18.73,1.3,2.98,7.07,2.98,7.07c0,0,1.68,2.27,11.99,3.54,10.3,1.27,19.9.84,19.9.84,0,0,10.49.43,20.79-.84,10.3-1.27,11.99-3.54,11.99-3.54,0,0-15.38-5.6-23.41-6.62Z" style="stroke-width: 0px; fill: fillColor;"/>
        <path d="M66.17,2.08s3.24,4.07,4.13,8.65c0,0,1.03-5.15-.9-7.47-1.93-2.32-3.23-1.18-3.23-1.18Z" style="fill: rgb(221, 107, 124); stroke-width: 0px; mix-blend-mode: multiply; opacity: 0.7;"/>
        <path d="M4.39,1.81S1.16,5.89.28,10.48c0,0-1.04-5.15.88-7.47,1.92-2.32,3.23-1.19,3.23-1.19Z" style="fill: rgb(221, 107, 124); stroke-width: 0px; mix-blend-mode: multiply; opacity: 0.7;"/>
        <path d="M42.38,15.91c-.27,1.23,1.82,8.65,1.82,8.65,0,0,10.4-3.14,15.5-10.38,0,0-16.48-2.16-17.32,1.73Z" style="fill:#ffccb8; mix-blend-mode:soft-light; stroke-width:0px;"/>
        <path d="M5.31,8.44s2.66.63,8.99,1.35c6.32.72,24.83,1.3,33.91,1,4.35-.15,16.29-1.1,19.44-3.72,0,0-3.09,2.67-10.31,3.75-22.02,3.31-28.11,2.14-37.85.93-9.14-1.14-14.18-3.31-14.18-3.31Z" style="fill:#862254; stroke-width:0px;"/>
        <path d="M2.98,3.9s-1.61,2.5-2.15,4.54l7.56.98s-5.14-1.37-5.4-2.36,0-3.17,0-3.17Z" style="fill:#862254; stroke-width:0px;"/>
        <path d="M67.46,3.9s1.61,2.5,2.15,4.54l-7.56.98s5.14-1.37,5.4-2.36c.26-.98,0-3.17,0-3.17Z" style="fill:#862254; stroke-width:0px;"/>
      </g>
    </g>
  </g>
</svg>