<?xml version="1.0" encoding="utf-8"?>
<svg viewBox="0 0 80.74 31.81" xmlns="http://www.w3.org/2000/svg">
  <g style="isolation:isolate;">
    <g id="b">
      <g id="c">
        <path d="M15.97,16.05s7.06,15.76,24.74,15.76,24.3-15.75,24.3-15.75c0,0-10.28,6.42-24.91,6.42s-24.13-6.43-24.13-6.43Z" style="fill: rgb(206, 119, 181); mix-blend-mode: multiply; stroke-width: 0px; opacity: 0.7;"/>
        <path d="M40.62,10.5s-15.28.48-36.37-5.31c0,0,14.44,19.13,36.14,19.13S76.99,5.19,76.99,5.19c-21.08,5.79-36.37,5.31-36.37,5.31Z" style="stroke-width: 0px; fill: fillColor;"/>
        <path d="M40.7,1.11C29.49,1.11,4.26,5.19,4.26,5.19c16.05,7.61,36.37,7.15,36.37,7.15,0,0,20.32.47,36.37-7.15,0,0-25.07-4.08-36.29-4.08Z" style="stroke-width: 0px; fill: fillColor;"/>
        <path d="M56.96,13.22c-2.31.57-6.7,1.64-6.7,2.95s.96,1.75,3.35,1.53c2.39-.21,6.89-2.08,7.98-3.28,1.1-1.2-3.32-1.52-4.63-1.2Z" style="fill:#fff9b5; mix-blend-mode:soft-light; opacity:.5; stroke-width:0px;"/>
        <path d="M8.45.21c.02.11-5.16,4.52-6.74,8.13,0,0-2.56-3.25-1.42-6.13C1.55-.96,8.45.21,8.45.21Z" style="fill: rgb(218, 107, 124); stroke-width: 0px; opacity: 0.7;"/>
        <path d="M72.28.21c-.02.11,5.16,4.52,6.74,8.13,0,0,2.56-3.25,1.42-6.13-1.25-3.17-8.16-2-8.16-2Z" style="fill: rgb(218, 107, 124); stroke-width: 0px; opacity: 0.7;"/>
        <path d="M5.3,3.37s1.84,2.67,6.21,4.67c0,0-5.92-1.91-7.78-2.85l1.57-1.82Z" style="fill:#812751; stroke-width:0px;"/>
        <path d="M75.44,3.37s-.87,1.78-3.16,3.79c0,0,4.26-1.09,5.13-1.46l-1.98-2.34Z" style="fill:#812751; stroke-width:0px;"/>
        <path d="M20.27,10.54s19.49,6.73,42.16-.53c0,0-.22-.32-4.15-.33-1.59,0-27.59-.1-31.5.27-1.8.17-6.52.59-6.52.59Z" style="fill:#fff; stroke-width:0px;"/>
        <path d="M17.37,9.68s3.19.38,7.09.62c0,0,.82.9,1.41,1.72,0,0-5.13-.82-8.51-2.35Z" style="fill:#812751; stroke-width:0px;"/>
        <path d="M58.29,9.68s-2.01,1.23-3.2,2.27c0,0,7.25-.92,10.99-2.83l-7.79.56Z" style="fill:#812751; stroke-width:0px;"/>
        <path d="M29.59,12.74s10.74-2.23,22.95-.4c0,0,13.54-2.18,19.75-5.18,0,0-36.76,2.73-63.83-.87,0,0,7.33,3.74,21.13,6.44Z" style="fill:#db8ab0; mix-blend-mode:multiply; stroke-width:0px;"/>
      </g>
    </g>
  </g>
</svg>