<?xml version="1.0" encoding="utf-8"?>
<svg viewBox="103.7435 235.9821 295.8558 80.056" xmlns="http://www.w3.org/2000/svg" xmlns:xlink="http://www.w3.org/1999/xlink">
  <defs>
    <linearGradient id="h" x1="4.83" y1="0" x2="4.83" y2="13.48" xlink:href="#e"/>
    <linearGradient id="e" x1="78.49" y1="19.16" x2="78.49" y2="23.75" gradientUnits="userSpaceOnUse">
      <stop offset="0" stop-color="#ffe9ea"/>
      <stop offset="0.99" stop-color="#de5777"/>
    </linearGradient>
    <linearGradient id="k" x1="153.01" y1="0" x2="153.01" y2="14.84" xlink:href="#e"/>
  </defs>
  <path d="M68.88,23.78c6.43-4.62,12.83-4.62,19.21,0v-3.43c-6.52-3.62-12.85-3.67-18.99,0l-.22,3.43Z" style="stroke-width: 0px;" transform="matrix(1.8687200546264648, 0, 0, 1.8687200546264648, 103.74351501464847, 236.00076293945312)"/>
  <path d="M88.09,22.62v1.13c-6.38-4.62-12.78-4.62-19.2,0l.08-1.19c6.4-4.56,12.77-4.53,19.12.06Z" style="mix-blend-mode: multiply; stroke-width: 0px; fill: rgb(255, 233, 234);" transform="matrix(1.8687200546264648, 0, 0, 1.8687200546264648, 103.74351501464847, 236.00076293945312)"/>
  <path d="M45.81,4.57c-13.45,0-28.34-.53-34.19,4.72L0,0l9.22,13.48c-.11.54-.17,1.1-.17,1.71,0,11.49,10.95,27.64,36.76,27.64,17.21,0,24.03-9.31,24.03-20.79s-6.82-17.46-24.03-17.46ZM45.3,41.34c-23.75,0-33.83-14.06-33.83-24.05s17.99-9.23,33.83-9.23,22.12,5.19,22.12,15.19-6.28,18.09-22.12,18.09Z" style="stroke-width: 0px;" transform="matrix(1.8687200546264648, 0, 0, 1.8687200546264648, 103.74351501464847, 236.00076293945312)"/>
  <path d="M45.3,7.21c-15.84,0-33.83-.77-33.83,9.23,0,.17,0,.34.02.52.38-9.65,18.15-8.9,33.81-8.9s21.94,5.04,22.11,14.77c.01-.14.01-.29.01-.43,0-10-6.28-15.19-22.12-15.19ZM69.83,21.61c-.16,11.28-7.03,20.36-24.02,20.36-25.52,0-36.51-15.79-36.75-27.25-.01.15-.01.3-.01.46,0,11.49,10.95,27.64,36.76,27.64,17.21,0,24.03-9.31,24.03-20.79,0-.14,0-.28,0-.42Z" style="mix-blend-mode: multiply; stroke-width: 0px; fill: rgb(153, 153, 153);" transform="matrix(1.8687200546264648, 0, 0, 1.8687200546264648, 103.74351501464847, 236.00076293945312)"/>
  <path d="M11.47,21.43c.45-.11-1.75-4.65.23-8.29,2.53-4.68,10.22-4.68,10.08-5.63-.09-.58-2.95-.97-5.55-.14-3.44,1.1-6.09,4.27-6.51,7.78-.41,3.41,1.38,6.37,1.75,6.28Z" style="fill:#fff; stroke-width:0px;" transform="matrix(1.8687200546264648, 0, 0, 1.8687200546264648, 103.74351501464847, 236.00076293945312)"/>
  <path d="M56.64,7.99c-.1.22,5.52,1.18,8.79,5.69,4.75,6.56,1.18,16,1.49,16.05.31.04,4.77-9.68,0-16.34-3.5-4.88-10.17-5.63-10.27-5.39Z" style="fill:#fff; stroke-width:0px;" transform="matrix(1.8687200546264648, 0, 0, 1.8687200546264648, 103.74351501464847, 236.00076293945312)"/>
  <polygon points="9.22 13.48 0 0 9.66 11.32 9.22 13.48" style="fill:url(#h); mix-blend-mode:multiply; opacity:.5; stroke-width:0px;" transform="matrix(1.8687200546264648, 0, 0, 1.8687200546264648, 103.74351501464847, 236.00076293945312)"/>
  <path d="M158.32,0l-12.21,9.77c-5.48-5.76-20.83-5.2-34.68-5.2-17.21,0-24.03,5.98-24.03,17.46s6.82,20.79,24.03,20.79c25.81,0,36.76-16.15,36.76-27.64,0-.12-.01-.23-.02-.35l10.15-14.84ZM111.94,41.34c-15.84,0-22.12-8.1-22.12-18.09s6.28-15.19,22.12-15.19,33.83-.77,33.83,9.23-10.08,24.05-33.83,24.05Z" style="stroke-width: 0px;" transform="matrix(1.8687200546264648, 0, 0, 1.8687200546264648, 103.74351501464847, 236.00076293945312)"/>
  <path d="M89.82,22.4c0,.14,0,.29,0,.43.17-9.73,6.49-14.77,22.11-14.77s33.43-.75,33.81,8.9c.02-.18.02-.35.02-.52,0-10-17.99-9.23-33.83-9.23s-22.12,5.19-22.12,15.19ZM87.4,22.03c0,11.48,6.82,20.79,24.03,20.79,25.81,0,36.76-16.15,36.76-27.64,0-.16,0-.31,0-.46-.24,11.46-11.23,27.25-36.75,27.25-16.99,0-23.86-9.08-24.02-20.36,0,.14,0,.28,0,.42Z" style="mix-blend-mode: multiply; stroke-width: 0px; fill: rgb(153, 153, 153);" transform="matrix(1.8687200546264648, 0, 0, 1.8687200546264648, 103.74351501464847, 236.00076293945312)"/>
  <path d="M145.77,21.43c-.45-.11,1.75-4.65-.23-8.29-2.53-4.68-10.22-4.68-10.08-5.63.09-.58,2.95-.97,5.55-.14,3.44,1.1,6.09,4.27,6.51,7.78.41,3.41-1.38,6.37-1.75,6.28Z" style="fill:#fff; stroke-width:0px;" transform="matrix(1.8687200546264648, 0, 0, 1.8687200546264648, 103.74351501464847, 236.00076293945312)"/>
  <path d="M100.6,7.99c.1.22-5.52,1.18-8.79,5.69-4.75,6.56-1.18,16-1.49,16.05-.31.04-4.77-9.68,0-16.34,3.5-4.88,10.17-5.63,10.27-5.39Z" style="fill:#fff; stroke-width:0px;" transform="matrix(1.8687200546264648, 0, 0, 1.8687200546264648, 103.74351501464847, 236.00076293945312)"/>
  <polygon points="148.18 14.84 147.69 12.61 158.32 0 148.18 14.84" style="fill:url(#k); mix-blend-mode:multiply; opacity:.5; stroke-width:0px;" transform="matrix(1.8687200546264648, 0, 0, 1.8687200546264648, 103.74351501464847, 236.00076293945312)"/>
</svg>