<?xml version="1.0" encoding="utf-8"?>
<svg viewBox="53.2453 112.3442 346.7091 76.5263" xmlns="http://www.w3.org/2000/svg" xmlns:xlink="http://www.w3.org/1999/xlink">
  <defs>
    <linearGradient id="e" x1="0" y1="5.72" x2="7.83" y2="5.72" gradientUnits="userSpaceOnUse">
      <stop offset="0" stop-color="#ffe9ea"/>
      <stop offset="0.99" stop-color="#de5777"/>
    </linearGradient>
    <linearGradient id="g" x1="833.35" x2="841.18" gradientTransform="translate(992.37) rotate(-180) scale(1 -1)" xlink:href="#e"/>
  </defs>
  <path d="M7.83,11.43L0,0l7.37,5.9c-.06.5-.12,1.3-.08,2.26.03.97.18,2.11.54,3.27Z" style="stroke-width: 0px;" transform="matrix(2.1801490783691406, 0, 0, 2.1801490783691406, 53.24526214599611, 112.34423065185545)"/>
  <path d="M7.83,11.43L0,0l7.29,8.16c.03.97.18,2.11.54,3.27Z" style="fill:url(#e); mix-blend-mode:multiply; opacity:.5; stroke-width:0px;" transform="matrix(2.1801490783691406, 0, 0, 2.1801490783691406, 53.24526214599611, 112.34423065185545)"/>
  <path d="M151.2,11.43l7.83-11.43-7.37,5.9c.06.5.12,1.3.08,2.26-.03.97-.18,2.11-.54,3.27Z" style="stroke-width: 0px;" transform="matrix(2.1801490783691406, 0, 0, 2.1801490783691406, 53.24526214599611, 112.34423065185545)"/>
  <path d="M151.2,11.43l7.83-11.43-7.29,8.16c-.03.97-.18,2.11-.54,3.27Z" style="fill:url(#g); mix-blend-mode:multiply; opacity:.5; stroke-width:0px;" transform="matrix(2.1801490783691406, 0, 0, 2.1801490783691406, 53.24526214599611, 112.34423065185545)"/>
  <path d="M66.07,3.05c-18.85-1.74-37.53-1.76-56.04-.07-2.47.23-4.23,2.54-3.78,4.98,1.66,9,4.31,17.1,8.28,23.99.67,1.16,1.87,1.93,3.2,2.07,14.28,1.47,29.2,1.37,44.65.03,1.73-.15,3.2-1.37,3.67-3.04,2.2-7.61,3.5-15.46,3.86-23.55.1-2.28-1.58-4.22-3.85-4.43ZM64.53,29.95c-.45,1.52-1.84,2.64-3.48,2.78-14.6,1.21-28.7,1.3-42.18-.03-1.26-.13-2.4-.83-3.03-1.9-3.75-6.3-6.26-13.72-7.83-21.94-.43-2.24,1.23-4.35,3.57-4.55,17.48-1.55,35.14-1.54,52.94.06,2.15.19,3.74,1.97,3.64,4.05-.34,7.39-1.57,14.57-3.64,21.55Z" style="stroke-width: 0px;" transform="matrix(2.1801490783691406, 0, 0, 2.1801490783691406, 53.24526214599611, 112.34423065185545)"/>
  <path d="M64.53,3.39c-17.8-1.59-35.46-1.6-52.94-.06-2.28.19-3.9,2.18-3.61,4.35.22-1.76,1.67-3.21,3.61-3.38,17.48-1.55,35.14-1.54,52.94.06,1.95.17,3.44,1.65,3.62,3.48.01-.14.01-.26.02-.4.1-2.08-1.49-3.86-3.64-4.05ZM69.9,6.88c-.38,7.95-1.67,15.68-3.83,23.17-.48,1.67-1.95,2.89-3.67,3.04-15.45,1.33-30.37,1.43-44.65-.03-1.33-.14-2.53-.91-3.2-2.07-3.97-6.89-6.62-14.99-8.28-23.99-.01-.09-.02-.18-.03-.26-.06.4-.05.81.03,1.23,1.66,9,4.31,17.1,8.28,23.99.67,1.16,1.87,1.93,3.2,2.07,14.28,1.47,29.2,1.37,44.65.03,1.73-.15,3.2-1.37,3.67-3.04,2.2-7.61,3.5-15.46,3.86-23.55.01-.2,0-.4-.02-.59Z" style="mix-blend-mode: multiply; stroke-width: 0px; fill: rgb(133, 133, 133);" transform="matrix(2.1801490783691406, 0, 0, 2.1801490783691406, 53.24526214599611, 112.34423065185545)"/>
  <path d="M8.76,3.91c-.14-.1-1.68,1.07-1.99,2.86-.12.69-.01,1.24.04,1.48.55,2.74,1.85,7.76,2.02,7.7.1-.03-.54-2.31-1.19-6.98-.09-.65-.07-1.29.09-2.28.28-1.78,1.15-2.69,1.03-2.78Z" style="fill:#fff; stroke-width:0px;" transform="matrix(2.1801490783691406, 0, 0, 2.1801490783691406, 53.24526214599611, 112.34423065185545)"/>
  <path d="M67.03,3.69c.13-.11,1.75.94,2.19,2.71.17.68.1,1.24.07,1.48-.35,2.77-1.29,7.87-1.47,7.83-.1-.02.37-2.35.69-7.05.04-.65-.03-1.29-.25-2.27-.41-1.76-1.34-2.6-1.23-2.7Z" style="fill:#fff; stroke-width:0px;" transform="matrix(2.1801490783691406, 0, 0, 2.1801490783691406, 53.24526214599611, 112.34423065185545)"/>
  <path d="M89.22,7.48c.35,8.09,1.66,15.94,3.86,23.55.48,1.67,1.95,2.89,3.67,3.04,15.45,1.33,30.37,1.43,44.65-.03,1.33-.14,2.53-.91,3.2-2.07,3.97-6.89,6.62-14.99,8.28-23.99.46-2.45-1.31-4.76-3.78-4.98-18.51-1.69-37.19-1.67-56.04.07-2.26.2-3.95,2.15-3.84,4.43ZM90.97,8.41c-.1-2.08,1.49-3.86,3.64-4.05,17.8-1.59,35.46-1.6,52.94-.06,2.34.2,4,2.31,3.57,4.55-1.57,8.22-4.07,15.64-7.83,21.94-.63,1.07-1.76,1.77-3.03,1.9-13.48,1.33-27.59,1.24-42.18.03-1.64-.14-3.03-1.25-3.48-2.78-2.07-6.97-3.3-14.15-3.64-21.55Z" style="stroke-width: 0px;" transform="matrix(2.1801490783691406, 0, 0, 2.1801490783691406, 53.24526214599611, 112.34423065185545)"/>
  <path d="M90.97,7.44c.01.14.01.26.02.4.18-1.83,1.67-3.31,3.62-3.48,17.8-1.59,35.46-1.6,52.94-.06,1.93.17,3.39,1.62,3.61,3.38.3-2.16-1.33-4.15-3.61-4.35-17.48-1.55-35.14-1.54-52.94.06-2.15.19-3.74,1.97-3.64,4.05ZM89.22,7.48c.35,8.09,1.66,15.94,3.86,23.55.48,1.67,1.95,2.89,3.67,3.04,15.45,1.33,30.37,1.43,44.65-.03,1.33-.14,2.53-.91,3.2-2.07,3.97-6.89,6.62-14.99,8.28-23.99.08-.42.09-.83.03-1.23-.01.08-.02.17-.03.26-1.66,9-4.31,17.1-8.28,23.99-.67,1.16-1.87,1.93-3.2,2.07-14.28,1.47-29.2,1.37-44.65.03-1.73-.15-3.2-1.37-3.67-3.04-2.16-7.5-3.46-15.22-3.83-23.17-.02.19-.03.39-.02.59Z" style="mix-blend-mode: multiply; stroke-width: 0px; fill: rgb(133, 133, 133);" transform="matrix(2.1801490783691406, 0, 0, 2.1801490783691406, 53.24526214599611, 112.34423065185545)"/>
  <path d="M150.38,3.91c.14-.1,1.68,1.07,1.99,2.86.12.69.01,1.24-.04,1.48-.55,2.74-1.85,7.76-2.02,7.7-.1-.03.54-2.31,1.19-6.98.09-.65.07-1.29-.09-2.28-.28-1.78-1.15-2.69-1.03-2.78Z" style="fill:#fff; stroke-width:0px;" transform="matrix(2.1801490783691406, 0, 0, 2.1801490783691406, 53.24526214599611, 112.34423065185545)"/>
  <path d="M92.11,3.69c-.13-.11-1.75.94-2.19,2.71-.17.68-.1,1.24-.07,1.48.35,2.77,1.29,7.87,1.47,7.83.1-.02-.37-2.35-.69-7.05-.04-.65.03-1.29.25-2.27.41-1.76,1.34-2.6,1.23-2.7Z" style="fill:#fff; stroke-width:0px;" transform="matrix(2.1801490783691406, 0, 0, 2.1801490783691406, 53.24526214599611, 112.34423065185545)"/>
  <path d="M68.45,16.66c7.31-5.25,14.6-5.25,21.85,0v-3.91c-7.42-4.11-14.62-4.18-21.6,0l-.25,3.91Z" style="stroke-width: 0px;" transform="matrix(2.1801490783691406, 0, 0, 2.1801490783691406, 53.24526214599611, 112.34423065185545)"/>
  <path d="M90.3,15.34v1.29c-7.26-5.26-14.54-5.26-21.84,0l.09-1.35c7.28-5.18,14.52-5.16,21.75.06Z" style="mix-blend-mode: multiply; stroke-width: 0px; fill: rgb(194, 236, 226);" transform="matrix(2.1801490783691406, 0, 0, 2.1801490783691406, 53.24526214599611, 112.34423065185545)"/>
</svg>