<?xml version="1.0" encoding="utf-8"?>
<svg viewBox="0 0 155.04 52.88" xmlns="http://www.w3.org/2000/svg" xmlns:xlink="http://www.w3.org/1999/xlink">
  <defs>
    <linearGradient id="d" x1="77.52" y1="22.03" x2="77.52" y2="27.58" gradientUnits="userSpaceOnUse">
      <stop offset="0" style="stop-color: currentColor;"/>
      <stop offset="0.264" style="stop-color: currentColor;"/>
    </linearGradient>
    <linearGradient id="e" x1="77.53" y1="23.42" x2="77.53" y2="27.55" gradientUnits="userSpaceOnUse">
      <stop offset="0" style="stop-color: rgb(201, 201, 201);"/>
      <stop offset="0.99" stop-color="#de5777"/>
    </linearGradient>
    <linearGradient id="f" x1="120.34" y1="0" x2="120.34" y2="52.88" xlink:href="#d"/>
    <linearGradient id="g" x1="114.97" y1=".48" x2="114.97" y2="52.88" xlink:href="#e"/>
    <linearGradient id="h" x1="34.75" y1="0" x2="34.75" y2="52.88" xlink:href="#d"/>
    <linearGradient id="i" x1="40.17" y1=".48" x2="40.17" y2="52.88" xlink:href="#e"/>
    <linearGradient id="j" x1="5.64" y1="4.25" x2="5.64" y2="20.35" xlink:href="#e"/>
    <linearGradient id="k" x1="149.44" y1="4.25" x2="149.44" y2="20.24" xlink:href="#e"/>
  </defs>
  <g style="isolation:isolate;" transform="matrix(1, 0, 0, 1, -4.440892098500626e-16, 1.7763568394002505e-15)">
    <g id="b">
      <g id="c">
        <path d="M68.88,27.58c5.79-4.15,11.55-4.15,17.29,0v-3.09c-5.87-3.26-11.57-3.31-17.09,0l-.2,3.09Z" style="fill:url(#d); stroke-width:0px;"/>
        <path d="M86.17,26.53v1.02c-5.74-4.16-11.5-4.16-17.28,0l.07-1.07c5.76-4.1,11.49-4.08,17.21.05Z" style="fill:url(#e); mix-blend-mode:multiply; stroke-width:0px;"/>
        <path d="M155.04,4.25l-12.48,9.99c-4.09-9.74-14.9-14.24-27.59-14.24-16.2,0-29.34,7.33-29.34,23.54s13.14,29.34,29.34,29.34,29.34-13.14,29.34-29.34c0-1.15-.07-2.24-.2-3.3l10.93-15.98ZM114.97,50.08c-14.96,0-27.09-12.13-27.09-27.09S100,1.25,114.97,1.25s27.08,6.77,27.08,21.73-12.13,27.09-27.08,27.09Z" style="fill:url(#f); stroke-width:0px;"/>
        <path d="M114.97.48c-14.96,0-27.09,6.78-27.09,21.73,0,.13,0,.26,0,.39.2-14.69,12.25-21.35,27.08-21.35s26.88,6.66,27.08,21.35c0-.13,0-.26,0-.39,0-14.96-12.12-21.73-27.09-21.73ZM144.3,23.16c-.2,16.02-13.25,28.05-29.33,28.05s-29.13-12.02-29.33-28.05c0,.13,0,.25,0,.38,0,16.21,13.14,29.34,29.34,29.34s29.34-13.14,29.34-29.34c0-.13,0-.25,0-.38Z" style="fill:url(#g); mix-blend-mode:multiply; stroke-width:0px;"/>
        <path d="M89.87,10.69c-.25-.09-2.19,3.25-3.11,7.38-1.61,7.18.56,13.5.88,13.46.29-.04-1.01-5.18.27-12.77.8-4.75,2.21-7.99,1.96-8.08Z" style="fill:#fff; stroke-width:0px;"/>
        <path d="M138.79,9.34c-.06.03,2.14,3.22,3.27,8.08,2.11,9.05-1.72,16.62-1.38,16.73.28.09,3.48-4.93,3.19-11.58-.33-7.56-5-13.27-5.08-13.23Z" style="fill:#fff; stroke-width:0px;"/>
        <path d="M40.17,0c-12.72,0-23.55,4.52-27.62,14.31h0S0,4.25,0,4.25l11.01,16.1c-.12,1.02-.19,2.08-.19,3.19,0,16.2,13.14,29.34,29.34,29.34s29.34-13.14,29.34-29.34S56.37,0,40.17,0ZM40.17,50.08c-14.96,0-27.09-12.13-27.09-27.09S25.2,1.25,40.17,1.25s27.08,6.77,27.08,21.73-12.13,27.09-27.08,27.09Z" style="fill:url(#h); stroke-width:0px;"/>
        <path d="M40.17.48C25.21.48,13.08,7.26,13.08,22.21c0,.13,0,.26,0,.39C13.29,7.91,25.34,1.25,40.17,1.25s26.88,6.66,27.08,21.35c0-.13,0-.26,0-.39C67.25,7.26,55.13.48,40.17.48ZM69.5,23.16c-.2,16.02-13.25,28.05-29.33,28.05s-29.13-12.02-29.33-28.05c0,.13,0,.25,0,.38,0,16.21,13.14,29.34,29.34,29.34s29.34-13.14,29.34-29.34c0-.13,0-.25,0-.38Z" style="fill:url(#i); mix-blend-mode:multiply; stroke-width:0px;"/>
        <path d="M15.07,10.69c-.25-.09-2.19,3.25-3.11,7.38-1.61,7.18.56,13.5.88,13.46.29-.04-1.01-5.18.27-12.77.8-4.75,2.21-7.99,1.96-8.08Z" style="fill:#fff; stroke-width:0px;"/>
        <path d="M63.98,9.34c-.06.03,2.14,3.22,3.27,8.08,2.11,9.05-1.72,16.62-1.38,16.73.28.09,3.48-4.93,3.19-11.58-.33-7.56-5-13.27-5.08-13.23Z" style="fill:#fff; stroke-width:0px;"/>
        <polygon points="11.01 20.35 11.29 18.32 0 4.25 11.01 20.35" style="fill:url(#j); mix-blend-mode:multiply; opacity:.5; stroke-width:0px;"/>
        <polygon points="144.11 20.24 143.83 17.75 155.04 4.25 144.11 20.24" style="fill:url(#k); mix-blend-mode:multiply; opacity:.5; stroke-width:0px;"/>
      </g>
    </g>
  </g>
</svg>