<?xml version="1.0" encoding="UTF-8"?><svg xmlns="http://www.w3.org/2000/svg" xmlns:xlink="http://www.w3.org/1999/xlink" viewBox="0 0 120.9 153.24"><defs><linearGradient id="d" x1="60.46" y1="151.75" x2="60.46" y2="104.44" gradientUnits="userSpaceOnUse"><stop offset="0" stop-color="#ffb09a"/><stop offset=".21" stop-color="#ff9b8d"/><stop offset=".47" stop-color="#ff8780"/><stop offset=".74" stop-color="#ff7b79"/><stop offset="1" stop-color="#f77"/></linearGradient><linearGradient id="e" x1="73.51" y1="142.55" x2="74.26" y2="110.94" gradientUnits="userSpaceOnUse"><stop offset="0" stop-color="#ffe7d8"/><stop offset=".29" stop-color="#ecbde1"/><stop offset=".59" stop-color="#dc97e9"/><stop offset=".84" stop-color="#d17fef"/><stop offset=".99" stop-color="#ce77f1"/></linearGradient><linearGradient id="f" x1="16.94" y1="91.06" x2="16.94" y2="59.31" xlink:href="#d"/><linearGradient id="g" x1="17.34" y1="81.03" x2="17.34" y2="64.34" gradientUnits="userSpaceOnUse"><stop offset="0" stop-color="#ffe7d8"/><stop offset=".29" stop-color="#f9bdc9"/><stop offset=".59" stop-color="#f597bb"/><stop offset=".84" stop-color="#f27fb3"/><stop offset=".99" stop-color="#f177b0"/></linearGradient><linearGradient id="h" x1="19.66" y1="81.11" x2="19.66" y2="70.88" gradientUnits="userSpaceOnUse"><stop offset="0" stop-color="#ffe7d8"/><stop offset=".99" stop-color="#ce77f1"/></linearGradient><linearGradient id="i" x1="30.45" y1="83.46" x2="15.9" y2="83.46" xlink:href="#g"/><linearGradient id="j" x1="-2262.26" y1="91.06" x2="-2262.26" y2="59.31" gradientTransform="translate(-2158.28) rotate(-180) scale(1 -1)" xlink:href="#d"/><linearGradient id="k" x1="-2261.86" y1="81.03" x2="-2261.86" y2="64.34" gradientTransform="translate(-2158.28) rotate(-180) scale(1 -1)" xlink:href="#g"/><linearGradient id="l" x1="-2259.54" y1="81.11" x2="-2259.54" y2="70.88" gradientTransform="translate(-2158.28) rotate(-180) scale(1 -1)" xlink:href="#h"/><linearGradient id="m" x1="-2249.04" y1="83.46" x2="-2262.82" y2="83.46" gradientTransform="translate(-2158.28) rotate(-180) scale(1 -1)" xlink:href="#g"/><linearGradient id="n" x1="60.46" y1="119.11" x2="60.46" y2="0" gradientUnits="userSpaceOnUse"><stop offset="0" stop-color="#fa9b76"/><stop offset=".11" stop-color="#f89b7c"/><stop offset=".43" stop-color="#f69e8a"/><stop offset=".65" stop-color="#fb9783"/><stop offset="1" stop-color="#ff937f"/></linearGradient><linearGradient id="o" x1="30.21" y1="105.63" x2="30.21" y2="66.6" xlink:href="#h"/><linearGradient id="p" x1="-2093.24" y1="105.63" x2="-2093.24" y2="66.6" gradientTransform="translate(-2002.58) rotate(-180) scale(1 -1)" xlink:href="#h"/><linearGradient id="q" x1="60.71" y1="117.29" x2="60.71" y2="108.07" gradientUnits="userSpaceOnUse"><stop offset="0" stop-color="#ce77f1"/><stop offset=".16" stop-color="#d17fef"/><stop offset=".41" stop-color="#dc97e9"/><stop offset=".71" stop-color="#ecbde1"/><stop offset="1" stop-color="#ffe7d8"/></linearGradient><linearGradient id="r" x1="60.45" y1="133.82" x2="60.45" y2="151.75" gradientUnits="userSpaceOnUse"><stop offset="0" stop-color="#705ab5"/><stop offset=".19" stop-color="#8761c4"/><stop offset=".54" stop-color="#ad6ddc"/><stop offset=".82" stop-color="#c574eb"/><stop offset=".99" stop-color="#ce77f1"/></linearGradient><linearGradient id="s" x1="61.46" y1="149.05" x2="82.62" y2="139.76" xlink:href="#r"/><linearGradient id="t" x1="60.09" y1="133.64" x2="60.09" y2="145" xlink:href="#r"/><linearGradient id="u" x1="60.3" y1="94.05" x2="60.3" y2="88.06" gradientUnits="userSpaceOnUse"><stop offset="0" stop-color="#8f314b"/><stop offset="1" stop-color="#972542"/></linearGradient><linearGradient id="v" x1="60.46" y1="123.91" x2="60.46" y2="104.42" xlink:href="#u"/></defs><g style="isolation:isolate;"><g id="b"><g id="c"><path d="M108.19,149.86s-32.32,1.89-47.74,1.89-47.74-1.89-47.74-1.89c0,0,19.19-7.16,21.33-11.83,1.07-2.35,1.5-10.84,1.66-18.7.16-7.76.05-14.9.05-14.9l24.7.35,24.7-.35s-.29,19.39.78,28.98c.23,2.12.54,3.77.92,4.61,2.13,4.67,21.33,11.83,21.33,11.83Z" style="fill:url(#d); stroke-width:0px;"/><path d="M72.09,107.88c-6.98,12.14-7.75,25.94-4.41,35.39,1.1,3.11,15.77-30.91,14.58-35.39-1.19-4.49-6.59-6.22-10.17,0Z" style="fill:url(#e); mix-blend-mode:multiply; opacity:.6; stroke-width:0px;"/><path d="M85.94,133.42c-.17.05-.36.16-.53.1-15.58-5.66-12.03,9.76-24.41,9.76-6.22,0-14.51-16.29-18.53-20.51-3.67-3.86-6.76-3.43-6.76-3.43.16-7.76.05-14.9.05-14.9l24.7.35,24.7-.35s-.29,19.39.78,28.98Z" style="fill:#ce5982; mix-blend-mode:multiply; opacity:.6; stroke-width:0px;"/><path d="M21.74,60.92s-6.73-2.36-8.64-1.37c-1.91.99-4.75,5.96-4.39,11.86.1,1.59,1.36,9.07,6.43,12.72,1.47,1.06,2.9,6.01,6.24,6.76,3.49.78,3.82-1.54,3.82-1.54l-3.46-28.43Z" style="fill:url(#f); stroke-width:0px;"/><path d="M23.39,74.47s-3.73-11.57-8.73-9.98c-3.92,1.25-3.34,9.74-3.34,9.74,0,0,1.09-7.54,5.63-5.11,2.4,1.28-1.45,3.44-1.45,6.55s2.63,6.76,3.58,4.81c.95-1.95,1.47-9.12,4.32-6.01Z" style="fill:url(#g); mix-blend-mode:multiply; opacity:.6; stroke-width:0px;"/><path d="M23.12,73.07s-2.82-4.46-6.18-.63c-3.36,3.83,1.31,10.8,2.13,8.05.82-2.76,1.4-6.81,2.86-6.41,1.46.4,1.65,1.93,1.65,1.93l-.45-2.93Z" style="fill:url(#h); mix-blend-mode:multiply; opacity:.6; stroke-width:0px;"/><path d="M19.05,89.53c.39.67,3.6,2.37,5.28.65,1.41-1.44-.58-12.66-.77-14.18,0,0,.61,11.85-.19,12.32-2.76,1.66-5.64-1-4.33,1.21Z" style="fill:url(#i); mix-blend-mode:multiply; opacity:.6; stroke-width:0px;"/><path d="M99.18,60.92s6.73-2.36,8.64-1.37c1.91.99,4.75,5.96,4.39,11.86-.1,1.59-1.36,9.07-6.43,12.72-1.47,1.06-2.9,6.01-6.24,6.76-3.49.78-3.82-1.54-3.82-1.54l3.46-28.43Z" style="fill:url(#j); stroke-width:0px;"/><path d="M97.53,74.47s3.73-11.57,8.73-9.98c3.92,1.25,3.34,9.74,3.34,9.74,0,0-1.09-7.54-5.63-5.11-2.4,1.28,1.45,3.44,1.45,6.55s-2.63,6.76-3.58,4.81c-.95-1.95-1.47-9.12-4.32-6.01Z" style="fill:url(#k); mix-blend-mode:multiply; opacity:.6; stroke-width:0px;"/><path d="M97.79,73.07s2.82-4.46,6.18-.63c3.36,3.83-1.31,10.8-2.13,8.05-.82-2.76-1.4-6.81-2.86-6.41-1.46.4-1.64,1.93-1.64,1.93l.45-2.93Z" style="fill:url(#l); mix-blend-mode:multiply; opacity:.6; stroke-width:0px;"/><path d="M101.86,89.53c-.39.67-3.6,2.37-5.28.65-1.41-1.44.58-12.66.77-14.18,0,0-.61,11.85.19,12.32-1.17-.7,4.24,1.36,4.33,1.21Z" style="fill:url(#m); mix-blend-mode:multiply; opacity:.6; stroke-width:0px;"/><path d="M99.42,69.46c-1.78,14.26-3.75,26.12-4.6,27.88-.69,1.43-3.2,4.1-6.68,7.09h0s0,0,0,0h0c-7.6,6.56-19.82,14.68-27.68,14.68-4.87,0-11.42-3.12-17.5-7.05,0,0,0,0,0,0-3.52-2.27-6.88-4.82-9.68-7.2t0,0c-3.73-3.17-6.45-6.03-7.17-7.52-.86-1.76-2.85-13.73-4.63-28.07-2.77-22.29-5.04-50.33-1.8-54.78,2.33-3.19,8.47-6.4,15.53-8.98C44.11,2.26,54.47,0,60.46,0c10.74,0,35.52,7.27,40.79,14.5,3.25,4.46.95,32.65-1.82,54.97Z" style="fill:url(#n); stroke-width:0px;"/><path d="M21.92,67.67c2.18,2.21,11.42,12.36,12.87,17.74s5.57,20.46,4.26,20.22-15-15.29-16.55-28.53c-1.55-13.24-1.83-10.69-.58-9.42Z" style="fill:url(#o); mix-blend-mode:multiply; opacity:.6; stroke-width:0px;"/><path d="M98.96,67.67c-2.18,2.21-11.42,12.36-12.87,17.74-1.45,5.37-5.57,20.46-4.26,20.22,1.31-.24,15-15.29,16.55-28.53s1.83-10.69.58-9.42Z" style="fill:url(#p); mix-blend-mode:multiply; opacity:.6; stroke-width:0px;"/><path d="M88.14,104.44h0c-7.6,6.56-19.82,14.68-27.68,14.68-4.87,0-11.42-3.12-17.5-7.05,0,0,0,0,0,0-3.52-2.27-6.88-4.82-9.68-7.2.51.33,14.42,9.33,17.86,9.95,3.5.64,14.8.32,17.66,0,2.84-.32,19.08-10.22,19.33-10.38Z" style="fill:url(#q); mix-blend-mode:multiply; opacity:.6; stroke-width:0px;"/><path d="M120.9,153.24H0l25.84-9.98,2.86-9.45s4.14-.38,6.25-.18l-.57,3.42s6.58,6.88,26.07,6.88c17.34,0,26.07-6.88,26.07-6.88l-.51-3.02-.07-.4c2.11-.2,6.25.18,6.25.18l2.86,9.45,25.84,9.98Z" style="fill:#9074b3; stroke-width:0px;"/><path d="M28.7,133.82c-.49,1.63,12.67,12.97,31.39,12.97,20.16,0,32.11-12.97,32.11-12.97l2.86,9.45s-21,8.48-35.97,8.48c-16.07,0-33.26-8.48-33.26-8.48l2.86-9.45Z" style="fill:url(#r); mix-blend-mode:multiply; opacity:.6; stroke-width:0px;"/><path d="M55.04,146.56c23.59,2.22,36.64-12.35,36.64-12.35,0,0-11.57,12.48-14.55,13.24-9.39,2.39-22.09-.89-22.09-.89Z" style="fill:url(#s); mix-blend-mode:multiply; opacity:.6; stroke-width:0px;"/><path d="M82.33,140.04c-5.72,2.51-20.04,6.76-33.37,4.14-12.74-2.51-18.2-8.19-18.44-8.99-.24-.79,3.9-1.11,4.42-1.55l-.57,3.42s6.58,6.88,26.07,6.88c17.34,0,26.07-6.88,26.07-6.88l-.51-3.02c1.6.09,3.18.17,3.51.17.72,0-1.48,3.32-7.19,5.83Z" style="fill:url(#t); mix-blend-mode:multiply; opacity:.6; stroke-width:0px;"/><path d="M78.66,87.59c-.51,0-4.74,2.23-7.79,2s-6.29-1.65-6.35-2c-.06-.35.47-.88.47-.88,0,0-2.29.82-3.17,1.58s-1.35.65-1.35.65c0,0-.47.12-1.35-.65s-3.17-1.58-3.17-1.58c0,0,.53.53.47.88-.06.35-3.29,1.76-6.35,2s-7.29-2-7.79-2-2.99,5.49-2.99,5.49c0,0,1.73-1.64,4.37-.94s7.89.93,11.85.42c3.96-.5,5.96-.5,9.91,0,3.96.5,8.01.33,10.62-.51,3.05-.98,5.29,1.51,5.29,1.51,0,0-2.16-5.98-2.67-5.98Z" style="fill:url(#u); stroke-width:0px;"/><path d="M80.22,109.69c-4.04,1.91-11.75,4.4-14.77,1.94-1.41-1.15-1.81-6.46-1.67-6.87.14-.41,2.08-3.85.32-3.57-.7.11-6.99-.34-8.68.31-.48.19-.15,1.37,1.33,2.66,1.02.89.58,3.21.24,4.7-.35,1.54-1.29,2.8-2.19,3.12-3.37,1.17-10.06-.38-14.1-2.29-4.04-1.91-10.27-7.19-10.27-7.19,0,0,13.4,11.54,17.86,14.24,4.47,2.7,12.17,5.99,12.17,5.99,0,0,7.7-3.29,12.17-5.99s17.86-14.24,17.86-14.24c0,0-6.23,5.28-10.27,7.19Z" style="fill:url(#v); stroke-width:0px;"/><path d="M42.26,111.03c.87,1.5,15.05,10.52,17.94,10.53,2.89,0,16.47-7.86,16.27-8.67s-9.37,2.72-17.44,1.86c-8.07-.86-17.48-4.94-16.77-3.71Z" style="fill:#7a369e; mix-blend-mode:multiply; opacity:.47; stroke-width:0px;"/><path d="M55.23,102.01c2.41,1.98,4.58,2.21,5.94,1.56s3.89-1.63,3.24-2c-.65-.37-3.28-.02-5.1-.14-1.82-.12-4.54.19-4.07.58Z" style="fill:#ce77b5; mix-blend-mode:multiply; opacity:.9; stroke-width:0px;"/><path d="M40.83,110.69c2.34,2.19,4.96,4.34,8.32,4.71,8.9.98,6.72,5.92,10.29,6.9,1.62.44,10.68-4.82,13.44-6.44s9.3-6.2,8.44-6.24c-.86-.04-5.36,4.31-10.47,6.1-4.55,1.6-7.55,3.5-9.81,2.17-2.83-1.67-6.74-2.84-10.01-2.9-6.39-.12-11.2-5.22-10.21-4.29Z" style="fill:#ce77b5; mix-blend-mode:multiply; opacity:.9; stroke-width:0px;"/><path d="M56.4,87.59c.09,1.28-1.96,1.02-1.8,1.41.16.39,3.21,1.45,4.86,1.96s6.11-1.8,5.72-2.27c-.39-.47-.45-1.06-1.31-1.1-.86-.04-1.67,1.84-2.77,1.72-1.1-.11-4.78-2.82-4.7-1.72Z" style="fill:#ce77b5; mix-blend-mode:multiply; opacity:.9; stroke-width:0px;"/><path d="M44.96,91.73c-2.51-2.48-2.72-3.6-3.53-2.55-.8,1.04-1.82,2.84-1.37,2.99.45.15,1.57-.98,2.86-.44,1.29.54,2.9.85,2.04,0Z" style="fill:#ce77b5; mix-blend-mode:multiply; opacity:.9; stroke-width:0px;"/><path d="M80.77,92.56c-.92-1.85-1.61-3.63-2.7-3.38-1.1.25-5.49,3.25-4.31,3.08,1.18-.17,3.05-1.43,4.62-.68,1.57.75,2.69,1.58,2.39.98Z" style="fill:#ce77b5; mix-blend-mode:multiply; opacity:.9; stroke-width:0px;"/><path d="M42.83,88.18c.82.89,3.58,3.31,4.93,3.27,1.35-.04,6.7-1.86,5.88-1.86s-3.25.71-5.68,0c-2.43-.71-5.55-1.87-5.13-1.41Z" style="fill:#ffefb4; mix-blend-mode:soft-light; opacity:.8; stroke-width:0px;"/><path d="M65.8,89.18c.36,2.17,3.79,1.93,4.86,1.35,1.07-.59,5.5-2.04,7.2-1.74,1.69.31,2.02,1.74,2.02,1.74,0,0-.46-2.44-1.5-2.45-1.04-.01-3.27,1.08-7.52,1.51-4.25.43-5.17-1.11-5.06-.41Z" style="fill:#ffefb4; mix-blend-mode:soft-light; opacity:.8; stroke-width:0px;"/><path d="M55.97,112.63c-.57,1.19,10.06,1.93,9.08-.36-.98-2.29-1.18-5.48-4.3-5.04-4.32.6-3.13,1.98-4.78,5.41Z" style="fill:#ffefb4; mix-blend-mode:soft-light; opacity:.8; stroke-width:0px;"/></g></g></g></svg>