<?xml version="1.0" encoding="UTF-8"?><svg xmlns="http://www.w3.org/2000/svg" xmlns:xlink="http://www.w3.org/1999/xlink" viewBox="0 0 127.74 76.62"><defs><linearGradient id="d" x1="63.53" y1="15.62" x2="63.53" y2="2.86" gradientUnits="userSpaceOnUse"><stop offset="0" stop-color="#8f314b"/><stop offset="1" stop-color="#972542"/></linearGradient><linearGradient id="e" x1="63.87" y1="79.12" x2="63.87" y2="37.67" xlink:href="#d"/></defs><g style="isolation:isolate;"><g id="b"><g id="c"><path d="M102.58,1.87c-1.08,0-10.08,4.75-16.58,4.25s-13.38-3.5-13.5-4.25c-.12-.75,1-1.87,1-1.87,0,0-4.87,1.74-6.75,3.37s-2.88,1.38-2.88,1.38c0,0-1,.25-2.88-1.38s-6.75-3.37-6.75-3.37c0,0,1.12,1.12,1,1.87-.12.75-7,3.75-13.5,4.25S26.24,1.87,25.17,1.87s-6.35,11.67-6.35,11.67c0,0,3.67-3.49,9.3-1.99s16.78,1.97,25.21.9c8.42-1.07,12.67-1.07,21.09,0,8.43,1.07,17.03.7,22.58-1.08,6.5-2.08,11.26,3.22,11.26,3.22,0,0-4.6-12.72-5.68-12.72Z" style="fill:url(#d); stroke-width:0px;"/><path d="M105.9,48.87c-8.59,4.07-25,9.35-31.42,4.12-3.01-2.45-3.85-13.74-3.54-14.61.31-.88,4.43-8.19.69-7.59-1.48.24-14.87-.73-18.46.66-1.03.4-.33,2.91,2.83,5.66,2.17,1.89,1.22,6.83.5,10-.75,3.27-2.75,5.96-4.67,6.63-7.17,2.5-21.4-.81-29.99-4.87C13.25,44.81,0,33.58,0,33.58c0,0,28.49,24.53,37.99,30.28s25.88,12.75,25.88,12.75c0,0,16.38-7,25.88-12.75s37.99-30.28,37.99-30.28c0,0-13.25,11.22-21.84,15.29Z" style="fill:url(#e); stroke-width:0px;"/><path d="M25.17,51.73c1.85,3.19,32.01,22.38,38.16,22.39,6.15.01,35.03-16.72,34.6-18.45s-19.94,5.78-37.1,3.95c-17.17-1.83-37.18-10.51-35.66-7.89Z" style="fill:#7a369e; mix-blend-mode:multiply; opacity:.47; stroke-width:0px;"/><path d="M52.74,32.55c5.13,4.21,9.75,4.7,12.62,3.32s8.28-3.46,6.89-4.25c-1.39-.79-6.98-.05-10.85-.3-3.87-.25-9.67.41-8.67,1.23Z" style="fill:#ce77b5; mix-blend-mode:multiply; opacity:.9; stroke-width:0px;"/><path d="M22.12,50.99c4.98,4.66,10.56,9.22,17.7,10.01,18.94,2.09,14.29,12.59,21.88,14.67,3.45.94,22.71-10.25,28.59-13.7s19.78-13.18,17.96-13.27c-1.82-.09-11.4,9.16-22.26,12.98-9.68,3.4-16.05,7.44-20.87,4.61-6.03-3.55-14.33-6.04-21.3-6.17-13.6-.25-23.83-11.11-21.71-9.12Z" style="fill:#ce77b5; mix-blend-mode:multiply; opacity:.9; stroke-width:0px;"/><path d="M55.25,1.87c.19,2.72-4.17,2.17-3.83,3,.33.83,6.83,3.08,10.33,4.17s13-3.83,12.17-4.83c-.83-1-.97-2.25-2.78-2.33-1.82-.08-3.55,3.91-5.88,3.66-2.33-.24-10.17-5.99-10-3.66Z" style="fill:#ce77b5; mix-blend-mode:multiply; opacity:.9; stroke-width:0px;"/><path d="M30.91,10.68c-5.33-5.27-5.79-7.65-7.5-5.43-1.71,2.22-3.88,6.05-2.92,6.37.96.32,3.35-2.09,6.09-.94,2.74,1.15,6.16,1.81,4.33,0Z" style="fill:#ce77b5; mix-blend-mode:multiply; opacity:.9; stroke-width:0px;"/><path d="M107.08,12.45c-1.96-3.93-3.42-7.73-5.75-7.19-2.33.53-11.67,6.91-9.17,6.55,2.5-.35,6.49-3.05,9.83-1.45,3.34,1.6,5.72,3.35,5.09,2.09Z" style="fill:#ce77b5; mix-blend-mode:multiply; opacity:.9; stroke-width:0px;"/><path d="M26.37,3.12c1.75,1.9,7.61,7.04,10.49,6.96,2.88-.08,14.26-3.96,12.51-3.96s-6.92,1.5-12.08,0c-5.17-1.5-11.81-3.98-10.92-3Z" style="fill:#ffefb4; mix-blend-mode:soft-light; opacity:.8; stroke-width:0px;"/><path d="M75.24,5.25c.77,4.61,8.05,4.11,10.34,2.86,2.29-1.24,11.7-4.35,15.3-3.69,3.6.66,4.3,3.69,4.3,3.69,0,0-.99-5.19-3.2-5.22-2.21-.03-6.95,2.3-15.99,3.22-9.04.92-11-2.36-10.75-.87Z" style="fill:#ffefb4; mix-blend-mode:soft-light; opacity:.8; stroke-width:0px;"/><path d="M54.33,55.12c-1.22,2.53,21.39,4.1,19.31-.77-2.08-4.88-2.51-11.65-9.15-10.73-9.19,1.27-6.66,4.22-10.16,11.5Z" style="fill:#ffefb4; mix-blend-mode:soft-light; opacity:.8; stroke-width:0px;"/></g></g></g></svg>