<?xml version="1.0" encoding="UTF-8"?><svg xmlns="http://www.w3.org/2000/svg" xmlns:xlink="http://www.w3.org/1999/xlink" viewBox="0 0 153.26 21.29"><defs><linearGradient id="d" x1="0" y1="10.64" x2="54.68" y2="10.64" gradientUnits="userSpaceOnUse"><stop offset="0" stop-color="#36063b"/><stop offset="1" stop-color="#4d0e2e"/></linearGradient><linearGradient id="e" x1="-1768.86" x2="-1714.18" gradientTransform="translate(-1615.6) rotate(-180) scale(1 -1)" xlink:href="#d"/></defs><g style="isolation:isolate;"><g id="b"><g id="c"><path d="M50.72,21.29s-14.79-6.28-26.93-10.14c-3.83-1.22-7.4-2.19-10.16-2.65C3.59,6.83.6,14.62,0,16.65,2.92,5.5,8.85,1.44,10.42.18c.44-.35,3.66-.17,8.09.29,4.83.49,11.1,1.31,16.75,2.09,2.28.31,4.46.63,6.41.9,4.74.68,8.08,1.2,8.08,1.2l.96,12.47c2.95-2.92,1.92-8.86,1.92-8.86h1.92c.96,6.8-3.84,13.02-3.84,13.02Z" style="fill:url(#d); stroke-width:0px;"/><path d="M41.67,3.46c-4.54,1.03-11.49,3.21-17.89,7.69-3.83-1.22-7.4-2.19-10.16-2.65C3.59,6.83.6,14.62,0,16.65,2.92,5.5,8.85,1.44,10.42.18c.44-.35,3.66-.17,8.09.29C6.95,4.27,6.1,6.8,6.1,6.8c0,0,15.15-2.83,29.16-4.23,2.28.31,4.46.63,6.41.9Z" style="fill:#7a369e; mix-blend-mode:multiply; opacity:.3; stroke-width:0px;"/><path d="M102.54,21.29s14.79-6.28,26.93-10.14c3.83-1.22,7.4-2.19,10.16-2.65,10.03-1.67,13.02,6.12,13.62,8.15-2.92-11.15-8.85-15.21-10.42-16.47-.44-.35-3.66-.17-8.09.29-4.83.49-11.1,1.31-16.75,2.09-2.28.31-4.46.63-6.41.9-4.74.68-8.08,1.2-8.08,1.2l-.96,12.47c-2.95-2.92-1.92-8.86-1.92-8.86h-1.92c-.96,6.8,3.84,13.02,3.84,13.02Z" style="fill:url(#e); stroke-width:0px;"/><path d="M111.59,3.46c4.54,1.03,11.49,3.21,17.89,7.69,3.83-1.22,7.4-2.19,10.16-2.65,10.03-1.67,13.02,6.12,13.62,8.15-2.92-11.15-8.85-15.21-10.42-16.47-.44-.35-3.66-.17-8.09.29,11.57,3.8,12.41,6.33,12.41,6.33,0,0-15.15-2.83-29.16-4.23-2.28.31-4.46.63-6.41.9Z" style="fill:#7a369e; mix-blend-mode:multiply; opacity:.3; stroke-width:0px;"/></g></g></g></svg>