<?xml version="1.0" encoding="utf-8"?>
<svg viewBox="0 0 155.64 27.21" xmlns="http://www.w3.org/2000/svg" xmlns:xlink="http://www.w3.org/1999/xlink">
  <defs>
    <linearGradient id="e" x1="23.46" y1="23.82" x2="23.46" y2="6.74" gradientUnits="userSpaceOnUse">
      <stop offset="0" stop-color="#ffe7d8"/>
      <stop offset="0.99" stop-color="#8680e8"/>
    </linearGradient>
    <linearGradient id="g" x1="-608.33" x2="-608.33" y2="6.74" gradientTransform="translate(-476.16) rotate(-180) scale(1 -1)" xlink:href="#e"/>
  </defs>
  <g style="isolation:isolate;">
    <g id="b">
      <g id="c">
        <path d="M46.92,16.52c-2.34-.24-37.16-4.66-38.66-2.84C6.76,15.52-.24,27.85,0,27.18c.25-.67,1.91-20.66,2.91-22.66S6.76-.82,6.26.18s.5,3.84,1.66,3.5c1.17-.33,31.37-1.32,34-.66,1.09.27,2.4,3.1,2.84,4.59-.25-1.83-.72-6.13-.34-6.26.5-.17,4,.33,4.17,1,.17.66.35,14.37-1.67,14.16Z" style="stroke-width: 0px; fill: rgb(71, 12, 49);"/>
        <path d="M46.92,16.52c-2.34-.24-37.16-4.66-38.66-2.84C6.76,15.52-.24,27.85,0,27.18c.25-.67,1.91-20.66,2.91-22.66S6.76-.82,6.26.18s.5,3.84,1.66,3.5c-3.5,1.92,5.5,4.84,8.5,6.4,3,1.57,17.5,1.94,15.5,0-1.94-1.87-9.03-4.17-9.48-4.31,13.21,2.2,24.48,10.75,24.48,10.75Z" style="fill:url(#e); mix-blend-mode:multiply; opacity:.6; stroke-width:0px;"/>
        <path d="M108.72,16.52c2.34-.24,37.17-4.66,38.67-2.84,1.5,1.84,8.49,14.17,8.25,13.5-.25-.67-1.92-20.66-2.92-22.66s-3.83-5.34-3.33-4.34-.5,3.84-1.67,3.5c-1.16-.33-31.37-1.32-34-.66-1.09.27-2.4,3.1-2.84,4.59.25-1.83.72-6.13.34-6.26-.5-.17-4,.33-4.16,1-.17.66-.35,14.37,1.66,14.16Z" style="stroke-width: 0px; fill: rgb(71, 12, 49);"/>
        <path d="M108.72,16.52c2.34-.24,37.17-4.66,38.67-2.84,1.5,1.84,8.49,14.17,8.25,13.5-.25-.67-1.92-20.66-2.92-22.66s-3.83-5.34-3.33-4.34-.5,3.84-1.67,3.5c3.5,1.92-5.5,4.84-8.5,6.4-3,1.57-17.5,1.94-15.5,0,1.94-1.87,9.03-4.17,9.48-4.31-13.21,2.2-24.48,10.75-24.48,10.75Z" style="fill:url(#g); mix-blend-mode:multiply; opacity:.6; stroke-width:0px;"/>
      </g>
    </g>
  </g>
</svg>