<?xml version="1.0" encoding="UTF-8"?><svg id="b" xmlns="http://www.w3.org/2000/svg" viewBox="0 0 836.02 836.02"><g id="c"><path d="M836.02,418.01c0,112.19-44.2,214.06-116.14,289.14-76.09,79.42-183.21,128.87-301.87,128.87s-225.79-49.45-301.87-128.87C44.2,632.07,0,530.2,0,418.01,0,187.15,187.15,0,418.01,0s418.01,187.15,418.01,418.01Z" style="fill:#ead8fc; stroke-width:0px;"/><circle cx="418.01" cy="269.67" r="170.77" style="fill:#6c2a9f; stroke-width:0px;"/><path d="M705.72,672.59c-3.35,3.78-6.78,7.51-10.28,11.15-69.92,73-168.37,118.44-277.44,118.44s-207.52-45.44-277.44-118.44c-3.5-3.64-6.93-7.37-10.28-11.15,0-71,24.72-154.85,91.87-198.88,30.35-19.9,69.92-18.46,99.22,2.96,22.49,16.45,51.51,26.66,96.62,26.66s74.13-10.21,96.62-26.66c29.29-21.42,68.87-22.86,99.22-2.96,67.16,44.03,91.87,127.88,91.87,198.88Z" style="fill:#6c2a9f; stroke-width:0px;"/></g></svg>