<?xml version="1.0" encoding="UTF-8"?><svg xmlns="http://www.w3.org/2000/svg" xmlns:xlink="http://www.w3.org/1999/xlink" viewBox="0 0 130.46 110.63"><defs><linearGradient id="d" x1="63.46" y1="100.81" x2="63.46" y2="19.86" gradientUnits="userSpaceOnUse"><stop offset="0" stop-color="#047857"/><stop offset=".18" stop-color="#047555"/><stop offset=".3" stop-color="#046c4f"/><stop offset=".39" stop-color="#065f46"/><stop offset=".47" stop-color="#076349"/><stop offset=".57" stop-color="#0d7153"/><stop offset=".67" stop-color="#168964"/><stop offset=".78" stop-color="#23a97b"/><stop offset=".89" stop-color="#34d399"/><stop offset="1" stop-color="#34d399"/></linearGradient><linearGradient id="e" x1="-502.6" y1="54.35" x2="-502.6" y2="1.28" gradientTransform="translate(579.41)" gradientUnits="userSpaceOnUse"><stop offset="0" stop-color="#059669"/><stop offset="1" stop-color="#6ee7b7"/></linearGradient><linearGradient id="f" x1="-475.3" y1="54.38" x2="-475.3" y2="0" xlink:href="#e"/><linearGradient id="g" x1="-464.74" y1="54.38" x2="-464.74" y2="5.09" xlink:href="#e"/><linearGradient id="h" x1="-462.82" y1="54.4" x2="-462.82" y2="24.1" xlink:href="#e"/><linearGradient id="i" x1="203.86" y1="99.91" x2="203.86" y2="44.75" gradientTransform="translate(310.67) rotate(-180) scale(1 -1)" xlink:href="#e"/><linearGradient id="j" x1="193.12" y1="84.3" x2="193.12" y2="55.57" gradientTransform="translate(310.67) rotate(-180) scale(1 -1)" xlink:href="#e"/><linearGradient id="k" x1="24.22" y1="110.63" x2="24.22" y2="68.95" gradientTransform="matrix(1,0,0,1,0,0)" xlink:href="#e"/><linearGradient id="l" x1="186.08" y1="108.5" x2="186.08" y2="79.77" gradientTransform="translate(-173.17)" xlink:href="#e"/><radialGradient id="m" cx="352.02" cy="273.41" fx="352.02" fy="273.41" r="11.86" gradientTransform="translate(331.76 80.25) rotate(160.54) scale(.56 .37)" gradientUnits="userSpaceOnUse"><stop offset=".52" stop-color="#a68f95"/><stop offset="1" stop-color="#000"/></radialGradient><radialGradient id="n" cx="283.13" cy="249.5" fx="283.13" fy="249.5" r="11.86" gradientTransform="translate(351.29 122.54) rotate(-173.01) scale(.99 .26)" xlink:href="#m"/><radialGradient id="o" cx="318.19" cy="262.11" fx="318.19" fy="262.11" r="8.54" gradientTransform="translate(238.84 142.69) rotate(-167.23) scale(.56 .37)" xlink:href="#m"/><radialGradient id="p" cx="195.43" cy="213.31" fx="195.43" fy="213.31" r="8.54" gradientTransform="translate(138.69 136.38) rotate(-138.1) scale(.56 .37)" xlink:href="#m"/><radialGradient id="q" cx="132.21" cy="-15.4" fx="132.21" fy="-15.4" r="7.8" gradientTransform="translate(61.75 77.93) rotate(-109.46) scale(.56 .37)" xlink:href="#m"/><radialGradient id="r" cx="164.19" cy="8.66" fx="164.19" fy="8.66" r="11.86" gradientTransform="translate(163.69 122.93) rotate(-125.39) scale(.45 .34)" xlink:href="#m"/><radialGradient id="s" cx="334.05" cy="-222.1" fx="334.05" fy="-222.1" r="11.86" gradientTransform="translate(244.07 113.51) rotate(-150) scale(.65 .37)" xlink:href="#m"/><radialGradient id="t" cx="650" cy="-32.28" fx="650" fy="-32.28" r="7.63" gradientTransform="translate(-326.47 484.97) rotate(-42.22) scale(.89 .16)" xlink:href="#m"/><radialGradient id="u" cx="205.88" cy="-276.13" fx="205.88" fy="-276.13" r="9.49" gradientTransform="translate(132.53 197.5) rotate(-101.84) scale(.65 .37)" xlink:href="#m"/></defs><g style="isolation:isolate;"><g id="b"><g id="c"><path d="M105.5,51.33c-.08-12.8-.73-23.96-2.23-25.84-.88-1.1-3.76-2-7.6-2.74-7.93-1.51-19.94-2.3-26.84-2.65-3.26-.17-5.37-.24-5.37-.24,0,0-36.27,1.18-39.81,5.63-3.55,4.46-2.37,60.75,0,68.26,2.36,7.5,39.81,7.05,39.81,7.05,0,0,37.45.45,39.81-7.05,1.17-3.7,2.04-19.24,2.21-34.59.03-2.63.04-5.26.02-7.83ZM99.11,90.26c-2.11,6.72-35.65,6.3-35.65,6.3,0,0-33.53.42-35.65-6.3-1.57-5-2.57-34.21-1.66-50.46h0s0-.02,0-.03c.3-5.58.83-9.61,1.65-10.64,3.17-3.99,35.65-5.04,35.65-5.04,0,0,22.67.73,31.98,3.31,1.83.5,3.15,1.08,3.67,1.73.72.91,1.22,4.19,1.54,8.82.03.45.06.91.09,1.38.14,2.42.24,5.15.3,8.05.06,2.67.08,5.5.07,8.37-.04,14.81-.86,30.92-2,34.51Z" style="fill:url(#d); stroke-width:0px;"/><path d="M24.28,24.94c-.99.86,3.65,3.37,11.02,1.98,9-1.7,27.28-1.64,31.85-1.71,4.57-.07,25.48,1.82,29.28,3.4,2.58,1.07,6.39-3.55,6.21-3.66-.18-.11-16.1-5.08-39.18-5.08s-38.55,4.53-39.18,5.08Z" style="fill:#fff; mix-blend-mode:soft-light; stroke-width:0px;"/><path d="M27.86,97.06c-3.15-5.36,19.8-.99,37.16-1.21,17.36-.23,32.9-3.29,30.91,2.21,0,0-13.38,2.75-32.96,2.75s-35.11-3.75-35.11-3.75Z" style="fill:#093325; mix-blend-mode:multiply; opacity:.5; stroke-width:0px;"/><path d="M27.81,29.14c-.49-2.41-3.5-2.85-4.19-2.33-.69.52-1.49,8.66-1.24,9.68.25,1.03,3.85-.07,4.28-2.7.43-2.63,1.16-4.66,1.16-4.66Z" style="fill:#093325; mix-blend-mode:multiply; opacity:.5; stroke-width:0px;"/><path d="M99.33,29.49c-.06-1.06,2.7-3.09,3.32-3.55.63-.45,1.66,4.54,1.84,8.09.19,3.55-1.35,4.17-2.58,4.17-1.24,0-2.58-8.71-2.58-8.71Z" style="fill:#093325; mix-blend-mode:multiply; opacity:.5; stroke-width:0px;"/><path d="M100.74,39.33c-.11-.51-1.89-9.76-3.25-10.21-1.4-.47-14.18-3.64-33.5-3.64s-32.13,2.14-34.46,3.18c-2.27.99-3.29,10.55-3.37,11.11.31-5.57.84-9.61,1.65-10.64,3.17-3.99,35.65-5.04,35.65-5.04,0,0,32.47,1.05,35.66,5.04.79.99,1.31,4.85,1.63,10.19Z" style="fill:#a7f3d0; stroke-width:0px;"/><path d="M26.67,81.37c.11.51,1.38,10.2,2.74,10.65,1.4.47,13.97,2.35,33.28,2.35s32.34-1.11,34.67-2.14c2.27-.99,2.82-10.3,2.9-10.86-.31,5.57-.36,9.61-1.17,10.64-3.17,3.99-35.65,5.04-35.65,5.04,0,0-32.47-1.05-35.66-5.04-.79-.99-.8-5.29-1.11-10.64Z" style="fill:#10b981; stroke-width:0px;"/><path d="M74.44,25.29c-2.61-.53,4.95-3.45,9.24-2.33,4.29,1.12,1.87,4.57-9.24,2.33Z" style="fill:#fff; stroke-width:0px;"/><path d="M106.03,56.83l-.55,2.33-1.33,5.68c-.68-6.3-2.02-8.42-3.04-9.09,0-2.87,0-5.7-.07-8.37.2-2.86.19-6.18-.39-9.43-.68-3.81-2.14-7.52-4.93-10.29-.09-.09-.18-.18-.28-.26-9.42-8.72-40.25-6.19-40.25-6.19,0,0,6.08-.72,13.64-1.11,8.59-.45,19.1-.47,24.71,1.46.75.26,1.46.66,2.13,1.19,6.22,4.87,8.84,20.25,9.83,28.58.39,3.3.53,5.5.53,5.5Z" style="fill:#093325; mix-blend-mode:multiply; opacity:.78; stroke-width:0px;"/><path d="M27.28,8.5s-1.75,9.64,0,12.09c1.75,2.45,51.78-1.84,65.45,3.06,13.67,4.9,10.47,22.65,9.21,27.86-1.26,5.2,11.39,1.65,11.39,1.65,0,0,8.42-2.92,11.21-10,5.24-13.27.86-15.23.86-15.23,0,0,2.29-11.33-9.39-13.16,0,0-3.9-27.86-24.29-3.52-1.67,1.99,12.96,3.14,11.25,10.72-1.71,7.58-3.16-15.96-16.79-16.88-13.63-.92-14.07,18.92-51.95,14.2-6.51-.81-.19-6.89,2.22-6.89S30.97-.22,27.28,8.5Z" style="fill:url(#e); stroke-width:0px;"/><path d="M101.56,54.38s15.51-21.08,14.9-43.57c-.65-24.05-24.75-.71-24.73,1.01.02,1.71,5.97-.72,10.68,7.05,4.77,7.87-.85,35.51-.85,35.51Z" style="fill:url(#f); stroke-width:0px;"/><path d="M103.73,54.36s19.12-16.24,23.25-31.87c4.49-16.97-11.46-17.4-11.46-17.4,0,0,2.43,14.85-4.97,31.13-6.64,14.59-8.99,18.16-8.99,18.16l2.18-.02Z" style="fill:url(#g); stroke-width:0px;"/><path d="M105.8,54.38s12.44,1,18.74-11.21c4.98-9.64,1.87-19.08,1.87-19.08,0,0-9.28,21.96-20.61,30.28Z" style="fill:url(#h); stroke-width:0px;"/><path d="M101.56,54.38s9.99-19.85,8.16-38.68c-1.83-18.83-15.19-7.26-15.66-6.78-.47.48,5.59,3.67,8.91,10.74,3.32,7.07-1.41,34.73-1.41,34.73Z" style="fill:#093325; mix-blend-mode:multiply; opacity:.5; stroke-width:0px;"/><path d="M102.97,53.87s11.57-18.91,12.83-33.46c1.26-14.54-.28-15.32-.28-15.32,0,0,1.46,10.77-2.4,24.39-3.86,13.62-10.15,24.39-10.15,24.39Z" style="fill:#093325; mix-blend-mode:multiply; opacity:.5; stroke-width:0px;"/><path d="M105.8,54.38s18.22-8.22,21.65-22.61c0,0,1.1,20.73-21.65,22.61Z" style="fill:#093325; mix-blend-mode:multiply; opacity:.5; stroke-width:0px;"/><path d="M127.47,13.98s-7.06,27.76-23.74,40.38c0,0,8.8-3.38,16.56-17.04,7.76-13.66,8.13-20.66,7.17-23.34Z" style="fill:#093325; mix-blend-mode:multiply; opacity:.5; stroke-width:0px;"/><path d="M102.91,37.29s-4.48-20.94-15.18-25.12c-10.7-4.17-16.12,7.28-35.69,9.07,0,0,38.49-.48,44.54,5.94,6.05,6.42,6.33,10.1,6.33,10.1Z" style="fill:#093325; mix-blend-mode:multiply; opacity:.5; stroke-width:0px;"/><path d="M27.28,8.5c2.49-4.36,2.73,12.27,3.77,12.79,1.04.52-2.31.24-3.77-.7s-.43-9.91,0-12.09Z" style="fill:#093325; mix-blend-mode:multiply; opacity:.5; stroke-width:0px;"/><path d="M102.4,35.25s-4.96-16.41-9.82-19.74c-4.86-3.33-8.78-5.18-10.47-4.2-1.69.98,2.38,9.22,9.61,11.84,7.23,2.61,10.67,12.1,10.67,12.1Z" style="fill:#093325; mix-blend-mode:multiply; opacity:.5; stroke-width:0px;"/><path d="M94.06,8.91l4.12,6s3.52,1.17,4.96,5.53c1.43,4.36.45,18.39.45,18.39,0,0,7.94-15.53,5.75-25.87-2.19-10.35-10.22-8.37-15.27-4.04Z" style="fill:#093325; mix-blend-mode:multiply; opacity:.5; stroke-width:0px;"/><path d="M105.8,54.38s8.56-3.28,12.79-8.66c4.23-5.38,2.32,2.57,2.32,2.57,0,0-5.13,5.66-15.12,6.09Z" style="fill:#093325; mix-blend-mode:multiply; opacity:.5; stroke-width:0px;"/><path d="M98.62,5.75s5.04-2.7,8.36,1.35c3.32,4.05,7.66-1.95,7.7-3.07.04-1.12-1.2-4.85-8.03-3.52-6.82,1.34-8.03,5.24-8.03,5.24Z" style="fill:#fff; mix-blend-mode:soft-light; opacity:.5; stroke-width:0px;"/><path d="M118.02,41.01s4.55,1.19,6.78-2.8c2.23-3.99,1.35-12.14,1.35-12.14,0,0-4.18,11.51-8.13,14.94Z" style="fill:#fff; mix-blend-mode:soft-light; opacity:.5; stroke-width:0px;"/><path d="M78.7,6.94c-2.92,2.83,3.7,1.4,10.22,5.79,6.52,4.39,7.63,1.25,7.63,1.25,0,0-4.63-13.54-17.85-7.04Z" style="fill:#fff; mix-blend-mode:soft-light; opacity:.5; stroke-width:0px;"/><path d="M36.57,11.98s-.29-3.67-3.6-5.43c-3.3-1.76-4.55.11-4.69.54-.14.42,1.1,1.96,1.39,3.62.29,1.66,6.9,1.27,6.9,1.27Z" style="fill:#fff; mix-blend-mode:soft-light; opacity:.5; stroke-width:0px;"/><path d="M83.16,99.91c3.5-.1,6.67-.55,9.56-1.56,0,0,.04-.01.1-.05,7.35-2.63,12.89-9,17.48-22.6,6.38-18.88,19.04-27.46,20.07-28.45,0-.01.02-.01.02-.01.93-.92-7.69-5.1-18.79.01-12.45,5.73-5.36,15.84-6.92,29.53-1.58,13.68-15.33,22.39-21.51,23.13Z" style="fill:url(#i); stroke-width:0px;"/><path d="M92.82,98.3c7.35-2.63,12.89-9,17.48-22.6,6.38-18.88,19.04-27.46,20.07-28.45-.59.29-15.68,7.72-20.07,11.66-4.48,4.02-1.17,16.99-5,26.18-3.59,8.62-11.51,12.74-12.48,13.22Z" style="fill:#093325; mix-blend-mode:multiply; opacity:.78; stroke-width:0px;"/><path d="M127.12,49.96s-10.12,4.46-14.32,7.04c-4.19,2.58-4.7,6.41-4.84,7.7-.15,1.28,3.03,3.41,4.73,2.46,1.71-.95,5.48-10.41,14.43-17.2Z" style="fill:#093325; mix-blend-mode:multiply; opacity:.5; stroke-width:0px;"/><path d="M128.71,46.92c.61.96-6.31,3.8-12.92,8.18-6.61,4.37-9.99,2.69-9.99,2.69,0,0,.07-4.2,8.87-8.34,8.8-4.14,13.75-2.98,14.04-2.52Z" style="fill:#fff; mix-blend-mode:soft-light; opacity:.5; stroke-width:0px;"/><path d="M106.81,84.3s.07-.01.19-.04c1.09-.25,6.53-1.59,7.75-4.07.06-.12.11-.24.15-.38.02-.07.03-.15.05-.22.03-.11.04-.21.05-.32.12-2.39-1.4-3.72-1.66-5.74-.11-.87,0-1.85.58-3.1,1.91-4.19,5-6.08,5.21-3.27.06.82-.05,1.36-.23,1.73,0,.02-.03.05-.05.07-.05.12-.13.22-.2.3-.02.02-.03.04-.03.04-.47.53-1.08.67-1.07,1.42,0,.19.06.46.16.75.57,1.68,2.79,4.44,6.44,1.28,1.83-1.59,3.2-4.42,3.81-7.32h0c.81-3.88.27-7.88-2.31-9.19-4.52-2.29-13.92,1.51-14.83,5.82-.83,3.96-3.51,19.43-3.93,21.89-.02.08-.03.16-.05.21,0,.05,0,.08,0,.11,0,.01,0,.02,0,.02Z" style="fill:url(#j); stroke-width:0px;"/><path d="M117.69,71.48c.57,1.68,2.79,4.44,6.44,1.28,1.83-1.59,3.2-4.42,3.81-7.32-.19.23-3.27,4-6.21,5.28-2.43,1.05-3.65.86-4.04.75Z" style="fill:#093325; mix-blend-mode:multiply; opacity:.5; stroke-width:0px;"/><path d="M113.33,73.54c-.11-.87,0-1.85.58-3.1,1.91-4.19,5-6.08,5.21-3.27.06.82-.05,1.36-.23,1.73.67-1.03,2.3-3.88,2.23-6.9-.08-3.79-6.64-2.87-9.29,1.15-2.65,4.01,1.5,10.39,1.5,10.39Z" style="fill:#093325; mix-blend-mode:multiply; opacity:.5; stroke-width:0px;"/><path d="M114.99,79.28c-.65-2.92-5.05-2.04-6.17-1.09s-2.01,6.11-2.01,6.11c0,0,7.88-1.23,8.18-5.02Z" style="fill:#093325; mix-blend-mode:multiply; opacity:.5; stroke-width:0px;"/><path d="M128.14,60.31c.15,2.74-1.72,7.95-4.69,9.42-2.97,1.47-.94-6.59-2.57-9.42-1.62-2.83-7.41-.31-7.76,0s3.35-4.72,8.74-4.73c5.39,0,6.23,3.89,6.27,4.73Z" style="fill:#fff; mix-blend-mode:soft-light; opacity:.5; stroke-width:0px;"/><path d="M113.58,75.03c.92,1.71-2.73,1.55-4,2.73-1.27,1.18-.34-3,.37-4.99.7-1.99,3.63,2.26,3.63,2.26Z" style="fill:#fff; mix-blend-mode:soft-light; opacity:.5; stroke-width:0px;"/><path d="M121.12,51.86s-9.82,4.25-11.86,6.82c-2.04,2.57-1.74,12.27-1.74,12.27,0,0,.27-8.34,1.82-11.02,1.55-2.69,11.77-8.07,11.77-8.07Z" style="fill:#6ee7b7; stroke-width:0px;"/><path d="M120.93,64.01s.97-2.86-.16-4.23-5.5-.02-7.54,1.33-2.13,3.73-2.13,3.73c0,0,1.06-3.16,3.82-4.25,2.76-1.09,7.34-1.91,6,3.41Z" style="fill:#6ee7b7; stroke-width:0px;"/><path d="M127.94,65.44s-4.87,4.95-6.7,5.49c-1.83.54-3.15.62-3.15.62,0,0,4.48,1.1,9.85-6.11Z" style="fill:#6ee7b7; stroke-width:0px;"/><path d="M126.7,16.66s-3.01,8.6-6.85,15.11c-4.16,7.06-7.74,14.19-7.74,14.19,0,0,9.29-11.51,14.6-29.3Z" style="fill:#10b981; stroke-width:0px;"/><path d="M109.94,20.06s.11-10.64-3.08-13.97c-3.19-3.32-8.25-.34-8.25-.34,0,0,4.69-1.4,7.79,1.29,2.75,2.38,3.54,13.03,3.54,13.03Z" style="fill:#6ee7b7; stroke-width:0px;"/><path d="M98.62,24.97s-2.44-9.59-10.3-13.06c-7.86-3.47-17.14,3.66-19.38,4.66,3.78-.84,9.52-6.36,17.12-4.66,7.6,1.7,12.56,13.06,12.56,13.06Z" style="fill:#6ee7b7; stroke-width:0px;"/><path d="M33.59,12.02c1.59-.76-2.23-4.17-3.28-4.24s-.85,2.95.44,3.79c1.3.84,2.83.45,2.83.45Z" style="fill:#6ee7b7; stroke-width:0px;"/><path d="M106.87,6.09c.75,1.72-3.05-1-3.05-1,0,0,2.3-.72,3.05,1Z" style="fill:#d1fae5; stroke-width:0px;"/><path d="M88.5,11.27c1.6,1.5-2.3.09-4.34.07-2.05-.02,2.47-1.83,4.34-.07Z" style="fill:#d1fae5; stroke-width:0px;"/><path d="M115.35,55.57c.29-2.29-4.31.35-5.05,1.78-.74,1.44,5.05-1.78,5.05-1.78Z" style="fill:#d1fae5; stroke-width:0px;"/><path d="M120.25,58.68c1.55,1.33-2.55.87-3.24,1.02s2.14-1.97,3.24-1.02Z" style="fill:#d1fae5; stroke-width:0px;"/><path d="M121.12,61.67c.29,1.52-1.43,4.96-1.72,5.23-.29.27,0-1.41-2.5-.55-2.5.86-2.72-2.6-1.34-4.93,1.38-2.34,5.07-2.29,5.56.26Z" style="fill:#093325; mix-blend-mode:multiply; opacity:.5; stroke-width:0px;"/><path d="M104.15,56.83c.89.46,3.28,3.1,3.35,6.48s.1,15.91-1.7,18.89c-1.8,2.98.08-3.54-.8-12.27-.87-8.73-.85-13.1-.85-13.1Z" style="fill:#093325; mix-blend-mode:multiply; opacity:.3; stroke-width:0px;"/><path d="M102.4,35.25s-4.56-11.71-5.61-14.81,1.56-5.22,1.75-4.82c.19.4,2.51,5.4,3.86,10.45,1.35,5.05,0,9.18,0,9.18Z" style="fill:#093325; mix-blend-mode:multiply; opacity:.3; stroke-width:0px;"/><path d="M112.1,32.46c1.89-6.34-4.03,6.44-6.3,11.94s-3.09,7.47-3.09,7.47c0,0,6.52-9.76,9.39-19.41Z" style="fill:#093325; mix-blend-mode:multiply; opacity:.3; stroke-width:0px;"/><path d="M115.21,5.81c.87,1.08.14,10.73-.54,12.56s-3.72,1.14-3.98-.4c-.26-1.55-1.88-7.85-1.88-7.85l6.4-4.31Z" style="fill:#093325; mix-blend-mode:multiply; opacity:.3; stroke-width:0px;"/><path d="M123.95,23.15c.52-3.78-5.02-5.63-6.26-6.49s-4.67,17.27-6.36,19.56c-1.69,2.29,5.72,2.96,12.62-13.06Z" style="fill:#093325; mix-blend-mode:multiply; opacity:.3; stroke-width:0px;"/><path d="M126.32,11.96c.4,1.72-1.04,6.7-1.27,7.52-.23.81-6.31-2.47-7.04-4.81-.73-2.34-1.12-8.85-1.12-8.85,0,0,8.38,1.64,9.43,6.15Z" style="fill:#fff; mix-blend-mode:soft-light; opacity:.5; stroke-width:0px;"/><path d="M48.45,100.39c-3.6,0-17.87,8.72-20.1,9.92,0,0-1.15,1.02-2.99-.56-1.26-1.09-2.86-3.43-4.61-8.19-.2-.53-.39-1.08-.58-1.64C13.78,81.02,1.11,72.44.09,71.45c0,0-.02,0-.02,0-.93-.93,7.69-5.1,18.79,0,12.45,5.73,5.73,9.23,7.3,22.93.92,7.9,5.16,6.96,6.86,4.03,4.36,1.58,14.54,1.95,15.43,1.98Z" style="fill:url(#k); stroke-width:0px;"/><path d="M25.35,109.74c-1.26-1.09-2.86-3.43-4.61-8.19-.2-.53-.39-1.08-.58-1.64C13.78,81.02,1.11,72.44.09,71.45c.59.29,15.69,7.72,20.07,11.65,4.47,4.03,1.17,16.99,4.99,26.18.07.16.13.32.2.46Z" style="fill:#093325; mix-blend-mode:multiply; opacity:.78; stroke-width:0px;"/><path d="M3.34,74.17s10.12,4.46,14.32,7.04c4.19,2.58,4.7,6.41,4.84,7.7.14,1.28-3.03,3.41-4.73,2.46-1.71-.95-5.48-10.41-14.43-17.2Z" style="fill:#093325; mix-blend-mode:multiply; opacity:.5; stroke-width:0px;"/><path d="M1.75,71.13c-.61.96,6.31,3.8,12.92,8.18,6.61,4.37,9.99,2.69,9.99,2.69,0,0-.07-4.2-8.87-8.34-8.8-4.14-13.75-2.98-14.04-2.52Z" style="fill:#fff; mix-blend-mode:soft-light; opacity:.5; stroke-width:0px;"/><path d="M23.65,108.5s-.07-.01-.19-.04c-1.09-.25-6.53-1.59-7.75-4.07-.06-.12-.11-.24-.15-.38-.02-.07-.03-.15-.05-.22-.03-.11-.04-.21-.05-.32-.12-2.39,1.4-3.72,1.66-5.74.11-.87,0-1.85-.58-3.1-1.91-4.19-5-6.08-5.21-3.27-.06.82.05,1.36.23,1.73,0,.02.03.05.05.07.05.12.13.22.2.3.02.02.03.04.03.04.47.53,1.08.67,1.07,1.42,0,.19-.05.46-.16.75-.57,1.68-2.79,4.44-6.44,1.28-1.83-1.59-3.2-4.42-3.81-7.32h0c-.81-3.88-.27-7.88,2.31-9.19,4.52-2.29,13.92,1.51,14.83,5.82.83,3.96,3.51,19.43,3.93,21.89.02.08.03.16.05.21,0,.05,0,.08,0,.11,0,.01,0,.02,0,.02Z" style="fill:url(#l); stroke-width:0px;"/><path d="M12.76,95.68c-.57,1.68-2.79,4.44-6.44,1.28-1.83-1.59-3.2-4.42-3.81-7.32.19.23,3.27,4,6.21,5.28,2.43,1.05,3.65.86,4.04.75Z" style="fill:#093325; mix-blend-mode:multiply; opacity:.5; stroke-width:0px;"/><path d="M17.13,97.74c.11-.87,0-1.85-.58-3.1-1.91-4.19-5-6.08-5.21-3.27-.06.82.05,1.36.23,1.73-.67-1.03-2.3-3.88-2.23-6.9.08-3.79,6.64-2.87,9.29,1.15,2.65,4.01-1.5,10.39-1.5,10.39Z" style="fill:#093325; mix-blend-mode:multiply; opacity:.5; stroke-width:0px;"/><path d="M2.32,84.52c-.15,2.74,1.72,7.95,4.69,9.42,2.97,1.47.94-6.59,2.57-9.42s7.41-.31,7.76,0-3.35-4.72-8.74-4.73c-5.39,0-6.23,3.89-6.27,4.73Z" style="fill:#fff; mix-blend-mode:soft-light; opacity:.5; stroke-width:0px;"/><path d="M9.34,76.07s9.82,4.25,11.86,6.82c2.04,2.57,1.74,12.27,1.74,12.27,0,0-.27-8.34-1.82-11.02-1.55-2.69-11.77-8.07-11.77-8.07Z" style="fill:#6ee7b7; stroke-width:0px;"/><path d="M9.53,88.21s-.97-2.86.16-4.23c1.13-1.37,5.5-.02,7.54,1.33s2.13,3.73,2.13,3.73c0,0-1.06-3.16-3.82-4.25-2.76-1.09-7.34-1.91-6,3.41Z" style="fill:#6ee7b7; stroke-width:0px;"/><path d="M2.52,89.65s4.87,4.95,6.7,5.49c1.83.54,3.15.62,3.15.62,0,0-4.48,1.1-9.85-6.11Z" style="fill:#6ee7b7; stroke-width:0px;"/><path d="M10.21,82.89c-1.55,1.33,2.55.87,3.24,1.02.7.15-2.14-1.97-3.24-1.02Z" style="fill:#d1fae5; stroke-width:0px;"/><path d="M9.34,85.88c-.29,1.52,1.43,4.96,1.72,5.23.29.27,0-1.41,2.5-.55,2.5.86,2.72-2.6,1.34-4.93s-5.07-2.29-5.56.26Z" style="fill:#093325; mix-blend-mode:multiply; opacity:.5; stroke-width:0px;"/><path d="M26.3,81.04c-.89.46-3.28,3.1-3.35,6.48s-.1,15.91,1.7,18.89c1.8,2.99-.08-3.54.8-12.27.87-8.73.85-13.1.85-13.1Z" style="fill:#093325; mix-blend-mode:multiply; opacity:.3; stroke-width:0px;"/><path d="M27.92,99.52s3.17,3.94,7.77,3.56c4.6-.37,9.73-2.92,9.73-2.92,0,0-8.44-.68-12.4-1.76,0,0-.74,4.15-5.1,1.12Z" style="fill:#093325; mix-blend-mode:multiply; opacity:.78; stroke-width:0px;"/><path d="M27.15,98.3s.95,3.54,2.82,5.85,7.84-1.03,7.84-1.03c0,0-6.24,1.61-10.66-4.81Z" style="fill:#10b981; stroke-width:0px;"/><path d="M106.55,53.4c-.8-2.27,1.35-5.09,4.8-6.31,3.45-1.22,6.9-.37,7.7,1.89.8,2.27-1.35,5.09-4.8,6.31-3.45,1.22-6.9.37-7.7-1.89Z" style="fill:url(#m); mix-blend-mode:color-dodge; stroke-width:0px;"/><path d="M69.7,21.62c.21-1.72,5.6-2.47,12.03-1.68,6.43.79,11.48,2.82,11.26,4.54-.21,1.72-5.6,2.47-12.03,1.68-6.43-.79-11.48-2.82-11.26-4.54Z" style="fill:url(#n); mix-blend-mode:color-dodge; stroke-width:0px;"/><path d="M81.96,8.52c.38-1.69,2.78-2.58,5.35-2,2.57.58,4.34,2.42,3.96,4.11-.38,1.69-2.78,2.58-5.35,2s-4.34-2.42-3.96-4.11Z" style="fill:url(#o); mix-blend-mode:color-dodge; stroke-width:0px;"/><path d="M106.09,1.99c1.16-1.29,3.68-.9,5.64.86,1.96,1.76,2.61,4.23,1.46,5.52s-3.68.9-5.64-.86c-1.96-1.76-2.61-4.23-1.46-5.52Z" style="fill:url(#p); mix-blend-mode:color-dodge; stroke-width:0px;"/><path d="M30.35,6.01c1.49-.53,3.35.89,4.15,3.16.8,2.27.24,4.54-1.25,5.07-1.49.53-3.35-.89-4.15-3.16s-.24-4.54,1.25-5.07Z" style="fill:url(#q); mix-blend-mode:color-dodge; stroke-width:0px;"/><path d="M120.46,56.99c1.82-1.29,4.66-.4,6.36,1.99,1.7,2.39,1.6,5.37-.21,6.66s-4.66.4-6.36-1.99c-1.7-2.39-1.6-5.37.21-6.66Z" style="fill:url(#r); mix-blend-mode:color-dodge; stroke-width:0px;"/><path d="M8.91,71.85c1.2-2.08,5.16-2.05,8.84.08s5.69,5.54,4.49,7.62c-1.2,2.08-5.16,2.05-8.84-.08-3.68-2.13-5.69-5.54-4.49-7.62Z" style="fill:url(#s); mix-blend-mode:color-dodge; stroke-width:0px;"/><path d="M104.59,86.8c.46.5-1.43,2.96-4.22,5.49-2.79,2.53-5.41,4.17-5.87,3.66-.46-.5,1.43-2.96,4.22-5.49,2.79-2.53,5.41-4.17,5.87-3.66Z" style="fill:url(#t); mix-blend-mode:color-dodge; stroke-width:0px;"/><path d="M4.68,81.49c1.88-.39,3.97,1.98,4.67,5.31s-.26,6.35-2.14,6.74-3.97-1.98-4.67-5.31c-.7-3.33.26-6.35,2.14-6.74Z" style="fill:url(#u); mix-blend-mode:color-dodge; stroke-width:0px;"/></g></g></g></svg>