<svg width="80" height="91" viewBox="0 0 80 91" fill="none" xmlns="http://www.w3.org/2000/svg">
<path d="M37.434 0.687557C39.0218 -0.229187 40.9782 -0.229185 42.566 0.687558L77.434 20.8186C79.0218 21.7353 80 23.4296 80 25.263V65.5251C80 67.3586 79.0218 69.0528 77.434 69.9696L42.566 90.1006C40.9782 91.0174 39.0218 91.0174 37.434 90.1006L2.566 69.9696C0.978152 69.0528 0 67.3586 0 65.5251V25.263C0 23.4296 0.978154 21.7353 2.566 20.8186L37.434 0.687557Z" fill="#6C2A9F"/>
<path fill-rule="evenodd" clip-rule="evenodd" d="M27.9181 25.3793C27.9181 24.2456 28.8372 23.3265 29.9709 23.3265H40.0296C41.1633 23.3265 42.0824 24.2456 42.0824 25.3793V33.3339H55.1177C59.0192 33.3339 62.1999 36.4833 62.1999 40.3904V48.345H65.1764C66.3102 48.345 67.2292 49.2641 67.2292 50.3978C67.2292 51.5315 66.3102 52.4506 65.1764 52.4506H62.1999V60.4052C62.1999 64.3123 59.0192 67.4617 55.1177 67.4617H24.9415C21.0401 67.4617 17.8594 64.3123 17.8594 60.4052V52.4506H14.8828C13.7491 52.4506 12.83 51.5315 12.83 50.3978C12.83 49.2641 13.7491 48.345 14.8828 48.345H17.8594V40.3904C17.8594 36.4833 21.0401 33.3339 24.9415 33.3339H37.9768V27.4321H29.9709C28.8372 27.4321 27.9181 26.513 27.9181 25.3793ZM24.9415 37.4395C23.2877 37.4395 21.965 38.7705 21.965 40.3904V60.4052C21.965 62.0251 23.2877 63.3561 24.9415 63.3561H55.1177C56.7715 63.3561 58.0943 62.0251 58.0943 60.4052V40.3904C58.0943 38.7705 56.7715 37.4395 55.1177 37.4395H24.9415ZM32.4856 45.8431C33.6193 45.8431 34.5384 46.7622 34.5384 47.8959V52.8997C34.5384 54.0334 33.6193 54.9525 32.4856 54.9525C31.3518 54.9525 30.4328 54.0334 30.4328 52.8997V47.8959C30.4328 46.7622 31.3518 45.8431 32.4856 45.8431ZM47.5737 45.8431C48.7074 45.8431 49.6265 46.7622 49.6265 47.8959V52.8997C49.6265 54.0334 48.7074 54.9525 47.5737 54.9525C46.4399 54.9525 45.5209 54.0334 45.5209 52.8997V47.8959C45.5209 46.7622 46.4399 45.8431 47.5737 45.8431Z" fill="white"/>
</svg>
