<svg width="80" height="91" viewBox="0 0 80 91" fill="none" xmlns="http://www.w3.org/2000/svg">
<path d="M37.434 0.687129C39.0218 -0.229044 40.9782 -0.229043 42.566 0.687131L77.434 20.8056C79.0218 21.7218 80 23.415 80 25.2473V65.4844C80 67.3167 79.0218 69.0099 77.434 69.926L42.566 90.0446C40.9782 90.9607 39.0218 90.9607 37.434 90.0446L2.566 69.926C0.978152 69.0099 0 67.3167 0 65.4844V25.2473C0 23.415 0.978154 21.7218 2.566 20.8056L37.434 0.687129Z" fill="#6C2A9F"/>
<path fill-rule="evenodd" clip-rule="evenodd" d="M39.773 22.2862C39.1957 22.2862 38.7039 22.7609 38.7039 23.3761C38.7039 23.9912 39.1957 24.466 39.773 24.466C40.3503 24.466 40.8422 23.9912 40.8422 23.3761C40.8422 22.7609 40.3503 22.2862 39.773 22.2862ZM34.5983 23.3761C34.5983 20.5213 36.9019 18.1832 39.773 18.1832C42.6442 18.1832 44.9478 20.5213 44.9478 23.3761C44.9478 26.2308 42.6442 28.569 39.773 28.569C36.9019 28.569 34.5983 26.2308 34.5983 23.3761ZM19.0951 32.1475C19.4558 31.0734 20.6195 30.4949 21.6944 30.8554L39.773 36.9191L57.8517 30.8554C58.9265 30.4949 60.0902 31.0734 60.4509 32.1475C60.8117 33.2217 60.2328 34.3847 59.158 34.7452L41.8258 40.5585V51.1673L50.9775 69.5845C51.4818 70.5993 51.0674 71.8305 50.052 72.3344C49.0365 72.8384 47.8046 72.4243 47.3003 71.4095L39.773 56.2611L32.2457 71.4095C31.7414 72.4243 30.5095 72.8384 29.4941 72.3344C28.4787 71.8305 28.0643 70.5993 28.5685 69.5845L37.7202 51.1673V40.5585L20.3881 34.7452C19.3132 34.3847 18.7344 33.2217 19.0951 32.1475Z" fill="white"/>
</svg>
