<svg width="80" height="91" viewBox="0 0 80 91" fill="none" xmlns="http://www.w3.org/2000/svg">
<path d="M37.434 0.687557C39.0218 -0.229187 40.9782 -0.229185 42.566 0.687558L77.434 20.8186C79.0218 21.7353 80 23.4296 80 25.263V65.5251C80 67.3586 79.0218 69.0528 77.434 69.9696L42.566 90.1006C40.9782 91.0174 39.0218 91.0174 37.434 90.1006L2.566 69.9696C0.978152 69.0528 0 67.3586 0 65.5251V25.263C0 23.4296 0.978154 21.7353 2.566 20.8186L37.434 0.687557Z" fill="#6C2A9F"/>
<path fill-rule="evenodd" clip-rule="evenodd" d="M27.7306 28.4756C31.759 25.5403 36.7033 24.1404 41.6726 24.5281C46.6419 24.9158 51.3092 27.0655 54.8337 30.59C58.3582 34.1145 60.5079 38.7819 60.8956 43.7511C61.2833 48.7204 59.8834 53.6647 56.9481 57.6931C54.0129 61.7215 49.7353 64.5691 44.8863 65.7227C40.3256 66.8077 35.5415 66.3271 31.2987 64.3733L19.733 68.2939C18.993 68.5447 18.1749 68.3538 17.6224 67.8013C17.0699 67.2489 16.879 66.4307 17.1298 65.6907L21.0504 54.125C19.0966 49.8823 18.616 45.0981 19.701 40.5374C20.8546 35.6884 23.7022 31.4108 27.7306 28.4756ZM41.3533 28.6213C37.3596 28.3097 33.3859 29.4348 30.1484 31.7938C26.9108 34.1528 24.6223 37.5906 23.6951 41.4876C22.768 45.3847 23.2632 49.4847 25.0916 53.049C25.3451 53.5431 25.3875 54.119 25.2092 54.645L22.353 63.0707L30.7788 60.2145C31.3048 60.0362 31.8806 60.0786 32.3747 60.3321C35.939 62.1605 40.039 62.6557 43.9361 61.7286C47.8332 60.8014 51.2709 58.5129 53.6299 55.2753C55.9889 52.0378 57.114 48.0641 56.8024 44.0704C56.4909 40.0767 54.7632 36.3256 51.9306 33.4931C49.0981 30.6605 45.347 28.9328 41.3533 28.6213Z" fill="white"/>
</svg>
