<svg width="80" height="92" viewBox="0 0 80 92" fill="none" xmlns="http://www.w3.org/2000/svg">
<path d="M37.434 1.18756C39.0218 0.270813 40.9782 0.270815 42.566 1.18756L77.434 21.3186C79.0218 22.2353 80 23.9296 80 25.763V66.0251C80 67.8586 79.0218 69.5528 77.434 70.4696L42.566 90.6006C40.9782 91.5174 39.0218 91.5174 37.434 90.6006L2.566 70.4696C0.978152 69.5528 0 67.8586 0 66.0251V25.763C0 23.9296 0.978154 22.2353 2.566 21.3186L37.434 1.18756Z" fill="#6C2A9F"/>
<path fill-rule="evenodd" clip-rule="evenodd" d="M56.5154 27.2409C56.0072 27.043 55.4627 26.9523 54.9166 26.9748C54.3705 26.9974 53.8356 27.1326 53.3461 27.3715C52.8567 27.6103 52.4238 27.9473 52.0745 28.36C52.0378 28.4034 51.9992 28.4453 51.959 28.4855L49.2194 31.2251L54.6986 36.7043L57.4382 33.9647C57.4852 33.9177 57.5344 33.8731 57.5857 33.8308C58.0047 33.4863 58.3458 33.0596 58.588 32.5786C58.8303 32.0977 58.9687 31.5726 58.9949 31.0367C59.0211 30.5008 58.9347 29.9651 58.7407 29.4635C58.5467 28.9619 58.2492 28.5049 57.8663 28.122C57.4834 27.7391 57.0234 27.4387 56.5154 27.2409ZM51.7955 39.6074L46.3163 34.1282L24.0543 56.3902L21.9996 63.9241L29.5335 61.8694L51.7955 39.6074ZM20.7657 53.8726C20.5131 54.1252 20.3308 54.4394 20.2368 54.784L17.0935 66.3096C16.8996 67.0203 17.1015 67.7804 17.6224 68.3013C18.1433 68.8222 18.9034 69.0241 19.6141 68.8302L31.1397 65.6869C31.4843 65.5929 31.7985 65.4106 32.0511 65.158L60.276 36.9331C61.0975 36.2388 61.7708 35.3863 62.2547 34.4256C62.7547 33.433 63.0413 32.3472 63.0956 31.2374C63.1499 30.1277 62.9708 29.0192 62.5699 27.9827C62.1691 26.9462 61.5556 26.0051 60.7694 25.2189C59.9832 24.4327 59.0416 23.8187 58.005 23.4151C56.9684 23.0114 55.859 22.8269 54.7473 22.8727C53.6357 22.9186 52.5453 23.1939 51.5457 23.6817C50.5735 24.1561 49.7074 24.8216 49 25.6383L44.8648 29.7736L20.7657 53.8726Z" fill="white"/>
</svg>
