<svg width="80" height="92" viewBox="0 0 80 92" fill="none" xmlns="http://www.w3.org/2000/svg">
<path d="M37.434 1.18756C39.0218 0.270813 40.9782 0.270815 42.566 1.18756L77.434 21.3186C79.0218 22.2353 80 23.9296 80 25.763V66.0251C80 67.8586 79.0218 69.5528 77.434 70.4696L42.566 90.6006C40.9782 91.5174 39.0218 91.5174 37.434 90.6006L2.566 70.4696C0.978152 69.5528 0 67.8586 0 66.0251V25.763C0 23.9296 0.978154 22.2353 2.566 21.3186L37.434 1.18756Z" fill="#6C2A9F"/>
<path fill-rule="evenodd" clip-rule="evenodd" d="M38.4521 25.4275C38.9299 25.1451 39.4747 24.9962 40.0296 24.9962C40.5846 24.9962 41.1293 25.1451 41.6071 25.4275C42.0849 25.7098 42.4781 26.1152 42.7457 26.6013C42.7518 26.6124 42.7578 26.6235 42.7637 26.6347L48.9396 38.3588C48.941 38.361 48.9426 38.3631 48.9444 38.365C48.9462 38.3669 48.9482 38.3686 48.9503 38.3702C48.9554 38.3739 48.9612 38.3765 48.9674 38.3777C48.9736 38.3789 48.98 38.3787 48.9861 38.3771C48.9908 38.376 48.9952 38.374 48.9991 38.3714L57.9377 30.7139C57.951 30.7026 57.9644 30.6914 57.9779 30.6804C58.4871 30.2663 59.1145 30.0244 59.7698 29.9896C60.4252 29.9547 61.0747 30.1287 61.6248 30.4866C62.175 30.8444 62.5974 31.3675 62.8313 31.9807C63.0652 32.5938 63.0985 33.2654 62.9265 33.8988L62.924 33.9078L56.9855 55.3777L56.9852 55.3789C56.745 56.2482 56.2282 57.0155 55.5129 57.5647C54.7972 58.1142 53.9219 58.4154 53.0197 58.4226L53.0033 58.4226H27.0581L27.0437 58.4226C26.1408 58.4163 25.2645 58.1155 24.548 57.566C23.8315 57.0165 23.3139 56.2481 23.0737 55.3777L17.1373 33.9097L17.1349 33.9009C16.9628 33.2675 16.9961 32.596 17.23 31.9828C17.4639 31.3696 17.8864 30.8465 18.4365 30.4886C18.9867 30.1308 19.6362 29.9568 20.2915 29.9917C20.9469 30.0265 21.5743 30.2684 22.0834 30.6825C22.097 30.6935 22.1105 30.7048 22.1238 30.7162L31.0601 38.3735C31.0641 38.3761 31.0685 38.3781 31.0731 38.3792C31.0792 38.3808 31.0856 38.381 31.0918 38.3798C31.098 38.3786 31.1039 38.376 31.109 38.3723C31.1132 38.3692 31.1168 38.3653 31.1197 38.3609L37.2955 26.6348C37.3014 26.6236 37.3074 26.6124 37.3135 26.6013C37.5812 26.1152 37.9744 25.7098 38.4521 25.4275ZM40.0297 30.2537L45.3174 40.2917L45.3292 40.3139C45.6212 40.8522 46.0288 41.3191 46.5227 41.6812C47.0166 42.0433 47.5846 42.2916 48.1858 42.4082C48.787 42.5248 49.4066 42.5068 50 42.3556C50.5935 42.2043 51.1461 41.9236 51.6181 41.5335C51.6275 41.5257 51.6368 41.5179 51.646 41.51L58.0879 35.9914L53.0281 54.2844L53.0278 54.2857C53.0253 54.2947 53.02 54.3026 53.0126 54.3083C53.0058 54.3135 52.9975 54.3166 52.9889 54.317H27.0706C27.0619 54.3166 27.0536 54.3136 27.0467 54.3083C27.0393 54.3026 27.0339 54.2947 27.0315 54.2857L21.9733 35.9939L28.4131 41.512C28.4223 41.5199 28.4317 41.5278 28.4411 41.5356C28.9132 41.9257 29.4658 42.2064 30.0592 42.3577C30.6527 42.5089 31.2722 42.5269 31.8735 42.4103C32.4747 42.2937 33.0426 42.0454 33.5365 41.6833C34.0304 41.3212 34.438 40.8543 34.73 40.3159C34.734 40.3085 34.738 40.3011 34.7419 40.2937L40.0297 30.2537ZM23.3078 64.7542C23.3078 63.6205 24.2269 62.7014 25.3606 62.7014H54.6986C55.8323 62.7014 56.7514 63.6205 56.7514 64.7542C56.7514 65.8879 55.8323 66.807 54.6986 66.807H25.3606C24.2269 66.807 23.3078 65.8879 23.3078 64.7542Z" fill="white"/>
</svg>
