<?xml version="1.0" encoding="UTF-8"?><svg xmlns="http://www.w3.org/2000/svg" viewBox="0 0 66.55 35.29"><g style="isolation:isolate;"><g id="b"><g id="c"><path d="M4.35,14.7s9.12,15.25,28.1,15.25,29.6-15.39,29.6-15.39c0,0-14.63-4.93-29.6-4.93S4.35,14.7,4.35,14.7Z" style="fill:#ff6563; stroke-width:0px;"/><path d="M13.01,23.26s8.16,12.03,19.68,12.03,22.46-13.44,22.46-13.44c0,0-10.54,6.05-22.56,6.05s-19.58-4.64-19.58-4.64Z" style="fill:#ce77b5; mix-blend-mode:multiply; opacity:.6; stroke-width:0px;"/><path d="M40.84,19.79c-.8,3.67,1.72,6.25,1.72,6.25l10.44-3.53s-2.4-4.16-7.51-4.79c-.48-.06-4.64,2.06-4.64,2.06Z" style="fill:#fff9b5; mix-blend-mode:soft-light; stroke-width:0px;"/><path d="M33.2.02c-1.01-.17-19.75.7-28.85,14.61,0,0,6.69,2.34,10.83,1.71,4.12-.63,11.71-4.37,17.85-4.39,6.14.02,11.95,3.61,16.08,4.24,4.13.63,12.59-1.29,12.59-1.29C50.68.28,34.21-.15,33.2.02Z" style="fill:#d93f57; stroke-width:0px;"/><path d="M58.09,10.77s.24,1.52-2.17,3.07c0,0-3.4,2.14-9.4,1.53,0,0,4.61,3.14,15.17-.47,0,0-1.37-1.71-3.61-4.13Z" style="fill:#ce77b5; mix-blend-mode:multiply; opacity:.6; stroke-width:0px;"/><path d="M8.47,9.83s-.94,3.4.99,4.3c0,0,3.17.75,10.06.91,0,0-7.59,3.6-15.17-.41,0,0,2.15-3.32,4.12-4.8Z" style="fill:#ce77b5; mix-blend-mode:multiply; opacity:.6; stroke-width:0px;"/><path d="M3.09,10.36s2.52,5.98,9.48,5.98,11.8-4.39,20.46-4.39,13.17,4.39,17.85,4.39,9.83-3.46,11.96-5.98c0,0,2.46,1.18,3.72,3.94,0,0-8.1,3.36-14.66,2.65-6.57-.71-10.35-3.55-18.91-3.55s-14.65,3.55-21.93,3.55S0,13.71,0,13.71c0,0,1.33-2.25,3.09-3.35Z" style="fill:#812751; stroke-width:0px;"/></g></g></g></svg>