<?xml version="1.0" encoding="UTF-8"?><svg xmlns="http://www.w3.org/2000/svg" viewBox="0 0 80.94 25.22"><g style="isolation:isolate;"><g id="b"><g id="c"><path d="M17.88,14.28c6.29,4.4,12.8,10.27,21.34,10.9s17.29-6.48,23.29-11.55c-11.71,8.59-32.58,9.18-44.63.65Z" style="fill:#ce77b5; mix-blend-mode:multiply; opacity:.6; stroke-width:0px;"/><path d="M7.35,5.19c5.64,5.64,16.3,15.76,32.64,15.77,16.91,0,27.74-10.38,33.42-16.06,0,0-21.54.58-32.82,4.56C29.06,5.32,7.35,5.19,7.35,5.19Z" style="fill:#ff6563; stroke-width:0px;"/><path d="M78.1,3.57c-6.85,1.94-22.08,6.91-38.06,6.91C22.64,10.48,10.51,6.17,2.25,3.58c8.3,2.13,24.59,3.32,35.03,3.26.91,0,1.88-.01,2.84-.03,3.43-.07,6.94,0,10.4-.08,9-.19,18.94-1.22,27.58-3.16Z" style="fill:#812751; stroke-width:0px;"/><path d="M49.81,1.5c-10.93,0-6.25.05-17.29.05-8.39,0-12.2,2.72-27.17,2.72,10.31,2.67,26.29,5.19,34.75,5.19,9.2,0,21.92-2.23,35.17-5.3-14.46,0-17.05-2.66-25.46-2.66Z" style="fill:#d93f57; stroke-width:0px;"/><path d="M74.26,1.09c2.85,2.13,5.08,4.3,6.68,7.34-.26-2.42-.72-5.82-2.41-7.56-1.69-1.74-2.66-.45-4.27.22Z" style="fill:#da6b7c; stroke-width:0px;"/><path d="M6.67,1.08C3.79,3.17,1.6,5.38,0,8.41.25,5.99.71,2.63,2.39.88s2.66-.48,4.28.2Z" style="fill:#da6b7c; stroke-width:0px;"/><path d="M49.67,11.54c1.98,1.65,3.31,3.55,4.46,5.78.8-.36,1.87-.39,2.41-1.08,1.79-2.28,1.09-3.95-.52-5.65-1.15.32-5.2.64-6.35.96Z" style="fill:#ffddeb; mix-blend-mode:soft-light; stroke-width:0px;"/><path d="M40.96,13.86s-.02.04-.05.09c.03-.05.05-.08.05-.09Z" style="fill:#ce77b5; mix-blend-mode:multiply; opacity:.6; stroke-width:0px;"/><path d="M67.63,5.84c-.86.17-15.7,5.33-27.86,5.33-12.2,0-28.07-5.14-28.94-5.66,9.46,1.26,20.51,2.5,30,2.37,9.13-.12,17.82-.82,26.8-2.04Z" style="fill:#ce77b5; mix-blend-mode:multiply; opacity:.6; stroke-width:0px;"/></g></g></g></svg>