<?xml version="1.0" encoding="utf-8"?>
<svg viewBox="245.6925 196.4139 170.6672 117.2429" xmlns="http://www.w3.org/2000/svg">
  <defs>
    <linearGradient id="e" x1="5.08" y1="5.74" x2="58.81" y2="16.66" gradientUnits="userSpaceOnUse">
      <stop offset="0" stop-color="#ffb396"/>
      <stop offset="1" stop-color="#ffe0bb"/>
    </linearGradient>
  </defs>
  <path d="M3.14,42.84s-.32-6.1,1.2-10.18c1.52-4.08,2.31-13.35,4.99-16.8,3.92-5.04,34.11-6.72,41.43-1.64,4.16,2.88,4.67,11.08,5.56,14.27.89,3.2,3.79,11.33,3.17,14.35,0,0,4.31-12.63,2.37-20.67C59.56,12.63,45.85,1.22,31.57,1.22S4.34,12.69,1.21,19.71c-3.58,8.03,1.93,23.13,1.93,23.13Z" style="stroke-width: 0px;" transform="matrix(2.736762046813965, 0, 0, 2.736762046813965, 245.69007873535153, 196.41387939453122)"/>
  <path d="M2.8,16.94S14.8,0,31.57,0s27.42,15.81,27.42,15.81c0,0-11.98-13.25-27.69-13.25S2.8,16.94,2.8,16.94Z" style="fill:url(#e); stroke-width:0px;" transform="matrix(2.736762046813965, 0, 0, 2.736762046813965, 245.69007873535153, 196.41387939453122)"/>
  <path d="M24.4,11.54s-6.02-3.28-2.05-7.51l.35-.11s-2.71,2.51,2.07,7.58l-.37.04Z" style="fill:#ffd9bb; mix-blend-mode:soft-light; stroke-width:0px;" transform="matrix(2.736762046813965, 0, 0, 2.736762046813965, 245.69007873535153, 196.41387939453122)"/>
  <path d="M39.14,11.36s3.28-3.91,1.32-7.32l1.03.32s1.66,4.56-1.94,7.03l-.41-.03Z" style="fill:#ffd9bb; mix-blend-mode:soft-light; stroke-width:0px;" transform="matrix(2.736762046813965, 0, 0, 2.736762046813965, 245.69007873535153, 196.41387939453122)"/>
  <path d="M43.53,11.87s4.99-1.73,3.85-4.89l.62.34s.89,3.64-4.03,4.62l-.44-.07Z" style="fill:#ffd9bb; mix-blend-mode:soft-light; stroke-width:0px;" transform="matrix(2.736762046813965, 0, 0, 2.736762046813965, 245.69007873535153, 196.41387939453122)"/>
  <path d="M8.08,18.14s-3.98-.8-3.4-3.11l-.4.38s-.73,3.12,3.69,2.99l.11-.27Z" style="fill:#ffd9bb; mix-blend-mode:soft-light; stroke-width:0px;" transform="matrix(2.736762046813965, 0, 0, 2.736762046813965, 245.69007873535153, 196.41387939453122)"/>
  <path d="M36.15,6.75l.45-2.71s3.12,1.41,6.79,2.24c3.67.83,6.77,3.22,8.86,5.45s5.27,2.61,5.27,2.61l.64.62s-2.86-.03-5.01-1.71c-2.16-1.68-3.85-4.05-7.35-5.12-3.5-1.08-9.65-1.37-9.65-1.37Z" style="fill:#ffd9bb; mix-blend-mode:soft-light; stroke-width:0px;" transform="matrix(2.736762046813965, 0, 0, 2.736762046813965, 245.69007873535153, 196.41387939453122)"/>
  <path d="M26.63,4.55v2.43s-4.08-.59-9.36.8c-5.28,1.4-9.55,7.95-11.84,10.16-2.29,2.21-4.22,6.25-4.22,6.25l-.35-1.01s4.69-5.51,7.22-9.28c2.53-3.77,6.46-6.38,10.18-7.44,3.73-1.07,8.37-1.91,8.37-1.91Z" style="fill:#ffd9bb; mix-blend-mode:soft-light; stroke-width:0px;" transform="matrix(2.736762046813965, 0, 0, 2.736762046813965, 245.69007873535153, 196.41387939453122)"/>
  <path d="M28.02,6.98s3.5-.4,7.11-.22l.28-2.72s-4.2-.42-7.77.18l.38,2.76Z" style="fill:#ffd9bb; mix-blend-mode:soft-light; stroke-width:0px;" transform="matrix(2.736762046813965, 0, 0, 2.736762046813965, 245.69007873535153, 196.41387939453122)"/>
</svg>