<?xml version="1.0" encoding="utf-8"?>
<svg viewBox="133.7134 145.4808 251.7101 213.537" xmlns="http://www.w3.org/2000/svg" xmlns:xlink="http://www.w3.org/1999/xlink">
  <defs>
    <linearGradient id="e" x1="22.37" y1=".03" x2="22.43" y2=".03" xlink:href="#d"/>
    <linearGradient id="d" x1="64.17" y1="7.29" x2="64.17" y2="105.62" gradientUnits="userSpaceOnUse">
      <stop offset="0.01" stop-color="#451322"/>
      <stop offset="0.99" stop-color="#2a0e14"/>
    </linearGradient>
  </defs>
  <path d="M128.08,56.98c-.1-3.33-2.43-10.28-7.66-15.94-5.35-5.77-5.71-13.42-5.46-23.39l-2.92-4.64c-.22,1.44-.49,3.36-.72,5.52L26.48,8.7,22.39.07c-.57.67-6.2,6.17-6.2,6.17l.76,17.26s-.42,4.03-1.76,8.99c-1.53,5.68-4.27,12.58-8.94,16.01-8.88,6.53-6.71,15.88-3.16,22.37,2.57,4.7,5.16,6.46,5.16,14.44,0,5.21-1.5,9.14-1.5,9.14,2.56-.84,4.71-2.15,6.52-3.7,2.36-2.02,4.13-4.44,5.42-6.68l-.73,1.45-.02.04c-.35.71-.69,1.4-1,2.08-1.78,3.91-2.69,7.55,0,11.34,2.64,3.72,5.63,4.24,7.86,3.91.01,0,.03,0,.04,0,0,.03.02.06.02.09.26.93,1.87,1.52,3.86,1.9,1.75.33,3.79.5,5.47.57,1.33.06,2.44.06,2.99.04,1.26-.05,1.8-14.71,1.8-14.71,3.84,6.33.34,14.71.34,14.71,1.32,1.46,2.91,1.6,5.04,1.32,2.43-.32,5.56-1.19,9.78-1.29,7.9-.17,17.73,3.32,17.73,3.32,0,0,6.47-.36,12.93-2.38,2.33-.73,4.67-1.66,6.7-2.89.33-.19.65-.4.96-.6,3.06-2.08,3.75-3.67,3.75-3.67-8.68-4-.96-19.23-.64-19.85-2.3,5.81,2.27,15.7,4.17,19.36.06,0,.1,0,.1,0,.85.69,2.01,1.14,3.36,1.39,1.13.21,2.39.28,3.75.24,4.25-.1,9.32-1.24,13.46-2.4h0c2.35-.67,4.4-1.33,5.82-1.82,1.32-.45,2.1-.75,2.1-.75-12.72-17.04,0-29.47-.26-38.53ZM24.07,100.26s0,0-.02-.01c0,0,0,0-.02-.01-4.58-2.74-7.9-8.92-3.59-14.7,1.57-2.11,2.94-3.89,4.11-5.39.31-.4.61-.78.89-1.14,0-.01.01-.01.01-.01-4.7,9.61-3.05,15.73-1.38,21.27Z" style="stroke-width: 0px;" transform="matrix(1.9612950086593628, 0, 0, 1.9612950086593628, 133.7108612060547, 145.47201538085938)"/>
  <path d="M22.39.07v-.03c.07-.06.07-.04,0,.03Z" style="fill:url(#e); stroke-width:0px;" transform="matrix(1.9612950086593628, 0, 0, 1.9612950086593628, 133.7108612060547, 145.47201538085938)"/>
  <path d="M128.34,95.51s-.78.3-2.1.75c-4.55-4.01-10.1-9.75-10.6-14.18-.87-7.63,5.37-11.88,4.78-15.09-.59-3.22-1.16-8.03-3.54-8.17-2.38-.14-7.87,14.39-7.66,20.17.21,5.78,11.14,17.62,11.2,19.09h0c-4.14,1.16-9.21,2.3-13.46,2.4-.07-.07-.12-.15-.18-.22-7.74-9.44-2.52-18.3-4.24-21.27-1.73-2.97-4.65-.15-4.65-.15-3,8.32,4.91,20.75,5.33,21.4-1.35-.25-2.51-.7-3.36-1.39,0,0-.03,0-.1,0-1.89-3.66-6.47-13.56-4.17-19.36-.32.61-8.04,15.85.64,19.85,0,0-.69,1.59-3.75,3.67-.31.21-.63.41-.96.6-1.82-1.09-3.39-2.23-4.29-3.34-3.21-3.94-2.31-13.99-2.31-13.99-3.27,3.65.83,18.19,0,19.24-.15.18-.17.53-.1.98-6.46,2.01-12.93,2.38-12.93,2.38,0,0-9.84-3.49-17.73-3.32-4.22.09-7.35.97-9.78,1.29,1.17-1.45,2.31-3.55,3.01-6.57,1.99-8.6-1.99-17.52-1.99-17.52,0,0-.39,4.22.54,9.64.94,5.43-2.19,12.07-6.6,13.12,0,0,3.5-8.38-.34-14.71,0,0-.54,14.67-1.8,14.71-.55.02-1.66.02-2.99-.04,3.94-4.99,2.55-17.25,2.99-19.93.45-2.68-1.44-4.57-4.01-4.67-2.56-.1-7.69,8.85-5.11,23.11l.66.93c-1.99-.38-3.6-.98-3.86-1.9,0-.03-.02-.06-.02-.09-.02,0-.03,0-.04,0l-.74-2.65c-1.67-5.54-3.32-11.66,1.38-21.27,2.67-3.44,5.77-15.16,5.77-15.16l-6.6-9.12s-10.27,5.92-6.18,14.66c4.09,8.73.26,14.72.26,14.72-1.29,2.25-3.06,4.66-5.42,6.68,0,0,0,0,0,0,9.77-15.03-4.77-23.13-6.27-31.34-1.5-8.2,11.95-10.32,11.95-10.32l-3.77-16.6c1.34-4.96,1.76-8.99,1.76-8.99l-.76-17.26S21.82.74,22.39.07l4.09,8.64,84.83,9.83c.23-2.16.5-4.08.72-5.52l2.92,4.64c-.25,9.97.11,17.62,5.46,23.39,5.24,5.66,7.56,12.61,7.66,15.94.26,9.06-12.46,21.49.26,38.53Z" style="mix-blend-mode: multiply; opacity: 0.4; stroke-width: 0px; fill: rgb(126, 126, 126);" transform="matrix(1.9612950086593628, 0, 0, 1.9612950086593628, 133.7108612060547, 145.47201538085938)"/>
</svg>