<?xml version="1.0" encoding="utf-8"?>
<svg viewBox="0 0 102.28 74.58" xmlns="http://www.w3.org/2000/svg">
  <defs>
    <linearGradient id="e" x1="51.98" y1="74.58" x2="51.98" y2="4.26" gradientUnits="userSpaceOnUse">
      <stop offset="0" style="stop-color: currentColor;"/>
      <stop offset="1" style="stop-color: rgb(120, 120, 120);"/>
    </linearGradient>
    <linearGradient id="f" x1="94.71" y1="68.97" x2="94.71" y2="26.18" gradientUnits="userSpaceOnUse">
      <stop offset="0" style="stop-color: rgb(116, 116, 116);"/>
      <stop offset="1" style="stop-color: currentColor;"/>
    </linearGradient>
  </defs>
  <g style="isolation:isolate;" transform="matrix(1, 0, 0, 1, 7.105427357601002e-15, 1.7763568394002505e-15)">
    <g id="b">
      <g id="c">
        <path d="M102.28,63.49c-.62.38-1.18.79-1.72,1.21-1.7,1.34-3.02,2.85-4.02,4.27-1.09,1.55-1.81,3-2.25,4.04h0c-.41.97-.57,1.57-.57,1.57,0,0-5.6-23.71-10.61-35.24-10.27-23.66-18.44-20.16-18.44-20.16-24.35-7.27-33.21,1.73-40.9,21.5-7.69,19.77-10.01,27.47-10.01,27.47,0,0-1.64-2.16-4.06-3.64-.25-.15-.5-.3-.75-.43,0,0-2.39-26.07,3.86-36.99C23.49,8.36,35.91.29,42.72,0c4.75-.2,12.02,7.97,14.17,8.92,0,0,7.77-6.75,12.01-5.09,29.31,11.47,33.38,59.66,33.38,59.66Z" style="stroke-width: 0px;"/>
        <path d="M94.28,73.01h0c-.41.97-.57,1.57-.57,1.57,0,0-5.6-23.71-10.61-35.24-10.27-23.66-18.44-20.16-18.44-20.16-24.35-7.27-33.21,1.73-40.9,21.5-7.69,19.77-10.01,27.47-10.01,27.47,0,0-1.64-2.16-4.06-3.64.48-.77,1.12-1.45,1.18-2.23,2.03-26,7.11-34.19,7.31-34.79-.33,8.27-3.77,26.35-4.95,34.04-.14.93.77,3.68.77,3.68,8.88-14.65,9.42-41.11,15.25-53.3,5.83-12.19,17.75-7.12,21.95-2.98,3.38,3.34,10.82,8.19,12.87,9.25-.09-.33-1.41-13.96,2.62-12.83,1.78.5,14.18,5.87,21.99,39.73,2.51,10.89,4.71,25.51,5.61,27.94Z" style="fill:url(#e); mix-blend-mode:multiply; opacity:.8; stroke-width:0px;"/>
        <path d="M100.56,64.7c-1.7,1.34-3.02,2.85-4.02,4.27-9.57-11.66-7.47-42.35-7.47-42.79.09.31,1.38,16.7,11.49,38.53Z" style="fill:url(#f); mix-blend-mode:multiply; opacity:.6; stroke-width:0px;"/>
        <path d="M29.24,11.9c-5.33,5.69-14.48,11.87-14.48,11.87,0,0-2.85,4.72-3.61,6.66,0,0,1.78-3,4.27-5.08,2.49-2.08,11.14-8.9,10.49-5.12l3.34-8.32Z" style="fill:#ffffff; mix-blend-mode:soft-light; stroke-width:0px;"/>
        <path d="M80.54,21.09s3.03,6.02,4.8,11.89c0,0,2.33-6.38,7.81-3.54,0,0-1.95-4.52-3.79-7.14,0,0,2.12,3.87-.3,3.87s-8.52-5.09-8.52-5.09Z" style="fill:#ffffff; mix-blend-mode:soft-light; stroke-width:0px;"/>
      </g>
    </g>
  </g>
</svg>