<?xml version="1.0" encoding="utf-8"?>
<svg viewBox="185.0372 161.5887 227.2384 285.3235" xmlns="http://www.w3.org/2000/svg" xmlns:xlink="http://www.w3.org/1999/xlink">
  <defs>
    <linearGradient id="e" x1="60.59" y1="37.55" x2="60.59" y2="21.19" gradientUnits="userSpaceOnUse">
      <stop offset="0" stop-color="#d177f4"/>
      <stop offset="1" stop-color="#ffeadb"/>
    </linearGradient>
    <linearGradient id="f" x1="55.29" y1="23.23" x2="55.29" y2="22.46" xlink:href="#e"/>
    <linearGradient id="g" x1="32.14" y1="74.14" x2="32.14" y2="15.18" xlink:href="#e"/>
    <linearGradient id="i" x1="37.34" y1="34.63" x2="37.34" y2="6.69" xlink:href="#e"/>
    <linearGradient id="j" x1="30.78" y1="16.24" x2="48.32" y2="16.24" gradientUnits="userSpaceOnUse">
      <stop offset="0" stop-color="#ffeadb"/>
      <stop offset="0.99" stop-color="#d177f4"/>
    </linearGradient>
    <linearGradient id="k" x1="48.55" y1="19.91" x2="55.29" y2="19.91" xlink:href="#j"/>
  </defs>
  <g style="isolation: isolate;" transform="matrix(3.464345932006836, 0, 0, 3.464345932006836, 184.92247009277344, 161.55409240722656)">
    <g id="b">
      <g id="c">
        <path d="M65.56,37.42c0,.08,0,.12,0,.12.14-4.63-2.67-7.58-2.67-7.58.02.37.03.76.02,1.13.08,9.7-3.99,20.05-3.99,20.05,0,0-1.33-4.6-1.8-6.47-.47-1.87-.94-10.82-3.15-17.07-2.2-6.25-5.39-9.43-6.74-9.85-1.34-.42-7.91-.42-20.7,9.6-9.35,7.32-13.05,15.03-14.37,18.66-.49,1.34-.65,2.12-.65,2.12-.44-3.08.92-10.7,1.02-11.32-.2.71-2.94,10.8-3.94,23.03h0c-.14,1.77-.25,3.56-.31,5.38-.4,12.35,2.05,16.19,2.93,17.15-.92-.9-3.69-3.91-4.81-8.25-.02-.05-.03-.12-.04-.17-1.31-5.32.7-10.21-3.1-24.43-1.02-3.85-1.55-6.97-1.76-9.47,0-.03,0-.05,0-.07-.03-.27-.04-.52-.05-.75,0-.13,0-.26-.02-.37-.03-.56-.04-1.1-.04-1.62,0-.37,0-.75.03-1.09.09-1.71.35-2.91.6-3.74-.12.28-.21.57-.3.85-1.41,4.37-.84,8.38-.77,8.86-2.63-8.55.12-18.15,11.88-25.38C24.58,9.52,30.81,3.79,32.73,3.54c1.92-.25,5.7,2.95,5.7,2.95,0,0,3.41-3.37,5.52-2.35,2.11,1,5.22,11.97,5.22,11.97,1.2-4.39-2.5-16.1-2.5-16.1,6.06,3.03,3.31,16.1,3.31,16.1,1.18,1.33,9.04,2.87,12.69,8.99,3.35,5.62,2.99,11.43,2.9,12.33Z" style="stroke-width: 0px;"/>
        <path d="M65.56,37.42c0,.08,0,.12,0,.12.14-4.63-2.67-7.58-2.67-7.58-1.55-3.73-7.27-8.78-7.27-8.78,0,0,5.62,3.62,7.97,7.52,2.13,3.54,2.02,7.93,1.97,8.72Z" style="fill:url(#e); mix-blend-mode:multiply; stroke-width:0px;"/>
        <path d="M55.54,23.23c-.16-.26-.34-.51-.51-.76.12.15.29.41.51.76Z" style="fill:url(#f); mix-blend-mode:multiply; stroke-width:0px;"/>
        <path d="M62.9,31.1c.08,9.7-3.99,20.05-3.99,20.05,0,0-1.33-4.6-1.8-6.47-.47-1.87-.94-10.82-3.15-17.07-2.2-6.25-5.39-9.43-6.74-9.85-1.34-.42-7.91-.42-20.7,9.6-9.35,7.32-13.05,15.03-14.37,18.66-.49,1.34-.65,2.12-.65,2.12-.44-3.08.92-10.7,1.02-11.32-.2.71-2.94,10.8-3.94,23.03h0c-.11.36-.21.69-.31,1.03-1.63,5.65-1.95,10.19-1.87,13.26-.02-.05-.03-.12-.04-.17-1.31-5.32.7-10.21-3.1-24.43-1.02-3.85-1.55-6.97-1.76-9.47,0-.03,0-.05,0-.07-.03-.27-.04-.52-.05-.75,0-.13,0-.26-.02-.37-.03-.56-.04-1.1-.04-1.62,0-.37,0-.75.03-1.09.04-1.07.14-2.03.29-2.89.61-3.65,1.93-5.27,1.93-5.27-2.24,6.9,1.15,16.11,1.15,16.11.45-13.12,9.41-23.52,9.41-23.52-7.85,11.17-8.44,27.87-8.44,27.87,0,0,.42-4.92,5.77-16.37,5.18-11.09,12.79-16.6,13.25-16.93-10.35,8.59-12.22,21.61-12.22,21.61,3.47-9.8,8.4-15.92,11.88-19.3-8.7,9.06-11.81,25.81-12.21,28.23.29-1.37,1.77-7.16,7.64-14.85,6.73-8.81,26.15-14.64,27.94-13.81,1.79.84,6.57,7.02,8.46,15.21,1.9,8.19,3.78,11.11,3.78,11.11.59-10.07-2.52-16.82-4.16-19.63,5.89,9.49,4.83,18.23,4.83,18.23,1.86-4.5,2.18-10.11,2.2-10.88Z" style="fill:url(#g); mix-blend-mode:multiply; opacity:.5; stroke-width:0px;"/>
        <path d="M28.79,16.48c-5.15,8.79-1.32,18.15-1.32,18.15,0,0-.52-8.2,3.65-15.71,4.63-8.33,14.18-13.32,14.78-11.97,0,0-3.89-13.01-17.11,9.53Z" style="stroke-width: 0px;"/>
        <path d="M27.47,34.63s-1.08-8.61,3.13-16.74c5.05-9.76,14.8-12.06,15.3-10.94.49,1.11,1.44,3.53,1.44,3.53,0,0-2.4-3.18-9.19.25-6.79,3.42-11.12,14.75-10.67,23.9Z" style="fill:url(#i); mix-blend-mode:multiply; opacity:.5; stroke-width:0px;"/>
        <path d="M48.32,16.84s-1.73-3.26-5.42-3.4c-6.09-.22-12.13,6.11-12.13,6.11,0,0,5.76-6.63,11.52-6.63,4.84,0,6.02,3.91,6.02,3.91Z" style="fill:url(#j); mix-blend-mode:multiply; opacity:.5; stroke-width:0px;"/>
        <path d="M48.55,17.01s4.48,2.17,6.74,5.82c0,0-3.2-3.71-6.74-5.82Z" style="fill:url(#k); mix-blend-mode:multiply; opacity:.5; stroke-width:0px;"/>
        <path d="M52.52,22.82s2.44,4.61,3.72,9.45l1.75-2.9s-1.64-5.05-5.48-6.55Z" style="fill: rgb(255, 244, 202); stroke-width: 0px; mix-blend-mode: screen; opacity: 0.7;"/>
        <path d="M54.59,21.83s2.33,3.13,3.55,6.14c0,0,.14-2.97-3.55-6.14Z" style="fill: rgb(255, 244, 202); stroke-width: 0px; mix-blend-mode: screen; opacity: 0.7;"/>
        <path d="M56.37,21.89l-.39.23s2.02,1.91,2.84,3.68l.97-.38s-2.04-2.36-3.42-3.54Z" style="fill: rgb(255, 244, 202); stroke-width: 0px; mix-blend-mode: screen; opacity: 0.7;"/>
        <path d="M57.25,22.34s1.82-.23,1.93-1.15c0,0,1.38.98,2.29,2.22,0,0-.67-.71-1.49-.57-.82.14-.83,1-.83,1l-1.9-1.5Z" style="fill: rgb(255, 244, 202); stroke-width: 0px; mix-blend-mode: screen; opacity: 0.7;"/>
        <path d="M30.78,13.24s-3.97,5.4-4.4,9.98l2.2-.38s1.24-6.14,6.38-10.84c0,0-2.67,1.3-4.18,1.24Z" style="fill: rgb(255, 244, 202); stroke-width: 0px; mix-blend-mode: screen; opacity: 0.7;"/>
        <path d="M28.57,13.21s-7.87,6.97-11.04,12.98l.5-3.34s4-5.61,8.06-8.87l2.47-.77Z" style="fill: rgb(255, 244, 202); stroke-width: 0px; mix-blend-mode: screen; opacity: 0.7;"/>
        <path d="M24.62,14.02s-6.44,6.52-10.27,11.78c0,0,1.09-3.41.93-4.25-.17-.84-1.11-.96-1.11-.96,0,0,3.65-4.89,8.88-7.97,0,0,.41,1.17,1.57,1.39Z" style="fill: rgb(255, 244, 202); stroke-width: 0px; mix-blend-mode: screen; opacity: 0.7;"/>
        <path d="M21.72,12s-4.5,2.52-7.15,5.01c0,0,2.74-4.29,7.15-5.01Z" style="fill: rgb(255, 244, 202); stroke-width: 0px; mix-blend-mode: screen; opacity: 0.7;"/>
        <path d="M11.5,48.14s4.46-16.97,14.68-23.24l-.07,2.79s-11.28,8.83-14.6,20.45Z" style="fill:#d177b8; mix-blend-mode:multiply; opacity:.6; stroke-width:0px;"/>
        <path d="M28.98,23.57s8.65-4.85,13.44-5.33c0,0-6.74,2.09-14.1,7.74l.66-2.41Z" style="fill:#d177b8; mix-blend-mode:multiply; opacity:.6; stroke-width:0px;"/>
        <path d="M49.8,19.91s5,4.22,7.45,16.6c2.46,12.38,1.66,14.63,1.66,14.63,0,0-1.85-4.94-2.41-9.65s-1.21-15.31-6.7-21.59Z" style="fill:#d177b8; mix-blend-mode:multiply; opacity:.6; stroke-width:0px;"/>
      </g>
    </g>
  </g>
</svg>