<?xml version="1.0" encoding="UTF-8"?><svg xmlns="http://www.w3.org/2000/svg" xmlns:xlink="http://www.w3.org/1999/xlink" viewBox="0 0 97.07 83.96"><defs><linearGradient id="d" x1="95.85" y1="29.44" x2="1.69" y2="90.93" gradientUnits="userSpaceOnUse"><stop offset="0" stop-color="#360217"/><stop offset="1" stop-color="#160221"/></linearGradient><linearGradient id="e" x1="105.79" y1="29.69" x2="50.78" y2="65.62" xlink:href="#d"/><linearGradient id="f" x1="116.87" y1="28.98" x2="53.66" y2="70.27" gradientUnits="userSpaceOnUse"><stop offset="0" stop-color="#721e24"/><stop offset="1" stop-color="#510036"/></linearGradient><linearGradient id="g" x1="105.27" y1="36.49" x2="49.69" y2="72.78" xlink:href="#f"/><linearGradient id="h" x1="-20.86" y1="74.15" x2="-1.96" y2="64.11" gradientUnits="userSpaceOnUse"><stop offset="0" stop-color="#840e3b"/><stop offset="1" stop-color="#39002e"/></linearGradient><linearGradient id="i" x1="28.98" y1="8.74" x2="28.98" y2="96.83" gradientUnits="userSpaceOnUse"><stop offset="0" stop-color="#5c0b11"/><stop offset="1" stop-color="#510036"/></linearGradient><linearGradient id="j" x1="28.98" y1="50.87" x2="28.98" y2="61.75" gradientUnits="userSpaceOnUse"><stop offset="0" stop-color="#8680e8"/><stop offset="1" stop-color="#fff"/></linearGradient><linearGradient id="k" x1="14.53" y1="8.74" x2="14.53" y2="96.83" xlink:href="#i"/><linearGradient id="l" x1="36.41" y1="20.35" x2="-28.49" y2="62.73" xlink:href="#d"/><linearGradient id="m" x1="84.26" y1="-4.56" x2="82.02" y2="59.02" gradientUnits="userSpaceOnUse"><stop offset="0" stop-color="#ca80e8"/><stop offset="1" stop-color="#fff"/></linearGradient><linearGradient id="n" x1="82.98" y1="46.64" x2="82.98" y2="56.88" xlink:href="#j"/></defs><g style="isolation:isolate;"><g id="b"><g id="c"><path d="M30.39,34.09c.02,2.48-1.59,39.93,1.89,46.12,0,0,42.84,5.14,44.15-.46.39-1.66,7-47.38,7-47.38l-53.05,1.72Z" style="fill:url(#d); stroke-width:0px;"/><path d="M84.95,15.98c-.22,11.83-5.32,49.13-4.56,61.34,0,0,6.98-.25,10.38-14.45,3.39-14.19,5.07-33.83,1.56-40.73-3.52-6.9-8.89-9.66-8.89-9.66l1.51,3.49Z" style="fill:url(#e); stroke-width:0px;"/><path d="M93.51,7.94c5.99,13.18,3.2,65.07.52,70.64-2.68,5.57-7.1,4.5-7.57,3.24-.37-.99,3.47-34.19,3.5-52.23,0-4.82-.26-8.55-.95-10.31l4.49-11.35Z" style="fill:url(#f); stroke-width:0px;"/><path d="M81.15,26.02c-3.83,24.47-7.15,49.77-4.72,53.73,2.43,3.95,5.95-6.16,8.53-22.57,1.51-9.62,4.2-32.39,4.2-32.39l-8.01,1.24Z" style="fill:url(#g); stroke-width:0px;"/><path d="M15.87,26.24c-3.83,14.37-6.28,36.78-4.1,49.49.95,5.52,2.57,7.41,4.99,6.79,2.42-.62,7.37-9.49,6.5-21.94-.86-12.46,4.3-37.21,4.3-37.21l-11.69,2.87Z" style="fill:url(#h); stroke-width:0px;"/><path d="M32,60.59c.86,12.46-4.08,21.32-6.51,21.94-2.42.62-1.29-.79-2.23-6.31-.8-4.67-1.35-10.71-1.53-17.2-.31-11.18.45-23.68,2.87-32.77l11.69-2.87s-5.16,24.75-4.29,37.21Z" style="fill:url(#i); stroke-width:0px;"/><path d="M32,60.59c-1.67-5.73-9.47-1.87-10.27-1.57-.31-11.18.45-23.68,2.87-32.77l11.69-2.87s-5.16,24.75-4.29,37.21Z" style="fill:url(#j); mix-blend-mode:multiply; stroke-width:0px;"/><path d="M18.7,7.85C7.71,30.51,5.14,69.34,5.91,75.74c.77,6.4,3.85,9.11,5.37,7.96,1.52-1.14,1.78-22.94,5.61-33.69,2.61-7.34,4.63-23.82,5.65-33.52.47-4.5.73-7.54.73-7.54l-4.56-1.11Z" style="fill:url(#k); stroke-width:0px;"/><path d="M15.87,22.27c-3.83,21.03-9.95,53.47-9.95,53.47,0,0-8.19-44.86-5.29-54.93C3.51,10.74,13.25,0,13.25,0l2.62,22.27Z" style="fill:url(#l); stroke-width:0px;"/><path d="M89.16,24.78s-1.37,11.57-2.7,21.7c-.54,4.08-1.07,7.93-1.5,10.69-2.58,16.41-6.11,26.53-8.53,22.57-1.34-2.19-.93-10.9.36-22.39,1.04-9.29,2.65-20.4,4.36-31.34l8.01-1.24Z" style="fill:url(#m); mix-blend-mode:multiply; stroke-width:0px;"/><path d="M89.16,24.78s-1.37,11.57-2.7,21.7c-6.43-1.35-9.67,10.88-9.67,10.88,1.04-9.29,2.65-20.4,4.36-31.34l8.01-1.24Z" style="fill:url(#n); mix-blend-mode:multiply; stroke-width:0px;"/></g></g></g></svg>