<?xml version="1.0" encoding="utf-8"?>
<svg viewBox="-0.0156 -0.0018 93.2651 62.5418" xmlns="http://www.w3.org/2000/svg" xmlns:xlink="http://www.w3.org/1999/xlink">
  <defs>
    <linearGradient id="e" x1="8.29" y1="61.8" x2="8.29" y2="3.63" gradientUnits="userSpaceOnUse">
      <stop offset="0" style="stop-color: currentColor;"/>
      <stop offset="0.99" style="stop-color: rgb(119, 119, 119);"/>
    </linearGradient>
    <linearGradient id="f" x1="49.26" y1="62.54" x2="49.26" y2="1.91" xlink:href="#e"/>
  </defs>
  <path d="M93.05,52.8c-.68,2.86-3.06,5.15-5.41,6.78-.59.41-1.19.79-1.76,1.12-2.06,1.21-3.74,1.83-3.74,1.83,0,0-6.37-.03-15.23-.08h-1.19c-18.76-.11-47.42-.33-51.39-.65-.85-.06-1.74-.17-2.64-.3-.77-.1-1.56-.24-2.33-.41-4.61-.96-8.89-2.8-9.31-5.79-.58-4.08,2.85-6.76,3.84-12.23.99-5.47-3.27-8.15-3.81-16.07C-.34,20.67,4.34,9.55,6.25,5.34c0,0,0-.02,0-.03.47-1.04.77-1.65.77-1.65,0,0,.13-.02.38-.04.64-.07,2.06-.23,4.09-.43,3.3-.33,8.19-.8,13.9-1.28C47.46.05,81.74-1.91,83.27,3.66c.55,2,1.12,3.46,1.7,4.66h0c.31.66.64,1.24.96,1.78.02.02.02.03.03.05,1.53,2.56,3.13,4.45,4.67,10.37,2.47,9.51-2.06,15.72-2.87,19.64-.82,3.94,6.77,6.46,5.3,12.65Z" style="stroke-width: 0px;" transform="matrix(1, 0, 0, 1, -7.105427357601002e-15, 0)"/>
  <path d="M14.35,61.8l-2.64-.3-1.72-.19s-.23-.06-.61-.21c-1.57-.61-5.58-2.54-5.48-6.41.12-4.8,6.91-4.75,6.96-11.32.06-6.58-9.68-11.08-8.53-21.19.75-6.62,2.69-13.13,3.92-16.83,0,0,0-.02,0-.03.47-1.04.77-1.65.77-1.65,0,0,.13-.02.38-.04-1.16,3.21-3.78,11.37-3.49,19.76.37,10.78,7.39,13.92,7.88,19.86.49,5.94-4.52,8.5-4.36,12.29.16,3.78,6.92,6.27,6.92,6.27Z" style="fill:url(#e); mix-blend-mode:multiply; stroke-width:0px;" transform="matrix(1, 0, 0, 1, -7.105427357601002e-15, 0)"/>
  <path d="M87.99,23.74c-.81,10.05-6.71,15.54-5.84,24.33.88,8.78,5.78,9.38,5.49,11.52l-1.76,1.12s.77-.92-3.27-7.35c-4.04-6.42,2.67-18.91,3.8-25.02,1.11-5.95-3.07-15.36-3.31-15.87.15.41,2.64,7.9-3.89,18.8-6.72,11.22-9.43,15.92-7.48,20.88,1.95,4.95,10.41,10.39,10.41,10.39l-2.53-.83s-10.38-6.65-9.5-14.44c.87-7.8,8.84-15.31,10.23-23.87,1.39-8.55,0-12.1,0-12.1l-1.62.7s-.46,8.03-6.23,19.91c-5.76,11.87-5.59,21.22-1.4,26.7l-1.03-.43s-6.41-9.92-4.24-17.02c2.17-7.11,6.13-11.27,8.62-15.53,2.49-4.26,1.88-10.16,1.88-10.16,0,0-5.39,13.22-10.94,20.46-5.55,7.25-1.47,18.56-1.47,18.56l3.02,7.96.03.08-1.22-.08-34.58-2.47s-8.8-20.48-3.09-31.89l-1.93-2.36s-4.52,11.88-5.99,21.02c-1.46,9.14,2.02,12.01,2.02,12.01l-.64,1.4s-4.52-7.64-2.24-15.94c2.28-8.3,5.87-15.64,5.78-18.5l-5.19-6.38-2.02-13.61h-3.97s-2.3,7.13.86,19.99c3.16,12.87-2.42,25.39-1.67,29.81.76,4.42,4.46,5.1,4.46,5.1l-1.38.52s-5.91-5.36-5.75-8.13c.16-2.78,5.42-9.63,4.79-18.89-.65-9.25-3.49-16.15-2.97-22.61.52-6.46,1.27-7.76,1.27-7.76l-2.02-.56c3.3-.33,8.19-.8,13.9-1.28l58.88,5.02s0,0,0,0c.07.09,1.17,2.08,1.66,3.16.02.02.02.03.03.05,1.08,2.36,2.57,6.96,2.03,13.6Z" style="fill: url('#f'); mix-blend-mode: multiply; stroke-width: 0px; opacity: 0.7;" transform="matrix(1, 0, 0, 1, -7.105427357601002e-15, 0)"/>
  <path d="M87.55,41.99s3.85,5.15,4.77,7.25c.92,2.09.37,3.77.37,3.77,0,0-.65-1.89-2.49-1.54-1.84.35-5.34,2.27-5.34,2.27,0,0-1.83-3.19-1.51-5.11,0,0,4.18-1.14,4.76-2.4.58-1.27-.56-4.24-.56-4.24Z" style="fill:#ffd9bb; mix-blend-mode:soft-light; stroke-width:0px;" transform="matrix(1, 0, 0, 1, -7.105427357601002e-15, 0)"/>
  <path d="M74.16,50.2s.08,2.94,1.79,5.18c0,0,3.27-2.37,6.62-1.21,0,0-1.9-2.96-1.56-4.79,0,0-3.93.64-6.85.82Z" style="fill:#ffd9bb; mix-blend-mode:soft-light; stroke-width:0px;" transform="matrix(1, 0, 0, 1, -7.105427357601002e-15, 0)"/>
  <path d="M1.83,50.17h2.83s-2.28,4.83-.82,8.5c0,0-2.17-.52-3.28-2.69-1.1-2.17,1.26-5.81,1.26-5.81Z" style="fill:#ffd9bb; mix-blend-mode:soft-light; stroke-width:0px;" transform="matrix(1, 0, 0, 1, -7.105427357601002e-15, 0)"/>
  <path d="M8.49,57.48s-1.66-3.41.71-5.97l1.22-.38s-.62,2.7.52,5.6l-2.45.75Z" style="fill:#ffd9bb; mix-blend-mode:soft-light; stroke-width:0px;" transform="matrix(1, 0, 0, 1, -7.105427357601002e-15, 0)"/>
  <path d="M88.87,21.7s.27,3.23-1.79,9.56c0,0,2.94-.38,3.56-1.7.61-1.33,0-6.23,0-6.23l-1.76-1.63Z" style="fill:#ffd9bb; mix-blend-mode:soft-light; stroke-width:0px;" transform="matrix(1, 0, 0, 1, -7.105427357601002e-15, 0)"/>
  <path d="M1.15,30.16l1.08-.22s-1.25-7.55,0-11.79c0,0-3.69,6.29-1.08,12.01Z" style="fill:#ffd9bb; mix-blend-mode:soft-light; stroke-width:0px;" transform="matrix(1, 0, 0, 1, -7.105427357601002e-15, 0)"/>
</svg>