<?xml version="1.0" encoding="utf-8"?>
<svg viewBox="0.0004 0.0043 106.0196 108.0157" width="106.0196" height="108.0157" xmlns="http://www.w3.org/2000/svg">
  <path d="M.54,49.73c-2.11,6.54,2.21,18.98,8.74,29.87v-5.05s-6.81-7.32-7.33-14.47c-.51-7.15,0-10.88,0-10.88l-1.41.53Z" style="stroke-width: 0px;"/>
  <path d="M103.87,42.65c-2.4-3.92-24.03-15.95-26.97-16.23l-2.94-.28S62.74,4.03,50.73,3.19C38.71,2.36,4.57,37.16.54,49.72t0,0c.08.37,5.53,24.01,10.09,33.16h0s0,0,0,0c.08.17.17.33.25.49l.03.04c.81,1.58,3.13,6.31,3.65,9.41,1.66,9.93.46,15.2.46,15.2,0,0,2.48-6.21,1.78-10.48-.57-3.49-2.28-7.81-2.45-10.3.02-.37.04-.8.07-1.27.1-.79.13-1.44.12-1.99.47-7.72,1.6-22.36,3.54-26.43.03-.06.06-.12.09-.18,2.95-5.76,20.26-22.09,25.54-23.2,5.34-1.12,26.37-2.03,29.84-.64,3.47,1.4,17.43,12.35,18.5,24.94.68,8.03.88,17.86.93,23.93-.03,6.08-.72,10.56-1.42,14.01-.71,3.56-1.92,9.17-1.92,9.17,0,0,5.64-5.25,4.11-18.83,1.84-3.23,6.51-11.63,8.16-16.82.06-.2.13-.42.2-.64h0s0,0,0,0c1.37-4.75,2.95-14.62.15-20.23.11.14,3.74,4.56,3.74,9.79,0,0,.27-12.31-2.14-16.23Z" style="stroke-width: 0px;"/>
  <path d="M80.37,5.71s3.2,15.39-6.41,20.43c0,0,8.28-10.63,6.41-20.43Z" style="stroke-width: 0px;"/>
  <path d="M48.33.12s15.51-1.94,22.16,10.07c3.07,5.54,3.47,15.95,3.47,15.95,0,0-3.79-14.88-11.22-20.43C55.32.17,48.33.12,48.33.12Z" style="stroke-width: 0px;"/>
  <path d="M76.9,26.42c16.53,1.24,26.01,10.77,29.12,15.3,0,0-9.16-7.08-15.1-10.13-6.69-3.44-14.02-5.17-14.02-5.17Z" style="stroke-width: 0px;"/>
  <path d="M106,58.88c0-5.23-3.62-9.65-3.74-9.79,2.8,5.61,1.22,15.48-.15,20.23h0c-.07.23-.13.44-.2.65-2.07,6.52-8.92,18.14-8.92,18.14,0,0,.12-17.02-.94-29.61-1.07-12.59-15.03-23.54-18.5-24.94-3.47-1.4-24.5-.48-29.84.64-5.28,1.11-22.59,17.44-25.54,23.2,7.39-20.08,30.15-40.73,30.15-40.73-8.4,1.35-20.2,15.6-20.6,16.08.35-.61,11.17-19.72,31.91-24.08,3.11-.66,13.59,16.79,14.32,17.47,0,0,16.73,16.78,19.47,17.47,2.73.68,10.44-.96,10.44-.96,2.4,3.92,2.14,16.23,2.14,16.23Z" style="mix-blend-mode: multiply; stroke-width: 0px; fill: rgb(119, 119, 119); opacity: 0.5;"/>
  <path d="M68.34,32.91l-4.01-.02s-.79-12.92-9.13-12.36c-3.58.24-18.98,17.54-19.47,37.04,0,0-2.87-16.3,3.17-26.08,5-8.11,11.65-13.23,15.09-12.91,10.91,1,14.35,14.33,14.35,14.33Z" style="stroke-width: 0px;"/>
  <path d="M18.17,57.39c-.03.06-.06.12-.09.18-2.67,5.6-3.8,31.27-3.8,31.27l-3.39-5.46C6.28,74.63.63,50.11.54,49.73c2.17,2.73,6.62,4.78,7.57,4.71.94-.08,13.83-17.39,14.08-17.73-.17.3-10.82,19.65-10.86,20.87-.04,1.23,6.84-.18,6.84-.18Z" style="mix-blend-mode: multiply; stroke-width: 0px; opacity: 0.5; fill: rgb(119, 119, 119);"/>
  <path d="M69.36,32.91s5.53-4.1,11.4-3.36c2.65.33,6.34,9.16,1.07,18.83,0,0,5.63-12.46-2.31-15.62-3.59-1.43-8.05.4-8.05.4l-2.1-.25Z" style="stroke-width: 0px;"/>
  <path d="M25.11,19.1c-.48,6.24,7.18,4.33,6.64,7.04l-4.02,6.61s3.8-4.32,5.34-5.82c0,0,2.16-1.08,5.02.22,0,0-7.53,8.2-11.53,14.58,0,0-.03-6.17-1.16-7.29-1.13-1.12-6.83.93-8.86.08-2.04-.84,2.92-9.94,2.92-9.94l5.65-5.48Z" style="fill:#ffd1dd; mix-blend-mode:soft-light; opacity:.5; stroke-width:0px;"/>
  <path d="M41.21,28.11c1.74-1.48,3.53,0,3.53,0,0,0-.89,1.4-5,7.28,0,0-3.62,2.76-3.13,1.32,0,0,2.26-6.6,4.6-8.6Z" style="fill:#ffd1dd; mix-blend-mode:soft-light; opacity:.5; stroke-width:0px;"/>
  <path d="M81.33,29.78c-.72,1.87-1.82,2.99-1.82,2.99,0,0,1.89.35,2.81,2.1,0,0,.46-1.77.56-3.32,0,0-.38-.73-.78-1.09s-.78-.66-.78-.66Z" style="fill:#ffd1dd; mix-blend-mode:soft-light; opacity:.5; stroke-width:0px;"/>
</svg>