<?xml version="1.0" encoding="utf-8"?>
<svg viewBox="0 0 93.37 75.36" xmlns="http://www.w3.org/2000/svg">
  <defs>
    <linearGradient id="e" x1="65.16" y1="28.72" x2="65.16" y2="28.9" gradientUnits="userSpaceOnUse">
      <stop offset="0" stop-color="#a36f68"/>
      <stop offset="1" stop-color="#994e47"/>
    </linearGradient>
  </defs>
  <g style="isolation:isolate;">
    <g id="b">
      <g id="c">
        <path d="M93.33,37.76c-.4.87-2.05.41-2.05.41,0,0,3.44,17.12-.8,35.11l-3.42,1.89s1.05-11.11-.77-16.2c0,0,2.39-24.9.68-26.01-2.26-1.48-8-6.22-8.87-6.94l-.04-.03-.05-.04-.02-.02h0c-.25.17-9.99,6.6-16.26,5.82-.31-.04,1.57-1.52,2.9-2.52l.34-.26c.14-.1.26-.2.37-.28l.13-.1.11-.08.1-.07.11-.08.05-.03.02-.02c-.34.12-17.5,6.25-21.59,6.67-1.64.17-9.13-5.92-9.36-6.11.07.13-.4-1.19-.4-1.19-1.69-.29-11.63.33-14.77,1.01-3.83.84-11.02,4.9-11.62,6.1-.07.15-.13.42-.16.81-.43,4.75,1.82,26.17,1.82,26.17l-1.53,13.59-3.42-2.15s-1.1-16.39-1.59-24.93c-.49-8.54-.57-7.66-.57-7.66,0,0-.85,1.27-2.44,1.27-.79,0,.78-7.43,2.44-10.72.75-1.49,1.63-3.79,4.46-5.2.02-.01.04-.03.06-.04.7-.46,2.49-5.05,6.25-8.71h0c3.17-3.08,7.76-6.81,14.32-10.32C33.61,3.76,43.26-.65,46.85.08c1.18.24-1.53,1.36-1.8,1.46.33-.04,9.65-1.18,14.76.63.71.25-1.3,2.2-1.3,2.2,0,0,16.39,4.95,25.8,11.56,4.5,3.16,2.42,8.25,2.42,8.25h0c.21.36,7.2,12.22,6.58,13.58Z" style="stroke-width: 0px; fill: fillColor;"/>
        <path d="M64.97,28.97c.14-.1.26-.2.37-.28l-.37.28Z" style="fill:url(#e); stroke-width:0px;"/>
        <path d="M93.33,37.76c-.4.87-2.05.41-2.05.41,0,0,3.44,17.12-.8,35.11l-3.42,1.89s1.05-11.11-.77-16.2c0,0,2.39-24.9.68-26.01l-8.87-6.94-.04-.03-.05-.04-.02-.02h0c-.17.17-5.69,5.48-17.43,7.88,0,0-14.68,5.95-19.1,4.83-4.42-1.12-20.89-9.67-20.89-9.67,0,0-12.56,5.03-12.62,6.63-.43,4.75,1.82,26.17,1.82,26.17l-1.53,13.59-3.42-2.15s-1.1-16.39-1.59-24.93c-.49-8.54-.57-7.66-.57-7.66,0,0-.85,1.27-2.44,1.27-.79,0,.78-6.06,2.44-10.72h0s.94,2.54,4.48,15.09c0,0-1.19-11.47-.57-13.91.62-2.44,2.24-3.65,2.24-3.65,0,0-.42-1.75-1.62-2.76.7-.46,2.49-5.05,6.25-8.71-.08.15-2.57,4.77-2.66,6.8-.1,2.07,22.35-6.55,33.53-10.24,0,0-9.06,3.72-9.04,8.17.03,4.45,18.66,2.2,29.9,0,8.08-1.58,11.28-1.11,11.28-1.11,0,0-10.78,7.46-7.71,6.83,3.08-.63,13.35-5.72,13.35-5.72,0,0,9.58,13.66,4.66,2.23h0c.21.36,7.2,12.22,6.58,13.58Z" style="fill:#ce77b5; mix-blend-mode:multiply; opacity:.5; stroke-width:0px;"/>
        <path d="M59.68,3.03c2.05-1.76-9.42-2.18-25.71,8.13-.79.5,3.31-2.14,11.77-4.05,8.46-1.91,12.79-2.74,12.79-2.74l1.16-1.34Z" style="fill:#ce77b5; mix-blend-mode:multiply; opacity:.5; stroke-width:0px;"/>
        <path d="M64.97,23.25c-3.76,0-25.45,1.48-24.97,4.34.48,2.86,1.68,6.61,4.53,6.58s18.12-5.8,22.87-8.01c4.74-2.21.96-2.91-2.43-2.91Z" style="fill:#7a369e; mix-blend-mode:multiply; opacity:.3; stroke-width:0px;"/>
        <path d="M7.49,48.48c-2.79-5.03-4.56-5.62-4.09,2.87.48,8.5,1.36,21.83,2.15,21.62.79-.21,3.11-8.29,3.24-11.79.13-3.49-.48-11.22-1.3-12.7Z" style="fill:#7a369e; mix-blend-mode:multiply; opacity:.3; stroke-width:0px;"/>
        <path d="M90.88,44.03c-3.49-4.89-4.23,10.71-3.7,15.25.29,2.45,3.11,10.29,3.7,7.99.59-2.29,3.4-18.48,0-23.24Z" style="fill:#7a369e; mix-blend-mode:multiply; opacity:.3; stroke-width:0px;"/>
        <path d="M69.73,15.6c-9.09-5.4-9.53-10.76-6.76-9.76s23.21,9.28,22.66,12.22c-.56,2.94-13.22-.87-15.9-2.46Z" style="fill:#7a369e; mix-blend-mode:multiply; opacity:.3; stroke-width:0px;"/>
        <path d="M33.96,26.32c1.46-2.19,1.16-7.61-1.3-7.18-2.46.43-20.25,5.35-20.49,6.78-.24,1.43,2.3,3.34,4.05,2.9,1.75-.44,17.2-1.71,17.73-2.5Z" style="fill:#7a369e; mix-blend-mode:multiply; opacity:.3; stroke-width:0px;"/>
        <path d="M15.02,15.73c10.58-3.98,15.82-.71,16.17.9.33,1.52,11.2-2.86,13.11-2.86s9.77,5.23,1.91,10.66c0,0,12.16-.25,18.29-2.3,0,0,.66-15.5-20.08-9.7-8.32,2.33-10.55.87-12.98.51-.81-.12,6.01-3.87,4.52-5.24-2.12-1.95-16.62,4.51-16.62,4.51l-4.31,3.52Z" style="fill:#b9b6c7; mix-blend-mode:soft-light; opacity:.8; stroke-width:0px;"/>
      </g>
    </g>
  </g>
</svg>