<?xml version="1.0" encoding="utf-8"?>
<svg viewBox="136.3848 151.0395 235.4896 163.8938" xmlns="http://www.w3.org/2000/svg">
  <defs>
    <linearGradient id="c" x1="45.92" y1="3.6" x2="46.03" y2="3.6" gradientUnits="userSpaceOnUse">
      <stop offset="0" stop-color="#ffeadb"/>
      <stop offset="0.99" stop-color="#d177f4"/>
    </linearGradient>
  </defs>
  <path d="M63.23,23.14l2.49,1.53c-1.6-6.18-10.04-8.99-11.44-9.42-.14-.04-.2-.06-.2-.06-1.23-4.2-4.48-8.75-7.86-11.4-.07-.06-.14-.11-.18-.15-.03-.03-.06-.05-.09-.07-1-.75-2.01-1.33-2.98-1.69-2.18-.8-3.95-.83-5.17-.66-2.3-1.02-5.23-1.62-8.63-.88-4.2.92-7.56,2.6-10.16,4.12h0s-1.03.63-1.03.63c-.01,0-.02.01-.03.01,0,0-.01,0-.01,0-1.36.84-2.47,1.58-3.35,2.08-.01,0-.02,0-.03.01h0c-.56.32-1.03.52-1.4.57-2.12.32-3.77-4.61-3.77-4.61-1.92,3.08.45,7.63.45,7.63,0,0-4.93.83-7.56,4.74C-.37,19.41.02,26.8.02,26.8c.84-2.49,2.94-7.2,3.07-7.49l-.18.7-.04.18c-1.57,7.31.23,25.56.23,25.56.68-8.38,5.98-16.47,5.98-16.47,2.23,3.39,9.67,4.43,10.14,4.48-.98-.32-1.89-.88-2.68-1.59-.01-.01-.02-.02-.03-.02-2.99-2.72-4.36-7.65-2.34-10.42,2.56-3.53,8.65-3.27,17.75-2.95,9.09.32,14.79-1.35,16.33-.64,1.54.7,9.67,7.94,10.82,10.25,1.16,2.31,1.74,16.08,1.74,16.08l1.94-12.11c1.95,3.01,1.58,5.21,1.58,5.21,0,0,1.2-3.67.59-7.86-.59-4.06-1.62-6.43-1.68-6.57ZM38.71,1.66c4.12.47,4.79,3.79,4.79,3.79,0,0-1.74-2.19-4.79-3.79Z" style="stroke-width: 0px;" transform="matrix(3.583216905593872, 0, 0, 3.583216905593872, 136.3853759765625, 151.00111389160156)"/>
  <path d="M46.03,3.64c-.05-.04-.09-.07-.11-.08h.02s.05.05.09.08Z" style="fill:url(#c); mix-blend-mode:multiply; stroke-width:0px;" transform="matrix(3.583216905593872, 0, 0, 3.583216905593872, 136.3853759765625, 151.00111389160156)"/>
  <path d="M62.74,32.35l-1.94,12.11s-.58-13.77-1.74-16.08c-1.15-2.31-9.28-9.55-10.82-10.25-1.53-.7-7.23.96-16.33.64-9.1-.32-15.18-.58-17.75,2.95-2.02,2.78-.66,7.71,2.34,10.42-7.75-5.76-4.32-15.36-4.32-15.36-4.39-.84-7.69,1.37-8.73,2.2,8.93-7.92,20.85-1.41,20.85-1.41l1.32.04s-2.24-5.79-6.37-7.21c-4.13-1.41-9.45.36-9.45.36,0,0,5.75-3.87,10.06-2.85,4.3,1.02,8.04,9.55,8.04,9.55.86.35,2.91.09,2.91.09,0,0-2.87-8.73-7.21-10.38-3.81-1.44-7.93-.35-8.88-.07.89-.32,4.62-1.5,9.14-1.02,5.18.54,8.52,11.85,8.52,11.85h2.75s.1-9.03-4.26-12.49c-4.18-3.32-12.3-.59-12.93-.38l1.03-.62h0c.3-.11,8.21-2.9,13.17.68,5.05,3.65,4.89,11.97,4.89,11.97,2.07.07,7.48-.66,7.48-.66,1.1-4.29-.82-10.38-1.01-10.96,1.87,4,1.78,10.66,2.39,10.92.62.26,4.89-.64,4.89-.64.32-7.32-3.46-11.05-4.58-11.98,3.39,2.65,6.63,7.2,7.86,11.4,0,0,.07.02.2.06,0,0-.62,2.92,2,4.01,2.55,1.05,6.67,3.7,6.93,3.87-4.55-2.08-9.97-3.04-9.97-3.04l4.07,4.52c3.97,3.3,5.43,7.75,5.43,7.75Z" style="mix-blend-mode: multiply; stroke-width: 0px;" transform="matrix(3.583216905593872, 0, 0, 3.583216905593872, 136.3853759765625, 151.00111389160156)"/>
  <path d="M9.07,29.28s-5.29,8.09-5.98,16.47c0,0-1.8-18.25-.23-25.56l.04-.18.18-.7c0,5.65,4.29,9.08,4.29,9.08-2.06-5.37,1.51-8,1.68-8.13-2.1,3.6,0,9.02,0,9.02Z" style="mix-blend-mode: multiply; stroke-width: 0px;" transform="matrix(3.583216905593872, 0, 0, 3.583216905593872, 136.3853759765625, 151.00111389160156)"/>
  <path d="M30.32,4.13s2.62.91,5.95,1.31c3.33.4,6.64-.66,6.64-.66l.61.7s.68,2.21.92,3.72c0,0-.94-1.19-2.73-1.51s-6.05,1.12-6.05,1.12c0,0-1.94-3.46-5.34-4.69Z" style="fill:#c4d9e0; mix-blend-mode:soft-light; stroke-width:0px;" transform="matrix(3.583216905593872, 0, 0, 3.583216905593872, 136.3853759765625, 151.00111389160156)"/>
  <path d="M25.57,6.67s1.84,1.12,2.96,2.94l4.07-1.07s-1.06-2.54-3.51-3.59l-3.51,1.72Z" style="fill:#c4d9e0; mix-blend-mode:soft-light; stroke-width:0px;" transform="matrix(3.583216905593872, 0, 0, 3.583216905593872, 136.3853759765625, 151.00111389160156)"/>
  <path d="M21.71,8.02s2.09,1.24,3.03,2.43l1.75-.34s-.87-2.17-2.39-2.71c-1.52-.54-2.39.62-2.39.62Z" style="fill:#c4d9e0; mix-blend-mode:soft-light; stroke-width:0px;" transform="matrix(3.583216905593872, 0, 0, 3.583216905593872, 136.3853759765625, 151.00111389160156)"/>
  <path d="M56.47,18.39s2.28,1.31,4.62,2.69c0,0,.23-1.17,0-1.92-.23-.75-3.66-2.05-3.66-2.05l-.96,1.28Z" style="fill:#c4d9e0; mix-blend-mode:soft-light; stroke-width:0px;" transform="matrix(3.583216905593872, 0, 0, 3.583216905593872, 136.3853759765625, 151.00111389160156)"/>
  <path d="M3.45,17.14s4.61-2.63,9.68-2.55c0,0-2.96-1.11-2.81-1.67.15-.56,1.39-2.48,1.39-2.48,0,0-7.26.76-8.26,6.69Z" style="fill:#c4d9e0; mix-blend-mode:soft-light; stroke-width:0px;" transform="matrix(3.583216905593872, 0, 0, 3.583216905593872, 136.3853759765625, 151.00111389160156)"/>
</svg>