<?xml version="1.0" encoding="utf-8"?>
<svg viewBox="143.8781 157.8619 204.1006 156.4874" xmlns="http://www.w3.org/2000/svg">
  <path d="M26.26,4.47s3.79-2.23,9.26-2c5.46.23,11.67,3.17,11.67,3.17l-15,8.09-6.77-2.48.84-6.78Z" style="stroke-width: 0px;" transform="matrix(3.18730902671814, 0, 0, 3.18730902671814, 143.8633575439453, 157.85247802734375)"/>
  <path d="M 26.369 4.454 C 26.369 4.454 30.159 2.224 35.629 2.454 C 41.089 2.684 47.299 5.624 47.299 5.624 L 32.299 13.714 L 25.529 11.234 L 26.369 4.454 Z" style="stroke-width: 0px; mix-blend-mode: multiply;" transform="matrix(3.18730902671814, 0, 0, 3.18730902671814, 143.8633575439453, 157.85247802734375)"/>
  <path d="M64.04,28.57l-1.51-1.08-2.56,20.52s.61-6.94-.33-10.78c-.94-3.84-.72-11.51-.72-11.51,0,0-5.77-7.01-11.14-8.62,0,0-7.04.83-17.6,1.22-10.56.39-16.63.22-16.63.22,0,0-7.06,3.89-9.28,7.79,0,0,.06,5.89-.11,9-.17,3.11-1.71,13.77-1.71,13.77,0,0,0-.04,0-.11-.09-1.33-.96-13.95-1.89-19.16-.03-.18-.07-.37-.09-.55H.46c-.11-.66-.18-1.33-.25-2,0-.02,0-.04,0-.06C-.01,24.8,0,22.43.08,20.68c0-.12,0-.24.02-.36,0-.11.01-.22.02-.33,0-.1,0-.19.02-.28,0-.1,0-.19.02-.28.01-.21.03-.4.04-.57,0-.1.01-.18.02-.26,0-.02,0-.03,0-.04,0-.08.01-.16.02-.23.01-.15.03-.27.03-.35,0-.02,0-.04,0-.05,0-.05,0-.07,0-.07l.19.06,1.3,2.52s0,0,.02-.02c0,0,.01-.01.02-.03,0,0,0,0,.01-.01.02-.02.05-.05.08-.09.37-.44,1.58-1.83,3.32-3.64.09-.1.19-.2.28-.3.03-.03.05-.06.08-.08.15-.16.34-.36.55-.57.05-.05.11-.11.17-.17,1.67-1.7,3.71-3.65,5.9-5.49.01-.01.03-.03.04-.04.07-.06.15-.13.23-.18.79-.66,1.6-1.3,2.42-1.91C21.84,2.72,29.76.05,29.76.05h3.59s-4.17,6.88-5.08,11.19c.12-.28,4.17-9.22,7.47-11.19,0,0,3.2-.42,6.79,1.25,0,0-6.03,5.08-7.52,9.09.25-.21,10.18-8.52,17.42-4.17-.2-.04-2.25-.44-4.22-.2,0,0,2.09.88,5.37,4.55.48.54,1.03,1.2,1.61,1.94,3.36,4.32,7.92,11.61,8.85,16.07Z" style="stroke-width: 0px;" transform="matrix(3.18730902671814, 0, 0, 3.18730902671814, 143.8633575439453, 157.85247802734375)"/>
  <path d="M31.18,18.27S40.35-.29,52.44,6.22c0,0-11.47-.89-19.58,11.98l-1.69.07Z" style="stroke-width: 0px; mix-blend-mode: multiply;" transform="matrix(3.18730902671814, 0, 0, 3.18730902671814, 143.8633575439453, 157.85247802734375)"/>
  <path d="M35.74.05s-7.4,7.76-8.48,18.22h3.92s.86-10.2,8.73-17.88c0,0-1.77-.34-4.17-.34Z" style="stroke-width: 0px; mix-blend-mode: multiply;" transform="matrix(3.18730902671814, 0, 0, 3.18730902671814, 143.8633575439453, 157.85247802734375)"/>
  <path d="M29.76.05s-5.89,8.06-6.37,18.46c0,0,1.11-9.53,7.78-18.46h-1.42Z" style="stroke-width: 0px; mix-blend-mode: multiply;" transform="matrix(3.18730902671814, 0, 0, 3.18730902671814, 143.8633575439453, 157.85247802734375)"/>
  <path d="M1.1,20.19s1.91,3.12,3.69,5.33l-.52.8v2.25s-2.54-1.2-3.99-4.02v-6.7l.83,2.35Z" style="stroke-width: 0px; mix-blend-mode: multiply;" transform="matrix(3.18730902671814, 0, 0, 3.18730902671814, 143.8633575439453, 157.85247802734375)"/>
  <path d="M11.26,10.77s-2.88,3.42-3.61,11.82l1.41-1.12s-.24-7.15,4.31-12.41l-2.11,1.71Z" style="stroke-width: 0px; mix-blend-mode: multiply;" transform="matrix(3.18730902671814, 0, 0, 3.18730902671814, 143.8633575439453, 157.85247802734375)"/>
  <path d="M39.09,17.84s5.69-7.21,15.36-7.37l-.49.51,3.45.82s-5.36,1.14-9.62,5.28l-8.69.76Z" style="stroke-width: 0px; mix-blend-mode: multiply;" transform="matrix(3.18730902671814, 0, 0, 3.18730902671814, 143.8633575439453, 157.85247802734375)"/>
  <path d="M39.77,17.09h8.01s-7.04.83-17.6,1.22c-10.56.39-16.63.22-16.63.22,0,0-7.06,3.89-9.28,7.79,0,0,.06,5.89-.11,9-.17,3.11-1.71,13.77-1.71,13.77,0,0,0-.04,0-.11-.13-1.35-1.34-14.09-1.98-19.72H.46c-.1-.86-.18-1.54-.25-2,0-.02,0-.04,0-.06-.29-2.12-.22-4.9-.11-6.88,0-.11.01-.22.02-.33,0-.1,0-.19.02-.28,0-.1,0-.19.02-.28.01-.21.03-.4.04-.57,0-.1.01-.18.02-.26,0-.02,0-.03,0-.04,0-.08.01-.16.02-.23.01-.15.03-.27.03-.35,0-.02,0-.04,0-.05,0-.05,0-.07,0-.07l.19.06,1.3,2.52s0,0,.02-.02c0,0,.01-.01.02-.03,0,0,0,0,.01-.01.34-.38,2.2-2.46,3.68-4.04.03-.03.05-.06.08-.08.15-.16.34-.36.55-.57,1.73-1.73,5.1-4.78,6.07-5.66.01-.01.03-.03.04-.04.15-.13.23-.21.23-.21v.02c-.4,4.3.89,7.01.89,7.01,7.6.64,26.4.28,26.4.28Z" style="mix-blend-mode: multiply; opacity: 0.6; stroke-width: 0px;" transform="matrix(3.18730902671814, 0, 0, 3.18730902671814, 143.8633575439453, 157.85247802734375)"/>
  <path d="M64.04,28.57l-1.51-1.08-2.56,20.52s.61-6.94-.33-10.78c-.94-3.84-.72-11.51-.72-11.51,0,0-5.77-7.01-11.14-8.62l.47-.44,6.93-4.15h0c3.36,4.33,7.92,11.61,8.85,16.07Z" style="mix-blend-mode: multiply; opacity: 0.6; stroke-width: 0px;" transform="matrix(3.18730902671814, 0, 0, 3.18730902671814, 143.8633575439453, 157.85247802734375)"/>
  <path d="M54.02,20.82s1.9-.73,4.51-.62,3.84,2.36,3.84,2.36c0,0-3.1-1.04-7.28-.81l-1.07-.93Z" style="stroke-width: 0px; mix-blend-mode: multiply;" transform="matrix(3.18730902671814, 0, 0, 3.18730902671814, 143.8633575439453, 157.85247802734375)"/>
  <path d="M6.96,23.19s-4.84-4.68-2.16-10.21c0,0,.79,3.27,2.91,9.08l-.74,1.14Z" style="stroke-width: 0px; mix-blend-mode: multiply;" transform="matrix(3.18730902671814, 0, 0, 3.18730902671814, 143.8633575439453, 157.85247802734375)"/>
</svg>