<?xml version="1.0" encoding="utf-8"?>
<svg viewBox="-0.0017 0.0011 119.8167 141.5563" width="119.8167" height="141.5563" xmlns="http://www.w3.org/2000/svg" xmlns:xlink="http://www.w3.org/1999/xlink">
  <defs>
    <linearGradient id="e" x1="59.77" y1="-5.05" x2="71.86" y2="18.93" gradientUnits="userSpaceOnUse">
      <stop offset="0" style=""/>
      <stop offset="1" style=""/>
    </linearGradient>
    <linearGradient id="h" x1="26.33" y1="88.92" x2="62.05" y2="114.81" xlink:href="#e"/>
    <linearGradient id="i" x1="10.57" y1="71" x2="19.9" y2="77.12" gradientUnits="userSpaceOnUse">
      <stop offset="0" stop-color="#8680e8"/>
      <stop offset="1" stop-color="#fff"/>
    </linearGradient>
    <linearGradient id="j" x1="42.01" y1="27.73" x2="17.09" y2="109.66" xlink:href="#e"/>
    <linearGradient id="l" x1="93.17" y1="42.25" x2="127.47" y2="156.58" xlink:href="#e"/>
    <linearGradient id="m" x1="33.71" y1="20.26" x2="33.71" y2="145.5" gradientUnits="userSpaceOnUse">
      <stop offset="0" style=""/>
      <stop offset="1" stop-color="#fff"/>
    </linearGradient>
    <linearGradient id="n" x1="104.59" y1="26.82" x2="104.59" y2="144.83" xlink:href="#m"/>
  </defs>
  <g style="isolation:isolate;" transform="matrix(0.9999999999999999, 0, 0, 0.9999999999999999, -7.105427357601002e-15, -2.220446049250313e-16)">
    <g id="b">
      <g id="c">
        <path d="M85.15,16.73c7.53,1.55,17.18,12.01,17.98,16.61.8,4.6-11.12,4.92-11.12,4.92,0,0-3.25-4.12-4.8-7.02s-2.06-14.51-2.06-14.51Z" style="stroke-width: 0px;"/>
        <path d="M87.21,31.24s5.64-12.26,2.18-15.62c-8.62-8.36-26.12-8.36-26.12-8.36l-13.54,6.21,4.96,6.24s13.96,1.77,20.25,3.72c6.28,1.95,5.75,7.81,5.75,7.81,0,0,3.91,4.74,6.53,0Z" style="fill: url('#e'); stroke-width: 0px;"/>
        <path d="M59.79.66c8.13,3.79,21.52,21.51,23.17,32.3,0,0-4.74.94-10.05-3.32,0,0-9.92-10.94-13.12-13.67-3.19-2.73-21.25.04-29.63,4.23C21.78,24.39,5.61,86,5.61,86c0,0-3.2-31.8.2-44.57,3.4-12.77,6.81-27.97,9.95-30.7C18.9,7.99,52.52-2.74,59.79.66Z" style="stroke-width: 0px;"/>
        <path d="M77.59,32.29c-3.17-7.08-14.57-20.35-20.53-22.32-5.96-1.98-21.66,4.44-26.9,8.61-5.24,4.17-16.19,22.33-16.6,61.31,0,0,7.9-5.04,10.87,2,0,0-3.82-26.94,3.87-42.5,3.71-7.51,12.44-10.29,27.72-8.16,5.85.82,5.05-.42,9.23,1.29,4.18,1.71,12.89.98,12.35-.23Z" style="stroke-width: 0px; fill: rgb(71, 156, 30);"/>
        <path d="M 77.573 32.265 C 74.403 25.185 63.003 11.915 57.043 9.945 C 51.083 7.965 35.383 14.385 30.143 18.555 C 24.903 22.725 13.953 40.885 13.543 79.865 C 13.543 79.865 21.443 74.825 24.413 81.865 C 24.413 81.865 20.593 54.925 28.283 39.365 C 31.993 31.855 40.723 29.075 56.003 31.205 C 61.853 32.025 61.053 30.785 65.233 32.495 C 69.413 34.205 78.123 33.475 77.583 32.265 L 77.573 32.265 Z" style="stroke-width: 0px; mix-blend-mode: multiply;"/>
        <path d="M23.71,133.37c-2.03,3.32-6.53.38-8.91-10.05-.66-2.87-1.35-5.68-2.04-8.54-3.11-12.83-5.03-3.34-4.49-27.4.87-38.4,14.58-50.11,14.79-50.53-3.81,11.08-4.48,18.18-3.81,39.08.52,16.18,1.85,31.26,3.13,39.02,2.95,17.78,3.92,14.2,1.33,18.43Z" style="fill:url(#h); stroke-width:0px;"/>
        <path d="M19.24,75.93h0c-5.58,1.4-10.65,10.16-7.11,32.22.37,2.29.56,4.5.62,6.63-3.11-12.83-5.03-3.34-4.49-27.4.87-38.4,14.58-50.11,14.79-50.53-3.81,11.08-4.48,18.18-3.81,39.08Z" style="fill:url(#i); mix-blend-mode:multiply; stroke-width:0px;"/>
        <path d="M17.33,26.12c-3.88,7.1-13.01,31.65-14.58,48.2-1.57,16.55-4.19,38.18-1.74,52.45,2.45,14.27,8.6,9.09,10.18,0,.6-3.46-1.18-2.86-1.18-33.69s10.32-53.26,15.63-58.54c5.31-5.28,13.71-8.14,28.7-2.01,0,0,10.28,3.72,13.09.82,0,0-8.08-13.29-23.28-14.76-18.97-1.83-24.97,4.14-26.82,7.53Z" style="fill:url(#j); stroke-width:0px;"/>
        <path d="M100.05,56.21c3.09,4.38,2.31,6.02,2.85,11.24.2,1.91-1.45,16.64-1.45,16.64,0,0,4.41-8.96,9.46-4.93,0,0,3.75-17.74-2.36-32.56-1.54-3.72-10.54-3.36-11.71,0-.71,2.05,3.21,9.61,3.21,9.61Z" style="stroke-width: 0px;"/>
        <path d="M89.59,36.83c-1.09.44,2.42,9.29,7.25,14.15.97.98,4.23-2.62,7.17.42,2.93,3.04,5.19.62,7.17,31.01,1.05,16.18-6.99,52.5-6.73,55.4.25,2.9,7.78,1.19,9.91-6.98,2.12-8.17,4.3-16.42,5.35-33.21,1.05-16.78-6.03-49.29-9.87-56.15-3.84-6.87-12.72-7.69-20.24-4.64Z" style="fill:url(#l); stroke-width:0px;"/>
        <path d="M67.42,33.34c-2.81,2.91-13.09-.81-13.09-.81-14.99-6.13-23.39-3.27-28.7,2.01-1.16,1.15-2.55,3.86-4.03,7.71-4.82,23.04-1.95,56.35.77,72.7,2.95,17.78,3.92,14.2,1.33,18.43-2.03,3.32-6.53.38-8.91-10.05-1.63-7.13-3.49-13.9-4.98-21.89.79,13.94,1.74,23.22,1.37,25.33-1.58,9.09-7.73,14.27-10.18,0-2.45-14.27.17-35.9,1.74-52.45.35-3.73.58-4.76,1.56-10.25-.66-10.44-.65-14.53,1.51-22.65,3.4-12.77,6.81-27.97,9.95-30.7.24-.21.65-.46,1.22-.75h0c-2.28,5.57,14.58,1.23,28.6,1.26,0,0-9.22,1.22-15.43,7.35,0,0,1.4,3.85,12.52,5.76,11.12,1.91,13.74.45,13.74.45,0,0-2.98-2.82-5.94-4.84,11.1,3.78,16.94,13.39,16.94,13.39Z" style="fill:url(#m); mix-blend-mode:multiply; stroke-width:0px;"/>
        <path d="M119.7,97.63c-1.05,16.78-3.23,25.04-5.35,33.2-.88,3.4-2.71,5.68-4.55,6.97h0c-1.61,3.86-6.97,4.65-7.45,2.81-.38-1.45.81-10.32,2.98-35.17,0,0,4.2-5.45,5.26-6.7l.37-22.57c-1.57-15.57-4.83-22.58-6.95-24.78-2.93-3.04-6.2.56-7.17-.42-4.83-4.86-8.34-13.71-7.25-14.15,1.49-.6,3.03-1.05,4.57-1.34h0c-2.15,2.76,9.09,9.36,12.47,11.1,3.37,1.74,3.2-5.12,3.2-5.12,3.84,6.87,10.91,39.37,9.86,56.15Z" style="fill:url(#n); mix-blend-mode:multiply; stroke-width:0px;"/>
      </g>
    </g>
  </g>
</svg>