<?xml version="1.0" encoding="utf-8"?>
<svg viewBox="77.2661 164.5665 261.0354 266.9581" xmlns="http://www.w3.org/2000/svg">
  <path d="M128.71,109.68c-.35-2.59-2.44-4.15-5.21-5.73-4.01-2.29-9.41-4.62-12.92-10.18h0s0,0,0,0c0,0,0,0,0-.01h0c-.58-.93-1.11-1.94-1.58-3.05,0,0,0-.01,0-.01-.37-.89-.69-1.85-.97-2.88-2.05-7.67,1.13-18.14,1.13-18.14.85-1.31,1.88-2.31,2.82-3.01.34-.26.66-.48.96-.66h0c1.02-.65,1.77-.91,1.77-.91-.75-9.08,2.25-27.28.05-31.83-4.09-8.43-23.9-15.24-24.52-15.45,0,0,0,0-.02,0,0,0-1.91-4.25-5.51-8.58-5.68-6.86-15.56-13.97-28.72-4.99-2.31,1.58-4.36,2.94-6.15,4.1-10.04,4.53-16.94-8.06-27-1.56-.95.61-1.74,1.32-2.41,2.1h0c-3.73,4.38-3.37,11.02-2.42,15.83-4.04,3.11-6.76,6.84-5.58,10.99,4.94,17.48,3.08,29.34,3.08,29.34,1.37.24,2.48.59,3.38.99.06.09,3.29,1.29,3.73,2.23h.01c2.26,4.89,3.73,11.69,2.07,20.9-1.03,5.75-4.25,10.49-11.44,11.91,0,0,0,0,0,0-8.24,1.64-15.12,8.47-12.79,19.19,0,0,0-11.78,16.73-8.35,10.12,2.08,19-12.62,15.27-20.3-1.96-4.03-3.07-7.7-5.5-15.97-.73-2.48-1.36-4.93-1.8-7.2.37-3.38-.53-21.83,1.85-24.1,5.71-5.43,12.73-1.67,16.82-1.41,1.13,1.06,2.11,2,2.8,2.5,3.27,2.36,10.44,3.09,13.13-2.76,1.41-3.06,1.58-7.92-.66-15.29.74-1.15,1.18-1.86,1.18-1.86,10.46-17.17,22.61-5.15,22.61-5.15,1.85.57,4.39.37,4.93,1.86,1.37,3.84-10.47,7.13-10.27,12.02.27,6.5,6.1,6.76,6.1,6.76,0,0,0,0,0,0-.23-.11-5.69-2.75-.31-7.06,3.18-2.54,8.58-.9,12.16-2.9.57-.31,1.1-.72,1.56-1.26.59,2.11,1.39,5.9,1.55,11.5.11,3.94,2.64,8.5,5,11.92l.02.02c1.86,2.71,1.61,9.69,1.94,10.04l.02.03.02.03s0,.01,0,.03c-.13.82-.79,12.15-1.91,15.24-1.8,4.99-3.48,10.3-3.35,15.82.14,5.9,2.39,12.05,8.83,18.3.14.14.28.27.41.41,7.31,7.33,7.68,14.14,2.71,18.63,0,0,9.68,1.25,11.43-13.33,0,0,6-1.25,5-8.77ZM37.66,15.29s-8.91,2.65-16.2,7.07c.82-2.43,2.94-5.32,7.71-8.21,2.91-1.76,7.6-1.92,11.12-1.73.97.06,1.85.14,2.58.22-3.93,2.26-5.22,2.65-5.22,2.65ZM46.8,43.87c-.65-.34-1.45-.49-2.16-.92.46-.04.87-.14,1.22-.34l.48-.3.1-.06c2.98-1.97,4.14-3.13,6.79-6.7-.03.38,1.38,12.4-6.43,8.33ZM123.46,116.92c-.12-2.6-.84-4.56-1.92-6.12-.01-.01-.02-.03-.03-.05-3.58-5.12-11.03-5.98-13.49-11.12-.12-.24-.22-.51-.31-.8,3.3,2.9,10.55,5.14,15.06,8.04,1.82,1.16,3.19,2.43,3.69,3.89,2.1,6.14-3,6.16-3,6.16Z" style="stroke-width: 0px;" transform="matrix(2.02580189704895, 0, 0, 2.02580189704895, 77.27203369140625, 164.51022338867188)"/>
  <path d="M84.71,9.21s1.83,3.14,1.33,4.15c0,0-5.94-8.74-17.69-10.91-5.57-1.03-14.79,2.01-23.72,12.84-8.92,10.83-3.56,17.5-5.59,23.08-1.5,4.14-4.44,3.08-17.59-.53-9.98-2.74,3.7,30.63,3.7,30.63.37-3.38-.53-21.83,1.85-24.1,5.71-5.43,12.73-1.67,16.82-1.41l2.02-.34.48-.3.1-.06c2.98-1.97,6.79-6.7,6.79-6.7-2.22-8.93-5.1-8.15-5.39-14.93-.14-3.25,3.72-11.55,11.92-16.08,6.32-3.49,15.91.51,25.21,8.58-.83,1.13-7.13-2.21-7.76-2.56-1.54-.84-8.61-4.78-12.79-3.32-4.7,1.65-11.63,8.05-5.32,20.16.74-1.15,1.18-1.86,1.18-1.86,10.46-17.17,22.61-5.15,22.61-5.15,0,0,4.77-.57,7.34-2.59,0,0-1.91-4.25-5.51-8.58Z" style="mix-blend-mode: multiply; opacity: 0.4; stroke-width: 0px; fill: rgb(106, 106, 106);" transform="matrix(2.02580189704895, 0, 0, 2.02580189704895, 77.27203369140625, 164.51022338867188)"/>
  <path d="M49.11,8.88c-9.76,5.66-13.07,13.27-13.49,18.43-.43,5.16,2.86,13.89-6.34,11.05-9.2-2.83-15.45-2.96-15.47,2.73l-1.4-5.39s-.43-7.84,4.89-6.59c7.5,1.76,7.41,3.44,10.99,2.5,3.38-.89,5.03-13.08,14.57-18.98l6.24-3.75Z" style="mix-blend-mode: multiply; opacity: 0.4; stroke-width: 0px; fill: rgb(111, 111, 111);" transform="matrix(2.02580189704895, 0, 0, 2.02580189704895, 77.27203369140625, 164.51022338867188)"/>
  <path d="M114.71,65.08s-.75.27-1.77.91c.59-4.75,4.27-21.69-3.79-27.62-6.22-4.58-7.79-11.5-7.79-11.5,0,0-.02,14.23,5.88,18.5,9.43,6.83,4.7,20.91,4.7,20.91l.04.37c-.94.71-1.97,1.7-2.82,3.01l-3.6-6.38c-.58-8.5-1.94-10.04-1.94-10.04l-.02-.02c-2.35-3.42-4.88-7.98-5-11.92-.16-5.6-.96-9.39-1.55-11.5,1.79-1.39,2.42-7.06-6.81-12,.62.21,20.44,7.02,24.52,15.45,2.2,4.54-.8,22.75-.05,31.83Z" style="mix-blend-mode: multiply; opacity: 0.4; stroke-width: 0px; fill: rgb(111, 111, 111);" transform="matrix(2.02580189704895, 0, 0, 2.02580189704895, 77.27203369140625, 164.51022338867188)"/>
  <path d="M17.41,118.31c.31-.69.65-1.38,1-2.08l-1,2.08Z" style="fill:#7c0377; mix-blend-mode:multiply; opacity:.4; stroke-width:0px;" transform="matrix(2.02580189704895, 0, 0, 2.02580189704895, 77.27203369140625, 164.51022338867188)"/>
  <path d="M25,110.8c.48-.65.82-1.06.89-1.14-.28.36-.58.74-.89,1.14Z" style="fill:#7c0377; mix-blend-mode:multiply; opacity:.4; stroke-width:0px;" transform="matrix(2.02580189704895, 0, 0, 2.02580189704895, 77.27203369140625, 164.51022338867188)"/>
  <path d="M22.85,30.73v-.03c.07-.06.07-.04,0,.03Z" style="fill:#7c0377; mix-blend-mode:multiply; opacity:.4; stroke-width:0px;" transform="matrix(2.02580189704895, 0, 0, 2.02580189704895, 77.27203369140625, 164.51022338867188)"/>
  <path d="M83.63,41.03c-.28-.08-5.34-1.59-4.1-6.92,1.01-4.37,7.88-4.87,15.95-3.05-3.58,2-8.98.36-12.16,2.9-5.39,4.31.08,6.95.31,7.06Z" style="mix-blend-mode: multiply; opacity: 0.4; stroke-width: 0px; fill: rgb(114, 114, 114);" transform="matrix(2.02580189704895, 0, 0, 2.02580189704895, 77.27203369140625, 164.51022338867188)"/>
  <path d="M40.29,12.42c-3.52-.19-8.21-.03-11.12,1.73-4.77,2.89-6.89,5.77-7.71,8.21l-3.46,2.35c-.95-4.81-1.3-11.45,2.42-15.82,0,0,.02,3.06,8.12,2.56,7.87-.48,11.56.9,11.75.97Z" style="mix-blend-mode: multiply; opacity: 0.4; stroke-width: 0px; fill: rgb(110, 110, 110);" transform="matrix(2.02580189704895, 0, 0, 2.02580189704895, 77.27203369140625, 164.51022338867188)"/>
  <path d="M80.54,18.59c-10.08-8.48-17.31-14-21.69-7.24s.25,16.04.25,16.04c0,0,1.21-6.5,8.98-10.04,7.03-3.21,12.47,1.24,12.47,1.24Z" style="mix-blend-mode: multiply; opacity: 0.4; stroke-width: 0px; fill: rgb(112, 112, 112);" transform="matrix(2.02580189704895, 0, 0, 2.02580189704895, 77.27203369140625, 164.51022338867188)"/>
  <path d="M49.84,10.49c-7.65,15.96.6,29.25-3.5,30.74s-8.15,0-8.15,0c0,0,3.4-1.53,2.12-9.74-2.12-13.62,9.54-21,9.54-21Z" style="mix-blend-mode: multiply; opacity: 0.4; stroke-width: 0px; fill: rgb(116, 116, 116);" transform="matrix(2.02580189704895, 0, 0, 2.02580189704895, 77.27203369140625, 164.51022338867188)"/>
  <path d="M26.94,5.06c-2.98,4.8,4.74,6.28,4.74,6.28h2.54s-3.95-1.81-4.67-3.65c-.72-1.83,1-2.63,1-2.63,0,0-.92-.22-1.72-.19-.8.04-1.89.19-1.89.19Z" style="fill:#ffd1dd; mix-blend-mode:soft-light; opacity:.5; stroke-width:0px;" transform="matrix(2.02580189704895, 0, 0, 2.02580189704895, 77.27203369140625, 164.51022338867188)"/>
  <path d="M41.32,15.08c1.39.47,3.58,0,3.58,0l-2.6,3.45s-.82-1.81-2.79-1.18l1.82-2.27Z" style="fill:#ffd1dd; mix-blend-mode:soft-light; opacity:.5; stroke-width:0px;" transform="matrix(2.02580189704895, 0, 0, 2.02580189704895, 77.27203369140625, 164.51022338867188)"/>
  <path d="M50.8,12.86c2.74-3.78,8.05-1.51,8.05-1.51,0,0-1.85,2.37-2.24,6,0,0-4.38-2.08-8.48,1.18,0,0,1.36-3.87,2.67-5.68Z" style="fill:#ffd1dd; mix-blend-mode:soft-light; opacity:.5; stroke-width:0px;" transform="matrix(2.02580189704895, 0, 0, 2.02580189704895, 77.27203369140625, 164.51022338867188)"/>
  <path d="M25.99,19.9c-3.28,6.79-1.19,11.69-1.19,11.69,0,0-3.85-1.47-5.06-1.82,0,0,1.09-5.5,4.45-8.95l1.8-.91Z" style="fill:#ffd1dd; mix-blend-mode:soft-light; opacity:.5; stroke-width:0px;" transform="matrix(2.02580189704895, 0, 0, 2.02580189704895, 77.27203369140625, 164.51022338867188)"/>
  <path d="M34.21,22.27c1.87,9.03,3.7,19.41-3.45,16-7.16-3.42-16.31-3.76-17.68,0,0,0-1.05-9.77,2.86-9.28,5.51.69,8.29,3.24,12.36,2.62,2.46-.38,5.91-9.34,5.91-9.34Z" style="mix-blend-mode: multiply; opacity: 0.4; stroke-width: 0px; fill: rgb(114, 114, 114);" transform="matrix(2.02580189704895, 0, 0, 2.02580189704895, 77.27203369140625, 164.51022338867188)"/>
  <path d="M87.41,24.28c7.55,5,9.61-.71,9.61-.71,0,0,1.56,2.14,1.1,3.82-.47,1.68-.8,1.95-1.94,3.21,0,0-7.04-1.36-9.36-5.62l.58-.71Z" style="fill:#ffd1dd; mix-blend-mode:soft-light; opacity:.5; stroke-width:0px;" transform="matrix(2.02580189704895, 0, 0, 2.02580189704895, 77.27203369140625, 164.51022338867188)"/>
  <path d="M107.9,37.37c-1.02,4.16-3.5,4.53-3.5,4.53,0,0,1.34,3.05,2.82,3.47,0,0,3.02-3,1.92-7l-1.24-1Z" style="fill:#ffd1dd; mix-blend-mode:soft-light; opacity:.5; stroke-width:0px;" transform="matrix(2.02580189704895, 0, 0, 2.02580189704895, 77.27203369140625, 164.51022338867188)"/>
  <path d="M17.19,111.93C.46,108.49.46,120.28.46,120.28c-2.34-10.73,4.54-17.56,12.79-19.19-.17.14-4.79,5.03-4.2,5.8,1.43,1.88,5.1,2.78,7.94,2.78,3.45,0,8.26-1.53,10.73-8.3,2.46-6.76-.72-11.29-2.71-11.89l-.31-.31c1.66-9.21.19-16.01-2.07-20.89l2.96,5.37,1.37,2.01c2.43,8.27,3.54,11.93,5.5,15.97,3.74,7.68-5.14,22.38-15.27,20.3Z" style="mix-blend-mode: multiply; opacity: 0.4; stroke-width: 0px; fill: rgb(114, 114, 114);" transform="matrix(2.02580189704895, 0, 0, 2.02580189704895, 77.27203369140625, 164.51022338867188)"/>
  <path d="M109.15,69.66s-3.18,10.47-1.13,18.14c.27,1.03.6,1.99.97,2.88-2.05-3.55-5.59-8.12-7.52-1.82-.55,1.78-.91,3.67-1.14,5.57-.13-5.52,1.56-10.83,3.35-15.82,1.11-3.09,1.78-14.41,1.91-15.24l3.56,6.28Z" style="mix-blend-mode: multiply; opacity: 0.4; stroke-width: 0px; fill: rgb(111, 111, 111);" transform="matrix(2.02580189704895, 0, 0, 2.02580189704895, 77.27203369140625, 164.51022338867188)"/>
  <path d="M110.58,93.76h0s0,0,0,0c0,0,0,0,0,0Z" style="fill:#7c0377; mix-blend-mode:multiply; opacity:.4; stroke-width:0px;" transform="matrix(2.02580189704895, 0, 0, 2.02580189704895, 77.27203369140625, 164.51022338867188)"/>
  <path d="M123.71,118.45c-1.75,14.58-11.43,13.33-11.43,13.33,4.96-4.49,4.6-11.3-2.71-18.63,0,0,4.78,2.56,7.77,3.77,3.54,1.43,6.79-2.11,4.21-6.12,1.08,1.57,1.8,3.52,1.92,6.12,0,0,5.1-.02,3-6.16-.5-1.45-1.87-2.73-3.69-3.89.95-.07,2.82-.49.73-2.94,2.77,1.58,4.87,3.14,5.21,5.73,1,7.52-5,8.77-5,8.77Z" style="mix-blend-mode: multiply; opacity: 0.4; stroke-width: 0px; fill: rgb(110, 110, 110);" transform="matrix(2.02580189704895, 0, 0, 2.02580189704895, 77.27203369140625, 164.51022338867188)"/>
  <path d="M16.66,100.04c2.39,4.1,4.66,4.82,7.52,6.88l1.8-2.12s-2.21-4.58-8.09-5.37l-1.24.6Z" style="fill:#ffd1dd; mix-blend-mode:soft-light; opacity:.5; stroke-width:0px;" transform="matrix(2.02580189704895, 0, 0, 2.02580189704895, 77.27203369140625, 164.51022338867188)"/>
  <path d="M103.68,105.95c2.31-1.81,8.87-1.81,8.87-1.81l2.41,1.42s-1.03-1.58-5.5,0c-4.47,1.58-4.09,2.94-4.09,2.94l-1.71-2.55Z" style="fill:#ffd1dd; mix-blend-mode:soft-light; opacity:.5; stroke-width:0px;" transform="matrix(2.02580189704895, 0, 0, 2.02580189704895, 77.27203369140625, 164.51022338867188)"/>
  <path d="M115.3,98.94c-2.42,1.34-2.38,3.05-2.38,3.05l1.96.92s.99-2.39,2.45-2.51l-2.04-1.46Z" style="fill:#ffd1dd; mix-blend-mode:soft-light; opacity:.5; stroke-width:0px;" transform="matrix(2.02580189704895, 0, 0, 2.02580189704895, 77.27203369140625, 164.51022338867188)"/>
</svg>