<?xml version="1.0" encoding="utf-8"?>
<svg viewBox="0 0 122.2 154.17" xmlns="http://www.w3.org/2000/svg" xmlns:xlink="http://www.w3.org/1999/xlink">
  <defs>
    <linearGradient id="e" x1="21.47" y1="154.17" x2="21.47" y2="4.18" gradientUnits="userSpaceOnUse">
      <stop offset="0" stop-color="#ffdec7"/>
      <stop offset="0.99" stop-color="#7c297f"/>
    </linearGradient>
    <linearGradient id="f" x1="96.08" y1="154.17" x2="96.08" y2="11.57" xlink:href="#e"/>
  </defs>
  <g style="isolation:isolate;" transform="matrix(1, 0, 0, 1, 0, -7.105427357601002e-15)">
    <g id="b">
      <g id="c">
        <path d="M121.51,154.17h-3.25s6.42-23.9-1.41-64.44c2.16,37.33-4.34,64.44-4.34,64.44h-1.31s3.06-45.79,2.58-58.97c-.39-10.86-1.21-18.78-1.21-18.78l-4.38,77.76H10.51s.19-42.46.23-47.14c0-.31.01-.47.01-.47-.14.69-.27,1.39-.4,2.09-1.4,7.7-1.84,15.69-1.87,22.53-.05,9.46.7,21.56.84,22.8.02.12.02.19.02.19H1.26s-2.94-22.62.16-44.65c.73-5.22,1.8-10.68,3.34-16.2,4.88-17.54,1.89-25.64,1.89-43.92,0-.92,0-2.21.02-3.7h0c.08-6.24.42-16.08,1.77-18.37,1.62-2.76,9.46-10.21,13.73-14.06,3.94-3.55,7.77-5.77,10.91-7.16,2.91-1.3,5.52-1.85,8-1.91,0,0,0,0,.02,0,6.53-.19,12.17,2.91,20.21,4.13L73.78,0c9.54-.13,28.82,15.57,33.95,23.62.76,1.2,1.22,2.23,1.28,3.01,2.12,27.23,5.51,44.15,8.29,56.91,1.87,8.59,3.46,15.3,4.21,21.99,1.56,14.01,0,48.63,0,48.63Z" style="stroke-width: 0px; fill: fillColor;"/>
        <path d="M26.05,90.76l4.22,63.41h-4.57s-4.23-32.21-4.21-41.7c.02-11.41-1.6-16.66-1.6-16.66,0,0-1.13-.78-2.5,1.49l3.82,56.88h-6.89s-1.17-49.12,1.62-60.19l-5.17,13s0,.03-.02.06c-.14.53-.27,1.06-.39,1.61-1.51,6.69-1.91,15.1-1.87,22.53.03,9.07.72,21.52.84,22.8.02.12.02.19.02.19h-3.79c-9-10.57,9.96-66.57,2.82-60.28-2.72,2.4-6.84,15.97-6.84,15.97,0,0-.04-.11-.12-.34.73-5.22,1.8-10.68,3.34-16.2,4.88-17.54,1.89-25.64,1.89-43.92,0-.92,0-2.21.02-3.7.03.23.41,3.07,2.17,3.7,0,0,1.26,2.16,5.38-14.01,2.33-9.15,5.12-16.8,7.95-22.12,3.94-3.55,7.77-5.77,10.91-7.16,2.91-1.3,5.52-1.85,8-1.91,0,0,0,0,.02,0,.25.02.4.04.4.04l-15.46,86.53Z" style="fill: url('#e'); fill-rule: evenodd; mix-blend-mode: multiply; opacity: 0.6; stroke-width: 0px;"/>
        <path d="M113.79,95.2c-.39-10.86-1.21-18.78-1.21-18.78l-4.38,77.75h-3.01s4.59-39.74,4.6-46.84c.02-10.87,0-16.56,0-16.56,0,0-4.5-.48-4.97,2.66l-7.47,60.74h-8.23l10.43-67.81-24.68-67.46,16.36-7.32s11.63,13.32,13.96,14.32c2.33,1,2.56-2.27,2.56-2.27.76,1.2,1.22,2.23,1.28,3.01,2.12,27.23,5.51,44.15,8.29,56.91-1.69,2.56-2.82,7.46-3.52,11.65Z" style="fill:url(#f); mix-blend-mode:multiply; opacity:.6; stroke-width:0px;"/>
        <path d="M94.28,154.17h-2.17l8.42-55.58c-2.6,1.45-6.52,6.19-6.52,6.19-1.43,6.77-11.77,49.39-11.77,49.39h-4.61.29l12.28-44.28s-9.19,3.26-10.27,4.69c-.94,1.24-8.81,39.59-8.81,39.59h-21.46l-6.98-33.88c-.83-3.61-5.5-7.13-5.5-7.13.15,8.3,7.55,41.01,7.55,41.01h.23-8.04l-10.87-49.39c-1.44,5.06,2.79,49.39,2.79,49.39,0,0-8.38-45.33-5.85-84.66l19.69-40.36h27.56s28.27,22.5,32.32,51.07c3.13,22.03-8.29,73.95-8.29,73.95Z" style="fill:#7c0377; mix-blend-mode:multiply; opacity:.6; stroke-width:0px;"/>
      </g>
    </g>
  </g>
</svg>