<?xml version="1.0" encoding="utf-8"?>
<svg viewBox="177.904 135.7254 178.9087 269.6729" xmlns="http://www.w3.org/2000/svg">
  <defs>
    <linearGradient id="f" x1="57.13" y1="45.25" x2="57.13" y2="15.01" gradientUnits="userSpaceOnUse">
      <stop offset="0" style="stop-color: rgb(165, 165, 165); stop-opacity: 0.3;"/>
      <stop offset="1" style="stop-color: currentColor;"/>
    </linearGradient>
    <linearGradient id="g" x1="13.03" y1="63.6" x2="13.03" y2="7.89" gradientUnits="userSpaceOnUse">
      <stop offset="0" stop-color="#ffeadb"/>
      <stop offset="0.99" style="stop-color: rgb(202, 202, 202);"/>
    </linearGradient>
    <linearGradient id="h" x1="6.71" y1="92.99" x2="6.71" y2="37.04" gradientUnits="userSpaceOnUse">
      <stop offset="0" style="stop-color: rgb(194, 194, 194);"/>
      <stop offset="1" stop-color="#ffeadb"/>
    </linearGradient>
  </defs>
  <g style="isolation: isolate;" transform="matrix(2.8882179260253906, 0, 0, 2.8882179260253906, 177.9145355224609, 135.72541809082028)">
    <g id="b">
      <g id="c">
        <path d="M51.26,14.45c-1.22.3-15.7-1.43-19.61,0-3.92,1.43-14,6.26-15.39,24.26-.57,7.32.15,24.41.86,37.55v.02c.52,9.61,1.03,17.09,1.03,17.09l-2.16-.21c-1.51-6.01-2.41-15.11-2.41-15.11-.25,6.05,1.01,14.95,1.01,14.95H2.45S-.82,82.74.19,62.53C1.2,42.32,6.13,28.3,7.66,24.42S18.22,14.15,26.05,7.89C31.84,3.26,35.65.41,38.72.41h.01c.08,0,.16,0,.24.01.99.05,1.9.4,2.78,1.1,1.91,1.52,4.42,4.98,6.38,7.94.21.32.42.62.61.92.13.2.25.4.38.59.07.09.13.19.18.28.47.74.88,1.41,1.21,1.93.08.13.15.25.22.37.04.08.09.16.13.23.26.43.4.67.4.67Z" style="stroke-width: 0px;"/>
        <path d="M51.27,14.44S46.75,3.54,41.75,0c0,0,12.37,7.09,10.57,15.01l-1.06-.56Z" style="stroke-width: 0px;"/>
        <path d="M52.33,15.01s3.09,3.13,4.34,8.15c1.25,5.01-1.16,10.2.51,13.89,1.67,3.69,2.88,8.21,2.88,8.21,0,0,3.1-14.9,1.34-20.49-1.77-5.59-9.07-9.75-9.07-9.75Z" style="fill:url(#f); stroke-width:0px;"/>
        <path d="M51.26,14.45c-1.22.3-15.7-1.43-19.61,0-3.92,1.43-14,6.26-15.39,24.26-.57,7.32.15,24.41.86,37.55-1.49-10.09-8.55-38.24.06-50.83C25.7,12.98,34.13.43,38.72.41h.16s.06,0,.09.01c2.7.26,6.5,5.12,9.16,9.04.21.32.42.62.61.92.13.2.26.4.38.59.07.09.13.19.18.28.48.74.89,1.4,1.21,1.93.08.13.15.25.22.37.04.08.09.16.13.23.26.43.4.67.4.67Z" style="mix-blend-mode: multiply; opacity: 0.9; stroke-width: 0px; fill: rgb(207, 207, 207);"/>
        <path d="M26.05,7.89s-8.87,14.37-16.47,26.25C1.98,46.02,0,63.6,0,63.6l.53-6.09s1.4-13.47,8.46-24.27,14.73-23.51,14.73-23.51l2.33-1.84Z" style="fill:url(#g); mix-blend-mode:multiply; stroke-width:0px;"/>
        <path d="M2.45,92.99s-3.46-15.75,1.66-30.91c5.12-15.16,8-25.04,8-25.04,0,0-5.46,20.69-8.86,33.19-3.4,12.51,1.34,22.76,1.34,22.76h-2.13Z" style="fill:url(#h); mix-blend-mode:multiply; stroke-width:0px;"/>
        <path d="M14.59,93s-3.09-8.36-3.6-17.71c-.51-9.35,1.8-23.49,1.8-23.49l.79,26.26s.31,10.68,1.01,14.95Z" style="mix-blend-mode: multiply; opacity: 0.6; stroke-width: 0px; fill: rgb(208, 208, 208);"/>
        <path d="M11.5,19.67s-.28,1.48.62,1.82,2.06-1.43,3.88-.91c1.82.52,1.89.71,2.46.95s2.66-1.86,2.66-1.86l-3.7,5.39s-1.31-3.01-2.64-3.27c-1.33-.26-1.71.26-3.13.43-1.42.17-2.09-.61-2.09-.61,0,0,1.24-1.31,1.92-1.94Z" style="fill:#ffd9bb; mix-blend-mode:soft-light; stroke-width:0px;"/>
      </g>
    </g>
  </g>
</svg>