<?xml version="1.0" encoding="utf-8"?>
<svg viewBox="0 0 259.66 238" xmlns="http://www.w3.org/2000/svg" xmlns:xlink="http://www.w3.org/1999/xlink">
  <defs>
    <linearGradient id="e" x1="187.05" y1="235.21" x2="187.05" y2="141.23" gradientUnits="userSpaceOnUse">
      <stop offset="0.01" stop-color="#be6888"/>
      <stop offset="1" stop-color="#8e81f4"/>
    </linearGradient>
    <linearGradient id="f" x1="217.61" y1="173.28" x2="217.61" y2="85.39" xlink:href="#e"/>
  </defs>
  <g style="isolation:isolate;" transform="matrix(0.9999999999999999, 0, 0, 0.9999999999999999, 0, -7.105427357601002e-15)">
    <g id="b">
      <g id="c">
        <path d="M220.94,55.51c-3.49,109.38-45.79,177.18-45.79,177.18,0,0,3.69-5.44-11.83-8.31-29.76-5.49-91.84.05-83.9,13.61,0,0-20.02-2.83-69.75-35.03,0,0-3.84-26.29-8.86-74.33C-5.24,70.66,24.31,16.59,27.83,15.64c3.51-.95,193.11,39.87,193.11,39.87Z" style="stroke-width: 0px; fill: currentColor;"/>
        <path d="M218.71,138.91l.37.49c-.01-.22-.22-.35-.37-.49ZM232.22,160.11c-7.1-3.28-13-9.54-13.57-21.27,1.23-4.15,4.47-11.69,8.37-20.11,7.59-16.45,17.7-36.42,19.86-40.64,1.03-2,1.64-4.02,1.86-6.06,2.36-20.84-36.6-44.52-90.88-72.02,0,0,14.24,63.09,21.17,118.04.25,2,.5,3.98.72,5.96l-23.15,68.98s19.97,2.31,22.22,17.12c.1.69.19,1.37.26,2.02,1.73,17.23-9.56,24.05-9.56,24.05,6.44-2.53,13.93-7.51,21.22-13.97,0,0,40.17-14.17,25.43-60.28.02.04.04.08.06.14.01.04.03.07.04.12.01.04.03.08.05.14.02.05.04.12.07.18.76,1.95,3.02,7.14,6.7,10.78,1.5,1.47,3.22,2.69,5.19,3.32,21.18,6.87,31.38-13.81,31.38-13.81,0,0-15.55,2.81-27.43-2.69Z" style="stroke-width: 0px; fill: currentColor;"/>
        <path d="M246.88,78.09c-3.28,6.42-24.6,48.55-28.23,60.75.15.18-.49,7.11,5.05,14.75,0,0-8.32-1.78-13.11,9.41-3.64,8.5-2.64,27.25-9.19,39.53,0,0-.15-13.61-5.39-14.85-3.16-.75-16.94,24.45-16.94,24.45-.07-.65-.16-1.33-.26-2.02-2.25-14.81-22.22-17.12-22.22-17.12l23.15-68.98c-.23-1.98-.48-3.96-.72-5.96l28.04-57.93s29.61,38.39,41.68,11.91c-.22,2.04-.83,4.06-1.86,6.06Z" style="fill: rgb(206, 119, 181); mix-blend-mode: multiply; opacity: 0.9; stroke-width: 0px;"/>
        <path d="M184.5,179.23c11.42,17.7,6.17,47.29-12.74,55.98,0,0,20.24-7.93,28.58-29.3,8.69-22.24-13.74-64.68-13.74-64.68l-2.1,38Z" style="fill:url(#e); mix-blend-mode:multiply; opacity:.93; stroke-width:0px;"/>
        <path d="M232.22,160.11c-9.61-.95-10.23,6.79-9.14,13.17-3.68-3.64-5.94-8.83-6.7-10.78-.03-.06-.05-.13-.07-.18-.02-.05-.03-.1-.05-.14-.01-.05-.03-.08-.04-.12-.02-.05-.03-.1-.06-.14-.01-.05-.02-.08-.03-.12-.02-.05-12.36-14.82-12.01-21.39.96-18.16-1.12-25.87-1.12-25.87,9.25,5.18,12.35-11.28,11.44-29.16,0,0,5.1,13.17,2.76,23.27-2.12,9.16-2.36,22.9,1.45,30.18.58,11.73,6.47,17.99,13.57,21.27Z" style="fill:url(#f); mix-blend-mode:multiply; opacity:.93; stroke-width:0px;"/>
      </g>
    </g>
  </g>
</svg>