<?xml version="1.0" encoding="utf-8"?>
<svg viewBox="198.9024 128.9505 184.6573 264.4931" xmlns="http://www.w3.org/2000/svg">
  <path d="M34.18,0C18.33-.07,5.47,11.84,1.13,23.7c-4.35,11.86,5.33,59.13,4.28,64.67s-4.28,5.48-4.28,5.48c0,0,5.19.45,15.77-2.3,10.58-2.75,25.14-3.13,31.57-1.36s13.34,4.03,15.63,3.66c0,0-4.36-2.49-4.45-9.01-.08-6.52,8.09-45.9,5.33-61.14C62.22,8.46,44.68.04,34.18,0Z" style="stroke-width: 0px;" transform="matrix(2.817038059234619, 0, 0, 2.817038059234619, 198.90382385253903, 128.95138549804685)"/>
  <path d="M8.77,63.1s7.46,23.46,1.65,29.88l.66-.12s5.28-3.49-1.45-30.18l-.86.42Z" style="fill:#ffd9bb; mix-blend-mode:soft-light; stroke-width:0px;" transform="matrix(2.817038059234619, 0, 0, 2.817038059234619, 198.90382385253903, 128.95138549804685)"/>
  <path d="M53.83,91.71s-.34-11.41,3.13-24.65c0,0-4.6,14.9-3.85,24.44l.71.2Z" style="fill:#ffd9bb; mix-blend-mode:soft-light; stroke-width:0px;" transform="matrix(2.817038059234619, 0, 0, 2.817038059234619, 198.90382385253903, 128.95138549804685)"/>
  <path d="M58.93,92.99s-2.78-4.37-2.84-10.82,2.71-20.97,2.71-20.97l1.46-.69s-4.89,23.48.68,33.05l-2-.57Z" style="fill:#ffd9bb; mix-blend-mode:soft-light; opacity:.5; stroke-width:0px;" transform="matrix(2.817038059234619, 0, 0, 2.817038059234619, 198.90382385253903, 128.95138549804685)"/>
  <path d="M6.85,62.64s9.42,21.76,1.19,30.73l-5.55.52s4.59-.46,4.46-7.32c-.13-6.86-4.8-28.7-4.8-28.7l4.69,4.77Z" style="fill:#ffd9bb; mix-blend-mode:soft-light; opacity:.5; stroke-width:0px;" transform="matrix(2.817038059234619, 0, 0, 2.817038059234619, 198.90382385253903, 128.95138549804685)"/>
  <path d="M48.63,10.8s5.66.13,11.63,5.25c5.97,5.12,5,27.15,5,27.15l-1.78.7s-1.66-27.45-14.85-33.1Z" style="fill:#9077b8; mix-blend-mode:multiply; stroke-width:0px;" transform="matrix(2.817038059234619, 0, 0, 2.817038059234619, 198.90382385253903, 128.95138549804685)"/>
  <path d="M19.89,10.8s-11.77,2.24-16.06,7.29c-4.29,5.06-3.07,15.07-.78,25.1h0S8.98,15.69,19.89,10.8Z" style="fill:#9077b8; mix-blend-mode:multiply; stroke-width:0px;" transform="matrix(2.817038059234619, 0, 0, 2.817038059234619, 198.90382385253903, 128.95138549804685)"/>
  <path d="M46.83,9.84s3.98-2.89,6.52-3.08l-1.32-.9s-2.58-.26-6.27,3.47l1.07.51Z" style="fill:#ffd9bb; mix-blend-mode:soft-light; stroke-width:0px;" transform="matrix(2.817038059234619, 0, 0, 2.817038059234619, 198.90382385253903, 128.95138549804685)"/>
  <path d="M40.61,7.54s-.45-3.3,2.47-5.95l-2.15-.63s-1.1,2.06-1.25,6.37l.94.21Z" style="fill:#ffd9bb; mix-blend-mode:soft-light; stroke-width:0px;" transform="matrix(2.817038059234619, 0, 0, 2.817038059234619, 198.90382385253903, 128.95138549804685)"/>
  <path d="M7.29,13.22s6.26-4.74,15.88-4.06l1.28-.52s-5.28-2.2-13.37.64c0,0-3.36,3.42-3.79,3.94Z" style="fill:#ffd9bb; mix-blend-mode:soft-light; stroke-width:0px;" transform="matrix(2.817038059234619, 0, 0, 2.817038059234619, 198.90382385253903, 128.95138549804685)"/>
  <path d="M15.87,5.58s6.02-.91,9.78,2.62l.7-.23s-3.71-3.26-9.3-3.14l-1.19.74Z" style="fill:#ffd9bb; mix-blend-mode:soft-light; stroke-width:0px;" transform="matrix(2.817038059234619, 0, 0, 2.817038059234619, 198.90382385253903, 128.95138549804685)"/>
</svg>