<?xml version="1.0" encoding="utf-8"?>
<svg viewBox="155.6653 147.3206 197.572 242.2416" xmlns="http://www.w3.org/2000/svg" xmlns:xlink="http://www.w3.org/1999/xlink">
  <defs>
    <linearGradient id="c" x1="10.93" y1="97.91" x2="10.93" y2="10.46" gradientUnits="userSpaceOnUse">
      <stop offset="0" style="stop-color: rgb(255, 255, 255);"/>
      <stop offset="1" style="stop-color: currentColor;"/>
    </linearGradient>
    <linearGradient id="d" x1="25.66" y1="9.8" x2="26.29" y2="9.8" xlink:href="#c"/>
    <linearGradient id="e" x1="46.25" y1="101.88" x2="46.25" y2=".71" xlink:href="#c"/>
    <linearGradient id="f" x1="74.63" y1="101.1" x2="74.63" y2="64.25" gradientUnits="userSpaceOnUse">
      <stop offset="0" style="stop-color: currentColor;"/>
      <stop offset="1" stop-color="#ffeadb"/>
    </linearGradient>
    <linearGradient id="g" x1="12.5" y1="99.86" x2="12.5" y2="60.37" xlink:href="#f"/>
    <linearGradient id="h" x1="69.54" y1="97.91" x2="69.54" y2="66.82" xlink:href="#f"/>
  </defs>
  <g style="isolation: isolate;" transform="matrix(2.377742052078247, 0, 0, 2.377742052078247, 155.66299438476565, 147.3178253173828)">
    <g id="a">
      <path d="M71.27,101.1c2.29-4.41,1.86-10.1,1.86-10.1-1.44,3.83-4.57,6.91-4.57,6.91l1.17-3.71c-2.13,4.13-7.22,7.68-7.22,7.68,0,0,4.34-38.14,2.74-53.27-1.59-15.12-4.67-30.36-6.26-33.48-1.59-3.12-5.54-4.78-9.87-6.17-4.33-1.39-14.53-1.28-15.74,0-1.21,1.28-17,31.66-18.63,54.13s5.17,38.78,5.17,38.78c-2.18-.09-5.98-3.38-5.98-3.38l-2.97-2.35v1.76c-6.17-7.53-7.25-20.67-7.25-20.67-.34,11.56,4.6,19.71,4.6,19.71C-1.79,90.24-1.38,64.16,2.69,53.87c3.96-9.99,2.07-26.25,5.04-32.22,0,0,0-.02.01-.03.07-.16.16-.32.25-.46,2.35-3.87,8.53-7.7,13.07-10.26.07-.05.15-.09.22-.13.19-.1.38-.21.56-.3t.01-.01c1.59-.88,2.91-1.58,3.7-2.04C28.61,6.63,31.76.86,34.39.09c1.41-.4,3.59.61,6.01,1.84,2.12,1.06,4.43,2.28,6.56,2.84,0,0,0,0,.02,0,.34-.1,5.91-1.78,8.22-1.94.32-.03.71.07,1.12.28,0,0,0,0,0,0,1.89.89,4.61,3.81,7.09,6.42,1,1.06,1.97,2.07,2.82,2.87,3.44,3.24,7.92,7.14,9.06,20,1.32,14.87,3.73,20.15,5.54,25.79,1.08,3.36,1.94,6.86,2.22,12.6.75,15.14-11.43,29.88-11.8,30.32Z" style="stroke-width: 0px;"/>
      <path d="M10.96,96.15v1.76c-6.17-7.53-7.25-20.67-7.25-20.67-.34,11.56,4.6,19.71,4.6,19.71C-1.79,90.24-1.38,64.16,2.69,53.87c3.96-9.99,2.07-26.25,5.04-32.22-1.61,4.1.52,16.04-1.86,21.73-2.37,5.7-4.24,22.73-4.24,22.73,0,0,4.71-8.66,7.18-16.34,2.47-7.67.76-19.51,3.9-28,2.45-6.62,6.62-9.78,8.35-10.86.07-.05.15-.09.22-.13.36-.22.57-.32.57-.32t-.01.01c-12.05,9.47-8.1,21.83-12.86,47.82-4.76,26,1.98,37.86,1.98,37.86Z" style="fill:url(#c); mix-blend-mode:multiply; stroke-width:0px;"/>
      <path d="M26.29,9.02c-.07.16-.29.7-.63,1.56.23-.63.44-1.16.63-1.56Z" style="fill:url(#d); mix-blend-mode:multiply; stroke-width:0px;"/>
      <path d="M71.27,101.1c2.29-4.41,1.86-10.1,1.86-10.1-1.44,3.83-4.57,6.91-4.57,6.91l1.17-3.71c-2.13,4.13-7.22,7.68-7.22,7.68,0,0,4.34-38.14,2.74-53.27-1.59-15.12-4.67-30.36-6.26-33.48-1.59-3.12-5.54-4.78-9.87-6.17-4.33-1.39-14.53-1.28-15.74,0-1.21,1.28-17,31.66-18.63,54.13s5.17,38.78,5.17,38.78c-2.18-.09-5.98-3.38-5.98-3.38l-2.97-2.35c-2.78-9.38-1.9-28.68,2.97-48.9,3.99-16.58,9.76-31.7,11.71-36.62-2.81,7.65-8.56,29.81-8.75,30.56C23.09,27.43,31.32,2.5,33.92.98c1.15-.67,3.84,0,6.48.94,3.32,1.19,6.56,2.84,6.56,2.84,0,0,0,0,.02,0,.44-.22,8.9-1.95,10.09.29,0,0-.74-1.95-.74-1.95,1.22,2.33,7.45,24.44,8.91,40.58,1.47,16.14,1.96,42.15,1.96,42.15,0,0,.91-7.14,1.9-16.83.99-9.7,2.3-25.34.71-38.48-1.53-12.7-6.07-20.46-6.38-20.97.47.54,8.23,9.71,7.74,21.48-.52,12.15,1.19,17.08,1.06,29.66-.13,12.57-2.16,31.77-2.16,31.77,0,0,2.89-3.73,5.69-13.44,2.71-9.38,1.29-24.05,1.2-25.02,3.29,18.39-2.08,35.95-2.08,35.95,0,0,3.09-2.74,5.62-10.92,1.92-6.19.93-16.29.34-20.83,1.08,3.36,1.94,6.86,2.22,12.6.75,15.14-11.43,29.88-11.8,30.32Z" style="fill:url(#e); mix-blend-mode:multiply; stroke-width:0px;"/>
      <path d="M73.13,91s4.99-16.41,4.87-26.75c0,0-.52,26.53-6.73,36.84,0,0,2.29-4.41,1.86-10.1Z" style="fill:url(#f); mix-blend-mode:multiply; stroke-width:0px;"/>
      <path d="M10.96,96.15s-3.94-16.27.33-35.78c0,0-.96,31.53,4.39,39.49l-4.73-3.72Z" style="fill:url(#g); mix-blend-mode:multiply; stroke-width:0px;"/>
      <path d="M69.73,94.2s2.13-19.41,2.32-27.38c0,0-2.42,24.8-5.04,31.09,0,0,2.08-2.2,2.71-3.71Z" style="fill:url(#h); mix-blend-mode:multiply; stroke-width:0px;"/>
      <path d="M15.99,18.06s6.18-1.51,7.39-2.95l-2.59,7.02s-1.15-1.1-2-1.27c-.85-.17-4.25.81-4.25.81,0,0,.51-2.17,1.44-3.61Z" style="fill:#c4d9e0; mix-blend-mode:soft-light; stroke-width:0px;"/>
      <path d="M14.12,17.81s-1.73-.38-2.07-.54c0,0-1.98,1.37-3.06,3.09,0,0,2.07,1.05,3.25.86,0,0,1.31-2.68,1.88-3.41Z" style="fill:#c4d9e0; mix-blend-mode:soft-light; stroke-width:0px;"/>
      <path d="M22.03,22.28s1.62-.34,3.03-3.02c1.4-2.69,1.62-4.41,1.62-4.41h-1.88s-2.42,6.21-2.77,7.43Z" style="fill:#c4d9e0; mix-blend-mode:soft-light; stroke-width:0px;"/>
      <path d="M60.59,16.58s4.2,1.92,6.62,2.05c0,0,1.77,4.85,2.06,9.57,0,0-2.86-2.42-4.34-2.74s-2.63-.21-2.63-.21l-1.71-8.67Z" style="fill:#c4d9e0; mix-blend-mode:soft-light; stroke-width:0px;"/>
      <path d="M69.27,18.63s2.21,5.68,2.46,8.99c0,0,2.1-.61,2.25-1.53s-1.42-5.61-2.36-6.52c-.94-.91-2.36-.94-2.36-.94Z" style="fill:#c4d9e0; mix-blend-mode:soft-light; stroke-width:0px;"/>
    </g>
  </g>
</svg>