<?xml version="1.0" encoding="utf-8"?>
<svg viewBox="-0.0043 -0.0032 67.268 96.6232" xmlns="http://www.w3.org/2000/svg" xmlns:xlink="http://www.w3.org/1999/xlink">
  <defs>
    <linearGradient id="e" x1="16.18" y1="12.32" x2="46.26" y2="12.32" gradientUnits="userSpaceOnUse">
      <stop offset="0" style="stop-color: currentColor;"/>
      <stop offset="0.99" style="stop-color: rgb(178, 178, 178);"/>
    </linearGradient>
    <linearGradient id="f" x1="33.14" y1="8.25" x2="46.86" y2="8.25" xlink:href="#e"/>
    <linearGradient id="h" x1=".35" y1="42.16" x2="18.03" y2="42.16" xlink:href="#e"/>
    <linearGradient id="i" x1="7.62" y1="21.76" x2="27.97" y2="21.76" xlink:href="#e"/>
    <linearGradient id="j" x1="37.06" y1="37.98" x2="65.23" y2="37.98" xlink:href="#e"/>
  </defs>
  <g style="isolation:isolate;" transform="matrix(1, 0, 0, 1, 1.4210854715202004e-14, 0)">
    <g id="b">
      <g id="c">
        <path d="M45.93,4.36c-3.12-3.03-13.55-8.08-23.15,0-2.62,2.21-4.14,4.31-4.98,6.19l-.02.02-.13.32c-.4.98-.61,1.89-.69,2.73-.04.35-.05.68-.05.99.02,2.75,1.32,4.47,1.32,4.47l26.06-1.34s1.2-1.08,1.96-3.7c.17-.59.32-1.25.43-2.01.04-.32.02-.65-.07-.98.08-.2.16-.42.24-.65.58-1.74.92-4.24-.92-6.03ZM36.37,3.34s-.08-.04-.12-.05c-.04-.03-.09-.04-.12-.06,0,0,4.8-.5,8.09,2.11,1.79,1.42,2.13,3.4,2.08,4.91-1.78-3.19-8.56-6.31-9.92-6.9Z" style="stroke-width: 0px;"/>
        <path d="M46.26,14.03c-.76,2.62-1.96,3.7-1.96,3.7l-26.06,1.34s-1.31-1.71-1.32-4.47c1.47-1.89,5.3-5.63,12.6-5.7,9.16-.08,14.77,3.82,15.46,4.32-.7-.63-6.55-5.66-14.11-5.87-6.41-.19-11.91,4.38-13.9,6.26-.52.48-.79.78-.79.78l1.48-3.51.13-.32.02-.02c.31-.32,5.91-5.83,14.73-4.89,9.1.97,13.72,8.36,13.72,8.36Z" style="fill:url(#e); mix-blend-mode:multiply; stroke-width:0px;"/>
        <path d="M46.62,11.04c.09.33.12.66.07.98-.11.76-.26,1.42-.43,2.01-.6-4.6-8.13-9.76-9.9-10.69,1.37.6,8.15,3.71,9.92,6.9.05-1.51-.29-3.49-2.08-4.91-3.29-2.6-8.09-2.11-8.09-2.11-1.14-.46-2.99-.37-2.99-.37,0,0,6.23-1.23,10.06.68,3.83,1.89,3.1,6.73,3.1,6.73l.56.13c-.08.23-.16.44-.24.65Z" style="fill:url(#f); mix-blend-mode:multiply; stroke-width:0px;"/>
        <path d="M65.21,41.79s0,.02,0,.03c0,0,0,.02,0,.02,0,.04,0,.09-.02.15-.04,1.21-.19,2.55-.44,4-.4,2.27-1,4.22-1.69,5.87h0c-1.84,4.46-4.21,6.73-4.42,6.91.05-.18,1.76-5.76-1.38-13.68-3.19-8.06-5.98-13.39-13.98-17.17-1.4-.67-3.95-.59-6.24-.38h0c-1.79.15-3.42.38-4.22.38-.9,0-2.83-.28-4.86-.44-2.11-.15-4.33-.17-5.61.44-.74.35-1.42.7-2.07,1.08-.82.47-1.57.96-2.27,1.47-4.83,3.55-7.11,8.23-9.64,14.62-3.14,7.93-1.43,13.51-1.38,13.68-.24-.22-3.58-3.41-5.41-9.76h0s0-.02,0-.02h0v-.03c-.28-.92-.51-1.92-.69-2.99-.35-1.97-.47-3.73-.47-5.26v-.04c0-2.74.45-4.76.87-6.06,0-.02,0-.04,0-.04.12-.36.23-.67.33-.91.17-.42.3-.67.35-.75l.02-.04s.24-4.24,2.89-7.04l.3-.3c.38-.36.81-.69,1.28-.99.35-.21.74-.44,1.16-.66l.48-.26c1.25-.67,2.74-1.37,4.26-2.05l1.11-.5h0c3.73-1.65,7.41-3.11,8.3-3.47.21-.09.42-.21.63-.39.91-.7,1.84-2.02,3.04-2.84,0,0,.02,0,.02,0,.51-.35,1.07-.6,1.69-.69,2.43-.34,5.68,1.77,5.68,1.77,0,0,2.51.08,4.94.42,1.87.26,3.57.78,4.95,1.3l.06.03c.4.14.76.28,1.1.43.12.04.26.08.42.1,1.96.25,7.11-1.19,9.78,2.4l.56.75c1,1.34,1.98,2.65,2.9,3.87l1.81,2.42c1.31,1.73,2.4,3.18,3.16,4.19l1.15,1.53s.73,1.24,1.18,3.67c0,.03.02.05.02.07l.12.77c.19,1.22.28,2.67.22,4.37Z" style="stroke-width: 0px;"/>
        <path d="M18.03,30.47c-4.83,3.55-7.11,8.23-9.64,14.62-3.14,7.93-1.43,13.51-1.38,13.68-.24-.22-3.58-3.41-5.41-9.76v-.02s0-.03,0-.03c0,0,0,0,0,.03.1.26,1,2.6,2.57,2.01,1.67-.63,5.46-9.74,5.46-9.74,0,0-3.62,3.45-6.23,2.91-1.65-.34-2.54-2.17-2.97-3.46-.03-.08-.05-.16-.07-.23.03.06.05.13.07.2.48,1.19,1.55,2.75,3.93,2.68,3.68-.12,6.55-4.79,6.7-5.05-.23.15-4.71,3.13-7.74,1.85-2.96-1.25-2.11-5.14-2.02-5.54-.05.46-.52,4.77,2.77,5.04,3.34.28,8.57-4.13,8.98-4.5-.36.19-4.8,2.39-7.98,1.88-3.32-.53-3.44-3.37-3.44-3.37l.35-.75.02-.04s-.37,3.17,3.28,3.32c3.65.15,7.46-1.48,7.46-1.48-3.06,0-6.48-1.08-7.38-3.58-.9-2.5-.47-5.3-.47-5.3l.3-.3s1.35,6.1,5.54,6.83c2.46.44,5.35-.83,7.3-1.93Z" style="fill:url(#h); mix-blend-mode:multiply; stroke-width:0px;"/>
        <path d="M27.97,27.48c-2.11-.15-4.33-.17-5.61.44-.74.35-1.42.7-2.07,1.08-.38.04-6.72.55-9.6-.85-2.97-1.46-3.07-4.22-3.07-4.22l.48-.26s-.36,3.67,3.91,4.3c4.26.63,9.12-.68,9.12-.68,0,0-4.49-.05-6.79-1.2-2.3-1.16-1.98-4.48-1.98-4.48l1.11-.5c-.12.2-1.88,3.01,1.21,4.69,3.2,1.74,11.44.56,11.44.56-2.64-4.54-3.71-9.11-3.71-9.11,1.67-2.11,2.9-2.77,3.04-2.84,0,0,.02,0,.02,0-2.45,4.66,2.3,12.75,2.51,13.08Z" style="fill:url(#i); mix-blend-mode:multiply; stroke-width:0px;"/>
        <path d="M65.23,41.74s0,.04-.02.09c0,.04,0,.09-.02.15-.19,1.04-1.08,4.97-3.76,2.83-2.97-2.37-5.76-5.94-5.93-6.16,1.73,3.72,2.96,9,2.96,9,1.34,3.61,3.6,4.15,4.59,4.2-1.84,4.46-4.21,6.73-4.42,6.91.05-.18,1.76-5.76-1.38-13.68-3.19-8.06-5.98-13.39-13.98-17.17-1.4-.67-3.95-.59-6.24-.38,5.81-4.56,5.66-10.34,5.66-10.34l.06.03,1.52.52h0c.68,8.83-4.59,8.85-4.59,8.85,0,0,2.4.47,6.31-1.17,3.92-1.64,8.07-5.27,8.07-5.27l.56.75c-.6,3.98-8.37,7.32-8.37,7.32l3.83,1.24c8.17-1.16,7.44-4.69,7.44-4.69l1.81,2.42c-1.26,2.4-8.48,3.74-8.48,3.74,9.07,3.54,11.64.45,11.64.45l1.15,1.53c-3.48,1.31-11.93.04-11.93.04,7.84,4.3,12.86,3.66,13.11,3.63h0v.07s.13.77.13.77c-4.12,2-12.54-3.59-12.54-3.59,0,0,5.35,8.89,8.72,9.54,2.99.6,3.87-1.16,4.03-1.55,0,0,0-.02,0-.03,0-.03.02-.04.02-.04Z" style="fill:url(#j); mix-blend-mode:multiply; stroke-width:0px;"/>
        <path d="M43.9,28.21s10.96-5.39,10.74-10.49c-.22-5.11-9.92-3.54-11.92-.53l1.17.45s.73-3.57,6.23-2.22c5.5,1.35-7.8,12.18-7.8,12.18l1.58.61Z" style="stroke-width: 0px; fill: fillColor; mix-blend-mode: multiply;"/>
        <path d="M13.78,33.62s-4.38-1.22-6.4-7.28,9.91-6.87,9.91-6.87l.95-.39s-9.57-1.2-12.15,3.75c-2.58,4.95-.33,12.08,7.6,11.91l2.21-2.49-2.13,1.37Z" style="stroke-width: 0px; fill: fillColor; mix-blend-mode: multiply;"/>
        <path d="M50.88,33.42s8.61,5,13.49,4.16c2.87-.49,2.29-3.21-.7-4.69-1.36-.67-1.15-1.52-1.15-1.52,0,0,3.84,2.09,4.69,5.61.84,3.52-8.33,2.61-16.32-3.56Z" style="stroke-width: 0px; fill: fillColor; mix-blend-mode: multiply;"/>
        <path d="M53.84,37.59s.98,1.48,2.49,5.27c1.51,3.8,3.8,8.81,5.93,9.15s5.31-3.26,2.97-9.68c0,0-.24,1.48-.26,2.24-.04,1.61,1.58,5.08-.53,5.39-2.33.34-3.04-8.22-10.61-12.37Z" style="stroke-width: 0px; fill: fillColor; mix-blend-mode: multiply;"/>
        <path d="M11.3,38.53s-6.11,2.89-8.93.74c-2.82-2.15.27-9.48.27-9.48,0,0-3.47,5.31-2.46,10.32,1.01,5.01,6.87,4.1,11.12-1.57Z" style="stroke-width: 0px; fill: fillColor; mix-blend-mode: multiply;"/>
        <path d="M58.65,58.76s-.92,5.36,1.15,18.38c2.07,13.02-5.96,19.48-5.96,19.48,0,0,7.75-4.61,8.37-13.81.62-9.2-5.05-11.45-2.91-24.73l-.65.68Z" style="stroke-width: 0px; fill: fillColor;"/>
        <path d="M5.86,57.32s2.33,6.3.85,18.85c-1.63,13.82,4.95,18.85,4.95,18.85,0,0-5.45-11.2-4.61-19.89s.47-12.47-.03-16.37l-1.15-1.45Z" style="stroke-width: 0px; fill: fillColor;"/>
        <path d="M32.54,5.67s1.23-.56,3.58-.77c2.35-.21,5.74,2.86,5.74,2.86l.27,1.89s-4.61-4.12-9.59-3.98Z" style="fill:#ffd9bb; mix-blend-mode:soft-light; stroke-width:0px;"/>
        <path d="M36.13,2.5s2.43-1.39,4.7-.92c2.27.48,2.65,2.09,2.65,2.09,0,0-2.6-1.66-7.36-1.17Z" style="fill:#ffd9bb; mix-blend-mode:soft-light; stroke-width:0px;"/>
        <path d="M48.35,21.93s2.35.55,3.71-.18,3-4.09,2.02-5.36c0,0-.99.25-2.19,0,0,0-.9,3.56-3.54,5.53Z" style="fill:#ffd9bb; mix-blend-mode:soft-light; stroke-width:0px;"/>
        <path d="M13.14,21.76s.44,1.6,3.55,3.2,5.39,1.76,5.39,1.76c0,0-9.3.23-8.94-4.96Z" style="fill:#ffd9bb; mix-blend-mode:soft-light; stroke-width:0px;"/>
      </g>
    </g>
  </g>
</svg>