<?xml version="1.0" encoding="utf-8"?>
<svg viewBox="113.4308 92.4679 242.7485 207.9795" width="242.7485" height="207.9795" xmlns="http://www.w3.org/2000/svg">
  <defs>
    <linearGradient id="c" x1="29.63" y1="13.92" x2="29.63" y2="10.62" gradientUnits="userSpaceOnUse">
      <stop offset="0" stop-color="#111"/>
      <stop offset="1" stop-color="#222"/>
    </linearGradient>
    <linearGradient id="g" x1="0" y1="29.59" x2="5.95" y2="29.59" gradientUnits="userSpaceOnUse">
      <stop offset="0" style="stop-color: rgb(255, 255, 255);"/>
      <stop offset="0.99" style="stop-color: currentColor;"/>
    </linearGradient>
    <linearGradient id="h" x1="31.11" y1="30.71" x2="31.11" y2="12.82" gradientUnits="userSpaceOnUse">
      <stop offset="0" style="stop-color: currentColor;"/>
      <stop offset="1" style="stop-color: rgb(255, 255, 255);"/>
    </linearGradient>
  </defs>
  <g style="isolation: isolate;" transform="matrix(4.0604729652404785, 0, 0, 4.0604729652404785, 113.41332244873047, 92.46995544433595)">
    <g id="a">
      <path d="M23.92,12.82s-5.88-3.2-7.28-5.69c-1.4-2.49,2.1-5.61,2.1-5.61,0,0-1.53,1.72-1.53,3.19C17.22,4.72,23.05.06,29.63,0c6.58-.06,11.61,5.29,11.61,5.29,0,0-.38,3.7-6.18,7.33l-11.14.2Z" style="stroke-width: 0px;"/>
      <path d="M21.35,13.73s4.67-3.12,8.05-3.12,8.5,3.3,8.5,3.3l-16.55-.18Z" style="fill:url(#c); stroke-width:0px;"/>
      <path d="M.95,51.22s1.29-3.48,2.91-7.81,1.33-16.45,1.33-16.45c0,0-3.47,2.32-4.52,4.16-1.05,1.84.29,20.1.29,20.1Z" style="stroke-width: 0px;"/>
      <path d="M59.05,51.22s-1.29-3.48-2.91-7.81-1.33-16.45-1.33-16.45c0,0,3.47,2.32,4.52,4.16,1.05,1.84-.29,20.1-.29,20.1Z" style="stroke-width: 0px;"/>
      <path d="M59.07,30.71s-.56-.42-5.02-1.76c-4.46-1.34-8.41-3.52-8.41-3.52H14.09s-3.85,1.87-7.1,3.16h0c-.35.14-.7.28-1.04.4-.77.28-1.48.52-2.04.66-2.97.74-3.61,2.06-3.65,2.14-.03-.1-.56-2.67,0-4.14.01-.04.04-.09.07-.14.27-.44,1.06-1.14,2.1-1.94l.21-.16c.95-.72,2.07-1.51,3.15-2.25,1.99-1.36,3.85-2.54,4.3-2.82l.11-.07s-.38-.27,1.02-1.56c.16-.15.43-.35.8-.59.29-.2.65-.41,1.06-.64h.02c1.63-.95,4.08-2.17,6.76-3.2.15-.06.3-.11.45-.17l.11-.04c1.04-.39,2.11-.75,3.17-1.05,0,0,0,0,0,0l.47-.13c.07-.02.13-.04.2-.05,1.78-.47,3.52-.77,5.06-.77s3.38.3,5.15.76h0s0,0,0,0c.01,0,.03,0,.05.01,5.36,1.41,10.63,4.33,11.29,4.95.89.83,1.21,1.91,1.21,1.91,0,0,2.03,1.19,3.7,2.22h0s.36.23.36.23c.86.54,1.56,1,1.73,1.16,0,0,1.49,1,3.09,2.11,1.78,1.23,3.7,2.6,3.82,2.85.23.48-.67,2.43-.67,2.43Z" style="stroke-width: 0px;"/>
      <path d="M5.95,28.99c-.77.28-1.48.52-2.04.66-2.97.74-3.61,2.06-3.65,2.14-.03-.1-.56-2.67,0-4.14.01-.04.04-.09.07-.14.16-.04.33-.07.51-.09,1.85-.2,5.11,1.57,5.11,1.57Z" style="fill:url(#g); mix-blend-mode:multiply; stroke-width:0px;"/>
      <path d="M59.07,30.71s-.56-.42-5.02-1.76c-4.46-1.34-8.41-3.52-8.41-3.52H14.09s-3.85,1.87-7.1,3.16h0c-1.57-1.96-4.55-3.01-4.55-3.01l.21-.16s2.68,1.15,3.97,1.23c1.29.07,2.26-.58,2.26-.58-1.46-.71-3.14-2.78-3.14-2.78l.07-.11s1.67,1.9,3.17,2.09c1.49.19,2.61-.48,2.61-.48-1.56-1.28-1.62-4.34-1.62-4.34l.14-.1.11-.07c.18,1.59,1.31,3.09,1.45,3.28-1.28-2.64.37-5.42.37-5.42l1.06-.64h.02s-2.19,2.73-1.09,5.45c1.1,2.72,11.64,1.26,11.64,1.26,0,0-5.16-.28-6.34-3.03-1.14-2.64,2.31-6.62,2.55-6.89,0,0,.01-.01.01-.01l.44-.16.11-.04c-2.53,2.13-3.97,6.34-1.16,8.06,2.8,1.72,6.91,1.59,6.91,1.59,0,0-4.24-2.2-4.72-4.39-.47-2.14,1.99-6.08,2.13-6.31,0,0,0,0,0,0l.47-.13.21-.06h0c-.15.2-2.89,3.65-2.23,6.33.68,2.76,5.74,4.29,9.05,4.89,3.31.59,7.69.38,7.69.38,0,0,1.83-3.4,1.14-6.63-.62-2.91-4.56-4.61-5.32-4.92.79.3,5.04,2.02,5.83,5.22.87,3.54-.98,6.71-.98,6.71,2.5.17,7.86-.42,7.86-.42.36-1.86-.22-4.41-.27-4.65.78,2.15,1.08,5.57,1.08,5.57.64.44,3.08,1.45,3.08,1.45.61-3.77-.36-4.73-.46-4.81l.36.22c1.12,2.58.63,5.25.63,5.25,2.17.69,4.67.46,4.67.46.19-1.02-.48-2.44-.48-2.44,1.78,1.23,3.7,2.6,3.82,2.85.23.48-.67,2.43-.67,2.43Z" style="fill:url(#h); mix-blend-mode:multiply; stroke-width:0px;"/>
      <path d="M33.03,11.44s1.52-8.94,4.07-10.59c0,0,3.06.96,4.14,3.12,1.08,2.17-.96,3.71-.96,3.71,0,0,1.56-1.45.96-3.05-.3-.81-1.55-.68-1.55-.68,0,0-4.72,4.38-6.27,7.65l-.39-.16Z" style="stroke-width: 0px; mix-blend-mode: multiply;"/>
      <path d="M24.76,11.87s-1.25-4.9-3.41-10.57c0,0-1.9.51-2.46.96-.55.45-.58,1.68-.58,1.68,0,0,.22-1.09.77-1.17s5.25,9.31,5.25,9.31l.42-.2Z" style="stroke-width: 0px; mix-blend-mode: multiply;"/>
      <path d="M37.91,13.92s8.52,1.29,12.05,3.88c2.47,1.81-.74,9.17-.74,9.17l-1.11-.32s2.09-5.38.46-7.83c-1.06-1.59-4.38-3.92-8.29-3.7l-2.35-1.2Z" style="stroke-width: 0px; mix-blend-mode: multiply;"/>
      <path d="M12.38,26.23s-4.91-3.47-5.23-5.79c-.32-2.33,4.08-1.73,4.08-1.73l.47-.36s-5.28-.71-6.49,1.87c-1.21,2.58,6.2,6.47,6.2,6.47l.97-.45Z" style="stroke-width: 0px; mix-blend-mode: multiply;"/>
      <path d="M15.34,25.42s-3.54-7.14-1.24-9.62c2.29-2.49,7.26-2.07,7.26-2.07,0,0-5.09.08-6.56,2.92-1.47,2.84,2.1,8.77,2.1,8.77h-1.56Z" style="stroke-width: 0px; mix-blend-mode: multiply;"/>
      <path d="M23.17,14.46s-.9,1.59-1.18,3.05c0,0,.2-.53.59-.61s3.8.3,8.52.61c4.72.31,7.54-.67,8.06-.55.53.12.8,1.08.8,1.08,0,0-.14-1.63-1.55-2.76,0,0,.33.37.23.45-.11.09-5.93-.25-9.37-.04s-5.94-.6-6.12-.74c-.17-.14,0-.49,0-.49Z" style="fill:#c4d9e0; mix-blend-mode:soft-light; opacity:.5; stroke-width:0px;"/>
      <path d="M39.18,15.83s1.23,1.03,1.8,1.3c.57.28,3.58.64,3.93.45l.35-.19s1.21.75,1.54,1.73c0,0-1.31-.91-2.9-.95-1.59-.04-2.66.02-2.66.02,0,0-1.3-1.81-2.06-2.37Z" style="fill:#c4d9e0; mix-blend-mode:soft-light; opacity:.5; stroke-width:0px;"/>
      <path d="M20.63,18.04s.53-1.83,1.37-2.76c0,0-1.08.41-1.69.56-.61.15-1.18,0-1.18,0,0,0-1.07,1.21-1.33,2.67,0,0,2.03-.71,2.83-.46Z" style="fill:#c4d9e0; mix-blend-mode:soft-light; opacity:.5; stroke-width:0px;"/>
    </g>
  </g>
</svg>