<?xml version="1.0" encoding="utf-8"?>
<svg viewBox="128.3215 193.2489 209.2279 168.084" xmlns="http://www.w3.org/2000/svg">
  <path d="M63.19,12.16c-.02-.07-.05-.13-.07-.19-.05-.12-.1-.24-.15-.36-.03-.09-.07-.2-.11-.28-.02-.07-.05-.13-.08-.2h0s0-.03-.01-.04l-.02-.03c-.64-1.4-1.29-2.38-1.88-2.75-2.47-1.53-9.69-.93-9.69-.93,0,0,7.73-3.74,13.42-2.38,0,0-3.42-2.48-6.86-2.1-2.87.32-6.03,3.53-9.5,4.13-.68.11-1.37.13-2.07,0,0,0,0,0-.01,0-.39-.07-.85-.26-1.37-.54C41.63,4.8,36.46-.05,33.13,0c-3.89.07-9.05,2.89-18.07,5.64-2.7.83-4.99,2.15-6.91,3.89h0s0,0,0,.01c0,0-.01,0-.02.01h0s-.03.03-.05.05C3.63,13.7,1.18,20.07.18,27.77c-.52,3.95.13,8.3,1.17,12.26,1.44,5.46,3.63,10.18,4.57,12.07.26.52.42.83.45.89,0-.07-.09-.56-.21-1.3-.38-2.48-1.1-7.93-.72-11.19.13-1.06.47-2.08.98-3.07,0,0,0,0,0-.01,0-.01.01-.02.01-.03,1.56-3.01,4.57-5.78,7.24-9.03,1.14-1.38,2.66-3.21,4.48-5.08,5.58-.88,21.87-3.98,29.93-11.17,0,0,3.89,1.68,6.44,5.82,2.55,4.14,3.25,13.63,4.33,19.92,1.08,6.28,1.38,10.57,1.38,10.57,0,0,4.42-7.98,5.52-17.25.78-6.49-.75-14.35-2.58-19ZM33.13,14.48s0,0-.01,0c-.3.2-5.06,3.26-10.29,5.85-1.04.52-2.11,1.02-3.15,1.47,3.7-3.52,8.37-6.83,13.46-7.32Z" style="stroke-width: 0px;" transform="matrix(3.1719720363616943, 0, 0, 3.1719720363616943, 128.33103942871094, 193.25015258789062)"/>
  <path d="M8.15,9.55l-.03.03h0s.01-.03.02-.03Z" style="fill:#8c2f7e; mix-blend-mode:multiply; opacity:.6; stroke-width:0px;" transform="matrix(3.1719720363616943, 0, 0, 3.1719720363616943, 128.33103942871094, 193.25015258789062)"/>
  <path d="M7.7,20.16c-2.62,7.96-1.28,17.27-1.28,17.27-.5.99-.85,2-.98,3.07-.38,3.26.34,8.7.72,11.19l-.24.42c-.94-1.9-3.13-6.61-4.57-12.07-.21-2.58-.36-5.44-.41-8.53-.24-14.03,6.32-21.07,7.13-21.88.02-.02.04-.04.05-.04-.34.42-3.09,3.94-4.05,9.95-1.02,6.4,0,13.76,0,13.76.26-8.85,3.91-15.9,6.46-19.78-.85,1.51-1.85,3.66-2.83,6.65Z" style="mix-blend-mode: multiply; stroke-width: 0px;" transform="matrix(3.1719720363616943, 0, 0, 3.1719720363616943, 128.33103942871094, 193.25015258789062)"/>
  <path d="M62.76,11.13s-.03-.07-.03-.07l.02.03s.01.02.01.03Z" style="fill:#8c2f7e; mix-blend-mode:multiply; opacity:.6; stroke-width:0px;" transform="matrix(3.1719720363616943, 0, 0, 3.1719720363616943, 128.33103942871094, 193.25015258789062)"/>
  <path d="M62.85,11.33c.03.08.07.18.12.28-.04-.09-.08-.19-.12-.28Z" style="fill:#8c2f7e; mix-blend-mode:multiply; opacity:.6; stroke-width:0px;" transform="matrix(3.1719720363616943, 0, 0, 3.1719720363616943, 128.33103942871094, 193.25015258789062)"/>
  <path d="M65.77,31.16c-1.1,9.26-5.52,17.25-5.52,17.25,0,0-.3-4.29-1.38-10.57-1.08-6.28-1.78-15.77-4.33-19.92-2.55-4.14-6.44-5.82-6.44-5.82-8.06,7.2-24.36,10.29-29.93,11.17-1.82,1.87-3.34,3.7-4.48,5.08-2.68,3.25-5.68,6.02-7.24,9.03.36-.95,6.31-16.43,14.95-21.37,8.93-5.1,18.16-10.07,18.16-10.07,0,0-5.8-.63-10,.19-4.2.83-10.2,4.4-14.5,8.34-3.76,3.44-6.41,11.95-7.04,14.05.7-2.58,4.2-14.67,8.47-17.23,4.78-2.87,17.04-12.13,20.9-9.07,2.6,2.05,5.65,3.51,7.37,4.24.77.33,1.28.51,1.37.54,0,0,.01,0,.01,0h2.07s-.3,1.66-1.64,2.17c-1.34.5-13.45,5.28-13.45,5.28-5.09.49-9.76,3.8-13.46,7.32,1.05-.45,2.11-.95,3.15-1.47-.91.63-1.49,1.04-1.49,1.04,0,0,9.43-.7,14.97-2.99,5.55-2.29,11.47-7.96,11.47-7.96,0,0,5.29,1.59,7.51,5.6,2.23,4.02,6.56,21.79,6.56,21.79,0,0,2.17-17.46-3.31-23.76-2.96-3.41-8.16-5.06-8.85-5.21.81.1,8.12,1.16,10.12,5.09,2.13,4.16,4.76,20.47,4.76,20.47,2.38-10.91-.41-19.66-1.47-22.43,1.87,4.63,3.45,12.61,2.66,19.2Z" style="mix-blend-mode: multiply; stroke-width: 0px;" transform="matrix(3.1719720363616943, 0, 0, 3.1719720363616943, 128.33103942871094, 193.25015258789062)"/>
  <path d="M7.78,34.2s3.04-9.07,6.42-14.74,7.65-7.85,7.65-7.85c0,0-8.7,9.74-14.07,22.59Z" style="mix-blend-mode: multiply; stroke-width: 0px;" transform="matrix(3.1719720363616943, 0, 0, 3.1719720363616943, 128.33103942871094, 193.25015258789062)"/>
  <path d="M54.13,13.62s1.61,2.42,2.68,5.06c0,0,.7-2.03,2.21-2.53,0,0-.52-1.44-2.01-3.59,0,0-1.6.68-2.87,1.06Z" style="fill:#c4d9e0; mix-blend-mode:soft-light; stroke-width:0px;" transform="matrix(3.1719720363616943, 0, 0, 3.1719720363616943, 128.33103942871094, 193.25015258789062)"/>
  <path d="M57.62,11.06s1.98,1.24,2.85,3.6c0,0,1.52-2.15,1.74-3.19s-1.38-2.95-1.38-2.95c0,0-1.93-.87-3.21,2.54Z" style="fill:#c4d9e0; mix-blend-mode:soft-light; stroke-width:0px;" transform="matrix(3.1719720363616943, 0, 0, 3.1719720363616943, 128.33103942871094, 193.25015258789062)"/>
  <path d="M21.85,15.62s1.53-2.08,2-3.06c.47-.98-2-2.64-2-2.64l2.76-1.5s1.84,1.44,1.79,2.64,1.57.96,1.57.96l-6.12,3.6Z" style="fill:#c4d9e0; mix-blend-mode:soft-light; stroke-width:0px;" transform="matrix(3.1719720363616943, 0, 0, 3.1719720363616943, 128.33103942871094, 193.25015258789062)"/>
  <path d="M21.3,8.2s-1.71-1.29-2.86-1.68-.59-1.77-.59-1.77l1.66-.56s.38,1.21,1.4,2.01c1.02.8,3.56,0,3.56,0l-3.17,2.01Z" style="fill:#c4d9e0; mix-blend-mode:soft-light; stroke-width:0px;" transform="matrix(3.1719720363616943, 0, 0, 3.1719720363616943, 128.33103942871094, 193.25015258789062)"/>
  <path d="M27.96,18.14s2.93,1.04,6.29.53c3.36-.51,4.8-2.08,4.8-2.08,0,0-4.77-.07-6.09-.98l-5,2.53Z" style="fill:#c4d9e0; mix-blend-mode:soft-light; stroke-width:0px;" transform="matrix(3.1719720363616943, 0, 0, 3.1719720363616943, 128.33103942871094, 193.25015258789062)"/>
</svg>