<?xml version="1.0" encoding="utf-8"?>
<svg viewBox="-0.01 0.0011 85.74 71.5189" xmlns="http://www.w3.org/2000/svg" xmlns:xlink="http://www.w3.org/1999/xlink">
  <defs>
    <linearGradient id="d" x1="1.61" y1="72.81" x2="3.83" y2="33.26" gradientUnits="userSpaceOnUse">
      <stop offset="0" style="stop-color: currentColor;"/>
      <stop offset="0.99" stop-color="#707380"/>
    </linearGradient>
    <linearGradient id="e" x1="-283.39" y1="72.81" x2="-281.17" y2="33.26" gradientTransform="translate(-200.41) rotate(-180) scale(1 -1)" xlink:href="#d"/>
    <linearGradient id="g" x1="42.14" y1="46.48" x2="42.38" y2="6.94" gradientUnits="userSpaceOnUse">
      <stop offset="0" style="stop-color: currentColor;"/>
      <stop offset="0.99" style="stop-color: rgb(222, 222, 222);"/>
    </linearGradient>
  </defs>
  <g style="isolation:isolate;">
    <g id="b">
      <g id="c">
        <path d="M2.33,71.52s1.94-9.03,3.15-18.87,1.62-19.57,1.62-19.57c0,0-5.71,4.33-7.11,10.05l2.33,28.39Z" style="fill: url('#d'); mix-blend-mode: multiply; opacity: 0.6; stroke-width: 0px;"/>
        <path d="M82.26,71.52s-1.94-9.03-3.15-18.87-1.62-19.57-1.62-19.57c0,0,5.71,4.33,7.11,10.05l-2.33,28.39Z" style="fill:url(#e); mix-blend-mode:multiply; opacity:.6; stroke-width:0px;"/>
        <path d="M83.99,24.74c.67,8.12.3,22.92.3,22.92,0,0-7.71-22.32-19.27-24.42-11.56-2.1-14.2,2.62-23.09,2.62s-10.72-4.72-22.28-2.62C8.08,25.35.21,45.88.21,45.88c0,0-.12-5.06-.06-10.8-.1.28-.14.44-.14.44,0,0-.08-4.23.43-9.76.15-2.44.38-4.5.71-5.73.15-.94.32-1.9.51-2.84.94-4.66,2.4-9.26,4.69-12.52l.6,4.09s-1.47,1.96-2.38,4.48c.21-.18,13.85-11.82,32.99-13.22,0,0,4.78.48,7.88,1.67,0,0,0,0,0,0-.18.07-3.19,1.33-7.07,4.58.02-.02.17-.11.45-.26,1.5-.81,6.71-3.27,16.19-4.33,0,0,2.72.28,7.23,2.84,0,0-3.73,2.9-7.84,7.45,0,0,3.64-3.27,13.12-5.7,0,0,8.99,1.37,18.21,14.15-.06-.02-1.12-.36-2.86-.86.05.06.1.12.15.18.46.58.77,2.46.98,4.99Z" style="stroke-width: 0px;"/>
        <path d="M83.99,24.74l-.98-4.99c-5.48,1.87-3.72,13.7-3.72,13.7-2.66-5.83-8.89-10.76-13.42-12.43h.01c4.94-2.89,8.48-2.75,8.48-2.75-4.29-.87-12.13,2.19-12.13,2.19-4.89.51-18.66,4.68-18.66,4.68,7.98-11.08,13.53-16.02,15.6-17.99-11.55,7.33-17.87,17.68-17.87,17.68-6.7-.24-14.26-5.09-14.26-5.09,3.6-6.36,8.12-10.83,11.77-13.74,3.64-2.9,6.43-4.23,6.62-4.32,0,0,0,0,0,0-17.49,4.13-25.01,19.85-25.01,19.85-5.97,0-13.67,3.14-13.67,3.14-3.7-1.71-4.74-5.8-5.09-7.49-.19.95-.36,1.9-.51,2.84-.33,1.23-.55,3.29-.71,5.73C-.07,31.29,0,35.51,0,35.51c0,0,.05-.16.14-.44-.05,5.74.06,10.8.06,10.8,0,0,7.88-20.53,19.44-22.64,11.56-2.1,13.39,2.62,22.28,2.62s11.53-4.72,23.09-2.62c11.56,2.1,19.27,24.42,19.27,24.42,0,0,.38-14.81-.3-22.92Z" style="fill:url(#g); mix-blend-mode:multiply; stroke-width:0px;"/>
        <path d="M55,1.69s-10.66,4.15-22.21,19.34c0,0,1.43,1.5,7.27,2.81,0,0,9.92-14.45,22.17-19.31,0,0-4.32-2.36-7.23-2.84Z" style="opacity: 0.8; stroke-width: 0px; mix-blend-mode: screen;"/>
        <path d="M37.55.02s-15.72,2.67-28.35,19.56c0,0,5.12,1.88,10.01.93,0,0,6.73-14.95,25.46-19.09,0,0-4.88-1.61-7.12-1.4Z" style="opacity: 0.8; stroke-width: 0px; mix-blend-mode: screen;"/>
        <path d="M68.29,6.45s-10.73,2.26-21.93,16.44c0,0,5.82-3.17,12.39-3.31,0,0,7.43-9.18,17.23-9.19,0,0-4.23-2.86-7.69-3.94Z" style="opacity: 0.8; stroke-width: 0px; mix-blend-mode: screen;"/>
      </g>
    </g>
  </g>
</svg>