<?xml version="1.0" encoding="UTF-8"?><svg xmlns="http://www.w3.org/2000/svg" xmlns:xlink="http://www.w3.org/1999/xlink" viewBox="0 0 286.59 248.48"><defs><linearGradient id="d" x1="143.29" y1="248.48" x2="143.29" y2="0" gradientUnits="userSpaceOnUse"><stop offset="0" stop-color="#471f4b"/><stop offset="1" stop-color="#310a39"/></linearGradient><linearGradient id="e" x1="222.84" y1="196.18" x2="222.84" y2="21.43" gradientUnits="userSpaceOnUse"><stop offset="0" stop-color="#7a305e"/><stop offset="1" stop-color="#44183d"/></linearGradient><linearGradient id="f" x1="111.54" y1="248.48" x2="111.54" y2="22.13" xlink:href="#e"/><linearGradient id="g" x1="98.33" y1="149.01" x2="98.33" y2="24.19" xlink:href="#e"/><linearGradient id="h" x1="54.44" y1="38.73" x2="166.65" y2="38.73" xlink:href="#e"/><linearGradient id="i" x1="200.9" y1="12.1" x2="200.9" y2="22.13" xlink:href="#e"/><linearGradient id="j" x1="273.93" y1="148.09" x2="273.93" y2="147.65" gradientUnits="userSpaceOnUse"><stop offset=".01" stop-color="#be6888"/><stop offset="1" stop-color="#8e81f4"/></linearGradient></defs><g style="isolation:isolate;"><g id="b"><g id="c"><path d="M272.63,126.23s-5.94.39-12.29,13.93c-2.17,6.4-4.5,16.41-5.69,25.07-3.53,25.68-.39,30.38.12,30.95-25.91-22.21-1.39-42,1.87-56.78.21-.97.42-1.94.63-2.91,2-9.32,4.26-22.8,5.04-29.42.08-.96.15-1.95.22-2.93,0-2.55-.07-5.19-.23-7.94-9.33-13.97-23.66-30.01-30.88-35.53-26.96-20.63-44.95-30.47-55.04-34.98h-.01c-2.11-.95-3.85-1.65-5.25-2.17-2.86-.85-4.47-1.38-4.47-1.38l.02.05v.02s.01.09.01.09l.02.13c.05.28.13.76.22,1.42l.05.34v.13c.78,6.13,1.83,23.96-8.46,41.75-12.67,21.9-77.17,81.72-78.3,103.85-3.11,60.57,58.4,78.57,58.4,78.57-30.59-3.37-54.12-16.7-64.41-23.5l-.08-.04c-2.83-1.87-4.58-3.2-5.14-3.64l-.2-.15c.38,9.98,23.77,18.56,23.77,18.56-82.14-2.4-50.6-57.13-50.6-57.13-26.2.26-41.95-16.85-41.95-16.85,0,0,13.11,1.89,38.18-7.21,5.72-2.08,10.84-4.47,14.79-7.23.98-.68,1.81-1.43,2.49-2.27,4.34-5.15,3.34-13.07-.03-22.13h0c-1.5-4.03-3.46-8.28-5.64-12.62-3.42-6.8-7.11-23.96-10.65-30.74-2.81-5.4-5.33-10.55-7.07-15.13h0c-1.92-5.04-2.88-9.35-2.22-12.49,2.77-13.33,64.76-35.56,108.65-53.65,14.16-5.82,27.94.56,33.77,9.57,0,0,66.96-.52,99.23,12.41,11.58,4.64,15.17,18.46,15.09,34.08v.04c-.15,26.87-13.33,66.65-13.95,67.9Z" style="fill:url(#d); stroke-width:0px;"/><path d="M267.61,128.58c-9.21,10.21-11.76,27.98-12.95,36.64-3.53,25.68-.39,30.38.12,30.95-25.91-22.21-1.39-42,1.87-56.78,2.3-10.38,4.81-25.02,5.67-32.33.08-.96.15-1.95.22-2.93,0-2.55-.07-5.19-.23-7.94-1.58-25.37-4.85-37.28-8.74-40.78-23.66-21.38-51.17-27.36-77.19-29.74h-.01c-2.11-.95-3.85-1.65-5.25-2.17-2.86-.85-4.47-1.38-4.47-1.38,0,0,66.16-8.13,103.31,30.94,13.85,14.57,10.86,54.67-2.35,75.52Z" style="fill:url(#e); stroke-width:0px;"/><path d="M158.5,66.06c-12.67,21.9-77.17,81.72-78.3,103.85-3.11,60.57,58.4,78.57,58.4,78.57-30.59-3.37-54.12-16.7-64.41-23.5l-.08-.04-5.14-3.64-.2-.15s-16.37-17.09-12.55-43.07c3.91-26.53,13.48-63.86,67.58-91.43,34.03-17.34,42.85-64.51,42.85-64.51l.02.05v.02s.01.09.01.09l.02.13.22,1.42.05.34v.13c.78,6.13,1.83,23.96-8.46,41.75Z" style="fill:url(#f); stroke-width:0px;"/><path d="M55.46,149.01c4.34-5.15,3.34-13.07-.03-22.13l-7.99-17.18c-16.94-27.17-17.76-50.64-17.76-50.64,10.44,26.33,68.27,14.85,93.37.97,25.59-14.15,43.52-34.88,43.92-35.84-.52,1.63-5.8,36.77-55.4,50.26-19.63,5.34-34.86,23.44-56.1,74.56Z" style="fill:url(#g); stroke-width:0px;"/><path d="M110.32,93.88s15.87,6.75,26.05-.03c-22.11,23.7-52.67,56.41-56.16,76.06-2.38-5.9-14.75-13.93-20.63-8,0,0-6.87,19.02-3.33,31.83,0,0-4.14-14.09-1.87-30.32,0,0-3.59-3.15-16.2-4.91,5.72-2.08,10.84-4.47,14.79-7.23.98-.68,1.81-1.43,2.49-2.27,4.34-5.15,3.34-13.07-.03-22.13h0c-1.5-4.03-3.46-8.28-5.64-12.62-3.42-6.8-9.94-18.61-12.9-25.55-4.2-9.87-5.87-19.81-6.12-21.17l1.29.83c34.61,18.97,79.49,6.08,79.49,6.08,0,0,36.71-10.01,49.57-34.83,0,0-10.11,37.34-50.82,54.26Z" style="fill:#ce77b5; mix-blend-mode:multiply; opacity:.9; stroke-width:0px;"/><path d="M272.63,126.23s-3.45-.23-9.43,8.65c-.29-.63-3.04,2.88-5.22-1.75.08-.93,4.48-28.02,4.55-29,0-2.55-.07-5.19-.23-7.94-9.33-13.97-23.66-30.01-30.88-35.53-26.96-20.63-44.95-30.47-55.04-34.98,57.57,6.05,78.94,32,78.94,32,0,0,29.95,17.51,31.26.65-.14,26.87-13.33,66.65-13.95,67.9Z" style="fill:#ce77b5; mix-blend-mode:multiply; opacity:.9; stroke-width:0px;"/><path d="M166.65,22.13s-62.57,35.53-90.87,20.64c-13.22-6.96,10.42-19.37,10.42-19.37,0,0-18.58,7.49-28.86,12.78,0,0-10.02,8.45,7.18,15.74,30.83,13.06,89.11-14.72,102.13-29.8Z" style="fill:url(#h); stroke-width:0px;"/><path d="M166.65,22.13s39.09-8.46,68.5-6.41c0,0-23.89-3.59-45.74-3.62,0,0-16.62,4.55-22.76,10.03Z" style="fill:url(#i); stroke-width:0px;"/><path d="M91.21,21.34c-11.4,25.97.84,28.82,25.67,28.09,23.6-.69,28,8.62,28,8.62l6.92-5.96s-1.11-13-44.79-4.09c-25.35,5.17.99-33.46.99-33.46l-16.79,6.8Z" style="fill:#c4d9e0; mix-blend-mode:soft-light; stroke-width:0px;"/><path d="M276.32,27.01c8.88,41.6-29.39,22.77-29.39,22.77l6.64,5.64s28.72.46,31.82-11.35c0,0-.24-3.14-3.2-9.75-1.82-4.05-5.87-7.3-5.87-7.3Z" style="fill:#c4d9e0; mix-blend-mode:soft-light; stroke-width:0px;"/><polygon points="151.93 59.43 160.64 62.04 163.87 54.95 155.71 52.57 151.93 59.43" style="fill:#c4d9e0; mix-blend-mode:soft-light; stroke-width:0px;"/><path d="M56.25,193.74c17.31,3.73,29.26,8.18,29.26,8.18l4.17,8.41s-9.59-11.44-31.87-9.53l-1.56-7.05Z" style="fill:#c4d9e0; mix-blend-mode:soft-light; stroke-width:0px;"/><path d="M253.84,171.85c-2.65,2.48-10.47.23-10.47.23l-.16,4.86s5.96-5.71,9.97-.28l.66-4.81Z" style="fill:#c4d9e0; mix-blend-mode:soft-light; stroke-width:0px;"/><path d="M273.78,147.65c.12.13.29.24.29.44l-.29-.44Z" style="fill:url(#j); mix-blend-mode:multiply; opacity:.93; stroke-width:0px;"/></g></g></g></svg>