<?xml version="1.0" encoding="utf-8"?>
<svg viewBox="0 0 83.05 90.37" xmlns="http://www.w3.org/2000/svg">
  <g style="isolation:isolate;">
    <g id="b">
      <g id="c">
        <path d="M43.79,3.29l-1.78,1.39s-.34.09-.86.5c-.06.04-.12.09-.2.14-1.14.94-2.99,3.2-4.39,8.45-2.19,8.19-.56,17.73-.56,17.73,0,0-2.13-3.36-2.64-5.61,0,0,.16,2.67.83,5.56,0,0,0-.03-.02-.04-.41-.81-3.62-7.59-3.09-15.47h0c.18-2.66.78-5.42,2.06-8.13,0-.02.02-.04.03-.06.04-.07.07-.14.12-.21.03-.08.05-.13.06-.16,0,0-.04.03-.06.06h0c-.82.92-6.53,8.09-1.83,22.67t0,.02h-1.84l-.39.46-2.36,2.07s-6.24-2.52-4.45-16.77c0-.03,0-.05,0-.08-.19.56-2.51,7.95.57,18.09l-1.01-1.29-.22,2.75-1.12-1.34s-.35,14.58.6,27.36c1.36,18.01,5.46,27.45,5.46,27.45,0,0-4.26-.38-6.01-3.63,0,0,.95,3.52,2.58,4.26,0,0-3.26,2.49-9.95-.74,0,0-.04-.02-.05-.04-1.4-.68-2.97-1.61-4.67-2.87l-.02.03c-.21.25-2.13,2.35-6.88,2.11-.53-.03-1.09-.09-1.7-.18.19,0,1.56-.06,2.08-1.87.54-1.94-1.73-7.45-.04-18.3,1.68-10.86,5.47-26.68,7.32-35.52,1.85-8.84,4.69-20.54,10.72-25.59,6.03-5.05,13.11-3.71,13.95-4.12.84-.43,5.27-2.52,6.42-2.36.28.04.64.28,1.01.61l.06.04h0c1.08.95,2.27,2.62,2.27,2.62Z" style="stroke-width: 0px; fill: fillColor;"/>
        <path d="M 80.906 85.91 C 80.666 85.06 80.966 83.52 81.246 81.13 C 81.596 78.08 81.896 73.68 80.956 67.61 C 79.266 56.75 75.486 40.93 73.626 32.09 C 71.776 23.25 68.946 11.55 62.906 6.5 C 56.876 1.45 49.796 2.79 48.966 2.38 C 48.126 1.95 43.696 -0.14 42.546 0.02 C 42.236 0.06 41.866 0.31 41.466 0.68 C 40.386 1.64 39.206 3.3 39.206 3.3 L 40.986 4.69 L 41.106 5.19 L 46.986 31.52 C 46.986 31.52 52.216 27.25 51.536 30.16 L 53.386 30.16 L 53.766 30.62 L 57.056 31.2 C 57.056 31.2 63.286 28.05 60.586 15.84 C 60.776 16.4 63.096 23.79 60.016 33.93 L 61.016 32.64 L 61.246 35.39 L 62.366 34.05 C 62.366 34.05 62.716 48.63 61.756 61.41 C 60.406 79.42 56.306 88.86 56.306 88.86 C 56.306 88.86 60.566 88.48 62.316 85.23 C 62.316 85.23 61.356 88.75 59.726 89.49 C 59.726 89.49 64.516 93.14 74.416 85.85 C 74.416 85.85 76.676 88.76 82.996 87.81 C 82.806 87.81 81.436 87.75 80.926 85.94 L 80.906 85.91 Z M 53.036 24.53 C 53.666 20.28 53.476 14.05 49.606 7.36 C 49.896 7.57 55.586 11.97 53.036 24.53 Z" style="stroke-width: 0px; fill: fillColor;"/>
        <path d="M41.53.67l-.49,4.01-.08.64c-1.14.94-2.99,3.2-4.39,8.45-2.19,8.19-.56,17.73-.56,17.73,0,0-2.13-3.36-2.64-5.61,0,0,.16,2.67.83,5.56,0,0,0-.03-.02-.04-4.08-10.15-2.68-18.21-1.59-21.89.05-.2.12-.37.17-.55.03-.09.05-.18.09-.26.05-.17.11-.33.16-.48.12-.31.22-.55.28-.69.03-.08.05-.13.06-.16.02-.02.02-.03.02-.03-2.91,10.04,1.49,17.99,1.49,17.99C32.08,14.15,40.44,0,40.44,0l1.01.61.06.04h0Z" style="fill:#d177b8; mix-blend-mode:multiply; opacity:.6; stroke-width:0px;"/>
        <path d="M31.09,15.94c.18-2.65.78-5.41,2.06-8.12-.09.26-.2.56-.3.9-.04.08-.06.17-.09.26-.53,1.64-1.21,4.08-1.67,6.97Z" style="fill:#d177b8; mix-blend-mode:multiply; opacity:.9; stroke-width:0px;"/>
        <path d="M34.7,3.17l-1.1,3.49s-.12.28-.3.78h0c-.82.92-6.53,8.09-1.83,22.67-.2-.28-3.41-4.91-3.41-12.01s6.65-14.94,6.65-14.94Z" style="fill:#d177b8; mix-blend-mode:multiply; opacity:.9; stroke-width:0px;"/>
        <path d="M22.99,33.9c-5.64-11.3-.56-18.13-.56-18.13,0,0,0,.03,0,.04-.19.56-2.51,7.95.57,18.09Z" style="fill:#d177b8; mix-blend-mode:multiply; opacity:.6; stroke-width:0px;"/>
        <path d="M17.33,21.42s-.05.17-.11.35c.05-.19.09-.3.11-.35Z" style="fill:#d177b8; mix-blend-mode:multiply; opacity:.9; stroke-width:0px;"/>
        <path d="M23.27,89.45s-3.26,2.49-9.95-.74c0,0-.04-.02-.05-.04-.72-.46-6.49-4.58-7.23-17.34-.76-12.81,9.92-45.69,11.19-49.57-1.31,4.26-13.25,43.68-9.44,55.63,2.53,7.93,12,6.79,12,6.79,0,0-2.95-3.37-3.97-13.3s1.01-31.49,1.01-31.49c0,0-.67,16.09,0,30.46.67,14.38,8.68,17.7,8.68,17.7,0,0-4.29-9.34-5.45-22.83-1.15-13.49,0-36.08,0-36.08l.57,5.38s-.35,14.58.6,27.36c1.36,18.01,5.46,27.45,5.46,27.45,0,0-4.26-.38-6.01-3.63,0,0,.95,3.52,2.58,4.26Z" style="fill:#d177b8; mix-blend-mode:multiply; opacity:.9; stroke-width:0px;"/>
        <path d="M8.59,85.81l-.02.03c-.21.25-2.13,2.35-6.88,2.11,0,0,4.06-.45,4.12-2.14.06-1.68-2.94-11.98-2.44-18.21.49-6.03,6.59-32,6.97-33.62-.22,1.09-2.69,13.06-4.7,28.15-2.11,15.82,2.94,23.68,2.94,23.68Z" style="fill:#d177b8; mix-blend-mode:multiply; opacity:.9; stroke-width:0px;"/>
        <path d="M57.11,31.18s7.18-12.56,0-22.96c0,0,9.98,16.26,0,22.96Z" style="fill:#d177b8; mix-blend-mode:multiply; opacity:.9; stroke-width:0px;"/>
        <path d="M83.05,87.77c-6.33.95-8.58-1.96-8.58-1.96-9.9,7.29-14.69,3.64-14.69,3.64,1.63-.74,2.59-4.26,2.59-4.26-1.74,3.25-6.01,3.63-6.01,3.63,0,0,4.1-9.44,5.45-27.45.96-12.78.61-27.36.61-27.36,0,0,.12-2.43.98-15.24,0,0-.11,27.45-.98,43.36-.87,15.9-1.25,20.87-1.25,20.87,0,0,6.31-6.32,7.09-19.62,0,0,.2,9.6-4.77,20.28,0,0,9.34-5.6,9.09-18.96-.24-12.53-5.05-43.2-5.64-46.98.67,3.62,5.86,32.43,6.49,45.75.67,14.22-8.16,21.55-8.16,21.55,0,0,11.1-2.52,12.45-13.05,1.28-10.05-6.17-41.27-6.85-44.07.72,2.7,8.44,32.17,8.28,44.72l2.18,8.49h0c-.28,2.4-.58,3.94-.34,4.79.51,1.8,1.88,1.87,2.07,1.87Z" style="fill:#d177b8; mix-blend-mode:multiply; opacity:.9; stroke-width:0px;"/>
        <path d="M41.16,5.17s7.62,8.74,5.88,26.33c0,0-3.63-19.32-5.88-26.33Z" style="fill:#d177b8; mix-blend-mode:multiply; opacity:.6; stroke-width:0px;"/>
        <path d="M49.68,7.37s8.02,5.76,1.9,22.77c0,0,8.38-14.16-1.9-22.77Z" style="fill:#d177b8; mix-blend-mode:multiply; opacity:.6; stroke-width:0px;"/>
        <path d="M35.79,11.03s-1.09,3.21-1.42,6.7h-.73s-.04-2.49.87-6.97c0,0,.59-.26,1.28.27Z" style="fill:#ffd4e0; mix-blend-mode:soft-light; stroke-width:0px;"/>
        <path d="M30.47,9.52s-2.31,1.99-6.97,1.87c0,0-1.26,4.46-1.26,6.34,0,0,4.19-.71,5.8-.72,0,0,.42-4.11,2.43-7.49Z" style="fill:#ffd4e0; mix-blend-mode:soft-light; stroke-width:0px;"/>
        <path d="M44.42,10.91s.79,1.25,3.36.66c0,0,1.01,1.34,1.64,5.87l-2.95.29s-.16-2.6-2.05-6.82Z" style="fill:#ffd4e0; mix-blend-mode:soft-light; stroke-width:0px;"/>
        <path d="M52.68,10.76s3.9,1.82,6.48,1.54c0,0,.77,1.95,1.1,4.21,0,0-1.93-1.23-5.68.09,0,0,.04-2.49-1.9-5.84Z" style="fill:#ffd4e0; mix-blend-mode:soft-light; stroke-width:0px;"/>
        <path d="M60.36,12.34s2.87-.13,4.17-.47c1.3-.33,1.34-2.15,1.34-2.15,0,0,1.66,2.41,2.58,4.59,0,0-1.95-1.76-3.12-1.42s-1.22,1.33-2.19,2.24-1.99.96-1.99.96c0,0-.25-2.61-.8-3.75Z" style="fill:#ffd4e0; mix-blend-mode:soft-light; stroke-width:0px;"/>
        <path d="M18.7,7.82s.3,2.33,3.41,3.15c0,0,.25,3.92-1.06,7.78,0,0,.17-2.28-1.6-3.92-1.77-1.64-5-.22-5-.22,0,0,2.4-5.09,4.24-6.79Z" style="fill:#ffd4e0; mix-blend-mode:soft-light; stroke-width:0px;"/>
        <path d="M50.26,10.76s2.2,3.63,1.99,6.36c0,0-1.35-5.49-1.99-6.36Z" style="fill:#ffd4e0; mix-blend-mode:soft-light; stroke-width:0px;"/>
      </g>
    </g>
  </g>
</svg>