<?xml version="1.0" encoding="utf-8"?>
<svg viewBox="0 0 77.99 90.85" xmlns="http://www.w3.org/2000/svg">
  <g style="isolation:isolate;">
    <g id="b">
      <g id="c">
        <path d="M31.17,8.9s-3.29-5.61.75-8.28c4.05-2.66,9.16,4.14,9.16,4.14l-9.92,4.14Z" style="stroke-width: 0px; fill: fillColor; filter: none;"/>
        <path d="M 31.103 8.924 C 31.103 8.924 27.813 3.314 31.853 0.644 C 35.903 -2.016 41.013 4.784 41.013 4.784 L 31.093 8.924 L 31.103 8.924 Z" style="stroke-width: 0px; fill: fillColor; filter: none; mix-blend-mode: multiply;"/>
        <path d="M25.25,21.22s-8.5-4.12-3.76-10.74c0,0,1.23,9.19,5.59,9.85,0,0-4.23-7.53,5.84-14.66,10.07-7.14,14.53,0,14.53,0,0,0,9.91,2.43,4.07,14.31,0,0,10.71-16.27.72-17.48,0,0,14.82.75.43,18.04l-27.42.68Z" style="stroke-width: 0px; fill: fillColor;"/>
        <path d="M74.27,72.93s-.7-5.89-2.1-12.68c.19,3.35.2,7.14,0,11.41,0,0,0-.07-.02-.19-.35-2.36-4.07-26.14-19.48-35.35-.02-.01-.03-.01-.03-.01l1.04-.95-3.47-2.19.5,2.95-2.35-1.67.17,1.34s0,0-.03-.01c0,0-.03,0-.04,0-.02-.02-.04-.03-.08-.04-1.33-.45-10.75-3.4-20.65,1.64-6,3.06-10.89,8-14.21,14.45t0,.02c-2.59,5.02-4.23,10.96-4.71,17.62-.92,12.74.31,19.29.74,21.1-.56-1.95-2.5-9.14-3.64-17.13,0-.01,0-.02,0-.03-.19-1.35-.37-2.7-.51-4.07l-1.02,4.6S-1.35,59.91.3,48.27c1.66-11.62,23.2-31.17,39.62-31.17s34.3,19.69,37.36,28.42c2.65,7.58-3.01,27.4-3.01,27.4Z" style="stroke-width: 0px; fill: fillColor;"/>
        <path d="M72.36,61.18s5.72-4.99,4.92-15.65l-.72-1.7s1.5,8.49-4.55,15.66l.35,1.69Z" style="fill:#ffd9bb; mix-blend-mode:soft-light; opacity:.5; stroke-width:0px;"/>
        <path d="M70.84,52.5s2.54-9,1.17-16.04l-5.14-5.37s1.59,6.5-.46,13.2c0,0,3.54,5.64,4.43,8.22Z" style="fill:#ffd9bb; mix-blend-mode:soft-light; opacity:.5; stroke-width:0px;"/>
        <path d="M59.26,24.58s3.34,7.62,3.46,15.62l-.61-.56s-.5-9.51-4.63-16.3l1.78,1.24Z" style="fill:#ffd9bb; mix-blend-mode:soft-light; opacity:.5; stroke-width:0px;"/>
        <path d="M23.17,36.97s1.13-10.86,8-18.27l-1.46.52s-5.46,6.21-6.95,18.26l.41-.51Z" style="fill:#ffd9bb; mix-blend-mode:soft-light; opacity:.5; stroke-width:0px;"/>
        <path d="M21.49,23.35s-2.2,5.82-.93,16.41l-1.43,2.04s-3.43-7.4-2.71-14.93l5.07-3.51Z" style="fill:#ffd9bb; mix-blend-mode:soft-light; opacity:.5; stroke-width:0px;"/>
        <path d="M4.34,39.26s-.41,9.5,8.84,10.26v.95s-9.21,1.95-10.43-8.68l1.59-2.53Z" style="fill:#ffd9bb; mix-blend-mode:soft-light; opacity:.5; stroke-width:0px;"/>
        <path d="M0,52.5s-.14,5.71,10.31,4.06l-1.21,3.68S3.39,61.07,0,56.38v-3.87Z" style="fill:#ffd9bb; mix-blend-mode:soft-light; opacity:.5; stroke-width:0px;"/>
        <path d="M48.52,35.59s0,0-.03-.01c0,0-.03,0-.04,0-1.32-.33-16.62-11.49-30.29,3.69-3.86,4.29-6.08,16.19-7.36,22.53-.1.42-.17.83-.24,1.25-.07.38-.13.76-.2,1.13-.06.4-.12.79-.18,1.2-.02.08-.03.15-.03.23v.02c-1.83,12.42-.54,24.53-.47,25.23,0-.01,0-.03,0-.04,0-.02-.02-.03-.02-.05-2.09-6.25-3.28-12.1-3.75-17.54,0-.01,0-.02,0-.03-2.42-28.04,14.17-44.89,24.49-46.57,12.32-2.01,18.16,8.97,18.16,8.97Z" style="stroke-width: 0px; fill: fillColor; mix-blend-mode: screen;"/>
        <path d="M48.49,35.58s-.03,0-.04,0c-1.32-.33-18.88-4.34-30.42,9.33-3.74,4.43-6.19,10.5-7.24,16.89.78-4.73,1.41-9.28,1.41-9.29,2.83-8.52,5.31-15.34,13.1-18.77,10.23-4.51,21.43,1.12,23.07,1.8.05.02.1.04.12.05Z" style="fill:#d177b8; mix-blend-mode:multiply; opacity:.6; stroke-width:0px;"/>
        <path d="M72.15,71.48c-.35-2.36-4.07-26.14-19.48-35.35.56.18,9.47,3.2,13.74,10.65,4.14,7.2,5.57,22.78,5.73,24.71Z" style="fill:#d177b8; mix-blend-mode:multiply; opacity:.6; stroke-width:0px;"/>
        <path d="M27.68,20.05s6.2-16.52,19.77-14.39l-.81-.96s-17.39-1.27-19.56,15.63l.6-.27Z" style="fill:#ffd9bb; mix-blend-mode:soft-light; opacity:.5; stroke-width:0px;"/>
        <path d="M31.82,18.48s7.65-14.39,18.56-11.34l.61.51s-10.87-3.75-17.91,10.46l-1.26.37Z" style="fill:#ffd9bb; mix-blend-mode:soft-light; opacity:.5; stroke-width:0px;"/>
        <path d="M40.81,17.13s4.54-7.78,12.38-5.58l.14,1.05s-3.56-2.31-11.93,4.51l-.6.02Z" style="fill:#ffd9bb; mix-blend-mode:soft-light; opacity:.5; stroke-width:0px;"/>
        <path d="M52.67,36.12s9.89.62,15.67,8.82c5.78,8.2,3.81,26.53,3.81,26.53,0,0,1.03-27.65-19.48-35.35Z" style="stroke-width: 0px; fill: fillColor; mix-blend-mode: screen;"/>
        <path d="M40.81,32.26s-13.06-1.12-20.75,8.22c-7.7,9.34-9.93,25.13-9.93,25.13l-.38,3.02s3.42-20.12,10.32-26.83c9.85-9.58,20.75-9.54,20.75-9.54Z" style="stroke-width: 0px; fill: fillColor; mix-blend-mode: screen;"/>
        <path d="M19.96,32.21s3.08-2.77,5.4-3.82c0,0,1.1,4.25,1.6,4.39l-4.92,2.77s0-2.72-2.08-3.34Z" style="fill:#ffd9bb; mix-blend-mode:soft-light; stroke-width:0px;"/>
        <path d="M40.81,9.1s2.01-.65,3.42,0c1.4.65,2.15,2.05,2.15,2.05,0,0,2.89-.83,3.88-.69,0,0-2.44-2.75-5.53-2.93,0,0-2.32.49-3.92,1.57Z" style="fill:#ffd9bb; mix-blend-mode:soft-light; stroke-width:0px;"/>
        <path d="M39.73,6.52s.85,1.03,1.36,1.27c.51.24,3.16-.9,3.16-.9,0,0-.3-.92-1.62-.98-1.32-.06-2.9.62-2.9.62Z" style="fill:#ffd9bb; mix-blend-mode:soft-light; stroke-width:0px;"/>
      </g>
    </g>
  </g>
</svg>