<?xml version="1.0" encoding="utf-8"?>
<svg viewBox="0 0 100.54 118.71" xmlns="http://www.w3.org/2000/svg">
  <g id="c">
    <path d="M17.6,118.71s10.28-3.25,28.66-4.95c28.29-2.63,45.14,2.82,45.14,2.82,0,0,8.67-17.58,9.12-36.31S93.7,4.57,55.86.19C18.02-4.2-2.08,70.04.17,82.64c2.25,12.6,17.43,36.07,17.43,36.07Z" style="stroke-width: 0px;"/>
    <path d="M 17.695 118.902 C 17.695 118.902 27.975 115.652 46.355 113.952 C 74.645 111.322 91.495 116.772 91.495 116.772 C 91.495 116.772 100.165 99.192 100.615 80.462 C 101.065 61.732 93.795 4.762 55.955 0.382 C 18.115 -4.008 -1.985 70.232 0.265 82.832 C 2.515 95.432 17.695 118.902 17.695 118.902 Z" style="stroke-width: 0px; mix-blend-mode: multiply;"/>
  
  </g>
</svg>