<?xml version="1.0" encoding="UTF-8"?><svg xmlns="http://www.w3.org/2000/svg" viewBox="0 0 123.31 371.08"><g style="isolation:isolate;"><g id="b"><g id="c"><path d="M72.49,61.46l-10.75,1.24-10.75-1.24s.27,8.95-3.27,14.63c0,0,.51,9.98,14.02,9.98s14.02-9.98,14.02-9.98c-3.54-5.68-3.27-14.63-3.27-14.63Z" style="stroke-width:0px;"/><path d="M50.75,66.04s2.72,9.05,10.99,9.43c8.27.38,11.04-8.98,11.04-8.98l-.29-5.02h-21.51l-.24,4.57Z" style="mix-blend-mode:multiply; stroke-width:0px;"/><path d="M63.17,84.6c-2.06-1.43,4.59-11.79,8.09-12.93s2.41,6.87,1.28,7.93c-1.13,1.06-5.85,5.11-9.37,5Z" style="mix-blend-mode:soft-light; opacity:.6; stroke-width:0px;"/><path d="M41.24,323.2s1.8,11.94-1.52,19.99c0,0,6.35,3.41,11.46,2.65,5.12-.76,3.98-1.61,3.98-5.68s.38-5.97,1.04-7.48c.66-1.52-1.23-4.55-1.42-12.79-.19-8.24-13.55,3.32-13.55,3.32Z" style="stroke-width:0px;"/><path d="M60.51,370.41s-30.98.64-32.97.35-4.87-1.81-5.06-3.13c-.19-1.33,1.9-7.7,9-13.94.22-.19.44-.39.65-.58,0,0,0,0,.02,0,6.51-5.97,7.58-10.77,7.58-10.77,1.42-3.31,1.32-5.02,5.78-5.78,1.78-.3,3.24.49,4.44,1.59,1.81,1.65,3.04,4.02,3.89,4.48,1.43.75,1.34-3.51,1.34-3.51,0,0,4.44,1.99,1.98,8.15,0,0,2.37,12.13,2.93,13.83.57,1.71,1.27,6.86.42,9.32Z" style="stroke-width:0px;"/><path d="M59.83,360.09s-1.1,1.62-3.14,3.84c-2.04,2.23-2.13,3.03-5.83,3.08-3.69.05-10.14-7.11-17.1-6.92-6.96.19-11.23,6.54-11.27,7.54s3.27,2.86,4.74,3.13c1.47.28,32.51.1,33.28-.36s1.52-4.83-.68-10.32Z" style="stroke-width:0px;"/><path d="M51.19,342.9c-.4,2.94-2.65,11.94-8.72,10.21-5.81-1.66-9.98-.14-10.32,0,6.51-5.97,7.58-10.77,7.58-10.77,1.42-3.31,1.32-5.02,5.78-5.78,1.78-.3,3.24.49,4.44,1.59,1.06,1.58,1.43,3.35,1.24,4.76Z" style="stroke-width:0px;"/><path d="M57.89,343.39s-1.77,2.92-2.34,4.25c-.57,1.33,2.83,5.69,2.83,5.69,0,0-1.08-5.95-.48-9.94Z" style="stroke-width:0px;"/><path d="M22.64,368.08s3.25-6.51,11.4-5.47,16.67,8.05,16.67,8.05c0,0-20.94.87-23.49.1-2.56-.77-4.58-2.68-4.58-2.68Z" style="mix-blend-mode:multiply; stroke-width:0px;"/><path d="M32.85,352.88s1.71-1.4,5.69-1.02c3.98.38,5.18,1.23,7.39.14,3.22-1.59,5.12-8.24,5.12-8.24,0,0-.71,7.88-4.79,9.57-4.07,1.7-6.35-.2-9.28-.76-2.94-.57-4.13.31-4.13.31Z" style="mix-blend-mode:multiply; stroke-width:0px;"/><path d="M41.88,329.36s2.52,3.98,7.89,3.85c5.37-.13,5.87-5.32,5.87-5.32l-.39-2.3s-7.74,1.61-13.69.66l.32,3.1Z" style="mix-blend-mode:multiply; stroke-width:0px;"/><path d="M47.55,365.89c-3.08-2.81,1.94-13.33,8-18.25,1.2-1.26,4.35,11.36,4.06,12.76-.29,1.39-4.4,7.04-6.55,7.23s-5.51-1.74-5.51-1.74Z" style="mix-blend-mode:multiply; stroke-width:0px;"/><path d="M82.12,323.2s-1.8,11.94,1.52,19.99c0,0-6.35,3.41-11.46,2.65s-3.98-1.61-3.98-5.68-.38-5.97-1.04-7.48c-.66-1.52,1.23-4.55,1.42-12.79.19-8.24,13.55,3.32,13.55,3.32Z" style="stroke-width:0px;"/><path d="M62.85,370.41s30.98.64,32.97.35,4.87-1.81,5.06-3.13c.19-1.33-1.9-7.7-9-13.94-.22-.19-.44-.39-.65-.58,0,0,0,0-.02,0-6.51-5.97-7.58-10.77-7.58-10.77-1.42-3.31-1.32-5.02-5.78-5.78-1.78-.3-3.24.49-4.44,1.59-1.81,1.65-3.04,4.02-3.89,4.48-1.43.75-1.34-3.51-1.34-3.51,0,0-4.44,1.99-1.98,8.15,0,0-2.37,12.13-2.93,13.83-.57,1.71-1.27,6.86-.42,9.32Z" style="stroke-width:0px;"/><path d="M63.54,360.09s1.1,1.62,3.14,3.84c2.04,2.23,2.13,3.03,5.83,3.08s10.14-7.11,17.1-6.92c6.96.19,11.23,6.54,11.27,7.54s-3.27,2.86-4.74,3.13c-1.47.28-32.51.1-33.28-.36s-1.52-4.83.68-10.32Z" style="stroke-width:0px;"/><path d="M72.17,342.9c.4,2.94,2.65,11.94,8.72,10.21,5.81-1.66,9.98-.14,10.32,0-6.51-5.97-7.58-10.77-7.58-10.77-1.42-3.31-1.32-5.02-5.78-5.78-1.78-.3-3.24.49-4.44,1.59-1.06,1.58-1.43,3.35-1.24,4.76Z" style="stroke-width:0px;"/><path d="M65.48,343.39s1.77,2.92,2.34,4.25c.57,1.33-2.83,5.69-2.83,5.69,0,0,1.08-5.95.48-9.94Z" style="stroke-width:0px;"/><path d="M100.72,368.08s-3.25-6.51-11.4-5.47-16.67,8.05-16.67,8.05c0,0,20.94.87,23.49.1,2.56-.77,4.58-2.68,4.58-2.68Z" style="mix-blend-mode:multiply; stroke-width:0px;"/><path d="M90.51,352.88s-1.71-1.4-5.69-1.02c-3.98.38-5.18,1.23-7.39.14-3.22-1.59-5.12-8.24-5.12-8.24,0,0,.71,7.88,4.79,9.57,4.07,1.7,6.35-.2,9.28-.76,2.94-.57,4.13.31,4.13.31Z" style="mix-blend-mode:multiply; stroke-width:0px;"/><path d="M81.48,329.36s-2.52,3.98-7.89,3.85c-5.37-.13-5.87-5.32-5.87-5.32l.39-2.3s7.74,1.61,13.69.66l-.32,3.1Z" style="mix-blend-mode:multiply; stroke-width:0px;"/><path d="M75.82,365.89c3.08-2.81-1.94-13.33-8-18.25-1.2-1.26-4.35,11.36-4.06,12.76.29,1.39,4.4,7.04,6.55,7.23s5.51-1.74,5.51-1.74Z" style="mix-blend-mode:multiply; stroke-width:0px;"/><path d="M25.29,222.11c-.28,1.36-1.32,1.72-1.32,1.72-.03.97-1.17,2.26-2.4,2.07s-2.96-2.07-2.96-2.07c-.38.16-4.3-5.65-4.3-5.65,0,0-.32-1.12-.61-2.8-.51-3.08-.9-8.04,1.03-11.51,2.99-5.35,8.43-4.68,8.53-2.74.05,1.1-.02,5.07-.08,8.33-.06,2.51-.11,4.6-.11,4.6,2.44,3.38,2.51,6.69,2.22,8.05Z" style="stroke-width:0px;"/><path d="M23.97,223.83s-.16-3.55-2.62-6.71c-2.47-3.16-4.36-3.12-6.05-3.61-.51-.15-1.07.67-1.6,1.87-.51-3.08-.9-8.04,1.03-11.51,2.99-5.35,8.43-4.68,8.53-2.74.05,1.1-.02,5.07-.08,8.33h-1.43s-2.01,3.09-2.04,4.05c-.04.96,4.89,5.1,4.26,10.32Z" style="mix-blend-mode:multiply; stroke-width:0px;"/><path d="M24.47,159.84c-.75,6.95-5.87,24.25-4.1,27.41s7.14,5.87,7.7,9.03c.33,1.84.19,5.17.01,7.63l-.02.29c-.04.57-.09,1.09-.12,1.52-.08.78-.13,1.28-.13,1.28-1.05,2.18-.95,5.92-1.47,6.54-.52.61-2.66.52-2.99.14s-1.18-1.47-1.51-3.46.14-2.27.38-3.36c.09-.41-.07-1.15-.33-1.89-.41-1.21-1.09-2.47-1.38-2.47-.47,0-2.23.57-2.79,2.51-.37,1.24-1.1,4.43-1.47,6.89-.2,1.37-.29,2.52-.14,2.96.42,1.24,3.74,2.99,4.12,5.5s-2.09,4.07-2.75,3.84c-.66-.24-6.77-5.31-6.96-6.16-.04-.16-.1-.94-.19-2.09-.33-4.71-1.01-15.73-1.61-17.33-.76-1.99.09-3.7-1.8-14.31-1.9-10.61-1.99-34.01-1.99-34.86s.94-2.84,2.27-6.54c1.33-3.69,3.32-12.69,3.32-12.69,23.55-4.23,19.89,4.23,19.89,4.23,0,0-3.28,8.97-4.42,11.87-1.14,2.91-.76,6.57-1.52,13.52Z" style="stroke-width:0px;"/><path d="M8.53,138.43s4.83-3.47,10.32-1.2c5.49,2.27,7.71,7.6,7.71,7.6,0,0,3.85-9.37,3.85-10.38s-9.38-10.11-13.93-9.35c-4.55.76-6.51,7.46-6.51,7.46l-1.45,5.86Z" style="mix-blend-mode:multiply; stroke-width:0px;"/><path d="M32.93,135.24s-1.25,3.51-1.38,3.88c-.13.38-13.39-2.88-21.57-6.56C1.8,128.89.1,123.11,0,122.07s4.83-4.17,8.91-12.88c4.07-8.72,5.28-13.36,6.43-13.55,1.15-.19,9.01,9.76,13.69,15.95,4.67,6.19,3.9,23.65,3.9,23.65Z" style="stroke-width:0px;"/><path d="M19.47,138.37c-7.06-3.33-12.81,3.92-9.78,16.55,3.03,12.63,8,19.02,10.01,18.95s10.75-30.32-.23-35.49Z" style="mix-blend-mode:soft-light; stroke-width:0px;"/><path d="M20.23,220.36c.38,2.51-2.09,4.07-2.75,3.84-.66-.24-6.77-5.31-6.96-6.16-.04-.16-.1-.94-.19-2.09.53,1.47,1.13,2.32,2.95.9,1.83-1.42,2.49-4.16,2.97-4.95-.2,1.37-.29,2.52-.14,2.96.42,1.24,3.74,2.99,4.12,5.5Z" style="mix-blend-mode:multiply; opacity:.5; stroke-width:0px;"/><path d="M27.94,205.72c-.08.78-.13,1.28-.13,1.28-1.05,2.18-.95,5.92-1.47,6.54-.52.61-2.66.52-2.99.14s-1.18-1.47-1.51-3.46.14-2.27.38-3.36c.09-.41-.07-1.15-.33-1.89h.01c.86.54,3.82,2.93,5.05,2.41.58-.25.86-.97.99-1.66Z" style="mix-blend-mode:multiply; opacity:.5; stroke-width:0px;"/><path d="M23.1,212.82c-.72-.72,1.47-3.12,2.51-3.34,1.04-.22,1.39,1.78.82,3.34s-3.33,0-3.33,0Z" style="stroke-width:0px;"/><path d="M14.06,221.55c-.67-.58,4.48.53,5.02.75.54.22-.57,2.16-1.81,1.78,0,0-2.54-1.96-3.2-2.53Z" style="stroke-width:0px;"/><path d="M20.27,188.39c-4.65-3.18-6.23,5.45-4.35,7.39,5.81,6,11.75,5.22,12.24,1.08.1-.88-.69-3.55-7.88-8.47Z" style="mix-blend-mode:soft-light; opacity:.5; stroke-width:0px;"/><path d="M32.93,135.24s-2.65-4.41-4.53-9.82c-1.88-5.42-2.68-8.02-2.68-8.02,0,0,.64,5.48,1.16,10.53s4.29,9.68,4.48,10.44,1.57-3.13,1.57-3.13Z" style="mix-blend-mode:multiply; stroke-width:0px;"/><path d="M.64,121.01s8.74,9.92,11.39,4.8c7.44-14.35,1.51-27.37,1.51-27.37,0,0-2.59,7.46-6.12,13.78-3.54,6.32-6.78,8.79-6.78,8.79Z" style="mix-blend-mode:multiply; opacity:.3; stroke-width:0px;"/><path d="M98.02,222.11c.28,1.36,1.32,1.72,1.32,1.72.03.97,1.17,2.26,2.4,2.07s2.96-2.07,2.96-2.07c.38.16,4.3-5.65,4.3-5.65,0,0,.32-1.12.61-2.8.51-3.08.9-8.04-1.03-11.51-2.99-5.35-8.43-4.68-8.53-2.74-.05,1.1.02,5.07.08,8.33.06,2.51.11,4.6.11,4.6-2.44,3.38-2.51,6.69-2.22,8.05Z" style="stroke-width:0px;"/><path d="M99.34,223.83s.16-3.55,2.62-6.71c2.47-3.16,4.36-3.12,6.05-3.61.51-.15,1.07.67,1.6,1.87.51-3.08.9-8.04-1.03-11.51-2.99-5.35-8.43-4.68-8.53-2.74-.05,1.1.02,5.07.08,8.33h1.43s2.01,3.09,2.04,4.05c.04.96-4.89,5.1-4.26,10.32Z" style="mix-blend-mode:multiply; stroke-width:0px;"/><path d="M98.84,159.84c.75,6.95,5.87,24.25,4.1,27.41s-7.14,5.87-7.7,9.03c-.33,1.84-.19,5.17-.01,7.63l.02.29c.04.57.09,1.09.12,1.52.08.78.13,1.28.13,1.28,1.05,2.18.95,5.92,1.47,6.54.52.61,2.66.52,2.99.14s1.18-1.47,1.51-3.46-.14-2.27-.38-3.36c-.09-.41.07-1.15.33-1.89.41-1.21,1.09-2.47,1.38-2.47.47,0,2.23.57,2.79,2.51.37,1.24,1.1,4.43,1.47,6.89.2,1.37.29,2.52.14,2.96-.42,1.24-3.74,2.99-4.12,5.5s2.09,4.07,2.75,3.84c.66-.24,6.77-5.31,6.96-6.16.04-.16.1-.94.19-2.09.33-4.71,1.01-15.73,1.61-17.33.76-1.99-.09-3.7,1.8-14.31,1.9-10.61,1.99-34.01,1.99-34.86s-.94-2.84-2.27-6.54c-1.33-3.69-3.32-12.69-3.32-12.69-23.55-4.23-19.89,4.23-19.89,4.23,0,0,3.28,8.97,4.42,11.87,1.14,2.91.76,6.57,1.52,13.52Z" style="stroke-width:0px;"/><path d="M114.78,138.43s-4.83-3.47-10.32-1.2c-5.49,2.27-7.71,7.6-7.71,7.6,0,0-3.85-9.37-3.85-10.38s9.38-10.11,13.93-9.35c4.55.76,6.51,7.46,6.51,7.46l1.45,5.86Z" style="mix-blend-mode:multiply; stroke-width:0px;"/><path d="M90.39,135.24s1.25,3.51,1.38,3.88c.13.38,13.39-2.88,21.57-6.56,8.18-3.67,9.88-9.45,9.98-10.49.09-1.04-4.83-4.17-8.91-12.88-4.07-8.72-5.28-13.36-6.43-13.55-1.15-.19-9.01,9.76-13.69,15.95s-3.9,23.65-3.9,23.65Z" style="stroke-width:0px;"/><path d="M103.84,138.37c7.06-3.33,12.81,3.92,9.78,16.55-3.03,12.63-8,19.02-10.01,18.95-2.01-.07-10.75-30.32.23-35.49Z" style="mix-blend-mode:soft-light; stroke-width:0px;"/><path d="M103.08,220.36c-.38,2.51,2.09,4.07,2.75,3.84.66-.24,6.77-5.31,6.96-6.16.04-.16.1-.94.19-2.09-.53,1.47-1.13,2.32-2.95.9-1.83-1.42-2.49-4.16-2.97-4.95.2,1.37.29,2.52.14,2.96-.42,1.24-3.74,2.99-4.12,5.5Z" style="mix-blend-mode:multiply; opacity:.5; stroke-width:0px;"/><path d="M95.37,205.72c.08.78.13,1.28.13,1.28,1.05,2.18.95,5.92,1.47,6.54.52.61,2.66.52,2.99.14s1.18-1.47,1.51-3.46-.14-2.27-.38-3.36c-.09-.41.07-1.15.33-1.89h0c-.86.54-3.82,2.93-5.05,2.41-.58-.25-.86-.97-.99-1.66Z" style="mix-blend-mode:multiply; opacity:.5; stroke-width:0px;"/><path d="M100.21,212.82c.72-.72-1.47-3.12-2.51-3.34-1.04-.22-1.39,1.78-.82,3.34s3.33,0,3.33,0Z" style="stroke-width:0px;"/><path d="M109.26,221.55c.67-.58-4.48.53-5.02.75-.54.22.57,2.16,1.81,1.78,0,0,2.54-1.96,3.2-2.53Z" style="stroke-width:0px;"/><path d="M103.04,188.39c4.65-3.18,6.23,5.45,4.35,7.39-5.81,6-11.75,5.22-12.24,1.08-.1-.88.69-3.55,7.88-8.47Z" style="mix-blend-mode:soft-light; opacity:.5; stroke-width:0px;"/><path d="M90.39,135.24s2.65-4.41,4.53-9.82c1.88-5.42,2.68-8.02,2.68-8.02,0,0,0,4.42-1.75,10.53-1.4,4.88-3.7,9.68-3.89,10.44s-1.57-3.13-1.57-3.13Z" style="mix-blend-mode:multiply; stroke-width:0px;"/><path d="M122.67,121.01s-8.74,9.92-11.39,4.8c-7.44-14.35-1.51-27.37-1.51-27.37,0,0,2.59,7.46,6.12,13.78,3.54,6.32,6.78,8.79,6.78,8.79Z" style="mix-blend-mode:multiply; opacity:.3; stroke-width:0px;"/><path d="M81.93,17.86c-2.89-7.58-20.73-9.85-20.73-9.85,0,0-16.79,2.27-19.68,9.85-2.89,7.58,1.62,33.09,2.78,36.51,1.16,3.41,11.55,10.38,12.42,10.71.87.33,5.01.59,5.01.59,0,0,4.38-.23,5.25-.56.87-.33,11.02-7.33,12.18-10.74,1.16-3.41,5.67-28.93,2.78-36.51Z" style="stroke-width:0px;"/><path d="M48.29,17.01c-2.5,1.64,4.3,7.45,13.31,8.15,9.02.7,13.84-7.86,14.07-8.53.23-.66-11.38-10.14-27.39.38Z" style="mix-blend-mode:soft-light; opacity:.5; stroke-width:0px;"/><path d="M56.65,36.62s.51-6.45-.67-8.59c-1.18-2.13-10.89-.84-12.03-.69s-1.45,5.59-1.46,7.11c0,1.52-.45-1.76,4.72-2.97,5.17-1.2,7.54.55,9.43,5.14Z" style="mix-blend-mode:multiply; stroke-width:0px;"/><path d="M66.77,36.62s-.51-6.45.67-8.59c1.18-2.13,10.89-.84,12.03-.69,1.14.14,1.45,5.59,1.46,7.11,0,1.52.45-1.76-4.72-2.97-5.17-1.2-7.54.55-9.43,5.14Z" style="mix-blend-mode:multiply; stroke-width:0px;"/><path d="M41.21,37.47s-1.94-2.24-3.99-2.2c-2.05.03-3.76,4.26-3.06,8.18.69,3.92,4.25,5.73,5.53,6.92,1.28,1.18,3.14,1.11,3.47-.67l-1.94-12.22Z" style="stroke-width:0px;"/><path d="M42.03,42.64s-1.94-3.24-4.31-3.47c-2.37-.22-2.43,3.41-2.18,5.37s3.19,4.14,3.19,4.14c0,0-2.62-2.35-2.72-4.76-.09-2.41.82-2.98,1.99-3.04,1.17-.06-.16.73.09,3.6s1.27,3.51,2.28,3.51.47-1.77.31-3.22c-.16-1.45,1.34-2.12,1.34-2.12Z" style="mix-blend-mode:multiply; opacity:.88; stroke-width:0px;"/><path d="M41.76,42.56c.14-.7-1.45-1.55-2.84-.63-1.39.92-.6,3.82.76,4.45,1.36.63,1.02-.56,1-1.84-.02-1.28,1.08-1.98,1.08-1.98Z" style="mix-blend-mode:multiply; stroke-width:0px;"/><path d="M39.68,50.36c1.09,1.18,3.27-1.93,3.27-1.93l.2,1.26s-.53,2.83-3.47.67Z" style="mix-blend-mode:multiply; opacity:.5; stroke-width:0px;"/><path d="M81.74,37.47s1.94-2.24,3.99-2.2c2.05.03,3.76,4.26,3.06,8.18-.69,3.92-4.25,5.73-5.53,6.92-1.28,1.18-3.14,1.11-3.47-.67l1.94-12.22Z" style="stroke-width:0px;"/><path d="M80.92,42.64s1.94-3.24,4.31-3.47c2.37-.22,2.43,3.41,2.18,5.37-.25,1.96-3.19,4.14-3.19,4.14,0,0,2.62-2.35,2.72-4.76.09-2.41-.82-2.98-1.99-3.04-1.17-.06.16.73-.09,3.6-.25,2.87-1.27,3.51-2.28,3.51s-.47-1.77-.31-3.22c.16-1.45-1.34-2.12-1.34-2.12Z" style="mix-blend-mode:multiply; opacity:.88; stroke-width:0px;"/><path d="M81.18,42.56c-.14-.7,1.45-1.55,2.84-.63s.6,3.82-.76,4.45c-1.36.63-1.02-.56-1-1.84s-1.08-1.98-1.08-1.98Z" style="mix-blend-mode:multiply; stroke-width:0px;"/><path d="M83.27,50.36c-1.09,1.18-3.27-1.93-3.27-1.93l-.2,1.26s.53,2.83,3.47.67Z" style="mix-blend-mode:multiply; opacity:.5; stroke-width:0px;"/><path d="M62.99,14.11c-.59.13.61-1.5-5.89-1.58-6.5-.08-12.99,2.93-14.51,11.99-.97,5.82-.69,16.51-.69,16.51,0,0-4.38-10.28-5.2-17.67s3.25-13.89,9.53-16.74c0,0,5.95-6.04,12.14-6.59,6.19-.55,10.75,6.18,10.75,6.18,0,0,3.28-3.03,7.01-2.94,3.73.09,7.05,10.29,7.05,10.29,0,0,1.72,1.55,2.6,7.61.71,4.91-4.1,18.95-4.1,18.95,0,0-.42-16.64-4.31-23.34s-8.14-1.98-8.5-1.92-.36-1.26-.36-1.26c0,0-2.72,1.14-3.72,1.09-1-.05-1.18-1.23-1.18-1.23,0,0-.11.54-.62.65Z" style="stroke-width:0px;"/><path d="M67.3,28.03s1.39-2.84,2.4-3.73c1.01-.88,2.68-1.04,2.92-.99.24.05-2.42,2.36-2.42,2.36,0,0,2.37-1.65,4.17-2.03,1.8-.38,4.17.81,4.93.99.76.19.99,4.03.99,4.03,0,0-.33-1.47-4.41-1.04s-3.58.73-8.59.41Z" style="stroke-width:0px;"/><path d="M67.98,28.07s3.53-3.83,5.82-4.27c2.28-.44,3.77.41,3.77.41,0,0-2.16.28-4.79,2.12,0,0,2.81-1.9,5.45-1.67,1.7.15,1.8,1.73,1.8,1.73,0,0-2.55.55-5.01,1.34-2.47.79-7.03.35-7.03.35Z" style="mix-blend-mode:multiply; opacity:.88; stroke-width:0px;"/><path d="M55.99,28.03s-1.39-2.84-2.4-3.73c-1.01-.88-2.68-1.04-2.92-.99-.24.05,2.42,2.36,2.42,2.36,0,0-2.37-1.65-4.17-2.03-1.8-.38-4.17.81-4.93.99-.76.19-.99,4.03-.99,4.03,0,0,.33-1.47,4.41-1.04s3.58.73,8.59.41Z" style="stroke-width:0px;"/><path d="M55.31,28.07s-3.53-3.83-5.82-4.27-3.77.41-3.77.41c0,0,2.16.28,4.79,2.12,0,0-2.81-1.9-5.45-1.67-1.7.15-1.8,1.73-1.8,1.73,0,0,2.55.55,5.01,1.34,2.47.79,7.03.35,7.03.35Z" style="mix-blend-mode:multiply; opacity:.88; stroke-width:0px;"/><path d="M68.42,38.94c.28.11,2.51.6,5.31.23,2.79-.37,4.76-2.54,4.88-2.93.24-.76-.81-2.94-2.32-3.69-1.52-.76-5.68.14-6.58,1.33s-1.51,4.98-1.28,5.07Z" style="stroke-width:0px;"/><path d="M68.42,38.11s-.22.89,0,1.06c.22.18,1.4.03,1.4.03,0,0-1.17-.51-1.4-1.1Z" style="stroke-width:0px;"/><path d="M72.73,39.31s1.86.06,3.28-.46c1.42-.52,2.5-2.47,2.5-2.47,0,0-2,2.23-5.78,2.93Z" style="stroke-width:0px;"/><circle cx="72.53" cy="36.02" r="3.15" style="stroke-width:0px;"/><circle cx="72.53" cy="36.02" r="1.57" style="mix-blend-mode:multiply; opacity:.79; stroke-width:0px;"/><path d="M70.72,38.6c-.33-.27.65-1.04.78-1.09.13-.06.44.25,1.22.18.78-.07,1.08-.62,1.26-.74s1,.56,1.03.76c.03.2-1.36,2.4-4.3.89Z" style="mix-blend-mode:soft-light; opacity:.5; stroke-width:0px;"/><path d="M78.36,36.62s-.13,1.79-.51,2.5c-.38.72-4.34.34-4.34.34,0,0,2.94-.38,4.85-2.85Z" style="mix-blend-mode:multiply; opacity:.5; stroke-width:0px;"/><path d="M68.08,35.63s.54-2.02,1.71-3.32c1.17-1.29,4.02-1.6,5.78-.98s2.21,2.15,2.21,2.15c0,0-1-1.87-3.74-2.01-3.19-.16-4.59,1.28-5.95,4.15Z" style="mix-blend-mode:multiply; stroke-width:0px;"/><path d="M68.52,37.46s.93-2.79,2.32-3.82c1.39-1.03,4.07-1.23,5.28-.88,1.21.36,2.26,2.19,2.26,2.19,0,0-.65-2.67-1.15-3.11-.69-.6-4.3-1.57-7.22,1.6-.78.85-1.49,4.01-1.49,4.01Z" style="stroke-width:0px;"/><path d="M75.73,34.09c-.69-.07-.94.6-.81.86.13.26,1.19-.36,1.26-.48.08-.11.22-.32-.45-.38Z" style="stroke-width:0px;"/><path d="M55.48,38.94c-.28.11-2.51.6-5.31.23s-4.76-2.54-4.88-2.93c-.24-.76.81-2.94,2.32-3.69s5.68.14,6.58,1.33c.9,1.18,1.51,4.98,1.28,5.07Z" style="stroke-width:0px;"/><path d="M55.49,38.11s.22.89,0,1.06c-.22.18-1.4.03-1.4.03,0,0,1.17-.51,1.4-1.1Z" style="stroke-width:0px;"/><path d="M51.18,39.31s-1.86.06-3.28-.46c-1.42-.52-2.5-2.47-2.5-2.47,0,0,2.01,2.23,5.78,2.93Z" style="stroke-width:0px;"/><circle cx="51.37" cy="36.02" r="3.15" style="stroke-width:0px;"/><circle cx="51.37" cy="36.02" r="1.57" style="mix-blend-mode:multiply; opacity:.79; stroke-width:0px;"/><path d="M53.18,38.6c.33-.27-.65-1.04-.78-1.09s-.44.25-1.22.18c-.78-.07-1.08-.62-1.26-.74s-1,.56-1.03.76c-.03.2,1.36,2.4,4.3.89Z" style="mix-blend-mode:soft-light; opacity:.5; stroke-width:0px;"/><path d="M45.55,36.62s.13,1.79.51,2.5c.38.72,4.34.34,4.34.34,0,0-2.94-.38-4.85-2.85Z" style="mix-blend-mode:multiply; opacity:.5; stroke-width:0px;"/><path d="M55.82,35.63s-.54-2.02-1.71-3.32c-1.17-1.29-4.02-1.6-5.78-.98s-2.21,2.15-2.21,2.15c0,0,1-1.87,3.74-2.01,3.19-.16,4.59,1.28,5.95,4.15Z" style="mix-blend-mode:multiply; stroke-width:0px;"/><path d="M55.39,37.46s-.93-2.79-2.32-3.82c-1.39-1.03-4.07-1.23-5.28-.88-1.21.36-2.26,2.19-2.26,2.19,0,0,.65-2.67,1.15-3.11.69-.6,4.51-1.81,7.22,1.6.72.9,1.49,4.01,1.49,4.01Z" style="stroke-width:0px;"/><path d="M48.17,34.09c.69-.07.94.6.81.86-.13.26-1.19-.36-1.26-.48-.08-.11-.22-.32.45-.38Z" style="stroke-width:0px;"/><path d="M68.28,43.93s.71,2.35-.11,2.79c-.82.44-1.35.14-3.03.54-1.68.4-2.7.43-2.7.43,0,0-1.02-.02-2.7-.43-1.68-.4-2.21-.1-3.03-.54-.82-.44-.11-2.79-.11-2.79,0,0-.95,2.42-.73,3.12.22.69,1.56.4,2.35.62s2.51,1.7,4.22,1.84c1.71-.14,3.14-1.77,3.93-1.99.79-.22,2.42.22,2.64-.47s-.73-3.12-.73-3.12Z" style="mix-blend-mode:multiply; stroke-width:0px;"/><path d="M67.98,43.21c-.37-.68-2.95-2.4-5.66-2.18-2.72.22-5.09,1.65-5.66,2.66,0,0,1.61-3.56,4.39-5.85,2.78-2.3,5.5,2.16,6.93,5.37Z" style="mix-blend-mode:multiply; opacity:.2; stroke-width:0px;"/><path d="M57.58,46.97c-.63-.15.51-4.58.29-4.44-.21.15-2.08,1.96-1.99,3.77s1.7.67,1.7.67Z" style="mix-blend-mode:multiply; opacity:.3; stroke-width:0px;"/><path d="M67.29,46.97c.63-.15-.51-4.58-.29-4.44s2.08,1.96,1.99,3.77-1.7.67-1.7.67Z" style="mix-blend-mode:multiply; opacity:.3; stroke-width:0px;"/><path d="M55.97,47.22c.4.52,2.61,4.21,6.47,4.21s6.41-3.73,6.57-4.39c0,0-2.63-.98-6.69-.98s-6.35,1.16-6.35,1.16Z" style="mix-blend-mode:multiply; stroke-width:0px;"/><path d="M64.15,42.04c-1.53-.33.64,3.31,1.69,3.83s1.54-2.57.62-3.34-2.31-.49-2.31-.49Z" style="mix-blend-mode:soft-light; opacity:.8; stroke-width:0px;"/><path d="M55.97,55.54s.62.93,6.35.93,6.44-.81,6.44-.81c0,0-.04.03-.64-.22-.6-.25-2.53-1.12-6.09-1.13-3.57-.01-5.18,1-5.68,1.03-.51.03-.37.19-.37.19Z" style="stroke-width:0px;"/><path d="M56.32,46.72c-.66-1.85,3.79-9.53,6.63-9.13,2.84.4,5.93,8.19,5.62,8.96-.31.77-1.76.49-3.29,1.2-1.53.71-2.84,1.15-4.05.67s-4.47-.94-4.91-1.71Z" style="mix-blend-mode:multiply; opacity:.3; stroke-width:0px;"/><path d="M68.37,54.32c-.6-.09-1.7-.64-3.03-1.05-1.33-.41-2.86-.28-2.86-.28,0,0-1.53-.13-2.86.28-1.33.41-2.77.96-3.37,1.05s-2.17-.97-2.17-.97c0,0,1.62,2.26,2.13,2.32.51.06.6-.25,1.58-.52.98-.27,4.69-.58,4.69-.58,0,0,3.71.31,4.69.58.98.27,1.07.59,1.58.52.51-.06,2.2-2.13,2.2-2.13,0,0-1.99.88-2.59.78Z" style="stroke-width:0px;"/><path d="M57.52,56.97s1.64,2.82,4.91,2.82,4.99-2.82,4.99-2.82c0,0-4.94,1.41-9.9,0Z" style="mix-blend-mode:multiply; stroke-width:0px;"/><path d="M41.9,39.12s.65,2.61,3.57,10.38c2.91,7.77,7.68,13.25,7.68,13.25,0,0-7.21-4.81-8.85-8.39-1.64-3.58-2.39-15.25-2.39-15.25Z" style="mix-blend-mode:multiply; opacity:.88; stroke-width:0px;"/><path d="M81.4,39.12s-.93,3.25-3.85,11.01c-2.91,7.77-7.4,12.62-7.4,12.62,0,0,7.21-4.81,8.85-8.39,1.64-3.58,2.39-15.25,2.39-15.25Z" style="mix-blend-mode:multiply; opacity:.88; stroke-width:0px;"/><path d="M56.17,64.66c-.52-.79,8.62-1.8,10.5-1.45,1.88.35,0,1.98,0,1.98,0,0-6.24,1.24-10.5-.52Z" style="mix-blend-mode:multiply; stroke-width:0px;"/><path d="M58.08,63.05c-2.54-.3,1.11-3.77,5.1-3.41,3.99.36,6.37,4.77-5.1,3.41Z" style="mix-blend-mode:soft-light; opacity:.8; stroke-width:0px;"/><path d="M43.96,39.12c-.7-.02.51,6.89,4.46,10.67,3.95,3.78,7.25-5.12,6.78-6.59s-7.08-3.95-11.24-4.09Z" style="mix-blend-mode:multiply; opacity:.2; stroke-width:0px;"/><path d="M79.57,39.12c.7-.02-.51,6.89-4.46,10.67-3.95,3.78-7.25-5.12-6.78-6.59s7.08-3.95,11.24-4.09Z" style="mix-blend-mode:multiply; opacity:.2; stroke-width:0px;"/><path d="M73.51,17.23c-.48-1.02-2.08,2.07-1.46,2.78s2.63-.32,1.46-2.78Z" style="mix-blend-mode:soft-light; opacity:.8; stroke-width:0px;"/><path d="M64.77,44.48c-.92.28-.43,1.23.34,1.11.77-.12.5-1.37-.34-1.11Z" style="stroke-width:0px;"/><path d="M70.04,14.06s5.79-4.48,8.34-4.19c2.56.28,4.81,3.69,4.81,3.69,0,0-1.28-3.4-1.77-4.38s-5.36-1.92-11.39,4.87Z" style="mix-blend-mode:multiply; opacity:.8; stroke-width:0px;"/><path d="M62.68,13.83s-5.17-8.1-16.44-7.21l2.75-2.36s-1.04,2.16,6.51,2.52c7.56.36,7.19,7.05,7.19,7.05Z" style="mix-blend-mode:multiply; opacity:.8; stroke-width:0px;"/><path d="M63.62,13.47s2.42-4.74-.3-9.2c-2.72-4.46-12.25-1.45-12.25-1.45,0,0,8.42-1.81,10.93,1.45,2.51,3.25,1.63,9.2,1.63,9.2Z" style="mix-blend-mode:multiply; opacity:.8; stroke-width:0px;"/><path d="M74,13.45s6.72-.51,9.89,2.52c3.17,3.03,1.17,12.73.32,15.77-.84,3.04-2.13,5.72-2.13,5.72,0,0,.98-8.78-2.06-16.37-3.04-7.59-6.02-7.63-6.02-7.63Z" style="mix-blend-mode:multiply; opacity:.8; stroke-width:0px;"/><path d="M54.08,12.49s-4.53-2.4-10.31.44-6.16,15.61-5.5,17.78,3.35,8.85,3.35,8.85c0,0-.4-13.2,2.94-19.93s9.52-7.14,9.52-7.14Z" style="mix-blend-mode:multiply; opacity:.8; stroke-width:0px;"/><path d="M68.52,13.61s3.4-2.19,5.48-5.6c2.08-3.41.89-4.23.89-4.23,0,0-2.29-.38-5.77,2.43,0,0,.56.99.66,2.62.06,1.02-1.27,4.78-1.27,4.78Z" style="mix-blend-mode:multiply; stroke-width:0px;"/><path d="M62.99,14.11s-3.87-5.21-8.47-5.61c-4.6-.4-8.55,11.06-8.47,11.72s4.75-3.29,9.77-5.87c5.02-2.58,7.17-.25,7.17-.25Z" style="stroke-width:0px;"/><path d="M62.99,14.11s-2.05-3.07-6.11-2.57c-4.05.5-10.83,8.68-10.83,8.68,0,0-.06,1.19,6.33-2.18,6.39-3.36,10.6-3.94,10.6-3.94Z" style="mix-blend-mode:multiply; opacity:.8; stroke-width:0px;"/><path d="M71.87,13.08s4.57.05,7.89.85l3.32.81s-1.03-4.29-4.73-4.28c-3.7.01-6.48,2.62-6.48,2.62Z" style="mix-blend-mode:soft-light; opacity:.3; stroke-width:0px;"/><path d="M70.16,12.89s2.51-2.23,4.54-5.54,5.59.3,5.59.3c0,0-1.43.18-4.72,2.12-3.29,1.94-5.42,3.13-5.42,3.13Z" style="mix-blend-mode:soft-light; opacity:.3; stroke-width:0px;"/><path d="M50.12,5.12s1.42,1.18,6.2,1.73c4.79.55,6.07,0,6.07,0,0,0,.75-3.17-3.15-4.18-3.91-1.01-9.12,2.45-9.12,2.45Z" style="mix-blend-mode:soft-light; opacity:.3; stroke-width:0px;"/><path d="M48.61,13.83c-.58,1.9,5.56-1.48,8.28-2.28,2.72-.81,3.13-.26,3.13-.26,0,0-6.76-6.74-11.41,2.55Z" style="mix-blend-mode:soft-light; opacity:.3; stroke-width:0px;"/><path d="M55.31,1.52s4.64-.99,7.38,1.95,4.87,3.12,4.87,3.12c0,0-2.27-9.38-12.24-5.07Z" style="mix-blend-mode:soft-light; opacity:.3; stroke-width:0px;"/><path d="M53.53,6.59c-1.14-.32,1.26-1.46,3.57-2.33,2.31-.86,3.16.21,3.44.52s-1.52,1.55-3.06,1.8c-1.55.25-3.95,0-3.95,0Z" style="mix-blend-mode:soft-light; opacity:.5; stroke-width:0px;"/><path d="M52.95,9.25c-.71.19-.22,2.88,1.58,2.59,1.8-.28,2.89-.56,2.89-.56,0,0-2.39-2.6-4.47-2.03Z" style="mix-blend-mode:soft-light; opacity:.5; stroke-width:0px;"/><path d="M69.38,52.96s.92-.23,1.58.57c.66.81,0,2.14,0,2.14,0,0-.3-1.36-1.58-2.71Z" style="mix-blend-mode:multiply; opacity:.88; stroke-width:0px;"/><path d="M55.02,52.96s-.92-.23-1.58.57c-.66.81,0,2.14,0,2.14,0,0-.19-1.19,1.58-2.71Z" style="mix-blend-mode:multiply; opacity:.88; stroke-width:0px;"/><path d="M59.4,53.33c-1.38.28,1.88,1.53,4.23,1.33s2.49-1.14,2.49-1.14c0,0-1.91-1.15-6.71-.19Z" style="mix-blend-mode:multiply; stroke-width:0px;"/><path d="M59.2,55.15c-1.38.28,2.02,1.08,3.92,1.07,1.9-.01,2.98-.92,2.98-.92,0,0-1.95-1.15-6.9-.15Z" style="mix-blend-mode:multiply; stroke-width:0px;"/><path d="M90.88,301.69c-1.97,7.07-3.56,11.5-14.23,13.52-10.66,2.02-12.87-3.41-12.87-3.41,0,0-1.47-3.67.12-14.91,1.6-11.24,4.17-26.53,3.31-28.42-.86-1.9-.49-9.22-2.2-29.81-1.72-20.59-1.54-40.93-1.78-41.18-.25-.25-1.54-.57-1.54-.57,0,0-1.28.32-1.53.57-.24.25-.06,20.59-1.78,41.18-.12,1.38-.22,2.71-.32,3.97,0,.02,0,.05,0,.09-1.34,17.51-1.08,23.98-1.87,25.75-.2.43-.21,1.55-.11,3.16.37,5.47,2.18,16.58,3.42,25.26,1.59,11.24.12,14.91.12,14.91,0,0-2.21,5.43-12.88,3.41-10.66-2.02-12.26-6.45-14.22-13.52-1.81-6.52,2.64-28.28,2.76-37.98.02-.82,0-1.56-.06-2.19-.45-4.96-2.47-13.34-3.54-23.14-.68-6.17-.97-12.9-.26-19.68,1.84-17.56,5.76-29.43,5.39-31.58-.36-2.15-2.33-2.78-1.1-3.41s-.05-6.09-.05-6.09c0,0,9.37,2.59,26.04,3.9,16.68-1.31,26.05-3.9,26.05-3.9,0,0-1.28,5.46-.05,6.09,1.22.63-.74,1.26-1.1,3.41-.37,2.15,3.55,14.02,5.39,31.58s-3.07,34.74-3.8,42.82c-.74,8.09,4.66,33.1,2.7,40.17Z" style="stroke-width:0px;"/><path d="M62.15,312.87c-.48,1.8-1.52,8.15-1.42,9.66.09,1.52-1.24,3.32-5.59,3.79-4.36.48-14.37,0-15.32-1.01s-1.89-3.66-2.34-5.43c-.08-.33-.1-.55-.06-.68.12-.59,1.01.16.84-.62,0-.03-.01-.06-.02-.09-.25-.91-3.86-5.59-5.26-8.19-.35-.65-.56-1.17-.55-1.47.06-1.52,1.78-1.98,1.78-1.98,0,0,.24.71.43.97.19.25,4.49,3.98,10.49,5.55,6,1.58,13.8-.6,14.27-1.16.47-.57.68-2.94.68-2.94,0,0,2.54,1.8,2.07,3.6Z" style="stroke-width:0px;"/><path d="M59.99,202.78s-2.48-6.15-6.75-9.47c-4.26-3.32-16.2-8.34-16.2-8.34,0,0,7.39.76,11.56,3.16,4.17,2.4,8.52,6.69,10.29,7.26,1.77.57,2.8.38,2.8.38v1.14l-1.53.57-.17,5.3Z" style="mix-blend-mode:multiply; stroke-width:0px;"/><path d="M36.16,182.88s5.24.86,9.28,2.55,8.91,5.16,8.91,5.16c0,0-5.37-4.29-7.96-6.51-2.59-2.21,15.3-.63,15.3-.63v-1.96l-26.05-3.87s.95,3.19.51,5.25Z" style="mix-blend-mode:multiply; stroke-width:0px;"/><path d="M60.35,195.21c-.57-.32,0-13.26,0-13.26l8.34-.95s-1.33,11.29-2.02,12.91c-.69,1.62-6.32,1.3-6.32,1.3Z" style="mix-blend-mode:soft-light; stroke-width:0px;"/><path d="M56.18,268.47c-.2.43-.21,1.55-.11,3.16-1.31,1.26-4.53,5.24-10.03,3.72-5.49-1.51-5.52-9.75-10.77-11.64.02-.82,0-1.56-.06-2.19-.45-4.96-2.47-13.34-3.54-23.14,0,0,6.13,19.07,11.44,24.75,5.3,5.69,9.56.67,11.55-4.83,1.87-5.15,3.23-14.44,3.39-15.58-1.34,17.51-1.08,23.98-1.87,25.75Z" style="mix-blend-mode:multiply; stroke-width:0px;"/><path d="M44.09,313.08s.66-1.39-2.44-6.23c-3.09-4.84-6.25-10.9-6.25-10.9,0,0-1.73,4.34-.69,8.57,1.03,4.23,3.49,6.12,9.39,8.57Z" style="mix-blend-mode:multiply; opacity:.88; stroke-width:0px;"/><path d="M49.29,313.93s1.77-9.02,4.49-14.89c2.72-5.87,5.59-3.03,5.57,4.93-.01,7.96-2.16,9.11-2.16,9.11,0,0-4.36,1.91-7.9.85Z" style="mix-blend-mode:multiply; opacity:.88; stroke-width:0px;"/><path d="M38.5,258.43s2.65,4.99,6.06,6.82c3.41,1.83,5.05,2.78,5.05,2.78,0,0-.85,3.23-5.46,1.52s-5.65-11.12-5.65-11.12Z" style="mix-blend-mode:multiply; stroke-width:0px;"/><path d="M41.78,252.68c-9.4-3.94-11.73-29.68-4.74-47.12,6.99-17.43,17.57-11.37,21.01,0,3.43,11.37-.61,53.68-16.27,47.12Z" style="mix-blend-mode:soft-light; opacity:.3; stroke-width:0px;"/><path d="M48.67,204.97c-3.1-.86-6.89,16.76-1.21,27.75,5.68,10.99,11.13-17.99,1.21-27.75Z" style="mix-blend-mode:soft-light; opacity:.5; stroke-width:0px;"/><path d="M49.37,313.54s1.22.94,2.64.38c1.42-.57,3.79-9.19,3.32-12.22-.47-3.03-1-3.22-1-3.22,0,0-4.18,10.33-4.95,15.07Z" style="mix-blend-mode:multiply; opacity:.88; stroke-width:0px;"/><path d="M44.09,313.08s-.89-3.18-4.21-7.99l-3.32-4.81s.43,3.15,1.93,7.01c1.5,3.86,5.6,5.8,5.6,5.8Z" style="mix-blend-mode:multiply; opacity:.88; stroke-width:0px;"/><path d="M35.34,286.54c-3.12,1.33,1.99,14.49,7.39,19.33,5.4,4.83,8.53-6.44,10.99-10.33,2.46-3.88-5.21-14.59-18.38-9Z" style="mix-blend-mode:soft-light; opacity:.5; stroke-width:0px;"/><path d="M60.73,322.53c.09,1.52-1.24,3.32-5.59,3.79-4.36.48-14.37,0-15.32-1.01s-1.89-3.66-2.34-5.43c-.08-.33-.1-.55-.06-.68,0,0,.57,3.24,6.82,4s11.15-1.74,11.15-1.74c0,0-9.54,4.13-17.13-2.88,0-.03-.01-.06-.02-.09-.25-.91-3.86-5.59-5.26-8.19,0,0,6.53,4.42,17.07,5.36,10.55.94,12.1-2.79,12.1-2.79-.48,1.8-1.52,8.15-1.42,9.66Z" style="mix-blend-mode:multiply; stroke-width:0px;"/><path d="M61.21,312.87c.48,1.8,1.52,8.15,1.42,9.66-.09,1.52,1.24,3.32,5.59,3.79,4.36.48,14.37,0,15.32-1.01s1.89-3.66,2.34-5.43c.08-.33.1-.55.06-.68-.12-.59-1.01.16-.84-.62,0-.03,0-.06.02-.09.25-.91,3.86-5.59,5.26-8.19.35-.65.56-1.17.55-1.47-.06-1.52-1.78-1.98-1.78-1.98,0,0-.24.71-.43.97-.19.25-4.49,3.98-10.49,5.55-6,1.58-13.8-.6-14.27-1.16-.47-.57-.68-2.94-.68-2.94,0,0-2.54,1.8-2.07,3.6Z" style="stroke-width:0px;"/><path d="M63.37,202.78s2.48-6.15,6.75-9.47,16.2-8.34,16.2-8.34c0,0-7.39.76-11.56,3.16-4.17,2.4-8.52,6.69-10.29,7.26-1.77.57-2.8.38-2.8.38v1.14l1.53.57.17,5.3Z" style="mix-blend-mode:multiply; stroke-width:0px;"/><path d="M87.21,182.88s-5.24.86-9.28,2.55-8.91,5.16-8.91,5.16c0,0,5.37-4.29,7.96-6.51,2.59-2.21-15.3-.63-15.3-.63v-1.96l26.05-3.87s-.95,3.19-.51,5.25Z" style="mix-blend-mode:multiply; stroke-width:0px;"/><path d="M67.18,268.47c.2.43.21,1.55.11,3.16,1.31,1.26,4.53,5.24,10.03,3.72,5.49-1.51,5.52-9.75,10.77-11.64-.02-.82,0-1.56.06-2.19.45-4.96,2.47-13.34,3.54-23.14,0,0-6.13,19.07-11.44,24.75-5.3,5.69-9.56.67-11.55-4.83-1.87-5.15-3.23-14.44-3.39-15.58,1.34,17.51,1.08,23.98,1.87,25.75Z" style="mix-blend-mode:multiply; stroke-width:0px;"/><path d="M79.27,313.08s-.66-1.39,2.44-6.23c3.09-4.84,6.25-10.9,6.25-10.9,0,0,1.73,4.34.69,8.57-1.03,4.23-3.49,6.12-9.39,8.57Z" style="mix-blend-mode:multiply; opacity:.88; stroke-width:0px;"/><path d="M77.79,313.36s-1.77-9.02-4.49-14.89-5.59-3.03-5.57,4.93c.01,7.96,2.16,9.11,2.16,9.11,0,0,4.36,1.91,7.9.85Z" style="mix-blend-mode:multiply; opacity:.88; stroke-width:0px;"/><path d="M84.87,258.43s-2.65,4.99-6.06,6.82c-3.41,1.83-5.05,2.78-5.05,2.78,0,0,.85,3.23,5.46,1.52,4.61-1.71,5.65-11.12,5.65-11.12Z" style="mix-blend-mode:multiply; stroke-width:0px;"/><path d="M81.59,252.68c9.4-3.94,11.73-29.68,4.74-47.12-6.99-17.43-17.57-11.37-21.01,0-3.43,11.37.61,53.68,16.27,47.12Z" style="mix-blend-mode:soft-light; opacity:.3; stroke-width:0px;"/><path d="M74.69,204.97c3.1-.86,6.89,16.76,1.21,27.75-5.68,10.99-11.13-17.99-1.21-27.75Z" style="mix-blend-mode:soft-light; opacity:.5; stroke-width:0px;"/><path d="M77.71,312.97s-1.22.94-2.64.38c-1.42-.57-3.79-9.19-3.32-12.22.47-3.03,1-3.22,1-3.22,0,0,4.18,10.33,4.95,15.07Z" style="mix-blend-mode:multiply; opacity:.88; stroke-width:0px;"/><path d="M79.27,313.08s.89-3.18,4.21-7.99l3.32-4.81s-.43,3.15-1.93,7.01c-1.5,3.86-5.6,5.8-5.6,5.8Z" style="mix-blend-mode:multiply; opacity:.88; stroke-width:0px;"/><path d="M88.03,286.54c3.12,1.33-1.99,14.49-7.39,19.33s-4.42-7.48-6.88-11.37c-2.46-3.88,1.11-13.55,14.27-7.96Z" style="mix-blend-mode:soft-light; opacity:.5; stroke-width:0px;"/><path d="M62.63,322.53c-.09,1.52,1.24,3.32,5.59,3.79,4.36.48,14.37,0,15.32-1.01s1.89-3.66,2.34-5.43c.08-.33.1-.55.06-.68,0,0-.42-.02-6.67.74s-11.3,1.52-11.3,1.52c0,0,13.7-4.17,17.13-2.88,0-.03,0-.06.02-.09.25-.91,3.86-5.59,5.26-8.19,0,0-6.53,4.42-17.07,5.36-10.55.94-12.1-2.79-12.1-2.79.48,1.8,1.52,8.15,1.42,9.66Z" style="mix-blend-mode:multiply; stroke-width:0px;"/><path d="M35.65,177.63s9.76,6.45,25.52,7.35c15.76.9,26.55-7.35,26.55-7.35,0,0-11.53,2.61-26.05,2.61s-26.02-2.61-26.02-2.61Z" style="mix-blend-mode:multiply; stroke-width:0px;"/><path d="M101.89,90.53c-3.65-2.18-20.33-11.68-21.55-12.6-1.22-.92-2.58-3.66-3.07-3.88s-2.69-.27-2.69-.27l1.03,2.07c-6.31,9.38-13.87,8.85-13.87,8.85,0,0-7.55.53-13.87-8.85l1.03-2.07s-2.19.05-2.69.27c-.49.22-1.85,2.97-3.07,3.88-1.22.92-19.9,10.42-23.55,12.6-3.65,2.18-4.26,5.12-4.26,5.12,0,0,7.65,12.41,10.78,23.02,3.13,10.61,6.42,15.16,6.82,16.58.4,1.42,3.9,25.99,4.08,26.81.17.82-1.97,2.08-1.97,3.28s1.22,3.16,1.22,3.85-1.04.32-1.04,1.26.23,2.08.52,3.85c.29,1.77-.87,1.77-.98,2.72-.12.95,14.57,3.98,27,4.55,12.43-.57,27.11-3.6,27-4.55-.12-.95-1.27-.95-.98-2.72.29-1.77.52-2.91.52-3.85s-1.04-.57-1.04-1.26,1.22-2.65,1.22-3.85-2.14-2.46-1.97-3.28c.17-.82,3.68-25.39,4.08-26.81.4-1.42,3.69-5.97,6.82-16.58,3.13-10.61,10.78-23.02,10.78-23.02,0,0-2.61-2.94-6.26-5.12Z" style="stroke-width:0px;"/><path d="M43.14,77.93s6.57,14.08,19.34,13.45c12.77-.63,17.38-13.88,17.38-13.88l-2.13-2.94s-4.28,12.28-15.62,12.28-15.9-12.79-15.9-12.79l-3.07,3.88Z" style="mix-blend-mode:multiply; stroke-width:0px;"/><path d="M36.85,109.16s3.66,18.15,4.57,19.58,14.24-.91,24.62-1,13.05,1.69,14.3,1.07c1.31-.65,3.79-19.21,4.42-19.86.63-.65-14.44.89-25.84,1.14-10.89.24-21.34-1.55-22.07-.93Z" style="stroke-width:0px;"/><path d="M38.73,86.07s11.38,13.52,19.34,19.96l7.96,6.44s-20.87-.25-27.3-26.4Z" style="mix-blend-mode:multiply; opacity:.88; stroke-width:0px;"/><path d="M32.97,126.62s13.35,29.31,18.41,35.87c5.05,6.57,8.72,7.83,8.72,7.83,0,0-7.07,3.03-16.17-6.44-9.09-9.47-10.95-37.26-10.95-37.26Z" style="mix-blend-mode:multiply; opacity:.88; stroke-width:0px;"/><path d="M92.39,129.9s-8.42,21.09-15.75,29.68-14.27,8.84-14.27,8.84c0,0,18.11-13.52,30.02-38.53Z" style="mix-blend-mode:multiply; opacity:.88; stroke-width:0px;"/><path d="M35.03,165.34s11.11,9.32,24.65,10.55c13.55,1.23,23.12-2.02,23.12-2.02,0,0-7.39,4.2-21.98,4.39-14.59.19-24.06-8.04-24.78-9.82-.72-1.78-1.01-3.09-1.01-3.09Z" style="mix-blend-mode:multiply; opacity:.88; stroke-width:0px;"/><path d="M87.23,169.19c-.61.95-10.9,4.55-21.96,4.42,0,0,10.74-2.34,15.54-5.43,4.8-3.09,7.63-2.84,7.63-2.84,0,0-.01,1.52-.73,2.4s-.49,1.45-.49,1.45Z" style="mix-blend-mode:multiply; opacity:.88; stroke-width:0px;"/><path d="M35.65,174.56s7.33,4.99,21.16,5.05c13.83.06,24.95-2.98,24.95-2.98,0,0-17.81,3.17-27.98,1.62-10.17-1.55-18.5-6.72-18.5-6.72l.36,3.03Z" style="mix-blend-mode:multiply; opacity:.88; stroke-width:0px;"/><path d="M26.11,118.66s5.06,6.94,13.59,8.08c8.53,1.14,19.38-2.46,21.97-2.46s13.71,2.97,20.09,2.69c6.38-.29,14.21-3.94,14.21-3.94,0,0-1.28,4.85-5.58,9.85-6.5,7.55-18.07,16.44-28.02,17.43-16.52,1.64-30.5-17.41-31.37-18.96-.87-1.56-4.89-12.67-4.89-12.67Z" style="mix-blend-mode:multiply; opacity:.3; stroke-width:0px;"/><path d="M53.25,93.4s3.79,3.79,13.21,0c9.42-3.79,13.87-15.47,13.87-15.47,0,0-.28,12.32-10.95,16.61-10.67,4.29-16.13-1.14-16.13-1.14Z" style="mix-blend-mode:multiply; opacity:.88; stroke-width:0px;"/><path d="M38.73,122.39c-8.32-2.74-8.98-17.28-5.81-18.87,3.17-1.59,18.17,7.78,37.23,9.34,19.06,1.56,9.77,9.62-.21,8.95-9.98-.67-19.86,2.52-31.21.59Z" style="mix-blend-mode:soft-light; opacity:.3; stroke-width:0px;"/><path d="M67.98,96.19c-16.15,2.57-6.26,11.67,6.13,14.52,12.39,2.84,19.1-17.77,19.06-19.31-.04-1.54-5.44,1.64-25.19,4.79Z" style="mix-blend-mode:soft-light; opacity:.3; stroke-width:0px;"/><path d="M53.25,90.24c-3.12-1.15-.8,3.35,4.82,4.29,5.62.95,8.72-2.15,8.72-2.15,0,0-8.39-.25-13.54-2.15Z" style="mix-blend-mode:soft-light; opacity:.3; stroke-width:0px;"/><path d="M42.1,167.99c-.44-.06,5.56,6.32,15.47,7.58,9.92,1.26,19.81-.42,19.81-.42,0,0-2.32-1.48-12.48-2.24-10.17-.76-22.8-4.93-22.8-4.93Z" style="mix-blend-mode:soft-light; opacity:.3; stroke-width:0px;"/><path d="M106.83,94.31s-7.48,13.61-9.23,23.61c0,0,5.59-17.89,10.38-22.28l-1.15-1.33Z" style="mix-blend-mode:multiply; stroke-width:0px;"/><path d="M16.49,94.31s7.48,13.61,9.23,23.61c0,0-5.59-17.89-10.38-22.28l1.15-1.33Z" style="mix-blend-mode:multiply; stroke-width:0px;"/><path d="M50.02,125.98c-1.64-.4-4.42-5.58-5.18-10.13-.76-4.55,9.35-2.87,11.05-3.54,1.71-.66,1.74,7.39,1.44,8.24s.7-5.48,1.4-7.43c.7-1.95,3.92-.81,5.18-.39s-1.68,8.26-2.34,10.55c-.66,2.29-11.56,2.69-11.56,2.69Z" style="stroke-width:0px;"/><path d="M69.34,113.45c-2.87-.93-6.27,4.55-5.84,9.29.44,4.74,11.57,1.99,13.39-.47,1.82-2.46-3.48-6.25-5.47-5.68-1.99.57-.95,2.91-2.09,2.36-1.13-.56.67-2.92,2.28-2.92s-.1-1.85-2.28-2.56Z" style="stroke-width:0px;"/></g></g></g></svg>