<?xml version="1.0" encoding="utf-8"?>
<svg viewBox="0 0 157.85 31.64" xmlns="http://www.w3.org/2000/svg">
  <g id="c" transform="matrix(1, 0, 0, 1, -1.4210854715202004e-14, 0)">
    <path d="M95.99,0s.22,8.93,3.56,14.17,39.31,3.69,45.8,6.08c6.49,2.39,12.5,11.4,12.5,11.4,0,0-5.9-16.38-9.48-17.26-3.57-.89-25.69-3.02-34.52-4.48-8.83-1.46-17.87-9.9-17.87-9.9Z" style="stroke-width: 0px; fill: fillColor;"/>
    <path d="M94.34,0s2.69,11.18,5.21,14.17c0,0-6.29-4.99-7.36-14.17h2.15Z" style="stroke-width: 0px; fill: fillColor;"/>
    <path d="M61.86,0s-.22,8.93-3.56,14.17c-3.34,5.24-39.31,3.69-45.8,6.08C6.01,22.64,0,31.64,0,31.64c0,0,5.9-16.38,9.48-17.26,3.57-.89,25.69-3.02,34.52-4.48C52.82,8.44,61.86,0,61.86,0Z" style="stroke-width: 0px; fill: fillColor;"/>
    <path d="M63.51,0s-2.69,11.18-5.21,14.17c0,0,6.29-4.99,7.36-14.17h-2.15Z" style="stroke-width: 0px; fill: fillColor;"/>
    <path d="M 94.405 0.02 C 94.405 0.02 97.095 11.2 99.615 14.19 C 99.615 14.19 93.325 9.2 92.255 0.02 L 94.405 0.02 Z" style="stroke-width: 0px; fill: fillColor; mix-blend-mode: multiply;"/>
    <path d="M 63.575 0.02 C 63.575 0.02 60.885 11.2 58.365 14.19 C 58.365 14.19 64.655 9.2 65.725 0.02 L 63.575 0.02 Z" style="stroke-width: 0px; fill: fillColor; mix-blend-mode: multiply;"/>
  </g>
</svg>