<?xml version="1.0" encoding="UTF-8"?><svg id="b" xmlns="http://www.w3.org/2000/svg" xmlns:xlink="http://www.w3.org/1999/xlink" viewBox="0 0 157.85 31.64"><defs><linearGradient id="d" x1="118.63" y1="-84.67" x2="185.24" y2="-84.67" gradientTransform="translate(-37.94 71.27) rotate(10.54)" gradientUnits="userSpaceOnUse"><stop offset="0" stop-color="#36063b"/><stop offset="1" stop-color="#4d0e2e"/></linearGradient><linearGradient id="e" x1="95.87" y1="14.17" x2="95.87" y2="0" gradientUnits="userSpaceOnUse"><stop offset="0" stop-color="#812149"/><stop offset="1" stop-color="#4f0e40"/></linearGradient><linearGradient id="f" x1="-919.22" y1="108.42" x2="-852.61" y2="108.42" gradientTransform="translate(-859.84 71.27) rotate(169.46) scale(1 -1)" xlink:href="#d"/><linearGradient id="g" x1="-959.76" y1="14.17" x2="-959.76" y2="0" gradientTransform="translate(-897.78) rotate(-180) scale(1 -1)" xlink:href="#e"/></defs><g id="c"><path d="M95.99,0s.22,8.93,3.56,14.17,39.31,3.69,45.8,6.08c6.49,2.39,12.5,11.4,12.5,11.4,0,0-5.9-16.38-9.48-17.26-3.57-.89-25.69-3.02-34.52-4.48-8.83-1.46-17.87-9.9-17.87-9.9Z" style="fill:url(#d); stroke-width:0px;"/><path d="M94.34,0s2.69,11.18,5.21,14.17c0,0-6.29-4.99-7.36-14.17h2.15Z" style="fill:url(#e); stroke-width:0px;"/><path d="M61.86,0s-.22,8.93-3.56,14.17c-3.34,5.24-39.31,3.69-45.8,6.08C6.01,22.64,0,31.64,0,31.64c0,0,5.9-16.38,9.48-17.26,3.57-.89,25.69-3.02,34.52-4.48C52.82,8.44,61.86,0,61.86,0Z" style="fill:url(#f); stroke-width:0px;"/><path d="M63.51,0s-2.69,11.18-5.21,14.17c0,0,6.29-4.99,7.36-14.17h-2.15Z" style="fill:url(#g); stroke-width:0px;"/></g></svg>