<?xml version="1.0" encoding="UTF-8"?><svg xmlns="http://www.w3.org/2000/svg" xmlns:xlink="http://www.w3.org/1999/xlink" viewBox="0 0 147.79 25.7"><defs><linearGradient id="d" x1="95.31" y1="-3.83" x2="94.72" y2="-17.21" gradientTransform="translate(5.25 8.44) rotate(5.15)" gradientUnits="userSpaceOnUse"><stop offset="0" stop-color="#a66dad"/><stop offset=".98" stop-color="#d9a0b8"/></linearGradient><linearGradient id="e" x1="134.02" y1="-1.1" x2="134.02" y2="-11.96" xlink:href="#d"/><linearGradient id="f" x1="-391.17" y1="29.02" x2="-391.76" y2="15.64" gradientTransform="translate(-344.66 10.43) rotate(176.23) scale(1 -1)" xlink:href="#d"/><linearGradient id="g" x1="-352.45" y1="31.75" x2="-352.45" y2="20.89" gradientTransform="translate(-344.66 10.43) rotate(176.23) scale(1 -1)" xlink:href="#d"/></defs><g style="isolation:isolate;"><g id="b"><g id="c"><path d="M147.79,25.7s-11.86-10.86-37.84-13.56c-4.55-.47-8.24-.42-10.99-.22-3.83.3-5.85.93-5.85.93,0,0,2.63-10.87,9.29-12.66-3.05,2.16-4.95,5.13-5.94,8.73,2.17-3.66,4.93-6.79,8.79-8.93-1.62,1.19-2.51,2.86-2.77,4.92,1.02-2.04,2.73-3.72,6.05-4.54,8.19,1.23,21.82,4.74,28.13,7.9,1.89,1.96,3.22,4.05,3.58,6.34.18-1.56-.4-3.33-1.81-5.34.71.47,1.22.92,1.46,1.36.45.77,1,1.79,1.62,2.95,2.61,4.88,6.27,12.1,6.27,12.1Z" style="stroke-width:0px;"/><path d="M108.53.39c-2.91,1.34-5.08,4.18-6.85,7.85-.28-.93-.4-1.78-.2-2.47-1.45,1.75-2.39,3.75-2.52,6.16-3.83.3-5.85.93-5.85.93,0,0,2.63-10.87,9.29-12.66-3.05,2.16-4.95,5.13-5.94,8.73,2.17-3.66,4.93-6.79,8.79-8.93-1.62,1.19-2.51,2.86-2.77,4.92,1.02-2.04,2.73-3.72,6.05-4.54Z" style="fill:url(#d); mix-blend-mode:multiply; stroke-width:0px;"/><path d="M141.31,19.61c-1.19-4.79-2.82-8.32-4.65-11.32,1.89,1.96,3.22,4.05,3.58,6.34.18-1.56-.4-3.33-1.81-5.34.71.47,1.22.92,1.46,1.36.45.77,1,1.79,1.62,2.95,1.22,3.21.63,5.05-.21,6.01Z" style="fill:url(#e); mix-blend-mode:multiply; stroke-width:0px;"/><path d="M0,25.05s12.12-10.57,38.16-12.64c4.56-.36,8.25-.22,10.99.05,3.82.4,5.82,1.07,5.82,1.07,0,0-2.37-10.94-8.99-12.88,3,2.23,4.82,5.25,5.73,8.87-2.09-3.71-4.77-6.91-8.58-9.14,1.59,1.23,2.45,2.92,2.65,4.99-.97-2.07-2.64-3.79-5.94-4.68-8.21,1.03-21.93,4.21-28.31,7.21-1.94,1.92-3.32,3.97-3.73,6.25-.14-1.56.48-3.32,1.94-5.29-.72.45-1.24.89-1.5,1.32-.46.76-1.05,1.77-1.69,2.91C3.83,17.92,0,25.05,0,25.05Z" style="stroke-width:0px;"/><path d="M39.86.69c2.88,1.41,4.98,4.3,6.66,8.01.3-.92.44-1.77.26-2.47,1.41,1.79,2.3,3.81,2.37,6.22,3.82.4,5.82,1.07,5.82,1.07,0,0-2.37-10.94-8.99-12.88,3,2.23,4.82,5.25,5.73,8.87-2.09-3.71-4.77-6.91-8.58-9.14,1.59,1.23,2.45,2.92,2.65,4.99-.97-2.07-2.64-3.79-5.94-4.68Z" style="fill:url(#f); mix-blend-mode:multiply; stroke-width:0px;"/><path d="M6.63,19.12c1.3-4.76,3.02-8.25,4.92-11.21-1.94,1.92-3.32,3.97-3.73,6.25-.14-1.56.48-3.32,1.94-5.29-.72.45-1.24.89-1.5,1.32-.46.76-1.05,1.77-1.69,2.91-1.29,3.18-.75,5.03.07,6.01Z" style="fill:url(#g); mix-blend-mode:multiply; stroke-width:0px;"/></g></g></g></svg>