<?xml version="1.0" encoding="UTF-8"?><svg xmlns="http://www.w3.org/2000/svg" xmlns:xlink="http://www.w3.org/1999/xlink" viewBox="0 0 161.45 18.06"><defs><linearGradient id="d" x1="98.44" y1="9.03" x2="161.45" y2="9.03" gradientUnits="userSpaceOnUse"><stop offset="0" stop-color="#36063b"/><stop offset="1" stop-color="#4d0e2e"/></linearGradient><linearGradient id="e" x1="-554.79" x2="-491.78" gradientTransform="translate(-491.78) rotate(-180) scale(1 -1)" xlink:href="#d"/></defs><g style="isolation:isolate;"><g id="b"><g id="c"><path d="M161.45,17.96c-.49-.56-3.62-3.61-14.9-4.8-4.05-.43-9.49-.06-15.02.63-11.47,1.43-23.23,4.27-23.23,4.27,0,0-6.47-2.64-9.85-11.02h1.26s2.93,5.29,6.46,8.09l-4.92-8.09s7.27-.22,19.47-1.77c12.19-1.54,20.94-4.7,20.94-4.7l-.65-.57s.07.02.15.05c1.4.48,11.68,4.36,20.3,17.92Z" style="fill:url(#d); stroke-width:0px;"/><path d="M161.45,17.96c-.49-.56-3.62-3.61-14.9-4.8-4.05-.43-9.49-.06-15.02.63,16.72-4.05,18.97-3.99,18.97-3.99-3.68-7.24-8.43-9.39-9.35-9.75,1.4.48,11.68,4.36,20.3,17.92Z" style="fill:#ce77b5; mix-blend-mode:multiply; opacity:.6; stroke-width:0px;"/><path d="M0,17.96c.49-.56,3.62-3.61,14.9-4.8,4.05-.43,9.49-.06,15.02.63,11.47,1.43,23.23,4.27,23.23,4.27,0,0,6.47-2.64,9.85-11.02h-1.26s-2.93,5.29-6.46,8.09l4.92-8.09s-7.27-.22-19.47-1.77C28.55,3.73,19.8.57,19.8.57l.65-.57s-.07.02-.15.05c-1.4.48-11.68,4.36-20.3,17.92Z" style="fill:url(#e); stroke-width:0px;"/><path d="M0,17.96c.49-.56,3.62-3.61,14.9-4.8,4.05-.43,9.49-.06,15.02.63-16.72-4.05-18.97-3.99-18.97-3.99C14.62,2.56,19.38.41,20.3.05c-1.4.48-11.68,4.36-20.3,17.92Z" style="fill:#ce77b5; mix-blend-mode:multiply; opacity:.6; stroke-width:0px;"/></g></g></g></svg>