<?xml version="1.0" encoding="utf-8"?>
<svg viewBox="62.429 164.9253 367.8131 41.8442" xmlns="http://www.w3.org/2000/svg" xmlns:xlink="http://www.w3.org/1999/xlink">
  <defs>
    <linearGradient id="c" x1="24.69" y1="32.36" x2="56.93" y2="32.36" gradientTransform="translate(-5.16 -52.64) rotate(11.76) scale(1.4 1.6)" gradientUnits="userSpaceOnUse">
      <stop offset="0" stop-color="#fff"/>
      <stop offset="1" style="stop-color: rgb(171, 171, 171);"/>
    </linearGradient>
    <linearGradient id="e" x1="96.76" y1="18.84" x2="128.99" y2="18.84" gradientTransform="translate(268.46 -51.38) rotate(168.24) scale(1.35 -1.61)" xlink:href="#c"/>
  </defs>
  <g style="isolation: isolate;" transform="matrix(2.239622116088867, 0, 0, 2.239622116088867, 62.428977966308594, 164.93333435058594)">
    <g id="a">
      <path d="M61.25,18.68s-4.32-8.92-6.96-12.91c-2.64-3.99-6.57-3.48-7.21-3.22-.63.26,2.13,2.03,2.13,2.03,0,0-2.95-1.41-7.65-.54C36.86,4.92,28.28.49,21.66.03,15.04-.42,4.27,7.91,0,18.4c0,0,8.32-8.56,16.29-8.75,7.97-.19,15.49,5.19,27.28,6.98,11.79,1.79,17.68,2.05,17.68,2.05Z" style="stroke-width: 0px;"/>
      <path d="M61.25,18.68s-4.68-6.79-8.02-10.04c-3.34-3.25-6.82-4.76-6.82-4.76,0,0,4.2,2.89,6.97,6.82,2.77,3.93-2.18-.1-7.09-3.59-4.91-3.49-1.7-.47-13.81-3.76C20.37.06,18.81,1.47,18.81,1.47c0,0,4.81,3.95,10.37,9.89,5.56,5.94,14.56,5.35,22.52,5.69,7.96.34,9.54,1.63,9.54,1.63Z" style="fill:url(#c); mix-blend-mode:multiply; opacity:.88; stroke-width:0px;"/>
      <path d="M104.87,18.46s4.11-8.95,6.64-12.94c2.53-3.99,6.34-3.45,6.96-3.18.62.27-2.04,2.03-2.04,2.03,0,0,2.85-1.39,7.41-.48,4.56.92,12.83-3.47,19.25-3.88,6.41-.4,16.92,8.08,21.14,18.66,0,0-8.13-8.69-15.86-8.94-7.72-.26-14.97,5.1-26.38,6.81-11.41,1.71-17.12,1.92-17.12,1.92Z" style="stroke-width: 0px;"/>
      <path d="M104.87,18.46s4.48-6.8,7.69-10.05c3.21-3.25,6.57-4.74,6.57-4.74,0,0-4.05,2.88-6.7,6.81-2.65,3.93,2.11-.08,6.84-3.56,4.73-3.47,1.65-.46,13.35-3.67,11.71-3.21,13.22-1.78,13.22-1.78,0,0-4.63,3.93-9.97,9.87-5.34,5.94-14.07,5.27-21.78,5.54-7.71.27-9.23,1.57-9.23,1.57Z" style="fill:url(#e); mix-blend-mode:multiply; opacity:.88; stroke-width:0px;"/>
    </g>
  </g>
</svg>