<?xml version="1.0" encoding="utf-8"?>
<svg viewBox="0 0 151.69 20.2" xmlns="http://www.w3.org/2000/svg" xmlns:xlink="http://www.w3.org/1999/xlink">
  <defs>
    <linearGradient id="e" x1="0" y1="9.53" x2="36.54" y2="9.53" gradientUnits="userSpaceOnUse">
      <stop offset="0" stop-color="#ffeadb"/>
      <stop offset="0.99" stop-color="#b060f4"/>
    </linearGradient>
    <linearGradient id="g" x1="115.15" x2="151.69" xlink:href="#e"/>
  </defs>
  <g style="isolation:isolate;">
    <g id="b">
      <g id="c">
        <path d="M55.08,7.36c-5.4,9.68-12.84,12.84-12.84,12.84-1.73,0-3.59-.42-5.67-1.12,0,0-.01,0-.02-.01-3.97-1.33-8.75-3.68-14.96-6.12C12.09,9.22,0,9.22,0,9.22,11.9-.64,23.07,0,23.07,0l-4.02,2.25s3.18-.19,11.9,1.86c.7.16,1.42.34,2.18.54l.71.18c.37.09.74.19,1.13.3,10.87,2.88,17.3,2.23,17.3,2.23l-1.86,2.79,4.65-2.79Z" style="fill-rule: evenodd; stroke-width: 0px; fill: fillColor;"/>
        <path d="M36.54,19.07c-3.97-1.33-8.75-3.68-14.96-6.12C12.09,9.22,0,9.22,0,9.22,11.9-.64,23.07,0,23.07,0l-4.02,2.25C9.24,3.33,4.5,7.64,4.5,7.64c0,0,5.69.77,10.61,0,4.92-.77,15.83-3.52,15.83-3.52l2.18.54.71.18s-14.75,3.86-13.51,4.5c5.22,2.68,15.56,9.33,16.2,9.74Z" style="fill:url(#e); fill-rule:evenodd; mix-blend-mode:multiply; opacity:.6; stroke-width:0px;"/>
        <path d="M96.61,7.36c5.4,9.68,12.84,12.84,12.84,12.84,1.73,0,3.59-.42,5.67-1.12,0,0,.01,0,.02-.01,3.97-1.33,8.75-3.68,14.96-6.12,9.49-3.72,21.58-3.72,21.58-3.72C139.78-.64,128.62,0,128.62,0l4.02,2.25s-3.18-.19-11.9,1.86c-.69.16-1.42.34-2.18.54l-.71.18c-.37.09-.74.19-1.13.3-10.87,2.88-17.3,2.23-17.3,2.23l1.86,2.79-4.65-2.79Z" style="fill-rule: evenodd; stroke-width: 0px; fill: fillColor;"/>
        <path d="M115.15,19.07c3.97-1.33,8.75-3.68,14.96-6.12,9.49-3.72,21.58-3.72,21.58-3.72C139.78-.64,128.62,0,128.62,0l4.02,2.25c9.81,1.08,14.55,5.38,14.55,5.38,0,0-5.69.77-10.61,0-4.92-.77-15.83-3.52-15.83-3.52l-2.18.54-.71.18s14.75,3.86,13.51,4.5c-5.22,2.68-15.56,9.33-16.2,9.74Z" style="fill:url(#g); fill-rule:evenodd; mix-blend-mode:multiply; opacity:.6; stroke-width:0px;"/>
      </g>
    </g>
  </g>
</svg>