<?xml version="1.0" encoding="UTF-8"?><svg xmlns="http://www.w3.org/2000/svg" xmlns:xlink="http://www.w3.org/1999/xlink" viewBox="0 0 126.23 158.24"><defs><linearGradient id="d" x1="63.07" y1="158.24" x2="63.07" y2="113.76" gradientUnits="userSpaceOnUse"><stop offset="0" stop-color="#ffb09a"/><stop offset=".21" stop-color="#ff9b8d"/><stop offset=".47" stop-color="#ff8780"/><stop offset=".74" stop-color="#ff7b79"/><stop offset="1" stop-color="#f77"/></linearGradient><radialGradient id="e" cx="62.89" cy="150.76" fx="62.89" fy="150.76" r="30.73" gradientUnits="userSpaceOnUse"><stop offset="0" stop-color="#b307b9"/><stop offset="1" stop-color="#ba4ad6"/></radialGradient><linearGradient id="f" x1="-1685.98" y1="94.6" x2="-1685.98" y2="64.22" gradientTransform="translate(-1667.67) rotate(-180) scale(1 -1)" xlink:href="#d"/><linearGradient id="g" x1="-1685.16" y1="86.59" x2="-1685.16" y2="68.52" gradientTransform="translate(-1667.67) rotate(-180) scale(1 -1)" gradientUnits="userSpaceOnUse"><stop offset="0" stop-color="#ffe7d8"/><stop offset=".29" stop-color="#f9bdc9"/><stop offset=".59" stop-color="#f597bb"/><stop offset=".84" stop-color="#f27fb3"/><stop offset=".99" stop-color="#f177b0"/></linearGradient><linearGradient id="h" x1="-1687.45" y1="86.18" x2="-1687.45" y2="72.76" xlink:href="#g"/><linearGradient id="i" x1="109.24" y1="94.6" x2="109.24" y2="64.22" xlink:href="#d"/><linearGradient id="j" x1="110.06" y1="86.93" x2="110.06" y2="68.86" gradientTransform="matrix(1,0,0,1,0,0)" xlink:href="#g"/><linearGradient id="k" x1="107.76" y1="86.52" x2="107.76" y2="73.11" gradientTransform="matrix(1,0,0,1,0,0)" xlink:href="#g"/><linearGradient id="l" x1="63.77" y1="123.52" x2="63.77" y2="10.73" gradientUnits="userSpaceOnUse"><stop offset="0" stop-color="#f2ad97"/><stop offset=".18" stop-color="#f4ac8d"/><stop offset=".51" stop-color="#f9ab80"/><stop offset=".57" stop-color="#faa67c"/><stop offset=".78" stop-color="#fd9a75"/><stop offset="1" stop-color="#ff9673"/></linearGradient><linearGradient id="m" x1="63.11" y1="121.86" x2="63.11" y2="115.58" gradientUnits="userSpaceOnUse"><stop offset="0" stop-color="#ce77f1"/><stop offset=".16" stop-color="#d17fef"/><stop offset=".41" stop-color="#dc97e9"/><stop offset=".71" stop-color="#ecbde1"/><stop offset="1" stop-color="#ffe7d8"/></linearGradient><linearGradient id="n" x1="63.32" y1="134.94" x2="63.32" y2="43.24" gradientUnits="userSpaceOnUse"><stop offset="0" stop-color="#36062c"/><stop offset="1" stop-color="#441b3e"/></linearGradient></defs><g style="isolation:isolate;"><g id="b"><g id="c"><path d="M27.63,131.01s10.28-3.25,28.66-4.95c28.29-2.63,45.14,2.82,45.14,2.82,0,0,8.67-17.58,9.12-36.31s-6.82-75.7-44.66-80.08C28.05,8.1,7.95,82.34,10.2,94.94c2.25,12.6,17.43,36.07,17.43,36.07Z" style="fill:#290521; stroke-width:0px;"/><path d="M79.07,139.37c-1.25-3.62,0-25.61,0-25.61l-15.99,1.04-15.99-1.04s1.25,21.98,0,25.61c-2.52,7.29-9.03,16.16-24.42,18.87h80.83c-15.4-2.71-21.91-11.57-24.42-18.87Z" style="fill:url(#d); stroke-width:0px;"/><path d="M47.32,126.93s13.97,12.04,31.5,7l.25-20.16s-9.24,6.59-31.96.9l.21,12.27Z" style="fill:#ce77b5; mix-blend-mode:multiply; opacity:.6; stroke-width:0px;"/><path d="M105.69,158.24H20.08s17.4-9.85,17.85-10.98c1.06-2.65,2.27-3.98,2.27-3.98,3.85,0,4.2,1.68,4.2,1.68,0,0,2.04,12.66,21.46,12.66,12.51,0,17.11-10.93,17.11-10.93l-.99-1.37,1.96-1.47s2.99,4.29,3.73,4.81c3.14,2.2,18.03,9.58,18.03,9.58Z" style="fill:url(#e); stroke-width:0px;"/><path d="M24.03,69.83s-3.77-5.62-8.32-5.61c-2.61,0-6.72,1.48-6.71,10.03,0,3.76,9.65,21.27,18.62,20.31l-3.59-24.73Z" style="fill:url(#f); stroke-width:0px;"/><path d="M11.54,76.25c0-.38-2.27-8.52,3.07-7.68,6.49,1.03,9.31,16.52,9.31,16.52,0,0-.86-2.99-3.07-3.38-2.21-.38-1.55,5.95-3.36,4.7-1.82-1.25-2.79-12.76,0-13.34,0,0-1.83-1.74-3.73-1.55-2.6.26-2.22,4.72-2.22,4.72Z" style="fill:url(#g); mix-blend-mode:multiply; opacity:.6; stroke-width:0px;"/><path d="M20.07,73.86c-2.59-3.19-4.96,1.14-4.31,5.76.65,4.62.85,7.26,2.33,6.4,1.48-.86.79-4.7,2.75-4.29,1.97.41,3.07,3.72,3.07,3.72,0,0-1.63-8.84-3.85-11.58Z" style="fill:url(#h); mix-blend-mode:multiply; opacity:.6; stroke-width:0px;"/><path d="M103.51,69.83s3.77-5.62,8.32-5.61c2.61,0,6.72,1.48,6.71,10.03,0,3.76-9.65,21.27-18.62,20.31l3.59-24.73Z" style="fill:url(#i); stroke-width:0px;"/><path d="M116.01,76.6c0-.38,2.27-8.52-3.07-7.68-6.49,1.03-9.31,16.52-9.31,16.52,0,0,.86-2.99,3.07-3.38,2.21-.38,1.55,5.95,3.36,4.7,1.82-1.25,2.79-12.76,0-13.34,0,0,1.83-1.74,3.73-1.55,2.6.26,2.22,4.72,2.22,4.72Z" style="fill:url(#j); mix-blend-mode:multiply; opacity:.6; stroke-width:0px;"/><path d="M107.48,74.21c2.59-3.19,4.96,1.14,4.31,5.76-.65,4.62-.85,7.26-2.33,6.4-1.48-.86-.79-4.7-2.75-4.29-1.97.41-3.07,3.72-3.07,3.72,0,0,1.63-8.84,3.85-11.58Z" style="fill:url(#k); mix-blend-mode:multiply; opacity:.6; stroke-width:0px;"/><path d="M99.26,101.22c-1.12,3.66-5.55,7.92-11.46,11.95-1.1.74-2.24,1.48-3.43,2.21,0,0,0,0,0,0-.95.58-1.92,1.15-2.91,1.71-8.86,5-12.58,6.41-17.62,6.43h0s-.13,0-.13,0h0c-5.04-.03-8.75-1.43-17.62-6.43-1.46-.82-2.87-1.67-4.22-2.53-.01,0-.02-.01-.02-.01-.65-.41-1.29-.83-1.91-1.25-6.01-4.07-10.52-8.37-11.65-12.08-1.49-4.88-7.62-51.5-7.01-59.71.26-3.52,3.67-9.67,9.39-15.56,7.59-7.82,19.26-15.16,33.04-15.21h0s.13,0,.13,0h0c14.73.05,27.04,8.43,34.55,16.82,0,0,0,0,0,0,4.81,5.37,7.64,10.75,7.88,13.95.61,8.21-5.52,54.83-7.01,59.71Z" style="fill:url(#l); stroke-width:0px;"/><path d="M84.36,115.38c-.95.58-1.92,1.15-2.91,1.71-8.86,5-12.58,6.41-17.62,6.43h0s-.13,0-.13,0h0c-5.04-.03-8.75-1.43-17.62-6.43-1.46-.82-2.87-1.67-4.22-2.53.61.35,13.68,7.78,21.92,7.78s20.2-6.75,20.57-6.96Z" style="fill:url(#m); mix-blend-mode:multiply; opacity:.6; stroke-width:0px;"/><path d="M122.3,85.38c-.02-.05-.02-.08-.02-.08-.82-2.69-1.66-5.35-2.4-8.01-.8-2.86-1.48-5.71-1.91-8.57-.4-2.72-.73-12.81-1.02-14.92v-.02c-1.09-8.06-1.58-12.44-3.48-19.39-2.4-8.76-21.28-14.43-24.65-16.62C80.05,12.09,75.37,1.3,61.64.09c-13.73-1.21-20.88,9.67-35.22,21.15h0s-2.29,1.84-2.29,1.84c0,0-.01,0-.01,0-12.4,9.92-15.4,12.4-18.65,20.38-3.45,8.45,0,28.27-2.7,40.89-1.08,5.05-1.97,10.68-2.25,16.13-.18,3.46-.11,6.85.31,9.97.57,4.2,1.78,7.9,3.89,10.63,2.37,3.05,5.3,5.13,8.02,6.53.66.98,1.41,1.91,2.24,2.76,0,0,1.12.61,3.11,1.39.05.02.07.03.07.03l.05.02c.75.29,1.64.61,2.62.93h.01c2.22.72,4.99,1.44,8.16,1.9.01,0,.02,0,.04,0h.09c1.13.18,2.32.31,3.56.39h0s.03,0,.05,0h0c1.77.13,3.63.16,5.56.07,0,0-14.35-17.08-15.97-42.2.17,1.16,2.19,16.55,5.65,18.28-.07-.34,0,0-1-10.83,0-.02,0-.04,0-.06-.58-6.2-.91-13.37-.57-20.62.95-20.24,11.42-50.8,19.35-56.57,7.92-5.78,28.19-6.41,34.93-1.43l-.39-2.15,2.04,1.7.23.19.59-.6,2.33,1.29-1.05,1.01s2.08,1.93,4.81,5.17c0,0,.02.01.02.02,4.07,4.83,9.59,12.56,11.88,21.16,3.84,14.39-.43,65.91-4.37,79.89,0,0,5.66-7.39,8.16-15.15-1.29,4.91-3.91,12.62-8.73,19.15,0,0,5.46,1.45,11.76-2.15,4.68-2.68,9.94-9.33,13.21-15.16-.29.62-3.99,8.63-9.12,13.29-.02.01-.02.02-.03.02s-.01,0-.01,0c-.69.63-1.4,1.18-2.13,1.66.45-.21,14.86-7.12,16.19-21.5.78-8.46-1.41-16.37-3.76-24.09ZM6.96,112.84c-.93-5.26-.68-12.01,1.72-20.65-.15.75-3.04,15.43.51,27.64-.97-1.97-1.76-4.28-2.23-6.99Z" style="fill:url(#n); stroke-width:0px;"/><path d="M82.35,21.21l-2.04-1.7.39,2.15c-6.75-4.98-27.01-4.35-34.93,1.43-7.93,5.78-18.4,36.33-19.35,56.57-.34,7.26,0,14.42.57,20.62-3.4-24.56,1.34-51.88,1.34-51.88,0,0-5.98,26.52-7.48,50.14-1.48,23.27,11.51,36.11,11.9,36.48h0s-.05,0-.05,0h0l-3.56-.38h-.09s-.03-.01-.03-.01h0c-.27-.2-8.74-6.6-9.52-25.17-.76-18.35,5.43-42.66,5.76-43.95-.37,1.05-6.3,18.15-9.06,38.86-1.79,13.45.51,21.2,2.46,25.1.08.17.17.33.26.48.97,1.82,1.81,2.66,1.92,2.78l-2.62-.93-.05-.02s-.02,0-.07-.03c-.29-.14-1.37-.75-2.35-2.81-.24-.51-.49-1.11-.71-1.81-1.1-3.53-1.7-9.67-.05-20.28,3.5-22.6,12.1-61.14,12.1-61.14,0,0-13.25,25.89-18.39,46.42,0,.01,0,.02,0,.03-2.31,9.22-2.36,16-1.72,20.65.76,5.47,2.48,8.03,2.61,8.23h0c-.24-.11-6.48-3.44-8.75-10.62-.84-2.64-1.13-5.79-.4-9.49.03-.16.07-.31.1-.47,3.02-14.07,19.16-46.16,28.5-61.26,9.3-15.02,16.5-26.39,16.72-26.74-8.64,5.21-21.22,10.43-21.61,10.59l2.29-1.84h0c.18-.08,3.22-1.3,11.03-5.37C45.51,11.69,60.59-.51,69.07,3.34c8.47,3.85,14.1,17.45,14.1,17.45l-.81.41Z" style="fill:#ce77b5; mix-blend-mode:multiply; opacity:.9; stroke-width:0px;"/><path d="M126.07,109.47c-1.33,14.39-15.73,21.29-16.19,21.5.73-.47,1.44-1.03,2.13-1.66,0,0,0,0,.01,0s.01-.01.03-.02c5.13-4.65,8.84-12.66,9.12-13.29-3.27,5.84-8.53,12.48-13.21,15.16-6.3,3.61-11.76,2.15-11.76,2.15,4.82-6.53,7.43-14.24,8.73-19.15-2.5,7.76-8.16,15.15-8.16,15.15,3.94-13.98,8.21-65.49,4.37-79.89-2.29-8.6-7.81-16.33-11.88-21.16.66.56,10.21,7.75,14.52,27.86,4.38,20.44-.17,58.93-.34,59.81.24-.8,9.25-31.18,5.77-50.99.23,1.03,4.82,22.88,1.87,40.09-2.97,17.35-6.11,22.89-6.2,23.06.26-.12,18-1.41,17.77-24.48-.17-17.6-6.55-27.19-7.19-39.01l1.48-10.84s0,14.25,2.93,23.5c2.31,7.31,2.97,16.62,4.24,24.51,2.46,15.34-8.93,25.09-11.57,27.13,2.64-1.97,14.12-11.32,13.03-23.09-1.15-12.44-3.05-19.61-3.28-20.46,2.36,7.72,4.54,15.64,3.76,24.09Z" style="fill:#ce77b5; mix-blend-mode:multiply; opacity:.9; stroke-width:0px;"/><path d="M9.57,121.07s-8.93-7.69-7.52-21.27c1.41-13.58,13.44-30.24,13.44-30.24,0,0-3.02,9.41-6.8,21.06-3.78,11.65-3.76,20.13.87,30.45Z" style="fill:#ce77b5; mix-blend-mode:multiply; opacity:.9; stroke-width:0px;"/><path d="M29.13,134.66s-15.76-15.33-7.64-50.78c0,0-7.12,29.49,11.2,51.16l-3.56-.38Z" style="fill:#ce77b5; mix-blend-mode:multiply; opacity:.9; stroke-width:0px;"/><path d="M84.44,23.09s9.18,5.26,17.34,13.95c8.16,8.69,15.17,16.09,15.17,16.09l-.23-1.06s-5.43-7.63-13.9-15.86c-8.47-8.24-16.61-12.65-16.61-12.65,0,0,10.24,3.15,18.79,10.12,8.55,6.97,10.7,11.09,10.7,11.09l-.61-3.53s-6.3-7.9-14.38-12.03c-8.08-4.14-15.89-6.46-15.89-6.46l-.36.35Z" style="fill:#ce77b5; mix-blend-mode:multiply; opacity:.9; stroke-width:0px;"/><path d="M17.69,28.28s-1.13,2.4.5,4.15c1.63,1.76,8.8-.57,10.81-.62,2.01-.06,5.5-1.43,5.5-1.43l-7.39,11.9s.64-1.51-.88-3.15c-1.52-1.64-8.44.96-11.93-.57-3.49-1.53-1.54-5.97-1.54-5.97l4.92-4.31Z" style="fill:#ffd6b8; mix-blend-mode:soft-light; stroke-width:0px;"/><path d="M96.96,37.94s4.54,8.58,6.81,16.12c0,0,.32-2.66,2.34-5.38s3.23-2.68,3.23-2.68l-6.53-7.86-5.85-.2Z" style="fill:#ffd6b8; mix-blend-mode:soft-light; stroke-width:0px;"/><path d="M103.79,37.17l3.1-1.9s3.01,2.53,4.85,4.56l-2.01,3.64s-4.96-5.34-5.94-6.3Z" style="fill:#ffd6b8; mix-blend-mode:soft-light; stroke-width:0px;"/></g></g></g></svg>