<?xml version="1.0" encoding="UTF-8"?><svg xmlns="http://www.w3.org/2000/svg" xmlns:xlink="http://www.w3.org/1999/xlink" viewBox="0 0 96.72 149.35"><defs><linearGradient id="d" x1="49.03" y1="148.8" x2="49.03" y2="86.27" gradientUnits="userSpaceOnUse"><stop offset="0" stop-color="#c7544b"/><stop offset="1" stop-color="#b63651"/></linearGradient><linearGradient id="e" x1="10.7" y1="148.07" x2="10.7" y2="89.89" gradientUnits="userSpaceOnUse"><stop offset="0" stop-color="#ffeadb"/><stop offset=".99" stop-color="#d177f4"/></linearGradient><linearGradient id="f" x1="51.67" y1="148.8" x2="51.67" y2="88.18" xlink:href="#e"/><linearGradient id="g" x1="47.75" y1="149.34" x2="47.75" y2="110.08" gradientUnits="userSpaceOnUse"><stop offset="0" stop-color="#ffb09a"/><stop offset=".21" stop-color="#ff9b8d"/><stop offset=".47" stop-color="#ff8780"/><stop offset=".74" stop-color="#ff7b79"/><stop offset="1" stop-color="#f77"/></linearGradient><radialGradient id="h" cx="47.58" cy="142.74" fx="47.58" fy="142.74" r="27.13" gradientUnits="userSpaceOnUse"><stop offset="0" stop-color="#d40757"/><stop offset="1" stop-color="#e94aa4"/></radialGradient><linearGradient id="i" x1="-2488.73" y1="93.15" x2="-2488.73" y2="66.33" gradientTransform="translate(-2480.51) rotate(-180) scale(1 -1)" xlink:href="#g"/><linearGradient id="j" x1="-2488" y1="86.08" x2="-2488" y2="70.13" gradientTransform="translate(-2480.51) rotate(-180) scale(1 -1)" gradientUnits="userSpaceOnUse"><stop offset="0" stop-color="#ffe7d8"/><stop offset=".29" stop-color="#f9bdc9"/><stop offset=".59" stop-color="#f597bb"/><stop offset=".84" stop-color="#f27fb3"/><stop offset=".99" stop-color="#f177b0"/></linearGradient><linearGradient id="k" x1="-2490.03" y1="85.72" x2="-2490.03" y2="73.88" xlink:href="#j"/><linearGradient id="l" x1="88.5" y1="93.15" x2="88.5" y2="66.33" xlink:href="#g"/><linearGradient id="m" x1="89.23" y1="86.39" x2="89.23" y2="70.43" gradientTransform="matrix(1,0,0,1,0,0)" xlink:href="#j"/><linearGradient id="n" x1="87.2" y1="86.03" x2="87.2" y2="74.18" gradientTransform="matrix(1,0,0,1,0,0)" xlink:href="#j"/><radialGradient id="o" cx="48.36" cy="46.57" fx="48.36" fy="46.57" r="44.1" gradientUnits="userSpaceOnUse"><stop offset=".02" stop-color="#ffa774"/><stop offset="1" stop-color="#ff9b91"/></radialGradient><linearGradient id="p" x1="47.78" y1="117.22" x2="47.78" y2="111.68" gradientUnits="userSpaceOnUse"><stop offset="0" stop-color="#ce77f1"/><stop offset=".16" stop-color="#d17fef"/><stop offset=".41" stop-color="#dc97e9"/><stop offset=".71" stop-color="#ecbde1"/><stop offset="1" stop-color="#ffe7d8"/></linearGradient><linearGradient id="q" x1="44.79" y1="8.9" x2="44.79" y2="0" gradientUnits="userSpaceOnUse"><stop offset="0" stop-color="#db6a4b"/><stop offset="1" stop-color="#b63651"/></linearGradient><linearGradient id="r" x1="48.8" y1="21.22" x2="48.8" y2="2.49" gradientUnits="userSpaceOnUse"><stop offset="0" stop-color="#b63651"/><stop offset="1" stop-color="#db6a4b"/></linearGradient><linearGradient id="s" x1="48.29" y1="90.36" x2="48.29" y2="17.11" xlink:href="#q"/><linearGradient id="t" x1="36.37" y1="90.85" x2="36.37" y2="26.37" gradientUnits="userSpaceOnUse"><stop offset="0" stop-color="#d23651"/><stop offset="1" stop-color="#ff7a4b"/></linearGradient><linearGradient id="u" x1="71.86" y1="71.48" x2="71.86" y2="36.12" xlink:href="#t"/><linearGradient id="v" x1="34.57" y1="68.62" x2="34.57" y2="32.21" xlink:href="#t"/></defs><g style="isolation:isolate;"><g id="b"><g id="c"><path d="M95.47,139.07c-.68,2.86-3.06,5.15-5.41,6.78-.59.41-1.19.79-1.76,1.12-2.06,1.21-3.74,1.83-3.74,1.83,0,0-6.37-.03-15.23-.08h-1.19c-18.76-.11-47.42-.33-51.39-.65-.85-.06-1.74-.17-2.64-.3-.77-.1-1.56-.24-2.33-.41-4.61-.96-8.89-2.8-9.31-5.79-.58-4.08,2.85-6.76,3.84-12.23.99-5.47-3.27-8.15-3.81-16.07-.43-6.33,4.25-17.45,6.15-21.66,0,0,0-.02,0-.03.47-1.04.77-1.65.77-1.65,0,0,.13-.02.38-.04.64-.07,2.06-.23,4.09-.43,3.3-.33,8.19-.8,13.9-1.28,22.07-1.86,56.35-3.82,57.88,1.75.55,2,1.12,3.46,1.7,4.66h0c.31.66.64,1.24.96,1.78.02.02.02.03.03.05,1.53,2.56,3.13,4.45,4.67,10.37,2.47,9.51-2.06,15.72-2.87,19.64-.82,3.94,6.77,6.46,5.3,12.65Z" style="fill:url(#d); stroke-width:0px;"/><path d="M16.76,148.07l-2.64-.3-1.72-.19s-.23-.06-.61-.21c-1.57-.61-5.58-2.54-5.48-6.41.12-4.8,6.91-4.75,6.96-11.32.06-6.58-9.68-11.08-8.53-21.19.75-6.62,2.69-13.13,3.92-16.83,0,0,0-.02,0-.03.47-1.04.77-1.65.77-1.65,0,0,.13-.02.38-.04-1.16,3.21-3.78,11.37-3.49,19.76.37,10.78,7.39,13.92,7.88,19.86.49,5.94-4.52,8.5-4.36,12.29.16,3.78,6.92,6.27,6.92,6.27Z" style="fill:url(#e); mix-blend-mode:multiply; stroke-width:0px;"/><path d="M90.4,110.01c-.81,10.05-6.71,15.54-5.84,24.33.88,8.78,5.78,9.38,5.49,11.52l-1.76,1.12s.77-.92-3.27-7.35c-4.04-6.42,2.67-18.91,3.8-25.02,1.11-5.95-3.07-15.36-3.31-15.87.15.41,2.64,7.9-3.89,18.8-6.72,11.22-9.43,15.92-7.48,20.88,1.95,4.95,10.41,10.39,10.41,10.39l-2.53-.83s-10.38-6.65-9.5-14.44c.87-7.8,8.84-15.31,10.23-23.87,1.39-8.55,0-12.1,0-12.1l-1.62.7s-.46,8.03-6.23,19.91c-5.76,11.87-5.59,21.22-1.4,26.7l-1.03-.43s-6.41-9.92-4.24-17.02c2.17-7.11,6.13-11.27,8.62-15.53,2.49-4.26,1.88-10.16,1.88-10.16,0,0-5.39,13.22-10.94,20.46-5.55,7.25-1.47,18.56-1.47,18.56l3.02,7.96.03.08-1.22-.08-34.58-2.47s-8.8-20.48-3.09-31.89l-1.93-2.36s-4.52,11.88-5.99,21.02c-1.46,9.14,2.02,12.01,2.02,12.01l-.64,1.4s-4.52-7.64-2.24-15.94c2.28-8.3,5.87-15.64,5.78-18.5l-5.19-6.38-2.02-13.61h-3.97s-2.3,7.13.86,19.99c3.16,12.87-2.42,25.39-1.67,29.81.76,4.42,4.46,5.1,4.46,5.1l-1.38.52s-5.91-5.36-5.75-8.13c.16-2.78,5.42-9.63,4.79-18.89-.65-9.25-3.49-16.15-2.97-22.61.52-6.46,1.27-7.76,1.27-7.76l-2.02-.56c3.3-.33,8.19-.8,13.9-1.28l58.88,5.02s0,0,0,0c.07.09,1.17,2.08,1.66,3.16.02.02.02.03.03.05,1.08,2.36,2.57,6.96,2.03,13.6Z" style="fill:url(#f); mix-blend-mode:multiply; stroke-width:0px;"/><path d="M89.96,128.26s3.85,5.15,4.77,7.25c.92,2.09.37,3.77.37,3.77,0,0-.65-1.89-2.49-1.54-1.84.35-5.34,2.27-5.34,2.27,0,0-1.83-3.19-1.51-5.11,0,0,4.18-1.14,4.76-2.4.58-1.27-.56-4.24-.56-4.24Z" style="fill:#ffd9bb; mix-blend-mode:soft-light; stroke-width:0px;"/><path d="M76.57,136.47s.08,2.94,1.79,5.18c0,0,3.27-2.37,6.62-1.21,0,0-1.9-2.96-1.56-4.79,0,0-3.93.64-6.85.82Z" style="fill:#ffd9bb; mix-blend-mode:soft-light; stroke-width:0px;"/><path d="M4.24,136.44h2.83s-2.28,4.83-.82,8.5c0,0-2.17-.52-3.28-2.69-1.1-2.17,1.26-5.81,1.26-5.81Z" style="fill:#ffd9bb; mix-blend-mode:soft-light; stroke-width:0px;"/><path d="M10.9,143.75s-1.66-3.41.71-5.97l1.22-.38s-.62,2.7.52,5.6l-2.45.75Z" style="fill:#ffd9bb; mix-blend-mode:soft-light; stroke-width:0px;"/><path d="M91.28,107.97s.27,3.23-1.79,9.56c0,0,2.94-.38,3.56-1.7.61-1.33,0-6.23,0-6.23l-1.76-1.63Z" style="fill:#ffd9bb; mix-blend-mode:soft-light; stroke-width:0px;"/><path d="M3.56,116.43l1.08-.22s-1.25-7.55,0-11.79c0,0-3.69,6.29-1.08,12.01Z" style="fill:#ffd9bb; mix-blend-mode:soft-light; stroke-width:0px;"/><path d="M61.86,132.69c-1.1-3.2,0-22.61,0-22.61l-14.12.92-14.12-.92s1.1,19.41,0,22.61c-2.22,6.44-7.97,14.27-21.56,16.66h71.36c-13.59-2.39-19.34-10.22-21.56-16.66Z" style="fill:url(#g); stroke-width:0px;"/><path d="M33.83,121.7s12.33,10.63,27.81,6.18l.22-17.8s-8.16,5.82-28.22.79l.18,10.83Z" style="fill:#ce77b5; mix-blend-mode:multiply; opacity:.6; stroke-width:0px;"/><path d="M85.37,149.35H9.79s15.36-8.7,15.76-9.7c.94-2.34,2-3.51,2-3.51,3.4,0,3.71,1.48,3.71,1.48,0,0,1.8,11.18,18.94,11.18,11.05,0,15.1-9.65,15.1-9.65l-.87-1.21,1.73-1.3s2.64,3.79,3.29,4.24c2.77,1.95,15.91,8.45,15.91,8.45Z" style="fill:url(#h); stroke-width:0px;"/><path d="M13.27,71.29s-3.33-4.96-7.35-4.96C3.62,66.33-.01,67.64,0,75.19c0,3.32,8.52,18.78,16.44,17.93l-3.17-21.83Z" style="fill:url(#i); stroke-width:0px;"/><path d="M2.24,76.96c0-.34-2-7.52,2.71-6.78,5.73.91,8.22,14.59,8.22,14.59,0,0-.76-2.64-2.71-2.98-1.95-.34-1.37,5.25-2.97,4.15-1.6-1.1-2.46-11.27,0-11.78,0,0-1.62-1.54-3.29-1.37-2.29.23-1.96,4.17-1.96,4.17Z" style="fill:url(#j); mix-blend-mode:multiply; opacity:.6; stroke-width:0px;"/><path d="M9.77,74.85c-2.28-2.82-4.38,1.01-3.8,5.08.57,4.08.75,6.41,2.06,5.65,1.31-.76.7-4.15,2.43-3.79,1.74.36,2.71,3.28,2.71,3.28,0,0-1.44-7.81-3.4-10.23Z" style="fill:url(#k); mix-blend-mode:multiply; opacity:.6; stroke-width:0px;"/><path d="M83.45,71.29s3.33-4.96,7.35-4.96c2.31,0,5.94,1.31,5.92,8.86,0,3.32-8.52,18.78-16.44,17.93l3.17-21.83Z" style="fill:url(#l); stroke-width:0px;"/><path d="M94.48,77.27c0-.34,2-7.53-2.71-6.78-5.73.91-8.22,14.59-8.22,14.59,0,0,.76-2.64,2.71-2.98,1.95-.34,1.37,5.25,2.97,4.15,1.6-1.1,2.46-11.27,0-11.78,0,0,1.62-1.54,3.29-1.37,2.29.23,1.96,4.17,1.96,4.17Z" style="fill:url(#m); mix-blend-mode:multiply; opacity:.6; stroke-width:0px;"/><path d="M86.95,75.15c2.28-2.82,4.38,1.01,3.8,5.08-.57,4.08-.75,6.41-2.06,5.65-1.31-.76-.7-4.15-2.43-3.79-1.74.36-2.71,3.28-2.71,3.28,0,0,1.44-7.81,3.4-10.23Z" style="fill:url(#n); mix-blend-mode:multiply; opacity:.6; stroke-width:0px;"/><path d="M79.69,99c-.98,3.23-4.9,6.99-10.12,10.55-.97.66-1.98,1.31-3.03,1.95,0,0,0,0,0,0-.83.51-1.69,1.02-2.57,1.51-7.82,4.42-11.11,5.66-15.55,5.68h0s-.11,0-.11,0h0c-4.45-.02-7.73-1.26-15.55-5.68-1.29-.73-2.53-1.47-3.73-2.24-.01,0-.02-.01-.02-.01-.58-.37-1.14-.73-1.69-1.11-5.3-3.59-9.29-7.39-10.29-10.66-1.31-4.31-6.73-45.47-6.19-52.72.23-3.11,3.24-8.54,8.29-13.74,6.71-6.9,17.01-13.39,29.18-13.43h0s.11,0,.11,0h0c13,.05,23.87,7.44,30.5,14.85,0,0,0,0,0,0,4.24,4.74,6.75,9.49,6.96,12.31.54,7.25-4.87,48.41-6.19,52.72Z" style="fill:url(#o); stroke-width:0px;"/><path d="M66.54,111.5c-.83.51-1.69,1.02-2.57,1.51-7.82,4.42-11.11,5.66-15.55,5.68h0s-.11,0-.11,0h0c-4.45-.02-7.73-1.26-15.55-5.68-1.29-.73-2.53-1.47-3.73-2.24.54.31,12.08,6.87,19.35,6.87s17.84-5.96,18.16-6.15Z" style="fill:url(#p); mix-blend-mode:multiply; opacity:.6; stroke-width:0px;"/><path d="M40.46,8.9s-3.29-5.61.75-8.28c4.05-2.66,9.16,4.14,9.16,4.14l-9.92,4.14Z" style="fill:url(#q); stroke-width:0px;"/><path d="M34.55,21.22s-8.5-4.12-3.76-10.74c0,0,1.23,9.19,5.59,9.85,0,0-4.23-7.53,5.84-14.66,10.07-7.14,14.53,0,14.53,0,0,0,9.91,2.43,4.07,14.31,0,0,10.71-16.27.72-17.48,0,0,14.82.75.43,18.04l-27.42.68Z" style="fill:url(#r); stroke-width:0px;"/><path d="M83.57,72.93s-.7-5.89-2.1-12.68c.19,3.35.2,7.14,0,11.41,0,0,0-.07-.02-.19-.35-2.36-4.07-26.14-19.48-35.35-.02-.01-.03-.01-.03-.01l1.04-.95-3.47-2.19.5,2.95-2.35-1.67.17,1.34s0,0-.03-.01c0,0-.03,0-.04,0-.02-.02-.04-.03-.08-.04-1.33-.45-10.75-3.4-20.65,1.64-6,3.06-10.89,8-14.21,14.45t0,.02c-2.59,5.02-4.23,10.96-4.71,17.62-.92,12.74.31,19.29.74,21.1-.56-1.95-2.5-9.14-3.64-17.13,0-.01,0-.02,0-.03-.19-1.35-.37-2.7-.51-4.07l-1.02,4.6s-5.69-13.82-4.04-25.45c1.66-11.62,23.2-31.17,39.62-31.17s34.3,19.69,37.36,28.42c2.65,7.58-3.01,27.4-3.01,27.4Z" style="fill:url(#s); stroke-width:0px;"/><path d="M81.65,61.18s5.72-4.99,4.92-15.65l-.72-1.7s1.5,8.49-4.55,15.66l.35,1.69Z" style="fill:#ffd9bb; mix-blend-mode:soft-light; opacity:.5; stroke-width:0px;"/><path d="M80.14,52.5s2.54-9,1.17-16.04l-5.14-5.37s1.59,6.5-.46,13.2c0,0,3.54,5.64,4.43,8.22Z" style="fill:#ffd9bb; mix-blend-mode:soft-light; opacity:.5; stroke-width:0px;"/><path d="M68.55,24.58s3.34,7.62,3.46,15.62l-.61-.56s-.5-9.51-4.63-16.3l1.78,1.24Z" style="fill:#ffd9bb; mix-blend-mode:soft-light; opacity:.5; stroke-width:0px;"/><path d="M32.46,36.97s1.13-10.86,8-18.27l-1.46.52s-5.46,6.21-6.95,18.26l.41-.51Z" style="fill:#ffd9bb; mix-blend-mode:soft-light; opacity:.5; stroke-width:0px;"/><path d="M30.78,23.35s-2.2,5.82-.93,16.41l-1.43,2.04s-3.43-7.4-2.71-14.93l5.07-3.51Z" style="fill:#ffd9bb; mix-blend-mode:soft-light; opacity:.5; stroke-width:0px;"/><path d="M13.64,39.26s-.41,9.5,8.84,10.26v.95s-9.21,1.95-10.43-8.68l1.59-2.53Z" style="fill:#ffd9bb; mix-blend-mode:soft-light; opacity:.5; stroke-width:0px;"/><path d="M9.3,52.5s-.14,5.71,10.31,4.06l-1.21,3.68s-5.72.82-9.11-3.87v-3.87Z" style="fill:#ffd9bb; mix-blend-mode:soft-light; opacity:.5; stroke-width:0px;"/><path d="M57.81,35.59s0,0-.03-.01c0,0-.03,0-.04,0-1.32-.33-16.62-11.49-30.29,3.69-3.86,4.29-6.08,16.19-7.36,22.53-.1.42-.17.83-.24,1.25-.07.38-.13.76-.2,1.13-.06.4-.12.79-.18,1.2-.02.08-.03.15-.03.23v.02c-1.83,12.42-.54,24.53-.47,25.23,0-.01,0-.03,0-.04,0-.02-.02-.03-.02-.05-2.09-6.25-3.28-12.1-3.75-17.54,0-.01,0-.02,0-.03-2.42-28.04,14.17-44.89,24.49-46.57,12.32-2.01,18.16,8.97,18.16,8.97Z" style="fill:url(#t); stroke-width:0px;"/><path d="M57.78,35.58s-.03,0-.04,0c-1.32-.33-18.88-4.34-30.42,9.33-3.74,4.43-6.19,10.5-7.24,16.89.78-4.73,1.41-9.28,1.41-9.29,2.83-8.52,5.31-15.34,13.1-18.77,10.23-4.51,21.43,1.12,23.07,1.8.05.02.1.04.12.05Z" style="fill:#d177b8; mix-blend-mode:multiply; opacity:.6; stroke-width:0px;"/><path d="M81.44,71.48c-.35-2.36-4.07-26.14-19.48-35.35.56.18,9.47,3.2,13.74,10.65,4.14,7.2,5.57,22.78,5.73,24.71Z" style="fill:#d177b8; mix-blend-mode:multiply; opacity:.6; stroke-width:0px;"/><path d="M36.97,20.05s6.2-16.52,19.77-14.39l-.81-.96s-17.39-1.27-19.56,15.63l.6-.27Z" style="fill:#ffd9bb; mix-blend-mode:soft-light; opacity:.5; stroke-width:0px;"/><path d="M41.11,18.48s7.65-14.39,18.56-11.34l.61.51s-10.87-3.75-17.91,10.46l-1.26.37Z" style="fill:#ffd9bb; mix-blend-mode:soft-light; opacity:.5; stroke-width:0px;"/><path d="M50.1,17.13s4.54-7.78,12.38-5.58l.14,1.05s-3.56-2.31-11.93,4.51l-.6.02Z" style="fill:#ffd9bb; mix-blend-mode:soft-light; opacity:.5; stroke-width:0px;"/><path d="M61.96,36.12s9.89.62,15.67,8.82c5.78,8.2,3.81,26.53,3.81,26.53,0,0,1.03-27.65-19.48-35.35Z" style="fill:url(#u); stroke-width:0px;"/><path d="M50.1,32.26s-13.06-1.12-20.75,8.22c-7.7,9.34-9.93,25.13-9.93,25.13l-.38,3.02s3.42-20.12,10.32-26.83c9.85-9.58,20.75-9.54,20.75-9.54Z" style="fill:url(#v); stroke-width:0px;"/><path d="M29.26,32.21s3.08-2.77,5.4-3.82c0,0,1.1,4.25,1.6,4.39l-4.92,2.77s0-2.72-2.08-3.34Z" style="fill:#ffd9bb; mix-blend-mode:soft-light; stroke-width:0px;"/><path d="M50.1,9.1s2.01-.65,3.42,0c1.4.65,2.15,2.05,2.15,2.05,0,0,2.89-.83,3.88-.69,0,0-2.44-2.75-5.53-2.93,0,0-2.32.49-3.92,1.57Z" style="fill:#ffd9bb; mix-blend-mode:soft-light; stroke-width:0px;"/><path d="M49.02,6.52s.85,1.03,1.36,1.27c.51.24,3.16-.9,3.16-.9,0,0-.3-.92-1.62-.98-1.32-.06-2.9.62-2.9.62Z" style="fill:#ffd9bb; mix-blend-mode:soft-light; stroke-width:0px;"/></g></g></g></svg>