<?xml version="1.0" encoding="UTF-8"?><svg xmlns="http://www.w3.org/2000/svg" xmlns:xlink="http://www.w3.org/1999/xlink" viewBox="0 0 123.27 171.98"><defs><linearGradient id="d" x1="109.77" y1="97.8" x2="15.61" y2="159.29" gradientUnits="userSpaceOnUse"><stop offset="0" stop-color="#360217"/><stop offset="1" stop-color="#160221"/></linearGradient><linearGradient id="e" x1="119.71" y1="98.05" x2="64.7" y2="133.98" xlink:href="#d"/><linearGradient id="f" x1="130.79" y1="97.35" x2="67.58" y2="138.63" gradientUnits="userSpaceOnUse"><stop offset="0" stop-color="#721e24"/><stop offset="1" stop-color="#510036"/></linearGradient><linearGradient id="g" x1="119.19" y1="104.85" x2="63.61" y2="141.15" xlink:href="#f"/><linearGradient id="h" x1="-6.94" y1="142.51" x2="11.96" y2="132.48" gradientUnits="userSpaceOnUse"><stop offset="0" stop-color="#840e3b"/><stop offset="1" stop-color="#39002e"/></linearGradient><linearGradient id="i" x1="42.9" y1="77.1" x2="42.9" y2="165.19" gradientUnits="userSpaceOnUse"><stop offset="0" stop-color="#5c0b11"/><stop offset="1" stop-color="#510036"/></linearGradient><linearGradient id="j" x1="42.9" y1="119.24" x2="42.9" y2="130.12" gradientUnits="userSpaceOnUse"><stop offset="0" stop-color="#8680e8"/><stop offset="1" stop-color="#fff"/></linearGradient><linearGradient id="k" x1="28.45" y1="77.1" x2="28.45" y2="165.19" xlink:href="#i"/><linearGradient id="l" x1="50.33" y1="88.71" x2="-14.57" y2="131.1" xlink:href="#d"/><linearGradient id="m" x1="98.19" y1="63.81" x2="95.94" y2="127.38" gradientUnits="userSpaceOnUse"><stop offset="0" stop-color="#ca80e8"/><stop offset="1" stop-color="#fff"/></linearGradient><linearGradient id="n" x1="96.9" y1="115" x2="96.9" y2="125.24" xlink:href="#j"/><linearGradient id="o" x1="62.83" y1="170.52" x2="62.83" y2="124.35" gradientUnits="userSpaceOnUse"><stop offset="0" stop-color="#ffb09a"/><stop offset=".21" stop-color="#ff9b8d"/><stop offset=".47" stop-color="#ff8780"/><stop offset=".74" stop-color="#ff7b79"/><stop offset="1" stop-color="#f77"/></linearGradient><linearGradient id="p" x1="75.9" y1="161.55" x2="76.62" y2="130.7" gradientUnits="userSpaceOnUse"><stop offset="0" stop-color="#ffe7d8"/><stop offset=".29" stop-color="#ecbde1"/><stop offset=".59" stop-color="#dc97e9"/><stop offset=".84" stop-color="#d17fef"/><stop offset=".99" stop-color="#ce77f1"/></linearGradient><linearGradient id="q" x1="19.31" y1="111.3" x2="19.31" y2="80.32" xlink:href="#o"/><linearGradient id="r" x1="19.7" y1="101.51" x2="19.7" y2="85.23" gradientUnits="userSpaceOnUse"><stop offset="0" stop-color="#ffe7d8"/><stop offset=".29" stop-color="#f9bdc9"/><stop offset=".59" stop-color="#f597bb"/><stop offset=".84" stop-color="#f27fb3"/><stop offset=".99" stop-color="#f177b0"/></linearGradient><linearGradient id="s" x1="22.03" y1="101.59" x2="22.03" y2="91.61" gradientUnits="userSpaceOnUse"><stop offset="0" stop-color="#ffe7d8"/><stop offset=".99" stop-color="#ce77f1"/></linearGradient><linearGradient id="t" x1="32.82" y1="103.89" x2="18.27" y2="103.89" xlink:href="#r"/><linearGradient id="u" x1="-2505.61" y1="111.3" x2="-2505.61" y2="80.32" gradientTransform="translate(-2399.26) rotate(-180) scale(1 -1)" xlink:href="#o"/><linearGradient id="v" x1="-2505.21" y1="101.51" x2="-2505.21" y2="85.23" gradientTransform="translate(-2399.26) rotate(-180) scale(1 -1)" xlink:href="#r"/><linearGradient id="w" x1="-2502.89" y1="101.59" x2="-2502.89" y2="91.61" gradientTransform="translate(-2399.26) rotate(-180) scale(1 -1)" xlink:href="#s"/><linearGradient id="x" x1="-2492.39" y1="103.89" x2="-2506.17" y2="103.89" gradientTransform="translate(-2399.26) rotate(-180) scale(1 -1)" xlink:href="#r"/><linearGradient id="y" x1="62.83" y1="138.68" x2="62.83" y2="22.44" gradientUnits="userSpaceOnUse"><stop offset="0" stop-color="#fa9b76"/><stop offset=".11" stop-color="#f89b7c"/><stop offset=".43" stop-color="#f69e8a"/><stop offset=".65" stop-color="#fb9783"/><stop offset="1" stop-color="#ff937f"/></linearGradient><linearGradient id="z" x1="32.58" y1="125.52" x2="32.58" y2="87.43" xlink:href="#s"/><linearGradient id="aa" x1="-2336.59" y1="125.52" x2="-2336.59" y2="87.43" gradientTransform="translate(-2243.56) rotate(-180) scale(1 -1)" xlink:href="#s"/><linearGradient id="ab" x1="63.08" y1="136.89" x2="63.08" y2="127.9" gradientUnits="userSpaceOnUse"><stop offset="0" stop-color="#ce77f1"/><stop offset=".16" stop-color="#d17fef"/><stop offset=".41" stop-color="#dc97e9"/><stop offset=".71" stop-color="#ecbde1"/><stop offset="1" stop-color="#ffe7d8"/></linearGradient><linearGradient id="ac" x1="62.82" y1="153.03" x2="62.82" y2="170.52" gradientUnits="userSpaceOnUse"><stop offset="0" stop-color="#705ab5"/><stop offset=".19" stop-color="#8761c4"/><stop offset=".54" stop-color="#ad6ddc"/><stop offset=".82" stop-color="#c574eb"/><stop offset=".99" stop-color="#ce77f1"/></linearGradient><linearGradient id="ad" x1="63.82" y1="167.95" x2="84.91" y2="158.69" xlink:href="#ac"/><linearGradient id="ae" x1="62.46" y1="152.85" x2="62.46" y2="163.94" xlink:href="#ac"/><linearGradient id="af" x1="101.5" y1="15.66" x2="89.96" y2="31.32" xlink:href="#h"/><linearGradient id="ag" x1="59.77" y1="-5.05" x2="71.86" y2="18.93" xlink:href="#f"/><linearGradient id="ah" x1="86.02" y1="54.3" x2="-30.84" y2="30.1" xlink:href="#f"/><linearGradient id="ai" x1="52.32" y1="20.09" x2="33.41" y2="93.83" gradientUnits="userSpaceOnUse"><stop offset="0" stop-color="#260303"/><stop offset="1" stop-color="#350438"/></linearGradient><linearGradient id="aj" x1="26.33" y1="88.92" x2="62.05" y2="114.81" xlink:href="#f"/><linearGradient id="ak" x1="10.57" y1="71" x2="19.9" y2="77.12" xlink:href="#j"/><linearGradient id="al" x1="42.01" y1="27.73" x2="17.09" y2="109.66" xlink:href="#f"/><linearGradient id="am" x1="118.35" y1="53.09" x2="82.19" y2="76.7" xlink:href="#d"/><linearGradient id="an" x1="93.17" y1="42.25" x2="127.47" y2="156.58" xlink:href="#f"/><linearGradient id="ao" x1="33.71" y1="20.26" x2="33.71" y2="145.5" gradientUnits="userSpaceOnUse"><stop offset="0" stop-color="#ad30e8"/><stop offset="1" stop-color="#fff"/></linearGradient><linearGradient id="ap" x1="104.59" y1="26.82" x2="104.59" y2="144.83" xlink:href="#ao"/></defs><g style="isolation:isolate;"><g id="b"><g id="c"><path d="M44.31,102.45c.02,2.48-1.59,39.93,1.89,46.12,0,0,42.84,5.14,44.15-.46.39-1.66,7-47.38,7-47.38l-53.05,1.72Z" style="fill:url(#d); stroke-width:0px;"/><path d="M98.87,84.35c-.22,11.83-5.32,49.13-4.56,61.34,0,0,6.98-.25,10.38-14.45,3.39-14.19,5.07-33.83,1.56-40.73-3.52-6.9-8.89-9.66-8.89-9.66l1.51,3.49Z" style="fill:url(#e); stroke-width:0px;"/><path d="M107.43,76.31c5.99,13.18,3.2,65.07.52,70.64-2.68,5.57-7.1,4.5-7.57,3.24-.37-.99,3.47-34.19,3.5-52.23,0-4.82-.26-8.55-.95-10.31l4.49-11.35Z" style="fill:url(#f); stroke-width:0px;"/><path d="M95.08,94.38c-3.83,24.47-7.15,49.77-4.72,53.73,2.43,3.95,5.95-6.16,8.53-22.57,1.51-9.62,4.2-32.39,4.2-32.39l-8.01,1.24Z" style="fill:url(#g); stroke-width:0px;"/><path d="M29.79,94.61c-3.83,14.37-6.28,36.78-4.1,49.49.95,5.52,2.57,7.41,4.99,6.79,2.42-.62,7.37-9.49,6.5-21.94-.86-12.46,4.3-37.21,4.3-37.21l-11.69,2.87Z" style="fill:url(#h); stroke-width:0px;"/><path d="M45.92,128.95c.86,12.46-4.08,21.32-6.51,21.94-2.42.62-1.29-.79-2.23-6.31-.8-4.67-1.35-10.71-1.53-17.2-.31-11.18.45-23.68,2.87-32.77l11.69-2.87s-5.16,24.75-4.29,37.21Z" style="fill:url(#i); stroke-width:0px;"/><path d="M45.92,128.95c-1.67-5.73-9.47-1.87-10.27-1.57-.31-11.18.45-23.68,2.87-32.77l11.69-2.87s-5.16,24.75-4.29,37.21Z" style="fill:url(#j); mix-blend-mode:multiply; stroke-width:0px;"/><path d="M32.62,76.21c-10.99,22.66-13.56,61.49-12.79,67.89.77,6.4,3.85,9.11,5.37,7.96,1.52-1.14,1.78-22.94,5.61-33.69,2.61-7.34,4.63-23.82,5.65-33.52.47-4.5.73-7.54.73-7.54l-4.56-1.11Z" style="fill:url(#k); stroke-width:0px;"/><path d="M29.79,90.63c-3.83,21.03-9.95,53.47-9.95,53.47,0,0-8.19-44.86-5.29-54.93,2.89-10.07,12.63-20.81,12.63-20.81l2.62,22.27Z" style="fill:url(#l); stroke-width:0px;"/><path d="M103.09,93.15s-1.37,11.57-2.7,21.7c-.54,4.08-1.07,7.93-1.5,10.69-2.58,16.41-6.11,26.53-8.53,22.57-1.34-2.19-.93-10.9.36-22.39,1.04-9.29,2.65-20.4,4.36-31.34l8.01-1.24Z" style="fill:url(#m); mix-blend-mode:multiply; stroke-width:0px;"/><path d="M103.09,93.15s-1.37,11.57-2.7,21.7c-6.43-1.35-9.67,10.88-9.67,10.88,1.04-9.29,2.65-20.4,4.36-31.34l8.01-1.24Z" style="fill:url(#n); mix-blend-mode:multiply; stroke-width:0px;"/><path d="M110.56,168.68s-32.32,1.85-47.74,1.85-47.74-1.85-47.74-1.85c0,0,19.19-6.99,21.33-11.54,1.07-2.29,1.5-10.58,1.66-18.25.16-7.57.05-14.54.05-14.54l24.7.34,24.7-.34s-.29,18.92.78,28.28c.23,2.07.54,3.68.92,4.5,2.13,4.56,21.33,11.54,21.33,11.54Z" style="fill:url(#o); stroke-width:0px;"/><path d="M74.46,127.71c-6.98,11.84-7.75,25.32-4.41,34.54,1.1,3.03,15.77-30.16,14.58-34.54-1.19-4.38-6.59-6.07-10.17,0Z" style="fill:url(#p); mix-blend-mode:multiply; opacity:.6; stroke-width:0px;"/><path d="M88.31,152.63c-.17.04-.36.15-.53.09-15.58-5.52-12.03,9.52-24.41,9.52-6.22,0-14.51-15.9-18.53-20.02-3.67-3.76-6.76-3.34-6.76-3.34.16-7.57.05-14.54.05-14.54l24.7.34,24.7-.34s-.29,18.92.78,28.28Z" style="fill:#ce5982; mix-blend-mode:multiply; opacity:.6; stroke-width:0px;"/><path d="M24.11,81.89s-6.73-2.3-8.64-1.33c-1.91.97-4.75,5.82-4.39,11.57.1,1.55,1.36,8.85,6.43,12.42,1.47,1.04,2.9,5.87,6.24,6.6,3.49.76,3.82-1.51,3.82-1.51l-3.46-27.75Z" style="fill:url(#q); stroke-width:0px;"/><path d="M25.76,95.11s-3.73-11.29-8.73-9.74c-3.92,1.22-3.34,9.51-3.34,9.51,0,0,1.09-7.36,5.63-4.99,2.4,1.25-1.45,3.36-1.45,6.39s2.63,6.6,3.58,4.7c.95-1.9,1.47-8.9,4.32-5.86Z" style="fill:url(#r); mix-blend-mode:multiply; opacity:.6; stroke-width:0px;"/><path d="M25.49,93.74s-2.82-4.35-6.18-.62c-3.36,3.74,1.31,10.54,2.13,7.85.82-2.69,1.4-6.65,2.86-6.26,1.46.39,1.65,1.88,1.65,1.88l-.45-2.86Z" style="fill:url(#s); mix-blend-mode:multiply; opacity:.6; stroke-width:0px;"/><path d="M21.42,109.81c.39.65,3.6,2.31,5.28.63,1.41-1.4-.58-12.35-.77-13.84,0,0,.61,11.56-.19,12.02-2.76,1.62-5.64-.97-4.33,1.18Z" style="fill:url(#t); mix-blend-mode:multiply; opacity:.6; stroke-width:0px;"/><path d="M101.55,81.89s6.73-2.3,8.64-1.33c1.91.97,4.75,5.82,4.39,11.57-.1,1.55-1.37,8.85-6.43,12.42-1.47,1.04-2.9,5.87-6.24,6.6-3.49.76-3.82-1.51-3.82-1.51l3.46-27.75Z" style="fill:url(#u); stroke-width:0px;"/><path d="M99.9,95.11s3.73-11.29,8.73-9.74c3.92,1.22,3.34,9.51,3.34,9.51,0,0-1.09-7.36-5.63-4.99-2.4,1.25,1.45,3.36,1.45,6.39s-2.63,6.6-3.58,4.7-1.47-8.9-4.32-5.86Z" style="fill:url(#v); mix-blend-mode:multiply; opacity:.6; stroke-width:0px;"/><path d="M100.16,93.74s2.82-4.35,6.18-.62c3.36,3.74-1.31,10.54-2.13,7.85-.82-2.69-1.4-6.65-2.86-6.26-1.46.39-1.65,1.88-1.65,1.88l.45-2.86Z" style="fill:url(#w); mix-blend-mode:multiply; opacity:.6; stroke-width:0px;"/><path d="M104.23,109.81c-.39.65-3.6,2.31-5.28.63-1.41-1.4.58-12.35.77-13.84,0,0-.61,11.56.19,12.02-1.17-.69,4.24,1.33,4.33,1.18Z" style="fill:url(#x); mix-blend-mode:multiply; opacity:.6; stroke-width:0px;"/><path d="M101.79,90.23c-1.78,13.91-3.75,25.49-4.6,27.2-.69,1.39-3.2,4-6.68,6.92h0s0,0,0,0h0c-7.6,6.4-19.82,14.32-27.68,14.32-4.87,0-11.42-3.04-17.5-6.88,0,0,0,0,0,0-3.52-2.22-6.88-4.71-9.68-7.02t0,0c-3.73-3.09-6.45-5.88-7.17-7.34-.86-1.72-2.85-13.4-4.63-27.39-2.77-21.75-5.04-49.11-1.8-53.45,2.33-3.12,8.47-6.25,15.53-8.77,8.9-3.17,19.26-5.38,25.25-5.38,10.74,0,35.52,7.1,40.79,14.15,3.25,4.35.95,31.86-1.82,53.64Z" style="fill:url(#y); stroke-width:0px;"/><path d="M24.29,88.48c2.18,2.16,11.42,12.07,12.87,17.31s5.57,19.96,4.26,19.73c-1.31-.23-15-14.92-16.55-27.84-1.55-12.92-1.83-10.44-.58-9.2Z" style="fill:url(#z); mix-blend-mode:multiply; opacity:.6; stroke-width:0px;"/><path d="M101.33,88.48c-2.18,2.16-11.42,12.07-12.87,17.31-1.45,5.24-5.57,19.96-4.26,19.73,1.31-.23,15-14.92,16.55-27.84,1.55-12.92,1.83-10.44.58-9.2Z" style="fill:url(#aa); mix-blend-mode:multiply; opacity:.6; stroke-width:0px;"/><path d="M90.51,124.36h0c-7.6,6.4-19.82,14.32-27.68,14.32-4.87,0-11.42-3.04-17.5-6.88,0,0,0,0,0,0-3.52-2.22-6.88-4.71-9.68-7.02.51.32,14.42,9.1,17.86,9.71,3.5.62,14.8.31,17.66,0,2.84-.31,19.08-9.98,19.33-10.13Z" style="fill:url(#ab); mix-blend-mode:multiply; opacity:.6; stroke-width:0px;"/><path d="M123.27,171.98H2.37l25.84-9.74,2.86-9.22s4.14-.38,6.25-.18l-.57,3.34s6.58,6.71,26.07,6.71c17.34,0,26.07-6.71,26.07-6.71l-.51-2.95-.07-.39c2.11-.2,6.25.18,6.25.18l2.86,9.22,25.84,9.74Z" style="fill:#9074b3; stroke-width:0px;"/><path d="M31.07,153.03c-.49,1.59,12.67,12.66,31.39,12.66,20.16,0,32.11-12.66,32.11-12.66l2.86,9.22s-21,8.28-35.97,8.28c-16.07,0-33.26-8.28-33.26-8.28l2.86-9.22Z" style="fill:url(#ac); mix-blend-mode:multiply; opacity:.6; stroke-width:0px;"/><path d="M57.41,165.46c23.59,2.17,36.64-12.05,36.64-12.05,0,0-11.57,12.18-14.55,12.92-9.39,2.33-22.09-.87-22.09-.87Z" style="fill:url(#ad); mix-blend-mode:multiply; opacity:.6; stroke-width:0px;"/><path d="M84.7,159.1c-5.72,2.45-20.04,6.6-33.37,4.04-12.74-2.45-18.2-8-18.44-8.77-.24-.78,3.9-1.09,4.42-1.51l-.57,3.34s6.58,6.71,26.07,6.71c17.34,0,26.07-6.71,26.07-6.71l-.51-2.95c1.6.09,3.18.17,3.51.17.72,0-1.48,3.24-7.19,5.69Z" style="fill:url(#ae); mix-blend-mode:multiply; opacity:.6; stroke-width:0px;"/><path d="M85.15,16.73c7.53,1.55,17.18,12.01,17.98,16.61.8,4.6-11.12,4.92-11.12,4.92,0,0-3.25-4.12-4.8-7.02s-2.06-14.51-2.06-14.51Z" style="fill:url(#af); stroke-width:0px;"/><path d="M87.21,31.24s5.64-12.26,2.18-15.62c-8.62-8.36-26.12-8.36-26.12-8.36l-13.54,6.21,4.96,6.24s13.96,1.77,20.25,3.72c6.28,1.95,5.75,7.81,5.75,7.81,0,0,3.91,4.74,6.53,0Z" style="fill:url(#ag); stroke-width:0px;"/><path d="M59.79.66c8.13,3.79,21.52,21.51,23.17,32.3,0,0-4.74.94-10.05-3.32,0,0-9.92-10.94-13.12-13.67-3.19-2.73-21.25.04-29.63,4.23C21.78,24.39,5.61,86,5.61,86c0,0-3.2-31.8.2-44.57,3.4-12.77,6.81-27.97,9.95-30.7C18.9,7.99,52.52-2.74,59.79.66Z" style="fill:url(#ah); stroke-width:0px;"/><path d="M77.59,32.29c-3.17-7.08-14.57-20.35-20.53-22.32-5.96-1.98-21.66,4.44-26.9,8.61-5.24,4.17-16.19,22.33-16.6,61.31,0,0,7.9-5.04,10.87,2,0,0-3.82-26.94,3.87-42.5,3.71-7.51,12.44-10.29,27.72-8.16,5.85.82,5.05-.42,9.23,1.29,4.18,1.71,12.89.98,12.35-.23Z" style="fill:url(#ai); stroke-width:0px;"/><path d="M23.71,133.37c-2.03,3.32-6.53.38-8.91-10.05-.66-2.87-1.35-5.68-2.04-8.54-3.11-12.83-5.03-3.34-4.49-27.4.87-38.4,14.58-50.11,14.79-50.53-3.81,11.08-4.48,18.18-3.81,39.08.52,16.18,1.85,31.26,3.13,39.02,2.95,17.78,3.92,14.2,1.33,18.43Z" style="fill:url(#aj); stroke-width:0px;"/><path d="M19.24,75.93h0c-5.58,1.4-10.65,10.16-7.11,32.22.37,2.29.56,4.5.62,6.63-3.11-12.83-5.03-3.34-4.49-27.4.87-38.4,14.58-50.11,14.79-50.53-3.81,11.08-4.48,18.18-3.81,39.08Z" style="fill:url(#ak); mix-blend-mode:multiply; stroke-width:0px;"/><path d="M17.33,26.12c-3.88,7.1-13.01,31.65-14.58,48.2-1.57,16.55-4.19,38.18-1.74,52.45,2.45,14.27,8.6,9.09,10.18,0,.6-3.46-1.18-2.86-1.18-33.69s10.32-53.26,15.63-58.54c5.31-5.28,13.71-8.14,28.7-2.01,0,0,10.28,3.72,13.09.82,0,0-8.08-13.29-23.28-14.76-18.97-1.83-24.97,4.14-26.82,7.53Z" style="fill:url(#al); stroke-width:0px;"/><path d="M100.05,56.21c3.09,4.38,2.31,6.02,2.85,11.24.2,1.91-1.45,16.64-1.45,16.64,0,0,4.41-8.96,9.46-4.93,0,0,3.75-17.74-2.36-32.56-1.54-3.72-10.54-3.36-11.71,0-.71,2.05,3.21,9.61,3.21,9.61Z" style="fill:url(#am); stroke-width:0px;"/><path d="M89.59,36.83c-1.09.44,2.42,9.29,7.25,14.15.97.98,4.23-2.62,7.17.42,2.93,3.04,5.19.62,7.17,31.01,1.05,16.18-6.99,52.5-6.73,55.4.25,2.9,7.78,1.19,9.91-6.98,2.12-8.17,4.3-16.42,5.35-33.21,1.05-16.78-6.03-49.29-9.87-56.15-3.84-6.87-12.72-7.69-20.24-4.64Z" style="fill:url(#an); stroke-width:0px;"/><path d="M67.42,33.34c-2.81,2.91-13.09-.81-13.09-.81-14.99-6.13-23.39-3.27-28.7,2.01-1.16,1.15-2.55,3.86-4.03,7.71-4.82,23.04-1.95,56.35.77,72.7,2.95,17.78,3.92,14.2,1.33,18.43-2.03,3.32-6.53.38-8.91-10.05-1.63-7.13-3.49-13.9-4.98-21.89.79,13.94,1.74,23.22,1.37,25.33-1.58,9.09-7.73,14.27-10.18,0-2.45-14.27.17-35.9,1.74-52.45.35-3.73.58-4.76,1.56-10.25-.66-10.44-.65-14.53,1.51-22.65,3.4-12.77,6.81-27.97,9.95-30.7.24-.21.65-.46,1.22-.75h0c-2.28,5.57,14.58,1.23,28.6,1.26,0,0-9.22,1.22-15.43,7.35,0,0,1.4,3.85,12.52,5.76,11.12,1.91,13.74.45,13.74.45,0,0-2.98-2.82-5.94-4.84,11.1,3.78,16.94,13.39,16.94,13.39Z" style="fill:url(#ao); mix-blend-mode:multiply; stroke-width:0px;"/><path d="M119.7,97.63c-1.05,16.78-3.23,25.04-5.35,33.2-.88,3.4-2.71,5.68-4.55,6.97h0c-1.61,3.86-6.97,4.65-7.45,2.81-.38-1.45.81-10.32,2.98-35.17,0,0,4.2-5.45,5.26-6.7l.37-22.57c-1.57-15.57-4.83-22.58-6.95-24.78-2.93-3.04-6.2.56-7.17-.42-4.83-4.86-8.34-13.71-7.25-14.15,1.49-.6,3.03-1.05,4.57-1.34h0c-2.15,2.76,9.09,9.36,12.47,11.1,3.37,1.74,3.2-5.12,3.2-5.12,3.84,6.87,10.91,39.37,9.86,56.15Z" style="fill:url(#ap); mix-blend-mode:multiply; stroke-width:0px;"/></g></g></g></svg>