<?xml version="1.0" encoding="UTF-8"?><svg xmlns="http://www.w3.org/2000/svg" xmlns:xlink="http://www.w3.org/1999/xlink" viewBox="0 0 97.8 122.98"><defs><linearGradient id="d" x1="48.9" y1="122.98" x2="48.9" y2="88.54" gradientUnits="userSpaceOnUse"><stop offset="0" stop-color="#ffb39d"/><stop offset=".23" stop-color="#ff9b8d"/><stop offset=".48" stop-color="#ff8781"/><stop offset=".74" stop-color="#ff7b79"/><stop offset="1" stop-color="#f77"/></linearGradient><linearGradient id="e" x1="48.9" y1="122.98" x2="48.9" y2="109.47" gradientUnits="userSpaceOnUse"><stop offset="0" stop-color="#8684f4"/><stop offset="1" stop-color="#839af2"/></linearGradient><linearGradient id="f" x1="59.22" y1="114.93" x2="59.22" y2="93.07" gradientUnits="userSpaceOnUse"><stop offset="0" stop-color="#ffeadb"/><stop offset=".99" stop-color="#d177f4"/></linearGradient><linearGradient id="g" x1="67.44" y1="120.31" x2="67.44" y2="111.98" xlink:href="#f"/><linearGradient id="h" x1="27.17" y1="120.31" x2="27.17" y2="111.43" xlink:href="#f"/><linearGradient id="i" x1="81.47" y1="74.66" x2="81.47" y2="48.95" gradientUnits="userSpaceOnUse"><stop offset="0" stop-color="#ff847c"/><stop offset=".03" stop-color="#ff827a"/><stop offset=".35" stop-color="#ff7366"/><stop offset=".68" stop-color="#ff6a5a"/><stop offset="1" stop-color="#ff6856"/></linearGradient><linearGradient id="j" x1="81.98" y1="66.83" x2="81.98" y2="53.51" xlink:href="#f"/><linearGradient id="k" x1="79.32" y1="66.5" x2="79.32" y2="56.16" xlink:href="#f"/><linearGradient id="l" x1="-1181.76" y1="74.66" x2="-1181.76" y2="48.95" gradientTransform="translate(-1165.84) rotate(-180) scale(1 -1)" xlink:href="#i"/><linearGradient id="m" x1="-1181.25" y1="66.83" x2="-1181.25" y2="53.51" gradientTransform="translate(-1165.84) rotate(-180) scale(1 -1)" xlink:href="#f"/><linearGradient id="n" x1="-1183.9" y1="66.5" x2="-1183.9" y2="56.16" gradientTransform="translate(-1165.84) rotate(-180) scale(1 -1)" xlink:href="#f"/><linearGradient id="o" x1="48.56" y1="99.82" x2="48.56" y2="17.8" gradientUnits="userSpaceOnUse"><stop offset="0" stop-color="#e9a691"/><stop offset=".08" stop-color="#eca68d"/><stop offset=".51" stop-color="#f9ab80"/><stop offset=".57" stop-color="#faa67c"/><stop offset=".78" stop-color="#fd9a75"/><stop offset="1" stop-color="#ff9673"/></linearGradient><linearGradient id="p" x1="47.31" y1="12.82" x2="47.31" y2="0" gradientUnits="userSpaceOnUse"><stop offset="0" stop-color="#36062c"/><stop offset="1" stop-color="#441b3e"/></linearGradient><linearGradient id="q" x1="48.17" y1="13.92" x2="48.17" y2="10.62" xlink:href="#e"/><linearGradient id="r" x1="21.27" y1="51.22" x2="21.27" y2="26.96" gradientUnits="userSpaceOnUse"><stop offset="0" stop-color="#83313e"/><stop offset="1" stop-color="#36062c"/></linearGradient><linearGradient id="s" x1="-21.78" y1="51.22" x2="-21.78" y2="26.96" gradientTransform="translate(54.03) rotate(-180) scale(1 -1)" xlink:href="#r"/><linearGradient id="t" x1="48.43" y1="31.78" x2="48.43" y2="12.06" xlink:href="#p"/><linearGradient id="u" x1="18.54" y1="29.59" x2="24.49" y2="29.59" xlink:href="#f"/><linearGradient id="v" x1="49.64" y1="30.71" x2="49.64" y2="12.82" gradientUnits="userSpaceOnUse"><stop offset="0" stop-color="#d177f4"/><stop offset="1" stop-color="#ffeadb"/></linearGradient><linearGradient id="w" x1="55.83" y1="11.6" x2="55.83" y2=".84" gradientUnits="userSpaceOnUse"><stop offset="0" stop-color="#36062c"/><stop offset="1" stop-color="#5e3b59"/></linearGradient><linearGradient id="x" x1="40.08" y1="12.06" x2="40.08" y2="1.29" xlink:href="#w"/><linearGradient id="y" x1="62.93" y1="26.96" x2="62.93" y2="13.92" xlink:href="#w"/><linearGradient id="z" x1="27.26" y1="26.68" x2="27.26" y2="18.26" xlink:href="#w"/><linearGradient id="aa" x1="35.87" y1="25.42" x2="35.87" y2="13.71" xlink:href="#w"/></defs><g style="isolation:isolate;"><g id="b"><g id="c"><path d="M27.32,88.54s-.72,19.67-1.22,21.61c-.5,1.94-26.1,12.83-26.1,12.83h97.8s-27.82-9.83-28.57-12.08c-.75-2.25-.77-21-.77-21l-41.13-1.36Z" style="fill:url(#d); stroke-width:0px;"/><path d="M26.2,109.58s-2.04-.24-2.26,0c-.22.24,0,1.85,0,1.85L0,122.98h97.8l-25.82-11s-.89-2.44-2.75-1.08l.64.92s-8.66,9.27-23.1,9.27-20.56-11.51-20.56-11.51Z" style="fill:url(#e); stroke-width:0px;"/><path d="M27,96.38s4.82,1.35,5.99,3.44c1.17,2.08,8.66,17.74,14.58,17.99,5.91.25,9.75-8.08,12.75-10,3-1.92,8.43-2.06,8.43-2.06l-.29-15.86-41.13-1.36-.32,7.84Z" style="fill:#8c2f7e; mix-blend-mode:multiply; opacity:.6; stroke-width:0px;"/><path d="M55.29,99.32l-1.52,15.61s3.67-4.12,5.55-7.11c1.87-3,5.37-14.74,5.37-14.74l-9.4,6.25Z" style="fill:url(#f); mix-blend-mode:multiply; opacity:.6; stroke-width:0px;"/><path d="M71.97,111.98s-6.28,5.66-12.75,8.33c0,0,12.84-4.08,16.43-6.76l-3.68-1.57Z" style="fill:url(#g); mix-blend-mode:multiply; opacity:.6; stroke-width:0px;"/><path d="M23.94,111.43s4.41,4.44,10.78,8.89c0,0-8.13-2.17-15.09-6.81l4.31-2.08Z" style="fill:url(#h); mix-blend-mode:multiply; opacity:.6; stroke-width:0px;"/><path d="M29.97,114.33s6.55,5.99,17.9,5.99,18.23-5.38,18.23-5.38c0,0-7.82,6.16-19.34,6.16s-16.79-6.76-16.79-6.76Z" style="fill:#8c2f7e; mix-blend-mode:multiply; opacity:.6; stroke-width:0px;"/><path d="M76.06,55.17s4.09-6.23,6.87-6.22c1.69,0,5.77,3.55,5.72,6.94-.06,4.53-4.07,9.68-5.07,12.32-1,2.64-3.59,6.08-5.31,6.42-1.72.33-3.96-2.93-3.96-2.93,0,0,.84-12.43,1.76-16.54Z" style="fill:url(#i); stroke-width:0px;"/><path d="M76.36,61.8s6.72-8.3,9.16-8.3,2.44,4.72,1.46,7.41c-.68,1.87-2.01,4.56-2.01,4.56,0,0,1.06-2.89,1.18-5.06.19-3.33-.55-5.75-1.39-5.75-1.55.01-2.76,2.12-2.96,2.87s1.22,4.04.85,6.33c-.37,2.29-1.75,3.17-2.21,2.92-.46-.25.25-2.83-.17-3.75-.42-.92-1.62-2.25-2.33-1.96-.71.29-1.58.72-1.58.72Z" style="fill:url(#j); mix-blend-mode:multiply; opacity:.6; stroke-width:0px;"/><path d="M76.36,61.8s1.66-.99,2.16-.67,1.78,1.47,1.84,2.19-.41,2.78,0,3.14c.41.36,1.87-1.96,1.93-4.01.07-2.05-1.08-4.41-1.08-4.69s.27-1.59.27-1.59c0,0-3.9,3.69-5.11,5.64Z" style="fill:url(#k); mix-blend-mode:multiply; opacity:.6; stroke-width:0px;"/><path d="M21.32,55.17s-4.09-6.23-6.87-6.22c-1.69,0-5.77,3.55-5.72,6.94.06,4.53,4.07,9.68,5.07,12.32s3.59,6.08,5.31,6.42c1.72.33,3.96-2.93,3.96-2.93,0,0-.84-12.43-1.76-16.54Z" style="fill:url(#l); stroke-width:0px;"/><path d="M21.02,61.8s-6.72-8.3-9.16-8.3-2.44,4.72-1.46,7.41c.68,1.87,2.01,4.56,2.01,4.56,0,0-1.06-2.89-1.18-5.06-.19-3.33.55-5.75,1.39-5.75,1.55.01,2.76,2.12,2.96,2.87.19.75-1.22,4.04-.85,6.33.37,2.29,1.75,3.17,2.21,2.92.46-.25-.25-2.83.17-3.75.42-.92,1.62-2.25,2.33-1.96.71.29,1.58.72,1.58.72Z" style="fill:url(#m); mix-blend-mode:multiply; opacity:.6; stroke-width:0px;"/><path d="M21.02,61.8s-1.66-.99-2.16-.67c-.5.32-1.78,1.47-1.84,2.19-.05.72.41,2.78,0,3.14-.41.36-1.87-1.96-1.93-4.01-.07-2.05,1.08-4.41,1.08-4.69s-.27-1.59-.27-1.59c0,0,3.9,3.69,5.11,5.64Z" style="fill:url(#n); mix-blend-mode:multiply; opacity:.6; stroke-width:0px;"/><path d="M77.19,57.84c-.45,4.88-1.39,9.44-1.61,14.55-.22,5.11-.65,9.26-1.44,11.16-.36.85-.99,1.74-1.79,2.64h0c-2.27,2.56-5.88,5.24-8.32,7.76-.92.95-1.88,1.76-2.79,2.43,0,0,0,0-.01,0-1.82,1.35-3.43,2.16-4.2,2.47-2.33.96-8.37.96-8.37.96,0,0-6.04,0-8.37-.96-1.15-.47-4.22-2.05-7-4.91-2.89-2.98-7.39-6.18-9.4-9.13-.3-.43-.54-.86-.72-1.28-.8-1.9-1.22-6.05-1.44-11.16-.22-5.11-1.17-9.66-1.61-14.55-.44-4.89-2.35-22.82-.9-26.71,1.45-3.89,19.9-13.33,29.45-13.33,11.9,0,28.8,12.17,29.23,13.33,1.45,3.89-.24,21.83-.68,26.71Z" style="fill:url(#o); stroke-width:0px;"/><path d="M72.34,86.19c-2.27,2.55-5.88,5.24-8.32,7.76-.92.95-1.88,1.76-2.79,2.43,0,0,0,0-.01,0-1.82,1.35-3.43,2.16-4.2,2.47-2.33.96-8.37.96-8.37.96,0,0-6.04,0-8.37-.96-1.15-.47-4.22-2.05-7-4.91-2.89-2.98-7.39-6.18-9.4-9.13,0,0,3.27,3.04,6.73,5.92,3.46,2.88,9.21,8.36,18.04,8.36s15.45-6.55,16.83-7.55c1.36-.98,6.69-5.21,6.87-5.35Z" style="fill:#cb4397; mix-blend-mode:multiply; opacity:.6; stroke-width:0px;"/><path d="M42.46,12.82s-5.88-3.2-7.28-5.69c-1.4-2.49,2.1-5.61,2.1-5.61,0,0-1.53,1.72-1.53,3.19C35.76,4.72,41.59.06,48.17,0c6.58-.06,11.61,5.29,11.61,5.29,0,0-.38,3.7-6.18,7.33l-11.14.2Z" style="fill:url(#p); stroke-width:0px;"/><path d="M39.89,13.73s4.67-3.12,8.05-3.12,8.5,3.3,8.5,3.3l-16.55-.18Z" style="fill:url(#q); stroke-width:0px;"/><path d="M19.49,51.22s1.29-3.48,2.91-7.81,1.33-16.45,1.33-16.45c0,0-3.47,2.32-4.52,4.16-1.05,1.84.29,20.1.29,20.1Z" style="fill:url(#r); stroke-width:0px;"/><path d="M77.59,51.22s-1.29-3.48-2.91-7.81-1.33-16.45-1.33-16.45c0,0,3.47,2.32,4.52,4.16,1.05,1.84-.29,20.1-.29,20.1Z" style="fill:url(#s); stroke-width:0px;"/><path d="M77.61,30.71s-.56-.42-5.02-1.76c-4.46-1.34-8.41-3.52-8.41-3.52h-31.55s-3.85,1.87-7.1,3.16h0c-.35.14-.7.28-1.04.4-.77.28-1.48.52-2.04.66-2.97.74-3.61,2.06-3.65,2.14-.03-.1-.56-2.67,0-4.14.01-.04.04-.09.07-.14.27-.44,1.06-1.14,2.1-1.94l.21-.16c.95-.72,2.07-1.51,3.15-2.25,1.99-1.36,3.85-2.54,4.3-2.82l.11-.07s-.38-.27,1.02-1.56c.16-.15.43-.35.8-.59.29-.2.65-.41,1.06-.64h.02c1.63-.95,4.08-2.17,6.76-3.2.15-.06.3-.11.45-.17l.11-.04c1.04-.39,2.11-.75,3.17-1.05,0,0,0,0,0,0l.47-.13c.07-.02.13-.04.2-.05,1.78-.47,3.52-.77,5.06-.77s3.38.3,5.15.76h0s0,0,0,0c.01,0,.03,0,.05.01,5.36,1.41,10.63,4.33,11.29,4.95.89.83,1.21,1.91,1.21,1.91,0,0,2.03,1.19,3.7,2.22h0s.36.23.36.23c.86.54,1.56,1,1.73,1.16,0,0,1.49,1,3.09,2.11,1.78,1.23,3.7,2.6,3.82,2.85.23.48-.67,2.43-.67,2.43Z" style="fill:url(#t); stroke-width:0px;"/><path d="M24.49,28.99c-.77.28-1.48.52-2.04.66-2.97.74-3.61,2.06-3.65,2.14-.03-.1-.56-2.67,0-4.14.01-.04.04-.09.07-.14.16-.04.33-.07.51-.09,1.85-.2,5.11,1.57,5.11,1.57Z" style="fill:url(#u); mix-blend-mode:multiply; stroke-width:0px;"/><path d="M77.61,30.71s-.56-.42-5.02-1.76c-4.46-1.34-8.41-3.52-8.41-3.52h-31.55s-3.85,1.87-7.1,3.16h0c-1.57-1.96-4.55-3.01-4.55-3.01l.21-.16s2.68,1.15,3.97,1.23c1.29.07,2.26-.58,2.26-.58-1.46-.71-3.14-2.78-3.14-2.78l.07-.11s1.67,1.9,3.17,2.09c1.49.19,2.61-.48,2.61-.48-1.56-1.28-1.62-4.34-1.62-4.34l.14-.1.11-.07c.18,1.59,1.31,3.09,1.45,3.28-1.28-2.64.37-5.42.37-5.42l1.06-.64h.02s-2.19,2.73-1.09,5.45c1.1,2.72,11.64,1.26,11.64,1.26,0,0-5.16-.28-6.34-3.03-1.14-2.64,2.31-6.62,2.55-6.89,0,0,.01-.01.01-.01l.44-.16.11-.04c-2.53,2.13-3.97,6.34-1.16,8.06,2.8,1.72,6.91,1.59,6.91,1.59,0,0-4.24-2.2-4.72-4.39-.47-2.14,1.99-6.08,2.13-6.31,0,0,0,0,0,0l.47-.13.21-.06h0c-.15.2-2.89,3.65-2.23,6.33.68,2.76,5.74,4.29,9.05,4.89,3.31.59,7.69.38,7.69.38,0,0,1.83-3.4,1.14-6.63-.62-2.91-4.56-4.61-5.32-4.92.79.3,5.04,2.02,5.83,5.22.87,3.54-.98,6.71-.98,6.71,2.5.17,7.86-.42,7.86-.42.36-1.86-.22-4.41-.27-4.65.78,2.15,1.08,5.57,1.08,5.57.64.44,3.08,1.45,3.08,1.45.61-3.77-.36-4.73-.46-4.81l.36.22c1.12,2.58.63,5.25.63,5.25,2.17.69,4.67.46,4.67.46.19-1.02-.48-2.44-.48-2.44,1.78,1.23,3.7,2.6,3.82,2.85.23.48-.67,2.43-.67,2.43Z" style="fill:url(#v); mix-blend-mode:multiply; stroke-width:0px;"/><path d="M51.57,11.44s1.52-8.94,4.07-10.59c0,0,3.06.96,4.14,3.12,1.08,2.17-.96,3.71-.96,3.71,0,0,1.56-1.45.96-3.05-.3-.81-1.55-.68-1.55-.68,0,0-4.72,4.38-6.27,7.65l-.39-.16Z" style="fill:url(#w); stroke-width:0px;"/><path d="M43.3,11.87s-1.25-4.9-3.41-10.57c0,0-1.9.51-2.46.96-.55.45-.58,1.68-.58,1.68,0,0,.22-1.09.77-1.17s5.25,9.31,5.25,9.31l.42-.2Z" style="fill:url(#x); stroke-width:0px;"/><path d="M56.44,13.92s8.52,1.29,12.05,3.88c2.47,1.81-.74,9.17-.74,9.17l-1.11-.32s2.09-5.38.46-7.83c-1.06-1.59-4.38-3.92-8.29-3.7l-2.35-1.2Z" style="fill:url(#y); stroke-width:0px;"/><path d="M30.92,26.23s-4.91-3.47-5.23-5.79c-.32-2.33,4.08-1.73,4.08-1.73l.47-.36s-5.28-.71-6.49,1.87c-1.21,2.58,6.2,6.47,6.2,6.47l.97-.45Z" style="fill:url(#z); stroke-width:0px;"/><path d="M33.88,25.42s-3.54-7.14-1.24-9.62c2.29-2.49,7.26-2.07,7.26-2.07,0,0-5.09.08-6.56,2.92-1.47,2.84,2.1,8.77,2.1,8.77h-1.56Z" style="fill:url(#aa); stroke-width:0px;"/><path d="M41.71,14.46s-.9,1.59-1.18,3.05c0,0,.2-.53.59-.61s3.8.3,8.52.61c4.72.31,7.54-.67,8.06-.55.53.12.8,1.08.8,1.08,0,0-.14-1.63-1.55-2.76,0,0,.33.37.23.45-.11.09-5.93-.25-9.37-.04s-5.94-.6-6.12-.74c-.17-.14,0-.49,0-.49Z" style="fill:#c4d9e0; mix-blend-mode:soft-light; opacity:.5; stroke-width:0px;"/><path d="M57.72,15.83s1.23,1.03,1.8,1.3c.57.28,3.58.64,3.93.45l.35-.19s1.21.75,1.54,1.73c0,0-1.31-.91-2.9-.95-1.59-.04-2.66.02-2.66.02,0,0-1.3-1.81-2.06-2.37Z" style="fill:#c4d9e0; mix-blend-mode:soft-light; opacity:.5; stroke-width:0px;"/><path d="M39.16,18.04s.53-1.83,1.37-2.76c0,0-1.08.41-1.69.56-.61.15-1.18,0-1.18,0,0,0-1.07,1.21-1.33,2.67,0,0,2.03-.71,2.83-.46Z" style="fill:#c4d9e0; mix-blend-mode:soft-light; opacity:.5; stroke-width:0px;"/></g></g></g></svg>