<?xml version="1.0" encoding="UTF-8"?><svg xmlns="http://www.w3.org/2000/svg" xmlns:xlink="http://www.w3.org/1999/xlink" viewBox="0 0 97.8 115.4"><defs><linearGradient id="d" x1="48.9" y1="115.4" x2="48.9" y2="80.96" gradientUnits="userSpaceOnUse"><stop offset="0" stop-color="#ffb39d"/><stop offset=".23" stop-color="#ff9b8d"/><stop offset=".48" stop-color="#ff8781"/><stop offset=".74" stop-color="#ff7b79"/><stop offset="1" stop-color="#f77"/></linearGradient><linearGradient id="e" x1="48.9" y1="115.4" x2="48.9" y2="101.89" gradientUnits="userSpaceOnUse"><stop offset="0" stop-color="#8684f4"/><stop offset="1" stop-color="#839af2"/></linearGradient><linearGradient id="f" x1="59.22" y1="107.35" x2="59.22" y2="85.49" gradientUnits="userSpaceOnUse"><stop offset="0" stop-color="#ffeadb"/><stop offset=".99" stop-color="#d177f4"/></linearGradient><linearGradient id="g" x1="67.44" y1="112.73" x2="67.44" y2="104.4" xlink:href="#f"/><linearGradient id="h" x1="27.17" y1="112.73" x2="27.17" y2="103.84" xlink:href="#f"/><linearGradient id="i" x1="81.47" y1="67.07" x2="81.47" y2="41.37" gradientUnits="userSpaceOnUse"><stop offset="0" stop-color="#ff847c"/><stop offset=".03" stop-color="#ff827a"/><stop offset=".35" stop-color="#ff7366"/><stop offset=".68" stop-color="#ff6a5a"/><stop offset="1" stop-color="#ff6856"/></linearGradient><linearGradient id="j" x1="81.98" y1="59.25" x2="81.98" y2="45.92" xlink:href="#f"/><linearGradient id="k" x1="79.32" y1="58.91" x2="79.32" y2="48.58" xlink:href="#f"/><linearGradient id="l" x1="-772.61" y1="67.07" x2="-772.61" y2="41.37" gradientTransform="translate(-756.7) rotate(-180) scale(1 -1)" xlink:href="#i"/><linearGradient id="m" x1="-772.11" y1="59.25" x2="-772.11" y2="45.92" gradientTransform="translate(-756.7) rotate(-180) scale(1 -1)" xlink:href="#f"/><linearGradient id="n" x1="-774.76" y1="58.91" x2="-774.76" y2="48.58" gradientTransform="translate(-756.7) rotate(-180) scale(1 -1)" xlink:href="#f"/><linearGradient id="o" x1="48.65" y1="92.24" x2="48.65" y2="10.21" gradientUnits="userSpaceOnUse"><stop offset="0" stop-color="#e9a691"/><stop offset=".08" stop-color="#eca68d"/><stop offset=".51" stop-color="#f9ab80"/><stop offset=".57" stop-color="#faa67c"/><stop offset=".78" stop-color="#fd9a75"/><stop offset="1" stop-color="#ff9673"/></linearGradient><linearGradient id="p" x1="42.85" y1="8.09" x2="64.61" y2="8.09" gradientUnits="userSpaceOnUse"><stop offset="0" stop-color="#36062c"/><stop offset="1" stop-color="#441b3e"/></linearGradient><linearGradient id="q" x1="49.47" y1="49.09" x2="49.47" y2="0" gradientUnits="userSpaceOnUse"><stop offset="0" stop-color="#36063b"/><stop offset="1" stop-color="#4d0e2e"/></linearGradient><linearGradient id="r" x1="48.61" y1="11.55" x2="69.88" y2="11.55" xlink:href="#p"/><linearGradient id="s" x1="44.69" y1="9.16" x2="57.34" y2="9.16" xlink:href="#p"/><linearGradient id="t" x1="40.83" y1="9.28" x2="48.61" y2="9.28" xlink:href="#p"/><linearGradient id="u" x1="17.71" y1="23.21" x2="22.23" y2="23.21" xlink:href="#p"/><linearGradient id="v" x1="25.08" y1="15.82" x2="30.8" y2="15.82" xlink:href="#p"/><linearGradient id="w" x1="56.53" y1="14.16" x2="74.84" y2="14.16" xlink:href="#p"/><linearGradient id="x" x1="71.45" y1="21.38" x2="79.8" y2="21.38" xlink:href="#p"/><linearGradient id="y" x1="21.42" y1="18.08" x2="25.13" y2="18.08" xlink:href="#p"/></defs><g style="isolation:isolate;"><g id="b"><g id="c"><path d="M27.32,80.96s-.72,19.67-1.22,21.61c-.5,1.94-26.1,12.83-26.1,12.83h97.8s-27.82-9.83-28.57-12.08c-.75-2.25-.77-21-.77-21l-41.13-1.36Z" style="fill:url(#d); stroke-width:0px;"/><path d="M26.2,102s-2.04-.24-2.26,0c-.22.24,0,1.85,0,1.85L0,115.4h97.8l-25.82-11s-.89-2.44-2.75-1.08l.64.92s-8.66,9.27-23.1,9.27-20.56-11.51-20.56-11.51Z" style="fill:url(#e); stroke-width:0px;"/><path d="M27,88.8s4.82,1.35,5.99,3.44c1.17,2.08,8.66,17.74,14.58,17.99,5.91.25,9.75-8.08,12.75-10,3-1.92,8.43-2.06,8.43-2.06l-.29-15.86-41.13-1.36-.32,7.84Z" style="fill:#8c2f7e; mix-blend-mode:multiply; opacity:.6; stroke-width:0px;"/><path d="M55.29,91.74l-1.52,15.61s3.67-4.12,5.55-7.11c1.87-3,5.37-14.74,5.37-14.74l-9.4,6.25Z" style="fill:url(#f); mix-blend-mode:multiply; opacity:.6; stroke-width:0px;"/><path d="M71.97,104.4s-6.28,5.66-12.75,8.33c0,0,12.84-4.08,16.43-6.76l-3.68-1.57Z" style="fill:url(#g); mix-blend-mode:multiply; opacity:.6; stroke-width:0px;"/><path d="M23.94,103.84s4.41,4.44,10.78,8.89c0,0-8.13-2.17-15.09-6.81l4.31-2.08Z" style="fill:url(#h); mix-blend-mode:multiply; opacity:.6; stroke-width:0px;"/><path d="M29.97,106.74s6.55,5.99,17.9,5.99,18.23-5.38,18.23-5.38c0,0-7.82,6.16-19.34,6.16s-16.79-6.76-16.79-6.76Z" style="fill:#8c2f7e; mix-blend-mode:multiply; opacity:.6; stroke-width:0px;"/><path d="M76.06,47.59s4.09-6.23,6.87-6.22c1.69,0,5.77,3.55,5.72,6.94-.06,4.53-4.07,9.68-5.07,12.32-1,2.64-3.59,6.08-5.31,6.42s-3.96-2.93-3.96-2.93c0,0,.84-12.43,1.76-16.54Z" style="fill:url(#i); stroke-width:0px;"/><path d="M76.36,54.22s6.72-8.3,9.16-8.3,2.44,4.72,1.46,7.41c-.68,1.87-2.01,4.56-2.01,4.56,0,0,1.06-2.89,1.18-5.06.19-3.33-.55-5.75-1.39-5.75-1.55.01-2.76,2.12-2.96,2.87-.19.75,1.22,4.04.85,6.33-.37,2.29-1.75,3.17-2.21,2.92-.46-.25.25-2.83-.17-3.75s-1.62-2.25-2.33-1.96c-.71.29-1.58.72-1.58.72Z" style="fill:url(#j); mix-blend-mode:multiply; opacity:.6; stroke-width:0px;"/><path d="M76.36,54.22s1.66-.99,2.16-.67c.5.32,1.78,1.47,1.84,2.19.05.72-.41,2.78,0,3.14.41.36,1.87-1.96,1.93-4.01.07-2.05-1.08-4.41-1.08-4.69s.27-1.59.27-1.59c0,0-3.9,3.69-5.11,5.64Z" style="fill:url(#k); mix-blend-mode:multiply; opacity:.6; stroke-width:0px;"/><path d="M21.32,47.59s-4.09-6.23-6.87-6.22c-1.69,0-5.77,3.55-5.72,6.94.06,4.53,4.07,9.68,5.07,12.32,1,2.64,3.59,6.08,5.31,6.42,1.72.33,3.96-2.93,3.96-2.93,0,0-.84-12.43-1.76-16.54Z" style="fill:url(#l); stroke-width:0px;"/><path d="M21.02,54.22s-6.72-8.3-9.16-8.3-2.44,4.72-1.46,7.41c.68,1.87,2.01,4.56,2.01,4.56,0,0-1.06-2.89-1.18-5.06-.19-3.33.55-5.75,1.39-5.75,1.55.01,2.76,2.12,2.96,2.87.19.75-1.22,4.04-.85,6.33.37,2.29,1.75,3.17,2.21,2.92.46-.25-.25-2.83.17-3.75.42-.92,1.62-2.25,2.33-1.96.71.29,1.58.72,1.58.72Z" style="fill:url(#m); mix-blend-mode:multiply; opacity:.6; stroke-width:0px;"/><path d="M21.02,54.22s-1.66-.99-2.16-.67c-.5.32-1.78,1.47-1.84,2.19s.41,2.78,0,3.14c-.41.36-1.87-1.96-1.93-4.01-.07-2.05,1.08-4.41,1.08-4.69s-.27-1.59-.27-1.59c0,0,3.9,3.69,5.11,5.64Z" style="fill:url(#n); mix-blend-mode:multiply; opacity:.6; stroke-width:0px;"/><path d="M77.19,50.26c-.45,4.88-1.39,9.44-1.61,14.55-.22,5.11-.65,9.26-1.44,11.16-.36.85-.99,1.74-1.79,2.64h0c-2.27,2.56-5.88,5.24-8.32,7.76-.92.95-1.88,1.76-2.79,2.43,0,0,0,0-.01,0-1.82,1.35-3.43,2.16-4.2,2.47-2.33.96-8.37.96-8.37.96,0,0-6.04,0-8.37-.96-1.15-.47-4.22-2.05-7-4.91-2.89-2.98-7.39-6.18-9.4-9.13-.3-.43-.54-.86-.72-1.27-.8-1.9-1.22-6.05-1.44-11.16-.22-5.11-1.17-9.66-1.61-14.55-.44-4.89-1-21.82.44-25.71,1.45-3.89,18.55-14.33,28.1-14.33,6.7,0,17.13,5.14,23.25,9.56,2.6,1.87,4.42,3.61,4.85,4.77,1.45,3.89.89,20.83.45,25.71Z" style="fill:url(#o); stroke-width:0px;"/><path d="M72.34,78.61c-2.27,2.55-5.88,5.24-8.32,7.76-.92.95-1.88,1.76-2.79,2.43,0,0,0,0-.01,0-1.82,1.35-3.43,2.16-4.2,2.47-2.33.96-8.37.96-8.37.96,0,0-6.04,0-8.37-.96-1.15-.47-4.22-2.05-7-4.91-2.89-2.98-7.39-6.18-9.4-9.13,0,0,3.27,3.04,6.73,5.92,3.46,2.88,9.21,8.36,18.04,8.36s15.45-6.55,16.83-7.55c1.36-.98,6.69-5.21,6.87-5.35Z" style="fill:#cb4397; mix-blend-mode:multiply; opacity:.6; stroke-width:0px;"/><path d="M43.69,4.47s3.79-2.23,9.26-2c5.46.23,11.67,3.17,11.67,3.17l-15,8.09-6.77-2.48.84-6.78Z" style="fill:url(#p); stroke-width:0px;"/><path d="M81.47,28.57l-1.51-1.08-2.56,20.52s.61-6.94-.33-10.78c-.94-3.84-.72-11.51-.72-11.51,0,0-5.77-7.01-11.14-8.62,0,0-7.04.83-17.6,1.22-10.56.39-16.63.22-16.63.22,0,0-7.06,3.89-9.28,7.79,0,0,.06,5.89-.11,9-.17,3.11-1.71,13.77-1.71,13.77,0,0,0-.04,0-.11-.09-1.33-.96-13.95-1.89-19.16-.03-.18-.07-.37-.09-.55h0c-.11-.66-.18-1.33-.25-2,0-.02,0-.04,0-.06-.22-2.4-.2-4.78-.13-6.52,0-.12,0-.24.02-.36,0-.11.01-.22.02-.33,0-.1,0-.19.02-.28,0-.1,0-.19.02-.28.01-.21.03-.4.04-.57,0-.1.01-.18.02-.26,0-.02,0-.03,0-.04,0-.08.01-.16.02-.23.01-.15.03-.27.03-.35,0-.02,0-.04,0-.05,0-.05,0-.07,0-.07l.19.06,1.3,2.52s0,0,.02-.02c0,0,.01-.01.02-.03,0,0,0,0,.01-.01.02-.02.05-.05.08-.09.37-.44,1.58-1.83,3.32-3.64.09-.1.19-.2.28-.3.03-.03.05-.06.08-.08.15-.16.34-.36.55-.57.05-.05.11-.11.17-.17,1.67-1.7,3.71-3.65,5.9-5.49.01-.01.03-.03.04-.04.07-.06.15-.13.23-.18.79-.66,1.6-1.3,2.42-1.91C39.27,2.72,47.2.05,47.2.05h3.59s-4.17,6.88-5.08,11.19c.12-.28,4.17-9.22,7.47-11.19,0,0,3.2-.42,6.79,1.25,0,0-6.03,5.08-7.52,9.09.25-.21,10.18-8.52,17.42-4.17-.2-.04-2.25-.44-4.22-.2,0,0,2.09.88,5.37,4.55.48.54,1.03,1.2,1.61,1.94,3.36,4.32,7.92,11.61,8.85,16.07Z" style="fill:url(#q); stroke-width:0px;"/><path d="M48.61,18.27S57.79-.29,69.88,6.22c0,0-11.47-.89-19.58,11.98l-1.69.07Z" style="fill:url(#r); stroke-width:0px;"/><path d="M53.17.05s-7.4,7.76-8.48,18.22h3.92s.86-10.2,8.73-17.88c0,0-1.77-.34-4.17-.34Z" style="fill:url(#s); stroke-width:0px;"/><path d="M47.19.05s-5.89,8.06-6.37,18.46c0,0,1.11-9.53,7.78-18.46h-1.42Z" style="fill:url(#t); stroke-width:0px;"/><path d="M18.54,20.19s1.91,3.12,3.69,5.33l-.52.8v2.25s-2.54-1.2-3.99-4.02v-6.7l.83,2.35Z" style="fill:url(#u); stroke-width:0px;"/><path d="M28.69,10.77s-2.88,3.42-3.61,11.82l1.41-1.12s-.24-7.15,4.31-12.41l-2.11,1.71Z" style="fill:url(#v); stroke-width:0px;"/><path d="M56.53,17.84s5.69-7.21,15.36-7.37l-.49.51,3.45.82s-5.36,1.14-9.62,5.28l-8.69.76Z" style="fill:url(#w); stroke-width:0px;"/><path d="M57.2,17.09h8.01s-7.04.83-17.6,1.22c-10.56.39-16.63.22-16.63.22,0,0-7.06,3.89-9.28,7.79,0,0,.06,5.89-.11,9-.17,3.11-1.71,13.77-1.71,13.77,0,0,0-.04,0-.11-.13-1.35-1.34-14.09-1.98-19.72h0c-.1-.86-.18-1.54-.25-2,0-.02,0-.04,0-.06-.29-2.12-.22-4.9-.11-6.88,0-.11.01-.22.02-.33,0-.1,0-.19.02-.28,0-.1,0-.19.02-.28.01-.21.03-.4.04-.57,0-.1.01-.18.02-.26,0-.02,0-.03,0-.04,0-.08.01-.16.02-.23.01-.15.03-.27.03-.35,0-.02,0-.04,0-.05,0-.05,0-.07,0-.07l.19.06,1.3,2.52s0,0,.02-.02c0,0,.01-.01.02-.03,0,0,0,0,.01-.01.34-.38,2.2-2.46,3.68-4.04.03-.03.05-.06.08-.08.15-.16.34-.36.55-.57,1.73-1.73,5.1-4.78,6.07-5.66.01-.01.03-.03.04-.04.15-.13.23-.21.23-.21v.02c-.4,4.3.89,7.01.89,7.01,7.6.64,26.4.28,26.4.28Z" style="fill:#8c2f7e; mix-blend-mode:multiply; opacity:.6; stroke-width:0px;"/><path d="M81.47,28.57l-1.51-1.08-2.56,20.52s.61-6.94-.33-10.78c-.94-3.84-.72-11.51-.72-11.51,0,0-5.77-7.01-11.14-8.62l.47-.44,6.93-4.15h0c3.36,4.33,7.92,11.61,8.85,16.07Z" style="fill:#8c2f7e; mix-blend-mode:multiply; opacity:.6; stroke-width:0px;"/><path d="M71.45,20.82s1.9-.73,4.51-.62,3.84,2.36,3.84,2.36c0,0-3.1-1.04-7.28-.81l-1.07-.93Z" style="fill:url(#x); stroke-width:0px;"/><path d="M24.39,23.19s-4.84-4.68-2.16-10.21c0,0,.79,3.27,2.91,9.08l-.74,1.14Z" style="fill:url(#y); stroke-width:0px;"/></g></g></g></svg>