<?xml version="1.0" encoding="UTF-8"?><svg xmlns="http://www.w3.org/2000/svg" xmlns:xlink="http://www.w3.org/1999/xlink" viewBox="0 0 97.8 112.97"><defs><linearGradient id="d" x1="48.9" y1="112.97" x2="48.9" y2="78.53" gradientUnits="userSpaceOnUse"><stop offset="0" stop-color="#ffb39d"/><stop offset=".23" stop-color="#ff9b8d"/><stop offset=".48" stop-color="#ff8781"/><stop offset=".74" stop-color="#ff7b79"/><stop offset="1" stop-color="#f77"/></linearGradient><linearGradient id="e" x1="48.9" y1="112.97" x2="48.9" y2="99.46" gradientUnits="userSpaceOnUse"><stop offset="0" stop-color="#8684f4"/><stop offset="1" stop-color="#839af2"/></linearGradient><linearGradient id="f" x1="59.22" y1="104.92" x2="59.22" y2="83.06" gradientUnits="userSpaceOnUse"><stop offset="0" stop-color="#ffeadb"/><stop offset=".99" stop-color="#d177f4"/></linearGradient><linearGradient id="g" x1="67.44" y1="110.3" x2="67.44" y2="101.97" xlink:href="#f"/><linearGradient id="h" x1="27.17" y1="110.3" x2="27.17" y2="101.41" xlink:href="#f"/><linearGradient id="i" x1="81.47" y1="64.64" x2="81.47" y2="38.94" gradientUnits="userSpaceOnUse"><stop offset="0" stop-color="#ff847c"/><stop offset=".03" stop-color="#ff827a"/><stop offset=".35" stop-color="#ff7366"/><stop offset=".68" stop-color="#ff6a5a"/><stop offset="1" stop-color="#ff6856"/></linearGradient><linearGradient id="j" x1="81.98" y1="56.82" x2="81.98" y2="43.49" xlink:href="#f"/><linearGradient id="k" x1="79.32" y1="56.48" x2="79.32" y2="46.15" xlink:href="#f"/><linearGradient id="l" x1="-983.41" y1="64.64" x2="-983.41" y2="38.94" gradientTransform="translate(-967.5) rotate(-180) scale(1 -1)" xlink:href="#i"/><linearGradient id="m" x1="-982.91" y1="56.82" x2="-982.91" y2="43.49" gradientTransform="translate(-967.5) rotate(-180) scale(1 -1)" xlink:href="#f"/><linearGradient id="n" x1="-985.56" y1="56.48" x2="-985.56" y2="46.15" gradientTransform="translate(-967.5) rotate(-180) scale(1 -1)" xlink:href="#f"/><linearGradient id="o" x1="48.17" y1="89.81" x2="48.17" y2="7.78" gradientUnits="userSpaceOnUse"><stop offset="0" stop-color="#e9a691"/><stop offset=".08" stop-color="#eca68d"/><stop offset=".51" stop-color="#f9ab80"/><stop offset=".57" stop-color="#faa67c"/><stop offset=".78" stop-color="#fd9a75"/><stop offset="1" stop-color="#ff9673"/></linearGradient><linearGradient id="p" x1="49.54" y1="45.75" x2="49.54" y2="0" gradientUnits="userSpaceOnUse"><stop offset="0" stop-color="#36062c"/><stop offset="1" stop-color="#441b3e"/></linearGradient><linearGradient id="q" x1="62.6" y1="3.6" x2="62.7" y2="3.6" xlink:href="#f"/></defs><g style="isolation:isolate;"><g id="b"><g id="c"><path d="M27.32,78.53s-.72,19.67-1.22,21.61c-.5,1.94-26.1,12.83-26.1,12.83h97.8s-27.82-9.83-28.57-12.08c-.75-2.25-.77-21-.77-21l-41.13-1.36Z" style="fill:url(#d); stroke-width:0px;"/><path d="M26.2,99.57s-2.04-.24-2.26,0c-.22.24,0,1.85,0,1.85L0,112.97h97.8l-25.82-11s-.89-2.44-2.75-1.08l.64.92s-8.66,9.27-23.1,9.27-20.56-11.51-20.56-11.51Z" style="fill:url(#e); stroke-width:0px;"/><path d="M27,86.37s4.82,1.35,5.99,3.44c1.17,2.08,8.66,17.74,14.58,17.99,5.91.25,9.75-8.08,12.75-10,3-1.92,8.43-2.06,8.43-2.06l-.29-15.86-41.13-1.36-.32,7.84Z" style="fill:#8c2f7e; mix-blend-mode:multiply; opacity:.6; stroke-width:0px;"/><path d="M55.29,89.31l-1.52,15.61s3.67-4.12,5.55-7.11c1.87-3,5.37-14.74,5.37-14.74l-9.4,6.25Z" style="fill:url(#f); mix-blend-mode:multiply; opacity:.6; stroke-width:0px;"/><path d="M71.97,101.97s-6.28,5.66-12.75,8.33c0,0,12.84-4.08,16.43-6.76l-3.68-1.57Z" style="fill:url(#g); mix-blend-mode:multiply; opacity:.6; stroke-width:0px;"/><path d="M23.94,101.41s4.41,4.44,10.78,8.89c0,0-8.13-2.17-15.09-6.81l4.31-2.08Z" style="fill:url(#h); mix-blend-mode:multiply; opacity:.6; stroke-width:0px;"/><path d="M29.97,104.31s6.55,5.99,17.9,5.99,18.23-5.38,18.23-5.38c0,0-7.82,6.16-19.34,6.16s-16.79-6.76-16.79-6.76Z" style="fill:#8c2f7e; mix-blend-mode:multiply; opacity:.6; stroke-width:0px;"/><path d="M76.06,45.16s4.09-6.23,6.87-6.22c1.69,0,5.77,3.55,5.72,6.94-.06,4.53-4.07,9.68-5.07,12.32-1,2.64-3.59,6.08-5.31,6.42-1.72.33-3.96-2.93-3.96-2.93,0,0,.84-12.43,1.76-16.54Z" style="fill:url(#i); stroke-width:0px;"/><path d="M76.36,51.79s6.72-8.3,9.16-8.3,2.44,4.72,1.46,7.41c-.68,1.87-2.01,4.56-2.01,4.56,0,0,1.06-2.89,1.18-5.06.19-3.33-.55-5.75-1.39-5.75-1.55.01-2.76,2.12-2.96,2.87-.19.75,1.22,4.04.85,6.33-.37,2.29-1.75,3.17-2.21,2.92-.46-.25.25-2.83-.17-3.75-.42-.92-1.62-2.25-2.33-1.96-.71.29-1.58.72-1.58.72Z" style="fill:url(#j); mix-blend-mode:multiply; opacity:.6; stroke-width:0px;"/><path d="M76.36,51.79s1.66-.99,2.16-.67,1.78,1.47,1.84,2.19-.41,2.78,0,3.14c.41.36,1.87-1.96,1.93-4.01.07-2.05-1.08-4.41-1.08-4.69s.27-1.59.27-1.59c0,0-3.9,3.69-5.11,5.64Z" style="fill:url(#k); mix-blend-mode:multiply; opacity:.6; stroke-width:0px;"/><path d="M21.32,45.16s-4.09-6.23-6.87-6.22c-1.69,0-5.77,3.55-5.72,6.94.06,4.53,4.07,9.68,5.07,12.32s3.59,6.08,5.31,6.42c1.72.33,3.96-2.93,3.96-2.93,0,0-.84-12.43-1.76-16.54Z" style="fill:url(#l); stroke-width:0px;"/><path d="M21.02,51.79s-6.72-8.3-9.16-8.3-2.44,4.72-1.46,7.41c.68,1.87,2.01,4.56,2.01,4.56,0,0-1.06-2.89-1.18-5.06-.19-3.33.55-5.75,1.39-5.75,1.55.01,2.76,2.12,2.96,2.87.19.75-1.22,4.04-.85,6.33.37,2.29,1.75,3.17,2.21,2.92.46-.25-.25-2.83.17-3.75.42-.92,1.62-2.25,2.33-1.96.71.29,1.58.72,1.58.72Z" style="fill:url(#m); mix-blend-mode:multiply; opacity:.6; stroke-width:0px;"/><path d="M21.02,51.79s-1.66-.99-2.16-.67c-.5.32-1.78,1.47-1.84,2.19s.41,2.78,0,3.14c-.41.36-1.87-1.96-1.93-4.01-.07-2.05,1.08-4.41,1.08-4.69s-.27-1.59-.27-1.59c0,0,3.9,3.69,5.11,5.64Z" style="fill:url(#n); mix-blend-mode:multiply; opacity:.6; stroke-width:0px;"/><path d="M77.19,47.83c-.45,4.88-1.39,9.44-1.61,14.55-.22,5.11-.65,9.26-1.44,11.16-.36.85-.99,1.74-1.79,2.64h0c-2.27,2.56-5.88,5.24-8.32,7.76-.92.95-1.88,1.76-2.79,2.43,0,0,0,0-.01,0-1.82,1.35-3.43,2.16-4.2,2.47-2.33.96-8.37.96-8.37.96,0,0-6.04,0-8.37-.96-1.15-.47-4.22-2.05-7-4.91-2.89-2.98-7.39-6.18-9.4-9.13-.3-.43-.54-.86-.72-1.28-.8-1.9-1.22-6.05-1.44-11.16-.22-5.11-1.17-9.66-1.61-14.55-.44-4.89-2.35-22.82-.9-26.71,1.45-3.89,19.9-13.33,29.45-13.33,6.7,0,17.13,5.14,23.25,9.56,2.6,1.87,4.42,3.61,4.85,4.77,1.45,3.89.89,20.83.45,25.71Z" style="fill:url(#o); stroke-width:0px;"/><path d="M72.34,76.18c-2.27,2.55-5.88,5.24-8.32,7.76-.92.95-1.88,1.76-2.79,2.43,0,0,0,0-.01,0-1.82,1.35-3.43,2.16-4.2,2.47-2.33.96-8.37.96-8.37.96,0,0-6.04,0-8.37-.96-1.15-.47-4.22-2.05-7-4.91-2.89-2.98-7.39-6.18-9.4-9.13,0,0,3.27,3.04,6.73,5.92,3.46,2.88,9.21,8.36,18.04,8.36s15.45-6.55,16.83-7.55c1.36-.98,6.69-5.21,6.87-5.35Z" style="fill:#cb4397; mix-blend-mode:multiply; opacity:.6; stroke-width:0px;"/><path d="M79.9,23.14l2.49,1.53c-1.6-6.18-10.04-8.99-11.44-9.42-.14-.04-.2-.06-.2-.06-1.23-4.2-4.48-8.75-7.86-11.4-.07-.06-.14-.11-.18-.15-.03-.03-.06-.05-.09-.07-1-.75-2.01-1.33-2.98-1.69-2.18-.8-3.95-.83-5.17-.66-2.3-1.02-5.23-1.62-8.63-.88-4.2.92-7.56,2.6-10.16,4.12h0s-1.03.63-1.03.63c-.01,0-.02.01-.03.01,0,0-.01,0-.01,0-1.36.84-2.47,1.58-3.35,2.08-.01,0-.02,0-.03.01h0c-.56.32-1.03.52-1.4.57-2.12.32-3.77-4.61-3.77-4.61-1.92,3.08.45,7.63.45,7.63,0,0-4.93.83-7.56,4.74-2.62,3.9-2.24,11.28-2.24,11.28.84-2.49,2.94-7.2,3.07-7.49l-.18.7-.04.18c-1.57,7.31.23,25.56.23,25.56.68-8.38,5.98-16.47,5.98-16.47,2.23,3.39,9.67,4.43,10.14,4.48-.98-.32-1.89-.88-2.68-1.59-.01-.01-.02-.02-.03-.02-2.99-2.72-4.36-7.65-2.34-10.42,2.56-3.53,8.65-3.27,17.75-2.95,9.09.32,14.79-1.35,16.33-.64,1.54.7,9.67,7.94,10.82,10.25,1.16,2.31,1.74,16.08,1.74,16.08l1.94-12.11c1.95,3.01,1.58,5.21,1.58,5.21,0,0,1.2-3.67.59-7.86-.59-4.06-1.62-6.43-1.68-6.57ZM55.38,1.66c4.12.47,4.79,3.79,4.79,3.79,0,0-1.74-2.19-4.79-3.79Z" style="fill:url(#p); stroke-width:0px;"/><path d="M62.7,3.64c-.05-.04-.09-.07-.11-.08h.02s.05.05.09.08Z" style="fill:url(#q); mix-blend-mode:multiply; stroke-width:0px;"/><path d="M79.41,32.35l-1.94,12.11s-.58-13.77-1.74-16.08c-1.15-2.31-9.28-9.55-10.82-10.25-1.53-.7-7.23.96-16.33.64-9.1-.32-15.18-.58-17.75,2.95-2.02,2.78-.66,7.71,2.34,10.42-7.75-5.76-4.32-15.36-4.32-15.36-4.39-.84-7.69,1.37-8.73,2.2,8.93-7.92,20.85-1.41,20.85-1.41l1.32.04s-2.24-5.79-6.37-7.21c-4.13-1.41-9.45.36-9.45.36,0,0,5.75-3.87,10.06-2.85,4.3,1.02,8.04,9.55,8.04,9.55.86.35,2.91.09,2.91.09,0,0-2.87-8.73-7.21-10.38-3.81-1.44-7.93-.35-8.88-.07.89-.32,4.62-1.5,9.14-1.02,5.18.54,8.52,11.85,8.52,11.85h2.75s.1-9.03-4.26-12.49c-4.18-3.32-12.3-.59-12.93-.38l1.03-.62h0c.3-.11,8.21-2.9,13.17.68,5.05,3.65,4.89,11.97,4.89,11.97,2.07.07,7.48-.66,7.48-.66,1.1-4.29-.82-10.38-1.01-10.96,1.87,4,1.78,10.66,2.39,10.92.62.26,4.89-.64,4.89-.64.32-7.32-3.46-11.05-4.58-11.98,3.39,2.65,6.63,7.2,7.86,11.4,0,0,.07.02.2.06,0,0-.62,2.92,2,4.01,2.55,1.05,6.67,3.7,6.93,3.87-4.55-2.08-9.97-3.04-9.97-3.04l4.07,4.52c3.97,3.3,5.43,7.75,5.43,7.75Z" style="fill:#b42f97; mix-blend-mode:multiply; opacity:.6; stroke-width:0px;"/><path d="M25.75,29.28s-5.29,8.09-5.98,16.47c0,0-1.8-18.25-.23-25.56l.04-.18.18-.7c0,5.65,4.29,9.08,4.29,9.08-2.06-5.37,1.51-8,1.68-8.13-2.1,3.6,0,9.02,0,9.02Z" style="fill:#b42f97; mix-blend-mode:multiply; opacity:.6; stroke-width:0px;"/><path d="M46.99,4.13s2.62.91,5.95,1.31c3.33.4,6.64-.66,6.64-.66l.61.7s.68,2.21.92,3.72c0,0-.94-1.19-2.73-1.51s-6.05,1.12-6.05,1.12c0,0-1.94-3.46-5.34-4.69Z" style="fill:#c4d9e0; mix-blend-mode:soft-light; stroke-width:0px;"/><path d="M42.24,6.67s1.84,1.12,2.96,2.94l4.07-1.07s-1.06-2.54-3.51-3.59l-3.51,1.72Z" style="fill:#c4d9e0; mix-blend-mode:soft-light; stroke-width:0px;"/><path d="M38.38,8.02s2.09,1.24,3.03,2.43l1.75-.34s-.87-2.17-2.39-2.71c-1.52-.54-2.39.62-2.39.62Z" style="fill:#c4d9e0; mix-blend-mode:soft-light; stroke-width:0px;"/><path d="M73.15,18.39s2.28,1.31,4.62,2.69c0,0,.23-1.17,0-1.92-.23-.75-3.66-2.05-3.66-2.05l-.96,1.28Z" style="fill:#c4d9e0; mix-blend-mode:soft-light; stroke-width:0px;"/><path d="M20.13,17.14s4.61-2.63,9.68-2.55c0,0-2.96-1.11-2.81-1.67.15-.56,1.39-2.48,1.39-2.48,0,0-7.26.76-8.26,6.69Z" style="fill:#c4d9e0; mix-blend-mode:soft-light; stroke-width:0px;"/></g></g></g></svg>