<?xml version="1.0" encoding="UTF-8"?><svg xmlns="http://www.w3.org/2000/svg" xmlns:xlink="http://www.w3.org/1999/xlink" viewBox="0 0 97.8 109.24"><defs><linearGradient id="d" x1="48.9" y1="109.24" x2="48.9" y2="74.81" gradientUnits="userSpaceOnUse"><stop offset="0" stop-color="#ffb39d"/><stop offset=".23" stop-color="#ff9b8d"/><stop offset=".48" stop-color="#ff8781"/><stop offset=".74" stop-color="#ff7b79"/><stop offset="1" stop-color="#f77"/></linearGradient><linearGradient id="e" x1="48.9" y1="109.24" x2="48.9" y2="95.74" gradientUnits="userSpaceOnUse"><stop offset="0" stop-color="#8684f4"/><stop offset="1" stop-color="#839af2"/></linearGradient><linearGradient id="f" x1="59.22" y1="101.2" x2="59.22" y2="79.34" gradientUnits="userSpaceOnUse"><stop offset="0" stop-color="#ffeadb"/><stop offset=".99" stop-color="#d177f4"/></linearGradient><linearGradient id="g" x1="67.44" y1="106.58" x2="67.44" y2="98.25" xlink:href="#f"/><linearGradient id="h" x1="27.17" y1="106.58" x2="27.17" y2="97.69" xlink:href="#f"/><linearGradient id="i" x1="81.47" y1="60.92" x2="81.47" y2="35.22" gradientUnits="userSpaceOnUse"><stop offset="0" stop-color="#ff847c"/><stop offset=".03" stop-color="#ff827a"/><stop offset=".35" stop-color="#ff7366"/><stop offset=".68" stop-color="#ff6a5a"/><stop offset="1" stop-color="#ff6856"/></linearGradient><linearGradient id="j" x1="81.98" y1="53.1" x2="81.98" y2="39.77" xlink:href="#f"/><linearGradient id="k" x1="79.32" y1="52.76" x2="79.32" y2="42.43" xlink:href="#f"/><linearGradient id="l" x1="-978.97" x2="-978.97" y2="35.22" gradientTransform="translate(-963.06) rotate(-180) scale(1 -1)" xlink:href="#i"/><linearGradient id="m" x1="-978.46" y1="53.1" x2="-978.46" y2="39.77" gradientTransform="translate(-963.06) rotate(-180) scale(1 -1)" xlink:href="#f"/><linearGradient id="n" x1="-981.12" y1="52.76" x2="-981.12" y2="42.43" gradientTransform="translate(-963.06) rotate(-180) scale(1 -1)" xlink:href="#f"/><linearGradient id="o" x1="48.17" y1="86.08" x2="48.17" y2="4.06" gradientUnits="userSpaceOnUse"><stop offset="0" stop-color="#e9a691"/><stop offset=".08" stop-color="#eca68d"/><stop offset=".51" stop-color="#f9ab80"/><stop offset=".57" stop-color="#faa67c"/><stop offset=".78" stop-color="#fd9a75"/><stop offset="1" stop-color="#ff9673"/></linearGradient><linearGradient id="p" x1="14.91" y1="26.49" x2="80.89" y2="26.49" gradientUnits="userSpaceOnUse"><stop offset="0" stop-color="#36062c"/><stop offset="1" stop-color="#441b3e"/></linearGradient></defs><g style="isolation:isolate;"><g id="b"><g id="c"><path d="M27.32,74.81s-.72,19.67-1.22,21.61c-.5,1.94-26.1,12.83-26.1,12.83h97.8s-27.82-9.83-28.57-12.08c-.75-2.25-.77-21-.77-21l-41.13-1.36Z" style="fill:url(#d); stroke-width:0px;"/><path d="M26.2,95.84s-2.04-.24-2.26,0c-.22.24,0,1.85,0,1.85L0,109.24h97.8l-25.82-11s-.89-2.44-2.75-1.08l.64.92s-8.66,9.27-23.1,9.27-20.56-11.51-20.56-11.51Z" style="fill:url(#e); stroke-width:0px;"/><path d="M27,82.65s4.82,1.35,5.99,3.44c1.17,2.08,8.66,17.74,14.58,17.99,5.91.25,9.75-8.08,12.74-10,3-1.92,8.43-2.06,8.43-2.06l-.29-15.86-41.13-1.36-.32,7.84Z" style="fill:#8c2f7e; mix-blend-mode:multiply; opacity:.6; stroke-width:0px;"/><path d="M55.29,85.59l-1.52,15.61s3.67-4.12,5.55-7.11c1.87-3,5.37-14.74,5.37-14.74l-9.4,6.25Z" style="fill:url(#f); mix-blend-mode:multiply; opacity:.6; stroke-width:0px;"/><path d="M71.97,98.25s-6.28,5.66-12.75,8.33c0,0,12.84-4.08,16.43-6.76l-3.68-1.57Z" style="fill:url(#g); mix-blend-mode:multiply; opacity:.6; stroke-width:0px;"/><path d="M23.94,97.69s4.41,4.44,10.78,8.89c0,0-8.13-2.17-15.09-6.81l4.31-2.08Z" style="fill:url(#h); mix-blend-mode:multiply; opacity:.6; stroke-width:0px;"/><path d="M29.97,100.59s6.55,5.99,17.9,5.99,18.23-5.38,18.23-5.38c0,0-7.82,6.16-19.34,6.16s-16.79-6.76-16.79-6.76Z" style="fill:#8c2f7e; mix-blend-mode:multiply; opacity:.6; stroke-width:0px;"/><path d="M76.06,41.44s4.09-6.23,6.87-6.22c1.69,0,5.77,3.55,5.72,6.94-.06,4.53-4.07,9.68-5.07,12.32-1,2.64-3.59,6.08-5.31,6.42-1.72.33-3.96-2.93-3.96-2.93,0,0,.84-12.43,1.76-16.54Z" style="fill:url(#i); stroke-width:0px;"/><path d="M76.36,48.07s6.72-8.3,9.16-8.3,2.44,4.72,1.46,7.41c-.68,1.87-2.01,4.56-2.01,4.56,0,0,1.06-2.89,1.18-5.06.19-3.33-.55-5.75-1.39-5.75-1.55.01-2.76,2.12-2.96,2.87s1.22,4.04.85,6.33c-.37,2.29-1.75,3.17-2.21,2.92-.46-.25.25-2.83-.17-3.75s-1.62-2.25-2.33-1.96c-.71.29-1.58.72-1.58.72Z" style="fill:url(#j); mix-blend-mode:multiply; opacity:.6; stroke-width:0px;"/><path d="M76.36,48.07s1.66-.99,2.16-.67,1.78,1.47,1.84,2.19-.41,2.78,0,3.14c.41.36,1.87-1.96,1.93-4.01.07-2.05-1.08-4.41-1.08-4.69s.27-1.59.27-1.59c0,0-3.9,3.69-5.11,5.64Z" style="fill:url(#k); mix-blend-mode:multiply; opacity:.6; stroke-width:0px;"/><path d="M21.32,41.44s-4.09-6.23-6.87-6.22c-1.69,0-5.77,3.55-5.72,6.94.06,4.53,4.07,9.68,5.07,12.32,1,2.64,3.59,6.08,5.31,6.42,1.72.33,3.96-2.93,3.96-2.93,0,0-.84-12.43-1.76-16.54Z" style="fill:url(#l); stroke-width:0px;"/><path d="M21.02,48.07s-6.72-8.3-9.16-8.3-2.44,4.72-1.46,7.41c.68,1.87,2.01,4.56,2.01,4.56,0,0-1.06-2.89-1.18-5.06-.19-3.33.55-5.75,1.39-5.75,1.55.01,2.76,2.12,2.96,2.87s-1.22,4.04-.85,6.33c.37,2.29,1.75,3.17,2.21,2.92.46-.25-.25-2.83.17-3.75.42-.92,1.62-2.25,2.33-1.96.71.29,1.58.72,1.58.72Z" style="fill:url(#m); mix-blend-mode:multiply; opacity:.6; stroke-width:0px;"/><path d="M21.02,48.07s-1.66-.99-2.16-.67-1.78,1.47-1.84,2.19c-.05.72.41,2.78,0,3.14-.41.36-1.87-1.96-1.93-4.01s1.08-4.41,1.08-4.69-.27-1.59-.27-1.59c0,0,3.9,3.69,5.11,5.64Z" style="fill:url(#n); mix-blend-mode:multiply; opacity:.6; stroke-width:0px;"/><path d="M77.19,44.1c-.45,4.88-1.39,9.44-1.61,14.55-.22,5.11-.65,9.26-1.44,11.16-.36.85-.99,1.74-1.79,2.64h0c-2.27,2.56-5.88,5.25-8.32,7.76-.92.95-1.88,1.76-2.79,2.43,0,0,0,0-.01,0-1.82,1.35-3.43,2.16-4.2,2.47-2.33.96-8.37.96-8.37.96,0,0-6.04,0-8.37-.96-1.15-.47-4.22-2.05-7-4.91-2.89-2.98-7.39-6.18-9.4-9.13-.3-.43-.54-.86-.72-1.27-.8-1.9-1.22-6.05-1.44-11.16-.22-5.11-1.17-9.66-1.61-14.55-.44-4.89-2.35-22.82-.9-26.71,1.45-3.89,19.9-13.33,29.45-13.33,6.7,0,17.13,5.14,23.25,9.56,2.6,1.87,4.42,3.61,4.85,4.77,1.45,3.89.89,20.83.45,25.71Z" style="fill:url(#o); stroke-width:0px;"/><path d="M72.34,72.45c-2.27,2.55-5.88,5.24-8.32,7.76-.92.95-1.88,1.76-2.79,2.43,0,0,0,0-.01,0-1.82,1.35-3.43,2.16-4.2,2.47-2.33.96-8.37.96-8.37.96,0,0-6.04,0-8.37-.96-1.15-.47-4.22-2.05-7-4.91-2.89-2.98-7.39-6.18-9.4-9.13,0,0,3.27,3.04,6.73,5.92,3.46,2.88,9.21,8.36,18.04,8.36s15.45-6.55,16.83-7.55c1.36-.98,6.69-5.21,6.87-5.35Z" style="fill:#cb4397; mix-blend-mode:multiply; opacity:.6; stroke-width:0px;"/><path d="M78.09,12.16c-.02-.07-.05-.13-.07-.19-.05-.12-.1-.24-.15-.36-.03-.09-.07-.2-.11-.28-.02-.07-.05-.13-.08-.2h0s0-.03-.01-.04l-.02-.03c-.64-1.4-1.29-2.38-1.88-2.75-2.47-1.53-9.69-.93-9.69-.93,0,0,7.73-3.74,13.42-2.38,0,0-3.42-2.48-6.86-2.1-2.87.32-6.03,3.53-9.5,4.13-.68.11-1.37.13-2.07,0,0,0,0,0-.01,0-.39-.07-.85-.26-1.37-.54C56.54,4.8,51.37-.05,48.03,0c-3.89.07-9.05,2.89-18.07,5.64-2.7.83-4.99,2.15-6.91,3.89h0s0,0,0,.01c0,0-.01,0-.02.01h0s-.03.03-.05.05c-4.44,4.08-6.89,10.45-7.89,18.15-.52,3.95.13,8.3,1.17,12.26,1.44,5.46,3.63,10.18,4.57,12.07.26.52.42.83.45.89,0-.07-.09-.56-.21-1.3-.38-2.48-1.1-7.93-.72-11.19.13-1.06.47-2.08.98-3.07,0,0,0,0,0-.01,0-.01.01-.02.01-.03,1.56-3.01,4.57-5.78,7.24-9.03,1.14-1.38,2.66-3.21,4.48-5.08,5.58-.88,21.87-3.98,29.93-11.17,0,0,3.89,1.68,6.44,5.82,2.55,4.14,3.25,13.63,4.33,19.92,1.08,6.28,1.38,10.57,1.38,10.57,0,0,4.42-7.98,5.52-17.25.78-6.49-.75-14.35-2.58-19ZM48.03,14.48s0,0-.01,0c-.3.2-5.06,3.26-10.29,5.85-1.04.52-2.11,1.02-3.15,1.47,3.7-3.52,8.37-6.83,13.46-7.32Z" style="fill:url(#p); stroke-width:0px;"/><path d="M23.05,9.55l-.03.03h0s.01-.03.02-.03Z" style="fill:#8c2f7e; mix-blend-mode:multiply; opacity:.6; stroke-width:0px;"/><path d="M22.61,20.16c-2.62,7.96-1.28,17.27-1.28,17.27-.5.99-.85,2-.98,3.07-.38,3.26.34,8.7.72,11.19l-.24.42c-.94-1.9-3.13-6.61-4.57-12.07-.21-2.58-.36-5.44-.41-8.53-.24-14.03,6.32-21.07,7.13-21.88.02-.02.04-.04.05-.04-.34.42-3.09,3.94-4.05,9.95-1.02,6.4,0,13.76,0,13.76.26-8.85,3.91-15.9,6.46-19.78-.85,1.51-1.85,3.66-2.83,6.65Z" style="fill:#8c2f7e; mix-blend-mode:multiply; opacity:.6; stroke-width:0px;"/><path d="M77.67,11.13s-.03-.07-.03-.07l.02.03s.01.02.01.03Z" style="fill:#8c2f7e; mix-blend-mode:multiply; opacity:.6; stroke-width:0px;"/><path d="M77.76,11.33c.03.08.07.18.12.28-.04-.09-.08-.19-.12-.28Z" style="fill:#8c2f7e; mix-blend-mode:multiply; opacity:.6; stroke-width:0px;"/><path d="M80.68,31.16c-1.1,9.26-5.52,17.25-5.52,17.25,0,0-.3-4.29-1.38-10.57-1.08-6.28-1.78-15.77-4.33-19.92-2.55-4.14-6.44-5.82-6.44-5.82-8.06,7.2-24.36,10.29-29.93,11.17-1.82,1.87-3.34,3.7-4.48,5.08-2.68,3.25-5.68,6.02-7.24,9.03.36-.95,6.31-16.43,14.95-21.37,8.93-5.1,18.16-10.07,18.16-10.07,0,0-5.8-.63-10,.19-4.2.83-10.2,4.4-14.5,8.34-3.76,3.44-6.41,11.95-7.04,14.05.7-2.58,4.2-14.67,8.47-17.23,4.78-2.87,17.04-12.13,20.9-9.07,2.6,2.05,5.65,3.51,7.37,4.24.77.33,1.28.51,1.37.54,0,0,.01,0,.01,0h2.07s-.3,1.66-1.64,2.17c-1.34.5-13.45,5.28-13.45,5.28-5.09.49-9.76,3.8-13.46,7.32,1.05-.45,2.11-.95,3.15-1.47-.91.63-1.49,1.04-1.49,1.04,0,0,9.43-.7,14.97-2.99,5.55-2.29,11.47-7.96,11.47-7.96,0,0,5.29,1.59,7.51,5.6,2.23,4.02,6.56,21.79,6.56,21.79,0,0,2.17-17.46-3.31-23.76-2.96-3.41-8.16-5.06-8.85-5.21.81.1,8.12,1.16,10.12,5.09,2.13,4.16,4.76,20.47,4.76,20.47,2.38-10.91-.41-19.66-1.47-22.43,1.87,4.63,3.45,12.61,2.66,19.2Z" style="fill:#8c2f7e; mix-blend-mode:multiply; opacity:.6; stroke-width:0px;"/><path d="M22.69,34.2s3.04-9.07,6.42-14.74,7.65-7.85,7.65-7.85c0,0-8.7,9.74-14.07,22.59Z" style="fill:#8c2f7e; mix-blend-mode:multiply; opacity:.6; stroke-width:0px;"/><path d="M69.04,13.62s1.61,2.42,2.68,5.06c0,0,.7-2.03,2.21-2.53,0,0-.52-1.44-2.01-3.59,0,0-1.6.68-2.87,1.06Z" style="fill:#c4d9e0; mix-blend-mode:soft-light; stroke-width:0px;"/><path d="M72.52,11.06s1.98,1.24,2.85,3.6c0,0,1.52-2.15,1.74-3.19s-1.38-2.95-1.38-2.95c0,0-1.93-.87-3.21,2.54Z" style="fill:#c4d9e0; mix-blend-mode:soft-light; stroke-width:0px;"/><path d="M36.75,15.62s1.53-2.08,2-3.06c.47-.98-2-2.64-2-2.64l2.76-1.5s1.84,1.44,1.79,2.64,1.57.96,1.57.96l-6.12,3.6Z" style="fill:#c4d9e0; mix-blend-mode:soft-light; stroke-width:0px;"/><path d="M36.21,8.2s-1.71-1.29-2.86-1.68-.59-1.77-.59-1.77l1.66-.56s.38,1.21,1.4,2.01c1.02.8,3.56,0,3.56,0l-3.17,2.01Z" style="fill:#c4d9e0; mix-blend-mode:soft-light; stroke-width:0px;"/><path d="M42.87,18.14s2.93,1.04,6.29.53c3.36-.51,4.8-2.08,4.8-2.08,0,0-4.77-.07-6.09-.98l-5,2.53Z" style="fill:#c4d9e0; mix-blend-mode:soft-light; stroke-width:0px;"/></g></g></g></svg>