<?xml version="1.0" encoding="UTF-8"?><svg xmlns="http://www.w3.org/2000/svg" xmlns:xlink="http://www.w3.org/1999/xlink" viewBox="0 0 97.8 111.42"><defs><linearGradient id="d" x1="48.9" y1="111.42" x2="48.9" y2="76.98" gradientUnits="userSpaceOnUse"><stop offset="0" stop-color="#ffb39d"/><stop offset=".23" stop-color="#ff9b8d"/><stop offset=".48" stop-color="#ff8781"/><stop offset=".74" stop-color="#ff7b79"/><stop offset="1" stop-color="#f77"/></linearGradient><linearGradient id="e" x1="48.9" y1="111.42" x2="48.9" y2="97.91" gradientUnits="userSpaceOnUse"><stop offset="0" stop-color="#8684f4"/><stop offset="1" stop-color="#839af2"/></linearGradient><linearGradient id="f" x1="59.22" y1="103.37" x2="59.22" y2="81.51" gradientUnits="userSpaceOnUse"><stop offset="0" stop-color="#ffeadb"/><stop offset=".99" stop-color="#d177f4"/></linearGradient><linearGradient id="g" x1="67.44" y1="108.75" x2="67.44" y2="100.42" xlink:href="#f"/><linearGradient id="h" x1="27.17" y1="108.75" x2="27.17" y2="99.86" xlink:href="#f"/><linearGradient id="i" x1="81.47" y1="63.09" x2="81.47" y2="37.39" gradientUnits="userSpaceOnUse"><stop offset="0" stop-color="#ff847c"/><stop offset=".03" stop-color="#ff827a"/><stop offset=".35" stop-color="#ff7366"/><stop offset=".68" stop-color="#ff6a5a"/><stop offset="1" stop-color="#ff6856"/></linearGradient><linearGradient id="j" x1="81.98" y1="55.27" x2="81.98" y2="41.94" xlink:href="#f"/><linearGradient id="k" x1="79.32" y1="54.93" x2="79.32" y2="44.6" xlink:href="#f"/><linearGradient id="l" x1="-1183.2" x2="-1183.2" y2="37.39" gradientTransform="translate(-1167.29) rotate(-180) scale(1 -1)" xlink:href="#i"/><linearGradient id="m" x1="-1182.7" y1="55.27" x2="-1182.7" y2="41.94" gradientTransform="translate(-1167.29) rotate(-180) scale(1 -1)" xlink:href="#f"/><linearGradient id="n" x1="-1185.35" y1="54.93" x2="-1185.35" y2="44.6" gradientTransform="translate(-1167.29) rotate(-180) scale(1 -1)" xlink:href="#f"/><linearGradient id="o" x1="48.17" y1="88.26" x2="48.17" y2="6.23" gradientUnits="userSpaceOnUse"><stop offset="0" stop-color="#e9a691"/><stop offset=".08" stop-color="#eca68d"/><stop offset=".51" stop-color="#f9ab80"/><stop offset=".57" stop-color="#faa67c"/><stop offset=".78" stop-color="#fd9a75"/><stop offset="1" stop-color="#ff9673"/></linearGradient><linearGradient id="p" x1="48.64" y1="101.88" x2="48.64" y2="0" gradientUnits="userSpaceOnUse"><stop offset="0" stop-color="#36062c"/><stop offset="1" stop-color="#441b3e"/></linearGradient><linearGradient id="q" x1="18.02" y1="97.91" x2="18.02" y2="10.46" xlink:href="#f"/><linearGradient id="r" x1="32.75" y1="9.8" x2="33.39" y2="9.8" xlink:href="#f"/><linearGradient id="s" x1="53.34" y1="101.88" x2="53.34" y2=".71" xlink:href="#f"/><linearGradient id="t" x1="81.72" y1="101.1" x2="81.72" y2="64.25" gradientUnits="userSpaceOnUse"><stop offset="0" stop-color="#d177f4"/><stop offset="1" stop-color="#ffeadb"/></linearGradient><linearGradient id="u" x1="19.59" y1="99.86" x2="19.59" y2="60.37" xlink:href="#t"/><linearGradient id="v" x1="76.63" y1="97.91" x2="76.63" y2="66.82" xlink:href="#t"/></defs><g style="isolation:isolate;"><g id="b"><g id="c"><path d="M24.19,97.58s29.01,4.85,38.19,2.4c9.18-2.45,13.53-8.71,13.53-8.71l.7-29.34-60.45-5.48s.56,34.93,8.02,41.12Z" style="fill:#270039; stroke-width:0px;"/><path d="M27.32,76.98s-.72,19.67-1.22,21.61c-.5,1.94-26.1,12.83-26.1,12.83h97.8s-27.82-9.83-28.57-12.08c-.75-2.25-.77-21-.77-21l-41.13-1.36Z" style="fill:url(#d); stroke-width:0px;"/><path d="M26.2,98.02s-2.04-.24-2.26,0c-.22.24,0,1.85,0,1.85L0,111.42h97.8l-25.82-11s-.89-2.44-2.75-1.08l.64.92s-8.66,9.27-23.1,9.27-20.56-11.51-20.56-11.51Z" style="fill:url(#e); stroke-width:0px;"/><path d="M27,84.82s4.82,1.35,5.99,3.44c1.17,2.08,8.66,17.74,14.58,17.99,5.91.25,9.75-8.08,12.75-10,3-1.92,8.43-2.06,8.43-2.06l-.29-15.86-41.13-1.36-.32,7.84Z" style="fill:#8c2f7e; mix-blend-mode:multiply; opacity:.6; stroke-width:0px;"/><path d="M55.29,87.76l-1.52,15.61s3.67-4.12,5.55-7.11c1.87-3,5.37-14.74,5.37-14.74l-9.4,6.25Z" style="fill:url(#f); mix-blend-mode:multiply; opacity:.6; stroke-width:0px;"/><path d="M71.97,100.42s-6.28,5.66-12.75,8.33c0,0,12.84-4.08,16.43-6.76l-3.68-1.57Z" style="fill:url(#g); mix-blend-mode:multiply; opacity:.6; stroke-width:0px;"/><path d="M23.94,99.86s4.41,4.44,10.78,8.89c0,0-8.13-2.17-15.09-6.81l4.31-2.08Z" style="fill:url(#h); mix-blend-mode:multiply; opacity:.6; stroke-width:0px;"/><path d="M29.97,102.77s6.55,5.99,17.9,5.99,18.23-5.38,18.23-5.38c0,0-7.82,6.16-19.34,6.16s-16.79-6.76-16.79-6.76Z" style="fill:#8c2f7e; mix-blend-mode:multiply; opacity:.6; stroke-width:0px;"/><path d="M76.06,43.61s4.09-6.23,6.87-6.22c1.69,0,5.77,3.55,5.72,6.94-.06,4.53-4.07,9.68-5.07,12.32-1,2.64-3.59,6.08-5.31,6.42-1.72.33-3.96-2.93-3.96-2.93,0,0,.84-12.43,1.76-16.54Z" style="fill:url(#i); stroke-width:0px;"/><path d="M76.36,50.24s6.72-8.3,9.16-8.3,2.44,4.72,1.46,7.41c-.68,1.87-2.01,4.56-2.01,4.56,0,0,1.06-2.89,1.18-5.06.19-3.33-.55-5.75-1.39-5.75-1.55.01-2.76,2.12-2.96,2.87s1.22,4.04.85,6.33c-.37,2.29-1.75,3.17-2.21,2.92-.46-.25.25-2.83-.17-3.75-.42-.92-1.62-2.25-2.33-1.96-.71.29-1.58.72-1.58.72Z" style="fill:url(#j); mix-blend-mode:multiply; opacity:.6; stroke-width:0px;"/><path d="M76.36,50.24s1.66-.99,2.16-.67c.5.32,1.78,1.47,1.84,2.19.05.72-.41,2.78,0,3.14.41.36,1.87-1.96,1.93-4.01s-1.08-4.41-1.08-4.69.27-1.59.27-1.59c0,0-3.9,3.69-5.11,5.64Z" style="fill:url(#k); mix-blend-mode:multiply; opacity:.6; stroke-width:0px;"/><path d="M21.32,43.61s-4.09-6.23-6.87-6.22c-1.69,0-5.77,3.55-5.72,6.94.06,4.53,4.07,9.68,5.07,12.32,1,2.64,3.59,6.08,5.31,6.42,1.72.33,3.96-2.93,3.96-2.93,0,0-.84-12.43-1.76-16.54Z" style="fill:url(#l); stroke-width:0px;"/><path d="M21.02,50.24s-6.72-8.3-9.16-8.3-2.44,4.72-1.46,7.41c.68,1.87,2.01,4.56,2.01,4.56,0,0-1.06-2.89-1.18-5.06-.19-3.33.55-5.75,1.39-5.75,1.55.01,2.76,2.12,2.96,2.87s-1.22,4.04-.85,6.33c.37,2.29,1.75,3.17,2.21,2.92s-.25-2.83.17-3.75,1.62-2.25,2.33-1.96c.71.29,1.58.72,1.58.72Z" style="fill:url(#m); mix-blend-mode:multiply; opacity:.6; stroke-width:0px;"/><path d="M21.02,50.24s-1.66-.99-2.16-.67-1.78,1.47-1.84,2.19c-.05.72.41,2.78,0,3.14-.41.36-1.87-1.96-1.93-4.01-.07-2.05,1.08-4.41,1.08-4.69s-.27-1.59-.27-1.59c0,0,3.9,3.69,5.11,5.64Z" style="fill:url(#n); mix-blend-mode:multiply; opacity:.6; stroke-width:0px;"/><path d="M77.19,46.28c-.45,4.88-1.39,9.44-1.61,14.55-.22,5.11-.65,9.26-1.44,11.16-.36.85-.99,1.74-1.79,2.64h0c-2.27,2.56-5.88,5.25-8.32,7.76-.92.95-1.88,1.76-2.79,2.43,0,0,0,0-.01,0-1.82,1.35-3.43,2.16-4.2,2.47-2.33.96-8.37.96-8.37.96,0,0-6.04,0-8.37-.96-1.15-.47-4.22-2.05-7-4.91-2.89-2.98-7.39-6.18-9.4-9.13-.3-.43-.54-.86-.72-1.27-.8-1.9-1.22-6.05-1.44-11.16-.22-5.11-1.17-9.66-1.61-14.55-.44-4.89-2.35-22.82-.9-26.71,1.45-3.89,19.9-13.33,29.45-13.33,6.7,0,17.13,5.14,23.25,9.56,2.6,1.87,4.42,3.61,4.85,4.77,1.45,3.89.89,20.83.45,25.71Z" style="fill:url(#o); stroke-width:0px;"/><path d="M72.34,74.63c-2.27,2.55-5.88,5.24-8.32,7.76-.92.95-1.88,1.76-2.79,2.43,0,0,0,0-.01,0-1.82,1.35-3.43,2.16-4.2,2.47-2.33.96-8.37.96-8.37.96,0,0-6.04,0-8.37-.96-1.15-.47-4.22-2.05-7-4.91-2.89-2.98-7.39-6.18-9.4-9.13,0,0,3.27,3.04,6.73,5.92,3.46,2.88,9.21,8.36,18.04,8.36s15.45-6.55,16.83-7.55c1.36-.98,6.69-5.21,6.87-5.35Z" style="fill:#cb4397; mix-blend-mode:multiply; opacity:.6; stroke-width:0px;"/><path d="M78.36,101.1c2.29-4.41,1.86-10.1,1.86-10.1-1.44,3.83-4.57,6.91-4.57,6.91l1.17-3.71c-2.13,4.13-7.22,7.68-7.22,7.68,0,0,4.34-38.14,2.74-53.27-1.59-15.12-4.67-30.36-6.26-33.48-1.59-3.12-5.54-4.78-9.87-6.17-4.33-1.39-14.53-1.28-15.74,0-1.21,1.28-17,31.66-18.63,54.13s5.17,38.78,5.17,38.78c-2.18-.09-5.98-3.38-5.98-3.38l-2.97-2.35v1.76c-6.17-7.53-7.25-20.67-7.25-20.67-.34,11.56,4.6,19.71,4.6,19.71-10.1-6.71-9.7-32.79-5.62-43.07,3.96-9.99,2.07-26.25,5.04-32.22,0,0,0-.02.01-.03.07-.16.16-.32.25-.46,2.35-3.87,8.53-7.7,13.07-10.26.07-.05.15-.09.22-.13.19-.1.38-.21.56-.3t.01-.01c1.59-.88,2.91-1.58,3.7-2.04,3.05-1.78,6.2-7.56,8.83-8.33,1.41-.4,3.59.61,6.01,1.84,2.12,1.06,4.43,2.28,6.56,2.84,0,0,0,0,.02,0,.34-.1,5.91-1.78,8.22-1.94.32-.03.71.07,1.12.28,0,0,0,0,0,0,1.89.89,4.61,3.81,7.09,6.42,1,1.06,1.97,2.07,2.82,2.87,3.44,3.24,7.92,7.14,9.06,20,1.32,14.87,3.73,20.15,5.54,25.79,1.08,3.36,1.94,6.86,2.22,12.6.75,15.14-11.43,29.88-11.8,30.32Z" style="fill:url(#p); stroke-width:0px;"/><path d="M18.06,96.15v1.76c-6.17-7.53-7.25-20.67-7.25-20.67-.34,11.56,4.6,19.71,4.6,19.71-10.1-6.71-9.7-32.79-5.62-43.07,3.96-9.99,2.07-26.25,5.04-32.22-1.61,4.1.52,16.04-1.86,21.73-2.37,5.7-4.24,22.73-4.24,22.73,0,0,4.71-8.66,7.18-16.34,2.47-7.67.76-19.51,3.9-28,2.45-6.62,6.62-9.78,8.35-10.86.07-.05.15-.09.22-.13.36-.22.57-.32.57-.32t-.01.01c-12.05,9.47-8.1,21.83-12.86,47.82-4.76,26,1.98,37.86,1.98,37.86Z" style="fill:url(#q); mix-blend-mode:multiply; stroke-width:0px;"/><path d="M33.39,9.02c-.07.16-.29.7-.63,1.56.23-.63.44-1.16.63-1.56Z" style="fill:url(#r); mix-blend-mode:multiply; stroke-width:0px;"/><path d="M78.36,101.1c2.29-4.41,1.86-10.1,1.86-10.1-1.44,3.83-4.57,6.91-4.57,6.91l1.17-3.71c-2.13,4.13-7.22,7.68-7.22,7.68,0,0,4.34-38.14,2.74-53.27-1.59-15.12-4.67-30.36-6.26-33.48-1.59-3.12-5.54-4.78-9.87-6.17-4.33-1.39-14.53-1.28-15.74,0-1.21,1.28-17,31.66-18.63,54.13s5.17,38.78,5.17,38.78c-2.18-.09-5.98-3.38-5.98-3.38l-2.97-2.35c-2.78-9.38-1.9-28.68,2.97-48.9,3.99-16.58,9.76-31.7,11.71-36.62-2.81,7.65-8.56,29.81-8.75,30.56C30.18,27.43,38.42,2.5,41.01.98c1.15-.67,3.84,0,6.48.94,3.32,1.19,6.56,2.84,6.56,2.84,0,0,0,0,.02,0,.44-.22,8.9-1.95,10.09.29,0,0-.74-1.95-.74-1.95,1.22,2.33,7.45,24.44,8.91,40.58,1.47,16.14,1.96,42.15,1.96,42.15,0,0,.91-7.14,1.9-16.83.99-9.7,2.3-25.34.71-38.48-1.53-12.7-6.07-20.46-6.38-20.97.47.54,8.23,9.71,7.74,21.48-.52,12.15,1.19,17.08,1.06,29.66-.13,12.57-2.16,31.77-2.16,31.77,0,0,2.89-3.73,5.69-13.44,2.71-9.38,1.29-24.05,1.2-25.02,3.29,18.39-2.08,35.95-2.08,35.95,0,0,3.09-2.74,5.62-10.92,1.92-6.19.93-16.29.34-20.83,1.08,3.36,1.94,6.86,2.22,12.6.75,15.14-11.43,29.88-11.8,30.32Z" style="fill:url(#s); mix-blend-mode:multiply; stroke-width:0px;"/><path d="M80.22,91s4.99-16.41,4.87-26.75c0,0-.52,26.53-6.73,36.84,0,0,2.29-4.41,1.86-10.1Z" style="fill:url(#t); mix-blend-mode:multiply; stroke-width:0px;"/><path d="M18.06,96.15s-3.94-16.27.33-35.78c0,0-.96,31.53,4.39,39.49l-4.73-3.72Z" style="fill:url(#u); mix-blend-mode:multiply; stroke-width:0px;"/><path d="M76.82,94.2s2.13-19.41,2.32-27.38c0,0-2.42,24.8-5.04,31.09,0,0,2.08-2.2,2.71-3.71Z" style="fill:url(#v); mix-blend-mode:multiply; stroke-width:0px;"/><path d="M23.08,18.06s6.18-1.51,7.39-2.95l-2.59,7.02s-1.15-1.1-2-1.27c-.85-.17-4.25.81-4.25.81,0,0,.51-2.17,1.44-3.61Z" style="fill:#c4d9e0; mix-blend-mode:soft-light; stroke-width:0px;"/><path d="M21.22,17.81s-1.73-.38-2.07-.54c0,0-1.98,1.37-3.06,3.09,0,0,2.07,1.05,3.25.86,0,0,1.31-2.68,1.88-3.41Z" style="fill:#c4d9e0; mix-blend-mode:soft-light; stroke-width:0px;"/><path d="M29.12,22.28s1.62-.34,3.03-3.02c1.4-2.69,1.62-4.41,1.62-4.41h-1.88s-2.42,6.21-2.77,7.43Z" style="fill:#c4d9e0; mix-blend-mode:soft-light; stroke-width:0px;"/><path d="M67.68,16.58s4.2,1.92,6.62,2.05c0,0,1.77,4.85,2.06,9.57,0,0-2.86-2.42-4.34-2.74s-2.63-.21-2.63-.21l-1.71-8.67Z" style="fill:#c4d9e0; mix-blend-mode:soft-light; stroke-width:0px;"/><path d="M76.36,18.63s2.21,5.68,2.46,8.99c0,0,2.1-.61,2.25-1.53s-1.42-5.61-2.36-6.52c-.94-.91-2.36-.94-2.36-.94Z" style="fill:#c4d9e0; mix-blend-mode:soft-light; stroke-width:0px;"/></g></g></g></svg>