<?xml version="1.0" encoding="UTF-8"?><svg xmlns="http://www.w3.org/2000/svg" xmlns:xlink="http://www.w3.org/1999/xlink" viewBox="0 0 70.31 96.64"><defs><linearGradient id="d" x1="33.78" y1="93.89" x2="33.78" y2="0" gradientUnits="userSpaceOnUse"><stop offset="0" stop-color="#4d1540"/><stop offset=".96" stop-color="#6a1f38"/><stop offset="1" stop-color="#7f1f38"/></linearGradient><linearGradient id="e" x1="35.18" y1="96.64" x2="35.18" y2="73.04" gradientUnits="userSpaceOnUse"><stop offset="0" stop-color="#ffb39d"/><stop offset=".23" stop-color="#ff9b8d"/><stop offset=".48" stop-color="#ff8781"/><stop offset=".74" stop-color="#ff7b79"/><stop offset="1" stop-color="#f77"/></linearGradient><linearGradient id="f" x1="65.47" y1="62.68" x2="65.47" y2="43.12" xlink:href="#e"/><linearGradient id="g" x1="65.48" y1="59.33" x2="65.48" y2="46.58" gradientUnits="userSpaceOnUse"><stop offset="0" stop-color="#ffeadb"/><stop offset=".99" stop-color="#d177f4"/></linearGradient><linearGradient id="h" x1="63.18" y1="57.87" x2="63.18" y2="51.62" xlink:href="#g"/><linearGradient id="i" x1="-700.42" y1="62.68" x2="-700.42" y2="43.12" gradientTransform="translate(-695.59) rotate(-180) scale(1 -1)" xlink:href="#e"/><linearGradient id="j" x1="-700.41" x2="-700.41" y2="46.58" gradientTransform="translate(-695.59) rotate(-180) scale(1 -1)" xlink:href="#g"/><linearGradient id="k" x1="-702.71" y1="57.87" x2="-702.71" y2="51.62" gradientTransform="translate(-695.59) rotate(-180) scale(1 -1)" xlink:href="#g"/><linearGradient id="l" x1="34.93" y1="76.7" x2="34.93" y2="10.35" gradientUnits="userSpaceOnUse"><stop offset="0" stop-color="#ffaa96"/><stop offset=".43" stop-color="#f9ab99"/><stop offset=".55" stop-color="#fba28f"/><stop offset=".78" stop-color="#fe9983"/><stop offset="1" stop-color="#ff967f"/></linearGradient><linearGradient id="m" x1="12.08" y1="51.6" x2="12.08" y2="14.54" xlink:href="#g"/><linearGradient id="n" x1="-405.3" y1="51.6" x2="-405.3" y2="14.54" gradientTransform="translate(-347.52) rotate(-180) scale(1 -1)" xlink:href="#g"/><linearGradient id="o" x1="34.8" y1="49.59" x2="34.8" y2="7.97" gradientUnits="userSpaceOnUse"><stop offset="0" stop-color="#4d1540"/><stop offset="1" stop-color="#7f1f38"/></linearGradient><linearGradient id="p" x1="8.69" y1="12.49" x2="62.43" y2="23.42" gradientUnits="userSpaceOnUse"><stop offset="0" stop-color="#ffb396"/><stop offset="1" stop-color="#ffe0bb"/></linearGradient></defs><g style="isolation:isolate;"><g id="b"><g id="c"><path d="M35.18,0C19.34-.07,6.48,11.84,2.13,23.7c-4.35,11.86,5.33,59.13,4.28,64.67s-4.28,5.48-4.28,5.48c0,0,5.19.45,15.77-2.3,10.58-2.75,25.14-3.13,31.57-1.36s13.34,4.03,15.63,3.66c0,0-4.36-2.49-4.45-9.01-.08-6.52,8.09-45.9,5.33-61.14C63.22,8.46,45.69.04,35.18,0Z" style="fill:url(#d); stroke-width:0px;"/><path d="M9.78,63.1s7.46,23.46,1.65,29.88l.66-.12s5.28-3.49-1.45-30.18l-.86.42Z" style="fill:#ffd9bb; mix-blend-mode:soft-light; stroke-width:0px;"/><path d="M54.84,91.71s-.34-11.41,3.13-24.65c0,0-4.6,14.9-3.85,24.44l.71.2Z" style="fill:#ffd9bb; mix-blend-mode:soft-light; stroke-width:0px;"/><path d="M59.93,92.99s-2.78-4.37-2.84-10.82,2.71-20.97,2.71-20.97l1.46-.69s-4.89,23.48.68,33.05l-2-.57Z" style="fill:#ffd9bb; mix-blend-mode:soft-light; opacity:.5; stroke-width:0px;"/><path d="M7.86,62.64s9.42,21.76,1.19,30.73l-5.55.52s4.59-.46,4.46-7.32c-.13-6.86-4.8-28.7-4.8-28.7l4.69,4.77Z" style="fill:#ffd9bb; mix-blend-mode:soft-light; opacity:.5; stroke-width:0px;"/><path d="M49.63,10.8s5.66.13,11.63,5.25c5.97,5.12,5,27.15,5,27.15l-1.78.7s-1.66-27.45-14.85-33.1Z" style="fill:#9077b8; mix-blend-mode:multiply; stroke-width:0px;"/><path d="M20.89,10.8s-11.77,2.24-16.06,7.29c-4.29,5.06-3.07,15.07-.78,25.1h0S9.98,15.69,20.89,10.8Z" style="fill:#9077b8; mix-blend-mode:multiply; stroke-width:0px;"/><path d="M47.84,9.84s3.98-2.89,6.52-3.08l-1.32-.9s-2.58-.26-6.27,3.47l1.07.51Z" style="fill:#ffd9bb; mix-blend-mode:soft-light; stroke-width:0px;"/><path d="M41.61,7.54s-.45-3.3,2.47-5.95l-2.15-.63s-1.1,2.06-1.25,6.37l.94.21Z" style="fill:#ffd9bb; mix-blend-mode:soft-light; stroke-width:0px;"/><path d="M8.29,13.22s6.26-4.74,15.88-4.06l1.28-.52s-5.28-2.2-13.37.64c0,0-3.36,3.42-3.79,3.94Z" style="fill:#ffd9bb; mix-blend-mode:soft-light; stroke-width:0px;"/><path d="M16.87,5.58s6.02-.91,9.78,2.62l.7-.23s-3.71-3.26-9.3-3.14l-1.19.74Z" style="fill:#ffd9bb; mix-blend-mode:soft-light; stroke-width:0px;"/><path d="M43.8,89.38c-.17-.97,0-16.34,0-16.34l-8.61,2.34-8.61-2.34s.17,15.37,0,16.34c-.17.97-11.84,6.07-11.84,6.07,0,0,9.26,1.18,20.45,1.18s20.45-1.18,20.45-1.18c0,0-11.67-5.11-11.84-6.07Z" style="fill:url(#e); stroke-width:0px;"/><path d="M26.63,82.39s8.5,5.54,17.09,3.87l.08-13.22h-17.23l.06,9.35Z" style="fill:#d177b8; mix-blend-mode:multiply; opacity:.6; stroke-width:0px;"/><path d="M69.96,52.12c-.13.64-.28,1.21-.44,1.73,0,0,0,.02,0,.03-1.14,3.67-2.86,4.53-3.56,6.19-.6,1.43-2.96,4.3-5.3,1.31,0,0,0,0,0,0,0,0,1.11-12.15,2-14.36,0,0,1.29-3.31,3.61-3.81,2.98-.65,4.86,3.28,3.7,8.93Z" style="fill:url(#f); stroke-width:0px;"/><path d="M61.45,53.83s4.67-6.78,6.9-7.22c2.23-.44,1.12,5.31.67,7.22-.45,1.92-1.12,3.05-1.12,3.05,0,0,.56-2.26.67-4.09.16-2.63-.68-4.89-1.62-4.67-.94.22-2.2,3.52-2.28,3.9-.08.38.62,1.05.58,3.09s-1.02,4.26-1.55,4.23c-.53-.03-.3-1.68-.3-3.59s-1.49-1.54-2.15-.3l.19-1.62Z" style="fill:url(#g); mix-blend-mode:multiply; opacity:.6; stroke-width:0px;"/><path d="M61.26,55.45s1.2-1.82,1.92-.99c.72.82.2,3.11.75,3.39.55.27,1.29-1.58,1.15-3.27-.14-1.69-.81-3.21-1.77-2.92l-1.86,2.18-.19,1.62Z" style="fill:url(#h); mix-blend-mode:multiply; opacity:.6; stroke-width:0px;"/><path d="M69.51,53.87c-1.14,3.67-2.86,4.53-3.56,6.19-.6,1.43-2.96,4.3-5.3,1.31.14.11,1.49,1.21,2.86.72,1.45-.53,1.91-1.88,2.52-2.93.61-1.05,2.18-1.77,3.47-5.29Z" style="fill:#dd6b7c; stroke-width:0px;"/><path d="M.35,52.12c.13.64.28,1.21.44,1.73,0,0,0,.02,0,.03,1.14,3.67,2.86,4.53,3.56,6.19.6,1.43,2.96,4.3,5.3,1.31,0,0,0,0,0,0,0,0-1.11-12.15-2-14.36,0,0-1.29-3.31-3.61-3.81-2.98-.65-4.86,3.28-3.7,8.93Z" style="fill:url(#i); stroke-width:0px;"/><path d="M8.85,53.83s-4.67-6.78-6.9-7.22c-2.23-.44-1.12,5.31-.67,7.22.45,1.92,1.12,3.05,1.12,3.05,0,0-.56-2.26-.67-4.09-.16-2.63.68-4.89,1.62-4.67.94.22,2.2,3.52,2.28,3.9.08.38-.62,1.05-.58,3.09s1.02,4.26,1.55,4.23c.53-.03.3-1.68.3-3.59s1.49-1.54,2.15-.3l-.19-1.62Z" style="fill:url(#j); mix-blend-mode:multiply; opacity:.6; stroke-width:0px;"/><path d="M9.05,55.45s-1.2-1.82-1.92-.99c-.72.82-.2,3.11-.75,3.39-.55.27-1.29-1.58-1.15-3.27s.81-3.21,1.77-2.92l1.86,2.18.19,1.62Z" style="fill:url(#k); mix-blend-mode:multiply; opacity:.6; stroke-width:0px;"/><path d="M.8,53.87c1.14,3.67,2.86,4.53,3.56,6.19.6,1.43,2.96,4.3,5.3,1.31-.14.11-1.49,1.21-2.86.72-1.45-.53-1.91-1.88-2.52-2.93-.61-1.05-2.18-1.77-3.47-5.29Z" style="fill:#dd6b7c; stroke-width:0px;"/><path d="M63.94,45.8s0,.01,0,.02c-.63,2.97-1.41,6.1-1.95,9.69-1.42,9.46-4.21,13.97-11.37,17.99-7.39,4.15-24.12,4.38-31.38,0-6.92-4.18-9.95-8.53-11.37-17.99-.32-2.11-.71-4.06-1.12-5.91-.3-1.37-.6-2.7-.87-3.99,0-.02,0-.04-.01-.06,0-.01,0-.02,0-.02-1-4.75-1.6-9.13-.23-14.43,1.41-5.48,6.28-12.27,13.7-16.56h0s0,0,0,0c4.37-2.53,9.63-4.18,15.59-4.18,16.07,0,27.06,12.04,29.31,20.75,1.39,5.4.74,9.85-.29,14.7Z" style="fill:url(#l); stroke-width:0px;"/><path d="M63.94,45.82c-.63,2.97-1.41,6.1-1.95,9.69-1.42,9.46-4.45,13.81-11.37,17.99-7.25,4.38-24.12,4.38-31.38,0-6.92-4.18-9.95-8.53-11.37-17.99-.55-3.68-1.35-6.87-1.99-9.9.2.74,1.73,6.86,3.49,13,6.94,24.26,45.93,23.57,51.15,0,1.29-5.82,3.06-11.45,3.42-12.78Z" style="fill:#d177b8; mix-blend-mode:multiply; opacity:.6; stroke-width:0px;"/><path d="M19.34,14.54c-.32.22-8.57,5.86-9.16,11.08-.6,5.32-.24,11.32-2.08,16.35-1.77,4.84-.67,9.32-.59,9.64-.05-.11-.33-.84-.75-2-.3-1.37-.6-2.7-.87-3.99,0-.02,0-.04-.01-.06,0-.01,0-.02,0-.02-1-4.75-1.6-9.13-.23-14.43,1.41-5.48,6.28-12.27,13.7-16.56h0Z" style="fill:url(#m); mix-blend-mode:multiply; opacity:.6; stroke-width:0px;"/><path d="M50.53,14.54c.32.22,8.57,5.86,9.16,11.08.6,5.32.24,11.32,2.08,16.35,1.77,4.84.67,9.32.59,9.64.05-.11.33-.84.75-2,.3-1.37.6-2.7.87-3.99,0-.02,0-.04.01-.06,0-.01,0-.02,0-.02,1-4.75,1.6-9.13.23-14.43-1.41-5.48-6.28-12.27-13.7-16.56h0Z" style="fill:url(#n); mix-blend-mode:multiply; opacity:.6; stroke-width:0px;"/><path d="M6.76,49.59s-.32-6.1,1.2-10.18c1.52-4.08,2.31-13.35,4.99-16.8,3.92-5.04,34.11-6.72,41.43-1.64,4.16,2.88,4.67,11.08,5.56,14.27.89,3.2,3.79,11.33,3.17,14.35,0,0,4.31-12.63,2.37-20.67-2.3-9.54-16.02-20.95-30.3-20.95S7.96,19.45,4.83,26.46c-3.58,8.03,1.93,23.13,1.93,23.13Z" style="fill:url(#o); stroke-width:0px;"/><path d="M6.41,23.7S18.41,6.76,35.18,6.76s27.42,15.81,27.42,15.81c0,0-11.98-13.25-27.69-13.25S6.41,23.7,6.41,23.7Z" style="fill:url(#p); stroke-width:0px;"/><path d="M28.02,18.3s-6.02-3.28-2.05-7.51l.35-.11s-2.71,2.51,2.07,7.58l-.37.04Z" style="fill:#ffd9bb; mix-blend-mode:soft-light; stroke-width:0px;"/><path d="M42.76,18.12s3.28-3.91,1.32-7.32l1.03.32s1.66,4.56-1.94,7.03l-.41-.03Z" style="fill:#ffd9bb; mix-blend-mode:soft-light; stroke-width:0px;"/><path d="M47.15,18.62s4.99-1.73,3.85-4.89l.62.34s.89,3.64-4.03,4.62l-.44-.07Z" style="fill:#ffd9bb; mix-blend-mode:soft-light; stroke-width:0px;"/><path d="M11.7,24.9s-3.98-.8-3.4-3.11l-.4.38s-.73,3.12,3.69,2.99l.11-.27Z" style="fill:#ffd9bb; mix-blend-mode:soft-light; stroke-width:0px;"/><path d="M39.77,13.51l.45-2.71s3.12,1.41,6.79,2.24c3.67.83,6.77,3.22,8.86,5.45s5.27,2.61,5.27,2.61l.64.62s-2.86-.03-5.01-1.71c-2.16-1.68-3.85-4.05-7.35-5.12-3.5-1.08-9.65-1.37-9.65-1.37Z" style="fill:#ffd9bb; mix-blend-mode:soft-light; stroke-width:0px;"/><path d="M30.25,11.31v2.43s-4.08-.59-9.36.8c-5.28,1.4-9.55,7.95-11.84,10.16-2.29,2.21-4.22,6.25-4.22,6.25l-.35-1.01s4.69-5.51,7.22-9.28c2.53-3.77,6.46-6.38,10.18-7.44,3.73-1.07,8.37-1.91,8.37-1.91Z" style="fill:#ffd9bb; mix-blend-mode:soft-light; stroke-width:0px;"/><path d="M31.64,13.73s3.5-.4,7.11-.22l.28-2.72s-4.2-.42-7.77.18l.38,2.76Z" style="fill:#ffd9bb; mix-blend-mode:soft-light; stroke-width:0px;"/></g></g></g></svg>