<?xml version="1.0" encoding="UTF-8"?><svg xmlns="http://www.w3.org/2000/svg" xmlns:xlink="http://www.w3.org/1999/xlink" viewBox="0 0 66.23 94.17"><defs><linearGradient id="d" x1="35.04" y1="94.17" x2="35.04" y2="74.58" gradientUnits="userSpaceOnUse"><stop offset="0" stop-color="#ffb39d"/><stop offset=".23" stop-color="#ff9b8d"/><stop offset=".48" stop-color="#ff8781"/><stop offset=".74" stop-color="#ff7b79"/><stop offset="1" stop-color="#f77"/></linearGradient><linearGradient id="e" x1="61.4" y1="60.22" x2="61.4" y2="40.66" xlink:href="#d"/><linearGradient id="f" x1="61.4" y1="56.87" x2="61.4" y2="44.12" gradientUnits="userSpaceOnUse"><stop offset="0" stop-color="#ffeadb"/><stop offset=".99" stop-color="#d177f4"/></linearGradient><linearGradient id="g" x1="59.1" y1="55.41" x2="59.1" y2="49.15" xlink:href="#f"/><linearGradient id="h" x1="-490.89" y1="60.22" x2="-490.89" y2="40.66" gradientTransform="translate(-483.61) rotate(-180) scale(1 -1)" xlink:href="#d"/><linearGradient id="i" x1="-490.89" y1="56.87" x2="-490.89" y2="44.12" gradientTransform="translate(-483.61) rotate(-180) scale(1 -1)" xlink:href="#f"/><linearGradient id="j" x1="-493.19" y1="55.41" x2="-493.19" y2="49.15" gradientTransform="translate(-483.61) rotate(-180) scale(1 -1)" xlink:href="#f"/><linearGradient id="k" x1="34.79" y1="78.05" x2="34.79" y2="7.89" gradientUnits="userSpaceOnUse"><stop offset="0" stop-color="#ffaa96"/><stop offset=".43" stop-color="#f9ab99"/><stop offset=".55" stop-color="#fba28f"/><stop offset=".78" stop-color="#fe9983"/><stop offset="1" stop-color="#ff967f"/></linearGradient><linearGradient id="l" x1="14.6" y1="49.14" x2="14.6" y2="12.08" xlink:href="#f"/><linearGradient id="m" x1="-190.52" y1="49.14" x2="-190.52" y2="12.08" gradientTransform="translate(-135.54) rotate(-180) scale(1 -1)" xlink:href="#f"/><linearGradient id="n" x1="25.63" y1="93.37" x2="25.63" y2=".41" gradientUnits="userSpaceOnUse"><stop offset="0" stop-color="#fc4a4b"/><stop offset="1" stop-color="#ca1d3b"/></linearGradient><linearGradient id="o" x1="47.13" y1="15.01" x2="47.13" y2="0" xlink:href="#n"/><linearGradient id="p" x1="57.13" y1="45.25" x2="57.13" y2="15.01" gradientUnits="userSpaceOnUse"><stop offset="0" stop-color="#ff9a66"/><stop offset="1" stop-color="#ca1d3b"/></linearGradient><linearGradient id="q" x1="13.03" y1="63.6" x2="13.03" y2="7.89" xlink:href="#f"/><linearGradient id="r" x1="6.71" y1="92.99" x2="6.71" y2="37.04" gradientUnits="userSpaceOnUse"><stop offset="0" stop-color="#d177f4"/><stop offset="1" stop-color="#ffeadb"/></linearGradient></defs><g style="isolation:isolate;"><g id="b"><g id="c"><polygon points="13.59 92.46 31.52 93.03 31.52 5.99 23.31 12.54 13.59 34.11 13.59 92.46" style="fill:#b30042; stroke-width:0px;"/><path d="M43.66,86.92c-.17-.97,0-12.34,0-12.34l-8.61,2.34-8.61-2.34s.17,11.37,0,12.34c-.17.97-11.84,6.07-11.84,6.07,0,0,9.26,1.18,20.45,1.18s20.45-1.18,20.45-1.18c0,0-11.67-5.11-11.84-6.07Z" style="fill:url(#d); stroke-width:0px;"/><path d="M26.49,79.93s8.5,5.54,17.09,3.87l.08-9.22h-17.23l.06,5.35Z" style="fill:#d177b8; mix-blend-mode:multiply; opacity:.6; stroke-width:0px;"/><path d="M65.88,49.65c-.13.64-.28,1.21-.44,1.73,0,0,0,.02,0,.03-1.14,3.67-2.86,4.53-3.56,6.19-.6,1.43-2.96,4.3-5.3,1.32,0,0,0,0,0,0,0,0,1.11-12.15,2-14.36,0,0,1.29-3.31,3.61-3.81,2.98-.65,4.86,3.28,3.7,8.93Z" style="fill:url(#e); stroke-width:0px;"/><path d="M57.37,51.36s4.67-6.78,6.9-7.22c2.23-.44,1.12,5.31.67,7.22s-1.12,3.05-1.12,3.05c0,0,.56-2.26.67-4.09.16-2.63-.68-4.89-1.62-4.67-.94.22-2.2,3.52-2.28,3.9-.08.38.62,1.05.58,3.09s-1.02,4.26-1.55,4.23c-.53-.03-.3-1.68-.3-3.59s-1.49-1.54-2.15-.3l.19-1.62Z" style="fill:url(#f); mix-blend-mode:multiply; opacity:.6; stroke-width:0px;"/><path d="M57.18,52.98s1.2-1.82,1.92-.99c.72.82.2,3.11.75,3.39s1.29-1.58,1.15-3.27c-.14-1.69-.81-3.21-1.77-2.92l-1.86,2.18-.19,1.62Z" style="fill:url(#g); mix-blend-mode:multiply; opacity:.6; stroke-width:0px;"/><path d="M65.43,51.41c-1.14,3.67-2.86,4.53-3.56,6.19-.6,1.43-2.96,4.3-5.3,1.32.14.11,1.49,1.21,2.86.71,1.45-.53,1.91-1.88,2.52-2.93.61-1.05,2.18-1.77,3.47-5.29Z" style="fill:#dd6b7c; stroke-width:0px;"/><path d="M2.8,49.65c.13.64.28,1.21.44,1.73,0,0,0,.02,0,.03,1.14,3.67,2.86,4.53,3.56,6.19.6,1.43,2.96,4.3,5.3,1.32,0,0,0,0,0,0,0,0-1.11-12.15-2-14.36,0,0-1.29-3.31-3.61-3.81-2.98-.65-4.86,3.28-3.7,8.93Z" style="fill:url(#h); stroke-width:0px;"/><path d="M11.31,51.36s-4.67-6.78-6.9-7.22c-2.23-.44-1.12,5.31-.67,7.22s1.12,3.05,1.12,3.05c0,0-.56-2.26-.67-4.09-.16-2.63.68-4.89,1.62-4.67.94.22,2.2,3.52,2.28,3.9.08.38-.62,1.05-.58,3.09.04,2.04,1.02,4.26,1.55,4.23.53-.03.3-1.68.3-3.59s1.49-1.54,2.15-.3l-.19-1.62Z" style="fill:url(#i); mix-blend-mode:multiply; opacity:.6; stroke-width:0px;"/><path d="M11.5,52.98s-1.2-1.82-1.92-.99c-.72.82-.2,3.11-.75,3.39-.55.27-1.29-1.58-1.15-3.27s.81-3.21,1.77-2.92l1.86,2.18.19,1.62Z" style="fill:url(#j); mix-blend-mode:multiply; opacity:.6; stroke-width:0px;"/><path d="M3.25,51.41c1.14,3.67,2.86,4.53,3.56,6.19.6,1.43,2.96,4.3,5.3,1.32-.14.11-1.49,1.21-2.86.71-1.45-.53-1.91-1.88-2.52-2.93-.61-1.05-2.18-1.77-3.47-5.29Z" style="fill:#dd6b7c; stroke-width:0px;"/><path d="M60.43,43.34s0,.01,0,.02c-.56,2.97-1.25,6.1-1.72,9.69-1.25,9.46-7.02,17.81-13.13,21.99-6.41,4.38-15.83,3.81-22.23-.58-6.11-4.18-11.21-11.95-12.46-21.42-.28-2.11-.63-4.06-.99-5.91-.26-1.37-.53-2.7-.77-3.99,0-.02,0-.04-.01-.06,0-.01,0-.02,0-.02-.88-4.75-1.42-9.13-.21-14.43,1.25-5.48,5.55-12.27,12.11-16.56h0s0,0,0,0c3.87-2.53,8.51-4.18,13.78-4.18,14.21,0,23.92,12.04,25.9,20.75,1.23,5.4.65,9.85-.26,14.7Z" style="fill:url(#k); stroke-width:0px;"/><path d="M21.01,12.08c-.28.22-7.57,5.86-8.09,11.08-.53,5.32-.21,11.32-1.84,16.35-1.57,4.84-.6,9.32-.52,9.64-.04-.11-.3-.84-.66-2-.26-1.37-.53-2.7-.77-3.99,0-.02,0-.04-.01-.06,0-.01,0-.02,0-.02-.88-4.75-1.42-9.13-.21-14.43,1.25-5.48,5.55-12.27,12.11-16.56h0Z" style="fill:url(#l); mix-blend-mode:multiply; opacity:.6; stroke-width:0px;"/><path d="M48.58,12.08c.28.22,7.57,5.86,8.09,11.08.53,5.32.21,11.32,1.84,16.35,1.57,4.84.6,9.32.52,9.64.04-.11.3-.84.66-2,.26-1.37.53-2.7.77-3.99,0-.02,0-.04.01-.06,0-.01,0-.02,0-.02.88-4.75,1.42-9.13.21-14.43-1.25-5.48-5.55-12.27-12.11-16.56h0Z" style="fill:url(#m); mix-blend-mode:multiply; opacity:.6; stroke-width:0px;"/><path d="M12.12,58.66s6.39,18.3,22.92,18.3,22.72-19.45,22.72-19.45c0,0-5.43,20.54-22.97,20.54s-22.67-19.38-22.67-19.38Z" style="fill:#d177b8; mix-blend-mode:multiply; opacity:.6; stroke-width:0px;"/><path d="M51.26,14.45c-1.22.3-15.7-1.43-19.61,0-3.92,1.43-14,6.26-15.39,24.26-.57,7.32.15,24.41.86,37.55v.02c.52,9.61,1.03,17.09,1.03,17.09l-2.16-.21c-1.51-6.01-2.41-15.11-2.41-15.11-.25,6.05,1.01,14.95,1.01,14.95H2.45S-.82,82.74.19,62.53C1.2,42.32,6.13,28.3,7.66,24.42S18.22,14.15,26.05,7.89C31.84,3.26,35.65.41,38.72.41h.01c.08,0,.16,0,.24.01.99.05,1.9.4,2.78,1.1,1.91,1.52,4.42,4.98,6.38,7.94.21.32.42.62.61.92.13.2.25.4.38.59.07.09.13.19.18.28.47.74.88,1.41,1.21,1.93.08.13.15.25.22.37.04.08.09.16.13.23.26.43.4.67.4.67Z" style="fill:url(#n); stroke-width:0px;"/><path d="M51.27,14.44S46.75,3.54,41.75,0c0,0,12.37,7.09,10.57,15.01l-1.06-.56Z" style="fill:url(#o); stroke-width:0px;"/><path d="M52.33,15.01s3.09,3.13,4.34,8.15c1.25,5.01-1.16,10.2.51,13.89,1.67,3.69,2.88,8.21,2.88,8.21,0,0,3.1-14.9,1.34-20.49-1.77-5.59-9.07-9.75-9.07-9.75Z" style="fill:url(#p); stroke-width:0px;"/><path d="M51.26,14.45c-1.22.3-15.7-1.43-19.61,0-3.92,1.43-14,6.26-15.39,24.26-.57,7.32.15,24.41.86,37.55-1.49-10.09-8.55-38.24.06-50.83C25.7,12.98,34.13.43,38.72.41h.16s.06,0,.09.01c2.7.26,6.5,5.12,9.16,9.04.21.32.42.62.61.92.13.2.26.4.38.59.07.09.13.19.18.28.48.74.89,1.4,1.21,1.93.08.13.15.25.22.37.04.08.09.16.13.23.26.43.4.67.4.67Z" style="fill:#d177b8; mix-blend-mode:multiply; opacity:.9; stroke-width:0px;"/><path d="M26.05,7.89s-8.87,14.37-16.47,26.25C1.98,46.02,0,63.6,0,63.6l.53-6.09s1.4-13.47,8.46-24.27,14.73-23.51,14.73-23.51l2.33-1.84Z" style="fill:url(#q); mix-blend-mode:multiply; stroke-width:0px;"/><path d="M2.45,92.99s-3.46-15.75,1.66-30.91c5.12-15.16,8-25.04,8-25.04,0,0-5.46,20.69-8.86,33.19-3.4,12.51,1.34,22.76,1.34,22.76h-2.13Z" style="fill:url(#r); mix-blend-mode:multiply; stroke-width:0px;"/><path d="M14.59,93s-3.09-8.36-3.6-17.71c-.51-9.35,1.8-23.49,1.8-23.49l.79,26.26s.31,10.68,1.01,14.95Z" style="fill:#d177b8; mix-blend-mode:multiply; opacity:.6; stroke-width:0px;"/><path d="M11.5,19.67s-.28,1.48.62,1.82,2.06-1.43,3.88-.91c1.82.52,1.89.71,2.46.95s2.66-1.86,2.66-1.86l-3.7,5.39s-1.31-3.01-2.64-3.27c-1.33-.26-1.71.26-3.13.43-1.42.17-2.09-.61-2.09-.61,0,0,1.24-1.31,1.92-1.94Z" style="fill:#ffd9bb; mix-blend-mode:soft-light; stroke-width:0px;"/></g></g></g></svg>