<?xml version="1.0" encoding="UTF-8"?><svg xmlns="http://www.w3.org/2000/svg" xmlns:xlink="http://www.w3.org/1999/xlink" viewBox="0 0 66.94 98.19"><defs><linearGradient id="d" x1="33.76" y1="98.19" x2="33.76" y2="68.59" gradientUnits="userSpaceOnUse"><stop offset="0" stop-color="#ffb39d"/><stop offset=".23" stop-color="#ff9b8d"/><stop offset=".48" stop-color="#ff8781"/><stop offset=".74" stop-color="#ff7b79"/><stop offset="1" stop-color="#f77"/></linearGradient><linearGradient id="e" x1="62.1" y1="64.24" x2="62.1" y2="44.68" xlink:href="#d"/><linearGradient id="f" x1="62.11" y1="60.89" x2="62.11" y2="48.14" gradientUnits="userSpaceOnUse"><stop offset="0" stop-color="#ffeadb"/><stop offset=".99" stop-color="#d177f4"/></linearGradient><linearGradient id="g" x1="59.81" y1="59.42" x2="59.81" y2="53.17" xlink:href="#f"/><linearGradient id="h" x1="-703.12" y1="64.24" x2="-703.12" y2="44.68" gradientTransform="translate(-698.28) rotate(-180) scale(1 -1)" xlink:href="#d"/><linearGradient id="i" x1="-703.11" y1="60.89" x2="-703.11" y2="48.14" gradientTransform="translate(-698.28) rotate(-180) scale(1 -1)" xlink:href="#f"/><linearGradient id="j" x1="-705.41" y1="59.42" x2="-705.41" y2="53.17" gradientTransform="translate(-698.28) rotate(-180) scale(1 -1)" xlink:href="#f"/><linearGradient id="k" x1="33.51" y1="78.34" x2="33.51" y2="11.91" gradientUnits="userSpaceOnUse"><stop offset="0" stop-color="#ffaa96"/><stop offset=".43" stop-color="#f9ab99"/><stop offset=".55" stop-color="#fba28f"/><stop offset=".78" stop-color="#fe9983"/><stop offset="1" stop-color="#ff967f"/></linearGradient><linearGradient id="l" x1="12.28" y1="53.16" x2="12.28" y2="16.1" xlink:href="#f"/><linearGradient id="m" x1="-404.95" y1="53.16" x2="-404.95" y2="16.1" gradientTransform="translate(-350.21) rotate(-180) scale(1 -1)" xlink:href="#f"/><linearGradient id="n" x1="33.59" y1="82.38" x2="33.59" y2="0" gradientUnits="userSpaceOnUse"><stop offset="0" stop-color="#ffb396"/><stop offset="1" stop-color="#ffe0bb"/></linearGradient><linearGradient id="o" x1="61.38" y1="37.55" x2="61.38" y2="21.19" gradientUnits="userSpaceOnUse"><stop offset="0" stop-color="#d177f4"/><stop offset="1" stop-color="#ffeadb"/></linearGradient><linearGradient id="p" x1="56.07" y1="23.23" x2="56.07" y2="22.46" xlink:href="#o"/><linearGradient id="q" x1="32.92" y1="74.14" x2="32.92" y2="15.18" xlink:href="#o"/><linearGradient id="r" x1="36.78" y1="34.63" x2="36.78" y2="3.21" xlink:href="#n"/><linearGradient id="s" x1="38.12" y1="34.63" x2="38.12" y2="6.69" xlink:href="#o"/><linearGradient id="t" x1="31.56" y1="16.24" x2="49.1" y2="16.24" xlink:href="#f"/><linearGradient id="u" x1="49.33" y1="19.91" x2="56.07" y2="19.91" xlink:href="#f"/></defs><g style="isolation:isolate;"><g id="b"><g id="c"><path d="M42.38,90.94c-.17-.97,0-22.34,0-22.34l-8.61,2.34-8.61-2.34s.17,21.37,0,22.34c-.17.97-11.84,6.07-11.84,6.07,0,0,9.26,1.18,20.45,1.18s20.45-1.18,20.45-1.18c0,0-11.67-5.11-11.84-6.07Z" style="fill:url(#d); stroke-width:0px;"/><path d="M25.21,83.94s8.5,5.54,17.09,3.87l.08-19.22h-17.23l.06,15.35Z" style="fill:#d177b8; mix-blend-mode:multiply; opacity:.6; stroke-width:0px;"/><path d="M66.59,53.67c-.13.64-.28,1.21-.44,1.73,0,0,0,.02,0,.03-1.14,3.67-2.86,4.53-3.56,6.19-.6,1.43-2.96,4.3-5.3,1.31,0,0,0,0,0,0,0,0,1.11-12.15,2-14.36,0,0,1.29-3.31,3.61-3.81,2.98-.65,4.86,3.28,3.7,8.93Z" style="fill:url(#e); stroke-width:0px;"/><path d="M58.08,55.38s4.67-6.78,6.9-7.22c2.23-.44,1.12,5.31.67,7.22-.45,1.92-1.12,3.05-1.12,3.05,0,0,.56-2.26.67-4.09.16-2.63-.68-4.89-1.62-4.67-.94.22-2.2,3.52-2.28,3.9-.08.38.62,1.05.58,3.09-.04,2.04-1.02,4.26-1.55,4.23-.53-.03-.3-1.68-.3-3.59s-1.49-1.54-2.15-.3l.19-1.62Z" style="fill:url(#f); mix-blend-mode:multiply; opacity:.6; stroke-width:0px;"/><path d="M57.89,57s1.2-1.82,1.92-.99c.72.82.2,3.11.75,3.39.55.27,1.29-1.58,1.15-3.27-.14-1.69-.81-3.21-1.77-2.92l-1.86,2.18-.19,1.62Z" style="fill:url(#g); mix-blend-mode:multiply; opacity:.6; stroke-width:0px;"/><path d="M66.14,55.43c-1.14,3.67-2.86,4.53-3.56,6.19-.6,1.43-2.96,4.3-5.3,1.31.14.11,1.49,1.21,2.86.72,1.45-.53,1.91-1.88,2.52-2.93.61-1.05,2.18-1.77,3.47-5.29Z" style="fill:#dd6b7c; stroke-width:0px;"/><path d="M.35,53.67c.13.64.28,1.21.44,1.73,0,0,0,.02,0,.03,1.14,3.67,2.86,4.53,3.56,6.19.6,1.43,2.96,4.3,5.3,1.31,0,0,0,0,0,0,0,0-1.11-12.15-2-14.36,0,0-1.29-3.31-3.61-3.81-2.98-.65-4.86,3.28-3.7,8.93Z" style="fill:url(#h); stroke-width:0px;"/><path d="M8.85,55.38s-4.67-6.78-6.9-7.22c-2.23-.44-1.12,5.31-.67,7.22.45,1.92,1.12,3.05,1.12,3.05,0,0-.56-2.26-.67-4.09-.16-2.63.68-4.89,1.62-4.67.94.22,2.2,3.52,2.28,3.9.08.38-.62,1.05-.58,3.09.04,2.04,1.02,4.26,1.55,4.23.53-.03.3-1.68.3-3.59s1.49-1.54,2.15-.3l-.19-1.62Z" style="fill:url(#i); mix-blend-mode:multiply; opacity:.6; stroke-width:0px;"/><path d="M9.05,57s-1.2-1.82-1.92-.99c-.72.82-.2,3.11-.75,3.39s-1.29-1.58-1.15-3.27c.14-1.69.81-3.21,1.77-2.92l1.86,2.18.19,1.62Z" style="fill:url(#j); mix-blend-mode:multiply; opacity:.6; stroke-width:0px;"/><path d="M.8,55.43c1.14,3.67,2.86,4.53,3.56,6.19.6,1.43,2.96,4.3,5.3,1.31-.14.11-1.49,1.21-2.86.72-1.45-.53-1.91-1.88-2.52-2.93-.61-1.05-2.18-1.77-3.47-5.29Z" style="fill:#dd6b7c; stroke-width:0px;"/><path d="M60.47,47.36s0,.01,0,.02c-.59,2.97-1.31,6.1-1.81,9.69-1.32,9.46-4.14,13.81-10.57,17.99-6.74,4.38-22.42,4.38-29.15,0-6.43-4.18-9.25-8.53-10.56-17.99-.29-2.11-.66-4.06-1.04-5.91-.28-1.37-.56-2.7-.81-3.99,0-.02,0-.04-.01-.06,0-.01,0-.02,0-.02-.93-4.75-1.49-9.13-.22-14.43,1.31-5.48,5.84-12.27,12.73-16.56h0s0,0,0,0c4.06-2.53,8.95-4.18,14.48-4.18,14.93,0,25.14,12.04,27.23,20.75,1.29,5.4.69,9.85-.27,14.7Z" style="fill:url(#k); stroke-width:0px;"/><path d="M60.46,47.38c-.59,2.97-1.31,6.1-1.81,9.69-1.32,9.46-4.14,13.81-10.57,17.99-6.74,4.38-22.42,4.38-29.15,0-6.43-4.18-9.25-8.53-10.56-17.99-.51-3.68-1.26-6.87-1.85-9.9.19.74,1.73,6.82,3.24,13,1.61,6.59,8.56,17.32,22.96,17.89,16.37.65,22.95-11.3,24.56-17.89,1.41-5.77,2.84-11.45,3.18-12.78Z" style="fill:#d177b8; mix-blend-mode:multiply; opacity:.6; stroke-width:0px;"/><path d="M19.02,16.1c-.3.22-7.96,5.86-8.51,11.08-.56,5.32-.22,11.32-1.93,16.35-1.65,4.84-.63,9.32-.55,9.64-.04-.11-.31-.84-.7-2-.28-1.37-.56-2.7-.81-3.99,0-.02,0-.04-.01-.06,0-.01,0-.02,0-.02-.93-4.75-1.49-9.13-.22-14.43,1.31-5.48,5.84-12.27,12.73-16.56h0Z" style="fill:url(#l); mix-blend-mode:multiply; opacity:.6; stroke-width:0px;"/><path d="M48,16.1c.3.22,7.96,5.86,8.51,11.08.56,5.32.22,11.32,1.93,16.35,1.65,4.84.63,9.32.55,9.64.04-.11.31-.84.7-2,.28-1.37.56-2.7.81-3.99,0-.02,0-.04.01-.06,0-.01,0-.02,0-.02.93-4.75,1.49-9.13.22-14.43-1.31-5.48-5.84-12.27-12.73-16.56h0Z" style="fill:url(#m); mix-blend-mode:multiply; opacity:.6; stroke-width:0px;"/><path d="M66.34,37.42c0,.08,0,.12,0,.12.14-4.63-2.67-7.58-2.67-7.58.02.37.03.76.02,1.13.08,9.7-3.99,20.05-3.99,20.05,0,0-1.33-4.6-1.8-6.47-.47-1.87-.94-10.82-3.15-17.07-2.2-6.25-5.39-9.43-6.74-9.85-1.34-.42-7.91-.42-20.7,9.6-9.35,7.32-13.05,15.03-14.37,18.66-.49,1.34-.65,2.12-.65,2.12-.44-3.08.92-10.7,1.02-11.32-.2.71-2.94,10.8-3.94,23.03h0c-.14,1.77-.25,3.56-.31,5.38-.4,12.35,2.05,16.19,2.93,17.15-.92-.9-3.69-3.91-4.81-8.25-.02-.05-.03-.12-.04-.17-1.31-5.32.7-10.21-3.1-24.43-1.02-3.85-1.55-6.97-1.76-9.47,0-.03,0-.05,0-.07-.03-.27-.04-.52-.05-.75,0-.13,0-.26-.02-.37-.03-.56-.04-1.1-.04-1.62,0-.37,0-.75.03-1.09.09-1.71.35-2.91.6-3.74-.12.28-.21.57-.3.85-1.41,4.37-.84,8.38-.77,8.86-2.63-8.55.12-18.15,11.88-25.38C25.36,9.52,31.59,3.79,33.51,3.54c1.92-.25,5.7,2.95,5.7,2.95,0,0,3.41-3.37,5.52-2.35,2.11,1,5.22,11.97,5.22,11.97,1.2-4.39-2.5-16.1-2.5-16.1,6.06,3.03,3.31,16.1,3.31,16.1,1.18,1.33,9.04,2.87,12.69,8.99,3.35,5.62,2.99,11.43,2.9,12.33Z" style="fill:url(#n); stroke-width:0px;"/><path d="M66.34,37.42c0,.08,0,.12,0,.12.14-4.63-2.67-7.58-2.67-7.58-1.55-3.73-7.27-8.78-7.27-8.78,0,0,5.62,3.62,7.97,7.52,2.13,3.54,2.02,7.93,1.97,8.72Z" style="fill:url(#o); mix-blend-mode:multiply; stroke-width:0px;"/><path d="M56.33,23.23c-.16-.26-.34-.51-.51-.76.12.15.29.41.51.76Z" style="fill:url(#p); mix-blend-mode:multiply; stroke-width:0px;"/><path d="M63.68,31.1c.08,9.7-3.99,20.05-3.99,20.05,0,0-1.33-4.6-1.8-6.47-.47-1.87-.94-10.82-3.15-17.07-2.2-6.25-5.39-9.43-6.74-9.85-1.34-.42-7.91-.42-20.7,9.6-9.35,7.32-13.05,15.03-14.37,18.66-.49,1.34-.65,2.12-.65,2.12-.44-3.08.92-10.7,1.02-11.32-.2.71-2.94,10.8-3.94,23.03h0c-.11.36-.21.69-.31,1.03-1.63,5.65-1.95,10.19-1.87,13.26-.02-.05-.03-.12-.04-.17-1.31-5.32.7-10.21-3.1-24.43-1.02-3.85-1.55-6.97-1.76-9.47,0-.03,0-.05,0-.07-.03-.27-.04-.52-.05-.75,0-.13,0-.26-.02-.37-.03-.56-.04-1.1-.04-1.62,0-.37,0-.75.03-1.09.04-1.07.14-2.03.29-2.89.61-3.65,1.93-5.27,1.93-5.27-2.24,6.9,1.15,16.11,1.15,16.11.45-13.12,9.41-23.52,9.41-23.52-7.85,11.17-8.44,27.87-8.44,27.87,0,0,.42-4.92,5.77-16.37,5.18-11.09,12.79-16.6,13.25-16.93-10.35,8.59-12.22,21.61-12.22,21.61,3.47-9.8,8.4-15.92,11.88-19.3-8.7,9.06-11.81,25.81-12.21,28.23.29-1.37,1.77-7.16,7.64-14.85,6.73-8.81,26.15-14.64,27.94-13.81,1.79.84,6.57,7.02,8.46,15.21,1.9,8.19,3.78,11.11,3.78,11.11.59-10.07-2.52-16.82-4.16-19.63,5.89,9.49,4.83,18.23,4.83,18.23,1.86-4.5,2.18-10.11,2.2-10.88Z" style="fill:url(#q); mix-blend-mode:multiply; opacity:.5; stroke-width:0px;"/><path d="M29.57,16.48c-5.15,8.79-1.32,18.15-1.32,18.15,0,0-.52-8.2,3.65-15.71,4.63-8.33,14.18-13.32,14.78-11.97,0,0-3.89-13.01-17.11,9.53Z" style="fill:url(#r); stroke-width:0px;"/><path d="M28.25,34.63s-1.08-8.61,3.13-16.74c5.05-9.76,14.8-12.06,15.3-10.94.49,1.11,1.44,3.53,1.44,3.53,0,0-2.4-3.18-9.19.25-6.79,3.42-11.12,14.75-10.67,23.9Z" style="fill:url(#s); mix-blend-mode:multiply; opacity:.5; stroke-width:0px;"/><path d="M49.1,16.84s-1.73-3.26-5.42-3.4c-6.09-.22-12.13,6.11-12.13,6.11,0,0,5.76-6.63,11.52-6.63,4.84,0,6.02,3.91,6.02,3.91Z" style="fill:url(#t); mix-blend-mode:multiply; opacity:.5; stroke-width:0px;"/><path d="M49.33,17.01s4.48,2.17,6.74,5.82c0,0-3.2-3.71-6.74-5.82Z" style="fill:url(#u); mix-blend-mode:multiply; opacity:.5; stroke-width:0px;"/><path d="M53.3,22.82s2.44,4.61,3.72,9.45l1.75-2.9s-1.64-5.05-5.48-6.55Z" style="fill:#fff4ca; stroke-width:0px;"/><path d="M55.38,21.83s2.33,3.13,3.55,6.14c0,0,.14-2.97-3.55-6.14Z" style="fill:#fff4ca; stroke-width:0px;"/><path d="M57.15,21.89l-.39.23s2.02,1.91,2.84,3.68l.97-.38s-2.04-2.36-3.42-3.54Z" style="fill:#fff4ca; stroke-width:0px;"/><path d="M58.03,22.34s1.82-.23,1.93-1.15c0,0,1.38.98,2.29,2.22,0,0-.67-.71-1.49-.57-.82.14-.83,1-.83,1l-1.9-1.5Z" style="fill:#fff4ca; stroke-width:0px;"/><path d="M31.56,13.24s-3.97,5.4-4.4,9.98l2.2-.38s1.24-6.14,6.38-10.84c0,0-2.67,1.3-4.18,1.24Z" style="fill:#fff4ca; stroke-width:0px;"/><path d="M29.36,13.21s-7.87,6.97-11.04,12.98l.5-3.34s4-5.61,8.06-8.87l2.47-.77Z" style="fill:#fff4ca; stroke-width:0px;"/><path d="M25.41,14.02s-6.44,6.52-10.27,11.78c0,0,1.09-3.41.93-4.25-.17-.84-1.11-.96-1.11-.96,0,0,3.65-4.89,8.88-7.97,0,0,.41,1.17,1.57,1.39Z" style="fill:#fff4ca; stroke-width:0px;"/><path d="M22.5,12s-4.5,2.52-7.15,5.01c0,0,2.74-4.29,7.15-5.01Z" style="fill:#fff4ca; stroke-width:0px;"/><path d="M12.28,48.14s4.46-16.97,14.68-23.24l-.07,2.79s-11.28,8.83-14.6,20.45Z" style="fill:#d177b8; mix-blend-mode:multiply; opacity:.6; stroke-width:0px;"/><path d="M29.76,23.57s8.65-4.85,13.44-5.33c0,0-6.74,2.09-14.1,7.74l.66-2.41Z" style="fill:#d177b8; mix-blend-mode:multiply; opacity:.6; stroke-width:0px;"/><path d="M50.58,19.91s5,4.22,7.45,16.6c2.46,12.38,1.66,14.63,1.66,14.63,0,0-1.85-4.94-2.41-9.65s-1.21-15.31-6.7-21.59Z" style="fill:#d177b8; mix-blend-mode:multiply; opacity:.6; stroke-width:0px;"/></g></g></g></svg>