<?xml version="1.0" encoding="UTF-8"?><svg xmlns="http://www.w3.org/2000/svg" xmlns:xlink="http://www.w3.org/1999/xlink" viewBox="0 0 128.83 158.98"><defs><linearGradient id="d" x1="64.63" y1="37.94" x2="64.63" y2="136.28" gradientUnits="userSpaceOnUse"><stop offset=".01" stop-color="#451322"/><stop offset=".99" stop-color="#2a0e14"/></linearGradient><linearGradient id="e" x1="22.83" y1="30.69" x2="22.89" y2="30.69" xlink:href="#d"/><linearGradient id="f" x1="64.41" y1="158.98" x2="64.41" y2="114.5" gradientUnits="userSpaceOnUse"><stop offset="0" stop-color="#ffb09a"/><stop offset=".21" stop-color="#ff9b8d"/><stop offset=".47" stop-color="#ff8780"/><stop offset=".74" stop-color="#ff7b79"/><stop offset="1" stop-color="#f77"/></linearGradient><radialGradient id="g" cx="64.22" cy="151.5" fx="64.22" fy="151.5" r="30.73" gradientUnits="userSpaceOnUse"><stop offset="0" stop-color="#b307b9"/><stop offset="1" stop-color="#ba4ad6"/></radialGradient><linearGradient id="h" x1="-2456.22" y1="95.34" x2="-2456.22" y2="64.96" gradientTransform="translate(-2436.58) rotate(-180) scale(1 -1)" xlink:href="#f"/><linearGradient id="i" x1="-2455.4" y1="87.33" x2="-2455.4" y2="69.26" gradientTransform="translate(-2436.58) rotate(-180) scale(1 -1)" gradientUnits="userSpaceOnUse"><stop offset="0" stop-color="#ffe7d8"/><stop offset=".29" stop-color="#f9bdc9"/><stop offset=".59" stop-color="#f597bb"/><stop offset=".84" stop-color="#f27fb3"/><stop offset=".99" stop-color="#f177b0"/></linearGradient><linearGradient id="j" x1="-2457.7" y1="86.92" x2="-2457.7" y2="73.5" xlink:href="#i"/><linearGradient id="k" x1="110.57" y1="95.34" x2="110.57" y2="64.96" xlink:href="#f"/><linearGradient id="l" x1="111.39" y1="87.67" x2="111.39" y2="69.6" gradientTransform="matrix(1,0,0,1,0,0)" xlink:href="#i"/><linearGradient id="m" x1="109.1" y1="87.26" x2="109.1" y2="73.85" gradientTransform="matrix(1,0,0,1,0,0)" xlink:href="#i"/><radialGradient id="n" cx="65.11" cy="42.58" fx="65.11" fy="42.58" r="49.95" gradientUnits="userSpaceOnUse"><stop offset=".02" stop-color="#ffa774"/><stop offset="1" stop-color="#ff9b91"/></radialGradient><linearGradient id="o" x1="64.45" y1="122.6" x2="64.45" y2="116.32" gradientUnits="userSpaceOnUse"><stop offset="0" stop-color="#ce77f1"/><stop offset=".16" stop-color="#d17fef"/><stop offset=".41" stop-color="#dc97e9"/><stop offset=".71" stop-color="#ecbde1"/><stop offset="1" stop-color="#ffe7d8"/></linearGradient><linearGradient id="p" x1="64.41" y1="135.52" x2="64.41" y2=".58" gradientUnits="userSpaceOnUse"><stop offset=".01" stop-color="#691c2a"/><stop offset=".99" stop-color="#451721"/></linearGradient></defs><g style="isolation:isolate;"><g id="b"><g id="c"><path d="M128.54,87.64c-.1-3.33-2.43-10.28-7.66-15.94-5.35-5.77-5.71-13.42-5.46-23.39l-2.92-4.64c-.22,1.44-.49,3.36-.72,5.52l-84.83-9.83-4.09-8.64c-.57.67-6.2,6.17-6.2,6.17l.76,17.26s-.42,4.03-1.76,8.99c-1.53,5.68-4.27,12.58-8.94,16.01C-2.17,85.7,0,95.04,3.55,101.53c2.57,4.7,5.16,6.46,5.16,14.44,0,5.21-1.5,9.14-1.5,9.14,2.56-.84,4.71-2.15,6.52-3.7,2.36-2.02,4.13-4.44,5.42-6.68l-.73,1.45-.02.04c-.35.71-.69,1.4-1,2.08-1.78,3.91-2.69,7.55,0,11.34,2.64,3.72,5.63,4.24,7.86,3.91.01,0,.03,0,.04,0,0,.03.02.06.02.09.26.93,1.87,1.52,3.86,1.9,1.75.33,3.79.5,5.47.57,1.33.06,2.44.06,2.99.04,1.26-.05,1.8-14.71,1.8-14.71,3.84,6.33.34,14.71.34,14.71,1.32,1.46,2.91,1.6,5.04,1.32,2.43-.32,5.56-1.19,9.78-1.29,7.9-.17,17.73,3.32,17.73,3.32,0,0,6.47-.36,12.93-2.38,2.33-.73,4.67-1.66,6.7-2.89.33-.19.65-.4.96-.6,3.06-2.08,3.75-3.67,3.75-3.67-8.68-4-.96-19.23-.64-19.85-2.3,5.81,2.27,15.7,4.17,19.36.06,0,.1,0,.1,0,.85.69,2.01,1.14,3.36,1.39,1.13.21,2.39.28,3.75.24,4.25-.1,9.32-1.24,13.46-2.4h0c2.35-.67,4.4-1.33,5.82-1.82,1.32-.45,2.1-.75,2.1-.75-12.72-17.04,0-29.47-.26-38.53ZM24.53,130.92s0,0-.02-.01c0,0,0,0-.02-.01-4.58-2.74-7.9-8.92-3.59-14.7,1.57-2.11,2.94-3.89,4.11-5.39.31-.4.61-.78.89-1.14,0-.01.01-.01.01-.01-4.7,9.61-3.05,15.73-1.38,21.27Z" style="fill:url(#d); stroke-width:0px;"/><path d="M22.85,30.73v-.03c.07-.06.07-.04,0,.03Z" style="fill:url(#e); stroke-width:0px;"/><path d="M128.8,126.17s-.78.3-2.1.75c-4.55-4.01-10.1-9.75-10.6-14.18-.87-7.63,5.37-11.88,4.78-15.09-.59-3.22-1.16-8.03-3.54-8.17-2.38-.14-7.87,14.39-7.66,20.17.21,5.78,11.14,17.62,11.2,19.09h0c-4.14,1.16-9.21,2.3-13.46,2.4-.07-.07-.12-.15-.18-.22-7.74-9.44-2.52-18.3-4.24-21.27-1.73-2.97-4.65-.15-4.65-.15-3,8.32,4.91,20.75,5.33,21.4-1.35-.25-2.51-.7-3.36-1.39,0,0-.03,0-.1,0-1.89-3.66-6.47-13.56-4.17-19.36-.32.61-8.04,15.85.64,19.85,0,0-.69,1.59-3.75,3.67-.31.21-.63.41-.96.6-1.82-1.09-3.39-2.23-4.29-3.34-3.21-3.94-2.31-13.99-2.31-13.99-3.27,3.65.83,18.19,0,19.24-.15.18-.17.53-.1.98-6.46,2.01-12.93,2.38-12.93,2.38,0,0-9.84-3.49-17.73-3.32-4.22.09-7.35.97-9.78,1.29,1.17-1.45,2.31-3.55,3.01-6.57,1.99-8.6-1.99-17.52-1.99-17.52,0,0-.39,4.22.54,9.64.94,5.43-2.19,12.07-6.6,13.12,0,0,3.5-8.38-.34-14.71,0,0-.54,14.67-1.8,14.71-.55.02-1.66.02-2.99-.04,3.94-4.99,2.55-17.25,2.99-19.93.45-2.68-1.44-4.57-4.01-4.67-2.56-.1-7.69,8.85-5.11,23.11l.66.93c-1.99-.38-3.6-.98-3.86-1.9,0-.03-.02-.06-.02-.09-.02,0-.03,0-.04,0l-.74-2.65c-1.67-5.54-3.32-11.66,1.38-21.27,2.67-3.44,5.77-15.16,5.77-15.16l-6.6-9.12s-10.27,5.92-6.18,14.66c4.09,8.73.26,14.72.26,14.72-1.29,2.25-3.06,4.66-5.42,6.68,0,0,0,0,0,0,9.77-15.03-4.77-23.13-6.27-31.34-1.5-8.2,11.95-10.32,11.95-10.32l-3.77-16.6c1.34-4.96,1.76-8.99,1.76-8.99l-.76-17.26s5.63-5.5,6.2-6.17l4.09,8.64,84.83,9.83c.23-2.16.5-4.08.72-5.52l2.92,4.64c-.25,9.97.11,17.62,5.46,23.39,5.24,5.66,7.56,12.61,7.66,15.94.26,9.06-12.46,21.49.26,38.53Z" style="fill:#7c0377; mix-blend-mode:multiply; opacity:.4; stroke-width:0px;"/><path d="M80.4,140.11c-1.25-3.62,0-25.61,0-25.61l-15.99,1.04-15.99-1.04s1.25,21.98,0,25.61c-2.52,7.29-9.03,16.16-24.42,18.87h80.83c-15.39-2.71-21.91-11.57-24.42-18.87Z" style="fill:url(#f); stroke-width:0px;"/><path d="M48.65,127.67s13.97,12.04,31.5,7l.25-20.16s-9.24,6.59-31.96.9l.21,12.27Z" style="fill:#ce77b5; mix-blend-mode:multiply; opacity:.6; stroke-width:0px;"/><path d="M107.03,158.98H21.42s17.4-9.85,17.85-10.98c1.06-2.65,2.27-3.98,2.27-3.98,3.85,0,4.2,1.68,4.2,1.68,0,0,2.04,12.66,21.46,12.66,12.51,0,17.11-10.93,17.11-10.93l-.99-1.37,1.96-1.47s2.99,4.29,3.73,4.81c3.14,2.2,18.03,9.58,18.03,9.58Z" style="fill:url(#g); stroke-width:0px;"/><path d="M25.37,70.57s-3.77-5.62-8.32-5.61c-2.61,0-6.72,1.48-6.71,10.03,0,3.76,9.65,21.27,18.62,20.31l-3.59-24.73Z" style="fill:url(#h); stroke-width:0px;"/><path d="M12.88,76.99c0-.38-2.27-8.52,3.07-7.68,6.49,1.03,9.31,16.52,9.31,16.52,0,0-.86-2.99-3.07-3.38-2.21-.38-1.55,5.95-3.36,4.7-1.82-1.25-2.79-12.76,0-13.34,0,0-1.83-1.74-3.73-1.55-2.6.26-2.22,4.72-2.22,4.72Z" style="fill:url(#i); mix-blend-mode:multiply; opacity:.6; stroke-width:0px;"/><path d="M21.4,74.6c-2.59-3.19-4.96,1.14-4.31,5.76.65,4.62.85,7.26,2.33,6.4,1.48-.86.79-4.7,2.75-4.29,1.97.41,3.07,3.72,3.07,3.72,0,0-1.63-8.84-3.85-11.58Z" style="fill:url(#j); mix-blend-mode:multiply; opacity:.6; stroke-width:0px;"/><path d="M104.85,70.57s3.77-5.62,8.32-5.61c2.61,0,6.72,1.48,6.71,10.03,0,3.76-9.65,21.27-18.62,20.31l3.59-24.73Z" style="fill:url(#k); stroke-width:0px;"/><path d="M117.34,77.34c0-.38,2.27-8.52-3.07-7.68-6.49,1.03-9.31,16.52-9.31,16.52,0,0,.86-2.99,3.07-3.38,2.21-.38,1.55,5.95,3.36,4.7,1.82-1.25,2.79-12.76,0-13.34,0,0,1.83-1.74,3.73-1.55,2.6.26,2.22,4.72,2.22,4.72Z" style="fill:url(#l); mix-blend-mode:multiply; opacity:.6; stroke-width:0px;"/><path d="M108.82,74.95c2.59-3.19,4.96,1.14,4.31,5.76-.65,4.62-.85,7.26-2.33,6.4s-.79-4.7-2.75-4.29c-1.97.41-3.07,3.72-3.07,3.72,0,0,1.63-8.84,3.85-11.58Z" style="fill:url(#m); mix-blend-mode:multiply; opacity:.6; stroke-width:0px;"/><path d="M100.6,101.96c-1.12,3.66-5.55,7.92-11.46,11.95-1.1.74-2.24,1.48-3.43,2.21,0,0,0,0,0,0-.95.58-1.92,1.15-2.91,1.71-8.86,5-12.58,6.41-17.62,6.43h0s-.13,0-.13,0h0c-5.04-.03-8.76-1.43-17.62-6.43-1.46-.82-2.87-1.67-4.22-2.53-.01,0-.02-.01-.02-.01-.65-.41-1.29-.83-1.91-1.25-6.01-4.07-10.52-8.37-11.65-12.08-1.49-4.88-7.62-51.5-7.01-59.71.26-3.52,3.67-9.67,9.39-15.56,7.59-7.82,19.26-15.16,33.04-15.21h0s.13,0,.13,0h0c14.73.05,27.04,8.43,34.55,16.82,0,0,0,0,0,0,4.81,5.37,7.64,10.75,7.88,13.95.61,8.21-5.52,54.83-7.01,59.71Z" style="fill:url(#n); stroke-width:0px;"/><path d="M85.7,116.12c-.95.58-1.92,1.15-2.91,1.71-8.86,5-12.58,6.41-17.62,6.43h0s-.13,0-.13,0h0c-5.04-.03-8.76-1.43-17.62-6.43-1.46-.82-2.87-1.67-4.22-2.53.61.35,13.68,7.78,21.92,7.78s20.2-6.75,20.57-6.96Z" style="fill:url(#o); mix-blend-mode:multiply; opacity:.6; stroke-width:0px;"/><path d="M128.71,109.68c-.35-2.59-2.44-4.15-5.21-5.73-4.01-2.29-9.41-4.62-12.92-10.18h0s0,0,0,0c0,0,0,0,0-.01h0c-.58-.93-1.11-1.94-1.58-3.05,0,0,0-.01,0-.01-.37-.89-.69-1.85-.97-2.88-2.05-7.67,1.13-18.14,1.13-18.14.85-1.31,1.88-2.31,2.82-3.01.34-.26.66-.48.96-.66h0c1.02-.65,1.77-.91,1.77-.91-.75-9.08,2.25-27.28.05-31.83-4.09-8.43-23.9-15.24-24.52-15.45,0,0,0,0-.02,0,0,0-1.91-4.25-5.51-8.58-5.68-6.86-15.56-13.97-28.72-4.99-2.31,1.58-4.36,2.94-6.15,4.1-10.04,4.53-16.94-8.06-27-1.56-.95.61-1.74,1.32-2.41,2.1h0c-3.73,4.38-3.37,11.02-2.42,15.83-4.04,3.11-6.76,6.84-5.58,10.99,4.94,17.48,3.08,29.34,3.08,29.34,1.37.24,2.48.59,3.38.99.06.09,3.29,1.29,3.73,2.23h.01c2.26,4.89,3.73,11.69,2.07,20.9-1.03,5.75-4.25,10.49-11.44,11.91,0,0,0,0,0,0-8.24,1.64-15.12,8.47-12.79,19.19,0,0,0-11.78,16.73-8.35,10.12,2.08,19-12.62,15.27-20.3-1.96-4.03-3.07-7.7-5.5-15.97-.73-2.48-1.36-4.93-1.8-7.2.37-3.38-.53-21.83,1.85-24.1,5.71-5.43,12.73-1.67,16.82-1.41,1.13,1.06,2.11,2,2.8,2.5,3.27,2.36,10.44,3.09,13.13-2.76,1.41-3.06,1.58-7.92-.66-15.29.74-1.15,1.18-1.86,1.18-1.86,10.46-17.17,22.61-5.15,22.61-5.15,1.85.57,4.39.37,4.93,1.86,1.37,3.84-10.47,7.13-10.27,12.02.27,6.5,6.1,6.76,6.1,6.76,0,0,0,0,0,0-.23-.11-5.69-2.75-.31-7.06,3.18-2.54,8.58-.9,12.16-2.9.57-.31,1.1-.72,1.56-1.26.59,2.11,1.39,5.9,1.55,11.5.11,3.94,2.64,8.5,5,11.92l.02.02c1.86,2.71,1.61,9.69,1.94,10.04l.02.03.02.03s0,.01,0,.03c-.13.82-.79,12.15-1.91,15.24-1.8,4.99-3.48,10.3-3.35,15.82.14,5.9,2.39,12.05,8.83,18.3.14.14.28.27.41.41,7.31,7.33,7.68,14.14,2.71,18.63,0,0,9.68,1.25,11.43-13.33,0,0,6-1.25,5-8.77ZM37.66,15.29s-8.91,2.65-16.2,7.07c.82-2.43,2.94-5.32,7.71-8.21,2.91-1.76,7.6-1.92,11.12-1.73.97.06,1.85.14,2.58.22-3.93,2.26-5.22,2.65-5.22,2.65ZM46.8,43.87c-.65-.34-1.45-.49-2.16-.92.46-.04.87-.14,1.22-.34l.48-.3.1-.06c2.98-1.97,4.14-3.13,6.79-6.7-.03.38,1.38,12.4-6.43,8.33ZM123.46,116.92c-.12-2.6-.84-4.56-1.92-6.12-.01-.01-.02-.03-.03-.05-3.58-5.12-11.03-5.98-13.49-11.12-.12-.24-.22-.51-.31-.8,3.3,2.9,10.55,5.14,15.06,8.04,1.82,1.16,3.19,2.43,3.69,3.89,2.1,6.14-3,6.16-3,6.16Z" style="fill:url(#p); stroke-width:0px;"/><path d="M84.71,9.21s1.83,3.14,1.33,4.15c0,0-5.94-8.74-17.69-10.91-5.57-1.03-14.79,2.01-23.72,12.84-8.92,10.83-3.56,17.5-5.59,23.08-1.5,4.14-4.44,3.08-17.59-.53-9.98-2.74,3.7,30.63,3.7,30.63.37-3.38-.53-21.83,1.85-24.1,5.71-5.43,12.73-1.67,16.82-1.41l2.02-.34.48-.3.1-.06c2.98-1.97,6.79-6.7,6.79-6.7-2.22-8.93-5.1-8.15-5.39-14.93-.14-3.25,3.72-11.55,11.92-16.08,6.32-3.49,15.91.51,25.21,8.58-.83,1.13-7.13-2.21-7.76-2.56-1.54-.84-8.61-4.78-12.79-3.32-4.7,1.65-11.63,8.05-5.32,20.16.74-1.15,1.18-1.86,1.18-1.86,10.46-17.17,22.61-5.15,22.61-5.15,0,0,4.77-.57,7.34-2.59,0,0-1.91-4.25-5.51-8.58Z" style="fill:#7c0377; mix-blend-mode:multiply; opacity:.4; stroke-width:0px;"/><path d="M49.11,8.88c-9.76,5.66-13.07,13.27-13.49,18.43-.43,5.16,2.86,13.89-6.34,11.05-9.2-2.83-15.45-2.96-15.47,2.73l-1.4-5.39s-.43-7.84,4.89-6.59c7.5,1.76,7.41,3.44,10.99,2.5,3.38-.89,5.03-13.08,14.57-18.98l6.24-3.75Z" style="fill:#7c0377; mix-blend-mode:multiply; opacity:.4; stroke-width:0px;"/><path d="M114.71,65.08s-.75.27-1.77.91c.59-4.75,4.27-21.69-3.79-27.62-6.22-4.58-7.79-11.5-7.79-11.5,0,0-.02,14.23,5.88,18.5,9.43,6.83,4.7,20.91,4.7,20.91l.04.37c-.94.71-1.97,1.7-2.82,3.01l-3.6-6.38c-.58-8.5-1.94-10.04-1.94-10.04l-.02-.02c-2.35-3.42-4.88-7.98-5-11.92-.16-5.6-.96-9.39-1.55-11.5,1.79-1.39,2.42-7.06-6.81-12,.62.21,20.44,7.02,24.52,15.45,2.2,4.54-.8,22.75-.05,31.83Z" style="fill:#7c0377; mix-blend-mode:multiply; opacity:.4; stroke-width:0px;"/><path d="M17.41,118.31c.31-.69.65-1.38,1-2.08l-1,2.08Z" style="fill:#7c0377; mix-blend-mode:multiply; opacity:.4; stroke-width:0px;"/><path d="M25,110.8c.48-.65.82-1.06.89-1.14-.28.36-.58.74-.89,1.14Z" style="fill:#7c0377; mix-blend-mode:multiply; opacity:.4; stroke-width:0px;"/><path d="M22.85,30.73v-.03c.07-.06.07-.04,0,.03Z" style="fill:#7c0377; mix-blend-mode:multiply; opacity:.4; stroke-width:0px;"/><path d="M83.63,41.03c-.28-.08-5.34-1.59-4.1-6.92,1.01-4.37,7.88-4.87,15.95-3.05-3.58,2-8.98.36-12.16,2.9-5.39,4.31.08,6.95.31,7.06Z" style="fill:#7c0377; mix-blend-mode:multiply; opacity:.4; stroke-width:0px;"/><path d="M40.29,12.42c-3.52-.19-8.21-.03-11.12,1.73-4.77,2.89-6.89,5.77-7.71,8.21l-3.46,2.35c-.95-4.81-1.3-11.45,2.42-15.82,0,0,.02,3.06,8.12,2.56,7.87-.48,11.56.9,11.75.97Z" style="fill:#7c0377; mix-blend-mode:multiply; opacity:.4; stroke-width:0px;"/><path d="M80.54,18.59c-10.08-8.48-17.31-14-21.69-7.24s.25,16.04.25,16.04c0,0,1.21-6.5,8.98-10.04,7.03-3.21,12.47,1.24,12.47,1.24Z" style="fill:#7c0377; mix-blend-mode:multiply; opacity:.4; stroke-width:0px;"/><path d="M49.84,10.49c-7.65,15.96.6,29.25-3.5,30.74s-8.15,0-8.15,0c0,0,3.4-1.53,2.12-9.74-2.12-13.62,9.54-21,9.54-21Z" style="fill:#7c0377; mix-blend-mode:multiply; opacity:.4; stroke-width:0px;"/><path d="M26.94,5.06c-2.98,4.8,4.74,6.28,4.74,6.28h2.54s-3.95-1.81-4.67-3.65c-.72-1.83,1-2.63,1-2.63,0,0-.92-.22-1.72-.19-.8.04-1.89.19-1.89.19Z" style="fill:#ffd1dd; mix-blend-mode:soft-light; opacity:.5; stroke-width:0px;"/><path d="M41.32,15.08c1.39.47,3.58,0,3.58,0l-2.6,3.45s-.82-1.81-2.79-1.18l1.82-2.27Z" style="fill:#ffd1dd; mix-blend-mode:soft-light; opacity:.5; stroke-width:0px;"/><path d="M50.8,12.86c2.74-3.78,8.05-1.51,8.05-1.51,0,0-1.85,2.37-2.24,6,0,0-4.38-2.08-8.48,1.18,0,0,1.36-3.87,2.67-5.68Z" style="fill:#ffd1dd; mix-blend-mode:soft-light; opacity:.5; stroke-width:0px;"/><path d="M25.99,19.9c-3.28,6.79-1.19,11.69-1.19,11.69,0,0-3.85-1.47-5.06-1.82,0,0,1.09-5.5,4.45-8.95l1.8-.91Z" style="fill:#ffd1dd; mix-blend-mode:soft-light; opacity:.5; stroke-width:0px;"/><path d="M34.21,22.27c1.87,9.03,3.7,19.41-3.45,16-7.16-3.42-16.31-3.76-17.68,0,0,0-1.05-9.77,2.86-9.28,5.51.69,8.29,3.24,12.36,2.62,2.46-.38,5.91-9.34,5.91-9.34Z" style="fill:#7c0377; mix-blend-mode:multiply; opacity:.4; stroke-width:0px;"/><path d="M87.41,24.28c7.55,5,9.61-.71,9.61-.71,0,0,1.56,2.14,1.1,3.82-.47,1.68-.8,1.95-1.94,3.21,0,0-7.04-1.36-9.36-5.62l.58-.71Z" style="fill:#ffd1dd; mix-blend-mode:soft-light; opacity:.5; stroke-width:0px;"/><path d="M107.9,37.37c-1.02,4.16-3.5,4.53-3.5,4.53,0,0,1.34,3.05,2.82,3.47,0,0,3.02-3,1.92-7l-1.24-1Z" style="fill:#ffd1dd; mix-blend-mode:soft-light; opacity:.5; stroke-width:0px;"/><path d="M17.19,111.93C.46,108.49.46,120.28.46,120.28c-2.34-10.73,4.54-17.56,12.79-19.19-.17.14-4.79,5.03-4.2,5.8,1.43,1.88,5.1,2.78,7.94,2.78,3.45,0,8.26-1.53,10.73-8.3,2.46-6.76-.72-11.29-2.71-11.89l-.31-.31c1.66-9.21.19-16.01-2.07-20.89l2.96,5.37,1.37,2.01c2.43,8.27,3.54,11.93,5.5,15.97,3.74,7.68-5.14,22.38-15.27,20.3Z" style="fill:#7c0377; mix-blend-mode:multiply; opacity:.4; stroke-width:0px;"/><path d="M109.15,69.66s-3.18,10.47-1.13,18.14c.27,1.03.6,1.99.97,2.88-2.05-3.55-5.59-8.12-7.52-1.82-.55,1.78-.91,3.67-1.14,5.57-.13-5.52,1.56-10.83,3.35-15.82,1.11-3.09,1.78-14.41,1.91-15.24l3.56,6.28Z" style="fill:#7c0377; mix-blend-mode:multiply; opacity:.4; stroke-width:0px;"/><path d="M110.58,93.76h0s0,0,0,0c0,0,0,0,0,0Z" style="fill:#7c0377; mix-blend-mode:multiply; opacity:.4; stroke-width:0px;"/><path d="M123.71,118.45c-1.75,14.58-11.43,13.33-11.43,13.33,4.96-4.49,4.6-11.3-2.71-18.63,0,0,4.78,2.56,7.77,3.77,3.54,1.43,6.79-2.11,4.21-6.12,1.08,1.57,1.8,3.52,1.92,6.12,0,0,5.1-.02,3-6.16-.5-1.45-1.87-2.73-3.69-3.89.95-.07,2.82-.49.73-2.94,2.77,1.58,4.87,3.14,5.21,5.73,1,7.52-5,8.77-5,8.77Z" style="fill:#7c0377; mix-blend-mode:multiply; opacity:.4; stroke-width:0px;"/><path d="M16.66,100.04c2.39,4.1,4.66,4.82,7.52,6.88l1.8-2.12s-2.21-4.58-8.09-5.37l-1.24.6Z" style="fill:#ffd1dd; mix-blend-mode:soft-light; opacity:.5; stroke-width:0px;"/><path d="M103.68,105.95c2.31-1.81,8.87-1.81,8.87-1.81l2.41,1.42s-1.03-1.58-5.5,0c-4.47,1.58-4.09,2.94-4.09,2.94l-1.71-2.55Z" style="fill:#ffd1dd; mix-blend-mode:soft-light; opacity:.5; stroke-width:0px;"/><path d="M115.3,98.94c-2.42,1.34-2.38,3.05-2.38,3.05l1.96.92s.99-2.39,2.45-2.51l-2.04-1.46Z" style="fill:#ffd1dd; mix-blend-mode:soft-light; opacity:.5; stroke-width:0px;"/></g></g></g></svg>