<?xml version="1.0" encoding="UTF-8"?><svg xmlns="http://www.w3.org/2000/svg" xmlns:xlink="http://www.w3.org/1999/xlink" viewBox="0 0 122.2 157.61"><defs><linearGradient id="d" x1="61.1" y1="158.48" x2="61.1" y2="2.63" gradientUnits="userSpaceOnUse"><stop offset="0" stop-color="#4b264f"/><stop offset="1" stop-color="#5f1945"/></linearGradient><linearGradient id="e" x1="21.47" y1="157.61" x2="21.47" y2="7.63" gradientUnits="userSpaceOnUse"><stop offset="0" stop-color="#ffdec7"/><stop offset=".99" stop-color="#7c297f"/></linearGradient><linearGradient id="f" x1="96.08" y1="157.61" x2="96.08" y2="15.01" xlink:href="#e"/><linearGradient id="g" x1="62.81" y1="157.61" x2="62.81" y2="32.59" gradientUnits="userSpaceOnUse"><stop offset="0" stop-color="#36062c"/><stop offset="1" stop-color="#441b3e"/></linearGradient><linearGradient id="h" x1="60.4" y1="157.52" x2="60.4" y2="113.04" gradientUnits="userSpaceOnUse"><stop offset="0" stop-color="#ffb09a"/><stop offset=".21" stop-color="#ff9b8d"/><stop offset=".47" stop-color="#ff8780"/><stop offset=".74" stop-color="#ff7b79"/><stop offset="1" stop-color="#f77"/></linearGradient><radialGradient id="i" cx="60.22" cy="150.04" fx="60.22" fy="150.04" r="30.73" gradientUnits="userSpaceOnUse"><stop offset="0" stop-color="#b307b9"/><stop offset="1" stop-color="#ba4ad6"/></radialGradient><linearGradient id="j" x1="-1031.96" y1="93.87" x2="-1031.96" y2="63.49" gradientTransform="translate(-1016.32) rotate(-180) scale(1 -1)" xlink:href="#h"/><linearGradient id="k" x1="-1031.14" y1="85.87" x2="-1031.14" y2="67.79" gradientTransform="translate(-1016.32) rotate(-180) scale(1 -1)" gradientUnits="userSpaceOnUse"><stop offset="0" stop-color="#ffe7d8"/><stop offset=".29" stop-color="#f9bdc9"/><stop offset=".59" stop-color="#f597bb"/><stop offset=".84" stop-color="#f27fb3"/><stop offset=".99" stop-color="#f177b0"/></linearGradient><linearGradient id="l" x1="-1033.43" y1="85.46" x2="-1033.43" y2="72.04" xlink:href="#k"/><linearGradient id="m" x1="106.57" y1="93.87" x2="106.57" y2="63.49" xlink:href="#h"/><linearGradient id="n" x1="107.39" y1="86.21" x2="107.39" y2="68.14" gradientTransform="matrix(1,0,0,1,0,0)" xlink:href="#k"/><linearGradient id="o" x1="105.09" y1="85.8" x2="105.09" y2="72.39" gradientTransform="matrix(1,0,0,1,0,0)" xlink:href="#k"/><linearGradient id="p" x1="61.1" y1="122.8" x2="61.1" y2="10.01" gradientUnits="userSpaceOnUse"><stop offset="0" stop-color="#f2ad97"/><stop offset=".18" stop-color="#f4ac8d"/><stop offset=".51" stop-color="#f9ab80"/><stop offset=".57" stop-color="#faa67c"/><stop offset=".78" stop-color="#fd9a75"/><stop offset="1" stop-color="#ff9673"/></linearGradient><linearGradient id="q" x1="60.44" y1="121.13" x2="60.44" y2="114.86" gradientUnits="userSpaceOnUse"><stop offset="0" stop-color="#ce77f1"/><stop offset=".16" stop-color="#d17fef"/><stop offset=".41" stop-color="#dc97e9"/><stop offset=".71" stop-color="#ecbde1"/><stop offset="1" stop-color="#ffe7d8"/></linearGradient><linearGradient id="r" x1="62.48" y1="157.45" x2="62.48" y2="2.67" xlink:href="#d"/><linearGradient id="s" x1="59.08" y1="74.58" x2="59.08" y2="4.26" gradientUnits="userSpaceOnUse"><stop offset="0" stop-color="#ffdec7"/><stop offset=".99" stop-color="#7c297f"/></linearGradient><linearGradient id="t" x1="101.81" y1="68.97" x2="101.81" y2="26.18" gradientUnits="userSpaceOnUse"><stop offset="0" stop-color="#7c297f"/><stop offset="1" stop-color="#ffdec7"/></linearGradient></defs><g style="isolation:isolate;"><g id="b"><g id="c"><path d="M121.51,157.61h-3.25s6.42-23.9-1.41-64.44c2.16,37.33-4.34,64.44-4.34,64.44h-1.31s3.06-45.79,2.58-58.97c-.39-10.86-1.21-18.78-1.21-18.78l-4.38,77.76H10.51s.19-42.46.23-47.14c0-.31.01-.47.01-.47-.14.69-.27,1.39-.4,2.09-1.4,7.7-1.84,15.69-1.87,22.53-.05,9.46.7,21.56.84,22.8.02.12.02.19.02.19H1.26s-2.94-22.62.16-44.65c.73-5.22,1.8-10.68,3.34-16.2,4.88-17.54,1.89-25.64,1.89-43.92,0-.92,0-2.21.02-3.7h0c.08-6.24.42-16.08,1.77-18.37,1.62-2.76,9.46-10.21,13.73-14.06,3.94-3.55,7.77-5.77,10.91-7.16,2.91-1.3,5.52-1.85,8-1.91,0,0,0,0,.02,0,6.53-.19,12.17,2.91,20.21,4.13l12.45-8.32c9.54-.13,28.82,15.57,33.95,23.62.76,1.2,1.22,2.23,1.28,3.01,2.12,27.23,5.51,44.15,8.29,56.91,1.87,8.59,3.46,15.3,4.21,21.99,1.56,14.01,0,48.63,0,48.63Z" style="fill:url(#d); stroke-width:0px;"/><path d="M26.05,94.21l4.22,63.41h-4.57s-4.23-32.21-4.21-41.7c.02-11.41-1.6-16.66-1.6-16.66,0,0-1.13-.78-2.5,1.49l3.82,56.88h-6.89s-1.17-49.12,1.62-60.19l-5.17,13s0,.03-.02.06c-.14.53-.27,1.06-.39,1.61-1.51,6.69-1.91,15.1-1.87,22.53.03,9.07.72,21.52.84,22.8.02.12.02.19.02.19h-3.79c-9-10.57,9.96-66.57,2.82-60.28-2.72,2.4-6.84,15.97-6.84,15.97,0,0-.04-.11-.12-.34.73-5.22,1.8-10.68,3.34-16.2,4.88-17.54,1.89-25.64,1.89-43.92,0-.92,0-2.21.02-3.7.03.23.41,3.07,2.17,3.7,0,0,1.26,2.16,5.38-14.01,2.33-9.15,5.12-16.8,7.95-22.12,3.94-3.55,7.77-5.77,10.91-7.16,2.91-1.3,5.52-1.85,8-1.91,0,0,0,0,.02,0,.25.02.4.04.4.04l-15.46,86.53Z" style="fill:url(#e); fill-rule:evenodd; mix-blend-mode:multiply; opacity:.6; stroke-width:0px;"/><path d="M113.79,98.64c-.39-10.86-1.21-18.78-1.21-18.78l-4.38,77.75h-3.01s4.59-39.74,4.6-46.84c.02-10.87,0-16.56,0-16.56,0,0-4.5-.48-4.97,2.66l-7.47,60.74h-8.23l10.43-67.81-24.68-67.46,16.36-7.32s11.63,13.32,13.96,14.32c2.33,1,2.56-2.27,2.56-2.27.76,1.2,1.22,2.23,1.28,3.01,2.12,27.23,5.51,44.15,8.29,56.91-1.69,2.56-2.82,7.46-3.52,11.65Z" style="fill:url(#f); mix-blend-mode:multiply; opacity:.6; stroke-width:0px;"/><path d="M94.28,157.61H28.84s-8.38-45.33-5.85-84.66l19.69-40.36h27.56s28.27,22.5,32.32,51.07c3.13,22.03-8.29,73.95-8.29,73.95Z" style="fill:url(#g); stroke-width:0px;"/><path d="M94.28,157.61h-2.17l8.42-55.58c-2.6,1.45-6.52,6.19-6.52,6.19-1.43,6.77-11.77,49.39-11.77,49.39h-4.61.29l12.28-44.28s-9.19,3.26-10.27,4.69c-.94,1.24-8.81,39.59-8.81,39.59h-21.46l-6.98-33.88c-.83-3.61-5.5-7.13-5.5-7.13.15,8.3,7.55,41.01,7.55,41.01h.23-8.04l-10.87-49.39c-1.44,5.06,2.79,49.39,2.79,49.39,0,0-8.38-45.33-5.85-84.66l19.69-40.36h27.56s28.27,22.5,32.32,51.07c3.13,22.03-8.29,73.95-8.29,73.95Z" style="fill:#7c0377; mix-blend-mode:multiply; opacity:.6; stroke-width:0px;"/><path d="M76.4,138.65c-1.25-3.62,0-25.61,0-25.61l-15.99,1.04-15.99-1.04s1.25,21.98,0,25.61c-2.52,7.29-9.03,16.16-24.42,18.87h80.83c-15.4-2.71-21.91-11.57-24.42-18.87Z" style="fill:url(#h); stroke-width:0px;"/><path d="M44.65,126.21s13.97,12.04,31.5,7l.25-20.16s-9.24,6.59-31.96.9l.21,12.27Z" style="fill:#ce77b5; mix-blend-mode:multiply; opacity:.6; stroke-width:0px;"/><path d="M103.02,157.52H17.41s17.4-9.85,17.85-10.98c1.06-2.65,2.27-3.98,2.27-3.98,3.85,0,4.2,1.68,4.2,1.68,0,0,2.04,12.66,21.46,12.66,12.51,0,17.11-10.93,17.11-10.93l-.99-1.37,1.96-1.47s2.99,4.29,3.73,4.81c3.14,2.2,18.03,9.58,18.03,9.58Z" style="fill:url(#i); stroke-width:0px;"/><path d="M21.36,69.11s-3.77-5.62-8.32-5.61c-2.61,0-6.72,1.48-6.71,10.03,0,3.76,9.65,21.27,18.62,20.31l-3.59-24.73Z" style="fill:url(#j); stroke-width:0px;"/><path d="M8.87,75.53c0-.38-2.27-8.52,3.07-7.68,6.49,1.03,9.31,16.52,9.31,16.52,0,0-.86-2.99-3.07-3.38-2.21-.38-1.55,5.95-3.36,4.7s-2.79-12.76,0-13.34c0,0-1.83-1.74-3.73-1.55-2.6.26-2.22,4.72-2.22,4.72Z" style="fill:url(#k); mix-blend-mode:multiply; opacity:.6; stroke-width:0px;"/><path d="M17.4,73.14c-2.59-3.19-4.96,1.14-4.31,5.76s.85,7.26,2.33,6.4c1.48-.86.79-4.7,2.75-4.29,1.97.41,3.07,3.72,3.07,3.72,0,0-1.63-8.84-3.85-11.58Z" style="fill:url(#l); mix-blend-mode:multiply; opacity:.6; stroke-width:0px;"/><path d="M100.84,69.11s3.77-5.62,8.32-5.61c2.61,0,6.72,1.48,6.71,10.03,0,3.76-9.65,21.27-18.62,20.31l3.59-24.73Z" style="fill:url(#m); stroke-width:0px;"/><path d="M113.34,75.88c0-.38,2.27-8.52-3.07-7.68-6.49,1.03-9.31,16.52-9.31,16.52,0,0,.86-2.99,3.07-3.38,2.21-.38,1.55,5.95,3.36,4.7,1.82-1.25,2.79-12.76,0-13.34,0,0,1.83-1.74,3.73-1.55,2.6.26,2.22,4.72,2.22,4.72Z" style="fill:url(#n); mix-blend-mode:multiply; opacity:.6; stroke-width:0px;"/><path d="M104.81,73.49c2.59-3.19,4.96,1.14,4.31,5.76-.65,4.62-.85,7.26-2.33,6.4s-.79-4.7-2.75-4.29c-1.97.41-3.07,3.72-3.07,3.72,0,0,1.63-8.84,3.85-11.58Z" style="fill:url(#o); mix-blend-mode:multiply; opacity:.6; stroke-width:0px;"/><path d="M96.59,100.49c-1.12,3.66-5.55,7.92-11.46,11.95-1.1.74-2.24,1.48-3.43,2.21,0,0,0,0,0,0-.95.58-1.92,1.15-2.91,1.71-8.86,5-12.58,6.41-17.62,6.43h0s-.13,0-.13,0h0c-5.04-.03-8.76-1.43-17.62-6.43-1.46-.82-2.87-1.67-4.22-2.53-.01,0-.02-.01-.02-.01-.65-.41-1.29-.83-1.91-1.25-6.01-4.07-10.52-8.37-11.65-12.08-1.49-4.88-7.62-51.5-7.01-59.71.26-3.52,3.67-9.67,9.39-15.56,7.59-7.82,19.26-15.16,33.04-15.21h0s.13,0,.13,0h0c14.73.05,27.04,8.43,34.55,16.82,0,0,0,0,0,0,4.81,5.37,7.64,10.75,7.88,13.95.61,8.21-5.52,54.83-7.01,59.71Z" style="fill:url(#p); stroke-width:0px;"/><path d="M81.69,114.65c-.95.58-1.92,1.15-2.91,1.71-8.86,5-12.58,6.41-17.62,6.43h0s-.13,0-.13,0h0c-5.04-.03-8.76-1.43-17.62-6.43-1.46-.82-2.87-1.67-4.22-2.53.61.35,13.68,7.78,21.92,7.78s20.2-6.75,20.57-6.96Z" style="fill:url(#q); mix-blend-mode:multiply; opacity:.6; stroke-width:0px;"/><path d="M109.38,63.49c-.62.38-1.18.79-1.72,1.21-1.7,1.34-3.02,2.85-4.02,4.27-1.09,1.55-1.81,3-2.25,4.04h0c-.41.97-.57,1.57-.57,1.57,0,0-5.6-23.71-10.61-35.24-10.27-23.66-18.44-20.16-18.44-20.16-24.35-7.27-33.21,1.73-40.9,21.5-7.69,19.77-10.01,27.47-10.01,27.47,0,0-1.64-2.16-4.06-3.64-.25-.15-.5-.3-.75-.43,0,0-2.39-26.07,3.86-36.99C30.59,8.36,43.01.29,49.82,0c4.75-.2,12.02,7.97,14.17,8.92,0,0,7.77-6.75,12.01-5.09,29.31,11.47,33.38,59.66,33.38,59.66Z" style="fill:url(#r); stroke-width:0px;"/><path d="M101.38,73.01h0c-.41.97-.57,1.57-.57,1.57,0,0-5.6-23.71-10.61-35.24-10.27-23.66-18.44-20.16-18.44-20.16-24.35-7.27-33.21,1.73-40.9,21.5-7.69,19.77-10.01,27.47-10.01,27.47,0,0-1.64-2.16-4.06-3.64.48-.77,1.12-1.45,1.18-2.23,2.03-26,7.11-34.19,7.31-34.79-.33,8.27-3.77,26.35-4.95,34.04-.14.93.77,3.68.77,3.68,8.88-14.65,9.42-41.11,15.25-53.3,5.83-12.19,17.75-7.12,21.95-2.98,3.38,3.34,10.82,8.19,12.87,9.25-.09-.33-1.41-13.96,2.62-12.83,1.78.5,14.18,5.87,21.99,39.73,2.51,10.89,4.71,25.51,5.61,27.94Z" style="fill:url(#s); mix-blend-mode:multiply; opacity:.8; stroke-width:0px;"/><path d="M107.65,64.7c-1.7,1.34-3.02,2.85-4.02,4.27-9.57-11.66-7.47-42.35-7.47-42.79.09.31,1.38,16.7,11.49,38.53Z" style="fill:url(#t); mix-blend-mode:multiply; opacity:.6; stroke-width:0px;"/><path d="M36.34,11.9c-5.33,5.69-14.48,11.87-14.48,11.87,0,0-2.85,4.72-3.61,6.66,0,0,1.78-3,4.27-5.08,2.49-2.08,11.14-8.9,10.49-5.12l3.34-8.32Z" style="fill:#ffecea; mix-blend-mode:soft-light; stroke-width:0px;"/><path d="M18.25,25.69s-7.07,6.4-8.57,6.9-1.54-1.1-1.54-1.1c0,0-.72,2.07-1.04,6.83,0,0,6.84-9.95,9.42-7.55l1.73-5.08Z" style="fill:#ffecea; mix-blend-mode:soft-light; stroke-width:0px;"/><path d="M87.64,21.09s3.03,6.02,4.8,11.89c0,0,2.33-6.38,7.81-3.54,0,0-1.95-4.52-3.79-7.14,0,0,2.12,3.87-.3,3.87s-8.52-5.09-8.52-5.09Z" style="fill:#ffecea; mix-blend-mode:soft-light; stroke-width:0px;"/></g></g></g></svg>