<?xml version="1.0" encoding="UTF-8"?><svg xmlns="http://www.w3.org/2000/svg" xmlns:xlink="http://www.w3.org/1999/xlink" viewBox="0 0 120.9 175.49"><defs><linearGradient id="d" x1="60.46" y1="174" x2="60.46" y2="126.68" gradientUnits="userSpaceOnUse"><stop offset="0" stop-color="#ffb09a"/><stop offset=".21" stop-color="#ff9b8d"/><stop offset=".47" stop-color="#ff8780"/><stop offset=".74" stop-color="#ff7b79"/><stop offset="1" stop-color="#f77"/></linearGradient><linearGradient id="e" x1="73.51" y1="164.79" x2="74.26" y2="133.19" gradientUnits="userSpaceOnUse"><stop offset="0" stop-color="#ffe7d8"/><stop offset=".29" stop-color="#ecbde1"/><stop offset=".59" stop-color="#dc97e9"/><stop offset=".84" stop-color="#d17fef"/><stop offset=".99" stop-color="#ce77f1"/></linearGradient><linearGradient id="f" x1="16.94" y1="113.31" x2="16.94" y2="81.56" xlink:href="#d"/><linearGradient id="g" x1="17.34" y1="103.28" x2="17.34" y2="86.59" gradientUnits="userSpaceOnUse"><stop offset="0" stop-color="#ffe7d8"/><stop offset=".29" stop-color="#f9bdc9"/><stop offset=".59" stop-color="#f597bb"/><stop offset=".84" stop-color="#f27fb3"/><stop offset=".99" stop-color="#f177b0"/></linearGradient><linearGradient id="h" x1="19.66" y1="103.36" x2="19.66" y2="93.13" gradientUnits="userSpaceOnUse"><stop offset="0" stop-color="#ffe7d8"/><stop offset=".99" stop-color="#ce77f1"/></linearGradient><linearGradient id="i" x1="30.45" y1="105.71" x2="15.9" y2="105.71" xlink:href="#g"/><linearGradient id="j" x1="-1880.64" y1="113.31" x2="-1880.64" y2="81.56" gradientTransform="translate(-1776.67) rotate(-180) scale(1 -1)" xlink:href="#d"/><linearGradient id="k" x1="-1880.25" y1="103.28" x2="-1880.25" y2="86.59" gradientTransform="translate(-1776.67) rotate(-180) scale(1 -1)" xlink:href="#g"/><linearGradient id="l" x1="-1877.93" y1="103.36" x2="-1877.93" y2="93.13" gradientTransform="translate(-1776.67) rotate(-180) scale(1 -1)" xlink:href="#h"/><linearGradient id="m" x1="-1867.43" y1="105.71" x2="-1881.21" y2="105.71" gradientTransform="translate(-1776.67) rotate(-180) scale(1 -1)" xlink:href="#g"/><linearGradient id="n" x1="60.46" y1="141.36" x2="60.46" y2="22.25" gradientUnits="userSpaceOnUse"><stop offset="0" stop-color="#fa9b76"/><stop offset=".11" stop-color="#f89b7c"/><stop offset=".43" stop-color="#f69e8a"/><stop offset=".65" stop-color="#fb9783"/><stop offset="1" stop-color="#ff937f"/></linearGradient><linearGradient id="o" x1="30.21" y1="127.88" x2="30.21" y2="88.85" xlink:href="#h"/><linearGradient id="p" x1="-1711.63" y1="127.88" x2="-1711.63" y2="88.85" gradientTransform="translate(-1620.97) rotate(-180) scale(1 -1)" xlink:href="#h"/><linearGradient id="q" x1="60.71" y1="139.53" x2="60.71" y2="130.32" gradientUnits="userSpaceOnUse"><stop offset="0" stop-color="#ce77f1"/><stop offset=".16" stop-color="#d17fef"/><stop offset=".41" stop-color="#dc97e9"/><stop offset=".71" stop-color="#ecbde1"/><stop offset="1" stop-color="#ffe7d8"/></linearGradient><linearGradient id="r" x1="60.45" y1="156.07" x2="60.45" y2="174" gradientUnits="userSpaceOnUse"><stop offset="0" stop-color="#705ab5"/><stop offset=".19" stop-color="#8761c4"/><stop offset=".54" stop-color="#ad6ddc"/><stop offset=".82" stop-color="#c574eb"/><stop offset=".99" stop-color="#ce77f1"/></linearGradient><linearGradient id="s" x1="61.46" y1="171.3" x2="82.62" y2="162.01" xlink:href="#r"/><linearGradient id="t" x1="60.09" y1="155.88" x2="60.09" y2="167.25" xlink:href="#r"/><radialGradient id="u" cx="56.43" cy="11.41" fx="56.43" fy="11.41" r="98.39" gradientUnits="userSpaceOnUse"><stop offset="0" stop-color="#6a1424"/><stop offset="1" stop-color="#47082b"/></radialGradient></defs><g style="isolation:isolate;"><g id="b"><g id="c"><path d="M108.19,172.1s-32.32,1.89-47.74,1.89-47.74-1.89-47.74-1.89c0,0,19.19-7.16,21.33-11.83,1.07-2.35,1.5-10.84,1.66-18.7.16-7.76.05-14.9.05-14.9l24.7.35,24.7-.35s-.29,19.39.78,28.98c.23,2.12.54,3.77.92,4.61,2.13,4.67,21.33,11.83,21.33,11.83Z" style="fill:url(#d); stroke-width:0px;"/><path d="M72.09,130.12c-6.98,12.14-7.75,25.94-4.41,35.39,1.1,3.11,15.77-30.91,14.58-35.39-1.19-4.49-6.59-6.22-10.17,0Z" style="fill:url(#e); mix-blend-mode:multiply; opacity:.6; stroke-width:0px;"/><path d="M85.94,155.66c-.17.05-.36.16-.53.1-15.58-5.66-12.03,9.76-24.41,9.76-6.22,0-14.51-16.29-18.53-20.51-3.67-3.86-6.76-3.43-6.76-3.43.16-7.76.05-14.9.05-14.9l24.7.35,24.7-.35s-.29,19.39.78,28.98Z" style="fill:#ce5982; mix-blend-mode:multiply; opacity:.6; stroke-width:0px;"/><path d="M21.74,83.17s-6.73-2.36-8.64-1.37c-1.91.99-4.75,5.96-4.39,11.86.1,1.59,1.36,9.07,6.43,12.72,1.47,1.06,2.9,6.01,6.24,6.76,3.49.78,3.82-1.54,3.82-1.54l-3.46-28.43Z" style="fill:url(#f); stroke-width:0px;"/><path d="M23.39,96.72s-3.73-11.57-8.73-9.98c-3.92,1.25-3.34,9.74-3.34,9.74,0,0,1.09-7.54,5.63-5.11,2.4,1.28-1.45,3.44-1.45,6.55s2.63,6.76,3.58,4.81c.95-1.95,1.47-9.12,4.32-6.01Z" style="fill:url(#g); mix-blend-mode:multiply; opacity:.6; stroke-width:0px;"/><path d="M23.12,95.31s-2.82-4.46-6.18-.63c-3.36,3.83,1.31,10.8,2.13,8.05.82-2.76,1.4-6.81,2.86-6.41,1.46.4,1.65,1.93,1.65,1.93l-.45-2.93Z" style="fill:url(#h); mix-blend-mode:multiply; opacity:.6; stroke-width:0px;"/><path d="M19.05,111.78c.39.67,3.6,2.37,5.28.65,1.41-1.44-.58-12.66-.77-14.18,0,0,.61,11.84-.19,12.32-2.76,1.66-5.64-1-4.33,1.21Z" style="fill:url(#i); mix-blend-mode:multiply; opacity:.6; stroke-width:0px;"/><path d="M99.18,83.17s6.73-2.36,8.64-1.37c1.91.99,4.75,5.96,4.39,11.86-.1,1.59-1.36,9.07-6.43,12.72-1.47,1.06-2.9,6.01-6.24,6.76-3.49.78-3.82-1.54-3.82-1.54l3.46-28.43Z" style="fill:url(#j); stroke-width:0px;"/><path d="M97.53,96.72s3.73-11.57,8.73-9.98c3.92,1.25,3.34,9.74,3.34,9.74,0,0-1.09-7.54-5.63-5.11-2.4,1.28,1.45,3.44,1.45,6.55s-2.63,6.76-3.58,4.81-1.47-9.12-4.32-6.01Z" style="fill:url(#k); mix-blend-mode:multiply; opacity:.6; stroke-width:0px;"/><path d="M97.79,95.31s2.82-4.46,6.18-.63c3.36,3.83-1.31,10.8-2.13,8.05-.82-2.76-1.4-6.81-2.86-6.41-1.46.4-1.64,1.93-1.64,1.93l.45-2.93Z" style="fill:url(#l); mix-blend-mode:multiply; opacity:.6; stroke-width:0px;"/><path d="M101.86,111.78c-.39.67-3.6,2.37-5.28.65-1.41-1.44.58-12.66.77-14.18,0,0-.61,11.84.19,12.32-1.17-.7,4.24,1.36,4.33,1.21Z" style="fill:url(#m); mix-blend-mode:multiply; opacity:.6; stroke-width:0px;"/><path d="M99.42,91.71c-1.78,14.26-3.75,26.12-4.6,27.88-.69,1.43-3.2,4.1-6.68,7.09h0s0,0,0,0h0c-7.6,6.56-19.82,14.68-27.68,14.68-4.87,0-11.42-3.12-17.5-7.05,0,0,0,0,0,0-3.52-2.27-6.88-4.82-9.68-7.2t0,0c-3.73-3.17-6.45-6.03-7.17-7.52-.86-1.76-2.85-13.73-4.63-28.07-2.77-22.29-5.04-50.33-1.8-54.78,2.33-3.19,8.47-6.4,15.53-8.98,8.9-3.25,19.26-5.51,25.25-5.51,10.74,0,35.52,7.27,40.79,14.5,3.25,4.46.95,32.65-1.82,54.97Z" style="fill:url(#n); stroke-width:0px;"/><path d="M21.92,89.92c2.18,2.21,11.42,12.36,12.87,17.74s5.57,20.46,4.26,20.22c-1.31-.24-15-15.29-16.55-28.53-1.55-13.24-1.83-10.69-.58-9.42Z" style="fill:url(#o); mix-blend-mode:multiply; opacity:.6; stroke-width:0px;"/><path d="M98.96,89.92c-2.18,2.21-11.42,12.36-12.87,17.74-1.45,5.37-5.57,20.46-4.26,20.22,1.31-.24,15-15.29,16.55-28.53,1.55-13.24,1.83-10.69.58-9.42Z" style="fill:url(#p); mix-blend-mode:multiply; opacity:.6; stroke-width:0px;"/><path d="M88.14,126.68h0c-7.6,6.56-19.82,14.68-27.68,14.68-4.87,0-11.42-3.12-17.5-7.05,0,0,0,0,0,0-3.52-2.27-6.88-4.82-9.68-7.2.51.33,14.42,9.33,17.86,9.95,3.5.64,14.8.32,17.66,0,2.84-.32,19.08-10.22,19.33-10.38Z" style="fill:url(#q); mix-blend-mode:multiply; opacity:.6; stroke-width:0px;"/><path d="M120.9,175.49H0l25.84-9.98,2.86-9.45s4.14-.38,6.25-.18l-.57,3.42s6.58,6.88,26.07,6.88c17.34,0,26.07-6.88,26.07-6.88l-.51-3.02-.07-.4c2.11-.2,6.25.18,6.25.18l2.86,9.45,25.84,9.98Z" style="fill:#9074b3; stroke-width:0px;"/><path d="M28.7,156.07c-.49,1.63,12.67,12.97,31.39,12.97,20.16,0,32.11-12.97,32.11-12.97l2.86,9.45s-21,8.48-35.97,8.48c-16.07,0-33.26-8.48-33.26-8.48l2.86-9.45Z" style="fill:url(#r); mix-blend-mode:multiply; opacity:.6; stroke-width:0px;"/><path d="M55.04,168.81c23.59,2.22,36.64-12.35,36.64-12.35,0,0-11.57,12.48-14.55,13.24-9.39,2.39-22.09-.89-22.09-.89Z" style="fill:url(#s); mix-blend-mode:multiply; opacity:.6; stroke-width:0px;"/><path d="M82.33,162.29c-5.72,2.51-20.04,6.76-33.37,4.14-12.74-2.51-18.2-8.19-18.44-8.99-.24-.79,3.9-1.11,4.42-1.55l-.57,3.42s6.58,6.88,26.07,6.88c17.34,0,26.07-6.88,26.07-6.88l-.51-3.02c1.6.09,3.18.17,3.51.17.72,0-1.48,3.32-7.19,5.83Z" style="fill:url(#t); mix-blend-mode:multiply; opacity:.6; stroke-width:0px;"/><path d="M7.62,49.73c-2.11,6.54,2.21,18.98,8.74,29.87v-5.05s-6.81-7.32-7.33-14.47c-.51-7.15,0-10.88,0-10.88l-1.41.53Z" style="fill:#37032b; stroke-width:0px;"/><path d="M110.95,42.65c-2.4-3.92-24.03-15.95-26.97-16.23l-2.94-.28S69.83,4.03,57.81,3.19C45.8,2.36,11.65,37.16,7.62,49.72t0,0c.08.37,5.53,24.01,10.09,33.16h0s0,0,0,0c.08.17.17.33.25.49l.03.04c.81,1.58,3.13,6.31,3.65,9.41,1.66,9.93.46,15.2.46,15.2,0,0,2.48-6.21,1.78-10.48-.57-3.49-2.28-7.81-2.45-10.3.02-.37.04-.8.07-1.27.1-.79.13-1.44.12-1.99.47-7.72,1.6-22.36,3.54-26.43.03-.06.06-.12.09-.18,2.95-5.76,20.26-22.09,25.54-23.2,5.34-1.12,26.37-2.03,29.84-.64,3.47,1.4,17.43,12.35,18.5,24.94.68,8.03.88,17.86.93,23.93-.03,6.08-.72,10.56-1.42,14.01-.71,3.56-1.92,9.17-1.92,9.17,0,0,5.64-5.25,4.11-18.83,1.84-3.23,6.51-11.63,8.16-16.82.06-.2.13-.42.2-.64h0s0,0,0,0c1.37-4.75,2.95-14.62.15-20.23.11.14,3.74,4.56,3.74,9.79,0,0,.27-12.31-2.14-16.23Z" style="fill:url(#u); stroke-width:0px;"/><path d="M87.45,5.71s3.2,15.39-6.41,20.43c0,0,8.28-10.63,6.41-20.43Z" style="fill:#6a1424; stroke-width:0px;"/><path d="M55.41.12s15.51-1.94,22.16,10.07c3.07,5.54,3.47,15.95,3.47,15.95,0,0-3.79-14.88-11.22-20.43C62.41.17,55.41.12,55.41.12Z" style="fill:#6a1424; stroke-width:0px;"/><path d="M83.98,26.42c16.53,1.24,26.01,10.77,29.12,15.3,0,0-9.16-7.08-15.1-10.13-6.69-3.44-14.02-5.17-14.02-5.17Z" style="fill:#6a1424; stroke-width:0px;"/><path d="M113.09,58.88c0-5.23-3.62-9.65-3.74-9.79,2.8,5.61,1.22,15.48-.15,20.23h0c-.07.23-.13.44-.2.65-2.07,6.52-8.92,18.14-8.92,18.14,0,0,.12-17.02-.94-29.61-1.07-12.59-15.03-23.54-18.5-24.94-3.47-1.4-24.5-.48-29.84.64-5.28,1.11-22.59,17.44-25.54,23.2,7.39-20.08,30.15-40.73,30.15-40.73-8.4,1.35-20.2,15.6-20.6,16.08.35-.61,11.17-19.72,31.91-24.08,3.11-.66,13.59,16.79,14.32,17.47,0,0,16.73,16.78,19.47,17.47,2.73.68,10.44-.96,10.44-.96,2.4,3.92,2.14,16.23,2.14,16.23Z" style="fill:#7a369e; mix-blend-mode:multiply; opacity:.5; stroke-width:0px;"/><path d="M75.42,32.91l-4.01-.02s-.79-12.92-9.13-12.36c-3.58.24-18.98,17.54-19.47,37.04,0,0-2.87-16.3,3.17-26.08,5-8.11,11.65-13.23,15.09-12.91,10.91,1,14.35,14.33,14.35,14.33Z" style="fill:#6a1424; stroke-width:0px;"/><path d="M25.26,57.39c-.03.06-.06.12-.09.18-2.67,5.6-3.8,31.27-3.8,31.27l-3.39-5.46c-4.61-8.76-10.26-33.27-10.35-33.65,2.17,2.73,6.62,4.78,7.57,4.71.94-.08,13.83-17.39,14.08-17.73-.17.3-10.82,19.65-10.86,20.87-.04,1.23,6.84-.18,6.84-.18Z" style="fill:#7a369e; mix-blend-mode:multiply; opacity:.5; stroke-width:0px;"/><path d="M76.44,32.91s5.53-4.1,11.4-3.36c2.65.33,6.34,9.16,1.07,18.83,0,0,5.63-12.46-2.31-15.62-3.59-1.43-8.05.4-8.05.4l-2.1-.25Z" style="fill:#6a1424; stroke-width:0px;"/><path d="M32.19,19.1c-.48,6.24,7.18,4.33,6.64,7.04l-4.02,6.61s3.8-4.32,5.34-5.82c0,0,2.16-1.08,5.02.22,0,0-7.53,8.2-11.53,14.58,0,0-.03-6.17-1.16-7.29-1.13-1.12-6.83.93-8.86.08-2.04-.84,2.92-9.94,2.92-9.94l5.65-5.48Z" style="fill:#ffd1dd; mix-blend-mode:soft-light; opacity:.5; stroke-width:0px;"/><path d="M48.29,28.11c1.74-1.48,3.53,0,3.53,0,0,0-.89,1.4-5,7.28,0,0-3.62,2.76-3.13,1.32,0,0,2.26-6.6,4.6-8.6Z" style="fill:#ffd1dd; mix-blend-mode:soft-light; opacity:.5; stroke-width:0px;"/><path d="M88.42,29.78c-.72,1.87-1.82,2.99-1.82,2.99,0,0,1.89.35,2.81,2.1,0,0,.46-1.77.56-3.32,0,0-.38-.73-.78-1.09s-.78-.66-.78-.66Z" style="fill:#ffd1dd; mix-blend-mode:soft-light; opacity:.5; stroke-width:0px;"/></g></g></g></svg>