<?xml version="1.0" encoding="UTF-8"?><svg xmlns="http://www.w3.org/2000/svg" xmlns:xlink="http://www.w3.org/1999/xlink" viewBox="0 0 120.9 159.86"><defs><linearGradient id="d" x1="60.46" y1="158.36" x2="60.46" y2="111.05" gradientUnits="userSpaceOnUse"><stop offset="0" stop-color="#ffb09a"/><stop offset=".21" stop-color="#ff9b8d"/><stop offset=".47" stop-color="#ff8780"/><stop offset=".74" stop-color="#ff7b79"/><stop offset="1" stop-color="#f77"/></linearGradient><linearGradient id="e" x1="73.51" y1="149.16" x2="74.26" y2="117.56" gradientUnits="userSpaceOnUse"><stop offset="0" stop-color="#ffe7d8"/><stop offset=".29" stop-color="#ecbde1"/><stop offset=".59" stop-color="#dc97e9"/><stop offset=".84" stop-color="#d17fef"/><stop offset=".99" stop-color="#ce77f1"/></linearGradient><linearGradient id="f" x1="16.94" y1="97.67" x2="16.94" y2="65.93" xlink:href="#d"/><linearGradient id="g" x1="17.34" y1="87.64" x2="17.34" y2="70.96" gradientUnits="userSpaceOnUse"><stop offset="0" stop-color="#ffe7d8"/><stop offset=".29" stop-color="#f9bdc9"/><stop offset=".59" stop-color="#f597bb"/><stop offset=".84" stop-color="#f27fb3"/><stop offset=".99" stop-color="#f177b0"/></linearGradient><linearGradient id="h" x1="19.66" y1="87.72" x2="19.66" y2="77.5" gradientUnits="userSpaceOnUse"><stop offset="0" stop-color="#ffe7d8"/><stop offset=".99" stop-color="#ce77f1"/></linearGradient><linearGradient id="i" x1="30.45" y1="90.08" x2="15.9" y2="90.08" xlink:href="#g"/><linearGradient id="j" x1="-1573.63" y1="97.67" x2="-1573.63" y2="65.93" gradientTransform="translate(-1469.65) rotate(-180) scale(1 -1)" xlink:href="#d"/><linearGradient id="k" x1="-1573.23" x2="-1573.23" gradientTransform="translate(-1469.65) rotate(-180) scale(1 -1)" xlink:href="#g"/><linearGradient id="l" x1="-1570.91" x2="-1570.91" gradientTransform="translate(-1469.65) rotate(-180) scale(1 -1)" xlink:href="#h"/><linearGradient id="m" x1="-1560.41" y1="90.08" x2="-1574.19" y2="90.08" gradientTransform="translate(-1469.65) rotate(-180) scale(1 -1)" xlink:href="#g"/><linearGradient id="n" x1="60.46" y1="125.73" x2="60.46" y2="6.61" gradientUnits="userSpaceOnUse"><stop offset="0" stop-color="#fa9b76"/><stop offset=".11" stop-color="#f89b7c"/><stop offset=".43" stop-color="#f69e8a"/><stop offset=".65" stop-color="#fb9783"/><stop offset="1" stop-color="#ff937f"/></linearGradient><linearGradient id="o" x1="30.21" y1="112.24" x2="30.21" y2="73.21" xlink:href="#h"/><linearGradient id="p" x1="-1404.61" y1="112.24" x2="-1404.61" y2="73.21" gradientTransform="translate(-1313.95) rotate(-180) scale(1 -1)" xlink:href="#h"/><linearGradient id="q" x1="60.71" y1="123.9" x2="60.71" y2="114.68" gradientUnits="userSpaceOnUse"><stop offset="0" stop-color="#ce77f1"/><stop offset=".16" stop-color="#d17fef"/><stop offset=".41" stop-color="#dc97e9"/><stop offset=".71" stop-color="#ecbde1"/><stop offset="1" stop-color="#ffe7d8"/></linearGradient><linearGradient id="r" x1="60.45" y1="140.43" x2="60.45" y2="158.36" gradientUnits="userSpaceOnUse"><stop offset="0" stop-color="#705ab5"/><stop offset=".19" stop-color="#8761c4"/><stop offset=".54" stop-color="#ad6ddc"/><stop offset=".82" stop-color="#c574eb"/><stop offset=".99" stop-color="#ce77f1"/></linearGradient><linearGradient id="s" x1="61.46" y1="155.67" x2="82.62" y2="146.38" xlink:href="#r"/><linearGradient id="t" x1="60.09" y1="140.25" x2="60.09" y2="151.62" xlink:href="#r"/><linearGradient id="u" x1="19.69" y1="72.81" x2="21.91" y2="33.26" gradientUnits="userSpaceOnUse"><stop offset="0" stop-color="#ffe7d8"/><stop offset=".99" stop-color="#707380"/></linearGradient><linearGradient id="v" x1="-265.31" y1="72.81" x2="-263.09" y2="33.26" gradientTransform="translate(-164.25) rotate(-180) scale(1 -1)" xlink:href="#u"/><linearGradient id="w" x1="18.08" y1="23.84" x2="103.8" y2="23.84" gradientUnits="userSpaceOnUse"><stop offset="0" stop-color="#c4544b"/><stop offset="1" stop-color="#b33651"/></linearGradient><linearGradient id="x" x1="60.22" y1="46.48" x2="60.46" y2="6.94" xlink:href="#h"/><linearGradient id="y" x1="67.97" y1="3.08" x2="64.4" y2="17.61" gradientUnits="userSpaceOnUse"><stop offset="0" stop-color="#d03a22"/><stop offset="1" stop-color="#000"/></linearGradient><linearGradient id="z" x1="48.05" y1="-1.82" x2="44.47" y2="12.71" xlink:href="#y"/><linearGradient id="aa" x1="81.76" y1="6.47" x2="78.18" y2="21" xlink:href="#y"/></defs><g style="isolation:isolate;"><g id="b"><g id="c"><path d="M108.19,156.47s-32.32,1.89-47.74,1.89-47.74-1.89-47.74-1.89c0,0,19.19-7.16,21.33-11.83,1.07-2.35,1.5-10.84,1.66-18.7.16-7.76.05-14.9.05-14.9l24.7.35,24.7-.35s-.29,19.39.78,28.98c.23,2.12.54,3.77.92,4.61,2.13,4.67,21.33,11.83,21.33,11.83Z" style="fill:url(#d); stroke-width:0px;"/><path d="M72.09,114.49c-6.98,12.14-7.75,25.94-4.41,35.39,1.1,3.11,15.77-30.91,14.58-35.39s-6.59-6.22-10.17,0Z" style="fill:url(#e); mix-blend-mode:multiply; opacity:.6; stroke-width:0px;"/><path d="M85.94,140.03c-.17.05-.36.16-.53.1-15.58-5.66-12.03,9.76-24.41,9.76-6.22,0-14.51-16.29-18.53-20.51-3.67-3.86-6.76-3.43-6.76-3.43.16-7.76.05-14.9.05-14.9l24.7.35,24.7-.35s-.29,19.39.78,28.98Z" style="fill:#ce5982; mix-blend-mode:multiply; opacity:.6; stroke-width:0px;"/><path d="M21.74,67.54s-6.73-2.36-8.64-1.37-4.75,5.96-4.39,11.86c.1,1.59,1.36,9.07,6.43,12.72,1.47,1.06,2.9,6.01,6.24,6.76,3.49.78,3.82-1.54,3.82-1.54l-3.46-28.43Z" style="fill:url(#f); stroke-width:0px;"/><path d="M23.39,81.09s-3.73-11.57-8.73-9.98c-3.92,1.25-3.34,9.74-3.34,9.74,0,0,1.09-7.54,5.63-5.11,2.4,1.28-1.45,3.44-1.45,6.55s2.63,6.76,3.58,4.81c.95-1.95,1.47-9.12,4.32-6.01Z" style="fill:url(#g); mix-blend-mode:multiply; opacity:.6; stroke-width:0px;"/><path d="M23.12,79.68s-2.82-4.46-6.18-.63c-3.36,3.83,1.31,10.8,2.13,8.05.82-2.76,1.4-6.81,2.86-6.41,1.46.4,1.64,1.93,1.64,1.93l-.45-2.93Z" style="fill:url(#h); mix-blend-mode:multiply; opacity:.6; stroke-width:0px;"/><path d="M19.05,96.15c.39.67,3.6,2.37,5.28.65,1.41-1.44-.58-12.66-.77-14.18,0,0,.61,11.85-.19,12.32-2.76,1.66-5.64-1-4.33,1.21Z" style="fill:url(#i); mix-blend-mode:multiply; opacity:.6; stroke-width:0px;"/><path d="M99.18,67.54s6.73-2.36,8.64-1.37c1.91.99,4.75,5.96,4.39,11.86-.1,1.59-1.36,9.07-6.43,12.72-1.47,1.06-2.9,6.01-6.24,6.76-3.49.78-3.82-1.54-3.82-1.54l3.46-28.43Z" style="fill:url(#j); stroke-width:0px;"/><path d="M97.53,81.09s3.73-11.57,8.73-9.98c3.92,1.25,3.34,9.74,3.34,9.74,0,0-1.09-7.54-5.63-5.11-2.4,1.28,1.45,3.44,1.45,6.55s-2.63,6.76-3.58,4.81c-.95-1.95-1.47-9.12-4.32-6.01Z" style="fill:url(#k); mix-blend-mode:multiply; opacity:.6; stroke-width:0px;"/><path d="M97.79,79.68s2.82-4.46,6.18-.63c3.36,3.83-1.31,10.8-2.13,8.05-.82-2.76-1.4-6.81-2.86-6.41-1.46.4-1.65,1.93-1.65,1.93l.45-2.93Z" style="fill:url(#l); mix-blend-mode:multiply; opacity:.6; stroke-width:0px;"/><path d="M101.86,96.15c-.39.67-3.6,2.37-5.28.65-1.41-1.44.58-12.66.77-14.18,0,0-.61,11.85.19,12.32-1.17-.7,4.24,1.36,4.33,1.21Z" style="fill:url(#m); mix-blend-mode:multiply; opacity:.6; stroke-width:0px;"/><path d="M99.42,76.08c-1.78,14.26-3.75,26.12-4.6,27.88-.69,1.43-3.2,4.1-6.68,7.09h0s0,0,0,0h0c-7.6,6.56-19.82,14.68-27.68,14.68-4.87,0-11.42-3.12-17.5-7.05,0,0,0,0,0,0-3.52-2.27-6.88-4.82-9.68-7.2t0,0c-3.73-3.17-6.45-6.03-7.17-7.52-.86-1.76-2.85-13.73-4.63-28.07-2.77-22.29-5.04-50.33-1.8-54.78,2.33-3.19,8.47-6.4,15.53-8.98,8.9-3.25,19.26-5.51,25.25-5.51,10.74,0,35.52,7.27,40.79,14.5,3.25,4.46.95,32.65-1.82,54.97Z" style="fill:url(#n); stroke-width:0px;"/><path d="M21.92,74.29c2.18,2.21,11.42,12.36,12.87,17.74,1.45,5.37,5.57,20.46,4.26,20.22-1.31-.24-15-15.29-16.55-28.53s-1.83-10.69-.58-9.42Z" style="fill:url(#o); mix-blend-mode:multiply; opacity:.6; stroke-width:0px;"/><path d="M98.96,74.29c-2.18,2.21-11.42,12.36-12.87,17.74s-5.57,20.46-4.26,20.22c1.31-.24,15-15.29,16.55-28.53,1.55-13.24,1.83-10.69.58-9.42Z" style="fill:url(#p); mix-blend-mode:multiply; opacity:.6; stroke-width:0px;"/><path d="M88.14,111.05h0c-7.6,6.56-19.82,14.68-27.68,14.68-4.87,0-11.42-3.12-17.5-7.05,0,0,0,0,0,0-3.52-2.27-6.88-4.82-9.68-7.2.51.33,14.42,9.33,17.86,9.95,3.5.64,14.8.32,17.66,0,2.84-.32,19.08-10.22,19.33-10.38Z" style="fill:url(#q); mix-blend-mode:multiply; opacity:.6; stroke-width:0px;"/><path d="M120.9,159.86H0l25.84-9.98,2.86-9.45s4.14-.38,6.25-.18l-.57,3.42s6.58,6.88,26.07,6.88c17.34,0,26.07-6.88,26.07-6.88l-.51-3.02-.07-.4c2.11-.2,6.25.18,6.25.18l2.86,9.45,25.84,9.98Z" style="fill:#9074b3; stroke-width:0px;"/><path d="M28.7,140.43c-.49,1.63,12.67,12.97,31.39,12.97,20.16,0,32.11-12.97,32.11-12.97l2.86,9.45s-21,8.48-35.97,8.48c-16.07,0-33.26-8.48-33.26-8.48l2.86-9.45Z" style="fill:url(#r); mix-blend-mode:multiply; opacity:.6; stroke-width:0px;"/><path d="M55.04,153.18c23.59,2.22,36.64-12.35,36.64-12.35,0,0-11.57,12.48-14.55,13.24-9.39,2.39-22.09-.89-22.09-.89Z" style="fill:url(#s); mix-blend-mode:multiply; opacity:.6; stroke-width:0px;"/><path d="M82.33,146.65c-5.72,2.51-20.04,6.76-33.37,4.14-12.74-2.51-18.2-8.19-18.44-8.99-.24-.79,3.9-1.11,4.42-1.55l-.57,3.42s6.58,6.88,26.07,6.88c17.34,0,26.07-6.88,26.07-6.88l-.51-3.02c1.6.09,3.18.17,3.51.17.72,0-1.48,3.32-7.19,5.83Z" style="fill:url(#t); mix-blend-mode:multiply; opacity:.6; stroke-width:0px;"/><path d="M20.41,71.52s1.94-9.03,3.15-18.87,1.62-19.57,1.62-19.57c0,0-5.71,4.33-7.11,10.05l2.33,28.39Z" style="fill:url(#u); mix-blend-mode:multiply; opacity:.6; stroke-width:0px;"/><path d="M100.34,71.52s-1.94-9.03-3.15-18.87-1.62-19.57-1.62-19.57c0,0,5.71,4.33,7.11,10.05l-2.33,28.39Z" style="fill:url(#v); mix-blend-mode:multiply; opacity:.6; stroke-width:0px;"/><path d="M102.08,24.74c.67,8.12.3,22.92.3,22.92,0,0-7.71-22.32-19.27-24.42-11.56-2.1-14.2,2.62-23.09,2.62s-10.72-4.72-22.28-2.62c-11.56,2.1-19.44,22.64-19.44,22.64,0,0-.12-5.06-.06-10.8-.1.28-.14.44-.14.44,0,0-.08-4.23.43-9.76.15-2.44.38-4.5.71-5.73.15-.94.32-1.9.51-2.84.94-4.66,2.4-9.26,4.69-12.52l.6,4.09s-1.47,1.96-2.38,4.48c.21-.18,13.85-11.82,32.99-13.22,0,0,4.78.48,7.88,1.67,0,0,0,0,0,0-.18.07-3.19,1.33-7.07,4.58.02-.02.17-.11.45-.26,1.5-.81,6.71-3.27,16.19-4.33,0,0,2.72.28,7.23,2.84,0,0-3.73,2.9-7.84,7.45,0,0,3.64-3.27,13.12-5.7,0,0,8.99,1.37,18.21,14.15-.06-.02-1.12-.36-2.86-.86.05.06.1.12.15.18.46.58.77,2.46.98,4.99Z" style="fill:url(#w); stroke-width:0px;"/><path d="M102.08,24.74l-.98-4.99c-5.48,1.87-3.72,13.7-3.72,13.7-2.66-5.83-8.89-10.76-13.42-12.43h.01c4.94-2.89,8.48-2.75,8.48-2.75-4.29-.87-12.13,2.19-12.13,2.19-4.89.51-18.66,4.68-18.66,4.68,7.98-11.08,13.53-16.02,15.6-17.99-11.55,7.33-17.87,17.68-17.87,17.68-6.7-.24-14.26-5.09-14.26-5.09,3.6-6.36,8.12-10.83,11.77-13.74,3.64-2.9,6.43-4.23,6.62-4.32,0,0,0,0,0,0-17.49,4.13-25.01,19.85-25.01,19.85-5.97,0-13.67,3.14-13.67,3.14-3.7-1.71-4.74-5.8-5.09-7.49-.19.95-.36,1.9-.51,2.84-.33,1.23-.55,3.29-.71,5.73-.51,5.53-.43,9.76-.43,9.76,0,0,.05-.16.14-.44-.05,5.74.06,10.8.06,10.8,0,0,7.88-20.53,19.44-22.64,11.56-2.1,13.39,2.62,22.28,2.62s11.53-4.72,23.09-2.62c11.56,2.1,19.27,24.42,19.27,24.42,0,0,.38-14.81-.3-22.92Z" style="fill:url(#x); mix-blend-mode:multiply; stroke-width:0px;"/><path d="M73.08,1.69s-10.66,4.15-22.21,19.34c0,0,1.43,1.5,7.27,2.81,0,0,9.92-14.45,22.17-19.31,0,0-4.32-2.36-7.23-2.84Z" style="fill:url(#y); mix-blend-mode:screen; opacity:.8; stroke-width:0px;"/><path d="M55.63.02s-15.72,2.67-28.35,19.56c0,0,5.12,1.88,10.01.93,0,0,6.73-14.95,25.46-19.09,0,0-4.88-1.61-7.12-1.4Z" style="fill:url(#z); mix-blend-mode:screen; opacity:.8; stroke-width:0px;"/><path d="M86.37,6.45s-10.73,2.26-21.93,16.44c0,0,5.82-3.17,12.39-3.31,0,0,7.43-9.18,17.23-9.19,0,0-4.23-2.86-7.69-3.94Z" style="fill:url(#aa); mix-blend-mode:screen; opacity:.8; stroke-width:0px;"/></g></g></g></svg>