<?xml version="1.0" encoding="UTF-8"?><svg xmlns="http://www.w3.org/2000/svg" xmlns:xlink="http://www.w3.org/1999/xlink" viewBox="0 0 67.92 106.42"><defs><linearGradient id="d" x1="33.76" y1="106.42" x2="33.76" y2="86.83" gradientUnits="userSpaceOnUse"><stop offset="0" stop-color="#ffb39d"/><stop offset=".23" stop-color="#ff9b8d"/><stop offset=".48" stop-color="#ff8781"/><stop offset=".74" stop-color="#ff7b79"/><stop offset="1" stop-color="#f77"/></linearGradient><linearGradient id="e" x1="62.1" y1="72.47" x2="62.1" y2="52.91" xlink:href="#d"/><linearGradient id="f" x1="62.11" y1="69.12" x2="62.11" y2="56.37" gradientUnits="userSpaceOnUse"><stop offset="0" stop-color="#ffeadb"/><stop offset=".99" stop-color="#d177f4"/></linearGradient><linearGradient id="g" x1="59.81" y1="67.66" x2="59.81" y2="61.4" xlink:href="#f"/><linearGradient id="h" x1="-705.26" y1="72.47" x2="-705.26" y2="52.91" gradientTransform="translate(-700.43) rotate(-180) scale(1 -1)" xlink:href="#d"/><linearGradient id="i" x1="-705.25" x2="-705.25" y2="56.37" gradientTransform="translate(-700.43) rotate(-180) scale(1 -1)" xlink:href="#f"/><linearGradient id="j" x1="-707.56" y1="67.66" x2="-707.56" y2="61.4" gradientTransform="translate(-700.43) rotate(-180) scale(1 -1)" xlink:href="#f"/><linearGradient id="k" x1="33.51" y1="89.59" x2="33.51" y2="20.14" gradientUnits="userSpaceOnUse"><stop offset="0" stop-color="#ffaa96"/><stop offset=".43" stop-color="#f9ab99"/><stop offset=".55" stop-color="#fba28f"/><stop offset=".78" stop-color="#fe9983"/><stop offset="1" stop-color="#ff967f"/></linearGradient><linearGradient id="l" x1="12.28" y1="61.39" x2="12.28" y2="24.33" xlink:href="#f"/><linearGradient id="m" x1="-407.1" y1="61.39" x2="-407.1" y2="24.33" gradientTransform="translate(-352.36) rotate(-180) scale(1 -1)" xlink:href="#f"/><linearGradient id="n" x1="32.78" y1="19.08" x2="32.78" y2="0" gradientUnits="userSpaceOnUse"><stop offset="0" stop-color="#c7544b"/><stop offset="1" stop-color="#b63651"/></linearGradient><linearGradient id="o" x1="16.84" y1="12.32" x2="46.92" y2="12.32" xlink:href="#f"/><linearGradient id="p" x1="33.8" y1="8.25" x2="47.52" y2="8.25" xlink:href="#f"/><linearGradient id="q" x1="33.49" y1="58.76" x2="33.49" y2="13.67" xlink:href="#n"/><linearGradient id="r" x1="1.02" y1="42.16" x2="18.69" y2="42.16" xlink:href="#f"/><linearGradient id="s" x1="8.28" y1="21.76" x2="28.63" y2="21.76" xlink:href="#f"/><linearGradient id="t" x1="37.72" y1="37.98" x2="65.89" y2="37.98" xlink:href="#f"/><linearGradient id="u" x1="49.14" y1="28.21" x2="49.14" y2="14.4" gradientUnits="userSpaceOnUse"><stop offset="0" stop-color="#db6a4b"/><stop offset="1" stop-color="#b63651"/></linearGradient><linearGradient id="v" x1="12.32" y1="34.74" x2="12.32" y2="18.95" xlink:href="#u"/><linearGradient id="w" x1="51.54" y1="35.2" x2="67.92" y2="35.2" xlink:href="#u"/><linearGradient id="x" x1="54.5" y1="44.81" x2="66.72" y2="44.81" xlink:href="#u"/><linearGradient id="y" x1="6.31" y1="43.37" x2="6.31" y2="29.78" xlink:href="#u"/><linearGradient id="z" x1="58.71" y1="96.63" x2="58.71" y2="58.09" xlink:href="#u"/><linearGradient id="aa" x1="9.42" y1="95.02" x2="9.42" y2="57.32" xlink:href="#u"/></defs><g style="isolation:isolate;"><g id="b"><g id="c"><path d="M42.38,99.17c-.17-.97,0-12.34,0-12.34l-8.61,2.34-8.61-2.34s.17,11.37,0,12.34c-.17.97-11.84,6.07-11.84,6.07,0,0,9.26,1.18,20.45,1.18s20.45-1.18,20.45-1.18c0,0-11.67-5.11-11.84-6.07Z" style="fill:url(#d); stroke-width:0px;"/><path d="M25.21,92.18s8.5,5.54,17.09,3.87l.08-9.22h-17.23l.06,5.35Z" style="fill:#d177b8; mix-blend-mode:multiply; opacity:.6; stroke-width:0px;"/><path d="M66.59,61.91c-.13.64-.28,1.21-.44,1.73,0,0,0,.02,0,.03-1.14,3.67-2.86,4.53-3.56,6.19-.6,1.43-2.96,4.3-5.3,1.31,0,0,0,0,0,0,0,0,1.11-12.15,2-14.36,0,0,1.29-3.31,3.61-3.81,2.98-.65,4.86,3.28,3.7,8.93Z" style="fill:url(#e); stroke-width:0px;"/><path d="M58.08,63.62s4.67-6.78,6.9-7.22c2.23-.44,1.12,5.31.67,7.22-.45,1.92-1.12,3.05-1.12,3.05,0,0,.56-2.26.67-4.09.16-2.63-.68-4.89-1.62-4.67-.94.22-2.2,3.52-2.28,3.9s.62,1.05.58,3.09c-.04,2.04-1.02,4.26-1.55,4.23-.53-.03-.3-1.68-.3-3.59s-1.49-1.54-2.15-.3l.19-1.62Z" style="fill:url(#f); mix-blend-mode:multiply; opacity:.6; stroke-width:0px;"/><path d="M57.89,65.23s1.2-1.82,1.92-.99c.72.82.2,3.11.75,3.39.55.27,1.29-1.58,1.15-3.27s-.81-3.21-1.77-2.92l-1.86,2.18-.19,1.62Z" style="fill:url(#g); mix-blend-mode:multiply; opacity:.6; stroke-width:0px;"/><path d="M66.14,63.66c-1.14,3.67-2.86,4.53-3.56,6.19-.6,1.43-2.96,4.3-5.3,1.31.14.11,1.49,1.21,2.86.72,1.45-.53,1.91-1.88,2.52-2.93.61-1.05,2.18-1.77,3.47-5.29Z" style="fill:#dd6b7c; stroke-width:0px;"/><path d="M.35,61.91c.13.64.28,1.21.44,1.73,0,0,0,.02,0,.03,1.14,3.67,2.86,4.53,3.56,6.19.6,1.43,2.96,4.3,5.3,1.31,0,0,0,0,0,0,0,0-1.11-12.15-2-14.36,0,0-1.29-3.31-3.61-3.81-2.98-.65-4.86,3.28-3.7,8.93Z" style="fill:url(#h); stroke-width:0px;"/><path d="M8.85,63.62s-4.67-6.78-6.9-7.22-1.12,5.31-.67,7.22c.45,1.92,1.12,3.05,1.12,3.05,0,0-.56-2.26-.67-4.09-.16-2.63.68-4.89,1.62-4.67.94.22,2.2,3.52,2.28,3.9.08.38-.62,1.05-.58,3.09.04,2.04,1.02,4.26,1.55,4.23.53-.03.3-1.68.3-3.59s1.49-1.54,2.15-.3l-.19-1.62Z" style="fill:url(#i); mix-blend-mode:multiply; opacity:.6; stroke-width:0px;"/><path d="M9.05,65.23s-1.2-1.82-1.92-.99c-.72.82-.2,3.11-.75,3.39-.55.27-1.29-1.58-1.15-3.27.14-1.69.81-3.21,1.77-2.92l1.86,2.18.19,1.62Z" style="fill:url(#j); mix-blend-mode:multiply; opacity:.6; stroke-width:0px;"/><path d="M.8,63.66c1.14,3.67,2.86,4.53,3.56,6.19.6,1.43,2.96,4.3,5.3,1.31-.14.11-1.49,1.21-2.86.72-1.45-.53-1.91-1.88-2.52-2.93-.61-1.05-2.18-1.77-3.47-5.29Z" style="fill:#dd6b7c; stroke-width:0px;"/><path d="M60.47,55.59s0,.01,0,.02c-.59,2.97-1.31,6.1-1.81,9.69-1.32,9.46-4.14,13.81-10.57,17.99-6.74,4.38-8.76,6.09-14.58,6.31-5.82-.22-7.84-1.92-14.58-6.31-6.43-4.18-9.25-8.53-10.56-17.99-.29-2.11-.66-4.06-1.04-5.91-.28-1.37-.56-2.7-.81-3.99,0-.02,0-.04-.01-.06,0-.01,0-.02,0-.02-.93-4.75-1.49-9.13-.22-14.43,1.31-5.48,5.84-12.27,12.73-16.56h0s0,0,0,0c4.06-2.53,8.95-4.18,14.48-4.18,14.93,0,25.14,12.04,27.23,20.75,1.29,5.4.69,9.85-.27,14.7Z" style="fill:url(#k); stroke-width:0px;"/><path d="M60.46,55.61c-.59,2.97-1.31,6.1-1.81,9.69-1.32,9.46-4.14,13.81-10.57,17.99-6.74,4.38-8.76,6.09-14.58,6.31-5.82-.22-7.84-1.92-14.58-6.31-6.43-4.18-9.25-8.53-10.56-17.99-.51-3.68-1.26-6.87-1.85-9.9.19.74,1.73,6.82,3.24,13,1.61,6.59,3.98,10.64,11.12,15.68,6.64,4.69,10.51,5.08,12.47,5.1h.34c1.97-.02,5.83-.41,12.47-5.1,7.14-5.04,9.51-9.09,11.12-15.68,1.41-5.77,2.84-11.45,3.18-12.78Z" style="fill:#d177b8; mix-blend-mode:multiply; opacity:.6; stroke-width:0px;"/><path d="M19.02,24.33c-.3.22-7.96,5.86-8.51,11.08-.56,5.32-.22,11.32-1.93,16.35-1.65,4.84-.63,9.32-.55,9.64-.04-.11-.31-.84-.7-2-.28-1.37-.56-2.7-.81-3.99,0-.02,0-.04-.01-.06,0-.01,0-.02,0-.02-.93-4.75-1.49-9.13-.22-14.43,1.31-5.48,5.84-12.27,12.73-16.56h0Z" style="fill:url(#l); mix-blend-mode:multiply; opacity:.6; stroke-width:0px;"/><path d="M48,24.33c.3.22,7.96,5.86,8.51,11.08.56,5.32.22,11.32,1.93,16.35,1.65,4.84.63,9.32.55,9.64.04-.11.31-.84.7-2,.28-1.37.56-2.7.81-3.99,0-.02,0-.04.01-.06,0-.01,0-.02,0-.02.93-4.75,1.49-9.13.22-14.43-1.31-5.48-5.84-12.27-12.73-16.56h0Z" style="fill:url(#m); mix-blend-mode:multiply; opacity:.6; stroke-width:0px;"/><path d="M46.6,4.36c-3.12-3.03-13.55-8.08-23.15,0-2.62,2.21-4.14,4.31-4.98,6.19l-.02.02-.13.32c-.4.98-.61,1.89-.69,2.73-.04.35-.05.68-.05.99.02,2.75,1.32,4.47,1.32,4.47l26.06-1.34s1.2-1.08,1.96-3.7c.17-.59.32-1.25.43-2.01.04-.32.02-.65-.07-.98.08-.2.16-.42.24-.65.58-1.74.92-4.24-.92-6.03ZM37.03,3.34s-.08-.04-.12-.05c-.04-.03-.09-.04-.12-.06,0,0,4.8-.5,8.09,2.11,1.79,1.42,2.13,3.4,2.08,4.91-1.78-3.19-8.56-6.31-9.92-6.9Z" style="fill:url(#n); stroke-width:0px;"/><path d="M46.92,14.03c-.76,2.62-1.96,3.7-1.96,3.7l-26.06,1.34s-1.31-1.71-1.32-4.47c1.47-1.89,5.3-5.63,12.6-5.7,9.16-.08,14.77,3.82,15.46,4.32-.7-.63-6.55-5.66-14.11-5.87-6.41-.19-11.91,4.38-13.9,6.26-.52.48-.79.78-.79.78l1.48-3.51.13-.32.02-.02c.31-.32,5.91-5.83,14.73-4.89,9.1.97,13.72,8.36,13.72,8.36Z" style="fill:url(#o); mix-blend-mode:multiply; stroke-width:0px;"/><path d="M47.28,11.04c.09.33.12.66.07.98-.11.76-.26,1.42-.43,2.01-.6-4.6-8.13-9.76-9.9-10.69,1.37.6,8.15,3.71,9.92,6.9.05-1.51-.29-3.49-2.08-4.91-3.29-2.6-8.09-2.11-8.09-2.11-1.14-.46-2.99-.37-2.99-.37,0,0,6.23-1.23,10.06.68,3.83,1.89,3.1,6.73,3.1,6.73l.56.13c-.08.23-.16.44-.24.65Z" style="fill:url(#p); mix-blend-mode:multiply; stroke-width:0px;"/><path d="M65.88,41.79s0,.02,0,.03c0,0,0,.02,0,.02,0,.04,0,.09-.02.15-.04,1.21-.19,2.55-.44,4-.4,2.27-1,4.22-1.69,5.87h0c-1.84,4.46-4.21,6.73-4.42,6.91.05-.18,1.76-5.76-1.38-13.68-3.19-8.06-5.98-13.39-13.98-17.17-1.4-.67-3.95-.59-6.24-.38h0c-1.79.15-3.42.38-4.22.38-.9,0-2.83-.28-4.86-.44-2.11-.15-4.33-.17-5.61.44-.74.35-1.42.7-2.07,1.08-.82.47-1.57.96-2.27,1.47-4.83,3.55-7.11,8.23-9.64,14.62-3.14,7.93-1.43,13.51-1.38,13.68-.24-.22-3.58-3.41-5.41-9.76h0s0-.02,0-.02h0v-.03c-.28-.92-.51-1.92-.69-2.99-.35-1.97-.47-3.73-.47-5.26v-.04c0-2.74.45-4.76.87-6.06,0-.02,0-.04,0-.04.12-.36.23-.67.33-.91.17-.42.3-.67.35-.75l.02-.04s.24-4.24,2.89-7.04l.3-.3c.38-.36.81-.69,1.28-.99.35-.21.74-.44,1.16-.66l.48-.26c1.25-.67,2.74-1.37,4.26-2.05l1.11-.5h0c3.73-1.65,7.41-3.11,8.3-3.47.21-.09.42-.21.63-.39.91-.7,1.84-2.02,3.04-2.84,0,0,.02,0,.02,0,.51-.35,1.07-.6,1.69-.69,2.43-.34,5.68,1.77,5.68,1.77,0,0,2.51.08,4.94.42,1.87.26,3.57.78,4.95,1.3l.06.03c.4.14.76.28,1.1.43.12.04.26.08.42.1,1.96.25,7.11-1.19,9.78,2.4l.56.75c1,1.34,1.98,2.65,2.9,3.87l1.81,2.42c1.31,1.73,2.4,3.18,3.16,4.19l1.15,1.53s.73,1.24,1.18,3.67c0,.03.02.05.02.07l.12.77c.19,1.22.28,2.67.22,4.37Z" style="fill:url(#q); stroke-width:0px;"/><path d="M18.69,30.47c-4.83,3.55-7.11,8.23-9.64,14.62-3.14,7.93-1.43,13.51-1.38,13.68-.24-.22-3.58-3.41-5.41-9.76v-.02s0-.03,0-.03c0,0,0,0,0,.03.1.26,1,2.6,2.57,2.01,1.67-.63,5.46-9.74,5.46-9.74,0,0-3.62,3.45-6.23,2.91-1.65-.34-2.54-2.17-2.97-3.46-.03-.08-.05-.16-.07-.23.03.06.05.13.07.2.48,1.19,1.55,2.75,3.93,2.68,3.68-.12,6.55-4.79,6.7-5.05-.23.15-4.71,3.13-7.74,1.85-2.96-1.25-2.11-5.14-2.02-5.54-.05.46-.52,4.77,2.77,5.04,3.34.28,8.57-4.13,8.98-4.5-.36.19-4.8,2.39-7.98,1.88-3.32-.53-3.44-3.37-3.44-3.37l.35-.75.02-.04s-.37,3.17,3.28,3.32c3.65.15,7.46-1.48,7.46-1.48-3.06,0-6.48-1.08-7.38-3.58-.9-2.5-.47-5.3-.47-5.3l.3-.3s1.35,6.1,5.54,6.83c2.46.44,5.35-.83,7.3-1.93Z" style="fill:url(#r); mix-blend-mode:multiply; stroke-width:0px;"/><path d="M28.63,27.48c-2.11-.15-4.33-.17-5.61.44-.74.35-1.42.7-2.07,1.08-.38.04-6.72.55-9.6-.85-2.97-1.46-3.07-4.22-3.07-4.22l.48-.26s-.36,3.67,3.91,4.3c4.26.63,9.12-.68,9.12-.68,0,0-4.49-.05-6.79-1.2-2.3-1.16-1.98-4.48-1.98-4.48l1.11-.5c-.12.2-1.88,3.01,1.21,4.69,3.2,1.74,11.44.56,11.44.56-2.64-4.54-3.71-9.11-3.71-9.11,1.67-2.11,2.9-2.77,3.04-2.84,0,0,.02,0,.02,0-2.45,4.66,2.3,12.75,2.51,13.08Z" style="fill:url(#s); mix-blend-mode:multiply; stroke-width:0px;"/><path d="M65.89,41.74s0,.04-.02.09c0,.04,0,.09-.02.15-.19,1.04-1.08,4.97-3.76,2.83-2.97-2.37-5.76-5.94-5.93-6.16,1.73,3.72,2.96,9,2.96,9,1.34,3.61,3.6,4.15,4.59,4.2-1.84,4.46-4.21,6.73-4.42,6.91.05-.18,1.76-5.76-1.38-13.68-3.19-8.06-5.98-13.39-13.98-17.17-1.4-.67-3.95-.59-6.24-.38,5.81-4.56,5.66-10.34,5.66-10.34l.06.03,1.52.52h0c.68,8.83-4.59,8.85-4.59,8.85,0,0,2.4.47,6.31-1.17,3.92-1.64,8.07-5.27,8.07-5.27l.56.75c-.6,3.98-8.37,7.32-8.37,7.32l3.83,1.24c8.17-1.16,7.44-4.69,7.44-4.69l1.81,2.42c-1.26,2.4-8.48,3.74-8.48,3.74,9.07,3.54,11.64.45,11.64.45l1.15,1.53c-3.48,1.31-11.93.04-11.93.04,7.84,4.3,12.86,3.66,13.11,3.63h0v.07s.13.77.13.77c-4.12,2-12.54-3.59-12.54-3.59,0,0,5.35,8.89,8.72,9.54,2.99.6,3.87-1.16,4.03-1.55,0,0,0-.02,0-.03,0-.03.02-.04.02-.04Z" style="fill:url(#t); mix-blend-mode:multiply; stroke-width:0px;"/><path d="M44.56,28.21s10.96-5.39,10.74-10.49c-.22-5.11-9.92-3.54-11.92-.53l1.17.45s.73-3.57,6.23-2.22c5.5,1.35-7.8,12.18-7.8,12.18l1.58.61Z" style="fill:url(#u); stroke-width:0px;"/><path d="M14.44,33.62s-4.38-1.22-6.4-7.28,9.91-6.87,9.91-6.87l.95-.39s-9.57-1.2-12.15,3.75c-2.58,4.95-.33,12.08,7.6,11.91l2.21-2.49-2.13,1.37Z" style="fill:url(#v); stroke-width:0px;"/><path d="M51.54,33.42s8.61,5,13.49,4.16c2.87-.49,2.29-3.21-.7-4.69-1.36-.67-1.15-1.52-1.15-1.52,0,0,3.84,2.09,4.69,5.61.84,3.52-8.33,2.61-16.32-3.56Z" style="fill:url(#w); stroke-width:0px;"/><path d="M54.5,37.59s.98,1.48,2.49,5.27c1.51,3.8,3.8,8.81,5.93,9.15s5.31-3.26,2.97-9.68c0,0-.24,1.48-.26,2.24-.04,1.61,1.58,5.08-.53,5.39-2.33.34-3.04-8.22-10.61-12.37Z" style="fill:url(#x); stroke-width:0px;"/><path d="M11.97,38.53s-6.11,2.89-8.93.74c-2.82-2.15.27-9.48.27-9.48,0,0-3.47,5.31-2.46,10.32,1.01,5.01,6.87,4.1,11.12-1.57Z" style="fill:url(#y); stroke-width:0px;"/><path d="M59.31,58.76s-.92,5.36,1.15,18.38c2.07,13.02-5.96,19.48-5.96,19.48,0,0,7.75-4.61,8.37-13.81.62-9.2-5.05-11.45-2.91-24.73l-.65.68Z" style="fill:url(#z); stroke-width:0px;"/><path d="M6.52,57.32s2.33,6.3.85,18.85c-1.63,13.82,4.95,18.85,4.95,18.85,0,0-5.45-11.2-4.61-19.89s.47-12.47-.03-16.37l-1.15-1.45Z" style="fill:url(#aa); stroke-width:0px;"/><path d="M33.21,5.67s1.23-.56,3.58-.77c2.35-.21,5.74,2.86,5.74,2.86l.27,1.89s-4.61-4.12-9.59-3.98Z" style="fill:#ffd9bb; mix-blend-mode:soft-light; stroke-width:0px;"/><path d="M36.79,2.5s2.43-1.39,4.7-.92c2.27.48,2.65,2.09,2.65,2.09,0,0-2.6-1.66-7.36-1.17Z" style="fill:#ffd9bb; mix-blend-mode:soft-light; stroke-width:0px;"/><path d="M49.01,21.93s2.35.55,3.71-.18,3-4.09,2.02-5.36c0,0-.99.25-2.19,0,0,0-.9,3.56-3.54,5.53Z" style="fill:#ffd9bb; mix-blend-mode:soft-light; stroke-width:0px;"/><path d="M13.81,21.76s.44,1.6,3.55,3.2,5.39,1.76,5.39,1.76c0,0-9.3.23-8.94-4.96Z" style="fill:#ffd9bb; mix-blend-mode:soft-light; stroke-width:0px;"/></g></g></g></svg>