<?xml version="1.0" encoding="UTF-8"?><svg xmlns="http://www.w3.org/2000/svg" xmlns:xlink="http://www.w3.org/1999/xlink" viewBox="0 0 83.05 90.37"><defs><linearGradient id="d" x1="41.55" y1="89.46" x2="41.55" y2="69.86" gradientUnits="userSpaceOnUse"><stop offset="0" stop-color="#ffb39d"/><stop offset=".23" stop-color="#ff9b8d"/><stop offset=".48" stop-color="#ff8781"/><stop offset=".74" stop-color="#ff7b79"/><stop offset="1" stop-color="#f77"/></linearGradient><linearGradient id="e" x1="69.9" y1="55.5" x2="69.9" y2="35.94" xlink:href="#d"/><linearGradient id="f" x1="69.9" y1="52.15" x2="69.9" y2="39.4" gradientUnits="userSpaceOnUse"><stop offset="0" stop-color="#ffeadb"/><stop offset=".99" stop-color="#d177f4"/></linearGradient><linearGradient id="g" x1="67.6" y1="50.69" x2="67.6" y2="44.44" xlink:href="#f"/><linearGradient id="h" x1="-697.53" y1="55.5" x2="-697.53" y2="35.94" gradientTransform="translate(-684.91) rotate(-180) scale(1 -1)" xlink:href="#d"/><linearGradient id="i" x1="-697.53" y1="52.15" x2="-697.53" y2="39.4" gradientTransform="translate(-684.91) rotate(-180) scale(1 -1)" xlink:href="#f"/><linearGradient id="j" x1="-699.83" y1="50.69" x2="-699.83" y2="44.44" gradientTransform="translate(-684.91) rotate(-180) scale(1 -1)" xlink:href="#f"/><linearGradient id="k" x1="41.3" y1="72.63" x2="41.3" y2="3.17" gradientUnits="userSpaceOnUse"><stop offset="0" stop-color="#ffaa96"/><stop offset=".43" stop-color="#f9ab99"/><stop offset=".55" stop-color="#fba28f"/><stop offset=".78" stop-color="#fe9983"/><stop offset="1" stop-color="#ff967f"/></linearGradient><linearGradient id="l" x1="20.08" y1="44.42" x2="20.08" y2="7.36" xlink:href="#f"/><linearGradient id="m" x1="-399.37" y1="44.42" x2="-399.37" y2="7.36" gradientTransform="translate(-336.84) rotate(-180) scale(1 -1)" xlink:href="#f"/><linearGradient id="n" x1="21.9" y1="90.37" x2="21.9" y2="0" gradientUnits="userSpaceOnUse"><stop offset="0" stop-color="#471f4b"/><stop offset="1" stop-color="#310a39"/></linearGradient><linearGradient id="o" x1="61.16" y1="90.37" x2="61.16" xlink:href="#n"/></defs><g style="isolation:isolate;"><g id="b"><g id="c"><path d="M21.1,88.27l43.72-.44S79.48,3.92,41.55,3.92s-23.63,78.06-20.45,84.35Z" style="fill:#310a39; stroke-width:0px;"/><path d="M50.17,82.2c-.17-.97,0-12.34,0-12.34l-8.61,2.34-8.61-2.34s.17,11.37,0,12.34c-.17.97-11.84,6.07-11.84,6.07,0,0,9.26,1.18,20.45,1.18s20.45-1.18,20.45-1.18c0,0-11.67-5.11-11.84-6.07Z" style="fill:url(#d); stroke-width:0px;"/><path d="M33,75.21s8.5,5.54,17.09,3.87l.08-9.22h-17.23l.06,5.35Z" style="fill:#d177b8; mix-blend-mode:multiply; opacity:.6; stroke-width:0px;"/><path d="M74.38,44.94c-.13.64-.28,1.21-.44,1.73,0,0,0,.02,0,.03-1.14,3.67-2.86,4.53-3.56,6.19-.6,1.43-2.96,4.3-5.3,1.32,0,0,0,0,0,0,0,0,1.11-12.15,2-14.36,0,0,1.29-3.31,3.61-3.81,2.98-.65,4.86,3.28,3.7,8.93Z" style="fill:url(#e); stroke-width:0px;"/><path d="M65.87,46.65s4.67-6.78,6.9-7.22c2.23-.44,1.12,5.31.67,7.22-.45,1.92-1.12,3.05-1.12,3.05,0,0,.56-2.26.67-4.09.16-2.63-.68-4.89-1.62-4.67-.94.22-2.2,3.52-2.28,3.9-.08.38.62,1.05.58,3.09s-1.02,4.26-1.55,4.23c-.53-.03-.3-1.68-.3-3.59s-1.49-1.54-2.15-.3l.19-1.62Z" style="fill:url(#f); mix-blend-mode:multiply; opacity:.6; stroke-width:0px;"/><path d="M65.68,48.26s1.2-1.82,1.92-.99c.72.82.2,3.11.75,3.39.55.27,1.29-1.58,1.15-3.27s-.81-3.21-1.77-2.92l-1.86,2.18-.19,1.62Z" style="fill:url(#g); mix-blend-mode:multiply; opacity:.6; stroke-width:0px;"/><path d="M73.93,46.69c-1.14,3.67-2.86,4.53-3.56,6.19-.6,1.43-2.96,4.3-5.3,1.32.14.11,1.49,1.21,2.86.71,1.45-.53,1.91-1.88,2.52-2.93.61-1.05,2.18-1.77,3.47-5.29Z" style="fill:#dd6b7c; stroke-width:0px;"/><path d="M8.14,44.94c.13.64.28,1.21.44,1.73,0,0,0,.02,0,.03,1.14,3.67,2.86,4.53,3.56,6.19.6,1.43,2.96,4.3,5.3,1.32,0,0,0,0,0,0,0,0-1.11-12.15-2-14.36,0,0-1.29-3.31-3.61-3.81-2.98-.65-4.86,3.28-3.7,8.93Z" style="fill:url(#h); stroke-width:0px;"/><path d="M16.65,46.65s-4.67-6.78-6.9-7.22c-2.23-.44-1.12,5.31-.67,7.22s1.12,3.05,1.12,3.05c0,0-.56-2.26-.67-4.09-.16-2.63.68-4.89,1.62-4.67.94.22,2.2,3.52,2.28,3.9.08.38-.62,1.05-.58,3.09.04,2.04,1.02,4.26,1.55,4.23.53-.03.3-1.68.3-3.59s1.49-1.54,2.15-.3l-.19-1.62Z" style="fill:url(#i); mix-blend-mode:multiply; opacity:.6; stroke-width:0px;"/><path d="M16.84,48.26s-1.2-1.82-1.92-.99c-.72.82-.2,3.11-.75,3.39-.55.27-1.29-1.58-1.15-3.27.14-1.69.81-3.21,1.77-2.92l1.86,2.18.19,1.62Z" style="fill:url(#j); mix-blend-mode:multiply; opacity:.6; stroke-width:0px;"/><path d="M8.59,46.69c1.14,3.67,2.86,4.53,3.56,6.19.6,1.43,2.96,4.3,5.3,1.32-.14.11-1.49,1.21-2.86.71-1.45-.53-1.91-1.88-2.52-2.93-.61-1.05-2.18-1.77-3.47-5.29Z" style="fill:#dd6b7c; stroke-width:0px;"/><path d="M68.26,38.62s0,.01,0,.02c-.59,2.97-1.31,6.1-1.81,9.69-1.32,9.46-4.14,13.81-10.57,17.99-6.74,4.38-8.76,6.09-14.58,6.31-5.82-.22-7.84-1.92-14.58-6.31-6.43-4.18-9.25-8.53-10.56-17.99-.29-2.11-.66-4.06-1.04-5.91-.28-1.37-.56-2.7-.81-3.99,0-.02,0-.04-.01-.06,0-.01,0-.02,0-.02-.93-4.75-1.49-9.13-.22-14.43,1.31-5.48,5.84-12.27,12.73-16.56h0s0,0,0,0c4.06-2.53,8.95-4.18,14.48-4.18,14.93,0,25.14,12.04,27.23,20.75,1.29,5.4.69,9.85-.27,14.7Z" style="fill:url(#k); stroke-width:0px;"/><path d="M68.26,38.64c-.59,2.97-1.31,6.1-1.81,9.69-1.32,9.46-4.14,13.81-10.57,17.99-6.74,4.38-8.76,6.09-14.58,6.31-5.82-.22-7.84-1.92-14.58-6.31-6.43-4.18-9.25-8.53-10.56-17.99-.51-3.68-1.26-6.87-1.85-9.9.19.74,1.73,6.82,3.24,13,1.61,6.59,3.98,10.64,11.12,15.68,6.64,4.69,10.51,5.08,12.47,5.1h.34c1.97-.02,5.83-.41,12.47-5.1,7.14-5.04,9.51-9.09,11.12-15.68,1.41-5.77,2.84-11.45,3.18-12.78Z" style="fill:#d177b8; mix-blend-mode:multiply; opacity:.6; stroke-width:0px;"/><path d="M26.81,7.36c-.3.22-7.96,5.86-8.51,11.08-.56,5.32-.22,11.32-1.93,16.35-1.65,4.84-.63,9.32-.55,9.64-.04-.11-.31-.84-.7-2-.28-1.37-.56-2.7-.81-3.99,0-.02,0-.04-.01-.06,0-.01,0-.02,0-.02-.93-4.75-1.49-9.13-.22-14.43,1.31-5.48,5.84-12.27,12.73-16.56h0Z" style="fill:url(#l); mix-blend-mode:multiply; opacity:.6; stroke-width:0px;"/><path d="M55.8,7.36c.3.22,7.96,5.86,8.51,11.08.56,5.32.22,11.32,1.93,16.35,1.65,4.84.63,9.32.55,9.64.04-.11.31-.84.7-2,.28-1.37.56-2.7.81-3.99,0-.02,0-.04.01-.06,0-.01,0-.02,0-.02.93-4.75,1.49-9.13.22-14.43-1.31-5.48-5.84-12.27-12.73-16.56h0Z" style="fill:url(#m); mix-blend-mode:multiply; opacity:.6; stroke-width:0px;"/><path d="M43.79,3.29l-1.78,1.39s-.34.09-.86.5c-.06.04-.12.09-.2.14-1.14.94-2.99,3.2-4.39,8.45-2.19,8.19-.56,17.73-.56,17.73,0,0-2.13-3.36-2.64-5.61,0,0,.16,2.67.83,5.56,0,0,0-.03-.02-.04-.41-.81-3.62-7.59-3.09-15.47h0c.18-2.66.78-5.42,2.06-8.13,0-.02.02-.04.03-.06.04-.07.07-.14.12-.21.03-.08.05-.13.06-.16,0,0-.04.03-.06.06h0c-.82.92-6.53,8.09-1.83,22.67t0,.02h-1.84l-.39.46-2.36,2.07s-6.24-2.52-4.45-16.77c0-.03,0-.05,0-.08-.19.56-2.51,7.95.57,18.09l-1.01-1.29-.22,2.75-1.12-1.34s-.35,14.58.6,27.36c1.36,18.01,5.46,27.45,5.46,27.45,0,0-4.26-.38-6.01-3.63,0,0,.95,3.52,2.58,4.26,0,0-3.26,2.49-9.95-.74,0,0-.04-.02-.05-.04-1.4-.68-2.97-1.61-4.67-2.87l-.02.03c-.21.25-2.13,2.35-6.88,2.11-.53-.03-1.09-.09-1.7-.18.19,0,1.56-.06,2.08-1.87.54-1.94-1.73-7.45-.04-18.3,1.68-10.86,5.47-26.68,7.32-35.52,1.85-8.84,4.69-20.54,10.72-25.59,6.03-5.05,13.11-3.71,13.95-4.12.84-.43,5.27-2.52,6.42-2.36.28.04.64.28,1.01.61l.06.04h0c1.08.95,2.27,2.62,2.27,2.62Z" style="fill:url(#n); stroke-width:0px;"/><path d="M80.98,85.91c-.24-.85.06-2.39.34-4.78h0c.35-3.05.65-7.45-.29-13.52-1.69-10.86-5.47-26.68-7.33-35.52-1.85-8.84-4.68-20.54-10.72-25.59-6.03-5.05-13.11-3.71-13.94-4.12-.84-.43-5.27-2.52-6.42-2.36-.31.04-.68.29-1.08.66h0c-1.08.96-2.26,2.62-2.26,2.62l1.78,1.39.12.5,5.88,26.33s5.23-4.27,4.55-1.36h1.85l.38.46,3.29.58s6.23-3.15,3.53-15.36c.19.56,2.51,7.95-.57,18.09l1-1.29.23,2.75,1.12-1.34s.35,14.58-.61,27.36c-1.35,18.01-5.45,27.45-5.45,27.45,0,0,4.26-.38,6.01-3.63,0,0-.96,3.52-2.59,4.26,0,0,4.79,3.65,14.69-3.64,0,0,2.26,2.91,8.58,1.96-.19,0-1.56-.06-2.07-1.87ZM53.11,24.53c.63-4.25.44-10.48-3.43-17.17.29.21,5.98,4.61,3.43,17.17Z" style="fill:url(#o); stroke-width:0px;"/><path d="M41.53.67l-.49,4.01-.08.64c-1.14.94-2.99,3.2-4.39,8.45-2.19,8.19-.56,17.73-.56,17.73,0,0-2.13-3.36-2.64-5.61,0,0,.16,2.67.83,5.56,0,0,0-.03-.02-.04-4.08-10.15-2.68-18.21-1.59-21.89.05-.2.12-.37.17-.55.03-.09.05-.18.09-.26.05-.17.11-.33.16-.48.12-.31.22-.55.28-.69.03-.08.05-.13.06-.16.02-.02.02-.03.02-.03-2.91,10.04,1.49,17.99,1.49,17.99C32.08,14.15,40.44,0,40.44,0l1.01.61.06.04h0Z" style="fill:#d177b8; mix-blend-mode:multiply; opacity:.6; stroke-width:0px;"/><path d="M31.09,15.94c.18-2.65.78-5.41,2.06-8.12-.09.26-.2.56-.3.9-.04.08-.06.17-.09.26-.53,1.64-1.21,4.08-1.67,6.97Z" style="fill:#d177b8; mix-blend-mode:multiply; opacity:.9; stroke-width:0px;"/><path d="M34.7,3.17l-1.1,3.49s-.12.28-.3.78h0c-.82.92-6.53,8.09-1.83,22.67-.2-.28-3.41-4.91-3.41-12.01s6.65-14.94,6.65-14.94Z" style="fill:#d177b8; mix-blend-mode:multiply; opacity:.9; stroke-width:0px;"/><path d="M22.99,33.9c-5.64-11.3-.56-18.13-.56-18.13,0,0,0,.03,0,.04-.19.56-2.51,7.95.57,18.09Z" style="fill:#d177b8; mix-blend-mode:multiply; opacity:.6; stroke-width:0px;"/><path d="M17.33,21.42s-.05.17-.11.35c.05-.19.09-.3.11-.35Z" style="fill:#d177b8; mix-blend-mode:multiply; opacity:.9; stroke-width:0px;"/><path d="M23.27,89.45s-3.26,2.49-9.95-.74c0,0-.04-.02-.05-.04-.72-.46-6.49-4.58-7.23-17.34-.76-12.81,9.92-45.69,11.19-49.57-1.31,4.26-13.25,43.68-9.44,55.63,2.53,7.93,12,6.79,12,6.79,0,0-2.95-3.37-3.97-13.3s1.01-31.49,1.01-31.49c0,0-.67,16.09,0,30.46.67,14.38,8.68,17.7,8.68,17.7,0,0-4.29-9.34-5.45-22.83-1.15-13.49,0-36.08,0-36.08l.57,5.38s-.35,14.58.6,27.36c1.36,18.01,5.46,27.45,5.46,27.45,0,0-4.26-.38-6.01-3.63,0,0,.95,3.52,2.58,4.26Z" style="fill:#d177b8; mix-blend-mode:multiply; opacity:.9; stroke-width:0px;"/><path d="M8.59,85.81l-.02.03c-.21.25-2.13,2.35-6.88,2.11,0,0,4.06-.45,4.12-2.14.06-1.68-2.94-11.98-2.44-18.21.49-6.03,6.59-32,6.97-33.62-.22,1.09-2.69,13.06-4.7,28.15-2.11,15.82,2.94,23.68,2.94,23.68Z" style="fill:#d177b8; mix-blend-mode:multiply; opacity:.9; stroke-width:0px;"/><path d="M57.11,31.18s7.18-12.56,0-22.96c0,0,9.98,16.26,0,22.96Z" style="fill:#d177b8; mix-blend-mode:multiply; opacity:.9; stroke-width:0px;"/><path d="M83.05,87.77c-6.33.95-8.58-1.96-8.58-1.96-9.9,7.29-14.69,3.64-14.69,3.64,1.63-.74,2.59-4.26,2.59-4.26-1.74,3.25-6.01,3.63-6.01,3.63,0,0,4.1-9.44,5.45-27.45.96-12.78.61-27.36.61-27.36,0,0,.12-2.43.98-15.24,0,0-.11,27.45-.98,43.36-.87,15.9-1.25,20.87-1.25,20.87,0,0,6.31-6.32,7.09-19.62,0,0,.2,9.6-4.77,20.28,0,0,9.34-5.6,9.09-18.96-.24-12.53-5.05-43.2-5.64-46.98.67,3.62,5.86,32.43,6.49,45.75.67,14.22-8.16,21.55-8.16,21.55,0,0,11.1-2.52,12.45-13.05,1.28-10.05-6.17-41.27-6.85-44.07.72,2.7,8.44,32.17,8.28,44.72l2.18,8.49h0c-.28,2.4-.58,3.94-.34,4.79.51,1.8,1.88,1.87,2.07,1.87Z" style="fill:#d177b8; mix-blend-mode:multiply; opacity:.9; stroke-width:0px;"/><path d="M41.16,5.17s7.62,8.74,5.88,26.33c0,0-3.63-19.32-5.88-26.33Z" style="fill:#d177b8; mix-blend-mode:multiply; opacity:.6; stroke-width:0px;"/><path d="M49.68,7.37s8.02,5.76,1.9,22.77c0,0,8.38-14.16-1.9-22.77Z" style="fill:#d177b8; mix-blend-mode:multiply; opacity:.6; stroke-width:0px;"/><path d="M35.79,11.03s-1.09,3.21-1.42,6.7h-.73s-.04-2.49.87-6.97c0,0,.59-.26,1.28.27Z" style="fill:#ffd4e0; mix-blend-mode:soft-light; stroke-width:0px;"/><path d="M30.47,9.52s-2.31,1.99-6.97,1.87c0,0-1.26,4.46-1.26,6.34,0,0,4.19-.71,5.8-.72,0,0,.42-4.11,2.43-7.49Z" style="fill:#ffd4e0; mix-blend-mode:soft-light; stroke-width:0px;"/><path d="M44.42,10.91s.79,1.25,3.36.66c0,0,1.01,1.34,1.64,5.87l-2.95.29s-.16-2.6-2.05-6.82Z" style="fill:#ffd4e0; mix-blend-mode:soft-light; stroke-width:0px;"/><path d="M52.68,10.76s3.9,1.82,6.48,1.54c0,0,.77,1.95,1.1,4.21,0,0-1.93-1.23-5.68.09,0,0,.04-2.49-1.9-5.84Z" style="fill:#ffd4e0; mix-blend-mode:soft-light; stroke-width:0px;"/><path d="M60.36,12.34s2.87-.13,4.17-.47c1.3-.33,1.34-2.15,1.34-2.15,0,0,1.66,2.41,2.58,4.59,0,0-1.95-1.76-3.12-1.42s-1.22,1.33-2.19,2.24-1.99.96-1.99.96c0,0-.25-2.61-.8-3.75Z" style="fill:#ffd4e0; mix-blend-mode:soft-light; stroke-width:0px;"/><path d="M18.7,7.82s.3,2.33,3.41,3.15c0,0,.25,3.92-1.06,7.78,0,0,.17-2.28-1.6-3.92-1.77-1.64-5-.22-5-.22,0,0,2.4-5.09,4.24-6.79Z" style="fill:#ffd4e0; mix-blend-mode:soft-light; stroke-width:0px;"/><path d="M50.26,10.76s2.2,3.63,1.99,6.36c0,0-1.35-5.49-1.99-6.36Z" style="fill:#ffd4e0; mix-blend-mode:soft-light; stroke-width:0px;"/></g></g></g></svg>