<?xml version="1.0" encoding="UTF-8"?><svg xmlns="http://www.w3.org/2000/svg" xmlns:xlink="http://www.w3.org/1999/xlink" viewBox="0 0 94.85 90.73"><defs><linearGradient id="d" x1="49.5" y1="90.73" x2="49.5" y2="71.13" gradientUnits="userSpaceOnUse"><stop offset="0" stop-color="#ffb39d"/><stop offset=".23" stop-color="#ff9b8d"/><stop offset=".48" stop-color="#ff8781"/><stop offset=".74" stop-color="#ff7b79"/><stop offset="1" stop-color="#f77"/></linearGradient><linearGradient id="e" x1="77.85" y1="56.78" x2="77.85" y2="37.22" xlink:href="#d"/><linearGradient id="f" x1="77.85" y1="53.43" x2="77.85" y2="40.68" gradientUnits="userSpaceOnUse"><stop offset="0" stop-color="#ffeadb"/><stop offset=".99" stop-color="#d177f4"/></linearGradient><linearGradient id="g" x1="75.55" y1="51.96" x2="75.55" y2="45.71" xlink:href="#f"/><linearGradient id="h" x1="-477.26" y1="56.78" x2="-477.26" y2="37.22" gradientTransform="translate(-456.68) rotate(-180) scale(1 -1)" xlink:href="#d"/><linearGradient id="i" x1="-477.25" y1="53.43" x2="-477.25" y2="40.68" gradientTransform="translate(-456.68) rotate(-180) scale(1 -1)" xlink:href="#f"/><linearGradient id="j" x1="-479.55" y1="51.96" x2="-479.55" y2="45.71" gradientTransform="translate(-456.68) rotate(-180) scale(1 -1)" xlink:href="#f"/><linearGradient id="k" x1="49.25" y1="73.9" x2="49.25" y2="4.45" gradientUnits="userSpaceOnUse"><stop offset="0" stop-color="#ffaa96"/><stop offset=".43" stop-color="#f9ab99"/><stop offset=".55" stop-color="#fba28f"/><stop offset=".78" stop-color="#fe9983"/><stop offset="1" stop-color="#ff967f"/></linearGradient><linearGradient id="l" x1="28.03" y1="45.7" x2="28.03" y2="8.64" xlink:href="#f"/><linearGradient id="m" x1="-179.1" y1="45.7" x2="-179.1" y2="8.64" gradientTransform="translate(-108.61) rotate(-180) scale(1 -1)" xlink:href="#f"/><linearGradient id="n" x1="13.88" y1="90.17" x2="13.88" y2="78.65" gradientUnits="userSpaceOnUse"><stop offset="0" stop-color="#fc4a4b"/><stop offset="1" stop-color="#ca1d3b"/></linearGradient><linearGradient id="o" x1="47.43" y1="89.75" x2="47.43" y2="0" xlink:href="#n"/><linearGradient id="p" x1="10.08" y1="80.34" x2="53.9" y2="4.45" xlink:href="#f"/><linearGradient id="q" x1="48.92" y1="75.29" x2="82.35" y2="17.39" xlink:href="#f"/><linearGradient id="r" x1="64.12" y1="51.57" x2="84.68" y2="15.97" xlink:href="#f"/><linearGradient id="s" x1="18.98" y1="80.64" x2="27.51" y2="65.86" gradientUnits="userSpaceOnUse"><stop offset="0" stop-color="#d177f4"/><stop offset="1" stop-color="#ffeadb"/></linearGradient><linearGradient id="t" x1="71.78" y1="86.68" x2="80.76" y2="71.12" xlink:href="#s"/></defs><g style="isolation:isolate;"><g id="b"><g id="c"><path d="M14.4,89.75l64.79-1.17S87.82,7,49.5,7,14.4,89.75,14.4,89.75Z" style="fill:#b30042; stroke-width:0px;"/><path d="M58.12,83.48c-.17-.97,0-12.34,0-12.34l-8.61,2.34-8.61-2.34s.17,11.37,0,12.34c-.17.97-11.84,6.07-11.84,6.07,0,0,9.26,1.18,20.45,1.18s20.45-1.18,20.45-1.18c0,0-11.67-5.11-11.84-6.07Z" style="fill:url(#d); stroke-width:0px;"/><path d="M40.95,76.48s8.5,5.54,17.09,3.87l.08-9.22h-17.23l.06,5.35Z" style="fill:#d177b8; mix-blend-mode:multiply; opacity:.6; stroke-width:0px;"/><path d="M82.33,46.21c-.13.64-.28,1.21-.44,1.73,0,0,0,.02,0,.03-1.14,3.67-2.86,4.53-3.56,6.19-.6,1.43-2.96,4.3-5.3,1.32,0,0,0,0,0,0,0,0,1.11-12.15,2-14.36,0,0,1.29-3.31,3.61-3.81,2.98-.65,4.86,3.28,3.7,8.93Z" style="fill:url(#e); stroke-width:0px;"/><path d="M73.82,47.92s4.67-6.78,6.9-7.22c2.23-.44,1.12,5.31.67,7.22-.45,1.92-1.12,3.05-1.12,3.05,0,0,.56-2.26.67-4.09.16-2.63-.68-4.89-1.62-4.67-.94.22-2.2,3.52-2.28,3.9-.08.38.62,1.05.58,3.09s-1.02,4.26-1.55,4.23c-.53-.03-.3-1.68-.3-3.59s-1.49-1.54-2.15-.3l.19-1.62Z" style="fill:url(#f); mix-blend-mode:multiply; opacity:.6; stroke-width:0px;"/><path d="M73.63,49.54s1.2-1.82,1.92-.99c.72.82.2,3.11.75,3.39.55.27,1.29-1.58,1.15-3.27-.14-1.69-.81-3.21-1.77-2.92l-1.86,2.18-.19,1.62Z" style="fill:url(#g); mix-blend-mode:multiply; opacity:.6; stroke-width:0px;"/><path d="M81.88,47.97c-1.14,3.67-2.86,4.53-3.56,6.19-.6,1.43-2.96,4.3-5.3,1.32.14.11,1.49,1.21,2.86.71,1.45-.53,1.91-1.88,2.52-2.93.61-1.05,2.18-1.77,3.47-5.29Z" style="fill:#dd6b7c; stroke-width:0px;"/><path d="M16.09,46.21c.13.64.28,1.21.44,1.73,0,0,0,.02,0,.03,1.14,3.67,2.86,4.53,3.56,6.19.6,1.43,2.96,4.3,5.3,1.32,0,0,0,0,0,0,0,0-1.11-12.15-2-14.36,0,0-1.29-3.31-3.61-3.81-2.98-.65-4.86,3.28-3.7,8.93Z" style="fill:url(#h); stroke-width:0px;"/><path d="M24.6,47.92s-4.67-6.78-6.9-7.22c-2.23-.44-1.12,5.31-.67,7.22s1.12,3.05,1.12,3.05c0,0-.56-2.26-.67-4.09-.16-2.63.68-4.89,1.62-4.67.94.22,2.2,3.52,2.28,3.9.08.38-.62,1.05-.58,3.09.04,2.04,1.02,4.26,1.55,4.23.53-.03.3-1.68.3-3.59s1.49-1.54,2.15-.3l-.19-1.62Z" style="fill:url(#i); mix-blend-mode:multiply; opacity:.6; stroke-width:0px;"/><path d="M24.79,49.54s-1.2-1.82-1.92-.99c-.72.82-.2,3.11-.75,3.39-.55.27-1.29-1.58-1.15-3.27s.81-3.21,1.77-2.92l1.86,2.18.19,1.62Z" style="fill:url(#j); mix-blend-mode:multiply; opacity:.6; stroke-width:0px;"/><path d="M16.54,47.97c1.14,3.67,2.86,4.53,3.56,6.19.6,1.43,2.96,4.3,5.3,1.32-.14.11-1.49,1.21-2.86.71-1.45-.53-1.91-1.88-2.52-2.93-.61-1.05-2.18-1.77-3.47-5.29Z" style="fill:#dd6b7c; stroke-width:0px;"/><path d="M76.21,39.9s0,.01,0,.02c-.59,2.97-1.31,6.1-1.81,9.69-1.32,9.46-4.14,13.81-10.57,17.99-6.74,4.38-8.76,6.09-14.58,6.31-5.82-.22-7.84-1.92-14.58-6.31-6.43-4.18-9.25-8.53-10.56-17.99-.29-2.11-.66-4.06-1.04-5.91-.28-1.37-.56-2.7-.81-3.99,0-.02,0-.04-.01-.06,0-.01,0-.02,0-.02-.93-4.75-1.49-9.13-.22-14.43,1.31-5.48,5.84-12.27,12.73-16.56h0s0,0,0,0c4.06-2.53,8.95-4.18,14.48-4.18,14.93,0,25.14,12.04,27.23,20.75,1.29,5.4.69,9.85-.27,14.7Z" style="fill:url(#k); stroke-width:0px;"/><path d="M76.21,39.92c-.59,2.97-1.31,6.1-1.81,9.69-1.32,9.46-4.14,13.81-10.57,17.99-6.74,4.38-8.76,6.09-14.58,6.31-5.82-.22-7.84-1.92-14.58-6.31-6.43-4.18-9.25-8.53-10.56-17.99-.51-3.68-1.26-6.87-1.85-9.9.19.74,1.73,6.82,3.24,13,1.61,6.59,3.98,10.64,11.12,15.68,6.64,4.69,10.51,5.08,12.47,5.1h.34c1.97-.02,5.83-.41,12.47-5.1,7.14-5.04,9.51-9.09,11.12-15.68,1.41-5.77,2.84-11.45,3.18-12.78Z" style="fill:#d177b8; mix-blend-mode:multiply; opacity:.6; stroke-width:0px;"/><path d="M34.76,8.64c-.3.22-7.96,5.86-8.51,11.08-.56,5.32-.22,11.32-1.93,16.35-1.65,4.84-.63,9.32-.55,9.64-.04-.11-.31-.84-.7-2-.28-1.37-.56-2.7-.81-3.99,0-.02,0-.04-.01-.06,0-.01,0-.02,0-.02-.93-4.75-1.49-9.13-.22-14.43,1.31-5.48,5.84-12.27,12.73-16.56h0Z" style="fill:url(#l); mix-blend-mode:multiply; opacity:.6; stroke-width:0px;"/><path d="M63.75,8.64c.3.22,7.96,5.86,8.51,11.08.56,5.32.22,11.32,1.93,16.35,1.65,4.84.63,9.32.55,9.64.04-.11.31-.84.7-2,.28-1.37.56-2.7.81-3.99,0-.02,0-.04.01-.06,0-.01,0-.02,0-.02.93-4.75,1.49-9.13.22-14.43-1.31-5.48-5.84-12.27-12.73-16.56h0Z" style="fill:url(#m); mix-blend-mode:multiply; opacity:.6; stroke-width:0px;"/><path d="M6.56,80.67s3.61,7.58-2.04,9.09c0,0,15.09,2.81,18.35-6.18s-16.31-2.9-16.31-2.9Z" style="fill:url(#n); stroke-width:0px;"/><path d="M94.22,78.2s.32,8.38-8.27,10.01c-8.59,1.63-13.93-1.63-13.93-1.63.87,1.08,3.52,2.17,3.52,2.17-5.07.32-11.57-3.04-10.92-12.86.65-9.81,7.18-11.07,7.51-12.92.32-1.85-3.04-5.01-2.18-10.61.86-5.6,5.12-16.48-1.3-22.89-6.42-6.42-3.44-11.53-6.82-16.53-2.08-3.09-5.17-4.35-7.23-4.87-1.27-.32-2.16-.36-2.16-.36,0,0-5.52,10.7-13.46,13.2-7.95,2.5-13.3,12.57-10.47,18.26,2.82,5.67-1.09,11.94-.98,15.75.1,3.8,4.89,4.86,5.4,12.91.51,8.05-4.42,7.83-3.89,14.94.52,6.79,6.5,5.24,7.05,5.09.01,0,.02,0,.03-.01,0,0-1.09,2.28-5.83,1.85-3.51-.33-4.5-3.61-4.79-5.28,0-.02,0-.05-.01-.07,0-.06-.01-.1-.02-.15-.13,3.56-7.91,3.43-7.91,3.43,0,0,2.99-.53,3.4-2.19,0-.01,0-.02.01-.03.1-.47.01-1.03-.41-1.69-1.93-3.04-19.97.15-20.54-9.82-.59-9.95,9.28-13.47,10-19.4.73-5.94-2.72-6.97-2.82-15.32-.1-8.83,5.81-17.68,10.75-22.76,4.93-5.07,3.41-9.45,11.1-14.4,7.37-4.74,16.84.17,23.59,1.41,1.17.22,2.32.41,3.44.61,6.84,1.17,12.68,2.11,15.64,4.59,5.49,4.59,5.58,12.17,10.15,15.33s3.32,6.6,3.42,14.21c.11,7.61,15.78,16.64,6.75,26.87-.53.6-1.03,1.19-1.48,1.79-.07.09-.13.16-.18.23-.08.08-.15.17-.21.26-.08.1-.14.17-.16.21h-.01c-6.98,9.29-6.69,17.6-1.8,16.9,5.33-.75,6.02-6.23,6.02-6.23Z" style="fill:url(#o); stroke-width:0px;"/><path d="M54.95,5.05l-.34,3.02c-1.27-.32-2.16-.36-2.16-.36,0,0-5.52,10.7-13.46,13.2-7.95,2.5-13.3,12.57-10.47,18.26,2.82,5.67-1.09,11.94-.98,15.75.1,3.8,4.89,4.86,5.4,12.91.51,8.05-4.42,7.83-3.89,14.94.52,6.79,6.5,5.24,7.05,5.09-2.77,1.52-8.22.92-8.07-4,.14-4.95,2.93-8.14,3.32-13.64.4-5.49-6.52-9.06-6.05-13.42.47-4.36,4.75-12.24,2.73-15.43-2.02-3.19-6.11-5.44-2.3-11.54,3.81-6.09,9.31-8.69,15.04-11.23,5.73-2.55,10.3-12.19,10.3-12.19-1.66-.64-7.33-.57-12.08.07-4.76.63-3.51,4.8-5.68,10.82-2.18,6.02-9.14,7.9-12.02,14.79s3.03,14.72.98,23.45c-2.06,8.73-2.51,13.25,1.47,20.37,3.98,7.13,1.78,8.52,1.78,8.52,0-.02,0-.05-.01-.07,0-.06,0-.11-.01-.17t-.01-.02s0-.03-.01-.05c-.54-2.99-6.37-6.19-8.4-10.21-2.1-4.16,4.13-13.32,4.23-18.04.09-4.73-4.06-7.2-4.75-14.35-.68-7.15,7.27-13.41,10.54-19.58,3.26-6.17,1.08-11.68,6.37-14.94,5.16-3.17,16.75-1.27,17.38-1.17-.49-.25-10.55-5.37-17.6-2.74-7.22,2.7-7.39,11.68-11.94,14.79-4.56,3.12-11.4,6.1-12.12,15.02-.73,8.92,9.78,15.66,10.85,20.37,1.06,4.72-14.34,11.17-14.48,15.24-.15,4.05,14,9.71,15.75,12.45,1.68,2.61-.15,4.34-.31,4.49v-.02c.99-2.03-.71-3.73-9.93-5.38-9.29-1.66-10.47-10.78-2.25-17.48,8.23-6.71,4.06-10.52.29-20.23-3.77-9.72,1.96-18.72,10.3-24.73C27.73,11.56,25.92.39,37.51,1.77c11.61,1.38,17.44,3.28,17.44,3.28Z" style="fill:url(#p); mix-blend-mode:multiply; stroke-width:0px;"/><path d="M54.61,8.07s7.25.73,10.3,2.47c3.05,1.74-.16,10.82,1.85,14.58s6.53,4.57,9.03,7.99c2.5,3.43-5.22,15.18-3.56,22.41,1.66,7.23,4.81,5.27,5.63,7.99.82,2.72-9.48,2.27-11.62,10.38-2.14,8.11,2.21,12.65,2.21,12.65,0,0-3.17-6.73,1.52-12.65,4.69-5.92,9.69-6.36,11-9.29s-5.83-3.52-7.74-7.83,1.87-14.32,2.99-15.77c1.12-1.45,7.86,9.35,11.49,13.12,3.63,3.77,1.28,9.43-5.81,13.2-7.09,3.77-11.99,15.35-9.11,19.93l2.78.7s-2.68-7.14,2.3-14.9c4.99-7.76,13.01-8.65,13.69-15.45.67-6.8-13.68-12.58-13.69-20.03-.01-7.45,3.18-6.87-3.49-9.92-6.67-3.05-7.83-9.06-6.67-15.81,1.16-6.74-12.73-5.8-12.73-5.8l-.34,2.02Z" style="fill:url(#q); mix-blend-mode:multiply; stroke-width:0px;"/><path d="M92.05,65.05c-.53.6-1.03,1.19-1.48,1.79,1.18-1.6,3.85-5.64,3.55-9.4-.39-4.85-7.95-10.72-10.07-15.34-2.11-4.63-.16-8.21-.82-12.89-.65-4.67-4.62-3.36-8.15-6.96-3.54-3.59-.44-10.26-4.97-13.84-4.52-3.57-15.16-3.35-15.16-3.35l1.14-1.01c6.84,1.17,12.68,2.11,15.64,4.59,5.49,4.59,5.58,12.17,10.15,15.33s3.32,6.6,3.42,14.21c.11,7.61,15.78,16.64,6.75,26.87Z" style="fill:url(#r); mix-blend-mode:multiply; stroke-width:0px;"/><path d="M25.51,84.42s-.38-2.23-5.29-6.56c-4.92-4.33.75-15.77.75-15.77,0,0-1.74,6.14,1.9,12.16,3.64,6.02,2.64,10.17,2.64,10.17Z" style="fill:url(#s); mix-blend-mode:multiply; stroke-width:0px;"/><path d="M72.77,87.26s-4.25-8.95,5.74-17.43c0,0-4.74,8.22-2.96,18.13l-2.78-.7Z" style="fill:url(#t); mix-blend-mode:multiply; stroke-width:0px;"/><path d="M48.76,10.51s-3.68,5.68-6.17,7.04c0,0,1.38-2.25,1.2-2.72-.18-.47-4.82-1.34-6.31-2.57-1.49-1.23-1.74-3.25-2.26-2.5,0,0,.84-2.96,3.78-3.28,0,0-.79.99-.17,2.55.62,1.56,4.17,1.67,5.8,1.74s4.14-.26,4.14-.26Z" style="fill:#ffd9bb; mix-blend-mode:soft-light; stroke-width:0px;"/><path d="M31.23,8.99s1.5-2.88,6.96-3.52c0,0-1.97.13-3.48-.31-1.51-.44-1.47-2.08-1.47-2.08,0,0-3.56,1.44-5.2,4.22l3.2,1.69Z" style="fill:#ffd9bb; mix-blend-mode:soft-light; stroke-width:0px;"/><path d="M61.92,11.2s1.81,2.1,2.47,5.91l1.27-.36s.69-2.32,0-4.02c-.69-1.7-2.39-2.32-2.39-2.32l-1.34.8Z" style="fill:#ffd9bb; mix-blend-mode:soft-light; stroke-width:0px;"/><path d="M66.92,7.94s1.61,1.49,1.02,4.08-.25,4.12-.25,4.12c0,0,1.27-1.56,4.13-2.37,0,0-.19-3.35-1.33-4.3-1.14-.94-3.57-1.52-3.57-1.52Z" style="fill:#ffd9bb; mix-blend-mode:soft-light; stroke-width:0px;"/><path d="M77.45,58.84s4.43,1.96,4.43,5.22c0,0,.48-.44,1.57-2.01,1.09-1.58,5.11-3.21,5.11-3.21,0,0,1.09-2.39-1.58-4.51,0,0,.49,1.25-.65,1.9-1.14.65-8.88,2.61-8.88,2.61Z" style="fill:#ffd9bb; mix-blend-mode:soft-light; stroke-width:0px;"/><path d="M90.86,53.56s1.4,1.55.93,4.05l2.01-.45s-.33-2.63-1.5-3.59h-1.44Z" style="fill:#ffd9bb; mix-blend-mode:soft-light; stroke-width:0px;"/><path d="M22.25,39.63l1.85-1.44s-1.28-6.08,1.2-8.6l-3.03,1.65s-3.83,5.6-.02,8.39Z" style="fill:#ffd9bb; mix-blend-mode:soft-light; stroke-width:0px;"/><path d="M20.36,30.56s-7.88,1.51-10.71-.55c0,0-1.34,3.77.31,8.09,0,0-.25-1.97.4-2.66.65-.69,5.68-.53,6.18-.36.51.16.78,1.52.78,1.52,0,0,1.35-4.51,3.04-6.03Z" style="fill:#ffd9bb; mix-blend-mode:soft-light; stroke-width:0px;"/></g></g></g></svg>