<?xml version="1.0" encoding="UTF-8"?><svg xmlns="http://www.w3.org/2000/svg" xmlns:xlink="http://www.w3.org/1999/xlink" viewBox="0 0 120.9 165.3"><defs><linearGradient id="d" x1="60.46" y1="163.81" x2="60.46" y2="116.49" gradientUnits="userSpaceOnUse"><stop offset="0" stop-color="#ffb09a"/><stop offset=".21" stop-color="#ff9b8d"/><stop offset=".47" stop-color="#ff8780"/><stop offset=".74" stop-color="#ff7b79"/><stop offset="1" stop-color="#f77"/></linearGradient><linearGradient id="e" x1="73.51" y1="154.61" x2="74.26" y2="123" gradientUnits="userSpaceOnUse"><stop offset="0" stop-color="#ffe7d8"/><stop offset=".29" stop-color="#ecbde1"/><stop offset=".59" stop-color="#dc97e9"/><stop offset=".84" stop-color="#d17fef"/><stop offset=".99" stop-color="#ce77f1"/></linearGradient><linearGradient id="f" x1="16.94" y1="103.12" x2="16.94" y2="71.37" xlink:href="#d"/><linearGradient id="g" x1="17.34" y1="93.09" x2="17.34" y2="76.4" gradientUnits="userSpaceOnUse"><stop offset="0" stop-color="#ffe7d8"/><stop offset=".29" stop-color="#f9bdc9"/><stop offset=".59" stop-color="#f597bb"/><stop offset=".84" stop-color="#f27fb3"/><stop offset=".99" stop-color="#f177b0"/></linearGradient><linearGradient id="h" x1="19.66" y1="93.17" x2="19.66" y2="82.94" gradientUnits="userSpaceOnUse"><stop offset="0" stop-color="#ffe7d8"/><stop offset=".99" stop-color="#ce77f1"/></linearGradient><linearGradient id="i" x1="30.45" y1="95.52" x2="15.9" y2="95.52" xlink:href="#g"/><linearGradient id="j" x1="-1266.61" y1="103.12" x2="-1266.61" y2="71.37" gradientTransform="translate(-1162.63) rotate(-180) scale(1 -1)" xlink:href="#d"/><linearGradient id="k" x1="-1266.21" y1="93.09" x2="-1266.21" y2="76.4" gradientTransform="translate(-1162.63) rotate(-180) scale(1 -1)" xlink:href="#g"/><linearGradient id="l" x1="-1263.89" y1="93.17" x2="-1263.89" y2="82.94" gradientTransform="translate(-1162.63) rotate(-180) scale(1 -1)" xlink:href="#h"/><linearGradient id="m" x1="-1253.39" y1="95.52" x2="-1267.17" y2="95.52" gradientTransform="translate(-1162.63) rotate(-180) scale(1 -1)" xlink:href="#g"/><linearGradient id="n" x1="60.46" y1="131.17" x2="60.46" y2="12.06" gradientUnits="userSpaceOnUse"><stop offset="0" stop-color="#fa9b76"/><stop offset=".11" stop-color="#f89b7c"/><stop offset=".43" stop-color="#f69e8a"/><stop offset=".65" stop-color="#fb9783"/><stop offset="1" stop-color="#ff937f"/></linearGradient><linearGradient id="o" x1="30.21" y1="117.69" x2="30.21" y2="78.66" xlink:href="#h"/><linearGradient id="p" x1="-1097.59" y1="117.69" x2="-1097.59" y2="78.66" gradientTransform="translate(-1006.93) rotate(-180) scale(1 -1)" xlink:href="#h"/><linearGradient id="q" x1="60.71" y1="129.34" x2="60.71" y2="120.13" gradientUnits="userSpaceOnUse"><stop offset="0" stop-color="#ce77f1"/><stop offset=".16" stop-color="#d17fef"/><stop offset=".41" stop-color="#dc97e9"/><stop offset=".71" stop-color="#ecbde1"/><stop offset="1" stop-color="#ffe7d8"/></linearGradient><linearGradient id="r" x1="60.45" y1="145.88" x2="60.45" y2="163.81" gradientUnits="userSpaceOnUse"><stop offset="0" stop-color="#705ab5"/><stop offset=".19" stop-color="#8761c4"/><stop offset=".54" stop-color="#ad6ddc"/><stop offset=".82" stop-color="#c574eb"/><stop offset=".99" stop-color="#ce77f1"/></linearGradient><linearGradient id="s" x1="61.46" y1="161.11" x2="82.62" y2="151.82" xlink:href="#r"/><linearGradient id="t" x1="60.09" y1="145.69" x2="60.09" y2="157.06" xlink:href="#r"/><linearGradient id="u" x1="60.09" y1="8.31" x2="60.09" y2="56.38" gradientUnits="userSpaceOnUse"><stop offset="0" stop-color="#a35349"/><stop offset="1" stop-color="#994e47"/></linearGradient><linearGradient id="v" x1="78.56" y1="28.72" x2="78.56" y2="28.9" gradientUnits="userSpaceOnUse"><stop offset="0" stop-color="#a36f68"/><stop offset="1" stop-color="#994e47"/></linearGradient></defs><g style="isolation:isolate;"><g id="b"><g id="c"><path d="M108.19,161.92s-32.32,1.89-47.74,1.89-47.74-1.89-47.74-1.89c0,0,19.19-7.16,21.33-11.83,1.07-2.35,1.5-10.84,1.66-18.7.16-7.76.05-14.9.05-14.9l24.7.35,24.7-.35s-.29,19.39.78,28.98c.23,2.12.54,3.77.92,4.61,2.13,4.67,21.33,11.83,21.33,11.83Z" style="fill:url(#d); stroke-width:0px;"/><path d="M72.09,119.94c-6.98,12.14-7.75,25.94-4.41,35.39,1.1,3.11,15.77-30.91,14.58-35.39-1.19-4.49-6.59-6.22-10.17,0Z" style="fill:url(#e); mix-blend-mode:multiply; opacity:.6; stroke-width:0px;"/><path d="M85.94,145.47c-.17.05-.36.16-.53.1-15.58-5.66-12.03,9.76-24.41,9.76-6.22,0-14.51-16.29-18.53-20.51-3.67-3.86-6.76-3.43-6.76-3.43.16-7.76.05-14.9.05-14.9l24.7.35,24.7-.35s-.29,19.39.78,28.98Z" style="fill:#ce5982; mix-blend-mode:multiply; opacity:.6; stroke-width:0px;"/><path d="M21.74,72.98s-6.73-2.36-8.64-1.37c-1.91.99-4.75,5.96-4.39,11.86.1,1.59,1.36,9.07,6.43,12.72,1.47,1.06,2.9,6.01,6.24,6.76,3.49.78,3.82-1.54,3.82-1.54l-3.46-28.43Z" style="fill:url(#f); stroke-width:0px;"/><path d="M23.39,86.53s-3.73-11.57-8.73-9.98c-3.92,1.25-3.34,9.74-3.34,9.74,0,0,1.09-7.54,5.63-5.11,2.4,1.28-1.45,3.44-1.45,6.55s2.63,6.76,3.58,4.81c.95-1.95,1.47-9.12,4.32-6.01Z" style="fill:url(#g); mix-blend-mode:multiply; opacity:.6; stroke-width:0px;"/><path d="M23.12,85.13s-2.82-4.46-6.18-.63c-3.36,3.83,1.31,10.8,2.13,8.05.82-2.76,1.4-6.81,2.86-6.41,1.46.4,1.65,1.93,1.65,1.93l-.45-2.93Z" style="fill:url(#h); mix-blend-mode:multiply; opacity:.6; stroke-width:0px;"/><path d="M19.05,101.59c.39.67,3.6,2.37,5.28.65,1.41-1.44-.58-12.66-.77-14.18,0,0,.61,11.84-.19,12.32-2.76,1.66-5.64-1-4.33,1.21Z" style="fill:url(#i); mix-blend-mode:multiply; opacity:.6; stroke-width:0px;"/><path d="M99.18,72.98s6.73-2.36,8.64-1.37c1.91.99,4.75,5.96,4.39,11.86-.1,1.59-1.36,9.07-6.43,12.72-1.47,1.06-2.9,6.01-6.24,6.76-3.49.78-3.82-1.54-3.82-1.54l3.46-28.43Z" style="fill:url(#j); stroke-width:0px;"/><path d="M97.53,86.53s3.73-11.57,8.73-9.98c3.92,1.25,3.34,9.74,3.34,9.74,0,0-1.09-7.54-5.63-5.11-2.4,1.28,1.45,3.44,1.45,6.55s-2.63,6.76-3.58,4.81c-.95-1.95-1.47-9.12-4.32-6.01Z" style="fill:url(#k); mix-blend-mode:multiply; opacity:.6; stroke-width:0px;"/><path d="M97.79,85.13s2.82-4.46,6.18-.63c3.36,3.83-1.31,10.8-2.13,8.05-.82-2.76-1.4-6.81-2.86-6.41-1.46.4-1.64,1.93-1.64,1.93l.45-2.93Z" style="fill:url(#l); mix-blend-mode:multiply; opacity:.6; stroke-width:0px;"/><path d="M101.86,101.59c-.39.67-3.6,2.37-5.28.65-1.41-1.44.58-12.66.77-14.18,0,0-.61,11.84.19,12.32-1.17-.7,4.24,1.36,4.33,1.21Z" style="fill:url(#m); mix-blend-mode:multiply; opacity:.6; stroke-width:0px;"/><path d="M99.42,81.52c-1.78,14.26-3.75,26.12-4.6,27.88-.69,1.43-3.2,4.1-6.68,7.09h0s0,0,0,0h0c-7.6,6.56-19.82,14.68-27.68,14.68-4.87,0-11.42-3.12-17.5-7.05,0,0,0,0,0,0-3.52-2.27-6.88-4.82-9.68-7.2t0,0c-3.73-3.17-6.45-6.03-7.17-7.52-.86-1.76-2.85-13.73-4.63-28.07-2.77-22.29-5.04-50.33-1.8-54.78,2.33-3.19,8.47-6.4,15.53-8.98,8.9-3.25,19.26-5.51,25.25-5.51,10.74,0,35.52,7.27,40.79,14.5,3.25,4.46.95,32.65-1.82,54.97Z" style="fill:url(#n); stroke-width:0px;"/><path d="M21.92,79.73c2.18,2.21,11.42,12.36,12.87,17.74s5.57,20.46,4.26,20.22-15-15.29-16.55-28.53c-1.55-13.24-1.83-10.69-.58-9.42Z" style="fill:url(#o); mix-blend-mode:multiply; opacity:.6; stroke-width:0px;"/><path d="M98.96,79.73c-2.18,2.21-11.42,12.36-12.87,17.74-1.45,5.37-5.57,20.46-4.26,20.22,1.31-.24,15-15.29,16.55-28.53s1.83-10.69.58-9.42Z" style="fill:url(#p); mix-blend-mode:multiply; opacity:.6; stroke-width:0px;"/><path d="M88.14,116.5h0c-7.6,6.56-19.82,14.68-27.68,14.68-4.87,0-11.42-3.12-17.5-7.05,0,0,0,0,0,0-3.52-2.27-6.88-4.82-9.68-7.2.51.33,14.42,9.33,17.86,9.95,3.5.64,14.8.32,17.66,0,2.84-.32,19.08-10.22,19.33-10.38Z" style="fill:url(#q); mix-blend-mode:multiply; opacity:.6; stroke-width:0px;"/><path d="M120.9,165.3H0l25.84-9.98,2.86-9.45s4.14-.38,6.25-.18l-.57,3.42s6.58,6.88,26.07,6.88c17.34,0,26.07-6.88,26.07-6.88l-.51-3.02-.07-.4c2.11-.2,6.25.18,6.25.18l2.86,9.45,25.84,9.98Z" style="fill:#9074b3; stroke-width:0px;"/><path d="M28.7,145.88c-.49,1.63,12.67,12.97,31.39,12.97,20.16,0,32.11-12.97,32.11-12.97l2.86,9.45s-21,8.48-35.97,8.48c-16.07,0-33.26-8.48-33.26-8.48l2.86-9.45Z" style="fill:url(#r); mix-blend-mode:multiply; opacity:.6; stroke-width:0px;"/><path d="M55.04,158.62c23.59,2.22,36.64-12.35,36.64-12.35,0,0-11.57,12.48-14.55,13.24-9.39,2.39-22.09-.89-22.09-.89Z" style="fill:url(#s); mix-blend-mode:multiply; opacity:.6; stroke-width:0px;"/><path d="M82.33,152.1c-5.72,2.51-20.04,6.76-33.37,4.14-12.74-2.51-18.2-8.19-18.44-8.99-.24-.79,3.9-1.11,4.42-1.55l-.57,3.42s6.58,6.88,26.07,6.88c17.34,0,26.07-6.88,26.07-6.88l-.51-3.02c1.6.09,3.18.17,3.51.17.72,0-1.48,3.32-7.19,5.83Z" style="fill:url(#t); mix-blend-mode:multiply; opacity:.6; stroke-width:0px;"/><path d="M106.74,37.76c-.4.87-2.05.41-2.05.41,0,0,3.44,17.12-.8,35.11l-3.42,1.89s1.05-11.11-.77-16.2c0,0,2.39-24.9.68-26.01-2.26-1.48-8-6.22-8.87-6.94l-.04-.03-.05-.04-.02-.02h0c-.25.17-9.99,6.6-16.26,5.82-.31-.04,1.57-1.52,2.9-2.52l.34-.26c.14-.1.26-.2.37-.28l.13-.1.11-.08.1-.07.11-.08.05-.03.02-.02c-.34.12-17.5,6.25-21.59,6.67-1.64.17-9.13-5.92-9.36-6.11.07.13-.4-1.19-.4-1.19-1.69-.29-11.63.33-14.77,1.01-3.83.84-11.02,4.9-11.62,6.1-.07.15-.13.42-.16.81-.43,4.75,1.82,26.17,1.82,26.17l-1.53,13.59-3.42-2.15s-1.1-16.39-1.59-24.93c-.49-8.54-.57-7.66-.57-7.66,0,0-.85,1.27-2.44,1.27-.79,0,.78-7.43,2.44-10.72.75-1.49,1.63-3.79,4.46-5.2.02-.01.04-.03.06-.04.7-.46,2.49-5.05,6.25-8.71h0c3.17-3.08,7.76-6.81,14.32-10.32C47.01,3.76,56.67-.65,60.25.08c1.18.24-1.53,1.36-1.8,1.46.33-.04,9.65-1.18,14.76.63.71.25-1.3,2.2-1.3,2.2,0,0,16.39,4.95,25.8,11.56,4.5,3.16,2.42,8.25,2.42,8.25h0c.21.36,7.2,12.22,6.58,13.58Z" style="fill:url(#u); stroke-width:0px;"/><path d="M78.38,28.97c.14-.1.26-.2.37-.28l-.37.28Z" style="fill:url(#v); stroke-width:0px;"/><path d="M106.74,37.76c-.4.87-2.05.41-2.05.41,0,0,3.44,17.12-.8,35.11l-3.42,1.89s1.05-11.11-.77-16.2c0,0,2.39-24.9.68-26.01l-8.87-6.94-.04-.03-.05-.04-.02-.02h0c-.17.17-5.69,5.48-17.43,7.88,0,0-14.68,5.95-19.1,4.83-4.42-1.12-20.89-9.67-20.89-9.67,0,0-12.56,5.03-12.62,6.63-.43,4.75,1.82,26.17,1.82,26.17l-1.53,13.59-3.42-2.15s-1.1-16.39-1.59-24.93c-.49-8.54-.57-7.66-.57-7.66,0,0-.85,1.27-2.44,1.27-.79,0,.78-6.06,2.44-10.72h0s.94,2.54,4.48,15.09c0,0-1.19-11.47-.57-13.91.62-2.44,2.24-3.65,2.24-3.65,0,0-.42-1.75-1.62-2.76.7-.46,2.49-5.05,6.25-8.71-.08.15-2.57,4.77-2.66,6.8-.1,2.07,22.35-6.55,33.53-10.24,0,0-9.06,3.72-9.04,8.17.03,4.45,18.66,2.2,29.9,0,8.08-1.58,11.28-1.11,11.28-1.11,0,0-10.78,7.46-7.71,6.83,3.08-.63,13.35-5.72,13.35-5.72,0,0,9.58,13.66,4.66,2.23h0c.21.36,7.2,12.22,6.58,13.58Z" style="fill:#ce77b5; mix-blend-mode:multiply; opacity:.5; stroke-width:0px;"/><path d="M73.08,3.03c2.05-1.76-9.42-2.18-25.71,8.13-.79.5,3.31-2.14,11.77-4.05,8.46-1.91,12.79-2.74,12.79-2.74l1.16-1.34Z" style="fill:#ce77b5; mix-blend-mode:multiply; opacity:.5; stroke-width:0px;"/><path d="M78.38,23.25c-3.76,0-25.45,1.48-24.97,4.34.48,2.86,1.68,6.61,4.53,6.58s18.12-5.8,22.87-8.01c4.74-2.21.96-2.91-2.43-2.91Z" style="fill:#7a369e; mix-blend-mode:multiply; opacity:.3; stroke-width:0px;"/><path d="M20.9,48.48c-2.79-5.03-4.56-5.62-4.09,2.87.48,8.5,1.36,21.83,2.15,21.62.79-.21,3.11-8.29,3.24-11.79.13-3.49-.48-11.22-1.3-12.7Z" style="fill:#7a369e; mix-blend-mode:multiply; opacity:.3; stroke-width:0px;"/><path d="M104.29,44.03c-3.49-4.89-4.23,10.71-3.7,15.25.29,2.45,3.11,10.29,3.7,7.99.59-2.29,3.4-18.48,0-23.24Z" style="fill:#7a369e; mix-blend-mode:multiply; opacity:.3; stroke-width:0px;"/><path d="M83.14,15.6c-9.09-5.4-9.53-10.76-6.76-9.76s23.21,9.28,22.66,12.22c-.56,2.94-13.22-.87-15.9-2.46Z" style="fill:#7a369e; mix-blend-mode:multiply; opacity:.3; stroke-width:0px;"/><path d="M47.37,26.32c1.46-2.19,1.16-7.61-1.3-7.18-2.46.43-20.25,5.35-20.49,6.78-.24,1.43,2.3,3.34,4.05,2.9,1.75-.44,17.2-1.71,17.73-2.5Z" style="fill:#7a369e; mix-blend-mode:multiply; opacity:.3; stroke-width:0px;"/><path d="M28.43,15.73c10.58-3.98,15.82-.71,16.17.9.33,1.52,11.2-2.86,13.11-2.86s9.77,5.23,1.91,10.66c0,0,12.16-.25,18.29-2.3,0,0,.66-15.5-20.08-9.7-8.32,2.33-10.55.87-12.98.51-.81-.12,6.01-3.87,4.52-5.24-2.12-1.95-16.62,4.51-16.62,4.51l-4.31,3.52Z" style="fill:#b9b6c7; mix-blend-mode:soft-light; opacity:.8; stroke-width:0px;"/></g></g></g></svg>