<?xml version="1.0" encoding="UTF-8"?><svg xmlns="http://www.w3.org/2000/svg" xmlns:xlink="http://www.w3.org/1999/xlink" viewBox="0 0 47 38.26"><defs><linearGradient id="d" x1="23.5" y1="5.97" x2="23.5" y2="28.47" gradientUnits="userSpaceOnUse"><stop offset="0" stop-color="#f68374"/><stop offset=".4" stop-color="#fb877a"/><stop offset="1" stop-color="#ff8a7f"/></linearGradient><linearGradient id="e" x1="6.11" y1="26.73" x2="12.31" y2="26.73" gradientUnits="userSpaceOnUse"><stop offset="0" stop-color="#77254b"/><stop offset="1" stop-color="#8b2542"/></linearGradient><linearGradient id="f" x1="-9799.47" x2="-9793.27" gradientTransform="translate(-9758.76) rotate(-180) scale(1 -1)" xlink:href="#e"/><linearGradient id="g" x1="6.11" y1="14.17" x2="13.8" y2="14.17" gradientUnits="userSpaceOnUse"><stop offset="0" stop-color="#ffe7d8"/><stop offset=".44" stop-color="#f7dcdd"/><stop offset=".99" stop-color="#f1d4e2"/></linearGradient><linearGradient id="h" x1="2608.81" x2="2616.5" gradientTransform="translate(2649.52) rotate(-180) scale(1 -1)" xlink:href="#g"/></defs><g style="isolation:isolate;"><g id="b"><g id="c"><path d="M46.35,24.24c-.85,2.67-9.16,2.08-11.66,3.25-2.5,1.17-4.5,4.67-11.19,4.67s-8.69-3.5-11.19-4.67c-2.5-1.17-10.81-.58-11.66-3.25-1.74-5.46.3-9.45,2.73-12.06h0c1.18-1.27,2.45-2.21,3.43-2.83,1.11-.7,2.11-1.59,3.04-2.59,3.24-3.53,7.09-5.3,9.88-6.17,2.47-.78,5.08-.78,7.55,0,2.78.88,6.63,2.65,9.88,6.17.92,1,1.93,1.88,3.04,2.59,1.02.65,2.36,1.64,3.58,2.99,2.36,2.61,4.28,6.55,2.58,11.9Z" style="fill:url(#d); stroke-width:0px;"/><path d="M26.83,4.46c-5.82,3.87-2.92,18.21,1.12,18.38,4.04.17,7.88-5.55,7.71-7.99-.17-2.45-6-12.27-8.83-10.39Z" style="fill:#fff9b5; mix-blend-mode:soft-light; opacity:.5; stroke-width:0px;"/><path d="M46.35,24.24c-.85,2.67-9.16,2.08-11.66,3.25-2.5,1.17-4.5,4.67-11.19,4.67s-8.69-3.5-11.19-4.67c-2.5-1.17-10.81-.58-11.66-3.25-1.74-5.46.3-9.45,2.73-12.06-2.37,6.77-1.45,10.95,0,11.05,1.45.1,6.1-1.56,10-.78s5.41,1.85,9.93,1.85,6.03-1.07,9.93-1.85,8.55.88,10,.78c1.45-.1,2.36-4.28,0-11.05l.54.16c2.36,2.61,4.28,6.55,2.58,11.9Z" style="fill:#ce77b5; mix-blend-mode:multiply; opacity:.6; stroke-width:0px;"/><path d="M6.11,26.45c3.34-1.5,6.2,1.03,6.2,1.03l-6.2-1.03Z" style="fill:url(#e); stroke-width:0px;"/><path d="M40.71,26.45c-3.34-1.5-6.2,1.03-6.2,1.03l6.2-1.03Z" style="fill:url(#f); stroke-width:0px;"/><path d="M1.13,24.96s-.04-1.41,2.25-1.72c2.29-.32,6.18-1.95,10.41-.49,4.23,1.46,7.5,1.77,10.13,1.55,2.63-.22,9.05-2.72,12.62-2.13s5.27,1.07,6.7,1.07,2.77.72,2.64,1.72-10.18,13.3-22.39,13.3S1.13,24.96,1.13,24.96Z" style="fill:#ce77b5; mix-blend-mode:multiply; opacity:.6; stroke-width:0px;"/><path d="M28.48,16.08c-1.06,1.78-.25,2.87,0,3.45s3.24.58,3.49,0,.25-3.4,0-3.45-3.06-.72-3.49,0Z" style="fill:#ffccbc; stroke-width:0px;"/><path d="M6.11,9.82c4.05,5.03,1.31,12.78,1.31,12.78,0,0,3.19-.78,6.37.15,0,0-4.22-5.93-3.84-8.66.38-2.73,4.1-5.9,3.84-6.9-.71-2.72-3.25-1.14-3.25-1.14,0,0-1.48,1.77-2.95,2.77l-1.47,1Z" style="fill:url(#g); mix-blend-mode:multiply; opacity:.7; stroke-width:0px;"/><path d="M40.71,9.82c-4.05,5.03-1.31,12.78-1.31,12.78,0,0-3.19-.78-6.37.15,0,0,4.22-5.93,3.84-8.66-.38-2.73-4.1-5.9-3.84-6.9.71-2.72,3.25-1.14,3.25-1.14,0,0,1.48,1.77,2.95,2.77l1.47,1Z" style="fill:url(#h); mix-blend-mode:multiply; opacity:.7; stroke-width:0px;"/></g></g></g></svg>