<?xml version="1.0" encoding="UTF-8"?><svg xmlns="http://www.w3.org/2000/svg" xmlns:xlink="http://www.w3.org/1999/xlink" viewBox="0 0 45.14 52.5"><defs><linearGradient id="d" x1="22.5" y1="1.5" x2="22.5" y2="42.51" gradientUnits="userSpaceOnUse"><stop offset="0" stop-color="#f68374"/><stop offset=".4" stop-color="#fb877a"/><stop offset="1" stop-color="#ff8a7f"/></linearGradient><linearGradient id="e" x1="8.04" y1="40.17" x2="8.04" y2="22.96" gradientUnits="userSpaceOnUse"><stop offset="0" stop-color="#ffe7d8"/><stop offset=".44" stop-color="#f7dcdd"/><stop offset=".99" stop-color="#f1d4e2"/></linearGradient><linearGradient id="f" x1="37.75" x2="37.75" xlink:href="#e"/></defs><g style="isolation:isolate;"><g id="b"><g id="c"><path d="M.43,41.74c-1.64-2.55,1.56-14.36,6.73-24.8C11.64,7.9,10.63,0,22.79,0c13.51,0,11.23,7.69,15.69,16.45,5.22,10.28,8.3,22.14,5.44,25.29-.87.96-3.58,1.52-9.33,1.78-3.14.14-6.62,4.73-11.83,4.73-5.67,0-9.04-4.85-11.17-4.85-6.7,0-10.68-.92-11.16-1.66Z" style="fill:url(#d); stroke-width:0px;"/><path d="M10.68,39.28c0,.11,2.33-.09,3.62-.26-2.27-2.82-5.65-10.3-4.5-13.83.41-1.25-2.61-5.42-4.5-3.69-.86.79-5.71,10.78-2.33,9.17,5.07-2.42,7.42,1.91,7.71,8.61Z" style="fill:url(#e); mix-blend-mode:multiply; opacity:.7; stroke-width:0px;"/><path d="M35.11,39.28c0,.11-2.33-.09-3.62-.26,2.27-2.82,5.65-10.3,4.5-13.83-.41-1.25,2.61-5.42,4.5-3.69.86.79,5.71,10.78,2.33,9.17-5.07-2.42-7.42,1.91-7.71,8.61Z" style="fill:url(#f); mix-blend-mode:multiply; opacity:.7; stroke-width:0px;"/><path d="M43.52,29.25s-.65,5.25-1.15,9.5-2.75,2-8.41,2.07c-5.43.07-16.89.07-22.32,0-5.66-.07-7.91,2.18-8.41-2.07s-1.15-9.5-1.15-9.5c0,0-4.6,12.49,0,13.75,3.56.98,8.9-.5,12.4,1.75,3.48,2.23,5.43,3.48,8.29,3.5h0s.02,0,.03,0,.02,0,.03,0h0c2.86-.02,4.82-1.27,8.29-3.5,3.5-2.25,8.75-1.25,12.4-1.75,3.65-.5,0-13.75,0-13.75Z" style="fill:#ce77b5; mix-blend-mode:multiply; opacity:.6; stroke-width:0px;"/><path d="M3.82,43.14c6.76-2.89,9.89-.49,10.51,0s-.96.81-2.04.65c-1.08-.16-8.47-.65-8.47-.65Z" style="fill:#812751; stroke-width:0px;"/><path d="M42.14,43.14c-6.76-2.89-9.89-.49-10.51,0s.96.81,2.04.65c1.08-.16,8.47-.65,8.47-.65Z" style="fill:#812751; stroke-width:0px;"/><path d="M.43,41.74c0-1.96,13.68-2.99,22.35-2.99s22.37,1.06,22.02,2.99c-.35,1.93-13.26,10.76-23.64,10.76S.43,42.97.43,41.74Z" style="fill:#ce5982; mix-blend-mode:multiply; opacity:.6; stroke-width:0px;"/><path d="M35.16,24.12c-1.69-4.83-8.72-6.37-9.76-5.12-1.04,1.25,2.27,17.67,3.6,18.17s2.07.96,3.71-1.27c1.64-2.23,3.62-8.44,2.45-11.77Z" style="fill:#fff9b5; mix-blend-mode:soft-light; opacity:.5; stroke-width:0px;"/><path d="M28.45,33.75c1.37-.98,2.46,3.67,1.3,3.42-1.17-.25-2.22-2.75-1.3-3.42Z" style="fill:#fff; stroke-width:0px;"/></g></g></g></svg>