<svg width="54" height="54" viewBox="0 0 180 180" fill="none" xmlns="http://www.w3.org/2000/svg">
<path d="M85 2.88675C88.094 1.10042 91.906 1.10042 95 2.88675L162.942 42.1132C166.036 43.8996 167.942 47.2008 167.942 50.7735V129.227C167.942 132.799 166.036 136.1 162.942 137.887L95 177.113C91.906 178.9 88.094 178.9 85 177.113L17.0577 137.887C13.9637 136.1 12.0577 132.799 12.0577 129.227V50.7735C12.0577 47.2008 13.9637 43.8996 17.0577 42.1132L85 2.88675Z" fill="url(#paint0_linear_98_6)"/>
<path d="M54.61 129.873C51.8293 129.55 49.6307 128.58 48.014 126.963C46.462 125.346 45.686 123.309 45.686 120.852C45.686 118.977 46.1387 117.037 47.044 115.032L69.257 64.495C70.4857 61.6497 72.6197 60.227 75.659 60.227C78.6337 60.227 80.7353 61.6497 81.964 64.495L104.177 115.032C105.082 117.166 105.535 119.106 105.535 120.852C105.535 123.309 104.727 125.346 103.11 126.963C101.558 128.58 99.3593 129.55 96.514 129.873L88.366 111.443H62.855L54.61 129.873ZM84.389 100.385L73.719 73.807L72.555 74.292L74.883 80.306L66.735 100.385H84.389ZM116.919 69.927C116.919 66.8877 118.051 64.5273 120.314 62.846C122.577 61.1 125.778 60.227 129.917 60.227V120.173C129.917 123.277 128.785 125.67 126.522 127.351C124.259 129.032 121.058 129.873 116.919 129.873V69.927Z" fill="url(#paint1_linear_98_6)"/>
<defs>
<linearGradient id="paint0_linear_98_6" x1="147" y1="11" x2="26.5" y2="175.5" gradientUnits="userSpaceOnUse">
<stop stop-color="#944ACE"/>
<stop offset="0.504654" stop-color="#953CD8"/>
<stop offset="1" stop-color="#271535"/>
</linearGradient>
<linearGradient id="paint1_linear_98_6" x1="90" y1="5.5" x2="85.1171" y2="156.423" gradientUnits="userSpaceOnUse">
<stop offset="0.51" stop-color="white"/>
<stop offset="1" stop-color="#9E26E8"/>
</linearGradient>
</defs>
</svg>
