<?xml version="1.0" encoding="utf-8"?>
<svg viewBox="0 0 158.38 27.13" xmlns="http://www.w3.org/2000/svg" xmlns:xlink="http://www.w3.org/1999/xlink">
  <defs>
    <linearGradient id="d" x1="1067.1" y1="-493.54" x2="1067.1" y2="-513.24" gradientTransform="translate(-1110.31 317.09) rotate(10.37)" gradientUnits="userSpaceOnUse">
      <stop offset="0" stop-color="#ebdfff"/>
      <stop offset="1" stop-color="#bac6f8"/>
    </linearGradient>
    <clipPath id="e">
      <path id="f" d="M53.29,25.06c-.73,1.5-7.9,1.52-10.07,1.34S13.32,17.99,4.35,19.15c0,0-.27-2.23,5.5-10.03,5.77-7.8,21.07-5.24,28.66-3.09,7.58,2.14,15.95,16.66,14.79,19.03Z" style="fill:none; stroke-width:0px;"/>
    </clipPath>
    <linearGradient id="i" x1="23.62" y1="12.24" x2="37.38" y2="12.24" gradientUnits="userSpaceOnUse">
      <stop offset="0" stop-color="#caa7db"/>
      <stop offset="0.99" stop-color="#8460b8"/>
    </linearGradient>
    <linearGradient id="j" x1="-674.84" y1="-174.8" x2="-674.84" y2="-194.49" gradientTransform="translate(-502.23 317.09) rotate(169.63) scale(1 -1)" xlink:href="#d"/>
    <clipPath id="k">
      <path id="l" d="M105.09,25.06c.73,1.5,7.9,1.52,10.07,1.34,2.17-.18,29.9-8.41,38.88-7.25,0,0,.27-2.23-5.5-10.03-5.77-7.8-21.07-5.24-28.66-3.09-7.58,2.14-15.95,16.66-14.79,19.03Z" style="fill:none; stroke-width:0px;"/>
    </clipPath>
    <linearGradient id="o" x1="-1747.3" x2="-1733.54" gradientTransform="translate(-1612.54) rotate(-180) scale(1 -1)" xlink:href="#i"/>
  </defs>
  <g style="isolation:isolate;" transform="matrix(0.9999999999999999, 0, 0, 0.9999999999999999, 0, 0)">
    <g id="b">
      <g id="c">
        <path d="M53.11,25.65c-.95,1.15-7.78,1.29-9.88.75s-26.3-7.99-39.5-7.22c0,0,1.17-6.05,8.07-11.68,6.89-5.63,20.34-4.06,27.61-1.13,7.27,2.93,15.22,17.46,13.71,19.28Z" style="fill:url(#d); stroke-width:0px;"/>
        <g style="clip-path:url(#e);">
          <circle cx="30.5" cy="12.24" r="12.24" transform="translate(-2.36 12.71) rotate(-22.68)" style="stroke-width: 0px; fill: fillColor;"/>
          <circle cx="30.5" cy="12.24" r="11.07" style="stroke-width: 0px; fill: fillColor; mix-blend-mode: multiply;"/>
          <circle cx="30.5" cy="12.24" r="6.88" style="fill: rgb(33, 36, 33); mix-blend-mode: multiply; opacity: 0.7; stroke-width:0px;"/>
          <path d="M21.47,13.29c-1.17,1.01-6.93-1.1-5.76-2.11,1.17-1.01,6.93,1.1,5.76,2.11Z" style="fill:#fffbf8; stroke-width:0px;"/>
          <path d="M21.99,18.07c-.19,2.33,5.44,5.42,8.51,5.25,5.01-.29,9.32-3.96,9.44-6.76.12-2.8-2.47-.7-5.5,1.32-3.03,2.02-6.5,1.37-8.96-.45-.86-.64-3.36-1.01-3.5.64Z" style="fill:#ffd59e; mix-blend-mode:soft-light; opacity:.33; stroke-width:0px;"/>
        </g>
        <path d="M6.71,12.92c-.74.76-1.33-4.32.96-8.06C9.96,1.13,29.85.08,40.55,6.93c0,0-20.19-8.06-33.84,6Z" style="fill:#270039; stroke-width:0px;"/>
        <path d="M3.72,19.18s2.99-2.06,8.82-.75c5.83,1.31,14.23,3.95,14.23,3.95,0,0-18.36-3.92-23.05-3.19Z" style="fill: rgb(218, 107, 124); stroke-width: 0px; mix-blend-mode: screen;"/>
        <path d="M52.48,21.92s.14,3.67-1.6,4.52c0,0,2.68.79,2.91-.48.23-1.26-1.31-4.04-1.31-4.04Z" style="fill: rgb(218, 107, 124); stroke-width: 0px; mix-blend-mode: screen;"/>
        <path d="M52.73,21.62c-3.4-12.84-10.27-16.88-15.45-19.92,0,0,5.75,1.79,9.07,4.86,5.27,4.86,6.38,15.06,6.38,15.06Z" style="fill: rgb(218, 76, 106); stroke-width: 0px; mix-blend-mode: screen;"/>
        <path d="M5.31,15.19C1.38,17.49-.81,21.17.28,22.9c2.14,3.39,13,5.07,11.72,3.82-2.17-2.12-7.35-5.3-7.65-7.57-.21-1.6.96-3.96.96-3.96Z" style="fill: rgb(237, 113, 114); stroke-width: 0px; mix-blend-mode: screen;"/>
        <path d="M5.31,15.19S14.38,4.37,30.63,6.27c16.25,1.9,22.28,16.79,22.28,16.79,0,0-5.35-18.81-23.97-19.1C11.82,3.7,5.31,15.19,5.31,15.19Z" style="fill:#ce77b5; mix-blend-mode:multiply; opacity:.6; stroke-width:0px;"/>
        <path d="M105.27,25.65c.95,1.15,7.78,1.29,9.88.75,2.11-.55,26.3-7.99,39.5-7.22,0,0-1.17-6.05-8.07-11.68-6.89-5.63-20.34-4.06-27.61-1.13-7.27,2.93-15.22,17.46-13.71,19.28Z" style="fill:url(#j); stroke-width:0px;"/>
        <g style="clip-path:url(#k);">
          <circle cx="127.88" cy="12.24" r="12.24" transform="translate(.59 29.55) rotate(-13.21)" style="stroke-width: 0px; fill: fillColor;"/>
          <circle cx="127.88" cy="12.24" r="11.07" style="stroke-width: 0px; fill: fillColor; mix-blend-mode: multiply;"/>
          <circle cx="127.88" cy="12.24" r="6.88" style="fill: rgb(33, 36, 33); mix-blend-mode: multiply; opacity: 0.7; stroke-width:0px;"/>
          <path d="M136.91,13.29c1.17,1.01,6.93-1.1,5.76-2.11-1.17-1.01-6.93,1.1-5.76,2.11Z" style="fill:#fffbf8; stroke-width:0px;"/>
          <path d="M136.39,18.07c.19,2.33-5.44,5.42-8.51,5.25-5.01-.29-9.32-3.96-9.44-6.76-.12-2.8,2.47-.7,5.5,1.32,3.03,2.02,6.5,1.37,8.96-.45.86-.64,3.36-1.01,3.5.64Z" style="fill:#ffd59e; mix-blend-mode:soft-light; opacity:.33; stroke-width:0px;"/>
        </g>
        <path d="M151.67,12.92c.74.76,1.33-4.32-.96-8.06S128.53.08,117.83,6.93c0,0,20.19-8.06,33.84,6Z" style="fill:#270039; stroke-width:0px;"/>
        <path d="M154.66,19.18s-2.99-2.06-8.82-.75c-5.83,1.31-14.23,3.95-14.23,3.95,0,0,18.36-3.92,23.05-3.19Z" style="fill: rgb(218, 107, 124); stroke-width: 0px; mix-blend-mode: screen;"/>
        <path d="M105.9,21.92s-.14,3.67,1.6,4.52c0,0-2.68.79-2.91-.48-.23-1.26,1.31-4.04,1.31-4.04Z" style="fill: rgb(218, 107, 124); stroke-width: 0px; mix-blend-mode: screen;"/>
        <path d="M105.65,21.62c3.4-12.84,10.27-16.88,15.45-19.92,0,0-5.75,1.79-9.07,4.86-5.27,4.86-6.38,15.06-6.38,15.06Z" style="fill: rgb(218, 76, 106); stroke-width: 0px; mix-blend-mode: screen;"/>
        <path d="M153.07,15.19c3.93,2.29,6.12,5.98,5.03,7.7-2.14,3.39-13,5.07-11.72,3.82,2.17-2.12,7.35-5.3,7.65-7.57.21-1.6-.96-3.96-.96-3.96Z" style="fill: rgb(237, 113, 114); stroke-width: 0px; mix-blend-mode: screen;"/>
        <path d="M153.07,15.19s-9.08-10.82-25.32-8.92c-16.25,1.9-22.28,16.79-22.28,16.79,0,0,5.35-18.81,23.97-19.1,17.12-.27,23.63,11.23,23.63,11.23Z" style="fill:#ce77b5; mix-blend-mode:multiply; opacity:.6; stroke-width:0px;"/>
      </g>
    </g>
  </g>
</svg>