<?xml version="1.0" encoding="utf-8"?>
<svg viewBox="0 0 149.55 33.08" xmlns="http://www.w3.org/2000/svg" xmlns:xlink="http://www.w3.org/1999/xlink">
  <defs>
    <linearGradient id="d" x1="-217.7" y1="84.8" x2="-217.7" y2="60.71" gradientTransform="translate(234.68 -69.17) rotate(-4.3)" gradientUnits="userSpaceOnUse">
      <stop offset="0" stop-color="#ebdfff"/>
      <stop offset="0.27" stop-color="#e5dcfe"/>
      <stop offset="0.59" stop-color="#d7d5fc"/>
      <stop offset="0.93" stop-color="#bfc8f8"/>
      <stop offset="1" stop-color="#bac6f8"/>
    </linearGradient>
    <linearGradient id="h" x1="-1967.87" y1="-46.83" x2="-1967.87" y2="-70.92" gradientTransform="translate(-1840.27 -69.17) rotate(-175.7) scale(1 -1)" xlink:href="#d"/>
  </defs>
  <g style="isolation:isolate;" transform="matrix(0.9999999999999999, 0, 0, 0.9999999999999999, 0, 0)">
    <g id="b">
      <g id="c">
        <path d="M45.14,31.51c-1.06,1.53-5.54.05-7.55.38C20.73,34.7,2.13,22.77,1.32,16.51.52,10.31,6.84,1.91,12.13,1.51c16.62-1.25,24.09,6.19,29.44,16.15,1.45,2.7,4.59,12.39,3.57,13.85Z" style="fill:url(#d); stroke-width:0px;"/>
        <circle cx="24.52" cy="16.12" r="12.35" transform="translate(-4.71 13.5) rotate(-28.2)" style="stroke-width: 0px; fill: fillColor;"/>
        <path d="M35.66,15.28c.46,6.15-4.15,11.51-10.3,11.98-6.15.46-11.51-4.15-11.98-10.3-.46-6.15,4.15-11.51,10.3-11.98s11.51,4.15,11.98,10.3Z" style="stroke-width: 0px; fill: fillColor; mix-blend-mode: multiply;"/>
        <path d="M31.44,15.6c.29,3.82-2.58,7.15-6.4,7.44-3.82.29-7.15-2.58-7.44-6.4-.29-3.82,2.58-7.15,6.4-7.44,3.82-.29,7.15,2.58,7.44,6.4Z" style="mix-blend-mode: multiply; stroke-width: 0px; fill: rgb(33, 36, 33); opacity: 0.7;"/>
        <path d="M16.69,15.24c-.31,1.89-7.47,4.46-7.16,2.57s7.47-4.46,7.16-2.57Z" style="fill:#fffbf8; stroke-width:0px;"/>
        <path d="M16.4,22.63c-.01,2.36,5.88,5.04,8.96,4.63,5.02-.67,9.08-4.69,8.99-7.51-.09-2.82-2.53-.52-5.43,1.75-2.9,2.26-6.43,1.87-9.04.23-.91-.57-3.46-.76-3.47.91Z" style="fill:#ffd59e; mix-blend-mode:soft-light; opacity:.33; stroke-width:0px;"/>
        <path d="M42.63,19.97s-1.85-13.44-16.37-18.02C14.83-1.66,3.24.26,1.35,3.51c-1.89,3.25-.09,13.87-.09,13.87,0,0,.59-11.86,14.05-12.82,9.81-.7,21.88,2.62,27.32,15.41Z" style="fill:#270039; stroke-width:0px;"/>
        <path d="M1.73,18.21c7.96,6.08,15.44,12.5,28,14.07,0,0-9.94,1.69-16.36.16-6.42-1.53-11.64-14.23-11.64-14.23Z" style="fill: rgb(218, 107, 124); stroke-width: 0px; mix-blend-mode: multiply;"/>
        <path d="M46.31,28.02s-1.65-18.8-5.56-22.17c-3.91-3.37-6.72-3.99-6.72-3.99,0,0,9.07,8.95,12.28,26.16Z" style="fill: rgb(218, 107, 124); stroke-width: 0px; mix-blend-mode: multiply;"/>
        <path d="M45.24,28.1s-5.12,2.06-3.84,4.02c0,0,3.48.89,3.73-.61.25-1.5.11-3.41.11-3.41Z" style="fill: rgb(218, 107, 124); stroke-width: 0px; mix-blend-mode: multiply;"/>
        <path d="M.17,22.57c-.99,1.26,2.52,8.76,4.47,9.33,4.84,1.43,4.85-.21,4.02-1.05-1.19-1.21-7.57-9.46-8.5-8.28Z" style="fill: rgb(237, 113, 114); stroke-width: 0px; mix-blend-mode: multiply;"/>
        <path d="M1.32,16.51S5.54,6.17,18.23,6.5c12.69.33,21.18,9.07,26.25,19.27,0,0-1.67-17.87-21.37-20.91S1.99,12.03,1.32,16.51Z" style="fill:#ce77b5; mix-blend-mode:multiply; opacity:.6; stroke-width:0px;"/>
        <path d="M104.42,31.51c1.06,1.53,5.54.05,7.55.38,16.86,2.81,35.45-9.12,36.26-15.39.8-6.19-5.52-14.6-10.8-15-16.62-1.25-24.09,6.19-29.44,16.15-1.45,2.7-4.59,12.39-3.57,13.85Z" style="fill:url(#h); stroke-width:0px;"/>
        <circle cx="125.03" cy="16.12" r="12.35" transform="translate(92.79 138) rotate(-82.53)" style="stroke-width: 0px; fill: fillColor;"/>
        <path d="M113.9,15.28c-.46,6.15,4.15,11.51,10.3,11.98,6.15.46,11.51-4.15,11.98-10.3.46-6.15-4.15-11.51-10.3-11.98-6.15-.46-11.51,4.15-11.98,10.3Z" style="stroke-width: 0px; mix-blend-mode: multiply; fill: fillColor;"/>
        <path d="M118.12,15.6c-.29,3.82,2.58,7.15,6.4,7.44,3.82.29,7.15-2.58,7.44-6.4.29-3.82-2.58-7.15-6.4-7.44-3.82-.29-7.15,2.58-7.44,6.4Z" style="mix-blend-mode: multiply; stroke-width: 0px; opacity: 0.7; fill: rgb(33, 36, 33);"/>
        <path d="M132.86,15.24c.31,1.89,7.47,4.46,7.16,2.57s-7.47-4.46-7.16-2.57Z" style="fill:#fffbf8; stroke-width:0px;"/>
        <path d="M133.15,22.63c.01,2.36-5.88,5.04-8.96,4.63-5.02-.67-9.08-4.69-8.99-7.51s2.53-.52,5.43,1.75c2.9,2.26,6.43,1.87,9.04.23.91-.57,3.46-.76,3.47.91Z" style="fill:#ffd59e; mix-blend-mode:soft-light; opacity:.33; stroke-width:0px;"/>
        <path d="M106.92,19.97s1.85-13.44,16.37-18.02c11.43-3.6,23.02-1.69,24.91,1.56,1.89,3.25.09,13.87.09,13.87,0,0-.59-11.86-14.05-12.82-9.81-.7-21.88,2.62-27.32,15.41Z" style="fill:#270039; stroke-width:0px;"/>
        <path d="M147.83,18.21c-7.96,6.08-15.44,12.5-28,14.07,0,0,9.94,1.69,16.36.16,6.42-1.53,11.64-14.23,11.64-14.23Z" style="fill: rgb(218, 107, 124); stroke-width: 0px; mix-blend-mode: multiply;"/>
        <path d="M103.24,28.02s1.65-18.8,5.56-22.17c3.91-3.37,6.72-3.99,6.72-3.99,0,0-9.07,8.95-12.28,26.16Z" style="fill: rgb(218, 107, 124); stroke-width: 0px; mix-blend-mode: multiply;"/>
        <path d="M104.31,28.1s5.12,2.06,3.84,4.02c0,0-3.48.89-3.73-.61-.25-1.5-.11-3.41-.11-3.41Z" style="fill: rgb(218, 107, 124); stroke-width: 0px; mix-blend-mode: multiply;"/>
        <path d="M149.38,22.57c.99,1.26-2.52,8.76-4.47,9.33-4.84,1.43-4.85-.21-4.02-1.05,1.19-1.21,7.57-9.46,8.5-8.28Z" style="fill: rgb(237, 113, 114); stroke-width: 0px; mix-blend-mode: multiply;"/>
        <path d="M148.23,16.51s-4.22-10.34-16.91-10.01c-12.69.33-21.18,9.07-26.25,19.27,0,0,1.67-17.87,21.37-20.91,19.7-3.04,21.12,7.17,21.78,11.65Z" style="fill:#ce77b5; mix-blend-mode:multiply; opacity:.6; stroke-width:0px;"/>
      </g>
    </g>
  </g>
</svg>