<?xml version="1.0" encoding="utf-8"?>
<svg viewBox="0 0 149.48 37.85" xmlns="http://www.w3.org/2000/svg" xmlns:xlink="http://www.w3.org/1999/xlink">
  <defs>
    <linearGradient id="d" x1="2.95" y1="14.32" x2="45.78" y2="14.32" gradientUnits="userSpaceOnUse">
      <stop offset="0" stop-color="#fa9b76"/>
      <stop offset="0.11" stop-color="#f89b7c"/>
      <stop offset="0.43" stop-color="#f69e8a"/>
      <stop offset="0.65" stop-color="#fb9783"/>
      <stop offset="1" stop-color="#ff937f"/>
    </linearGradient>
    <linearGradient id="e" x1="24.64" y1="36.05" x2="24.64" y2="5.57" gradientUnits="userSpaceOnUse">
      <stop offset="0" stop-color="#ebdfff"/>
      <stop offset="0.27" stop-color="#e5dcfe"/>
      <stop offset="0.59" stop-color="#d7d5fc"/>
      <stop offset="0.93" stop-color="#bfc8f8"/>
      <stop offset="1" stop-color="#bac6f8"/>
    </linearGradient>
    <clipPath id="f">
      <path id="g" d="M47.91,34.62c-2.1-12.41-15.1-20.84-23.06-22.83-7.97-1.98-20.97.5-23.48,5.95,0,0,4.78,9.97,16.1,14.43,11.32,4.47,19,1.39,23.38,2.2,1.75.32,7.07.24,7.07.24Z" style="fill:none; stroke-width:0px;"/>
    </clipPath>
    <linearGradient id="k" x1="-1745.99" x2="-1703.16" gradientTransform="translate(-1599.46) rotate(-180) scale(1 -1)" xlink:href="#d"/>
    <linearGradient id="l" x1="-1724.3" y1="36.05" x2="-1724.3" y2="5.57" gradientTransform="translate(-1599.46) rotate(-180) scale(1 -1)" xlink:href="#e"/>
    <clipPath id="m">
      <path id="n" d="M101.57,34.62c2.1-12.41,15.1-20.84,23.06-22.83,7.97-1.98,20.97.5,23.48,5.95,0,0-4.78,9.97-16.1,14.43-11.32,4.47-19,1.39-23.38,2.2-1.75.32-7.07.24-7.07.24Z" style="fill:none; stroke-width:0px;"/>
    </clipPath>
  </defs>
  <g style="isolation:isolate;" transform="matrix(1, 0, 0, 1, 0, 7.105427357601002e-15)">
    <g id="b">
      <g id="c">
        <path d="M45.78,28.27s-4.26-19.6-8.74-24.23C27.48-5.83,8,6.33,3.24,15.42l-.3,1.63s14.73-11.5,26.5-4.28,16.33,15.5,16.33,15.5Z" style="fill: url('#d'); stroke-width: 0px; mix-blend-mode: multiply;"/>
        <path d="M47.91,34.62c-2.1-12.41-15.1-20.84-23.06-22.83-7.97-1.98-20.97.5-23.48,5.95,0,0,4.78,9.97,16.1,14.43,11.32,4.47,19.08.87,23.38,2,2.38.62,7.06.44,7.06.44Z" style="fill:url(#e); stroke-width:0px;"/>
        <path d="M2.18,19.87S-.29,17.5.03,13.67C.03,13.67,15.64,3.66,27.48,8.97c11.84,5.31,17.42,17.71,17.42,17.71,0,0-14.31-20.56-33.59-14.25-8.03,2.63-9.14,7.44-9.14,7.44Z" style="fill:#270039; stroke-width:0px;"/>
        <path d="M42.78,16.88s-3.38-26.01-32.21-9.58c0,0,17.47-13.96,26.46-3.25,3.51,4.18,5.75,12.84,5.75,12.84Z" style="fill:#da6b7c; stroke-width:0px;"/>
        <path d="M4.17,22.07s7.31,9.52,20.02,11.7c0,0-8.92-.69-13.32-3.66-6.52-4.41-6.7-8.04-6.7-8.04Z" style="fill: rgb(218, 107, 124); stroke-width: 0px; mix-blend-mode: multiply;"/>
        <path d="M47.91,34.62c-2.03.42-6.22-.25-7.29-.25-.5,0,1.81-.59,3.17-1.83,1.54-1.4,2.21-3.45,2.58-3.04.69.78,2.36,4.94,1.54,5.11Z" style="fill:#da6b7c; stroke-width:0px;"/>
        <g style="clip-path:url(#f);">
          <circle cx="23.9" cy="19.81" r="12.39" transform="translate(-.9 38.49) rotate(-76.65)" style="stroke-width: 0px; fill: fillColor;"/>
          <circle cx="23.9" cy="19.81" r="11.21" transform="translate(.5 40.21) rotate(-80.75)" style="stroke-width: 0px; fill: fillColor; mix-blend-mode: multiply;"/>
          <path d="M30.86,19.81c0,3.85-3.12,6.96-6.96,6.96s-6.96-3.12-6.96-6.96,3.12-6.96,6.96-6.96,6.96,3.12,6.96,6.96Z" style="mix-blend-mode: multiply; stroke-width: 0px; opacity: 0.7; fill: rgb(33, 36, 33);"/>
          <path d="M16.14,20.35c-1.34,1.38-8.71-.61-7.37-1.99,1.34-1.38,8.71.61,7.37,1.99Z" style="fill:#fffbf8; stroke-width:0px;"/>
          <path d="M15.28,25.71c-.19,2.36,5.51,5.49,8.62,5.31,5.07-.3,9.44-4.01,9.56-6.84.12-2.83-2.5-.71-5.57,1.34s-6.58,1.39-9.07-.45c-.87-.64-3.41-1.02-3.54.65Z" style="fill:#ffd59e; mix-blend-mode:soft-light; opacity:.33; stroke-width:0px;"/>
        </g>
        <path d="M31.12,2.73c-2.95.17-3.9,4.01-3.64,4.8.26.78,7.7,5.22,9.65,7.81,1.95,2.59,3.56-4.9,1.78-7.33-1.77-2.43-5.25-5.41-7.79-5.27Z" style="fill:#fff9b5; mix-blend-mode:soft-light; opacity:.5; stroke-width:0px;"/>
        <path d="M1.66,24.26c-.88,1.91,2.37,10.12,4.64,11.13,2.28,1.01,7.07-.03,6.38-.93-.69-.9-9.97-12.48-11.02-10.2Z" style="fill: rgb(237, 113, 114); stroke-width: 0px; mix-blend-mode: multiply;"/>
        <path d="M48.06,33.77s3.41-17.91-6.34-29.52c0,0,2.28,4.58,3.98,13.24,1,5.1,2.2,13.48,2.36,16.27Z" style="fill: rgb(218, 107, 124); stroke-width: 0px; mix-blend-mode: multiply;"/>
        <path d="M45.21,33.77s-5.44.19-20.02,4.04c0,0,7.5.29,12.13-.79,4.63-1.07,7.89-3.25,7.89-3.25Z" style="fill:#da6b7c; stroke-width:0px;"/>
        <path d="M103.71,28.27s4.26-19.6,8.74-24.23c9.56-9.87,29.04,2.29,33.79,11.38l.3,1.63s-14.73-11.5-26.5-4.28c-11.77,7.21-16.33,15.5-16.33,15.5Z" style="fill: url('#k'); stroke-width: 0px; mix-blend-mode: multiply;"/>
        <path d="M101.57,34.62c2.1-12.41,15.1-20.84,23.06-22.83,7.97-1.98,20.97.5,23.48,5.95,0,0-4.78,9.97-16.1,14.43-11.32,4.47-19.08.87-23.39,2-2.38.62-7.06.44-7.06.44Z" style="fill:url(#l); stroke-width:0px;"/>
        <path d="M147.31,19.87s2.46-2.37,2.15-6.21c0,0-15.62-10.01-27.45-4.69-11.84,5.31-17.42,17.71-17.42,17.71,0,0,14.31-20.56,33.59-14.25,8.03,2.63,9.14,7.44,9.14,7.44Z" style="fill:#270039; stroke-width:0px;"/>
        <path d="M106.7,16.88s3.38-26.01,32.21-9.58c0,0-17.47-13.96-26.46-3.25-3.51,4.18-5.75,12.84-5.75,12.84Z" style="fill:#da6b7c; stroke-width:0px;"/>
        <path d="M145.31,22.07s-7.31,9.52-20.02,11.7c0,0,8.92-.69,13.32-3.66,6.52-4.41,6.7-8.04,6.7-8.04Z" style="fill: rgb(218, 107, 124); stroke-width: 0px; mix-blend-mode: multiply;"/>
        <path d="M101.57,34.62c2.03.42,6.22-.25,7.29-.25.5,0-1.81-.59-3.17-1.83-1.54-1.4-2.21-3.45-2.58-3.04-.69.78-2.36,4.94-1.54,5.11Z" style="fill: rgb(218, 107, 124); stroke-width: 0px; mix-blend-mode: multiply;"/>
        <g style="clip-path:url(#m);">
          <circle cx="125.59" cy="19.81" r="12.39" transform="translate(42.6 116.13) rotate(-58.22)" style="stroke-width: 0px; fill: fillColor;"/>
          <circle cx="125.59" cy="19.81" r="11.21" transform="translate(-1.48 24.07) rotate(-10.89)" style="stroke-width: 0px; mix-blend-mode: multiply; fill: fillColor;"/>
          <path d="M118.62,19.81c0,3.85,3.12,6.96,6.96,6.96s6.96-3.12,6.96-6.96-3.12-6.96-6.96-6.96-6.96,3.12-6.96,6.96Z" style="mix-blend-mode: multiply; stroke-width: 0px; fill: rgb(33, 36, 33); opacity: 0.7;"/>
          <path d="M133.35,20.35c1.34,1.38,8.71-.61,7.37-1.99-1.34-1.38-8.71.61-7.37,1.99Z" style="fill:#fffbf8; stroke-width:0px;"/>
          <path d="M134.2,25.71c.19,2.36-5.51,5.49-8.62,5.31-5.07-.3-9.44-4.01-9.56-6.84-.12-2.83,2.5-.71,5.57,1.34s6.58,1.39,9.07-.45c.87-.64,3.41-1.02,3.54.65Z" style="fill:#ffd59e; mix-blend-mode:soft-light; opacity:.33; stroke-width:0px;"/>
        </g>
        <path d="M118.36,2.73c2.95.17,3.9,4.01,3.64,4.8-.26.78-7.7,5.22-9.65,7.81-1.95,2.59-3.56-4.9-1.78-7.33,1.78-2.43,5.25-5.41,7.79-5.27Z" style="fill:#fff9b5; mix-blend-mode:soft-light; opacity:.5; stroke-width:0px;"/>
        <path d="M147.83,24.26c.88,1.91-2.37,10.12-4.64,11.13-2.28,1.01-7.07-.03-6.38-.93s9.97-12.48,11.03-10.2Z" style="fill: rgb(237, 113, 114); stroke-width: 0px; mix-blend-mode: multiply;"/>
        <path d="M101.42,33.77s-3.41-17.91,6.34-29.52c0,0-2.28,4.58-3.98,13.24-1,5.1-2.2,13.48-2.36,16.27Z" style="fill: rgb(218, 107, 124); stroke-width: 0px; mix-blend-mode: multiply;"/>
        <path d="M104.27,33.77s5.44.19,20.02,4.04c0,0-7.5.29-12.13-.79-4.63-1.07-7.89-3.25-7.89-3.25Z" style="fill: rgb(218, 107, 124); stroke-width: 0px; mix-blend-mode: multiply;"/>
      </g>
    </g>
  </g>
</svg>