<?xml version="1.0" encoding="utf-8"?>
<svg viewBox="0 0 162.23 32.75" xmlns="http://www.w3.org/2000/svg" xmlns:xlink="http://www.w3.org/1999/xlink">
  <defs>
    <linearGradient id="d" x1="845.05" y1="-353.4" x2="845.05" y2="-378.29" gradientTransform="translate(-859.81 260.87) rotate(7.99)" gradientUnits="userSpaceOnUse">
      <stop offset="0" stop-color="#ebdfff"/>
      <stop offset="0.27" stop-color="#e5dcfe"/>
      <stop offset="0.59" stop-color="#d7d5fc"/>
      <stop offset="0.93" stop-color="#bfc8f8"/>
      <stop offset="1" stop-color="#bac6f8"/>
    </linearGradient>
    <clipPath id="e">
      <path id="f" d="M40.37,8.86C34.28,4.15,24.04.72,16.93,2.66c-7.11,1.94-12.28,8.01-12.88,11.05-.6,3.05,6.55,10.21,10.43,12.61,5.76,3.57,26.31,3.76,28.79,4.19,2.16.37,5.96,3,6.63,2.01,2.24-3.34-3.44-18.96-9.53-23.67Z" style="fill:none; stroke-width:0px;"/>
    </clipPath>
    <linearGradient id="j" x1="-892.15" y1="-109.56" x2="-892.15" y2="-134.45" gradientTransform="translate(-732.21 260.87) rotate(172.01) scale(1 -1)" xlink:href="#d"/>
    <clipPath id="k">
      <path id="l" d="M121.86,8.86c6.09-4.71,16.34-8.14,23.44-6.2,7.11,1.94,12.28,8.01,12.88,11.05s-6.55,10.21-10.43,12.61c-5.76,3.57-26.31,3.76-28.79,4.19-2.16.37-5.96,3-6.63,2.01-2.24-3.34,3.44-18.96,9.53-23.67Z" style="fill:none; stroke-width:0px;"/>
    </clipPath>
  </defs>
  <g style="isolation:isolate;" transform="matrix(0.9999999999999999, 0, 0, 0.9999999999999999, 0, 0)">
    <g id="b">
      <g id="c">
        <path d="M42.87,11.52c-5.5-4.67-17.08-8.34-24.33-7.75-7.26.59-14.01,7.18-14.96,9.57-.94,2.39,4.08,11.42,8.1,13.36,4.02,1.94,29.1,3.47,31.6,3.82,2.49.35,5.99,2.81,6.63,2.01,2.47-3.08-1.54-16.34-7.04-21.01Z" style="fill:url(#d); stroke-width:0px;"/>
        <g style="clip-path:url(#e);">
          <circle cx="28.8" cy="16.5" r="13.35" transform="translate(.58 33.97) rotate(-61.56)" style="stroke-width: 0px; fill: fillColor;"/>
          <circle cx="28.8" cy="16.5" r="12.08" transform="translate(-3.23 25.2) rotate(-45)" style="stroke-width: 0px; mix-blend-mode: multiply; fill: fillColor;"/>
          <circle cx="28.8" cy="16.5" r="7.5" transform="translate(-3.96 21.83) rotate(-39.05)" style="mix-blend-mode: multiply; stroke-width: 0px; fill: rgb(33, 36, 33); opacity: 0.7;"/>
          <path d="M18.95,17.65c-1.28,1.1-7.56-1.2-6.29-2.3,1.28-1.1,7.56,1.2,6.29,2.3Z" style="fill:#fffbf8; stroke-width:0px;"/>
          <path d="M19.52,22.85c-.2,2.54,5.94,5.92,9.28,5.72,5.47-.32,10.17-4.32,10.3-7.38s-2.69-.76-6,1.44-7.09,1.5-9.77-.49c-.94-.69-3.67-1.1-3.81.7Z" style="fill:#ffd59e; mix-blend-mode:soft-light; opacity:.33; stroke-width:0px;"/>
        </g>
        <path d="M51.65,26.69s2.54-7.24-.87-13.88-12.54-9.61-12.54-9.61c0,0,12.74,5.79,13.41,23.49Z" style="fill: rgb(218, 76, 106); stroke-width: 0px; mix-blend-mode: multiply;"/>
        <path d="M50.62,28.21c-1.9,2.31-7.34,2.31-7.34,2.31,0,0,4.85,2.54,6.63,2.01,1.77-.52.71-4.32.71-4.32Z" style="fill: rgb(218, 107, 124); stroke-width: 0px; mix-blend-mode: multiply;"/>
        <path d="M3.98,16.43c1.87,3.87,9.34,10.53,17.62,12.06.25.05.49.09.74.12,8.57,1.25-5.99-.02-10.66-1.9-4.67-1.89-7.7-10.28-7.7-10.28Z" style="fill: rgb(218, 107, 124); stroke-width: 0px; mix-blend-mode: multiply;"/>
        <path d="M1.59,16.67c-2.48,4.33-1.79,8.08.18,9.29,2.79,1.72,10.01,2.97,9.13,2.09C4.49,21.73,2.7,14.75,1.59,16.67Z" style="fill: rgb(237, 113, 114); stroke-width: 0px; mix-blend-mode: multiply;"/>
        <path d="M4.27,12.18s12.15-9.57,28.3-3.41c16.15,6.16,17.94,18.6,17.94,18.6,0,0-1.78-16.87-17-21.01-13.81-3.76-22.54-2.15-29.24,5.82Z" style="fill:#ce77b5; mix-blend-mode:multiply; opacity:.6; stroke-width:0px;"/>
        <path d="M3.58,13.35S7.87,6.35,20.18,4.66c7.63-1.05,21.12,2.89,27.44,13.06,0,0-2.3-8.16-11.71-12.84C23.88-1.11,13.69-.21,10.41.54c-3.27.75-6.83,12.81-6.83,12.81Z" style="fill:#270039; stroke-width:0px;"/>
        <path d="M119.36,11.52c5.5-4.67,17.08-8.34,24.33-7.75,7.26.59,14.01,7.18,14.96,9.57.94,2.39-4.08,11.42-8.1,13.36-4.02,1.94-29.1,3.47-31.6,3.82-2.49.35-5.99,2.81-6.63,2.01-2.47-3.08,1.54-16.34,7.04-21.01Z" style="fill:url(#j); stroke-width:0px;"/>
        <g style="clip-path:url(#k);">
          <circle cx="133.43" cy="16.5" r="13.35" transform="translate(-.92 21.5) rotate(-9.18)" style="stroke-width: 0px; fill: fillColor;"/>
          <circle cx="133.43" cy="16.5" r="12.08" transform="translate(-.24 30.93) rotate(-13.21)" style="stroke-width: 0px; fill: fillColor; mix-blend-mode: multiply;"/>
          <circle cx="133.43" cy="16.5" r="7.5" transform="translate(-.23 31) rotate(-13.24)" style="mix-blend-mode: multiply; stroke-width: 0px; opacity: 0.7; fill: rgb(33, 36, 33);"/>
          <path d="M143.28,17.65c1.28,1.1,7.56-1.2,6.29-2.3-1.28-1.1-7.56,1.2-6.29,2.3Z" style="fill:#fffbf8; stroke-width:0px;"/>
          <path d="M142.71,22.85c.2,2.54-5.94,5.92-9.28,5.72-5.47-.32-10.17-4.32-10.3-7.38-.13-3.05,2.69-.76,6,1.44s7.09,1.5,9.77-.49c.94-.69,3.67-1.1,3.81.7Z" style="fill:#ffd59e; mix-blend-mode:soft-light; opacity:.33; stroke-width:0px;"/>
        </g>
        <path d="M110.59,26.69s-2.54-7.24.87-13.88c3.41-6.64,12.54-9.61,12.54-9.61,0,0-12.74,5.79-13.41,23.49Z" style="fill: rgb(218, 76, 106); stroke-width: 0px; mix-blend-mode: multiply;"/>
        <path d="M111.62,28.21c1.9,2.31,7.34,2.31,7.34,2.31,0,0-4.85,2.54-6.63,2.01-1.77-.52-.71-4.32-.71-4.32Z" style="fill: rgb(218, 107, 124); stroke-width: 0px; mix-blend-mode: multiply;"/>
        <path d="M158.26,16.43c-1.87,3.87-9.34,10.53-17.62,12.06-.25.05-.49.09-.74.12-8.57,1.25,5.99-.02,10.66-1.9,4.67-1.89,7.7-10.28,7.7-10.28Z" style="fill: rgb(218, 107, 124); stroke-width: 0px; mix-blend-mode: multiply;"/>
        <path d="M160.64,16.67c2.48,4.33,1.79,8.08-.18,9.29-2.79,1.72-10.01,2.97-9.13,2.09,6.4-6.32,8.2-13.31,9.3-11.38Z" style="fill: rgb(237, 113, 114); stroke-width: 0px; mix-blend-mode: multiply;"/>
        <path d="M157.97,12.18s-12.15-9.57-28.3-3.41-17.94,18.6-17.94,18.6c0,0,1.78-16.87,17-21.01,13.81-3.76,22.54-2.15,29.24,5.82Z" style="fill:#ce77b5; mix-blend-mode:multiply; opacity:.6; stroke-width:0px;"/>
        <path d="M158.65,13.35s-4.29-6.99-16.59-8.69c-7.63-1.05-21.12,2.89-27.44,13.06,0,0,2.3-8.16,11.71-12.84,12.03-5.98,22.22-5.09,25.5-4.34,3.27.75,6.83,12.81,6.83,12.81Z" style="fill:#270039; stroke-width:0px;"/>
      </g>
    </g>
  </g>
</svg>