<?xml version="1.0" encoding="utf-8"?>
<svg viewBox="0 0 153.38 31.82" xmlns="http://www.w3.org/2000/svg" xmlns:xlink="http://www.w3.org/1999/xlink">
  <defs>
    <linearGradient id="d" x1="-9592.47" y1="-16.5" x2="-9592.47" y2="-39.22" gradientTransform="translate(-9531.52 -810.2) rotate(-174.88) scale(1 -1)" gradientUnits="userSpaceOnUse">
      <stop offset="0" stop-color="#ebdfff"/>
      <stop offset="1" stop-color="#bac6f8"/>
    </linearGradient>
    <clipPath id="e">
      <path id="f" d="M48.48,30.26s-.93-17.34-20.32-23.94C8.77-.29.73,17.35.73,17.35c0,0,5.56,4.67,17.27,9.13,11.71,4.46,21.14,5.29,30.49,3.78Z" style="fill:none; stroke-width:0px;"/>
    </clipPath>
    <linearGradient id="i" x1="-253.95" y1="-23.1" x2="-253.95" y2="-33.46" gradientTransform="translate(278.05 69.09) rotate(5.12)" gradientUnits="userSpaceOnUse">
      <stop offset="0" stop-color="#caa7db"/>
      <stop offset="0.99" stop-color="#8460b8"/>
    </linearGradient>
    <linearGradient id="j" x1="292.2" y1="-35.64" x2="335.22" y2="-35.64" gradientTransform="translate(-290.35 18.11) rotate(5.12)" gradientUnits="userSpaceOnUse">
      <stop offset="0" stop-color="#fa9b76"/>
      <stop offset="0.11" stop-color="#f89b7c"/>
      <stop offset="0.43" stop-color="#f69e8a"/>
      <stop offset="0.65" stop-color="#fb9783"/>
      <stop offset="1" stop-color="#ff937f"/>
    </linearGradient>
    <linearGradient id="k" x1="-8745.28" y1="59.46" x2="-8745.28" y2="36.73" gradientTransform="translate(8834.31 -810.2) rotate(-5.12)" xlink:href="#d"/>
    <clipPath id="l">
      <path id="m" d="M104.89,30.26s.93-17.34,20.32-23.94c19.39-6.6,27.43,11.03,27.43,11.03,0,0-5.56,4.67-17.27,9.13-11.71,4.46-21.14,5.29-30.49,3.78Z" style="fill:none; stroke-width:0px;"/>
    </clipPath>
    <linearGradient id="p" x1="-1101.14" y1="52.86" x2="-1101.14" y2="42.5" gradientTransform="translate(-975.27 69.09) rotate(174.88) scale(1 -1)" xlink:href="#i"/>
    <linearGradient id="q" x1="-555" y1="40.32" x2="-511.98" y2="40.32" gradientTransform="translate(-406.86 18.11) rotate(174.88) scale(1 -1)" xlink:href="#j"/>
  </defs>
  <g style="isolation:isolate;">
    <g id="b">
      <g id="c">
        <path d="M.8,16.55s3.23,6.79,15,10.58c11.77,3.79,24.62,5.03,32.68,3.13,0,0-.14-2.2-1.26-5.27,0,0,0,0,0-.01-1.95-5.32-6.88-13.23-19.22-16.81C10.87,3.2,2.84,13.44,1.14,15.99c-.23.36-.34.56-.34.56Z" style="fill:url(#d); stroke-width:0px;"/>
        <g style="clip-path:url(#e);">
          <path d="M39.42,19.72c-.59,6.52-6.35,11.34-12.87,10.75-6.52-.59-11.34-6.35-10.75-12.87s6.35-11.34,12.87-10.75,11.34,6.35,10.75,12.87Z" style="stroke-width: 0px; stroke: fillColor; fill: fillColor;"/>
          <path d="M38.48,19.64c-.54,6-5.84,10.44-11.85,9.9s-10.44-5.84-9.9-11.85,5.84-10.44,11.85-9.9c6,.54,10.44,5.84,9.9,11.85Z" style="stroke-width: 0px; fill: fillColor; mix-blend-mode: multiply;"/>
          <circle cx="27.61" cy="18.66" r="6.69" style="fill: rgb(33, 36, 33); mix-blend-mode: multiply; opacity: 0.7; stroke-width:0px;"/>
          <path d="M20.67,21.73c-.65-.3-2.85-.56-2.91.08-.06.65,2.18,6.77,8.76,7.36,6.58.59,9.92-4.33,9.99-5.03s-1.83-1.66-2.7-1.54c-.88.12-2.61,3.32-6.85,3.06-3.36-.21-5.31-3.49-6.28-3.93Z" style="fill:#ffd59e; mix-blend-mode:soft-light; opacity:.33; stroke-width:0px;"/>
        </g>
        <path d="M1.14,15.99c4.6-2.3,12.52-4.29,23.24-3.33,13.26,1.19,22.45,11.45,22.83,12.32-1.95-5.32-6.88-13.23-19.22-16.81C10.87,3.2,2.84,13.44,1.14,15.99Z" style="fill:#ce77b5; mix-blend-mode:multiply; opacity:.6; stroke-width:0px;"/>
        <path d="M45.87,21.94s.2-12.9-13.68-18.97C14.83-4.61,3.46,13.18,3.46,13.18c0,0,23.38-17.55,42.41,8.76Z" style="fill: url('#j'); stroke-width: 0px; mix-blend-mode: screen;"/>
        <path d="M40.85,31.12c-1.46,0-21.03-1.09-38.14-11.92-.33-.21,4.52,6.79,14.82,9.78,14.11,4.1,23.32,2.14,23.32,2.14Z" style="fill: rgb(218, 107, 124); stroke-width: 0px; mix-blend-mode: screen;"/>
        <path d="M46.6,23.52s3.76,6.12,3.14,7.67-6.18-.22-6.18-.22c0,0,3.27-1.35,3.33-2.37.06-1.02-.29-5.08-.29-5.08Z" style="fill: rgb(222, 136, 149); stroke-width: 0px; mix-blend-mode: screen;"/>
        <path d="M1.71,15.2s1.95-5.74,3.7-7.34c1.75-1.6,12.03-4.3,23.21-1.9,11.18,2.41,16.14,12.03,18.29,18.23,0,0-8.25-14.28-23.19-15.39C8.78,7.69,1.71,15.2,1.71,15.2Z" style="fill:#270039; stroke-width:0px;"/>
        <path d="M21.9,16.8c.48.46-7.95,1.63-8.32.89-.37-.74,7.25-1.92,8.32-.89Z" style="fill:#fff; stroke-width:0px;"/>
        <path d="M.44,19.93c-1.21.76.2,6.27,2.88,7.7,2.68,1.43,8.37,1.99,7.94.77-.43-1.21-9.44-9.34-10.82-8.47Z" style="fill: rgb(237, 113, 114); stroke-width: 0px; mix-blend-mode: screen;"/>
        <path d="M40.7,9.08S29.9-3.67,14.87,3.15c0,0,5.62-5,14.35-2.4,7.63,2.27,11.49,8.33,11.49,8.33Z" style="fill: rgb(218, 107, 124); stroke-width: 0px; mix-blend-mode: screen;"/>
        <path d="M152.58,16.55s-3.23,6.79-15,10.58-24.62,5.03-32.68,3.13c0,0,.14-2.2,1.26-5.27,0,0,0,0,0-.01,1.95-5.32,6.88-13.23,19.22-16.81,17.12-4.96,25.15,5.27,26.85,7.82.23.36.34.56.34.56Z" style="fill:url(#k); stroke-width:0px;"/>
        <g style="clip-path:url(#l);">
          <path d="M113.95,19.72c.59,6.52,6.35,11.34,12.87,10.75,6.52-.59,11.34-6.35,10.75-12.87-.59-6.52-6.35-11.34-12.87-10.75-6.52.59-11.34,6.35-10.75,12.87Z" style="stroke-width: 0px; fill: fillColor;"/>
          <path d="M114.89,19.64c.54,6,5.84,10.44,11.85,9.9s10.44-5.84,9.9-11.85c-.54-6-5.84-10.44-11.85-9.9s-10.44,5.84-9.9,11.85Z" style="stroke-width: 0px; fill: fillColor; mix-blend-mode: multiply;"/>
          <circle cx="125.77" cy="18.66" r="6.69" style="fill: rgb(33, 36, 33); mix-blend-mode: multiply; opacity: 0.7; stroke-width: 0px;"/>
          <path d="M132.7,21.73c.65-.3,2.85-.56,2.91.08.06.65-2.18,6.77-8.76,7.36-6.58.59-9.92-4.33-9.99-5.03s1.83-1.66,2.7-1.54c.88.12,2.61,3.32,6.85,3.06,3.36-.21,5.31-3.49,6.28-3.93Z" style="fill:#ffd59e; mix-blend-mode:soft-light; opacity:.33; stroke-width:0px;"/>
        </g>
        <path d="M152.23,15.99c-4.6-2.3-12.52-4.29-23.24-3.33-13.26,1.19-22.45,11.45-22.83,12.32,1.95-5.32,6.88-13.23,19.22-16.81,17.12-4.96,25.15,5.27,26.85,7.82Z" style="fill:#ce77b5; mix-blend-mode:multiply; opacity:.6; stroke-width:0px;"/>
        <path d="M107.51,21.94s-.2-12.9,13.68-18.97c17.35-7.58,28.72,10.2,28.72,10.2,0,0-23.38-17.55-42.41,8.76Z" style="fill: url('#q'); stroke-width: 0px; mix-blend-mode: screen;"/>
        <path d="M112.53,31.12c1.46,0,21.03-1.09,38.14-11.92.33-.21-4.52,6.79-14.82,9.78-14.11,4.1-23.32,2.14-23.32,2.14Z" style="fill: rgb(218, 107, 124); stroke-width: 0px; mix-blend-mode: screen;"/>
        <path d="M106.77,23.52s-3.76,6.12-3.14,7.67c.62,1.55,6.18-.22,6.18-.22,0,0-3.27-1.35-3.33-2.37s.29-5.08.29-5.08Z" style="fill: rgb(222, 136, 149); stroke-width: 0px; mix-blend-mode: screen;"/>
        <path d="M151.67,15.2s-1.95-5.74-3.7-7.34c-1.75-1.6-12.03-4.3-23.21-1.9-11.18,2.41-16.14,12.03-18.29,18.23,0,0,8.25-14.28,23.19-15.39,14.94-1.11,22.01,6.4,22.01,6.4Z" style="fill:#270039; stroke-width:0px;"/>
        <path d="M131.47,16.8c-.48.46,7.95,1.63,8.32.89.37-.74-7.25-1.92-8.32-.89Z" style="fill:#fff; stroke-width:0px;"/>
        <path d="M152.94,19.93c1.21.76-.2,6.27-2.88,7.7-2.68,1.43-8.37,1.99-7.94.77s9.44-9.34,10.82-8.47Z" style="fill: rgb(237, 113, 114); stroke-width: 0px; mix-blend-mode: screen;"/>
        <path d="M112.67,9.08s10.8-12.75,25.84-5.93c0,0-5.62-5-14.35-2.4-7.63,2.27-11.49,8.33-11.49,8.33Z" style="fill: rgb(218, 107, 124); stroke-width: 0px; mix-blend-mode: screen;"/>
      </g>
    </g>
  </g>
</svg>