<?xml version="1.0" encoding="utf-8"?>
<svg viewBox="122.7162 234.5946 281.4404 62.2914" xmlns="http://www.w3.org/2000/svg" xmlns:xlink="http://www.w3.org/1999/xlink">
  <defs>
    <linearGradient id="b" x1="125.12" y1="25.8" x2="125.12" y2="-.35" gradientTransform="translate(257.76 -11.26) rotate(172.35) scale(1 -1)" gradientUnits="userSpaceOnUse">
      <stop offset="0" stop-color="#ffe7e3"/>
      <stop offset="1" stop-color="#ffe6e4"/>
    </linearGradient>
    <linearGradient id="d" x1="154.84" y1="21.81" x2="154.84" y2="-4.34" gradientTransform="translate(-115.42 -11.26) rotate(7.65)" xlink:href="#b"/>
  </defs>
  <path d="M111.97,27.78s.92.79,3.08.96c1.65.12,7.3,2.61,16.42,2.56,1.36-.02,2.8-.06,4.31-.2h.02c1.52-.14,3.09-.35,4.76-.65,2.34-.41,4.47-.99,6.36-1.71h.02s.02,0,.05,0c9.74-3.56,13.6-10,13.12-11.6-.47-1.58-4.27-10.11-15.4-12.13-2.21-.42-4.7-.57-7.5-.36-3.2.24-5.89.8-8.11,1.58-9.57,3.39-11.12,10.99-13.52,15.27-2.94,5.27-3.71,5.06-3.62,6.28Z" style="fill:url(#b); stroke-width:0px;" transform="matrix(1.6332429647445679, 0, 0, 1.6332429647445679, 122.7162094116211, 234.5899963378906)"/>
  <path d="M125.49,31.11c1.35.17,2.78.32,4.3.4h.02c1.52.07,3.11.07,4.8,0,2.38-.1,4.56-.4,6.53-.86-.02.02-.07.05-.12.07.07,0,.12-.05.19-.07.09-.05.17-.1.24-.15.09-.05.19-.1.28-.15.21-.12.43-.25.62-.37.19-.12.36-.25.52-.37,7.67-5.14,7.65-14.77,3.9-19.27-1.52-1.83-3.09-3.24-4.68-4.3-2.14-.74-4.58-1.23-7.39-1.41-3.21-.2-5.94,0-8.24.49-1.9,1.09-3.44,2.54-4.47,4.15-2.87,4.47-3.61,17.14,3.49,21.84Z" style="stroke-width: 0px;" transform="matrix(1.6332429647445679, 0, 0, 1.6332429647445679, 122.7162094116211, 234.5899963378906)"/>
  <path d="M126.55,18.41c0,4.02,3.11,7.1,6.95,6.86,3.84-.23,6.95-3.69,6.95-7.71s-3.11-7.1-6.95-6.86c-3.84.23-6.95,3.69-6.95,7.71Z" style="fill:#975995; mix-blend-mode:multiply; opacity:.79; stroke-width:0px;" transform="matrix(1.6332429647445679, 0, 0, 1.6332429647445679, 122.7162094116211, 234.5899963378906)"/>
  <path d="M129.79,31.51h.02c1.52.07,3.11.07,4.8,0,2.38-.1,4.56-.4,6.53-.86h.02c.1-.05.19-.1.29-.15.09-.05.19-.1.28-.15.21-.12.43-.25.62-.37.19-.12.36-.25.52-.37,1.09-.86,1.5-1.63,1.5-1.63,1.5-1.88-2.78-5.06-3.28-5.29-.5-.22-3.04,3.16-6.87,3.16-3.82.02-4.13-1.61-5.56-2.42-1.43-.79-5.87,2.1-6.32,2.87-.38.69,1.26,4,7.43,5.21Z" style="fill:#ffc7ac; mix-blend-mode:soft-light; opacity:.5; stroke-width:0px;" transform="matrix(1.6332429647445679, 0, 0, 1.6332429647445679, 122.7162094116211, 234.5899963378906)"/>
  <path d="M137.04,23.17c2.38-1.99-2.71-7.38-6.84-8.59-4.12-1.2-3.51,5.19-.81,8.55,2.7,3.36,7.64.04,7.64.04Z" style="fill:#ffc7ac; mix-blend-mode:soft-light; opacity:.3; stroke-width:0px;" transform="matrix(1.6332429647445679, 0, 0, 1.6332429647445679, 122.7162094116211, 234.5899963378906)"/>
  <path d="M159.21,19.31s-3.22,5.34-10.01,8.54c-6.79,3.19-14.72,3.49-14.72,3.49,0,0,9.81.74,16.01-2.69,6.2-3.43,8.72-9.34,8.72-9.34Z" style="fill:#e24c5b; stroke-width:0px;" transform="matrix(1.6332429647445679, 0, 0, 1.6332429647445679, 122.7162094116211, 234.5899963378906)"/>
  <path d="M114.31,23.06c-.85,3.21,2.19,6,2.19,6,0,0-4.31-.41-5.28-.89-.97-.48,3.09-5.11,3.09-5.11Z" style="fill: rgb(226, 76, 91); stroke-width: 0px; opacity: 0.5; mix-blend-mode: multiply;" transform="matrix(1.6332429647445679, 0, 0, 1.6332429647445679, 122.7162094116211, 234.5899963378906)"/>
  <path d="M156.07,24.07s-2.2,4.42-5.79,6.43c-3.59,2.01-7.88.54-7.88.54,0,0,8.29-1.15,13.66-6.97Z" style="fill:#904c5b; stroke-width:0px;" transform="matrix(1.6332429647445679, 0, 0, 1.6332429647445679, 122.7162094116211, 234.5899963378906)"/>
  <path d="M148.78,18.09c-3.65.72-2.79.49-.63,5.43,2.16,4.94,7.53-6.78.63-5.43Z" style="fill:#fff; stroke-width:0px;" transform="matrix(1.6332429647445679, 0, 0, 1.6332429647445679, 122.7162094116211, 234.5899963378906)"/>
  <path d="M142.61.17s-11.92-1.19-20.54,2.78c-8.62,3.96-10.21,14.71-10.21,14.71,0,0,5.3-10.83,12.55-14.42,7.25-3.59,18.2-3.07,18.2-3.07Z" style="fill: rgb(234, 139, 194); stroke-width: 0px; opacity: 0.5; mix-blend-mode: multiply;" transform="matrix(1.6332429647445679, 0, 0, 1.6332429647445679, 122.7162094116211, 234.5899963378906)"/>
  <path d="M113.93,24.28c.6-.96,4.49-17.64,18.04-18.87,13.55-1.22,26.84,7.96,28.14,11.73,0,0,6.36-2.55,12.21-6.39,0,0-9.07,1.81-11.95-.23-2.88-2.03-.87-4-4.47-7.15-3.61-3.15-19.11-5.41-29.26.26-10.14,5.67-12.71,20.65-12.71,20.65Z" style="fill:#3c0a35; stroke-width:0px;" transform="matrix(1.6332429647445679, 0, 0, 1.6332429647445679, 122.7162094116211, 234.5899963378906)"/>
  <path d="M128.08,33.74c1.59.49-1.2,4.66-7.63,4.39-6.43-.27-7.33-7.01-7.66-7.8-.33-.79,9.45,1.62,15.29,3.42Z" style="fill: rgb(234, 139, 194); stroke-width: 0px; opacity: 0.5; mix-blend-mode: multiply;" transform="matrix(1.6332429647445679, 0, 0, 1.6332429647445679, 122.7162094116211, 234.5899963378906)"/>
  <path d="M142.4,31.04c5.71.28,14.36.83,21.76-4.96,7.4-5.79-1.85-11.45-4.74-14.18-2.89-2.74,1.88-.87-1.41,6.58-3.28,7.44-15.61,12.57-15.61,12.57Z" style="fill: rgb(234, 139, 194); stroke-width: 0px; opacity: 0.5; mix-blend-mode: multiply;" transform="matrix(1.6332429647445679, 0, 0, 1.6332429647445679, 122.7162094116211, 234.5899963378906)"/>
  <path d="M60.35,27.78s-.92.79-3.08.96c-1.65.12-7.3,2.61-16.42,2.56-1.36-.02-2.8-.06-4.31-.2h-.02c-1.52-.14-3.09-.35-4.76-.65-2.34-.41-4.47-.99-6.36-1.71h-.02s-.02,0-.05,0c-9.74-3.56-13.6-10-13.12-11.6.47-1.58,4.27-10.11,15.4-12.13,2.21-.42,4.7-.57,7.5-.36,3.2.24,5.89.8,8.11,1.58,9.57,3.39,11.12,10.99,13.52,15.27,2.94,5.27,3.71,5.06,3.62,6.28Z" style="fill:url(#d); stroke-width:0px;" transform="matrix(1.6332429647445679, 0, 0, 1.6332429647445679, 122.7162094116211, 234.5899963378906)"/>
  <path d="M46.83,31.11c-1.35.17-2.78.32-4.3.4h-.02c-1.52.07-3.11.07-4.8,0-2.38-.1-4.56-.4-6.53-.86.02.02.07.05.12.07-.07,0-.12-.05-.19-.07-.09-.05-.17-.1-.24-.15l-.28-.15c-.21-.12-.43-.25-.62-.37-.19-.12-.36-.25-.52-.37-7.67-5.14-7.65-14.77-3.9-19.27,1.52-1.83,3.09-3.24,4.68-4.3,2.14-.74,4.58-1.23,7.39-1.41,3.21-.2,5.94,0,8.24.49,1.9,1.09,3.44,2.54,4.47,4.15,2.87,4.47,3.61,17.14-3.49,21.84Z" style="stroke-width: 0px;" transform="matrix(1.6332429647445679, 0, 0, 1.6332429647445679, 122.7162094116211, 234.5899963378906)"/>
  <path d="M45.57,18.41c0,4.02-3.31,7.1-7.39,6.86-4.08-.23-7.39-3.69-7.39-7.71,0-4.02,3.31-7.1,7.39-6.86,4.08.23,7.39,3.69,7.39,7.71Z" style="fill:#975995; mix-blend-mode:multiply; opacity:.79; stroke-width:0px;" transform="matrix(1.6332429647445679, 0, 0, 1.6332429647445679, 122.7162094116211, 234.5899963378906)"/>
  <path d="M42.53,31.51h-.02c-1.52.07-3.11.07-4.8,0-2.38-.1-4.56-.4-6.53-.86h-.02c-.1-.05-.19-.1-.29-.15l-.28-.15c-.21-.12-.43-.25-.62-.37-.19-.12-.36-.25-.52-.37-1.09-.86-1.5-1.63-1.5-1.63-1.5-1.88,2.78-5.06,3.28-5.29.5-.22,3.04,3.16,6.87,3.16,3.82.02,4.13-1.61,5.56-2.42,1.43-.79,5.87,2.1,6.32,2.87.38.69-1.26,4-7.43,5.21Z" style="fill:#ffc7ac; mix-blend-mode:soft-light; opacity:.5; stroke-width:0px;" transform="matrix(1.6332429647445679, 0, 0, 1.6332429647445679, 122.7162094116211, 234.5899963378906)"/>
  <path d="M41.64,23.17c2.38-1.99-2.71-7.38-6.84-8.59-4.12-1.2-3.51,5.19-.81,8.55,2.7,3.36,7.64.04,7.64.04Z" style="fill:#ffc7ac; mix-blend-mode:soft-light; opacity:.3; stroke-width:0px;" transform="matrix(1.6332429647445679, 0, 0, 1.6332429647445679, 122.7162094116211, 234.5899963378906)"/>
  <path d="M13.11,19.31s3.22,5.34,10.01,8.54c6.79,3.19,14.72,3.49,14.72,3.49,0,0-9.81.74-16.01-2.69-6.2-3.43-8.72-9.34-8.72-9.34Z" style="fill:#e24c5b; stroke-width:0px;" transform="matrix(1.6332429647445679, 0, 0, 1.6332429647445679, 122.7162094116211, 234.5899963378906)"/>
  <path d="M58.01,23.06c.85,3.21-2.19,6-2.19,6,0,0,4.31-.41,5.28-.89.97-.48-3.09-5.11-3.09-5.11Z" style="fill: rgb(226, 76, 91); stroke-width: 0px; opacity: 0.5; mix-blend-mode: multiply;" transform="matrix(1.6332429647445679, 0, 0, 1.6332429647445679, 122.7162094116211, 234.5899963378906)"/>
  <path d="M16.25,24.07s2.2,4.42,5.79,6.43c3.59,2.01,7.88.54,7.88.54,0,0-8.29-1.15-13.66-6.97Z" style="fill:#904c5b; stroke-width:0px;" transform="matrix(1.6332429647445679, 0, 0, 1.6332429647445679, 122.7162094116211, 234.5899963378906)"/>
  <path d="M52.39,18.09c-3.65.72-2.79.49-.63,5.43,2.16,4.94,7.53-6.78.63-5.43Z" style="fill:#fff; stroke-width:0px;" transform="matrix(1.6332429647445679, 0, 0, 1.6332429647445679, 122.7162094116211, 234.5899963378906)"/>
  <path d="M29.71.17s11.92-1.19,20.54,2.78c8.62,3.96,10.21,14.71,10.21,14.71,0,0-5.3-10.83-12.55-14.42C40.65-.36,29.71.17,29.71.17Z" style="fill: rgb(234, 139, 194); stroke-width: 0px; opacity: 0.5; mix-blend-mode: multiply;" transform="matrix(1.6332429647445679, 0, 0, 1.6332429647445679, 122.7162094116211, 234.5899963378906)"/>
  <path d="M58.39,24.28c-.6-.96-4.49-17.64-18.04-18.87-13.55-1.22-26.84,7.96-28.14,11.73,0,0-6.36-2.55-12.21-6.39,0,0,9.07,1.81,11.95-.23,2.88-2.03.87-4,4.47-7.15,3.61-3.15,19.11-5.41,29.26.26,10.14,5.67,12.71,20.65,12.71,20.65Z" style="fill:#3c0a35; stroke-width:0px;" transform="matrix(1.6332429647445679, 0, 0, 1.6332429647445679, 122.7162094116211, 234.5899963378906)"/>
  <path d="M44.24,33.74c-1.59.49,1.2,4.66,7.63,4.39,6.43-.27,7.33-7.01,7.66-7.8.33-.79-9.45,1.62-15.29,3.42Z" style="fill: rgb(234, 139, 194); stroke-width: 0px; opacity: 0.5; mix-blend-mode: multiply;" transform="matrix(1.6332429647445679, 0, 0, 1.6332429647445679, 122.7162094116211, 234.5899963378906)"/>
  <path d="M29.92,31.04c-5.71.28-14.36.83-21.76-4.96-7.4-5.79,1.85-11.45,4.74-14.18,2.89-2.74-1.88-.87,1.41,6.58,3.29,7.44,15.61,12.57,15.61,12.57Z" style="fill: rgb(234, 139, 194); stroke-width: 0px; opacity: 0.5; mix-blend-mode: multiply;" transform="matrix(1.6332429647445679, 0, 0, 1.6332429647445679, 122.7162094116211, 234.5899963378906)"/>
</svg>