<?xml version="1.0" encoding="utf-8"?>
<svg viewBox="119.5729 204.3099 313.0865 82.2672" xmlns="http://www.w3.org/2000/svg" xmlns:xlink="http://www.w3.org/1999/xlink">
  <defs>
    <mask id="d" x="89.93" y="2.39" width="47.68" height="34.23" maskUnits="userSpaceOnUse">
      <g style="filter:url(#e);">
        <g style="mask:url(#f);">
          <path d="M93.32,29.7c.85,1.17,1.97,2.23,3.33,3.21,1.95,1.4,4.38,2.61,7.1,3.71-5.15-.42-9.92-2.27-12.39-5.35-.06-.07-.12-.14-.17-.21-.28-.37-.53-.76-.74-1.16-.07-.14-.14-.28-.2-.42-.12-.27-.23-.55-.32-.85,1.01-1.5,2.99-4.27,2.99-4.27C113.96-4.67,127.42-1.82,137.61,14.95c-13.77-6.13-26.54-3-38.41,8.37-1.98,1.89-3.94,4.02-5.88,6.38Z" style="fill:url(#h); mix-blend-mode:multiply; stroke-width:0px;"/>
        </g>
      </g>
    </mask>
    <filter id="e" x="89.93" y="2.39" width="47.68" height="34.23" color-interpolation-filters="sRGB" filterUnits="userSpaceOnUse">
      <feFlood flood-color="#fff" result="bg"/>
      <feBlend in="SourceGraphic" in2="bg"/>
    </filter>
    <mask id="f" x="89.93" y="-8224.38" width="47.68" height="32766" maskUnits="userSpaceOnUse"/>
    <linearGradient id="h" x1="137.61" y1="19.5" x2="89.93" y2="19.5" gradientUnits="userSpaceOnUse">
      <stop offset="0" stop-color="#000"/>
      <stop offset="0.22" stop-color="#494949"/>
      <stop offset="0.43" stop-color="#8a8a8a"/>
      <stop offset="0.62" stop-color="#bcbcbc"/>
      <stop offset="0.78" stop-color="#e0e0e0"/>
      <stop offset="0.91" stop-color="#f6f6f6"/>
      <stop offset="1" stop-color="#fff"/>
    </linearGradient>
    <linearGradient id="i" x1="137.61" y1="19.5" x2="89.93" y2="19.5" gradientUnits="userSpaceOnUse">
      <stop offset="0" stop-color="#ffad50"/>
      <stop offset="0.41" stop-color="#ffb970"/>
      <stop offset="0.77" stop-color="#ffc186"/>
      <stop offset="1" stop-color="#ffc58f"/>
    </linearGradient>
    <mask id="j" x="89.93" y="23.32" width="9.27" height="9.64" maskUnits="userSpaceOnUse">
      <g style="filter:url(#k);">
        <g style="mask:url(#l);">
          <path d="M93.32,29.7c.85,1.17,1.97,2.23,3.33,3.21-2.34.24-4.09-.31-5.29-1.64-.06-.07-.12-.14-.17-.21-.29-.34-.54-.73-.74-1.16-.07-.14-.14-.28-.2-.42-.12-.27-.23-.55-.32-.85,2.54-3.51,5.63-5.28,9.27-5.31-1.98,1.89-3.94,4.02-5.88,6.38Z" style="fill:url(#n); mix-blend-mode:multiply; stroke-width:0px;"/>
        </g>
      </g>
    </mask>
    <filter id="k" x="89.93" y="23.32" width="9.27" height="9.64" color-interpolation-filters="sRGB" filterUnits="userSpaceOnUse">
      <feFlood flood-color="#fff" result="bg"/>
      <feBlend in="SourceGraphic" in2="bg"/>
    </filter>
    <mask id="l" x="89.93" y="-8224.38" width="9.27" height="32766" maskUnits="userSpaceOnUse"/>
    <linearGradient id="n" x1="99.2" y1="28.14" y2="28.14" xlink:href="#h"/>
    <linearGradient id="o" x1="99.2" y1="28.14" y2="28.14" xlink:href="#i"/>
    <mask id="p" x="98.67" y="19.45" width="37.1" height="15.93" maskUnits="userSpaceOnUse">
      <g style="filter:url(#q);">
        <g style="mask:url(#r);">
          <path d="M98.67,31.1s8.38,5.55,19.71,4.01c12.59-1.7,17.39-15.66,17.39-15.66l-37.1,11.65Z" style="fill:url(#t); mix-blend-mode:multiply; stroke-width:0px;"/>
        </g>
      </g>
    </mask>
    <filter id="q" x="98.67" y="19.45" width="37.1" height="15.93" color-interpolation-filters="sRGB" filterUnits="userSpaceOnUse">
      <feFlood flood-color="#fff" result="bg"/>
      <feBlend in="SourceGraphic" in2="bg"/>
    </filter>
    <mask id="r" x="98.67" y="-8224.38" width="37.1" height="32766" maskUnits="userSpaceOnUse"/>
    <linearGradient id="t" x1="135.76" y1="27.41" x2="98.67" y2="27.41" gradientUnits="userSpaceOnUse">
      <stop offset="0.06" stop-color="#000"/>
      <stop offset="0.21" stop-color="#494949"/>
      <stop offset="0.35" stop-color="#8a8a8a"/>
      <stop offset="0.48" stop-color="#bcbcbc"/>
      <stop offset="0.6" stop-color="#e0e0e0"/>
      <stop offset="0.69" stop-color="#f6f6f6"/>
      <stop offset="0.75" stop-color="#fff"/>
    </linearGradient>
    <linearGradient id="u" x1="135.76" y1="27.41" x2="98.67" y2="27.41" gradientUnits="userSpaceOnUse">
      <stop offset="0.06" stop-color="#ffad50"/>
      <stop offset="0.34" stop-color="#ffb970"/>
      <stop offset="0.59" stop-color="#ffc186"/>
      <stop offset="0.75" stop-color="#ffc58f"/>
    </linearGradient>
    <linearGradient id="v" x1="95.63" y1="28.63" x2="135.76" y2="28.63" gradientUnits="userSpaceOnUse">
      <stop offset="0" stop-color="#fff"/>
      <stop offset="1" stop-color="#ce4c76"/>
    </linearGradient>
    <linearGradient id="w" x1="94.17" y1="11.27" x2="140.26" y2="11.27" gradientUnits="userSpaceOnUse">
      <stop offset="0" stop-color="#fff"/>
      <stop offset="0.24" stop-color="#efc6d4"/>
      <stop offset="0.49" stop-color="#e192ab"/>
      <stop offset="0.71" stop-color="#d66c8e"/>
      <stop offset="0.89" stop-color="#d0547c"/>
      <stop offset="1" stop-color="#ce4c76"/>
    </linearGradient>
    <linearGradient id="x" x1="115" y1="33.96" x2="115" y2="13.54" gradientUnits="userSpaceOnUse">
      <stop offset="0" stop-color="#fff"/>
      <stop offset="1" stop-color="#afa4e1"/>
    </linearGradient>
    <mask id="z" x="111.5" y="23.21" width="15.93" height="9.07" maskUnits="userSpaceOnUse">
      <g style="filter:url(#aa);">
        <g style="mask:url(#ab);">
          <path d="M127.43,29.03c-.45.32-.93.63-1.43.93-1.4.88-2.97,1.67-4.73,2.31-.1.01-.21.01-.31.01-3.97,0-7.45-2.04-9.46-5.14,1.63-2.38,4.37-3.93,7.47-3.93,3.86,0,7.16,2.42,8.46,5.82Z" style="fill:url(#ad); mix-blend-mode:multiply; stroke-width:0px;"/>
        </g>
      </g>
    </mask>
    <filter id="aa" x="111.5" y="23.21" width="15.93" height="9.07" color-interpolation-filters="sRGB" filterUnits="userSpaceOnUse">
      <feFlood flood-color="#fff" result="bg"/>
      <feBlend in="SourceGraphic" in2="bg"/>
    </filter>
    <mask id="ab" x="111.5" y="-8224.38" width="15.93" height="32766" maskUnits="userSpaceOnUse"/>
    <linearGradient id="ad" x1="127.43" y1="27.74" x2="111.5" y2="27.74" xlink:href="#h"/>
    <linearGradient id="ae" x1="127.43" y1="27.74" x2="111.5" y2="27.74" xlink:href="#i"/>
    <linearGradient id="af" x1="120.96" y1="27.62" x2="120.96" y2="14.39" gradientUnits="userSpaceOnUse">
      <stop offset="0" stop-color="#a497ba"/>
      <stop offset="0.99" stop-color="#724a60"/>
    </linearGradient>
    <linearGradient id="ag" x1="127.27" y1="22.26" x2="127.27" y2="17.78" xlink:href="#x"/>
    <linearGradient id="ah" x1="114.2" y1="22.79" x2="114.2" y2="20.64" xlink:href="#x"/>
    <mask id="ai" x="6.28" y="2.39" width="47.68" height="34.23" maskUnits="userSpaceOnUse">
      <g style="filter:url(#aj);">
        <g style="mask:url(#ak);">
          <path d="M50.57,29.7c-.85,1.17-1.97,2.23-3.33,3.21-1.95,1.4-4.38,2.61-7.1,3.71,5.15-.42,9.92-2.27,12.39-5.35.06-.07.12-.14.17-.21.28-.37.53-.76.74-1.16.07-.14.14-.28.2-.42.12-.27.23-.55.32-.85-1.01-1.5-2.99-4.27-2.99-4.27C29.93-4.67,16.47-1.82,6.28,14.95c13.77-6.13,26.54-3,38.41,8.37,1.98,1.89,3.94,4.02,5.88,6.38Z" style="fill:url(#am); mix-blend-mode:multiply; stroke-width:0px;"/>
        </g>
      </g>
    </mask>
    <filter id="aj" x="6.28" y="2.39" width="47.68" height="34.23" color-interpolation-filters="sRGB" filterUnits="userSpaceOnUse">
      <feFlood flood-color="#fff" result="bg"/>
      <feBlend in="SourceGraphic" in2="bg"/>
    </filter>
    <mask id="ak" x="6.28" y="-8224.38" width="47.68" height="32766" maskUnits="userSpaceOnUse"/>
    <linearGradient id="am" x1="612.93" y1="19.5" x2="565.25" y2="19.5" gradientTransform="translate(619.22) rotate(-180) scale(1 -1)" xlink:href="#h"/>
    <linearGradient id="an" x1="612.93" y1="19.5" x2="565.25" y2="19.5" gradientTransform="translate(619.22) rotate(-180) scale(1 -1)" xlink:href="#i"/>
    <mask id="ao" x="44.69" y="23.32" width="9.27" height="9.64" maskUnits="userSpaceOnUse">
      <g style="filter:url(#ap);">
        <g style="mask:url(#aq);">
          <path d="M50.57,29.7c-.85,1.17-1.97,2.23-3.33,3.21,2.34.24,4.09-.31,5.29-1.64.06-.07.12-.14.17-.21.29-.34.54-.73.74-1.16.07-.14.14-.28.2-.42.12-.27.23-.55.32-.85-2.54-3.51-5.63-5.28-9.27-5.31,1.98,1.89,3.94,4.02,5.88,6.38Z" style="fill:url(#as); mix-blend-mode:multiply; stroke-width:0px;"/>
        </g>
      </g>
    </mask>
    <filter id="ap" x="44.69" y="23.32" width="9.27" height="9.64" color-interpolation-filters="sRGB" filterUnits="userSpaceOnUse">
      <feFlood flood-color="#fff" result="bg"/>
      <feBlend in="SourceGraphic" in2="bg"/>
    </filter>
    <mask id="aq" x="44.69" y="-8224.38" width="9.27" height="32766" maskUnits="userSpaceOnUse"/>
    <linearGradient id="as" x1="574.52" y1="28.14" x2="565.25" y2="28.14" gradientTransform="translate(619.22) rotate(-180) scale(1 -1)" xlink:href="#h"/>
    <linearGradient id="at" x1="574.52" y1="28.14" x2="565.25" y2="28.14" gradientTransform="translate(619.22) rotate(-180) scale(1 -1)" xlink:href="#i"/>
    <mask id="au" x="8.12" y="19.45" width="37.1" height="15.93" maskUnits="userSpaceOnUse">
      <g style="filter:url(#av);">
        <g style="mask:url(#aw);">
          <path d="M45.22,31.1s-8.38,5.55-19.71,4.01c-12.59-1.7-17.39-15.66-17.39-15.66l37.1,11.65Z" style="fill:url(#ay); mix-blend-mode:multiply; stroke-width:0px;"/>
        </g>
      </g>
    </mask>
    <filter id="av" x="8.12" y="19.45" width="37.1" height="15.93" color-interpolation-filters="sRGB" filterUnits="userSpaceOnUse">
      <feFlood flood-color="#fff" result="bg"/>
      <feBlend in="SourceGraphic" in2="bg"/>
    </filter>
    <mask id="aw" x="8.12" y="-8224.38" width="37.1" height="32766" maskUnits="userSpaceOnUse"/>
    <linearGradient id="ay" x1="611.09" y1="27.41" x2="573.99" y2="27.41" gradientTransform="translate(619.22) rotate(-180) scale(1 -1)" gradientUnits="userSpaceOnUse">
      <stop offset="0.13" stop-color="#000"/>
      <stop offset="0.27" stop-color="#494949"/>
      <stop offset="0.4" stop-color="#8a8a8a"/>
      <stop offset="0.52" stop-color="#bcbcbc"/>
      <stop offset="0.63" stop-color="#e0e0e0"/>
      <stop offset="0.71" stop-color="#f6f6f6"/>
      <stop offset="0.77" stop-color="#fff"/>
    </linearGradient>
    <linearGradient id="az" x1="611.09" y1="27.41" x2="573.99" y2="27.41" gradientTransform="translate(619.22) rotate(-180) scale(1 -1)" gradientUnits="userSpaceOnUse">
      <stop offset="0.13" stop-color="#ffad50"/>
      <stop offset="0.39" stop-color="#ffb970"/>
      <stop offset="0.62" stop-color="#ffc186"/>
      <stop offset="0.77" stop-color="#ffc58f"/>
    </linearGradient>
    <linearGradient id="ba" x1="570.96" x2="611.09" gradientTransform="translate(619.22) rotate(-180) scale(1 -1)" xlink:href="#v"/>
    <linearGradient id="bb" x1="569.5" x2="615.59" gradientTransform="translate(619.22) rotate(-180) scale(1 -1)" xlink:href="#w"/>
    <linearGradient id="bc" x1="28.89" x2="28.89" y2="13.54" xlink:href="#x"/>
    <mask id="be" x="22.48" y="24.58" width="14.96" height="9.25" maskUnits="userSpaceOnUse">
      <g style="filter:url(#bf);">
        <g style="mask:url(#bg);">
          <path d="M37.44,32.74c-1.48.7-3.13,1.09-4.87,1.09-4.37,0-8.16-2.44-10.09-6.04,1.53-1.95,3.91-3.21,6.59-3.21,4.55,0,8.26,3.64,8.37,8.16Z" style="fill:url(#bi); mix-blend-mode:multiply; stroke-width:0px;"/>
        </g>
      </g>
    </mask>
    <filter id="bf" x="22.48" y="24.58" width="14.96" height="9.25" color-interpolation-filters="sRGB" filterUnits="userSpaceOnUse">
      <feFlood flood-color="#fff" result="bg"/>
      <feBlend in="SourceGraphic" in2="bg"/>
    </filter>
    <mask id="bg" x="22.48" y="-8224.38" width="14.96" height="32766" maskUnits="userSpaceOnUse"/>
    <linearGradient id="bi" x1="29.96" y1="33.83" x2="29.96" y2="24.58" xlink:href="#h"/>
    <linearGradient id="bj" x1="29.96" y1="33.83" x2="29.96" y2="24.58" xlink:href="#i"/>
    <linearGradient id="bk" x1="32.57" y1="29.09" x2="32.57" y2="15.65" xlink:href="#af"/>
    <linearGradient id="bl" x1="33.64" y1="35.71" x2="33.64" y2="31.16" gradientTransform="translate(6.18 -13.22) rotate(2.48)" xlink:href="#x"/>
    <linearGradient id="bm" x1="20.35" y1="36.25" x2="20.35" y2="34.06" gradientTransform="translate(6.18 -13.22) rotate(2.48)" xlink:href="#x"/>
  </defs>
  <g style="mask:url(#d);" transform="matrix(2.1758739948272705, 0, 0, 2.1758739948272705, 119.57286071777344, 204.3058166503906)">
    <path d="M93.32,29.7c.85,1.17,1.97,2.23,3.33,3.21,1.95,1.4,4.38,2.61,7.1,3.71-5.15-.42-9.92-2.27-12.39-5.35-.06-.07-.12-.14-.17-.21-.28-.37-.53-.76-.74-1.16-.07-.14-.14-.28-.2-.42-.12-.27-.23-.55-.32-.85,1.01-1.5,2.99-4.27,2.99-4.27C113.96-4.67,127.42-1.82,137.61,14.95c-13.77-6.13-26.54-3-38.41,8.37-1.98,1.89-3.94,4.02-5.88,6.38Z" style="fill:url(#i); mix-blend-mode:soft-light; opacity:.8; stroke-width:0px;"/>
  </g>
  <g style="mask:url(#j);" transform="matrix(2.1758739948272705, 0, 0, 2.1758739948272705, 119.57286071777344, 204.3058166503906)">
    <path d="M93.32,29.7c.85,1.17,1.97,2.23,3.33,3.21-2.34.24-4.09-.31-5.29-1.64-.06-.07-.12-.14-.17-.21-.29-.34-.54-.73-.74-1.16-.07-.14-.14-.28-.2-.42-.12-.27-.23-.55-.32-.85,2.54-3.51,5.63-5.28,9.27-5.31-1.98,1.89-3.94,4.02-5.88,6.38Z" style="fill:url(#o); opacity:.6; stroke-width:0px;"/>
  </g>
  <g style="mask:url(#p);" transform="matrix(2.1758739948272705, 0, 0, 2.1758739948272705, 119.57286071777344, 204.3058166503906)">
    <path d="M98.67,31.1s8.38,5.55,19.71,4.01c12.59-1.7,17.39-15.66,17.39-15.66l-37.1,11.65Z" style="fill:url(#u); mix-blend-mode:soft-light; opacity:.8; stroke-width:0px;"/>
  </g>
  <path d="M135.69,19.65c-.66,2.01-6.37,18.06-18.48,18.16-10.28.08-21.58-7.1-21.58-7.1l40.13-11.26-37.1,11.65s8.38,5.55,19.71,4.01c11.7-1.58,16.68-13.76,17.32-15.46Z" style="fill:url(#v); mix-blend-mode:multiply; opacity:.7; stroke-width:0px;" transform="matrix(2.1758739948272705, 0, 0, 2.1758739948272705, 119.57286071777344, 204.3058166503906)"/>
  <path d="M137.53,14.95c-9.97-16.42-23.08-19.5-43.36,7.6,18.97-27.34,37.77-29.81,46.09-7.45l-39.94,7.1c11.53-10.45,23.91-13.17,37.22-7.25Z" style="fill:url(#w); mix-blend-mode:multiply; opacity:.8; stroke-width:0px;" transform="matrix(2.1758739948272705, 0, 0, 2.1758739948272705, 119.57286071777344, 204.3058166503906)"/>
  <path d="M136.69,17.35s-.02.07-.08.21c-.19.52-.79,2-1.97,3.88-.84,1.35-2,2.9-3.51,4.44-.76.78-1.6,1.55-2.54,2.29-.79.62-1.65,1.23-2.59,1.79-1.4.88-2.97,1.67-4.73,2.31-.25.11-.5.2-.76.29-12.65,4.38-27.19-2.86-27.19-2.86,5.61-6.56,11.47-11.3,17.64-13.89,6.16-2.58,12.62-3.02,19.42-.99,2.05.6,4.13,1.44,6.24,2.5.02.01.05.02.07.03Z" style="fill:url(#x); stroke-width:0px;" transform="matrix(2.1758739948272705, 0, 0, 2.1758739948272705, 119.57286071777344, 204.3058166503906)"/>
  <path d="M110.32,12.33c1.82-4.14,4.49-7.34,8.29-9.24,1.41-.47,2.91-.38,4.46,0-2.15,1.57-3.35,3.82-3.89,6.54-2.83-.01-5.79.96-8.85,2.71Z" style="fill:#ff813b; mix-blend-mode:screen; opacity:.5; stroke-width:0px;" transform="matrix(2.1758739948272705, 0, 0, 2.1758739948272705, 119.57286071777344, 204.3058166503906)"/>
  <path d="M120.6,9.57c.64-2.55,1.71-4.69,3.49-6.15,1.1.11,2.05.54,2.83,1.29-1.33,1.31-1.92,3.05-2.05,5.05-1.09-.29-2.54-.33-4.26-.18Z" style="fill:#ff813b; mix-blend-mode:screen; opacity:.5; stroke-width:0px;" transform="matrix(2.1758739948272705, 0, 0, 2.1758739948272705, 119.57286071777344, 204.3058166503906)"/>
  <path d="M132.23,21.01c0,1.75-.4,3.4-1.1,4.87-.76.78-1.6,1.55-2.54,2.29-.37.29-.76.58-1.16.86-.45.32-.93.63-1.43.93-1.4.88-2.97,1.67-4.73,2.31-.1.01-.21.01-.31.01-3.97,0-7.45-2.04-9.46-5.14-1.15-1.76-1.81-3.86-1.81-6.13,0-1.88.46-3.65,1.27-5.2,6.16-2.58,12.62-3.02,19.42-.99,1.17,1.77,1.85,3.9,1.85,6.19Z" style="stroke-width: 0px;" transform="matrix(2.1758739948272705, 0, 0, 2.1758739948272705, 119.57286071777344, 204.3058166503906)"/>
  <path d="M114.09,27.42c-.17.42.86,1.18,1.47,1.64,1.06.79,2.92,1.77,3.41,1.26.34-.36-.04-1.36-.54-1.98-1.28-1.58-4.1-1.52-4.34-.92Z" style="fill:#ff813b; mix-blend-mode:screen; opacity:.5; stroke-width:0px;" transform="matrix(2.1758739948272705, 0, 0, 2.1758739948272705, 119.57286071777344, 204.3058166503906)"/>
  <path d="M128.59,28.17c-.79.62-1.65,1.23-2.59,1.79-.26-.52-.52-1.53-.73-2.3-.11-.24-.04-.53.17-.7l.47-.39c.22-.18.54-.18.76-.01l1.74,1.38c.08.06.14.14.18.23Z" style="fill:#ff813b; mix-blend-mode:screen; opacity:.5; stroke-width:0px;" transform="matrix(2.1758739948272705, 0, 0, 2.1758739948272705, 119.57286071777344, 204.3058166503906)"/>
  <g style="mask:url(#z);" transform="matrix(2.1758739948272705, 0, 0, 2.1758739948272705, 119.57286071777344, 204.3058166503906)">
    <path d="M127.43,29.03c-.45.32-.93.63-1.43.93-1.4.88-2.97,1.67-4.73,2.31-.1.01-.21.01-.31.01-3.97,0-7.45-2.04-9.46-5.14,1.63-2.38,4.37-3.93,7.47-3.93,3.86,0,7.16,2.42,8.46,5.82Z" style="fill:url(#ae); opacity:.2; stroke-width:0px;"/>
  </g>
  <path d="M127.57,21.01c0,3.65-2.96,6.61-6.61,6.61s-6.61-2.96-6.61-6.61,2.96-6.61,6.61-6.61,6.61,2.96,6.61,6.61Z" style="fill:url(#af); mix-blend-mode:multiply; stroke-width:0px;" transform="matrix(2.1758739948272705, 0, 0, 2.1758739948272705, 119.57286071777344, 204.3058166503906)"/>
  <path d="M128.55,18.64c-.58-.61-1.65-1.1-2.4-.72-1.11.56-1.38,2.94-.15,3.9.83.64,2.34.64,3.03-.3.68-.92.15-2.21-.48-2.88Z" style="fill:url(#ag); stroke-width:0px;" transform="matrix(2.1758739948272705, 0, 0, 2.1758739948272705, 119.57286071777344, 204.3058166503906)"/>
  <path d="M114.81,21.05c-.28-.3-.79-.53-1.15-.35-.53.27-.66,1.42-.07,1.88.4.31,1.13.31,1.46-.14.33-.44.07-1.07-.23-1.39Z" style="fill:url(#ah); stroke-width:0px;" transform="matrix(2.1758739948272705, 0, 0, 2.1758739948272705, 119.57286071777344, 204.3058166503906)"/>
  <path d="M136.62,17.32v.24c-.2.52-.8,2-1.98,3.88-13.72-8.03-27.51-2.6-41.32,8.26,12.89-15.09,27.14-20.53,43.3-12.38Z" style="fill:#bc7eb7; mix-blend-mode:multiply; opacity:.6; stroke-width:0px;" transform="matrix(2.1758739948272705, 0, 0, 2.1758739948272705, 119.57286071777344, 204.3058166503906)"/>
  <path d="M93.32,29.7c13.39-14.22,27.25-19.81,40.42-11.16,1.48.97,3.41.99,4.89.02,2.39-1.58,4.05-3.87,5.26-6.98,0,0-5.07,4.19-6.8,3.24-17.24-9.53-29.24-3.83-43.78,14.89Z" style="fill:#401331; stroke-width:0px;" transform="matrix(2.1758739948272705, 0, 0, 2.1758739948272705, 119.57286071777344, 204.3058166503906)"/>
  <g style="mask:url(#ai);" transform="matrix(2.1758739948272705, 0, 0, 2.1758739948272705, 119.57286071777344, 204.3058166503906)">
    <path d="M50.57,29.7c-.85,1.17-1.97,2.23-3.33,3.21-1.95,1.4-4.38,2.61-7.1,3.71,5.15-.42,9.92-2.27,12.39-5.35.06-.07.12-.14.17-.21.28-.37.53-.76.74-1.16.07-.14.14-.28.2-.42.12-.27.23-.55.32-.85-1.01-1.5-2.99-4.27-2.99-4.27C29.93-4.67,16.47-1.82,6.28,14.95c13.77-6.13,26.54-3,38.41,8.37,1.98,1.89,3.94,4.02,5.88,6.38Z" style="fill:url(#an); mix-blend-mode:soft-light; opacity:.8; stroke-width:0px;"/>
  </g>
  <g style="mask:url(#ao);" transform="matrix(2.1758739948272705, 0, 0, 2.1758739948272705, 119.57286071777344, 204.3058166503906)">
    <path d="M50.57,29.7c-.85,1.17-1.97,2.23-3.33,3.21,2.34.24,4.09-.31,5.29-1.64.06-.07.12-.14.17-.21.29-.34.54-.73.74-1.16.07-.14.14-.28.2-.42.12-.27.23-.55.32-.85-2.54-3.51-5.63-5.28-9.27-5.31,1.98,1.89,3.94,4.02,5.88,6.38Z" style="fill:url(#at); opacity:.6; stroke-width:0px;"/>
  </g>
  <g style="mask:url(#au);" transform="matrix(2.1758739948272705, 0, 0, 2.1758739948272705, 119.57286071777344, 204.3058166503906)">
    <path d="M45.22,31.1s-8.38,5.55-19.71,4.01c-12.59-1.7-17.39-15.66-17.39-15.66l37.1,11.65Z" style="fill:url(#az); mix-blend-mode:soft-light; opacity:.8; stroke-width:0px;"/>
  </g>
  <path d="M8.2,19.65c.66,2.01,6.37,18.06,18.48,18.16,10.28.08,21.58-7.1,21.58-7.1L8.13,19.45l37.1,11.65s-8.38,5.55-19.71,4.01c-11.7-1.58-16.68-13.76-17.32-15.46Z" style="fill:url(#ba); mix-blend-mode:multiply; opacity:.7; stroke-width:0px;" transform="matrix(2.1758739948272705, 0, 0, 2.1758739948272705, 119.57286071777344, 204.3058166503906)"/>
  <path d="M6.36,14.95C16.33-1.47,29.44-4.55,49.72,22.55,30.74-4.79,11.95-7.26,3.63,15.1l39.94,7.1c-11.53-10.45-23.91-13.17-37.22-7.25Z" style="fill:url(#bb); mix-blend-mode:multiply; opacity:.8; stroke-width:0px;" transform="matrix(2.1758739948272705, 0, 0, 2.1758739948272705, 119.57286071777344, 204.3058166503906)"/>
  <path d="M50.58,29.7s-14.54,7.24-27.19,2.86c-7.59-2.63-11.9-7.58-14.13-11.12-1.18-1.88-1.78-3.36-1.97-3.88-.06-.14-.08-.21-.08-.21.02,0,.05-.02.07-.03,6.2-3.13,12.12-4.25,17.79-3.6,2.54.29,5.03.94,7.48,1.93,1.86.75,3.69,1.69,5.49,2.83,2.02,1.26,4.01,2.77,5.97,4.49,2.23,1.96,4.42,4.21,6.57,6.73Z" style="fill:url(#bc); stroke-width:0px;" transform="matrix(2.1758739948272705, 0, 0, 2.1758739948272705, 119.57286071777344, 204.3058166503906)"/>
  <path d="M33.57,12.33c-1.82-4.14-4.49-7.34-8.29-9.24-1.41-.47-2.91-.38-4.46,0,2.15,1.57,3.35,3.82,3.89,6.54,2.83-.01,5.79.96,8.85,2.71Z" style="fill:#ff813b; mix-blend-mode:screen; opacity:.5; stroke-width:0px;" transform="matrix(2.1758739948272705, 0, 0, 2.1758739948272705, 119.57286071777344, 204.3058166503906)"/>
  <path d="M23.29,9.57c-.64-2.55-1.71-4.69-3.49-6.15-1.1.11-2.05.54-2.83,1.29,1.33,1.31,1.92,3.05,2.05,5.05,1.09-.29,2.54-.33,4.27-.18Z" style="fill:#ff813b; mix-blend-mode:screen; opacity:.5; stroke-width:0px;" transform="matrix(2.1758739948272705, 0, 0, 2.1758739948272705, 119.57286071777344, 204.3058166503906)"/>
  <path d="M44.01,22.97c-.23,4.33-2.85,8.02-6.57,9.77-1.48.7-3.13,1.09-4.87,1.09-4.37,0-8.16-2.44-10.09-6.04-.87-1.61-1.36-3.46-1.36-5.42,0-3.45,1.53-6.55,3.95-8.65,2.54.29,5.03.94,7.48,1.93h.02c2.26,0,4.26,1.12,5.47,2.83,2.02,1.26,4.01,2.77,5.97,4.49Z" style="stroke-width: 0px;" transform="matrix(2.1758739948272705, 0, 0, 2.1758739948272705, 119.57286071777344, 204.3058166503906)"/>
  <path d="M24.78,28.88c-.17.43.87,1.2,1.49,1.66,1.08.8,2.96,1.8,3.46,1.28.35-.36-.04-1.39-.54-2.01-1.3-1.61-4.16-1.55-4.41-.93Z" style="fill:#ff813b; mix-blend-mode:screen; opacity:.5; stroke-width:0px;" transform="matrix(2.1758739948272705, 0, 0, 2.1758739948272705, 119.57286071777344, 204.3058166503906)"/>
  <path d="M39.47,29.67c.3.24.31.68.03.94-.42.39-.88.74-1.36,1.04-.23.14-.71.39-.71.39-.42.26-.82-1.48-1.15-2.65-.11-.25-.04-.55.17-.72l.47-.39c.22-.18.55-.19.77,0l1.77,1.4Z" style="fill:#ff813b; mix-blend-mode:screen; opacity:.5; stroke-width:0px;" transform="matrix(2.1758739948272705, 0, 0, 2.1758739948272705, 119.57286071777344, 204.3058166503906)"/>
  <g style="mask:url(#be);" transform="matrix(2.1758739948272705, 0, 0, 2.1758739948272705, 119.57286071777344, 204.3058166503906)">
    <path d="M37.44,32.74c-1.48.7-3.13,1.09-4.87,1.09-4.37,0-8.16-2.44-10.09-6.04,1.53-1.95,3.91-3.21,6.59-3.21,4.55,0,8.26,3.64,8.37,8.16Z" style="fill:url(#bj); opacity:.2; stroke-width:0px;"/>
  </g>
  <path d="M39.29,22.37c0,.61-.08,1.21-.24,1.77-.77,2.85-3.38,4.95-6.48,4.95-3.27,0-6-2.34-6.59-5.44-.09-.42-.13-.84-.13-1.28,0-1.19.31-2.3.85-3.27,1.14-2.05,3.33-3.44,5.85-3.45h.02c2.26,0,4.26,1.12,5.47,2.83.74,1.02,1.19,2.26,1.24,3.61.01.09.01.19.01.28Z" style="fill:url(#bk); mix-blend-mode:multiply; stroke-width:0px;" transform="matrix(2.1758739948272705, 0, 0, 2.1758739948272705, 119.57286071777344, 204.3058166503906)"/>
  <path d="M39.7,20.28c-.57-.65-1.62-1.19-2.4-.84-1.15.52-1.53,2.93-.32,3.95.81.69,2.35.75,3.09-.17.73-.91.25-2.24-.36-2.94Z" style="fill:url(#bl); stroke-width:0px;" transform="matrix(2.1758739948272705, 0, 0, 2.1758739948272705, 119.57286071777344, 204.3058166503906)"/>
  <path d="M25.65,22.13c-.27-.31-.78-.57-1.16-.4-.55.25-.74,1.41-.16,1.9.39.33,1.13.36,1.49-.08.35-.44.12-1.08-.17-1.42Z" style="fill:url(#bm); stroke-width:0px;" transform="matrix(2.1758739948272705, 0, 0, 2.1758739948272705, 119.57286071777344, 204.3058166503906)"/>
  <path d="M7.27,17.32v.24c.2.52.8,2,1.98,3.88,13.72-8.03,27.51-2.6,41.32,8.26C37.68,14.61,23.43,9.17,7.27,17.32Z" style="fill:#bc7eb7; mix-blend-mode:multiply; opacity:.6; stroke-width:0px;" transform="matrix(2.1758739948272705, 0, 0, 2.1758739948272705, 119.57286071777344, 204.3058166503906)"/>
  <path d="M50.57,29.7c-13.39-14.22-27.25-19.81-40.42-11.16-1.48.97-3.41.99-4.89.02-2.39-1.58-4.05-3.87-5.26-6.98,0,0,5.07,4.19,6.8,3.24,17.24-9.53,29.24-3.83,43.78,14.89Z" style="fill:#401331; stroke-width:0px;" transform="matrix(2.1758739948272705, 0, 0, 2.1758739948272705, 119.57286071777344, 204.3058166503906)"/>
</svg>