<svg width="1363" height="297" viewBox="0 0 1363 297" fill="none" xmlns="http://www.w3.org/2000/svg">
<path d="M0 15C0 6.71573 6.71573 0 15 0H37V297H15C6.71573 297 0 290.284 0 282V15Z" fill="#6C2B9F"/>
<path d="M37 0H1066V297H37V0Z" fill="#F0F0F0"/>
<path d="M105.691 53.7832L98.7305 75H93.123L102.633 49.4062H106.201L105.691 53.7832ZM111.475 75L104.496 53.7832L103.934 49.4062H107.537L117.1 75H111.475ZM111.158 65.4727V69.6035H97.6406V65.4727H111.158ZM123.551 60.041V75H118.488V55.9805H123.234L123.551 60.041ZM122.812 64.8223H121.441C121.441 63.416 121.623 62.1504 121.986 61.0254C122.35 59.8887 122.859 58.9219 123.516 58.125C124.172 57.3164 124.951 56.7012 125.854 56.2793C126.768 55.8457 127.787 55.6289 128.912 55.6289C129.803 55.6289 130.617 55.7578 131.355 56.0156C132.094 56.2734 132.727 56.6836 133.254 57.2461C133.793 57.8086 134.203 58.5527 134.484 59.4785C134.777 60.4043 134.924 61.5352 134.924 62.8711V75H129.826V62.8535C129.826 62.0098 129.709 61.3535 129.475 60.8848C129.24 60.416 128.895 60.0879 128.438 59.9004C127.992 59.7012 127.441 59.6016 126.785 59.6016C126.105 59.6016 125.514 59.7363 125.01 60.0059C124.518 60.2754 124.107 60.6504 123.779 61.1309C123.463 61.5996 123.223 62.1504 123.059 62.7832C122.895 63.416 122.812 64.0957 122.812 64.8223ZM148.09 55.9805V59.5664H137.016V55.9805H148.09ZM139.758 51.2871H144.82V69.2695C144.82 69.8203 144.891 70.2422 145.031 70.5352C145.184 70.8281 145.406 71.0332 145.699 71.1504C145.992 71.2559 146.361 71.3086 146.807 71.3086C147.123 71.3086 147.404 71.2969 147.65 71.2734C147.908 71.2383 148.125 71.2031 148.301 71.168L148.318 74.8945C147.885 75.0352 147.416 75.1465 146.912 75.2285C146.408 75.3105 145.852 75.3516 145.242 75.3516C144.129 75.3516 143.156 75.1699 142.324 74.8066C141.504 74.4316 140.871 73.834 140.426 73.0137C139.98 72.1934 139.758 71.1152 139.758 69.7793V51.2871ZM155.912 48V75H150.85V48H155.912ZM155.191 64.8223H153.803C153.814 63.498 153.99 62.2793 154.33 61.166C154.67 60.041 155.156 59.0684 155.789 58.248C156.422 57.416 157.178 56.7715 158.057 56.3145C158.947 55.8574 159.932 55.6289 161.01 55.6289C161.947 55.6289 162.797 55.7637 163.559 56.0332C164.332 56.291 164.994 56.7129 165.545 57.2988C166.107 57.873 166.541 58.6289 166.846 59.5664C167.15 60.5039 167.303 61.6406 167.303 62.9766V75H162.205V62.9414C162.205 62.0977 162.082 61.4355 161.836 60.9551C161.602 60.4629 161.256 60.1172 160.799 59.918C160.354 59.707 159.803 59.6016 159.146 59.6016C158.42 59.6016 157.799 59.7363 157.283 60.0059C156.779 60.2754 156.375 60.6504 156.07 61.1309C155.766 61.5996 155.543 62.1504 155.402 62.7832C155.262 63.416 155.191 64.0957 155.191 64.8223ZM170.344 65.6836V65.3145C170.344 63.9199 170.543 62.6367 170.941 61.4648C171.34 60.2812 171.92 59.2559 172.682 58.3887C173.443 57.5215 174.381 56.8477 175.494 56.3672C176.607 55.875 177.885 55.6289 179.326 55.6289C180.768 55.6289 182.051 55.875 183.176 56.3672C184.301 56.8477 185.244 57.5215 186.006 58.3887C186.779 59.2559 187.365 60.2812 187.764 61.4648C188.162 62.6367 188.361 63.9199 188.361 65.3145V65.6836C188.361 67.0664 188.162 68.3496 187.764 69.5332C187.365 70.7051 186.779 71.7305 186.006 72.6094C185.244 73.4766 184.307 74.1504 183.193 74.6309C182.08 75.1113 180.803 75.3516 179.361 75.3516C177.92 75.3516 176.637 75.1113 175.512 74.6309C174.398 74.1504 173.455 73.4766 172.682 72.6094C171.92 71.7305 171.34 70.7051 170.941 69.5332C170.543 68.3496 170.344 67.0664 170.344 65.6836ZM175.406 65.3145V65.6836C175.406 66.4805 175.477 67.2246 175.617 67.916C175.758 68.6074 175.98 69.2168 176.285 69.7441C176.602 70.2598 177.012 70.6641 177.516 70.957C178.02 71.25 178.635 71.3965 179.361 71.3965C180.064 71.3965 180.668 71.25 181.172 70.957C181.676 70.6641 182.08 70.2598 182.385 69.7441C182.689 69.2168 182.912 68.6074 183.053 67.916C183.205 67.2246 183.281 66.4805 183.281 65.6836V65.3145C183.281 64.541 183.205 63.8145 183.053 63.1348C182.912 62.4434 182.684 61.834 182.367 61.3066C182.062 60.7676 181.658 60.3457 181.154 60.041C180.65 59.7363 180.041 59.584 179.326 59.584C178.611 59.584 178.002 59.7363 177.498 60.041C177.006 60.3457 176.602 60.7676 176.285 61.3066C175.98 61.834 175.758 62.4434 175.617 63.1348C175.477 63.8145 175.406 64.541 175.406 65.3145ZM196.43 60.041V75H191.367V55.9805H196.113L196.43 60.041ZM195.691 64.8223H194.32C194.32 63.416 194.502 62.1504 194.865 61.0254C195.229 59.8887 195.738 58.9219 196.395 58.125C197.051 57.3164 197.83 56.7012 198.732 56.2793C199.646 55.8457 200.666 55.6289 201.791 55.6289C202.682 55.6289 203.496 55.7578 204.234 56.0156C204.973 56.2734 205.605 56.6836 206.133 57.2461C206.672 57.8086 207.082 58.5527 207.363 59.4785C207.656 60.4043 207.803 61.5352 207.803 62.8711V75H202.705V62.8535C202.705 62.0098 202.588 61.3535 202.354 60.8848C202.119 60.416 201.773 60.0879 201.316 59.9004C200.871 59.7012 200.32 59.6016 199.664 59.6016C198.984 59.6016 198.393 59.7363 197.889 60.0059C197.396 60.2754 196.986 60.6504 196.658 61.1309C196.342 61.5996 196.102 62.1504 195.938 62.7832C195.773 63.416 195.691 64.0957 195.691 64.8223ZM217.295 72.8555L222.34 55.9805H227.771L220.125 77.8652C219.961 78.3457 219.738 78.8613 219.457 79.4121C219.188 79.9629 218.818 80.4844 218.35 80.9766C217.893 81.4805 217.312 81.8906 216.609 82.207C215.918 82.5234 215.068 82.6816 214.061 82.6816C213.58 82.6816 213.188 82.6523 212.883 82.5938C212.578 82.5352 212.215 82.4531 211.793 82.3477V78.6387C211.922 78.6387 212.057 78.6387 212.197 78.6387C212.338 78.6504 212.473 78.6562 212.602 78.6562C213.27 78.6562 213.814 78.5801 214.236 78.4277C214.658 78.2754 214.998 78.041 215.256 77.7246C215.514 77.4199 215.719 77.0215 215.871 76.5293L217.295 72.8555ZM215.186 55.9805L219.316 69.7617L220.037 75.123L216.592 75.4922L209.754 55.9805H215.186ZM249.568 49.4062V75H244.312V49.4062H249.568ZM257.443 49.4062V53.5371H236.561V49.4062H257.443ZM256.266 65.6836V65.3145C256.266 63.9199 256.465 62.6367 256.863 61.4648C257.262 60.2812 257.842 59.2559 258.604 58.3887C259.365 57.5215 260.303 56.8477 261.416 56.3672C262.529 55.875 263.807 55.6289 265.248 55.6289C266.689 55.6289 267.973 55.875 269.098 56.3672C270.223 56.8477 271.166 57.5215 271.928 58.3887C272.701 59.2559 273.287 60.2812 273.686 61.4648C274.084 62.6367 274.283 63.9199 274.283 65.3145V65.6836C274.283 67.0664 274.084 68.3496 273.686 69.5332C273.287 70.7051 272.701 71.7305 271.928 72.6094C271.166 73.4766 270.229 74.1504 269.115 74.6309C268.002 75.1113 266.725 75.3516 265.283 75.3516C263.842 75.3516 262.559 75.1113 261.434 74.6309C260.32 74.1504 259.377 73.4766 258.604 72.6094C257.842 71.7305 257.262 70.7051 256.863 69.5332C256.465 68.3496 256.266 67.0664 256.266 65.6836ZM261.328 65.3145V65.6836C261.328 66.4805 261.398 67.2246 261.539 67.916C261.68 68.6074 261.902 69.2168 262.207 69.7441C262.523 70.2598 262.934 70.6641 263.438 70.957C263.941 71.25 264.557 71.3965 265.283 71.3965C265.986 71.3965 266.59 71.25 267.094 70.957C267.598 70.6641 268.002 70.2598 268.307 69.7441C268.611 69.2168 268.834 68.6074 268.975 67.916C269.127 67.2246 269.203 66.4805 269.203 65.6836V65.3145C269.203 64.541 269.127 63.8145 268.975 63.1348C268.834 62.4434 268.605 61.834 268.289 61.3066C267.984 60.7676 267.58 60.3457 267.076 60.041C266.572 59.7363 265.963 59.584 265.248 59.584C264.533 59.584 263.924 59.7363 263.42 60.041C262.928 60.3457 262.523 60.7676 262.207 61.3066C261.902 61.834 261.68 62.4434 261.539 63.1348C261.398 63.8145 261.328 64.541 261.328 65.3145ZM288.645 70.4473V55.9805H293.707V75H288.943L288.645 70.4473ZM289.207 66.5449L290.701 66.5098C290.701 67.7754 290.555 68.9531 290.262 70.043C289.969 71.1211 289.529 72.0586 288.943 72.8555C288.357 73.6406 287.619 74.2559 286.729 74.7012C285.838 75.1348 284.789 75.3516 283.582 75.3516C282.656 75.3516 281.801 75.2227 281.016 74.9648C280.242 74.6953 279.574 74.2793 279.012 73.7168C278.461 73.1426 278.027 72.4102 277.711 71.5195C277.406 70.6172 277.254 69.5332 277.254 68.2676V55.9805H282.316V68.3027C282.316 68.8652 282.381 69.3398 282.51 69.7266C282.65 70.1133 282.844 70.4297 283.09 70.6758C283.336 70.9219 283.623 71.0977 283.951 71.2031C284.291 71.3086 284.666 71.3613 285.076 71.3613C286.119 71.3613 286.939 71.1504 287.537 70.7285C288.146 70.3066 288.574 69.7324 288.82 69.0059C289.078 68.2676 289.207 67.4473 289.207 66.5449ZM302.637 59.918V75H297.557V55.9805H302.32L302.637 59.918ZM301.934 64.8223H300.527C300.527 63.498 300.686 62.2793 301.002 61.166C301.33 60.041 301.805 59.0684 302.426 58.248C303.059 57.416 303.838 56.7715 304.764 56.3145C305.689 55.8574 306.762 55.6289 307.98 55.6289C308.824 55.6289 309.598 55.7578 310.301 56.0156C311.004 56.2617 311.607 56.6543 312.111 57.1934C312.627 57.7207 313.025 58.4121 313.307 59.2676C313.588 60.1113 313.729 61.125 313.729 62.3086V75H308.666V62.8711C308.666 62.0039 308.549 61.3359 308.314 60.8672C308.08 60.3984 307.746 60.0703 307.312 59.8828C306.891 59.6953 306.381 59.6016 305.783 59.6016C305.127 59.6016 304.553 59.7363 304.061 60.0059C303.58 60.2754 303.182 60.6504 302.865 61.1309C302.549 61.5996 302.314 62.1504 302.162 62.7832C302.01 63.416 301.934 64.0957 301.934 64.8223ZM313.254 64.2422L311.443 64.4707C311.443 63.2285 311.596 62.0742 311.9 61.0078C312.217 59.9414 312.68 59.0039 313.289 58.1953C313.91 57.3867 314.678 56.7598 315.592 56.3145C316.506 55.8574 317.561 55.6289 318.756 55.6289C319.67 55.6289 320.502 55.7637 321.252 56.0332C322.002 56.291 322.641 56.707 323.168 57.2812C323.707 57.8438 324.117 58.582 324.398 59.4961C324.691 60.4102 324.838 61.5293 324.838 62.8535V75H319.758V62.8535C319.758 61.9746 319.641 61.3066 319.406 60.8496C319.184 60.3809 318.855 60.0586 318.422 59.8828C318 59.6953 317.496 59.6016 316.91 59.6016C316.301 59.6016 315.768 59.7246 315.311 59.9707C314.854 60.2051 314.473 60.5332 314.168 60.9551C313.863 61.377 313.635 61.8691 313.482 62.4316C313.33 62.9824 313.254 63.5859 313.254 64.2422ZM339.023 70.7109V62.2383C339.023 61.6289 338.924 61.1074 338.725 60.6738C338.525 60.2285 338.215 59.8828 337.793 59.6367C337.383 59.3906 336.85 59.2676 336.193 59.2676C335.631 59.2676 335.145 59.3672 334.734 59.5664C334.324 59.7539 334.008 60.0293 333.785 60.3926C333.562 60.7441 333.451 61.1602 333.451 61.6406H328.389C328.389 60.832 328.576 60.0645 328.951 59.3379C329.326 58.6113 329.871 57.9727 330.586 57.4219C331.301 56.8594 332.15 56.4199 333.135 56.1035C334.131 55.7871 335.244 55.6289 336.475 55.6289C337.951 55.6289 339.264 55.875 340.412 56.3672C341.561 56.8594 342.463 57.5977 343.119 58.582C343.787 59.5664 344.121 60.7969 344.121 62.2734V70.4121C344.121 71.4551 344.186 72.3105 344.314 72.9785C344.443 73.6348 344.631 74.209 344.877 74.7012V75H339.762C339.516 74.4844 339.328 73.8398 339.199 73.0664C339.082 72.2812 339.023 71.4961 339.023 70.7109ZM339.691 63.416L339.727 66.2812H336.896C336.229 66.2812 335.648 66.3574 335.156 66.5098C334.664 66.6621 334.26 66.8789 333.943 67.1602C333.627 67.4297 333.393 67.7461 333.24 68.1094C333.1 68.4727 333.029 68.8711 333.029 69.3047C333.029 69.7383 333.129 70.1309 333.328 70.4824C333.527 70.8223 333.814 71.0918 334.189 71.291C334.564 71.4785 335.004 71.5723 335.508 71.5723C336.27 71.5723 336.932 71.4199 337.494 71.1152C338.057 70.8105 338.49 70.4355 338.795 69.9902C339.111 69.5449 339.275 69.123 339.287 68.7246L340.623 70.8691C340.436 71.3496 340.178 71.8477 339.85 72.3633C339.533 72.8789 339.129 73.3652 338.637 73.8223C338.145 74.2676 337.553 74.6367 336.861 74.9297C336.17 75.2109 335.35 75.3516 334.4 75.3516C333.193 75.3516 332.098 75.1113 331.113 74.6309C330.141 74.1387 329.367 73.4648 328.793 72.6094C328.23 71.7422 327.949 70.7578 327.949 69.6562C327.949 68.6602 328.137 67.7754 328.512 67.002C328.887 66.2285 329.438 65.5781 330.164 65.0508C330.902 64.5117 331.822 64.1074 332.924 63.8379C334.025 63.5566 335.303 63.416 336.756 63.416H339.691ZM362.912 49.4062V75H357.656V49.4062H362.912ZM367.535 48H372.598V70.6406L372.088 75H367.535V48ZM384.639 65.2969V65.666C384.639 67.084 384.486 68.3848 384.182 69.5684C383.889 70.752 383.432 71.7773 382.811 72.6445C382.189 73.5 381.416 74.168 380.49 74.6484C379.576 75.1172 378.498 75.3516 377.256 75.3516C376.096 75.3516 375.088 75.1172 374.232 74.6484C373.389 74.1797 372.68 73.5176 372.105 72.6621C371.531 71.8066 371.068 70.8047 370.717 69.6562C370.365 68.5078 370.102 67.2539 369.926 65.8945V65.0859C370.102 63.7266 370.365 62.4727 370.717 61.3242C371.068 60.1758 371.531 59.1738 372.105 58.3184C372.68 57.4629 373.389 56.8008 374.232 56.332C375.076 55.8633 376.072 55.6289 377.221 55.6289C378.475 55.6289 379.564 55.8691 380.49 56.3496C381.428 56.8184 382.201 57.4863 382.811 58.3535C383.432 59.209 383.889 60.2285 384.182 61.4121C384.486 62.584 384.639 63.8789 384.639 65.2969ZM379.576 65.666V65.2969C379.576 64.5234 379.518 63.7969 379.4 63.1172C379.295 62.4258 379.107 61.8223 378.838 61.3066C378.568 60.7793 378.199 60.3633 377.73 60.0586C377.273 59.7539 376.682 59.6016 375.955 59.6016C375.264 59.6016 374.678 59.7188 374.197 59.9531C373.717 60.1875 373.318 60.5156 373.002 60.9375C372.697 61.3594 372.469 61.8633 372.316 62.4492C372.164 63.0234 372.07 63.6562 372.035 64.3477V66.6504C372.07 67.5762 372.223 68.3965 372.492 69.1113C372.773 69.8145 373.195 70.3711 373.758 70.7812C374.332 71.1797 375.076 71.3789 375.99 71.3789C376.705 71.3789 377.297 71.2383 377.766 70.957C378.234 70.6758 378.598 70.2773 378.855 69.7617C379.125 69.2461 379.312 68.6426 379.418 67.9512C379.523 67.248 379.576 66.4863 379.576 65.666ZM392.848 60.1289V75H387.785V55.9805H392.549L392.848 60.1289ZM398.578 55.8574L398.49 60.5508C398.244 60.5156 397.945 60.4863 397.594 60.4629C397.254 60.4277 396.943 60.4102 396.662 60.4102C395.947 60.4102 395.326 60.5039 394.799 60.6914C394.283 60.8672 393.85 61.1309 393.498 61.4824C393.158 61.834 392.9 62.2617 392.725 62.7656C392.561 63.2695 392.467 63.8438 392.443 64.4883L391.424 64.1719C391.424 62.9414 391.547 61.8105 391.793 60.7793C392.039 59.7363 392.396 58.8281 392.865 58.0547C393.346 57.2812 393.932 56.6836 394.623 56.2617C395.314 55.8398 396.105 55.6289 396.996 55.6289C397.277 55.6289 397.564 55.6523 397.857 55.6992C398.15 55.7344 398.391 55.7871 398.578 55.8574ZM410.637 70.7109V62.2383C410.637 61.6289 410.537 61.1074 410.338 60.6738C410.139 60.2285 409.828 59.8828 409.406 59.6367C408.996 59.3906 408.463 59.2676 407.807 59.2676C407.244 59.2676 406.758 59.3672 406.348 59.5664C405.938 59.7539 405.621 60.0293 405.398 60.3926C405.176 60.7441 405.064 61.1602 405.064 61.6406H400.002C400.002 60.832 400.189 60.0645 400.564 59.3379C400.939 58.6113 401.484 57.9727 402.199 57.4219C402.914 56.8594 403.764 56.4199 404.748 56.1035C405.744 55.7871 406.857 55.6289 408.088 55.6289C409.564 55.6289 410.877 55.875 412.025 56.3672C413.174 56.8594 414.076 57.5977 414.732 58.582C415.4 59.5664 415.734 60.7969 415.734 62.2734V70.4121C415.734 71.4551 415.799 72.3105 415.928 72.9785C416.057 73.6348 416.244 74.209 416.49 74.7012V75H411.375C411.129 74.4844 410.941 73.8398 410.812 73.0664C410.695 72.2812 410.637 71.4961 410.637 70.7109ZM411.305 63.416L411.34 66.2812H408.51C407.842 66.2812 407.262 66.3574 406.77 66.5098C406.277 66.6621 405.873 66.8789 405.557 67.1602C405.24 67.4297 405.006 67.7461 404.854 68.1094C404.713 68.4727 404.643 68.8711 404.643 69.3047C404.643 69.7383 404.742 70.1309 404.941 70.4824C405.141 70.8223 405.428 71.0918 405.803 71.291C406.178 71.4785 406.617 71.5723 407.121 71.5723C407.883 71.5723 408.545 71.4199 409.107 71.1152C409.67 70.8105 410.104 70.4355 410.408 69.9902C410.725 69.5449 410.889 69.123 410.9 68.7246L412.236 70.8691C412.049 71.3496 411.791 71.8477 411.463 72.3633C411.146 72.8789 410.742 73.3652 410.25 73.8223C409.758 74.2676 409.166 74.6367 408.475 74.9297C407.783 75.2109 406.963 75.3516 406.014 75.3516C404.807 75.3516 403.711 75.1113 402.727 74.6309C401.754 74.1387 400.98 73.4648 400.406 72.6094C399.844 71.7422 399.562 70.7578 399.562 69.6562C399.562 68.6602 399.75 67.7754 400.125 67.002C400.5 66.2285 401.051 65.5781 401.777 65.0508C402.516 64.5117 403.436 64.1074 404.537 63.8379C405.639 63.5566 406.916 63.416 408.369 63.416H411.305ZM424.576 48V75H419.514V48H424.576ZM423.855 64.8223H422.467C422.479 63.498 422.654 62.2793 422.994 61.166C423.334 60.041 423.82 59.0684 424.453 58.248C425.086 57.416 425.842 56.7715 426.721 56.3145C427.611 55.8574 428.596 55.6289 429.674 55.6289C430.611 55.6289 431.461 55.7637 432.223 56.0332C432.996 56.291 433.658 56.7129 434.209 57.2988C434.771 57.873 435.205 58.6289 435.51 59.5664C435.814 60.5039 435.967 61.6406 435.967 62.9766V75H430.869V62.9414C430.869 62.0977 430.746 61.4355 430.5 60.9551C430.266 60.4629 429.92 60.1172 429.463 59.918C429.018 59.707 428.467 59.6016 427.811 59.6016C427.084 59.6016 426.463 59.7363 425.947 60.0059C425.443 60.2754 425.039 60.6504 424.734 61.1309C424.43 61.5996 424.207 62.1504 424.066 62.7832C423.926 63.416 423.855 64.0957 423.855 64.8223ZM445.16 55.9805V75H440.08V55.9805H445.16ZM439.764 51.0234C439.764 50.2852 440.021 49.6758 440.537 49.1953C441.053 48.7148 441.744 48.4746 442.611 48.4746C443.467 48.4746 444.152 48.7148 444.668 49.1953C445.195 49.6758 445.459 50.2852 445.459 51.0234C445.459 51.7617 445.195 52.3711 444.668 52.8516C444.152 53.332 443.467 53.5723 442.611 53.5723C441.744 53.5723 441.053 53.332 440.537 52.8516C440.021 52.3711 439.764 51.7617 439.764 51.0234ZM454.406 59.918V75H449.326V55.9805H454.09L454.406 59.918ZM453.703 64.8223H452.297C452.297 63.498 452.455 62.2793 452.771 61.166C453.1 60.041 453.574 59.0684 454.195 58.248C454.828 57.416 455.607 56.7715 456.533 56.3145C457.459 55.8574 458.531 55.6289 459.75 55.6289C460.594 55.6289 461.367 55.7578 462.07 56.0156C462.773 56.2617 463.377 56.6543 463.881 57.1934C464.396 57.7207 464.795 58.4121 465.076 59.2676C465.357 60.1113 465.498 61.125 465.498 62.3086V75H460.436V62.8711C460.436 62.0039 460.318 61.3359 460.084 60.8672C459.85 60.3984 459.516 60.0703 459.082 59.8828C458.66 59.6953 458.15 59.6016 457.553 59.6016C456.896 59.6016 456.322 59.7363 455.83 60.0059C455.35 60.2754 454.951 60.6504 454.635 61.1309C454.318 61.5996 454.084 62.1504 453.932 62.7832C453.779 63.416 453.703 64.0957 453.703 64.8223ZM465.023 64.2422L463.213 64.4707C463.213 63.2285 463.365 62.0742 463.67 61.0078C463.986 59.9414 464.449 59.0039 465.059 58.1953C465.68 57.3867 466.447 56.7598 467.361 56.3145C468.275 55.8574 469.33 55.6289 470.525 55.6289C471.439 55.6289 472.271 55.7637 473.021 56.0332C473.771 56.291 474.41 56.707 474.938 57.2812C475.477 57.8438 475.887 58.582 476.168 59.4961C476.461 60.4102 476.607 61.5293 476.607 62.8535V75H471.527V62.8535C471.527 61.9746 471.41 61.3066 471.176 60.8496C470.953 60.3809 470.625 60.0586 470.191 59.8828C469.77 59.6953 469.266 59.6016 468.68 59.6016C468.07 59.6016 467.537 59.7246 467.08 59.9707C466.623 60.2051 466.242 60.5332 465.938 60.9551C465.633 61.377 465.404 61.8691 465.252 62.4316C465.1 62.9824 465.023 63.5859 465.023 64.2422Z" fill="#888888"/>
<path d="M111.102 130.621L119.387 100.188H130.133L116.707 140H109.762L111.102 130.621ZM103.582 100.188L111.867 130.621L113.262 140H106.234L92.8906 100.188H103.582ZM142.355 110.414V140H133.113V110.414H142.355ZM132.566 102.785C132.566 101.473 133.04 100.397 133.988 99.5586C134.936 98.7201 136.167 98.3008 137.68 98.3008C139.193 98.3008 140.423 98.7201 141.371 99.5586C142.319 100.397 142.793 101.473 142.793 102.785C142.793 104.098 142.319 105.173 141.371 106.012C140.423 106.85 139.193 107.27 137.68 107.27C136.167 107.27 134.936 106.85 133.988 106.012C133.04 105.173 132.566 104.098 132.566 102.785ZM148.125 98H157.34V132.727L156.383 140H148.125V98ZM175.496 124.879V125.453C175.496 127.695 175.268 129.737 174.812 131.578C174.357 133.419 173.655 135.014 172.707 136.363C171.759 137.694 170.565 138.724 169.125 139.453C167.685 140.182 165.98 140.547 164.012 140.547C162.225 140.547 160.694 140.164 159.418 139.398C158.142 138.615 157.076 137.539 156.219 136.172C155.362 134.786 154.669 133.191 154.141 131.387C153.612 129.564 153.193 127.613 152.883 125.535V124.852C153.193 122.792 153.612 120.859 154.141 119.055C154.669 117.232 155.362 115.637 156.219 114.27C157.076 112.884 158.133 111.809 159.391 111.043C160.667 110.259 162.189 109.867 163.957 109.867C165.944 109.867 167.658 110.241 169.098 110.988C170.556 111.736 171.759 112.784 172.707 114.133C173.655 115.482 174.357 117.068 174.812 118.891C175.268 120.714 175.496 122.71 175.496 124.879ZM166.281 125.453V124.879C166.281 123.803 166.217 122.792 166.09 121.844C165.962 120.896 165.734 120.057 165.406 119.328C165.078 118.599 164.613 118.025 164.012 117.605C163.41 117.186 162.626 116.977 161.66 116.977C160.676 116.977 159.846 117.141 159.172 117.469C158.516 117.797 157.987 118.271 157.586 118.891C157.203 119.492 156.93 120.24 156.766 121.133C156.602 122.008 156.529 123.001 156.547 124.113V126.273C156.51 127.786 156.647 129.081 156.957 130.156C157.267 131.232 157.805 132.052 158.57 132.617C159.336 133.182 160.384 133.465 161.715 133.465C162.699 133.465 163.492 133.273 164.094 132.891C164.714 132.508 165.178 131.961 165.488 131.25C165.798 130.539 166.008 129.691 166.117 128.707C166.227 127.723 166.281 126.638 166.281 125.453ZM193.926 140.547C191.52 140.547 189.368 140.173 187.473 139.426C185.577 138.66 183.973 137.612 182.66 136.281C181.366 134.951 180.372 133.419 179.68 131.688C179.005 129.956 178.668 128.124 178.668 126.191V125.152C178.668 122.983 178.969 120.978 179.57 119.137C180.172 117.277 181.065 115.655 182.25 114.27C183.435 112.884 184.921 111.809 186.707 111.043C188.493 110.259 190.572 109.867 192.941 109.867C195.038 109.867 196.915 110.204 198.574 110.879C200.233 111.553 201.637 112.52 202.785 113.777C203.952 115.035 204.836 116.557 205.438 118.344C206.057 120.13 206.367 122.135 206.367 124.359V128.105H182.195V122.336H197.371V121.625C197.389 120.641 197.216 119.802 196.852 119.109C196.505 118.417 195.995 117.888 195.32 117.523C194.646 117.159 193.826 116.977 192.859 116.977C191.857 116.977 191.027 117.195 190.371 117.633C189.733 118.07 189.232 118.672 188.867 119.438C188.521 120.185 188.275 121.051 188.129 122.035C187.983 123.02 187.91 124.059 187.91 125.152V126.191C187.91 127.285 188.056 128.279 188.348 129.172C188.658 130.065 189.095 130.831 189.66 131.469C190.243 132.089 190.936 132.572 191.738 132.918C192.559 133.264 193.488 133.438 194.527 133.438C195.785 133.438 197.025 133.201 198.246 132.727C199.467 132.253 200.516 131.469 201.391 130.375L205.574 135.352C204.973 136.208 204.116 137.038 203.004 137.84C201.91 138.642 200.598 139.298 199.066 139.809C197.535 140.301 195.822 140.547 193.926 140.547Z" fill="black"/>
<rect x="93" y="178" width="917" height="77" rx="10" fill="#D3D3D3"/>
<rect x="111" y="196" width="91" height="41" rx="3" fill="#424242"/>
<rect x="111" y="196" width="91" height="41" rx="3" stroke="#424242" stroke-width="4"/>
<path d="M134.141 210.203H139.177C140.161 210.203 141.017 210.35 141.743 210.643C142.47 210.936 143.029 211.369 143.422 211.943C143.82 212.518 144.02 213.227 144.02 214.07C144.02 214.803 143.905 215.415 143.677 215.907C143.448 216.399 143.129 216.807 142.719 217.129C142.314 217.445 141.843 217.706 141.304 217.911L140.293 218.482H136.065L136.048 216.101H139.177C139.569 216.101 139.895 216.03 140.152 215.89C140.41 215.749 140.604 215.55 140.732 215.292C140.867 215.028 140.935 214.715 140.935 214.352C140.935 213.982 140.867 213.666 140.732 213.402C140.598 213.139 140.398 212.937 140.135 212.796C139.877 212.655 139.558 212.585 139.177 212.585H137.226V223H134.141V210.203ZM141.146 223L138.315 217.34L141.585 217.322L144.45 222.868V223H141.146ZM150.348 223.176C149.574 223.176 148.883 223.056 148.273 222.815C147.664 222.569 147.148 222.232 146.727 221.805C146.311 221.377 145.991 220.885 145.769 220.328C145.552 219.771 145.443 219.183 145.443 218.562V218.228C145.443 217.53 145.54 216.886 145.733 216.294C145.927 215.696 146.214 215.175 146.595 214.729C146.976 214.284 147.453 213.938 148.027 213.692C148.602 213.44 149.27 213.314 150.031 213.314C150.705 213.314 151.309 213.423 151.842 213.64C152.375 213.856 152.826 214.167 153.195 214.571C153.57 214.976 153.854 215.465 154.048 216.039C154.247 216.613 154.347 217.258 154.347 217.973V219.177H146.577V217.322H151.455V217.094C151.461 216.777 151.405 216.508 151.288 216.285C151.177 216.062 151.013 215.893 150.796 215.775C150.579 215.658 150.315 215.6 150.005 215.6C149.683 215.6 149.416 215.67 149.205 215.811C149 215.951 148.839 216.145 148.722 216.391C148.61 216.631 148.531 216.909 148.484 217.226C148.438 217.542 148.414 217.876 148.414 218.228V218.562C148.414 218.913 148.461 219.232 148.555 219.52C148.654 219.807 148.795 220.053 148.977 220.258C149.164 220.457 149.387 220.612 149.645 220.724C149.908 220.835 150.207 220.891 150.541 220.891C150.945 220.891 151.344 220.814 151.736 220.662C152.129 220.51 152.466 220.258 152.747 219.906L154.092 221.506C153.898 221.781 153.623 222.048 153.266 222.306C152.914 222.563 152.492 222.774 152 222.938C151.508 223.097 150.957 223.176 150.348 223.176ZM160.49 220.609V216.689C160.49 216.42 160.452 216.188 160.376 215.995C160.3 215.802 160.18 215.652 160.016 215.547C159.852 215.436 159.632 215.38 159.356 215.38C159.134 215.38 158.943 215.418 158.785 215.494C158.627 215.57 158.507 215.685 158.425 215.837C158.343 215.989 158.302 216.183 158.302 216.417H155.34C155.34 215.978 155.437 215.57 155.63 215.195C155.829 214.814 156.11 214.483 156.474 214.202C156.843 213.921 157.282 213.704 157.792 213.552C158.308 213.394 158.882 213.314 159.515 213.314C160.271 213.314 160.944 213.44 161.536 213.692C162.134 213.944 162.605 214.322 162.951 214.826C163.297 215.324 163.47 215.951 163.47 216.707V220.601C163.47 221.222 163.505 221.693 163.575 222.016C163.646 222.332 163.745 222.61 163.874 222.851V223H160.903C160.763 222.707 160.657 222.35 160.587 221.928C160.522 221.5 160.49 221.061 160.49 220.609ZM160.851 217.19L160.868 218.772H159.559C159.283 218.772 159.049 218.811 158.855 218.887C158.668 218.963 158.516 219.068 158.398 219.203C158.287 219.332 158.205 219.479 158.152 219.643C158.105 219.807 158.082 219.979 158.082 220.161C158.082 220.337 158.123 220.495 158.205 220.636C158.293 220.771 158.41 220.876 158.557 220.952C158.703 221.028 158.867 221.066 159.049 221.066C159.377 221.066 159.655 221.005 159.884 220.882C160.118 220.753 160.297 220.598 160.42 220.416C160.543 220.234 160.604 220.064 160.604 219.906L161.255 221.119C161.138 221.354 161.003 221.591 160.851 221.831C160.704 222.071 160.52 222.294 160.297 222.499C160.08 222.698 159.813 222.862 159.497 222.991C159.181 223.114 158.797 223.176 158.346 223.176C157.76 223.176 157.221 223.056 156.729 222.815C156.242 222.575 155.853 222.241 155.56 221.813C155.267 221.38 155.12 220.882 155.12 220.319C155.12 219.827 155.208 219.388 155.384 219.001C155.565 218.614 155.838 218.286 156.201 218.017C156.564 217.747 157.027 217.542 157.59 217.401C158.152 217.261 158.814 217.19 159.576 217.19H160.851ZM169.13 220.891C169.405 220.891 169.64 220.841 169.833 220.741C170.032 220.636 170.182 220.489 170.281 220.302C170.387 220.108 170.437 219.877 170.431 219.607H173.217C173.223 220.322 173.047 220.949 172.689 221.488C172.338 222.021 171.857 222.438 171.248 222.736C170.645 223.029 169.962 223.176 169.2 223.176C168.456 223.176 167.806 223.056 167.249 222.815C166.692 222.569 166.227 222.229 165.852 221.796C165.482 221.356 165.204 220.844 165.017 220.258C164.835 219.672 164.744 219.036 164.744 218.351V218.148C164.744 217.463 164.835 216.827 165.017 216.241C165.204 215.649 165.482 215.137 165.852 214.703C166.227 214.264 166.689 213.924 167.24 213.684C167.797 213.438 168.444 213.314 169.183 213.314C169.974 213.314 170.671 213.464 171.274 213.763C171.884 214.062 172.361 214.495 172.707 215.063C173.053 215.632 173.223 216.32 173.217 217.129H170.431C170.437 216.842 170.393 216.584 170.299 216.355C170.205 216.127 170.059 215.945 169.859 215.811C169.666 215.67 169.417 215.6 169.112 215.6C168.808 215.6 168.562 215.667 168.374 215.802C168.187 215.937 168.043 216.124 167.943 216.364C167.85 216.599 167.785 216.868 167.75 217.173C167.721 217.478 167.706 217.803 167.706 218.148V218.351C167.706 218.702 167.721 219.033 167.75 219.344C167.785 219.648 167.853 219.918 167.952 220.152C168.052 220.381 168.195 220.562 168.383 220.697C168.57 220.826 168.819 220.891 169.13 220.891ZM179.492 213.49V215.547H173.762V213.49H179.492ZM174.966 211.126H177.928V219.897C177.928 220.149 177.957 220.346 178.016 220.486C178.074 220.621 178.174 220.718 178.314 220.776C178.461 220.829 178.654 220.855 178.895 220.855C179.064 220.855 179.205 220.853 179.316 220.847C179.428 220.835 179.533 220.82 179.633 220.803V222.921C179.381 223.003 179.117 223.064 178.842 223.105C178.566 223.152 178.273 223.176 177.963 223.176C177.33 223.176 176.788 223.076 176.337 222.877C175.892 222.678 175.552 222.364 175.317 221.937C175.083 221.509 174.966 220.952 174.966 220.267V211.126Z" fill="white"/>
<rect x="222" y="196" width="102" height="41" rx="3" fill="#424242"/>
<rect x="222" y="196" width="102" height="41" rx="3" stroke="#424242" stroke-width="4"/>
<path d="M255.932 210.203V223H252.855L248.329 215.037V223H245.244V210.203H248.329L252.855 218.166V210.203H255.932ZM262.348 223.176C261.574 223.176 260.883 223.056 260.273 222.815C259.664 222.569 259.148 222.232 258.727 221.805C258.311 221.377 257.991 220.885 257.769 220.328C257.552 219.771 257.443 219.183 257.443 218.562V218.228C257.443 217.53 257.54 216.886 257.733 216.294C257.927 215.696 258.214 215.175 258.595 214.729C258.976 214.284 259.453 213.938 260.027 213.692C260.602 213.44 261.27 213.314 262.031 213.314C262.705 213.314 263.309 213.423 263.842 213.64C264.375 213.856 264.826 214.167 265.195 214.571C265.57 214.976 265.854 215.465 266.048 216.039C266.247 216.613 266.347 217.258 266.347 217.973V219.177H258.577V217.322H263.455V217.094C263.461 216.777 263.405 216.508 263.288 216.285C263.177 216.062 263.013 215.893 262.796 215.775C262.579 215.658 262.315 215.6 262.005 215.6C261.683 215.6 261.416 215.67 261.205 215.811C261 215.951 260.839 216.145 260.722 216.391C260.61 216.631 260.531 216.909 260.484 217.226C260.438 217.542 260.414 217.876 260.414 218.228V218.562C260.414 218.913 260.461 219.232 260.555 219.52C260.654 219.807 260.795 220.053 260.977 220.258C261.164 220.457 261.387 220.612 261.645 220.724C261.908 220.835 262.207 220.891 262.541 220.891C262.945 220.891 263.344 220.814 263.736 220.662C264.129 220.51 264.466 220.258 264.747 219.906L266.092 221.506C265.898 221.781 265.623 222.048 265.266 222.306C264.914 222.563 264.492 222.774 264 222.938C263.508 223.097 262.957 223.176 262.348 223.176ZM270.064 213.49L271.4 216.109L272.78 213.49H275.856L273.36 218.122L275.988 223H272.886L271.4 220.188L269.924 223H266.821L269.449 218.122L266.962 213.49H270.064ZM281.842 213.49V215.547H276.111V213.49H281.842ZM277.315 211.126H280.277V219.897C280.277 220.149 280.307 220.346 280.365 220.486C280.424 220.621 280.523 220.718 280.664 220.776C280.811 220.829 281.004 220.855 281.244 220.855C281.414 220.855 281.555 220.853 281.666 220.847C281.777 220.835 281.883 220.82 281.982 220.803V222.921C281.73 223.003 281.467 223.064 281.191 223.105C280.916 223.152 280.623 223.176 280.312 223.176C279.68 223.176 279.138 223.076 278.687 222.877C278.241 222.678 277.901 222.364 277.667 221.937C277.433 221.509 277.315 220.952 277.315 220.267V211.126ZM283.213 221.611C283.213 221.189 283.365 220.838 283.67 220.557C283.975 220.27 284.367 220.126 284.848 220.126C285.334 220.126 285.727 220.27 286.025 220.557C286.33 220.838 286.482 221.189 286.482 221.611C286.482 222.033 286.33 222.388 286.025 222.675C285.727 222.956 285.334 223.097 284.848 223.097C284.367 223.097 283.975 222.956 283.67 222.675C283.365 222.388 283.213 222.033 283.213 221.611ZM288.688 213.49H291.659V223.308C291.659 224.069 291.513 224.711 291.22 225.232C290.927 225.76 290.508 226.158 289.963 226.428C289.418 226.703 288.768 226.841 288.012 226.841C287.76 226.841 287.528 226.829 287.317 226.806C287.101 226.788 286.863 226.75 286.605 226.691V224.45C286.758 224.474 286.898 224.491 287.027 224.503C287.156 224.521 287.297 224.529 287.449 224.529C287.719 224.529 287.944 224.485 288.126 224.397C288.308 224.31 288.445 224.175 288.539 223.993C288.639 223.812 288.688 223.583 288.688 223.308V213.49ZM288.469 211.038C288.469 210.616 288.621 210.271 288.926 210.001C289.23 209.731 289.626 209.597 290.112 209.597C290.599 209.597 290.994 209.731 291.299 210.001C291.604 210.271 291.756 210.616 291.756 211.038C291.756 211.46 291.604 211.806 291.299 212.075C290.994 212.345 290.599 212.479 290.112 212.479C289.626 212.479 289.23 212.345 288.926 212.075C288.621 211.806 288.469 211.46 288.469 211.038ZM298.321 220.328C298.321 220.164 298.266 220.023 298.154 219.906C298.049 219.783 297.861 219.672 297.592 219.572C297.322 219.467 296.944 219.361 296.458 219.256C295.995 219.156 295.559 219.024 295.148 218.86C294.744 218.696 294.39 218.497 294.085 218.263C293.78 218.028 293.54 217.75 293.364 217.428C293.194 217.105 293.109 216.736 293.109 216.32C293.109 215.916 293.194 215.535 293.364 215.178C293.54 214.814 293.795 214.495 294.129 214.22C294.469 213.938 294.882 213.719 295.368 213.561C295.854 213.396 296.408 213.314 297.029 213.314C297.885 213.314 298.623 213.446 299.244 213.71C299.865 213.968 300.343 214.331 300.677 214.8C301.017 215.263 301.187 215.799 301.187 216.408H298.225C298.225 216.168 298.184 215.963 298.102 215.793C298.025 215.623 297.899 215.494 297.724 215.406C297.548 215.312 297.313 215.266 297.021 215.266C296.815 215.266 296.628 215.304 296.458 215.38C296.294 215.456 296.162 215.562 296.062 215.696C295.963 215.831 295.913 215.989 295.913 216.171C295.913 216.3 295.942 216.417 296.001 216.522C296.065 216.622 296.162 216.716 296.291 216.804C296.42 216.886 296.584 216.962 296.783 217.032C296.982 217.097 297.223 217.155 297.504 217.208C298.143 217.325 298.74 217.492 299.297 217.709C299.854 217.926 300.305 218.233 300.65 218.632C301.002 219.03 301.178 219.566 301.178 220.24C301.178 220.662 301.081 221.052 300.888 221.409C300.694 221.761 300.416 222.071 300.053 222.341C299.689 222.604 299.253 222.81 298.743 222.956C298.233 223.103 297.659 223.176 297.021 223.176C296.112 223.176 295.345 223.015 294.718 222.692C294.091 222.364 293.616 221.954 293.294 221.462C292.978 220.964 292.819 220.46 292.819 219.95H295.579C295.591 220.243 295.661 220.483 295.79 220.671C295.925 220.858 296.104 220.996 296.326 221.084C296.549 221.172 296.807 221.216 297.1 221.216C297.369 221.216 297.592 221.178 297.768 221.102C297.949 221.025 298.087 220.923 298.181 220.794C298.274 220.659 298.321 220.504 298.321 220.328Z" fill="white"/>
<rect x="344" y="196" width="104" height="41" rx="3" fill="#424242"/>
<rect x="344" y="196" width="104" height="41" rx="3" stroke="#424242" stroke-width="4"/>
<path d="M375.812 220.627V223H369.343V220.627H375.812ZM370.441 210.203V223H367.356V210.203H370.441ZM381.911 220.609V216.689C381.911 216.42 381.873 216.188 381.797 215.995C381.721 215.802 381.601 215.652 381.437 215.547C381.272 215.436 381.053 215.38 380.777 215.38C380.555 215.38 380.364 215.418 380.206 215.494C380.048 215.57 379.928 215.685 379.846 215.837C379.764 215.989 379.723 216.183 379.723 216.417H376.761C376.761 215.978 376.857 215.57 377.051 215.195C377.25 214.814 377.531 214.483 377.895 214.202C378.264 213.921 378.703 213.704 379.213 213.552C379.729 213.394 380.303 213.314 380.936 213.314C381.691 213.314 382.365 213.44 382.957 213.692C383.555 213.944 384.026 214.322 384.372 214.826C384.718 215.324 384.891 215.951 384.891 216.707V220.601C384.891 221.222 384.926 221.693 384.996 222.016C385.066 222.332 385.166 222.61 385.295 222.851V223H382.324C382.184 222.707 382.078 222.35 382.008 221.928C381.943 221.5 381.911 221.061 381.911 220.609ZM382.271 217.19L382.289 218.772H380.979C380.704 218.772 380.47 218.811 380.276 218.887C380.089 218.963 379.937 219.068 379.819 219.203C379.708 219.332 379.626 219.479 379.573 219.643C379.526 219.807 379.503 219.979 379.503 220.161C379.503 220.337 379.544 220.495 379.626 220.636C379.714 220.771 379.831 220.876 379.978 220.952C380.124 221.028 380.288 221.066 380.47 221.066C380.798 221.066 381.076 221.005 381.305 220.882C381.539 220.753 381.718 220.598 381.841 220.416C381.964 220.234 382.025 220.064 382.025 219.906L382.676 221.119C382.559 221.354 382.424 221.591 382.271 221.831C382.125 222.071 381.94 222.294 381.718 222.499C381.501 222.698 381.234 222.862 380.918 222.991C380.602 223.114 380.218 223.176 379.767 223.176C379.181 223.176 378.642 223.056 378.149 222.815C377.663 222.575 377.273 222.241 376.98 221.813C376.688 221.38 376.541 220.882 376.541 220.319C376.541 219.827 376.629 219.388 376.805 219.001C376.986 218.614 377.259 218.286 377.622 218.017C377.985 217.747 378.448 217.542 379.011 217.401C379.573 217.261 380.235 217.19 380.997 217.19H382.271ZM389.522 215.846V223H386.561V213.49H389.329L389.522 215.846ZM392.335 213.42L392.282 216.171C392.165 216.159 392.007 216.145 391.808 216.127C391.608 216.109 391.441 216.101 391.307 216.101C390.961 216.101 390.662 216.142 390.41 216.224C390.164 216.3 389.959 216.417 389.795 216.575C389.637 216.728 389.52 216.921 389.443 217.155C389.373 217.39 389.341 217.662 389.347 217.973L388.811 217.621C388.811 216.982 388.872 216.402 388.995 215.881C389.124 215.354 389.306 214.899 389.54 214.519C389.774 214.132 390.059 213.836 390.393 213.631C390.727 213.42 391.102 213.314 391.518 213.314C391.664 213.314 391.808 213.323 391.948 213.341C392.095 213.358 392.224 213.385 392.335 213.42ZM398.03 220.609V216.689C398.03 216.42 397.992 216.188 397.916 215.995C397.84 215.802 397.72 215.652 397.556 215.547C397.392 215.436 397.172 215.38 396.896 215.38C396.674 215.38 396.483 215.418 396.325 215.494C396.167 215.57 396.047 215.685 395.965 215.837C395.883 215.989 395.842 216.183 395.842 216.417H392.88C392.88 215.978 392.977 215.57 393.17 215.195C393.369 214.814 393.65 214.483 394.014 214.202C394.383 213.921 394.822 213.704 395.332 213.552C395.848 213.394 396.422 213.314 397.055 213.314C397.811 213.314 398.484 213.44 399.076 213.692C399.674 213.944 400.146 214.322 400.491 214.826C400.837 215.324 401.01 215.951 401.01 216.707V220.601C401.01 221.222 401.045 221.693 401.115 222.016C401.186 222.332 401.285 222.61 401.414 222.851V223H398.443C398.303 222.707 398.197 222.35 398.127 221.928C398.062 221.5 398.03 221.061 398.03 220.609ZM398.391 217.19L398.408 218.772H397.099C396.823 218.772 396.589 218.811 396.396 218.887C396.208 218.963 396.056 219.068 395.938 219.203C395.827 219.332 395.745 219.479 395.692 219.643C395.646 219.807 395.622 219.979 395.622 220.161C395.622 220.337 395.663 220.495 395.745 220.636C395.833 220.771 395.95 220.876 396.097 220.952C396.243 221.028 396.407 221.066 396.589 221.066C396.917 221.066 397.195 221.005 397.424 220.882C397.658 220.753 397.837 220.598 397.96 220.416C398.083 220.234 398.145 220.064 398.145 219.906L398.795 221.119C398.678 221.354 398.543 221.591 398.391 221.831C398.244 222.071 398.06 222.294 397.837 222.499C397.62 222.698 397.354 222.862 397.037 222.991C396.721 223.114 396.337 223.176 395.886 223.176C395.3 223.176 394.761 223.056 394.269 222.815C393.782 222.575 393.393 222.241 393.1 221.813C392.807 221.38 392.66 220.882 392.66 220.319C392.66 219.827 392.748 219.388 392.924 219.001C393.105 218.614 393.378 218.286 393.741 218.017C394.104 217.747 394.567 217.542 395.13 217.401C395.692 217.261 396.354 217.19 397.116 217.19H398.391ZM405.94 220.97L407.812 213.49H410.933L407.821 223H405.976L405.94 220.97ZM404.833 213.49L406.679 220.97L406.661 223H404.807L401.704 213.49H404.833ZM416.294 223.176C415.521 223.176 414.829 223.056 414.22 222.815C413.61 222.569 413.095 222.232 412.673 221.805C412.257 221.377 411.938 220.885 411.715 220.328C411.498 219.771 411.39 219.183 411.39 218.562V218.228C411.39 217.53 411.486 216.886 411.68 216.294C411.873 215.696 412.16 215.175 412.541 214.729C412.922 214.284 413.399 213.938 413.974 213.692C414.548 213.44 415.216 213.314 415.978 213.314C416.651 213.314 417.255 213.423 417.788 213.64C418.321 213.856 418.772 214.167 419.142 214.571C419.517 214.976 419.801 215.465 419.994 216.039C420.193 216.613 420.293 217.258 420.293 217.973V219.177H412.523V217.322H417.401V217.094C417.407 216.777 417.352 216.508 417.234 216.285C417.123 216.062 416.959 215.893 416.742 215.775C416.525 215.658 416.262 215.6 415.951 215.6C415.629 215.6 415.362 215.67 415.151 215.811C414.946 215.951 414.785 216.145 414.668 216.391C414.557 216.631 414.478 216.909 414.431 217.226C414.384 217.542 414.36 217.876 414.36 218.228V218.562C414.36 218.913 414.407 219.232 414.501 219.52C414.601 219.807 414.741 220.053 414.923 220.258C415.11 220.457 415.333 220.612 415.591 220.724C415.854 220.835 416.153 220.891 416.487 220.891C416.892 220.891 417.29 220.814 417.683 220.662C418.075 220.51 418.412 220.258 418.693 219.906L420.038 221.506C419.845 221.781 419.569 222.048 419.212 222.306C418.86 222.563 418.438 222.774 417.946 222.938C417.454 223.097 416.903 223.176 416.294 223.176ZM424.626 209.5V223H421.655V209.5H424.626Z" fill="white"/>
<rect x="468" y="196" width="103" height="41" rx="3" fill="#424242"/>
<rect x="468" y="196" width="103" height="41" rx="3" stroke="#424242" stroke-width="4"/>
<path d="M492.72 210.203H495.233L498.09 219.106L500.946 210.203H503.46L499.109 223H497.07L492.72 210.203ZM491.19 210.203H493.792L494.275 220.012V223H491.19V210.203ZM502.388 210.203H504.998V223H501.904V220.012L502.388 210.203ZM509.753 221.884L512.214 213.49H515.396L511.572 224.415C511.49 224.655 511.382 224.913 511.247 225.188C511.112 225.47 510.928 225.736 510.693 225.988C510.459 226.24 510.157 226.445 509.788 226.604C509.425 226.762 508.974 226.841 508.435 226.841C508.147 226.841 507.937 226.826 507.802 226.797C507.673 226.773 507.474 226.729 507.204 226.665V224.547C507.28 224.547 507.345 224.547 507.397 224.547C507.456 224.547 507.521 224.547 507.591 224.547C507.907 224.547 508.159 224.515 508.347 224.45C508.54 224.386 508.687 224.292 508.786 224.169C508.892 224.046 508.974 223.896 509.032 223.721L509.753 221.884ZM509.129 213.49L511.001 220.144L511.326 223.281H509.34L505.956 213.49H509.129ZM522.901 219.599C522.901 219.399 522.872 219.221 522.813 219.062C522.755 218.898 522.646 218.746 522.488 218.605C522.33 218.465 522.102 218.324 521.803 218.184C521.51 218.037 521.123 217.885 520.643 217.727C520.08 217.539 519.538 217.328 519.017 217.094C518.495 216.854 518.029 216.575 517.619 216.259C517.209 215.937 516.884 215.562 516.644 215.134C516.403 214.7 516.283 214.196 516.283 213.622C516.283 213.071 516.406 212.576 516.652 212.137C516.898 211.691 517.241 211.313 517.681 211.003C518.126 210.687 518.647 210.446 519.245 210.282C519.843 210.112 520.496 210.027 521.205 210.027C522.143 210.027 522.969 210.191 523.684 210.52C524.404 210.842 524.967 211.302 525.371 211.899C525.781 212.491 525.986 213.191 525.986 214H522.919C522.919 213.678 522.852 213.394 522.717 213.147C522.588 212.901 522.392 212.708 522.128 212.567C521.864 212.427 521.533 212.356 521.135 212.356C520.748 212.356 520.423 212.415 520.159 212.532C519.896 212.649 519.696 212.808 519.562 213.007C519.427 213.2 519.359 213.414 519.359 213.648C519.359 213.842 519.412 214.018 519.518 214.176C519.629 214.328 519.784 214.472 519.983 214.606C520.188 214.741 520.435 214.87 520.722 214.993C521.015 215.116 521.343 215.236 521.706 215.354C522.386 215.57 522.989 215.813 523.517 216.083C524.05 216.347 524.498 216.648 524.861 216.988C525.23 217.322 525.509 217.703 525.696 218.131C525.89 218.559 525.986 219.042 525.986 219.581C525.986 220.155 525.875 220.665 525.652 221.11C525.43 221.556 525.11 221.934 524.694 222.244C524.278 222.549 523.78 222.78 523.2 222.938C522.62 223.097 521.973 223.176 521.258 223.176C520.602 223.176 519.954 223.094 519.315 222.93C518.683 222.76 518.108 222.502 517.593 222.156C517.077 221.805 516.664 221.356 516.354 220.812C516.049 220.261 515.896 219.607 515.896 218.852H518.99C518.99 219.227 519.04 219.543 519.14 219.801C519.239 220.059 519.386 220.267 519.579 220.425C519.772 220.577 520.01 220.688 520.291 220.759C520.572 220.823 520.895 220.855 521.258 220.855C521.65 220.855 521.967 220.8 522.207 220.688C522.447 220.571 522.623 220.419 522.734 220.231C522.846 220.038 522.901 219.827 522.901 219.599ZM534.714 220.891L538.282 223.721L536.366 225.338L532.859 222.508L534.714 220.891ZM538.432 216.347V216.865C538.432 217.844 538.294 218.723 538.019 219.502C537.749 220.275 537.362 220.938 536.858 221.488C536.36 222.033 535.771 222.452 535.092 222.745C534.412 223.032 533.662 223.176 532.842 223.176C532.016 223.176 531.26 223.032 530.574 222.745C529.895 222.452 529.303 222.033 528.799 221.488C528.301 220.938 527.914 220.275 527.639 219.502C527.369 218.723 527.234 217.844 527.234 216.865V216.347C527.234 215.368 527.369 214.489 527.639 213.71C527.914 212.931 528.298 212.269 528.79 211.724C529.288 211.173 529.877 210.754 530.557 210.467C531.242 210.174 531.998 210.027 532.824 210.027C533.645 210.027 534.395 210.174 535.074 210.467C535.76 210.754 536.352 211.173 536.85 211.724C537.354 212.269 537.743 212.931 538.019 213.71C538.294 214.489 538.432 215.368 538.432 216.347ZM535.294 216.865V216.329C535.294 215.696 535.238 215.14 535.127 214.659C535.021 214.173 534.863 213.766 534.652 213.438C534.441 213.109 534.181 212.863 533.87 212.699C533.565 212.529 533.217 212.444 532.824 212.444C532.414 212.444 532.057 212.529 531.752 212.699C531.447 212.863 531.192 213.109 530.987 213.438C530.782 213.766 530.627 214.173 530.521 214.659C530.422 215.14 530.372 215.696 530.372 216.329V216.865C530.372 217.492 530.422 218.049 530.521 218.535C530.627 219.016 530.782 219.423 530.987 219.757C531.198 220.091 531.456 220.343 531.761 220.513C532.071 220.683 532.432 220.768 532.842 220.768C533.234 220.768 533.583 220.683 533.888 220.513C534.192 220.343 534.447 220.091 534.652 219.757C534.863 219.423 535.021 219.016 535.127 218.535C535.238 218.049 535.294 217.492 535.294 216.865ZM548.46 220.627V223H541.991V220.627H548.46ZM543.09 210.203V223H540.005V210.203H543.09Z" fill="white"/>
<rect x="591" y="196" width="151" height="41" rx="3" fill="#424242"/>
<rect x="591" y="196" width="151" height="41" rx="3" stroke="#424242" stroke-width="4"/>
<path d="M620.428 210.203V223H617.343V210.203H620.428ZM624.277 210.203V212.585H613.581V210.203H624.277ZM628.892 220.609V216.689C628.892 216.42 628.854 216.188 628.777 215.995C628.701 215.802 628.581 215.652 628.417 215.547C628.253 215.436 628.033 215.38 627.758 215.38C627.535 215.38 627.345 215.418 627.187 215.494C627.028 215.57 626.908 215.685 626.826 215.837C626.744 215.989 626.703 216.183 626.703 216.417H623.741C623.741 215.978 623.838 215.57 624.031 215.195C624.23 214.814 624.512 214.483 624.875 214.202C625.244 213.921 625.684 213.704 626.193 213.552C626.709 213.394 627.283 213.314 627.916 213.314C628.672 213.314 629.346 213.44 629.938 213.692C630.535 213.944 631.007 214.322 631.353 214.826C631.698 215.324 631.871 215.951 631.871 216.707V220.601C631.871 221.222 631.906 221.693 631.977 222.016C632.047 222.332 632.146 222.61 632.275 222.851V223H629.305C629.164 222.707 629.059 222.35 628.988 221.928C628.924 221.5 628.892 221.061 628.892 220.609ZM629.252 217.19L629.27 218.772H627.96C627.685 218.772 627.45 218.811 627.257 218.887C627.069 218.963 626.917 219.068 626.8 219.203C626.688 219.332 626.606 219.479 626.554 219.643C626.507 219.807 626.483 219.979 626.483 220.161C626.483 220.337 626.524 220.495 626.606 220.636C626.694 220.771 626.812 220.876 626.958 220.952C627.104 221.028 627.269 221.066 627.45 221.066C627.778 221.066 628.057 221.005 628.285 220.882C628.52 220.753 628.698 220.598 628.821 220.416C628.944 220.234 629.006 220.064 629.006 219.906L629.656 221.119C629.539 221.354 629.404 221.591 629.252 221.831C629.105 222.071 628.921 222.294 628.698 222.499C628.481 222.698 628.215 222.862 627.898 222.991C627.582 223.114 627.198 223.176 626.747 223.176C626.161 223.176 625.622 223.056 625.13 222.815C624.644 222.575 624.254 222.241 623.961 221.813C623.668 221.38 623.521 220.882 623.521 220.319C623.521 219.827 623.609 219.388 623.785 219.001C623.967 218.614 624.239 218.286 624.603 218.017C624.966 217.747 625.429 217.542 625.991 217.401C626.554 217.261 627.216 217.19 627.978 217.19H629.252ZM636.644 213.49V223H633.673V213.49H636.644ZM633.497 211.038C633.497 210.616 633.649 210.271 633.954 210.001C634.259 209.731 634.654 209.597 635.141 209.597C635.627 209.597 636.022 209.731 636.327 210.001C636.632 210.271 636.784 210.616 636.784 211.038C636.784 211.46 636.632 211.806 636.327 212.075C636.022 212.345 635.627 212.479 635.141 212.479C634.654 212.479 634.259 212.345 633.954 212.075C633.649 211.806 633.497 211.46 633.497 211.038ZM641.601 209.5V223H638.63V209.5H641.601ZM646.32 220.17L648.078 213.49H649.933L649.273 216.839L647.533 223H646.048L646.32 220.17ZM645.626 213.49L646.716 220.117L646.839 223H645.037L642.787 213.49H645.626ZM651.497 219.977L652.596 213.49H655.435L653.202 223H651.4L651.497 219.977ZM650.144 213.49L651.919 220.152L652.191 223H650.688L648.983 216.856L648.351 213.49H650.144ZM659.636 213.49V223H656.665V213.49H659.636ZM656.489 211.038C656.489 210.616 656.642 210.271 656.946 210.001C657.251 209.731 657.646 209.597 658.133 209.597C658.619 209.597 659.015 209.731 659.319 210.001C659.624 210.271 659.776 210.616 659.776 211.038C659.776 211.46 659.624 211.806 659.319 212.075C659.015 212.345 658.619 212.479 658.133 212.479C657.646 212.479 657.251 212.345 656.946 212.075C656.642 211.806 656.489 211.46 656.489 211.038ZM664.373 215.521V223H661.411V213.49H664.188L664.373 215.521ZM664.021 217.92L663.327 217.938C663.327 217.211 663.415 216.563 663.591 215.995C663.767 215.421 664.016 214.935 664.338 214.536C664.66 214.138 665.044 213.836 665.489 213.631C665.94 213.42 666.441 213.314 666.992 213.314C667.432 213.314 667.833 213.379 668.196 213.508C668.565 213.637 668.882 213.845 669.146 214.132C669.415 214.419 669.62 214.8 669.761 215.274C669.907 215.743 669.98 216.323 669.98 217.015V223H667.001V217.006C667.001 216.625 666.948 216.335 666.843 216.136C666.737 215.931 666.585 215.79 666.386 215.714C666.187 215.638 665.943 215.6 665.656 215.6C665.352 215.6 665.094 215.658 664.883 215.775C664.672 215.893 664.502 216.057 664.373 216.268C664.25 216.473 664.159 216.716 664.101 216.997C664.048 217.278 664.021 217.586 664.021 217.92ZM677.091 220.82V209.5H680.07V223H677.398L677.091 220.82ZM671.255 218.359V218.175C671.255 217.454 671.334 216.798 671.492 216.206C671.65 215.608 671.885 215.096 672.195 214.668C672.506 214.234 672.893 213.9 673.355 213.666C673.818 213.432 674.352 213.314 674.955 213.314C675.494 213.314 675.966 213.44 676.37 213.692C676.774 213.938 677.12 214.284 677.407 214.729C677.694 215.175 677.929 215.696 678.11 216.294C678.292 216.886 678.43 217.524 678.523 218.21V218.43C678.43 219.074 678.292 219.684 678.11 220.258C677.929 220.826 677.694 221.33 677.407 221.77C677.12 222.209 676.771 222.555 676.361 222.807C675.957 223.053 675.482 223.176 674.938 223.176C674.334 223.176 673.801 223.056 673.338 222.815C672.881 222.575 672.497 222.238 672.187 221.805C671.882 221.371 671.65 220.861 671.492 220.275C671.334 219.689 671.255 219.051 671.255 218.359ZM674.217 218.175V218.359C674.217 218.717 674.24 219.048 674.287 219.353C674.334 219.657 674.413 219.927 674.524 220.161C674.642 220.39 674.794 220.568 674.981 220.697C675.175 220.826 675.412 220.891 675.693 220.891C676.074 220.891 676.388 220.8 676.634 220.618C676.886 220.437 677.07 220.179 677.188 219.845C677.311 219.511 677.363 219.118 677.346 218.667V217.973C677.357 217.586 677.331 217.246 677.267 216.953C677.202 216.654 677.1 216.405 676.959 216.206C676.824 216.007 676.651 215.857 676.44 215.758C676.235 215.652 675.992 215.6 675.711 215.6C675.436 215.6 675.201 215.664 675.008 215.793C674.82 215.922 674.668 216.104 674.551 216.338C674.434 216.566 674.349 216.839 674.296 217.155C674.243 217.466 674.217 217.806 674.217 218.175ZM693.649 218.667H696.726C696.685 219.558 696.444 220.343 696.005 221.022C695.565 221.702 694.956 222.232 694.177 222.613C693.403 222.988 692.489 223.176 691.435 223.176C690.579 223.176 689.814 223.032 689.141 222.745C688.473 222.458 687.904 222.045 687.436 221.506C686.973 220.967 686.618 220.313 686.372 219.546C686.132 218.778 686.012 217.914 686.012 216.953V216.259C686.012 215.298 686.138 214.434 686.39 213.666C686.647 212.893 687.011 212.236 687.479 211.697C687.954 211.152 688.522 210.736 689.185 210.449C689.847 210.162 690.582 210.019 691.391 210.019C692.504 210.019 693.444 210.218 694.212 210.616C694.979 211.015 695.574 211.562 695.996 212.26C696.418 212.951 696.667 213.739 696.743 214.624H693.667C693.655 214.144 693.573 213.742 693.421 213.42C693.269 213.092 693.028 212.846 692.7 212.682C692.372 212.518 691.936 212.436 691.391 212.436C691.01 212.436 690.679 212.506 690.397 212.646C690.116 212.787 689.882 213.01 689.694 213.314C689.507 213.619 689.366 214.015 689.272 214.501C689.185 214.981 689.141 215.562 689.141 216.241V216.953C689.141 217.633 689.182 218.213 689.264 218.693C689.346 219.174 689.478 219.566 689.659 219.871C689.841 220.176 690.075 220.401 690.362 220.548C690.655 220.688 691.013 220.759 691.435 220.759C691.903 220.759 692.299 220.686 692.621 220.539C692.943 220.387 693.192 220.158 693.368 219.854C693.544 219.543 693.638 219.147 693.649 218.667ZM704.776 219.599C704.776 219.399 704.747 219.221 704.688 219.062C704.63 218.898 704.521 218.746 704.363 218.605C704.205 218.465 703.977 218.324 703.678 218.184C703.385 218.037 702.998 217.885 702.518 217.727C701.955 217.539 701.413 217.328 700.892 217.094C700.37 216.854 699.904 216.575 699.494 216.259C699.084 215.937 698.759 215.562 698.519 215.134C698.278 214.7 698.158 214.196 698.158 213.622C698.158 213.071 698.281 212.576 698.527 212.137C698.773 211.691 699.116 211.313 699.556 211.003C700.001 210.687 700.522 210.446 701.12 210.282C701.718 210.112 702.371 210.027 703.08 210.027C704.018 210.027 704.844 210.191 705.559 210.52C706.279 210.842 706.842 211.302 707.246 211.899C707.656 212.491 707.861 213.191 707.861 214H704.794C704.794 213.678 704.727 213.394 704.592 213.147C704.463 212.901 704.267 212.708 704.003 212.567C703.739 212.427 703.408 212.356 703.01 212.356C702.623 212.356 702.298 212.415 702.034 212.532C701.771 212.649 701.571 212.808 701.437 213.007C701.302 213.2 701.234 213.414 701.234 213.648C701.234 213.842 701.287 214.018 701.393 214.176C701.504 214.328 701.659 214.472 701.858 214.606C702.063 214.741 702.31 214.87 702.597 214.993C702.89 215.116 703.218 215.236 703.581 215.354C704.261 215.57 704.864 215.813 705.392 216.083C705.925 216.347 706.373 216.648 706.736 216.988C707.105 217.322 707.384 217.703 707.571 218.131C707.765 218.559 707.861 219.042 707.861 219.581C707.861 220.155 707.75 220.665 707.527 221.11C707.305 221.556 706.985 221.934 706.569 222.244C706.153 222.549 705.655 222.78 705.075 222.938C704.495 223.097 703.848 223.176 703.133 223.176C702.477 223.176 701.829 223.094 701.19 222.93C700.558 222.76 699.983 222.502 699.468 222.156C698.952 221.805 698.539 221.356 698.229 220.812C697.924 220.261 697.771 219.607 697.771 218.852H700.865C700.865 219.227 700.915 219.543 701.015 219.801C701.114 220.059 701.261 220.267 701.454 220.425C701.647 220.577 701.885 220.688 702.166 220.759C702.447 220.823 702.77 220.855 703.133 220.855C703.525 220.855 703.842 220.8 704.082 220.688C704.322 220.571 704.498 220.419 704.609 220.231C704.721 220.038 704.776 219.827 704.776 219.599ZM716.044 219.599C716.044 219.399 716.015 219.221 715.956 219.062C715.897 218.898 715.789 218.746 715.631 218.605C715.473 218.465 715.244 218.324 714.945 218.184C714.652 218.037 714.266 217.885 713.785 217.727C713.223 217.539 712.681 217.328 712.159 217.094C711.638 216.854 711.172 216.575 710.762 216.259C710.352 215.937 710.026 215.562 709.786 215.134C709.546 214.7 709.426 214.196 709.426 213.622C709.426 213.071 709.549 212.576 709.795 212.137C710.041 211.691 710.384 211.313 710.823 211.003C711.269 210.687 711.79 210.446 712.388 210.282C712.985 210.112 713.639 210.027 714.348 210.027C715.285 210.027 716.111 210.191 716.826 210.52C717.547 210.842 718.109 211.302 718.514 211.899C718.924 212.491 719.129 213.191 719.129 214H716.062C716.062 213.678 715.994 213.394 715.859 213.147C715.73 212.901 715.534 212.708 715.271 212.567C715.007 212.427 714.676 212.356 714.277 212.356C713.891 212.356 713.565 212.415 713.302 212.532C713.038 212.649 712.839 212.808 712.704 213.007C712.569 213.2 712.502 213.414 712.502 213.648C712.502 213.842 712.555 214.018 712.66 214.176C712.771 214.328 712.927 214.472 713.126 214.606C713.331 214.741 713.577 214.87 713.864 214.993C714.157 215.116 714.485 215.236 714.849 215.354C715.528 215.57 716.132 215.813 716.659 216.083C717.192 216.347 717.641 216.648 718.004 216.988C718.373 217.322 718.651 217.703 718.839 218.131C719.032 218.559 719.129 219.042 719.129 219.581C719.129 220.155 719.018 220.665 718.795 221.11C718.572 221.556 718.253 221.934 717.837 222.244C717.421 222.549 716.923 222.78 716.343 222.938C715.763 223.097 715.115 223.176 714.4 223.176C713.744 223.176 713.097 223.094 712.458 222.93C711.825 222.76 711.251 222.502 710.735 222.156C710.22 221.805 709.807 221.356 709.496 220.812C709.191 220.261 709.039 219.607 709.039 218.852H712.133C712.133 219.227 712.183 219.543 712.282 219.801C712.382 220.059 712.528 220.267 712.722 220.425C712.915 220.577 713.152 220.688 713.434 220.759C713.715 220.823 714.037 220.855 714.4 220.855C714.793 220.855 715.109 220.8 715.35 220.688C715.59 220.571 715.766 220.419 715.877 220.231C715.988 220.038 716.044 219.827 716.044 219.599Z" fill="white"/>
<path d="M1066 0H1348C1356.28 0 1363 6.71573 1363 15V282C1363 290.284 1356.28 297 1348 297H1066V0Z" fill="white"/>
<g clip-path="url(#clip0_3_61)">
<g filter="url(#filter0_d_3_61)">
<path d="M1209.5 61.3867C1212.59 59.6004 1216.41 59.6004 1219.5 61.3868L1287.44 100.613C1290.54 102.4 1292.44 105.701 1292.44 109.274V187.727C1292.44 191.299 1290.54 194.6 1287.44 196.387L1219.5 235.613C1216.41 237.4 1212.59 237.4 1209.5 235.613L1141.56 196.387C1138.46 194.6 1136.56 191.299 1136.56 187.727V109.273C1136.56 105.701 1138.46 102.4 1141.56 100.613L1209.5 61.3867Z" fill="#6C2A9F"/>
</g>
<path d="M1169.74 114.292C1163.86 105.692 1179.28 89.8224 1208.71 102.782C1222.06 108.822 1245 124.022 1257.16 111.402C1258.6 109.902 1260.05 107.612 1259.71 105.562C1262.04 110.312 1253.42 127.752 1225.01 116.732C1210.02 110.962 1196.9 100.192 1181.43 102.442C1173.34 103.562 1167.85 108.342 1169.74 114.302V114.292Z" fill="white"/>
<path d="M1231.26 110.492C1239.37 112.042 1246.27 109.922 1249.92 106.952C1255.26 102.592 1253.16 96.3723 1249.27 94.3123C1245.24 92.1323 1240.51 95.5923 1241.19 99.5223C1241.56 101.622 1243.59 103.912 1246.48 103.982C1245.17 104.592 1243.48 104.522 1242.04 103.872C1236.75 101.552 1236.61 94.5423 1241.1 90.7723C1245.01 87.4523 1251.52 87.5323 1255.89 92.6023C1260.5 98.1223 1259.99 106.622 1252.8 111.102C1247.28 114.682 1237.7 115.162 1231.26 110.492Z" fill="white"/>
<path d="M1225.67 119.043C1218.1 122.473 1201.69 113.283 1192.78 111.433C1174.63 107.353 1171.16 120.333 1176.16 125.643C1169.69 123.083 1169.2 110.683 1179.87 106.453C1196.82 99.5726 1215.59 118.873 1225.67 119.043Z" fill="white"/>
<path d="M1213.72 200.652C1211.93 200.652 1210.35 200.225 1208.99 199.372C1207.71 198.519 1206.77 197.367 1206.17 195.916L1182.62 135.5C1183.22 135.159 1184.16 134.903 1185.44 134.732C1186.72 134.476 1187.82 134.348 1188.76 134.348C1191.07 134.348 1193.12 134.817 1194.91 135.756C1196.78 136.695 1198.02 138.103 1198.62 139.98L1212.96 181.964L1211.04 187.596L1211.93 187.98L1228.83 139.98C1229.51 138.103 1230.7 136.695 1232.41 135.756C1234.2 134.817 1236.25 134.348 1238.56 134.348C1239.58 134.348 1240.73 134.476 1242.01 134.732C1243.29 134.903 1244.23 135.159 1244.83 135.5L1221.28 195.916C1220.68 197.367 1219.7 198.519 1218.33 199.372C1217.05 200.225 1215.52 200.652 1213.72 200.652Z" fill="white"/>
</g>
<defs>
<filter id="filter0_d_3_61" x="1080.56" y="4.047" width="267.884" height="288.906" filterUnits="userSpaceOnUse" color-interpolation-filters="sRGB">
<feFlood flood-opacity="0" result="BackgroundImageFix"/>
<feColorMatrix in="SourceAlpha" type="matrix" values="0 0 0 0 0 0 0 0 0 0 0 0 0 0 0 0 0 0 127 0" result="hardAlpha"/>
<feOffset/>
<feGaussianBlur stdDeviation="28"/>
<feComposite in2="hardAlpha" operator="out"/>
<feColorMatrix type="matrix" values="0 0 0 0 0.423529 0 0 0 0 0.164706 0 0 0 0 0.623529 0 0 0 0.5 0"/>
<feBlend mode="normal" in2="BackgroundImageFix" result="effect1_dropShadow_3_61"/>
<feBlend mode="normal" in="SourceGraphic" in2="effect1_dropShadow_3_61" result="shape"/>
</filter>
<clipPath id="clip0_3_61">
<rect width="268" height="290" fill="white" transform="translate(1080.5 3.5)"/>
</clipPath>
</defs>
</svg>
