<svg width="1363" height="163" viewBox="0 0 1363 163" fill="none" xmlns="http://www.w3.org/2000/svg">
<path d="M0 15C0 6.71573 6.71573 0 15 0H37V163H15C6.71573 163 0 156.284 0 148V15Z" fill="#424242"/>
<rect width="1097" height="163" transform="translate(37)" fill="#F0F0F0"/>
<path d="M101.906 53.9219L94.3945 51.2383V48.0859L104.602 52.375V54.6367L101.906 53.9219ZM94.3945 56.1719L101.918 53.4297L104.602 52.7852V55.0352L94.3945 59.3242V56.1719ZM119.051 57.4375L123.07 43.9375H126.984L121.043 61H118.465L119.051 57.4375ZM115.348 43.9375L119.355 57.4375L119.965 61H117.363L111.457 43.9375H115.348ZM131.93 48.3203V61H128.543V48.3203H131.93ZM128.332 45.0156C128.332 44.5234 128.504 44.1172 128.848 43.7969C129.191 43.4766 129.652 43.3164 130.23 43.3164C130.801 43.3164 131.258 43.4766 131.602 43.7969C131.953 44.1172 132.129 44.5234 132.129 45.0156C132.129 45.5078 131.953 45.9141 131.602 46.2344C131.258 46.5547 130.801 46.7148 130.23 46.7148C129.652 46.7148 129.191 46.5547 128.848 46.2344C128.504 45.9141 128.332 45.5078 128.332 45.0156ZM134.719 43H138.094V58.0938L137.754 61H134.719V43ZM146.121 54.5312V54.7773C146.121 55.7227 146.02 56.5898 145.816 57.3789C145.621 58.168 145.316 58.8516 144.902 59.4297C144.488 60 143.973 60.4453 143.355 60.7656C142.746 61.0781 142.027 61.2344 141.199 61.2344C140.426 61.2344 139.754 61.0781 139.184 60.7656C138.621 60.4531 138.148 60.0117 137.766 59.4414C137.383 58.8711 137.074 58.2031 136.84 57.4375C136.605 56.6719 136.43 55.8359 136.312 54.9297V54.3906C136.43 53.4844 136.605 52.6484 136.84 51.8828C137.074 51.1172 137.383 50.4492 137.766 49.8789C138.148 49.3086 138.621 48.8672 139.184 48.5547C139.746 48.2422 140.41 48.0859 141.176 48.0859C142.012 48.0859 142.738 48.2461 143.355 48.5664C143.98 48.8789 144.496 49.3242 144.902 49.9023C145.316 50.4727 145.621 51.1523 145.816 51.9414C146.02 52.7227 146.121 53.5859 146.121 54.5312ZM142.746 54.7773V54.5312C142.746 54.0156 142.707 53.5312 142.629 53.0781C142.559 52.6172 142.434 52.2148 142.254 51.8711C142.074 51.5195 141.828 51.2422 141.516 51.0391C141.211 50.8359 140.816 50.7344 140.332 50.7344C139.871 50.7344 139.48 50.8125 139.16 50.9688C138.84 51.125 138.574 51.3438 138.363 51.625C138.16 51.9062 138.008 52.2422 137.906 52.6328C137.805 53.0156 137.742 53.4375 137.719 53.8984V55.4336C137.742 56.0508 137.844 56.5977 138.023 57.0742C138.211 57.543 138.492 57.9141 138.867 58.1875C139.25 58.4531 139.746 58.5859 140.355 58.5859C140.832 58.5859 141.227 58.4922 141.539 58.3047C141.852 58.1172 142.094 57.8516 142.266 57.5078C142.445 57.1641 142.57 56.7617 142.641 56.3008C142.711 55.832 142.746 55.3242 142.746 54.7773ZM154.055 61.2344C153.07 61.2344 152.188 61.0781 151.406 60.7656C150.625 60.4453 149.961 60.0039 149.414 59.4414C148.875 58.8789 148.461 58.2266 148.172 57.4844C147.883 56.7344 147.738 55.9375 147.738 55.0938V54.625C147.738 53.6641 147.875 52.7852 148.148 51.9883C148.422 51.1914 148.812 50.5 149.32 49.9141C149.836 49.3281 150.461 48.8789 151.195 48.5664C151.93 48.2461 152.758 48.0859 153.68 48.0859C154.578 48.0859 155.375 48.2344 156.07 48.5312C156.766 48.8281 157.348 49.25 157.816 49.7969C158.293 50.3438 158.652 51 158.895 51.7656C159.137 52.5234 159.258 53.3672 159.258 54.2969V55.7031H149.18V53.4531H155.941V53.1953C155.941 52.7266 155.855 52.3086 155.684 51.9414C155.52 51.5664 155.27 51.2695 154.934 51.0508C154.598 50.832 154.168 50.7227 153.645 50.7227C153.199 50.7227 152.816 50.8203 152.496 51.0156C152.176 51.2109 151.914 51.4844 151.711 51.8359C151.516 52.1875 151.367 52.6016 151.266 53.0781C151.172 53.5469 151.125 54.0625 151.125 54.625V55.0938C151.125 55.6016 151.195 56.0703 151.336 56.5C151.484 56.9297 151.691 57.3008 151.957 57.6133C152.23 57.9258 152.559 58.168 152.941 58.3398C153.332 58.5117 153.773 58.5977 154.266 58.5977C154.875 58.5977 155.441 58.4805 155.965 58.2461C156.496 58.0039 156.953 57.6406 157.336 57.1562L158.977 58.9375C158.711 59.3203 158.348 59.6875 157.887 60.0391C157.434 60.3906 156.887 60.6797 156.246 60.9062C155.605 61.125 154.875 61.2344 154.055 61.2344Z" fill="#888888"/>
<path d="M114.117 84.875H122.344V107.164C122.344 109.82 121.789 112.07 120.68 113.914C119.57 115.742 118.016 117.125 116.016 118.062C114.016 119 111.664 119.469 108.961 119.469C106.289 119.469 103.938 119 101.906 118.062C99.8906 117.125 98.3125 115.742 97.1719 113.914C96.0469 112.07 95.4844 109.82 95.4844 107.164V84.875H103.734V107.164C103.734 108.57 103.938 109.719 104.344 110.609C104.75 111.484 105.344 112.125 106.125 112.531C106.906 112.938 107.852 113.141 108.961 113.141C110.086 113.141 111.031 112.938 111.797 112.531C112.562 112.125 113.141 111.484 113.531 110.609C113.922 109.719 114.117 108.57 114.117 107.164V84.875ZM136.266 84.875V119H128.062V84.875H136.266ZM172.523 84.875H180.75V107.164C180.75 109.82 180.195 112.07 179.086 113.914C177.977 115.742 176.422 117.125 174.422 118.062C172.422 119 170.07 119.469 167.367 119.469C164.695 119.469 162.344 119 160.312 118.062C158.297 117.125 156.719 115.742 155.578 113.914C154.453 112.07 153.891 109.82 153.891 107.164V84.875H162.141V107.164C162.141 108.57 162.344 109.719 162.75 110.609C163.156 111.484 163.75 112.125 164.531 112.531C165.312 112.938 166.258 113.141 167.367 113.141C168.492 113.141 169.438 112.938 170.203 112.531C170.969 112.125 171.547 111.484 171.938 110.609C172.328 109.719 172.523 108.57 172.523 107.164V84.875ZM193.078 84.875L198.656 96.2188L204.234 84.875H213.609L204.094 101.797L213.867 119H204.398L198.656 107.445L192.914 119H183.422L193.219 101.797L183.68 84.875H193.078Z" fill="black"/>
<path d="M1134 0H1348C1356.28 0 1363 6.71573 1363 15V148C1363 156.284 1356.28 163 1348 163H1134V0Z" fill="#6C2B9F"/>
<path d="M1248.5 111.917C1244.51 111.917 1240.55 111.13 1236.86 109.601C1233.17 108.073 1229.82 105.832 1226.99 103.008C1221.29 97.3036 1218.08 89.567 1218.08 81.5C1218.08 73.433 1221.29 65.6964 1226.99 59.9922C1232.7 54.2879 1240.43 51.0833 1248.5 51.0833C1265.23 51.0833 1278.92 63.25 1278.92 78.4583C1278.92 83.2985 1276.99 87.9405 1273.57 91.363C1270.15 94.7856 1265.51 96.7083 1260.67 96.7083H1255.19C1254.28 96.7083 1253.67 97.3167 1253.67 98.2292C1253.67 98.5333 1253.97 98.8375 1253.97 99.1417C1255.19 100.662 1255.8 102.487 1255.8 104.312C1256.1 108.571 1252.76 111.917 1248.5 111.917ZM1248.5 57.1667C1242.05 57.1667 1235.86 59.7303 1231.29 64.2937C1226.73 68.8571 1224.17 75.0464 1224.17 81.5C1224.17 87.9536 1226.73 94.1429 1231.29 98.7063C1235.86 103.27 1242.05 105.833 1248.5 105.833C1249.41 105.833 1250.02 105.225 1250.02 104.312C1250.02 103.704 1249.72 103.4 1249.72 103.096C1248.5 101.575 1247.89 100.054 1247.89 98.2292C1247.89 93.9708 1251.24 90.625 1255.5 90.625H1260.67C1263.89 90.625 1266.99 89.3432 1269.27 87.0615C1271.55 84.7798 1272.83 81.6851 1272.83 78.4583C1272.83 66.5958 1261.88 57.1667 1248.5 57.1667ZM1231.77 75.4167C1234.2 75.4167 1236.33 77.5458 1236.33 79.9792C1236.33 82.4125 1234.2 84.5417 1231.77 84.5417C1229.34 84.5417 1227.21 82.4125 1227.21 79.9792C1227.21 77.5458 1229.34 75.4167 1231.77 75.4167ZM1240.9 63.25C1243.33 63.25 1245.46 65.3792 1245.46 67.8125C1245.46 70.2458 1243.33 72.375 1240.9 72.375C1238.46 72.375 1236.33 70.2458 1236.33 67.8125C1236.33 65.3792 1238.46 63.25 1240.9 63.25ZM1256.1 63.25C1258.54 63.25 1260.67 65.3792 1260.67 67.8125C1260.67 70.2458 1258.54 72.375 1256.1 72.375C1253.67 72.375 1251.54 70.2458 1251.54 67.8125C1251.54 65.3792 1253.67 63.25 1256.1 63.25ZM1265.23 75.4167C1267.66 75.4167 1269.79 77.5458 1269.79 79.9792C1269.79 82.4125 1267.66 84.5417 1265.23 84.5417C1262.8 84.5417 1260.67 82.4125 1260.67 79.9792C1260.67 77.5458 1262.8 75.4167 1265.23 75.4167Z" fill="white"/>
</svg>
