<?xml version="1.0" encoding="utf-8"?>
<svg viewBox="209.7909 210.8174 183.8385 110.2541" xmlns="http://www.w3.org/2000/svg">
  <path d="M48.23.88c-.51,0-4.74,2.23-7.79,2s-6.29-1.65-6.35-2c-.06-.35.47-.88.47-.88,0,0-2.29.82-3.17,1.58s-1.35.65-1.35.65c0,0-.47.12-1.35-.65s-3.17-1.58-3.17-1.58c0,0,.53.53.47.88-.06.35-3.29,1.76-6.35,2s-7.29-2-7.79-2-2.99,5.49-2.99,5.49c0,0,1.73-1.64,4.37-.94s7.89.93,11.85.42c3.96-.5,5.96-.5,9.91,0,3.96.5,8.01.33,10.62-.51,3.05-.98,5.29,1.51,5.29,1.51,0,0-2.16-5.98-2.67-5.98Z" style="stroke-width: 0px;" transform="matrix(3.0609140396118164, 0, 0, 3.0609140396118164, 209.79086303710932, 210.81736755371094)"/>
  <path d="M49.79,22.98c-4.04,1.91-11.75,4.4-14.77,1.94-1.41-1.15-1.81-6.46-1.67-6.87.14-.41,2.08-3.85.32-3.57-.7.11-6.99-.34-8.68.31-.48.19-.15,1.37,1.33,2.66,1.02.89.58,3.21.24,4.7-.35,1.54-1.29,2.8-2.19,3.12-3.37,1.17-10.06-.38-14.1-2.29C6.23,21.07,0,15.79,0,15.79c0,0,13.4,11.54,17.86,14.24,4.47,2.7,12.17,5.99,12.17,5.99,0,0,7.7-3.29,12.17-5.99s17.86-14.24,17.86-14.24c0,0-6.23,5.28-10.27,7.19Z" style="stroke-width: 0px;" transform="matrix(3.0609140396118164, 0, 0, 3.0609140396118164, 209.79086303710932, 210.81736755371094)"/>
  <path d="M11.83,24.32c.87,1.5,15.05,10.52,17.94,10.53,2.89,0,16.47-7.86,16.27-8.67s-9.37,2.72-17.44,1.86c-8.07-.86-17.48-4.94-16.77-3.71Z" style="mix-blend-mode: multiply; opacity: 0.47; stroke-width: 0px; fill: rgb(144, 144, 144);" transform="matrix(3.0609140396118164, 0, 0, 3.0609140396118164, 209.79086303710932, 210.81736755371094)"/>
  <path d="M24.8,15.3c2.41,1.98,4.58,2.21,5.94,1.56s3.89-1.63,3.24-2c-.65-.37-3.28-.02-5.1-.14-1.82-.12-4.54.19-4.07.58Z" style="mix-blend-mode: multiply; opacity: 0.9; stroke-width: 0px; fill: rgb(202, 202, 202);" transform="matrix(3.0609140396118164, 0, 0, 3.0609140396118164, 209.79086303710932, 210.81736755371094)"/>
  <path d="M10.4,23.98c2.34,2.19,4.96,4.34,8.32,4.71,8.9.98,6.72,5.92,10.29,6.9,1.62.44,10.68-4.82,13.44-6.44s9.3-6.2,8.44-6.24c-.86-.04-5.36,4.31-10.47,6.1-4.55,1.6-7.55,3.5-9.81,2.17-2.83-1.67-6.74-2.84-10.01-2.9-6.39-.12-11.2-5.22-10.21-4.29Z" style="mix-blend-mode: multiply; opacity: 0.9; stroke-width: 0px; fill: rgb(202, 202, 202);" transform="matrix(3.0609140396118164, 0, 0, 3.0609140396118164, 209.79086303710932, 210.81736755371094)"/>
  <path d="M25.97.88c.09,1.28-1.96,1.02-1.8,1.41.16.39,3.21,1.45,4.86,1.96s6.11-1.8,5.72-2.27c-.39-.47-.45-1.06-1.31-1.1-.86-.04-1.67,1.84-2.77,1.72-1.1-.11-4.78-2.82-4.7-1.72Z" style="mix-blend-mode: multiply; opacity: 0.9; stroke-width: 0px; fill: rgb(202, 202, 202);" transform="matrix(3.0609140396118164, 0, 0, 3.0609140396118164, 209.79086303710932, 210.81736755371094)"/>
  <path d="M14.53,5.02c-2.51-2.48-2.72-3.6-3.53-2.55-.8,1.04-1.82,2.84-1.37,2.99.45.15,1.57-.98,2.86-.44,1.29.54,2.9.85,2.04,0Z" style="mix-blend-mode: multiply; opacity: 0.9; stroke-width: 0px; fill: rgb(199, 199, 199);" transform="matrix(3.0609140396118164, 0, 0, 3.0609140396118164, 209.79086303710932, 210.81736755371094)"/>
  <path d="M50.34,5.85c-.92-1.85-1.61-3.63-2.7-3.38-1.1.25-5.49,3.25-4.31,3.08,1.18-.17,3.05-1.43,4.62-.68,1.57.75,2.69,1.58,2.39.98Z" style="mix-blend-mode: multiply; opacity: 0.9; stroke-width: 0px; fill: rgb(199, 199, 199);" transform="matrix(3.0609140396118164, 0, 0, 3.0609140396118164, 209.79086303710932, 210.81736755371094)"/>
  <path d="M12.4,1.47c.82.89,3.58,3.31,4.93,3.27,1.35-.04,6.7-1.86,5.88-1.86s-3.25.71-5.68,0c-2.43-.71-5.55-1.87-5.13-1.41Z" style="fill:#ffefb4; mix-blend-mode:soft-light; opacity:.8; stroke-width:0px;" transform="matrix(3.0609140396118164, 0, 0, 3.0609140396118164, 209.79086303710932, 210.81736755371094)"/>
  <path d="M35.38,2.47c.36,2.17,3.79,1.93,4.86,1.35,1.07-.59,5.5-2.04,7.2-1.74,1.69.31,2.02,1.74,2.02,1.74,0,0-.46-2.44-1.5-2.45-1.04-.01-3.27,1.08-7.52,1.51-4.25.43-5.17-1.11-5.06-.41Z" style="fill:#ffefb4; mix-blend-mode:soft-light; opacity:.8; stroke-width:0px;" transform="matrix(3.0609140396118164, 0, 0, 3.0609140396118164, 209.79086303710932, 210.81736755371094)"/>
  <path d="M25.54,25.92c-.57,1.19,10.06,1.93,9.08-.36-.98-2.29-1.18-5.48-4.3-5.04-4.32.6-3.13,1.98-4.78,5.41Z" style="fill:#ffefb4; mix-blend-mode:soft-light; opacity:.8; stroke-width:0px;" transform="matrix(3.0609140396118164, 0, 0, 3.0609140396118164, 209.79086303710932, 210.81736755371094)"/>
</svg>