<svg width="181" height="92" viewBox="0 0 181 92" fill="none" xmlns="http://www.w3.org/2000/svg">
<g clip-path="url(#clip0_5_45)">
<path d="M24.7297 74.6262C23.7498 74.6262 22.8865 74.3921 22.1399 73.9245C21.44 73.4569 20.9267 72.8254 20.6001 72.03L7.72119 38.9104C8.04781 38.7233 8.56112 38.5829 9.26106 38.4894C9.961 38.349 10.5676 38.2789 11.0809 38.2789C12.3408 38.2789 13.4607 38.5361 14.4406 39.0507C15.4672 39.5653 16.1438 40.3372 16.4704 41.3663L24.3098 64.3816L23.2599 67.469L23.7498 67.6795L32.989 41.3663C33.3623 40.3372 34.0156 39.5653 34.9488 39.0507C35.9288 38.5361 37.0487 38.2789 38.3086 38.2789C38.8685 38.2789 39.4984 38.349 40.1984 38.4894C40.8983 38.5829 41.4116 38.7233 41.7383 38.9104L28.8594 72.03C28.5327 72.8254 27.9961 73.4569 27.2495 73.9245C26.5496 74.3921 25.7096 74.6262 24.7297 74.6262ZM66.5872 34.2792C65.0473 34.2792 63.7639 33.8115 62.7375 32.8759C61.7111 31.8935 61.1977 30.6772 61.1977 29.2271C61.1977 27.777 61.7111 26.5841 62.7375 25.6485C63.7639 24.7129 65.0473 24.2451 66.5872 24.2451C68.1271 24.2451 69.4105 24.7129 70.4369 25.6485C71.4633 26.5841 71.9767 27.777 71.9767 29.2271C71.9767 30.6772 71.4633 31.8935 70.4369 32.8759C69.4105 33.8115 68.1271 34.2792 66.5872 34.2792ZM62.6675 43.331C62.6675 41.5534 63.321 40.267 64.6274 39.4717C65.9337 38.6765 67.8936 38.2789 70.5069 38.2789V69.5741C70.5069 71.3519 69.8534 72.6379 68.547 73.4334C67.2407 74.2288 65.2808 74.6262 62.6675 74.6262V43.331ZM94.8139 29.7884C94.8139 28.0108 95.4674 26.6543 96.7737 25.7187C98.0801 24.7363 100.063 24.2451 102.723 24.2451V40.8049C101.977 41.3663 101.487 41.8575 101.253 42.2785L101.463 42.6293C102.77 41.3195 104.45 40.267 106.503 39.4717C108.556 38.6765 110.469 38.2789 112.242 38.2789C116.396 38.2789 119.708 39.425 122.182 41.7171C124.655 43.9625 125.891 46.9564 125.891 50.6987V62.1362C125.891 64.5219 125.285 66.6736 124.071 68.5917C122.905 70.4627 121.295 71.9362 119.242 73.0123C117.188 74.0884 114.949 74.6262 112.522 74.6262C110.096 74.6262 107.949 74.135 106.083 73.1527C104.217 72.1237 102.537 70.603 101.043 68.5917L100.763 68.8724C100.95 69.1997 101.393 69.8082 102.093 70.6968C102.093 72.0064 101.51 72.9888 100.343 73.6439C99.2235 74.299 97.3802 74.6262 94.8139 74.6262V29.7884ZM110.353 67.7497C112.826 67.7497 114.716 67.2349 116.022 66.206C117.375 65.1299 118.052 63.6097 118.052 61.645V51.1899C118.052 49.2719 117.375 47.775 116.022 46.6991C114.669 45.6232 112.779 45.0852 110.353 45.0852C108.159 45.0852 106.316 45.6466 104.823 46.7693C103.377 47.892 102.653 49.2486 102.653 50.839V61.9959C102.653 63.6333 103.377 65.0131 104.823 66.1358C106.269 67.2119 108.113 67.7497 110.353 67.7497ZM162.955 74.6262C160.108 74.6262 157.495 74.0649 155.115 72.9422C152.782 71.8195 150.939 70.2758 149.586 68.311C148.232 66.2997 147.556 64.0543 147.556 61.5749V51.8916C147.556 49.3187 148.256 47.0032 149.656 44.9449C151.056 42.8866 152.946 41.2727 155.325 40.1032C157.705 38.887 160.271 38.2789 163.025 38.2789C165.778 38.2789 168.274 38.8402 170.514 39.9629C172.8 41.0856 174.597 42.6761 175.904 44.7344C177.257 46.7459 177.933 49.0147 177.933 51.5407V55.6807C177.933 56.6164 177.583 57.4113 176.883 58.0664C176.184 58.7215 175.297 59.0488 174.224 59.0488H155.185V61.0837C155.185 63.2353 155.839 64.9665 157.145 66.2761C158.499 67.5858 160.458 68.2409 163.025 68.2409C165.544 68.2409 167.434 67.7031 168.694 66.627C169.954 65.5043 170.584 64.0308 170.584 62.2064C170.864 62.1598 171.284 62.1362 171.844 62.1362C173.43 62.1362 174.69 62.5106 175.624 63.2589C176.603 63.9606 177.093 64.9665 177.093 66.2761C177.093 67.6795 176.464 69.0363 175.204 70.3459C173.944 71.609 172.217 72.6379 170.024 73.4334C167.878 74.2288 165.521 74.6262 162.955 74.6262ZM170.724 53.2248V51.5407C170.724 49.4357 170.001 47.7516 168.554 46.4886C167.154 45.1788 165.288 44.5239 162.955 44.5239C160.621 44.5239 158.732 45.1788 157.285 46.4886C155.885 47.7516 155.185 49.4357 155.185 51.5407V53.2248H170.724Z" fill="#6C2A9F"/>
<path d="M0.676585 27.2845C-2.53876 22.57 5.89333 13.8702 21.9865 20.9748C29.2866 24.2859 41.8309 32.6184 48.4803 25.7002C49.2677 24.8779 50.0606 23.6226 49.8747 22.4988C51.1488 25.1027 46.4351 34.6632 30.8998 28.6221C22.7028 25.459 15.5284 19.555 7.06901 20.7884C2.64517 21.4024 -0.356918 24.0228 0.676585 27.29V27.2845Z" fill="#6C2B9F"/>
<path d="M34.3174 25.2013C38.7522 26.051 42.5253 24.8888 44.5212 23.2607C47.4413 20.8706 46.293 17.4608 44.1658 16.3315C41.9621 15.1365 39.3756 17.0332 39.7474 19.1876C39.9498 20.3388 41.0598 21.5942 42.6402 21.6326C41.9238 21.967 40.9997 21.9286 40.2122 21.5723C37.3195 20.3004 37.243 16.4576 39.6982 14.3909C41.8363 12.5709 45.3962 12.6148 47.7858 15.3941C50.3067 18.4201 50.0278 23.0798 46.0961 25.5357C43.0776 27.4982 37.839 27.7613 34.3174 25.2013Z" fill="#6C2B9F"/>
<path d="M31.2607 29.8884C27.1212 31.7687 18.1477 26.7308 13.2755 25.7167C3.35061 23.48 1.45311 30.5956 4.18725 33.5065C0.649282 32.1031 0.381337 25.3055 6.21602 22.9867C15.4847 19.2151 25.7487 29.7952 31.2607 29.8884Z" fill="#6C2B9F"/>
</g>
<defs>
<clipPath id="clip0_5_45">
<rect width="181" height="91" fill="white" transform="translate(0 0.536865)"/>
</clipPath>
</defs>
</svg>
