<svg xmlns="http://www.w3.org/2000/svg" xmlns:xlink="http://www.w3.org/1999/xlink" viewBox="0 0 97.46 290.41">
  <defs>
    <linearGradient id="a" x1="48.79" x2="48.79" y1="25.14" y2="0" gradientUnits="userSpaceOnUse">
      <stop offset=".02" stop-color="#ff8d5b"/>
      <stop offset="1" stop-color="#ff6f6b"/>
    </linearGradient>
    <linearGradient id="b" x1="90.51" x2="90.51" y1="149.22" y2="123.17" gradientUnits="userSpaceOnUse">
      <stop offset=".02" stop-color="#db5956"/>
      <stop offset="1" stop-color="#cf2747"/>
    </linearGradient>
    <linearGradient xlink:href="#a" id="k" x1="83.41" x2="83.41" y1="147.71" y2="28.44"/>
    <linearGradient id="c" x1="78.56" x2="78.56" y1="61.28" y2="26.04" gradientUnits="userSpaceOnUse">
      <stop offset="0" stop-color="#b60083"/>
      <stop offset="1" stop-color="#e10088"/>
    </linearGradient>
    <linearGradient id="d" x1="73.78" x2="73.78" y1="59.25" y2="36.94" gradientUnits="userSpaceOnUse">
      <stop offset="0" stop-color="#8e47b8"/>
      <stop offset="1" stop-color="#fff"/>
    </linearGradient>
    <linearGradient xlink:href="#b" id="l" x1="384.19" x2="384.19" y1="149.22" y2="123.17" gradientTransform="matrix(-1 0 0 1 391.15 0)"/>
    <linearGradient xlink:href="#a" id="m" x1="377.11" x2="377.11" y1="147.71" y2="28.33" gradientTransform="matrix(-1 0 0 1 391.15 0)"/>
    <linearGradient xlink:href="#c" id="n" x1="372.25" x2="372.25" y1="61.28" y2="26.04" gradientTransform="matrix(-1 0 0 1 391.15 0)"/>
    <linearGradient xlink:href="#d" id="o" x1="367.47" x2="367.47" y1="59.25" y2="36.94" gradientTransform="matrix(-1 0 0 1 391.15 0)"/>
    <linearGradient id="p" x1="39.51" x2="39.51" y1="32.47" y2="29.09" gradientUnits="userSpaceOnUse">
      <stop offset="0" stop-color="#ac3965"/>
      <stop offset="1" stop-color="#fff"/>
    </linearGradient>
    <linearGradient xlink:href="#a" id="q" x1="48.79" x2="48.79" y1="103.37" y2="82.42"/>
    <linearGradient xlink:href="#c" id="r" x1="48.79" x2="48.79" y1="92.56" y2="15.54"/>
    <linearGradient id="g" x1="25.57" x2="65.54" y1="64.63" y2="64.63" gradientUnits="userSpaceOnUse">
      <stop offset="0" stop-color="#c000c9"/>
      <stop offset="1" stop-color="#fff"/>
    </linearGradient>
    <linearGradient id="e" x1="45.05" x2="53.13" y1="60.28" y2="20.43" gradientUnits="userSpaceOnUse">
      <stop offset="0" stop-color="#5babf1"/>
      <stop offset="1" stop-color="#90b6ff"/>
    </linearGradient>
    <linearGradient xlink:href="#e" id="s" x1="56.19" x2="64.27" y1="64.38" y2="24.53"/>
    <linearGradient id="f" x1="40.69" x2="69.14" y1="46.82" y2="46.82" gradientUnits="userSpaceOnUse">
      <stop offset="0" stop-color="#fff"/>
      <stop offset="1" stop-color="#c000c9"/>
    </linearGradient>
    <linearGradient xlink:href="#d" id="t" x1="33.74" x2="60.04" y1="83.06" y2="83.06"/>
    <linearGradient id="h" x1="48.79" x2="63.86" y1="81.42" y2="81.42" gradientUnits="userSpaceOnUse">
      <stop offset="0" stop-color="#fff"/>
      <stop offset="1" stop-color="#8e47b8"/>
    </linearGradient>
    <linearGradient xlink:href="#d" id="u" x1="48.79" x2="48.79" y1="92.56" y2="84.9"/>
    <linearGradient id="v" x1="25.57" x2="72.35" y1="64.92" y2="64.92" gradientUnits="userSpaceOnUse">
      <stop offset="0" stop-color="#fff"/>
      <stop offset="1" stop-color="#e047b8"/>
    </linearGradient>
    <linearGradient xlink:href="#f" id="w" x1="42.06" x2="42.06" y1="43.75" y2="19.08"/>
    <linearGradient xlink:href="#g" id="x" x1="56" x2="56" y1="32.65" y2="18.63"/>
    <linearGradient xlink:href="#f" id="y" x1="39.45" x2="71.36" y1="64.56" y2="64.56"/>
    <linearGradient id="i" x1="42.1" x2="42.1" y1="290.23" y2="262.58" gradientTransform="translate(2.81 .57) skewX(-1.33)" gradientUnits="userSpaceOnUse">
      <stop offset="0" stop-color="#8b9af9"/>
      <stop offset=".96" stop-color="#c5b3ff"/>
    </linearGradient>
    <linearGradient xlink:href="#a" id="z" x1="40.72" x2="40.72" y1="278.21" y2="195.44" gradientTransform="translate(2.81 .57) skewX(-1.33)"/>
    <linearGradient id="j" x1="32.04" x2="32.04" y1="239.8" y2="91.94" gradientUnits="userSpaceOnUse">
      <stop offset="0" stop-color="#5a34b5"/>
      <stop offset="1" stop-color="#5c47ae"/>
    </linearGradient>
    <linearGradient xlink:href="#d" id="A" x1="23.16" x2="49.96" y1="100.55" y2="100.55" gradientTransform="translate(2.81 .57) skewX(-1.33)"/>
    <linearGradient xlink:href="#h" id="B" x1="15.6" x2="49.96" y1="117.55" y2="117.55" gradientTransform="translate(2.81 .57) skewX(-1.33)"/>
    <linearGradient xlink:href="#d" id="C" x1="19.41" x2="35.23" y1="108.01" y2="108.01" gradientTransform="translate(2.81 .57) skewX(-1.33)"/>
    <linearGradient xlink:href="#d" id="D" x1="41.21" x2="41.21" y1="204.32" y2="190.69" gradientTransform="translate(2.81 .57) skewX(-1.33)"/>
    <linearGradient xlink:href="#i" id="E" x1="722.47" x2="722.47" y1="290.24" y2="262.59" gradientTransform="matrix(-1 0 .02775786 1 774.65 .36)"/>
    <linearGradient xlink:href="#a" id="F" x1="721.08" x2="721.08" y1="278.22" y2="195.46" gradientTransform="matrix(-1 0 .02775786 1 774.65 .36)"/>
    <linearGradient xlink:href="#j" id="G" x1="65.22" x2="65.22" y1="240.21" y2="91.95"/>
    <linearGradient xlink:href="#d" id="H" x1="703.53" x2="730.33" y1="100.56" y2="100.56" gradientTransform="matrix(-1 0 .02775786 1 774.65 .36)"/>
    <linearGradient xlink:href="#h" id="I" x1="695.96" x2="730.33" y1="117.5" y2="117.5" gradientTransform="matrix(-1 0 .02775786 1 774.65 .36)"/>
    <linearGradient xlink:href="#d" id="J" x1="699.78" x2="715.6" y1="108.02" y2="108.02" gradientTransform="matrix(-1 0 .02775786 1 774.65 .36)"/>
    <linearGradient xlink:href="#d" id="K" x1="721.56" x2="721.56" y1="204.34" y2="190.7" gradientTransform="matrix(-1 0 .02775786 1 774.65 .36)"/>
    <linearGradient xlink:href="#d" id="L" x1="40.39" x2="63.91" y1="103.45" y2="103.45"/>
    <linearGradient xlink:href="#h" id="M" x1="46.62" x2="46.62" y1="124.43" y2="107.32"/>
  </defs>
  <g style="isolation:isolate">
    <path d="M55.1 9.99C54.27 7.14 54.54 0 54.54 0l-5.75 1.48L43.04 0s.27 7.13-.56 9.99c-.83 2.85-7.19 7.67-7.19 7.67s2.93 7.49 13.5 7.49 13.5-7.49 13.5-7.49-6.36-4.81-7.19-7.67Z" style="fill:url(#a);stroke-width:0"/>
    <path d="M43.05 4.75s.69 6.34 5.27 8.48C52.9 15.37 54.51 5 54.5 3.99c-.01-1.01.03-3.98.03-3.98S51.17 1.5 48.78 1.5 43.03.01 43.03.01v4.75Z" style="fill:#c98bc2;mix-blend-mode:multiply;stroke-width:0"/>
    <path d="M40.69 21.34c-3.58-1.62 5.89-8.08 11.48-7.19 5.59.89 6.13 4.14 5.59 5.71-.54 1.57-5.48 6.72-17.06 1.49Z" style="fill:#ffc7ac;mix-blend-mode:soft-light;opacity:.6;stroke-width:0"/>
    <path d="M94.43 137.86c-.66 4.02-4.52 11.17-5.41 11.35-.89.19-1.69-3.48-1.69-3.48s-1.39-2.84-.51-6.87c.89-4.02.6-10.48 0-9.17-.06-3.89 2.8-6.93 3.15-6.48.2.24 1.69 2.52 2.91 5.22 1.03 2.25 1.84 7.59 1.55 9.42Z" style="fill:url(#b);stroke-width:0"/>
    <path d="M92.88 128.44c-.3 2.97-.15 8.76-.27 6.73-.24-4.01-2.87-8.78-2.63-6.24.24 2.54.33 6.59.33 6.59-2.77 5.42-2.98 10.22-2.98 10.22s-1.39-2.84-.51-6.87c.89-4.02.6-10.48 0-9.17-.06-3.89 2.8-6.93 3.15-6.48.2.24 1.69 2.52 2.91 5.22Z" style="fill:#c98bc2;mix-blend-mode:multiply;stroke-width:0"/>
    <path d="M97.46 137.89c0 .67-2.58 3.85-3.24 6.29-.83 3.1-2.47 3.52-3 3.52s-2.44-4.15 0-9.87c1.44-3.37 1.5-.3 1.5-1.71 0-.29.06-1.18-.04-1.88-.4-2.68-2.03-9.97-2.5-10.41-.59-.56-1.27 1.51-1.45 2.18-.13.5-.35 2.29-.22 3.56.05.5.15.91.33 1.12.66.81 2.16 4.08.06 6.98-.54.74-4.38-3.57-4.4-5-.06-5.36-1.21-8.27-1.09-10.98.11-2.71 3.57-7.04 3.47-9.12-.12-2.69-12.71-19.86-14.02-28.34-1.31-8.48-2.21-27.37-3.4-37.94-1.19-10.58 8.01-17.67 8.01-17.67 2.05-1.46 6.6 6.13 7.11 20.91.56 16.44.79 21.09 1.23 25.07.44 3.97 3.03 4.71 4.72 18.56 1.69 13.85 4.19 18.84 4.72 20.87.54 2.03 1.02 14.8 1.31 18.57.08 1.08.2 1.92.31 2.58v.04c.29 1.62.58 2.19.58 2.67Z" style="fill:url(#k);stroke-width:0"/>
    <path d="M84.8 55.4c-.04-1.1-8.57 16.17-13.72 10.21 0 0-.12-6.73-.81-11.91-.69-5.17 1.33-16.25 6.21-20.07 4.87-3.82 8.32 12.31 8.32 12.31v9.46Z" style="fill:#db8bc2;mix-blend-mode:multiply;stroke-width:0"/>
    <path d="M78.16 26.09c.7-.47 1.95 2.2 5.57 12.19 3.63 9.99 6.18 11.59 6.18 12.36S77.26 60.98 69.35 61.28c0 0-2.57-11.12-2.09-15.69.48-4.58 10.89-19.5 10.89-19.5Z" style="fill:url(#c);stroke-width:0"/>
    <path d="M72.25 59.25s1.39-2.42 1.26-8.17c-.13-5.75.33-6.61.8-7.76.86-2.06 2.99-6.38 2.99-6.38s-4.05 3.95-5.46 5.9c-1.41 1.95-1.76 2.69-1.47 3.11.29.42 2.72 8.77 1.89 13.3Z" style="fill:url(#d);mix-blend-mode:multiply;stroke-width:0"/>
    <path d="M86.4 77.67c-4.52-4.36-10.78-.78-8.41 11.34s9.03 21.22 12.27 20.87-1.69-26-2.05-28.17c-.36-2.17-1.81-4.04-1.81-4.04Z" style="fill:#ff9c7c;mix-blend-mode:soft-light;stroke-width:0"/>
    <path d="M88.9 137.67c-.54.74-4.38-3.57-4.4-5 .41 1.14 2.15.97 2.86-.88.31-.8.91-1.37 1.15-2.21.05.49.15.9.33 1.11.66.81 2.16 4.08.06 6.98Zm8.56.22c0 .67-2.58 3.85-3.24 6.29-.83 3.1-2.47 3.52-3 3.52s-2.4-4.82 0-9.87c1.57-3.31 1.5.07 1.5-1.35 0-.29.08-1.42-.03-2.12 0 0 .47 3.88 3.37 4.1 1.69.13 1.12-.68.81-3.24.29 1.62.58 2.19.58 2.67Z" style="fill:#ea8bc2;mix-blend-mode:multiply;opacity:.5;stroke-width:0"/>
    <path d="M88.26 137.48c-.73-.45-2.53-2.2-2.61-2.84-.08-.64 1.91-1.31 2.82-1.14.92.17 1.23 1.06 1.23 2.24 0 1.18-.94 2.05-1.44 1.73Zm3.83 9.79c-.74.4-.91-1.67-.25-3.23.67-1.56 2.26-1.59 2.7-1.53s-.64 3.77-2.45 4.76Z" style="fill:#ffac98;stroke-width:0"/>
    <path d="M83.81 121.42c-.33 3.55 4.9 3.42 6.59-.6 1.7-4.02-1.56-6.83-2.05-7.02-.49-.18-4.1 2.82-4.55 7.62Z" style="fill:#ffc7ac;mix-blend-mode:soft-light;opacity:.5;stroke-width:0"/>
    <path d="M79.67 27.89c-1.5.06-2.87 8.51-2.38 16.27.49 7.76 9.05 6.6 9.76 5.8.71-.8-1.12-5.69-2.98-10.74-1.86-5.06-4.4-11.32-4.4-11.32Z" style="fill:#c486e8;mix-blend-mode:multiply;opacity:.5;stroke-width:0"/>
    <path d="M72.4 60.71s12.13-9.62 17.56-10.17c0 0-6.02 6.4-17.56 10.17Z" style="fill:#c98bc2;mix-blend-mode:multiply;stroke-width:0"/>
    <path d="M3.03 137.86c.66 4.02 4.52 11.17 5.41 11.35.89.19 1.69-3.48 1.69-3.48s1.39-2.84.51-6.87c-.89-4.02-.6-10.48 0-9.16.06-3.89-2.8-6.93-3.15-6.48-.2.24-1.69 2.52-2.91 5.22-1.03 2.25-1.84 7.59-1.55 9.42Z" style="fill:url(#l);stroke-width:0"/>
    <path d="M4.58 128.44c.3 2.97.15 8.76.27 6.73.24-4.01 2.87-8.78 2.63-6.24-.24 2.54-.33 6.59-.33 6.59 2.77 5.42 2.98 10.22 2.98 10.22s1.39-2.84.51-6.87c-.89-4.02-.6-10.48 0-9.16.06-3.89-2.8-6.93-3.15-6.48-.2.24-1.69 2.52-2.91 5.22Z" style="fill:#c98bc2;mix-blend-mode:multiply;stroke-width:0"/>
    <path d="M0 137.89c0 .67 2.58 3.85 3.24 6.29.83 3.1 2.47 3.52 3 3.52s2.44-4.15 0-9.87c-1.44-3.37-1.5-.3-1.5-1.71 0-.29-.06-4 .04-4.71.4-2.68 2.03-7.15 2.5-7.59.59-.56 1.27 1.51 1.45 2.18.13.5.35 2.29.22 3.56-.05.5-.15.91-.33 1.12-.66.81-2.16 4.08-.06 6.98.54.74 4.38-3.57 4.4-5 .06-5.36 1.21-8.27 1.09-10.98-.11-2.71-3.57-7.04-3.47-9.12.12-2.69 12.71-19.86 14.02-28.34 1.31-8.48 2.18-27.38 3.4-37.94 1.05-9.04-8.5-17.85-8.5-17.85-2.05-1.46-6.83 11.16-6.42 16.14 1.35 16.39-.98 26.04-1.42 30.01-.44 3.97-3.03 4.71-4.72 18.56-1.69 13.85-4.19 18.84-4.72 20.87-.54 2.03-1.02 11.98-1.31 15.74-.08 1.08-.2 4.74-.31 5.41v.04c-.29 1.62-.58 2.19-.58 2.67Z" style="fill:url(#m);stroke-width:0"/>
    <path d="M12.66 55.4c.04-1.1 8.59 15.8 13.73 9.84 0 0 .11-6.36.8-11.53.69-5.17-1.33-16.25-6.21-20.07-4.87-3.82-8.32 12.31-8.32 12.31v9.46Z" style="fill:#db8bc2;mix-blend-mode:multiply;stroke-width:0"/>
    <path d="M19.3 26.09c-.7-.47-1.95 2.2-5.57 12.19-3.63 9.99-6.18 11.59-6.18 12.36S20.2 60.98 28.11 61.28c0 0 2.57-11.12 2.09-15.69-.48-4.58-10.89-19.5-10.89-19.5Z" style="fill:url(#n);stroke-width:0"/>
    <path d="M25.21 59.25s-1.39-2.42-1.26-8.17c.13-5.75-.33-6.61-.8-7.76-.86-2.06-2.99-6.38-2.99-6.38s4.05 3.95 5.46 5.9c1.41 1.95 1.76 2.69 1.47 3.11-.29.42-2.72 8.77-1.89 13.3Z" style="fill:url(#o);mix-blend-mode:multiply;stroke-width:0"/>
    <path d="M11.06 77.67c4.52-4.36 10.78-.78 8.41 11.33-2.37 12.12-9.03 21.21-12.27 20.87s1.69-26 2.05-28.17c.36-2.17 1.81-4.04 1.81-4.04Z" style="fill:#ff9c7c;mix-blend-mode:soft-light;stroke-width:0"/>
    <path d="M8.56 137.67c.54.74 4.38-3.57 4.4-5-.41 1.14-2.15.97-2.86-.88-.31-.8-.91-1.37-1.15-2.21-.05.49-.15.9-.33 1.11-.66.81-2.16 4.08-.06 6.98Zm-8.56.22c0 .67 2.58 3.85 3.24 6.29.83 3.1 2.47 3.52 3 3.52s2.4-4.82 0-9.87c-1.57-3.31-1.5.07-1.5-1.34 0-.29-.08-4.25.03-4.95 0 0-.47 6.7-3.37 6.92-1.69.13-1.12-.68-.81-3.24-.29 1.62-.58 2.19-.58 2.67Z" style="fill:#ea8bc2;mix-blend-mode:multiply;opacity:.5;stroke-width:0"/>
    <path d="M9.21 137.48c.73-.45 2.53-2.2 2.61-2.84S9.91 133.33 9 133.5c-.92.17-1.23 1.06-1.23 2.24s.94 2.05 1.44 1.73Zm-3.84 9.79c.74.4.91-1.67.25-3.23-.67-1.56-2.26-1.59-2.7-1.53-.44.05.64 3.77 2.45 4.76Z" style="fill:#ffac98;stroke-width:0"/>
    <path d="M13.66 121.42c.33 3.55-4.9 3.42-6.59-.6-1.7-4.02 1.56-6.83 2.05-7.02s4.1 2.82 4.55 7.62Z" style="fill:#ffc7ac;mix-blend-mode:soft-light;opacity:.5;stroke-width:0"/>
    <path d="M17.79 27.89c1.5.06 2.87 8.51 2.38 16.27s-9.05 6.6-9.76 5.8c-.71-.8 1.12-5.69 2.98-10.74 1.86-5.06 4.4-11.32 4.4-11.32Z" style="fill:#c486e8;mix-blend-mode:multiply;opacity:.5;stroke-width:0"/>
    <path d="M25.11 60.86S12.98 51.24 7.55 50.69c0 0 6.02 6.4 17.56 10.17Z" style="fill:#c98bc2;mix-blend-mode:multiply;stroke-width:0"/>
    <path d="M39.49 32.47c0-.44 0-1.7.04-3.38 0 1.81-.03 2.96-.04 3.38Z" style="fill:url(#p);mix-blend-mode:multiply;opacity:.8;stroke-width:0"/>
    <path d="M71.78 95.17c-2.32-4.81-10.17-12.75-10.17-12.75l-12.82.62-12.82-.62s-7.86 7.94-10.17 12.75 13.73 8.2 22.99 8.2 25.31-3.39 22.99-8.2Z" style="fill:url(#q);stroke-width:0"/>
    <path d="M72.4 58.32c-.24 2.8-2.56 7.07-5.53 9.57 0 0-3.74 9.51-3.86 10.58-.12 1.06 1.01 1.13.83 1.96-.18.84-.71 1.13-.71 1.13s.2 1.72 1.89 3.36c.58.56 1.34 1.11 2.32 1.57 0 0-4.54 6.53-18.31 6.05-13.78.48-18.79-6.05-18.79-6.05.99-.47 1.74-1.02 2.32-1.58 1.68-1.64 1.88-3.35 1.88-3.35s-.54-.29-.72-1.13c-.17-.83.96-.89.84-1.96-.12-1.07-3.87-10.58-3.87-10.58-2.96-2.5-5.29-6.78-5.52-9.57-.24-2.8 2.08-12.55 1.84-13.08-.24-.54-9.45-16.76-7.44-19.49 2.02-2.74 13.8-7.43 13.85-7.67.06-.24 1.68-2.48 2.39-2.53.72-.04.97.89.97.89l-.63.63c4.64 7.07 12.61 7.6 12.61 7.6s7.98-.54 12.61-7.6l-.63-.63s.26-.93.98-.89c.71.05 2.33 2.3 2.39 2.53.06.24 11.83 4.93 13.84 7.67 2.02 2.73-7.19 18.95-7.43 19.49-.24.54 2.08 10.29 1.84 13.08Z" style="fill:url(#r);stroke-width:0"/>
    <path d="M25.57 60.16s12.63 2.61 25.23 2.49c12.6-.12 14.74-.24 14.74-.24s-8.22 1.42-18.65 2.5c-6.79.71-4.35 4.99-13.86 4.04-1.91-.19-7.09-5.64-7.46-8.79Z" style="fill:url(#g);mix-blend-mode:multiply;stroke-width:0"/>
    <path d="M48.74 61.1c-2.93-.87-13.36-6.5-13.49-15.6-.13-9.1 8.34-2.97 11.41 1.73 3.07 4.7 2.15-1.3 5.77-8.52 3.63-7.22 8.73-.33 8.34 7.85-.38 8.18-12.04 14.53-12.04 14.53Z" style="fill:url(#e);stroke-width:0"/>
    <path d="M59.59 36.17c.35 5.3 4.99 4.01 5.19-1.34.2-5.34-5.67-5.85-5.19 1.34Z" style="fill:url(#s);stroke-width:0"/>
    <path d="M40.69 49.16s4.95 2.22 13.53.89c12.13-1.87 14.47-7.7 14.62-7.76.15-.06 1.23 2.5-1.92 4.99s-17.65 6.66-26.23 1.87Z" style="fill:url(#f);mix-blend-mode:multiply;stroke-width:0"/>
    <path d="M33.74 80.42s9.72 3.77 26.3 2.97c0 0-6.06 3.58-17.39 1.82-5.05-.78-8.2-3.67-8.2-3.67s-.56-.24-.71-1.13Z" style="fill:url(#t);mix-blend-mode:multiply;opacity:.5;stroke-width:0"/>
    <path d="M63.12 81.55s-6.72 2.02-14.33.86c0 0 5.41-.21 9.38-.86 3.97-.65 5.66-1.48 5.66-1.48s.24.84-.71 1.48Z" style="fill:url(#h);mix-blend-mode:multiply;opacity:.5;stroke-width:0"/>
    <path d="M67.35 86.48s-4.54 6.53-18.31 6.05c-13.78.48-18.79-6.05-18.79-6.05.99-.47 1.74-1.02 2.32-1.58-.07.21-.83 2.87 3.44 4.86 4.45 2.07 18.05 3.37 24.2.59 5.85-2.64 4.93-5.2 4.83-5.44.58.56 1.34 1.11 2.32 1.57Z" style="fill:url(#u);mix-blend-mode:multiply;stroke-width:0"/>
    <path d="M66.87 67.89c-2.45 1.51-10.33 2.66-18.07 3.12-7.74.46-15.64-2.82-17.66-3.6-2.02-.77-5.56-7.24-5.56-7.24s14.95 1.81 24.22 2.1c9.27.29 22.56-3.48 22.56-3.48s-1.07 5.27-5.48 9.1Z" style="fill:url(#v);mix-blend-mode:multiply;stroke-width:0"/>
    <path d="M64.47 18.26s-6.06 11.55-15.51 11.55-15.51-11.74-15.51-11.74l1.02-1.41s5.7 8.9 14.5 8.9 13.87-9.23 13.87-9.23l1.31 1.74.34.19Z" style="fill:#ae89c2;mix-blend-mode:multiply;opacity:.5;stroke-width:0"/>
    <path d="M32.73 19.08s-1.49 7.88 5.74 15.37c7.22 7.49 14.24 8.98 14.39 9.22.15.24-10.4.59-17.57-7.34-7.16-7.94-2.56-17.24-2.56-17.24Z" style="fill:url(#w);mix-blend-mode:multiply;stroke-width:0"/>
    <path d="M65.25 18.63s-2.32 8.93-8.38 12.22c-6.06 3.3-10.1 1.06-10.1 1.06s3.57 1.11 11.06-4.24c7.49-5.35 7.43-9.04 7.43-9.04Z" style="fill:url(#x);mix-blend-mode:multiply;stroke-width:0"/>
    <path d="m31.28 87.53-.42.49s6.93 7.92 19.53 6.97c12.6-.95 16.39-6.94 16.39-6.94l-.4-.51s-7.17 5-17.35 5-17.75-5-17.75-5Z" style="fill:#c98bc2;mix-blend-mode:multiply;stroke-width:0"/>
    <path d="M27.49 58.07c-2.68-1.46 1.13-8.31 12.01-6.58 10.88 1.73 9.52 8.24 8.92 8.74-.6.5-14.4 1.39-20.93-2.16ZM52 59.49c-3.68-1.55.4-8.74 14.35-10.04 3.91-.36 5.62 5.96 4.8 7.48-.82 1.52-13.71 4.84-19.15 2.55Z" style="fill:#ffbaef;mix-blend-mode:soft-light;opacity:.3;stroke-width:0"/>
    <path d="M39.45 67.17c1.16-1.07 10.05-2.32 13.41-1.6 3.36.71 4.15 3.3 9.37 3.03s9.2-6.95 9.13-7.89c-.08-.94-8.77 1.76-15.03 1.88-6.26.12-3.32 1.04-8.68 2.33-5.36 1.29-5.39.08-8.19 2.25Z" style="fill:url(#y);mix-blend-mode:multiply;stroke-width:0"/>
    <path d="M47.55 262.26s.24 2.63-.07 4.76 2.27 21.55 1.99 22.26-22.09.71-22.4 0-.3-4.98 2.57-9.77c2.88-4.8 6.63-11.22 6.63-11.22l11.27-6.03Z" style="fill:url(#i);stroke-width:0"/>
    <path d="M30.11 197.79c-3.36 4.58-2.8 24.15 1.51 38.13 4.31 13.98 6.6 22.75 5.67 27.13s-4.31 10.53-3.14 14.49c7.21-1.5 11.02 2.57 11.76-1.78 1.31-7.65 1.22-12.51 1.95-14.93 1.05-3.47-.28-5.33-.9-10.31s-1.11-40.14-.96-46.63c.15-6.49-9.76-11.85-15.89-6.1Z" style="fill:url(#z);stroke-width:0"/>
    <path d="M26.96 287.15c.89.71 5.14-3.38 11.22-3.38s7.22 2.43 9.2 3.46c1.98 1.03 2.06.36 2.06.36s.02 1.69.04 2c.02.31-21.96.31-22.42 0s-.11-2.44-.11-2.44Z" style="fill:#720e4a;stroke-width:0"/>
    <path d="M33.68 242.76s2.72 7.26 5.05 9.51c2.33 2.25 7.6-8.36 7.69-9.51.08-1.15 0-3.85 0-3.85s-4.12-15.43-9.86-20.41-6.26 10.65-2.88 24.26Z" style="fill:#c98bc2;mix-blend-mode:multiply;stroke-width:0"/>
    <path d="m49.83 127.27-2.25-.12c1.23 4.16.74 10.5.11 22.04v.03c-.17 2.92-.34 6.16-.5 9.8-.77 18.01-.08 27.63.16 32.6.24 4.99.03 6.32-.67 13.43-.12 1.25-.18 3-.17 5.04 0 6.44.54 18.56.71 24.06v.02c.07 2.59.08 4.34-.09 4.55-.64.79-6.46 1.6-11.25.71-4.8-.88-11.59-3.99-10.75-5.96.13-.29.21-.73.24-1.32.03-.35.04-.75.03-1.2-.02-3.61-.73-13.05-.15-20.83.78-10.31 2.69-12.63 3.45-14.4.74-1.77 1.27-4.46-2.23-14.78-2.07-6.09-7-17.09-10.12-30.24-.03-.08-.04-.11-.04-.11-2.14-9.07-3.43-19.15-2.31-29.35.49-4.55 1.61-8.4 2.97-11.61.19-.43.06-1.54.24-1.95.8-1.72 1.97-2.54 2.77-3.86.28-.47-.34-1.83-.07-2.25.24-.39 2.07-.86 2.31-1.2 1.13-1.7 1.29-1.84 1.47-2.54.49-1.87 1.12-4.29 1.55-5.31.09-.21.17-.36.24-.43l.12-.08c.53-.27 1.79.45 1.79.45l-.42.64c6.16 3.38 14.47 4.96 19.37 5.64 2.49.35 4.1.46 4.1.46l-.65 28.08Z" style="fill:url(#j);stroke-width:0"/>
    <path d="M50.29 107.25s-16.57-2.73-26.58-9.42l.95-3.52s-1.62 2.75 6.8 6.92c8.42 4.18 18.85 5.15 18.85 5.15l-.02.86Z" style="fill:url(#A);mix-blend-mode:multiply;stroke-width:0"/>
    <path d="M49.89 124.52s-1.34 1.21-3.51-.73c-1.33-1.19-7.03-4.96-13.07-9.58s-7.66-6.04-7.66-6.04 6.81 7.3 11.68 10.27 8.58 6.64 8.58 6.64-7.45-6.84-14.96-8.46c-7.51-1.61-14.77 3.85-15.31 4.02-.54.17 9.31-1.15 17.89 0s14.06 6.51 14.06 6.51l2.24.12.06-2.76Z" style="fill:url(#B);mix-blend-mode:multiply;stroke-width:0"/>
    <path d="M20.08 103.5s2.23.56 6.52 3.75c4.29 3.18 8.78 7.63 8.78 7.63s-4.7-6.66-8.09-9.6-7.36-3.72-7.36-3.72-.15.07-.01.54c.14.47.15 1.4.15 1.4Z" style="fill:url(#C);mix-blend-mode:multiply;stroke-width:0"/>
    <path d="M46.68 205.05c-.12 1.26-.17 3-.16 5.04-.14.88-.24 4.55-.27 5.34-.25 5.33-9.77 6.16-14.42 8.77-4.63 2.61-6.43 6.75-6.43 6.75-.02-3.62-.73-13.06-.15-20.83.78-10.31 2.69-12.63 3.45-14.4.75-1.77 1.27-4.46-2.23-14.77-2.07-6.1-7-17.09-10.12-30.24.78 2.21 13.16 34.91 16.85 39.51 3.81 4.74 7.44 3.29 10.2 2.22 2.75-1.07 2.59-2.59 2.8-16.34.19-13.36 1.41-26.16 1.48-26.86-.16 2.92-.33 6.17-.49 9.8-.78 18.01-.09 27.63.16 32.6.24 4.98.03 6.31-.67 13.42Z" style="fill:#ae89c2;mix-blend-mode:multiply;stroke-width:0"/>
    <path d="M24.4 120.64c-6.48 1.12-7.15 32.4 1.78 49.64 8.93 17.24 16.26 5.33 18.82-18.9 2.57-24.23-4.65-33.1-20.61-30.73Z" style="fill:#90a9ef;mix-blend-mode:soft-light;opacity:.3;stroke-width:0"/>
    <path d="M47.12 238.7c-.64.8-6.46 1.6-11.24.71-4.8-.89-11.59-4-10.74-5.96.13-.3.21-.74.24-1.32 0 0 3.86 5.37 10.96 6.77 7.1 1.4 10.97-2.28 10.88-4.65v-.09c.07 2.59.08 4.33-.09 4.54Z" style="fill:#ae89c2;mix-blend-mode:multiply;stroke-width:0"/>
    <path d="M32.84 190.65c.61-.47 2.66 3.47 5.43 4.09s6.73-1.65 7.74-3.2c1.02-1.55-.64 4.71-2.64 10.22-2 5.51-6.43.45-6.97-3.02s-3.56-8.09-3.56-8.09Z" style="fill:url(#D);mix-blend-mode:multiply;opacity:.88;stroke-width:0"/>
    <path d="M16.75 110.22s-4.24 28.06 6.05 60.88c0 0-15.59-34.56-6.05-60.88Z" style="fill:#ae89c2;mix-blend-mode:multiply;stroke-width:0"/>
    <path d="M34.15 277.84c-3.2 1.06-5 5.51-4.79 5.94.21.42 3.06-.73 8.51-.73s8.9 1.2 9.18.82c.28-.38 2.94-6.73-12.91-6.03Z" style="fill:#ffc7ac;mix-blend-mode:soft-light;opacity:.5;stroke-width:0"/>
    <path d="M49.47 289.28s-6.14-4.11-11.94-3.84c-5.8.27-10.46 4.15-10.46 4.15s4.93.04 12.14.23c7.22.19 10.27-.23 10.27-.23v-.31Z" style="fill:#ae89c2;mix-blend-mode:multiply;stroke-width:0"/>
    <path d="M49.37 287.9c-.63.12-2.64-1.92-2.74-7.63-.1-5.7 1.06-9.05 1.06-9.05s1.57 14.98 1.68 16.67Z" style="fill:#cf89c2;mix-blend-mode:multiply;stroke-width:0"/>
    <path d="M33.91 275.53c0 .36 2.84-4.35 6.86-4.75 4.02-.4 4.77 5.45 5.09 5.26 0 0-.17 1.72-.76 2.07-.59.36-6.02-1.28-11.24-.33 0 0-.68-.25.05-2.25Z" style="fill:#ffbac9;stroke-width:0"/>
    <path d="M33.86 277.78s2.16-.58 5.84-.47 4.63.81 5.14.68c.51-.13 1.02-1.95 1.02-1.95s.19 1.18-.38 2.04-4.76-.95-11.61-.3Z" style="fill:#cf89c2;mix-blend-mode:multiply;stroke-width:0"/>
    <path d="M50.73 262.72s-.23 2.63.09 4.77c.32 2.14-2.17 21.61-1.89 22.32.29.71 22.09.71 22.4 0 .31-.71.28-4.99-2.62-9.8-2.9-4.81-6.68-11.24-6.68-11.24l-11.3-6.05Z" style="fill:url(#E);stroke-width:0"/>
    <path d="M67.89 198.09c3.38 4.6 2.9 24.2-1.35 38.22s-6.5 22.81-5.55 27.2 4.36 10.55 3.21 14.53c-7.21-1.5-11 2.58-11.77-1.79-1.34-7.67-1.27-12.54-2.02-14.97-1.07-3.47.26-5.34.85-10.33s.94-40.24.76-46.74c-.18-6.5 9.71-11.88 15.86-6.12Z" style="fill:url(#F);stroke-width:0"/>
    <path d="M71.44 287.67c-.88.71-5.16-3.39-11.24-3.39s-7.21 2.44-9.19 3.47c-1.98 1.03-2.06.36-2.06.36s0 1.69-.03 2 21.96.31 22.42 0 .09-2.45.09-2.45Z" style="fill:#720e4a;stroke-width:0"/>
    <path d="M64.51 243.17s-2.69 7.28-5 9.53c-2.32 2.26-7.64-8.38-7.73-9.53-.09-1.16-.02-3.86-.02-3.86s4.05-15.47 9.76-20.46 6.31 10.67 2.99 24.32Z" style="fill:#c98bc2;mix-blend-mode:multiply;stroke-width:0"/>
    <path d="M81.44 150.76s0 .04-.03.11c-3.07 13.19-7.94 24.21-9.99 30.32-3.45 10.33-2.9 13.03-2.15 14.81.76 1.78 2.69 4.1 3.51 14.44.62 7.79-.06 17.24-.06 20.87 0 .44 0 .85.03 1.2.04.58.11 1.03.24 1.33.86 1.97-5.92 5.07-10.71 5.97-4.79.89-10.61.08-11.26-.72-.17-.21-.17-1.95-.11-4.55v-.02c.14-5.52.62-17.67.6-24.11 0-2.04-.06-3.79-.19-5.05-.73-7.12-.94-8.46-.72-13.46.22-4.98.85-14.63 0-32.69-.18-3.64-.36-6.91-.54-9.83v-.03c-.69-11.57-1.2-17.93 0-22.1l-2.21-.09-1.5-28.45s.32 0 .88-.05c3.35-.2 15.4-1.2 23.32-5.58l-.53-.79s1.5-.67 1.94-.19c.06.06.11.15.18.28.43.91 1.12 3.49 1.64 5.47.19.7.34.84 1.48 2.55.24.34 2.06.81 2.32 1.2.27.42-.34 1.79-.06 2.26.8 1.32 1.97 2.15 2.79 3.86.19.41.06 1.52.24 1.96 1.38 3.22 2.52 7.1 3.04 11.64 1.16 10.23-.08 20.34-2.18 29.43Z" style="fill:url(#G);stroke-width:0"/>
    <path d="M47.28 107.32s16.56-2.73 26.53-9.44l-.97-3.53s1.63 2.75-6.77 6.94c-8.4 4.19-18.82 5.17-18.82 5.17l.02.86Z" style="fill:url(#H);mix-blend-mode:multiply;stroke-width:0"/>
    <path d="M47.76 124.63s1.98 0 3.47-.98c1.49-.98 7.05-4.72 13.07-9.35 6.02-4.63 7.63-6.06 7.63-6.06s-6.78 7.31-11.63 10.29-8.55 6.66-8.55 6.66 7.42-6.86 14.92-8.48 14.79 3.86 15.33 4.03c.54.17-9.31-1.15-17.89 0s-14.03 6.53-14.03 6.53l-2.21-.1-.11-2.54Z" style="fill:url(#I);mix-blend-mode:multiply;stroke-width:0"/>
    <path d="M77.48 103.56s-1.83 1.54-6.11 4.73c-4.28 3.19-9.14 6.67-9.14 6.67s5.67-4.78 9.05-7.72c3.38-2.94 6.33-5.63 6.33-5.63s.15.07.01.54c-.14.47-.14 1.4-.14 1.4Z" style="fill:url(#J);mix-blend-mode:multiply;stroke-width:0"/>
    <path d="M51.35 205.37c.13 1.26.19 3.01.19 5.05.15.88.25 4.55.29 5.34.27 5.34 9.8 6.18 14.45 8.79 4.65 2.61 6.46 6.77 6.46 6.77 0-3.63.68-13.08.06-20.88-.82-10.33-2.75-12.66-3.52-14.43-.76-1.78-1.3-4.48 2.15-14.82 2.04-6.11 6.92-17.13 9.98-30.32-.77 2.22-12.98 35.01-16.66 39.61-3.79 4.75-7.42 3.3-10.19 2.22-2.76-1.07-2.61-2.61-2.88-16.39-.25-13.39-1.53-26.23-1.6-26.93.18 2.92.36 6.19.54 9.83.86 18.05.23 27.71 0 32.69-.22 4.99 0 6.33.73 13.46Z" style="fill:#ae89c2;mix-blend-mode:multiply;stroke-width:0"/>
    <path d="M73.23 120.75c6.48 1.12 7.3 32.48-1.56 49.76s-16.23 5.34-18.91-18.95c-2.68-24.29 4.5-33.18 20.47-30.81Z" style="fill:#90a9ef;mix-blend-mode:soft-light;opacity:.3;stroke-width:0"/>
    <path d="M51.05 239.1c.64.8 6.46 1.61 11.25.71 4.79-.89 11.57-4.01 10.71-5.97-.13-.3-.21-.74-.24-1.33 0 0-3.83 5.39-10.93 6.79-7.1 1.4-10.98-2.28-10.91-4.66v-.09c-.06 2.6-.06 4.34.11 4.55Z" style="fill:#ae89c2;mix-blend-mode:multiply;stroke-width:0"/>
    <path d="M65.12 190.94c-.61-.48-2.64 3.47-5.41 4.1s-6.73-1.65-7.76-3.21c-1.02-1.55.67 4.72 2.69 10.24s6.43.45 6.96-3.03c.53-3.48 3.52-8.11 3.52-8.11Z" style="fill:url(#K);mix-blend-mode:multiply;opacity:.88;stroke-width:0"/>
    <path d="M80.84 110.3s4.36 28.13-5.77 61.03c0 0 15.44-34.65 5.77-61.03Z" style="fill:#ae89c2;mix-blend-mode:multiply;stroke-width:0"/>
    <path d="M64.2 278.34c3.2 1.06 5.02 5.52 4.81 5.95-.21.43-3.06-.73-8.52-.73s-8.9 1.21-9.18.83c-.28-.38-2.97-6.75 12.88-6.04Z" style="fill:#ffc7ac;mix-blend-mode:soft-light;opacity:.5;stroke-width:0"/>
    <path d="M48.93 289.81s6.12-4.12 11.93-3.85c5.8.27 10.48 4.16 10.48 4.16s-4.93.04-12.14.23c-7.22.19-10.27-.23-10.27-.23v-.31Z" style="fill:#ae89c2;mix-blend-mode:multiply;stroke-width:0"/>
    <path d="M49.02 288.43c.63.12 2.63-1.93 2.7-7.64.08-5.72-1.1-9.07-1.1-9.07s-1.5 15.02-1.6 16.72Z" style="fill:#cf89c2;mix-blend-mode:multiply;stroke-width:0"/>
    <path d="M64.43 276.03c0 .36-2.86-4.36-6.88-4.77-4.02-.4-4.74 5.46-5.06 5.27 0 0 .18 1.72.77 2.08.59.36 6.01-1.28 11.24-.33 0 0 .68-.25-.06-2.26Z" style="fill:#ffbac9;stroke-width:0"/>
    <path d="M64.5 278.28s-2.16-.58-5.84-.47c-3.68.1-4.63.82-5.14.68-.51-.13-1.03-1.96-1.03-1.96s-.18 1.19.39 2.05c.57.86 4.76-.95 11.61-.3Z" style="fill:#cf89c2;mix-blend-mode:multiply;stroke-width:0"/>
    <path d="M46.38 98.73s-4.7.45-5.15.67c-.45.22-.69 4.36-.44 5.21.26.85 4.27 2.39 9.09 1.73 4.82-.66 10.77-2.28 11.86-3.21 1.1-.93 2.16-5.06 2.16-5.06s-10.11-.07-17.53.65Z" style="fill:#90a9ef;mix-blend-mode:soft-light;opacity:.5;stroke-width:0"/>
    <path d="M41.23 99.4s.06 4.3.95 5.39 7.95 1.15 11.67.62c3.72-.52 10.06-3.13 10.06-3.13s-7.63 3.93-14.02 4.89c-6.39.96-8.28-.48-9.2-1.45-.92-.97.54-6.33.54-6.33Z" style="fill:url(#L);mix-blend-mode:multiply;stroke-width:0"/>
    <path d="M46.38 107.32s1.19 15.9 1.29 16.81c.11.91 4.17-.16 6.4-4.58s.6-13.28.5-13.48-3.94 1.14-8.19 1.25Z" style="fill:#90a9ef;mix-blend-mode:soft-light;opacity:.5;stroke-width:0"/>
    <path d="M46.38 107.32s-.97 5.2-.86 8.83c.11 3.63 2.21 8.28 2.21 8.28s-.84-11.2-1.35-17.11Z" style="fill:url(#M);mix-blend-mode:multiply;stroke-width:0"/>
    <path d="M45.04 103.25c-1.49-1.72 1.19-5.3 4.58-2.47 3.39 2.83-1.85 6.46-4.58 2.47Z" style="fill:#8b3416;stroke-width:0"/>
    <path d="M44.62 102s.33 2.29 3.3 2.29 2.56-2.47 2.56-2.47c1.09 3.48-1.29 4.19-3.51 3.62-2.23-.56-2.68-2.38-2.35-3.45Z" style="fill:#c98bc2;mix-blend-mode:multiply;stroke-width:0"/>
    <path d="m46.37 98.73-2.59.27s-7.84-.62-12.92-3.12c-4.06-1.99-5.56-2.77-5.59-3.36 0-.15.08-.29.24-.43l.12-.08c.53-.27 1.79.45 1.79.45l-.42.64c6.16 3.38 14.47 4.96 19.37 5.64Zm25.81-6.33c-.4 1.31-3.35 4.2-8.6 5.11-5.53.96-15.88 1.16-16.31 1.17 3.35-.2 15.4-1.2 23.32-5.58l-.53-.79s1.5-.67 1.94-.19c.06.06.11.15.18.28Z" style="fill:#ffffe5;mix-blend-mode:soft-light;opacity:.8;stroke-width:0"/>
    <path d="M30.24 104.26c-1.14 1.18 9.4 20.24 18.58 19.44 9.18-.8 21.48-18.01 22.28-19.97.8-1.96-14.14 4.07-24.72 3.6-10.59-.47-15.28-3.95-16.14-3.06Z" style="fill:#90a9ef;mix-blend-mode:soft-light;opacity:.3;stroke-width:0"/>
    <path d="M66.08 124.19c-5.26-1.26-9.13 24.89-3.79 33.71 5.34 8.82 9.73-8.41 10.07-20.24.34-11.83-4.2-12.97-6.28-13.47Zm-41.78-.37c-3.68 1.53-4.26 23.47 3.62 29.92 7.88 6.45 11.94-9.64 6.81-26.58-.8-2.65-9.03-3.92-10.44-3.34Z" style="fill:#90a9ef;mix-blend-mode:soft-light;opacity:.5;stroke-width:0"/>
    <path d="M52.76 272.66c-.33.26-3.03-7.79 0-11.65 3.03-3.86 7.94 1.31 9.23 6.12 1.29 4.81 1.35 6.72 1.35 6.72s-5.11-5.53-10.58-1.19Zm-7.25-.95c-.48.47-2.94-3.39-8.74.05-2.6 1.55-1.68-3.01 2.25-8.26s9.52-6.23 6.49 8.21Z" style="fill:#ffc7ac;mix-blend-mode:soft-light;opacity:.5;stroke-width:0"/>
    <path d="M35.82 116.1s6.75 4.57 12.37 4.66c5.62.09 15.24-5.79 15.24-5.79s-11.42 11.78-14.36 12.26c-2.94.48-13.25-11.13-13.25-11.13Z" style="fill:#ae89c2;mix-blend-mode:multiply;stroke-width:0"/>
    <path d="M30.15 101.3s-1.94 3.51-2.77 3.71-.87 1.02-1.09 2.01c-.22.98-10.26 5.03-10.26 5.03l-1.2 5.06s11.9-5.57 12.48-7.22c.58-1.65 1.05-2.98 1.99-2.64.94.34 2.73-5.15 2.73-5.15l-1.88-.8Zm35.59.77s3.26 5.66 3.61 6.1c.36.44 1.72-.21 1.77.75S83.4 119.7 83.4 119.7s-.75-4.75-1.61-6.7c0 0-5.08-.53-8.29-6.18-.44-.77-.7-.16-1.32-.36-.62-.2-3.71-5.62-3.71-5.62l-2.73 1.23Z" style="fill:#ffffe5;mix-blend-mode:soft-light;opacity:.8;stroke-width:0"/>
  </g>
</svg>
