<?xml version="1.0" encoding="utf-8"?>
<svg viewBox="0 0 127.21 362.89" xmlns="http://www.w3.org/2000/svg" xmlns:xlink="http://www.w3.org/1999/xlink">
  <defs>
    <linearGradient id="j" x1="677.47" y1="361.98" x2="677.47" y2="327.79" gradientTransform="translate(-635.61)" gradientUnits="userSpaceOnUse">
      <stop offset="0" stop-color="#8b9af9"/>
      <stop offset="0.96" stop-color="#c5b3ff"/>
    </linearGradient>
    <linearGradient id="k" x1="694.26" y1="344.56" x2="694.26" y2="334.66" gradientTransform="translate(-635.61)" gradientUnits="userSpaceOnUse">
      <stop offset="0" stop-color="#ae00ab"/>
      <stop offset="1" stop-color="#ac0994"/>
    </linearGradient>
    <linearGradient id="m" x1="856.28" y1="362.65" x2="856.28" y2="328.45" gradientTransform="translate(942.24) rotate(-180) scale(1 -1)" xlink:href="#j"/>
    <linearGradient id="n" x1="873.07" y1="345.22" x2="873.07" y2="335.32" gradientTransform="translate(942.24) rotate(-180) scale(1 -1)" xlink:href="#k"/>
    <linearGradient id="o" x1="45.09" y1="299.68" x2="45.09" y2="112.28" gradientUnits="userSpaceOnUse">
      <stop offset="0" stop-color="#5a34b5"/>
      <stop offset="1" stop-color="#5c47ae"/>
    </linearGradient>
    <linearGradient id="p" x1="35.88" y1="122.2" x2="64.98" y2="122.2" gradientTransform="translate(3.47 .67) skewX(-1.33)" gradientUnits="userSpaceOnUse">
      <stop offset="0" stop-color="#8e47b8"/>
      <stop offset="1" stop-color="#fff"/>
    </linearGradient>
    <linearGradient id="q" x1="26.98" y1="141.75" x2="65.02" y2="141.75" gradientTransform="translate(3.47 .67) skewX(-1.33)" gradientUnits="userSpaceOnUse">
      <stop offset="0" stop-color="#fff"/>
      <stop offset="1" stop-color="#8e47b8"/>
    </linearGradient>
    <linearGradient id="r" x1="31.69" y1="130.53" x2="48.8" y2="130.53" xlink:href="#p"/>
    <linearGradient id="s" x1="54.91" y1="250.33" x2="54.91" y2="232.11" xlink:href="#p"/>
    <linearGradient id="t" x1="82.03" y1="300.26" x2="82.03" y2="113.14" xlink:href="#o"/>
    <linearGradient id="u" x1="867.07" y1="122.66" x2="896.02" y2="122.66" gradientTransform="translate(954.58 .39) rotate(-180) scale(1 -1) skewX(-1.59)" xlink:href="#p"/>
    <linearGradient id="v" x1="858.3" y1="142.11" x2="896.07" y2="142.11" gradientTransform="translate(954.58 .39) rotate(-180) scale(1 -1) skewX(-1.59)" xlink:href="#q"/>
    <linearGradient id="w" x1="862.94" y1="131.3" x2="879.9" y2="131.3" gradientTransform="translate(954.58 .39) rotate(-180) scale(1 -1) skewX(-1.59)" xlink:href="#p"/>
    <linearGradient id="x" x1="886.05" y1="250.5" x2="886.05" y2="232.42" gradientTransform="translate(954.58 .39) rotate(-180) scale(1 -1) skewX(-1.59)" xlink:href="#p"/>
    <linearGradient id="y" x1="54.65" y1="125.57" x2="80.2" y2="125.57" gradientTransform="matrix(1,0,0,1,0,0)" xlink:href="#p"/>
    <linearGradient id="z" x1="61.41" y1="149.85" x2="61.41" y2="130.01" gradientTransform="matrix(1,0,0,1,0,0)" xlink:href="#q"/>
    <linearGradient id="aa" x1="26.3" y1="61.77" x2="26.3" y2="19.18" gradientTransform="translate(-9.14 15.71) rotate(-8.46)" gradientUnits="userSpaceOnUse">
      <stop offset="0" stop-color="#ffc7bf"/>
      <stop offset="1" stop-color="#ffffe7"/>
    </linearGradient>
    <linearGradient id="ab" x1="37.9" y1="60.91" x2="37.9" y2="37.87" gradientTransform="translate(-9.14 15.71) rotate(-8.46)" gradientUnits="userSpaceOnUse">
      <stop offset="0" stop-color="#d13159"/>
      <stop offset="1" stop-color="#fff"/>
    </linearGradient>
    <linearGradient id="ac" x1="823.68" y1="88.2" x2="823.68" y2="45.61" gradientTransform="translate(923.82 152.01) rotate(-168.41) scale(1 -1)" xlink:href="#aa"/>
    <linearGradient id="ad" x1="829.34" y1="77.86" x2="829.34" y2="54.82" gradientTransform="translate(926.89 62.33) rotate(-175.18) scale(1 -1)" xlink:href="#ab"/>
    <linearGradient id="ae" x1="729.33" y1="69.92" x2="729.33" y2="46.87" gradientTransform="translate(-699.37 62.33) rotate(-4.82)" xlink:href="#ab"/>
    <linearGradient id="af" x1="63.64" y1="145.7" x2="63.64" y2="15.05" gradientTransform="matrix(1,0,0,1,0,0)" xlink:href="#aa"/>
    <linearGradient id="ag" x1="62.79" y1="61" x2="62.79" y2="40.9" gradientUnits="userSpaceOnUse">
      <stop offset="0" stop-color="#ef1d83"/>
      <stop offset="1" stop-color="#f50088"/>
    </linearGradient>
    <linearGradient id="ah" x1="56.38" y1="44.19" x2="56.38" y2="23.14" gradientUnits="userSpaceOnUse">
      <stop offset="0" stop-color="#ffb0b0"/>
      <stop offset="1" stop-color="#fff"/>
    </linearGradient>
    <linearGradient id="ai" x1="47.91" y1="122.49" x2="47.91" y2="58.18" xlink:href="#ah"/>
    <linearGradient id="aj" x1="79.67" y1="117.86" x2="79.67" y2="61.78" xlink:href="#ah"/>
    <linearGradient id="ak" x1="29.09" y1="125.1" x2="92.89" y2="125.1" xlink:href="#ah"/>
    <linearGradient id="al" x1="83.48" y1="128.12" x2="83.48" y2="112.11" gradientUnits="userSpaceOnUse">
      <stop offset="0" stop-color="#fff"/>
      <stop offset="1" stop-color="#ffb0b0"/>
    </linearGradient>
    <linearGradient id="am" x1="27.3" y1="132.52" x2="92.1" y2="132.52" xlink:href="#ah"/>
    <linearGradient id="an" x1="67.3" y1="30.57" x2="67.3" y2="17.68" xlink:href="#ah"/>
  </defs>
  <g style="isolation:isolate;">
    <g id="b">
      <g id="c">
        <path d="M71.46,12.48c-1.04-3.57-.71-12.48-.71-12.48l-7.18,1.85-7.18-1.85s.33,8.92-.71,12.48c-1.04,3.57-8.99,9.58-8.99,9.58,0,0,3.66,9.36,16.88,9.36s16.88-9.36,16.88-9.36c0,0-7.95-6.02-8.99-9.58Z" style="stroke-width: 0px; fill: fillColor;"/>
        <path d="M56.4,5.94s.86,7.92,6.59,10.6c5.73,2.67,7.74-10.29,7.72-11.55-.01-1.26.04-4.98.04-4.98,0,0-4.2,1.86-7.18,1.86s-7.18-1.86-7.18-1.86v5.94Z" style="fill:#c98bc2; mix-blend-mode:multiply; stroke-width:0px;"/>
        <path d="M53.45,26.67c-4.48-2.02,7.36-10.11,14.35-8.99,6.98,1.11,7.66,5.17,6.98,7.13-.68,1.96-6.85,8.4-21.33,1.86Z" style="fill:#ffc7ac; mix-blend-mode:soft-light; opacity:.6; stroke-width:0px;"/>
        <path d="M123.42,172.32c-.82,5.02-5.65,13.97-6.76,14.19-1.12.24-2.12-4.35-2.12-4.35,0,0-1.74-3.55-.64-8.59,1.12-5.02.75-13.1,0-11.46-.07-4.86,3.49-8.66,3.94-8.1.25.3,2.12,3.16,3.64,6.52,1.28,2.81,2.31,9.49,1.94,11.78Z" style="stroke-width: 0px; fill: fillColor;"/>
        <path d="M121.48,160.54c-.38,3.72-.18,10.96-.34,8.41-.29-5.01-3.59-10.98-3.29-7.8.29,3.18.41,8.24.41,8.24-3.46,6.77-3.73,12.77-3.73,12.77,0,0-1.74-3.55-.64-8.59,1.12-5.02.75-13.1,0-11.46-.07-4.86,3.49-8.66,3.94-8.1.25.3,2.12,3.16,3.64,6.52Z" style="mix-blend-mode: multiply; stroke-width: 0px; fill: fillColor;"/>
        <path d="M127.21,172.36c0,.84-3.23,4.81-4.05,7.87-1.04,3.88-3.09,4.4-3.75,4.4s-3.06-5.18,0-12.34c1.8-4.22,1.87-.38,1.87-2.14,0-.37.07-1.48-.06-2.35h0c-.49-3.35-2.54-12.47-3.12-13.01-.74-.69-1.59,1.89-1.81,2.73-.16.62-.44,2.86-.27,4.45h0c.06.62.19,1.13.41,1.4.82,1.01,2.69,5.11.07,8.72-.67.93-5.47-4.46-5.49-6.25-.07-6.7-1.52-10.33-1.36-13.72.14-3.39,4.46-8.8,4.34-11.41-.15-3.36-15.89-24.82-17.53-35.42-1.64-10.6-2.76-34.22-4.25-47.42-1.48-13.22,10.01-22.09,10.01-22.09,2.56-1.83,8.25,7.67,8.88,26.14.7,20.55.99,26.37,1.54,31.34.55,4.96,3.79,5.89,5.91,23.2,2.12,17.31,5.23,23.55,5.91,26.09.67,2.53,1.27,18.5,1.64,23.21.11,1.35.25,2.4.39,3.23v.05c.36,2.02.73,2.74.73,3.34Z" style="stroke-width: 0px; fill: fillColor;"/>
        <path d="M111.38,69.24c-.05-1.38-10.72,20.22-17.15,12.76,0,0-.15-8.42-1.01-14.88-.86-6.46,1.66-20.32,7.76-25.09,6.09-4.77,10.4,15.39,10.4,15.39v11.83Z" style="fill:#db8bc2; mix-blend-mode:multiply; stroke-width:0px;"/>
        <path d="M113.38,97.09c-5.66-5.46-13.47-.98-10.51,14.17,2.96,15.15,11.29,26.52,15.33,26.09,4.05-.43-2.12-32.5-2.56-35.21-.45-2.71-2.26-5.05-2.26-5.05Z" style="fill:#ff9c7c; mix-blend-mode:soft-light; stroke-width:0px;"/>
        <path d="M116.5,172.09c-.67.93-5.47-4.46-5.49-6.25.52,1.43,2.68,1.21,3.58-1.1.39-1,1.14-1.72,1.43-2.77.06.61.19,1.12.41,1.39.82,1.01,2.69,5.11.07,8.72Z" style="fill:#ea8bc2; mix-blend-mode:multiply; opacity:.5; stroke-width:0px;"/>
        <path d="M127.21,172.36c0,.84-3.23,4.81-4.05,7.87-1.04,3.88-3.09,4.4-3.75,4.4s-3-6.02,0-12.34c1.97-4.14,1.87.09,1.87-1.68,0-.37.1-1.78-.03-2.66,0,0,.59,4.85,4.22,5.12,2.11.16,1.4-.85,1.02-4.06.36,2.02.73,2.74.73,3.34Z" style="fill:#ea8bc2; mix-blend-mode:multiply; opacity:.5; stroke-width:0px;"/>
        <path d="M115.7,171.85c-.91-.57-3.16-2.75-3.26-3.55-.1-.8,2.38-1.63,3.53-1.42,1.15.21,1.54,1.33,1.54,2.8,0,1.47-1.18,2.56-1.81,2.17Z" style="fill:#ffac98; stroke-width:0px;"/>
        <path d="M120.49,184.09c-.93.51-1.14-2.08-.31-4.03.83-1.95,2.83-1.98,3.37-1.92s-.8,4.72-3.07,5.95Z" style="fill:#ffac98; stroke-width:0px;"/>
        <path d="M110.14,151.77c-.41,4.43,6.12,4.27,8.24-.75,2.12-5.02-1.95-8.54-2.56-8.77-.61-.23-5.13,3.52-5.68,9.52Z" style="fill:#ffc7ac; mix-blend-mode:soft-light; opacity:.5; stroke-width:0px;"/>
        <path d="M3.79,172.59c.82,5.02,5.65,13.97,6.76,14.19,1.12.24,2.12-4.35,2.12-4.35,0,0,1.74-3.55.64-8.59-1.12-5.02-.75-13.1,0-11.46.07-4.86-3.49-8.66-3.94-8.1-.25.3-2.12,3.16-3.64,6.52-1.28,2.81-2.31,9.49-1.94,11.78Z" style="stroke-width: 0px; fill: fillColor;"/>
        <path d="M5.73,160.81c.38,3.71.18,10.96.34,8.41.29-5.01,3.59-10.98,3.29-7.8-.29,3.18-.41,8.24-.41,8.24,3.46,6.77,3.73,12.77,3.73,12.77,0,0,1.74-3.55.64-8.59-1.12-5.02-.75-13.1,0-11.46.07-4.86-3.49-8.66-3.94-8.1-.25.3-2.12,3.16-3.64,6.52Z" style="mix-blend-mode: multiply; stroke-width: 0px; fill: fillColor;"/>
        <path d="M0,172.63c0,.84,3.23,4.81,4.05,7.87,1.04,3.87,3.09,4.4,3.75,4.4s3.06-5.18,0-12.34c-1.8-4.22-1.87-.38-1.87-2.14,0-.37-.07-5.01.06-5.88h0c.49-3.35,2.54-8.94,3.12-9.48.74-.69,1.59,1.89,1.81,2.73.16.62.44,2.86.27,4.45h0c-.06.62-.19,1.13-.41,1.4-.82,1.01-2.69,5.11-.07,8.72.67.93,5.47-4.46,5.49-6.25.07-6.7,1.52-10.33,1.36-13.72-.14-3.39-4.46-8.8-4.34-11.4.15-3.36,15.89-24.82,17.53-35.42,1.64-10.6,2.72-34.22,4.25-47.42,1.31-11.31-10.63-22.31-10.63-22.31-2.56-1.83-8.54,13.95-8.03,20.18,1.68,20.49-1.22,32.54-1.78,37.52-.55,4.96-3.79,5.89-5.91,23.2-2.12,17.31-5.24,23.55-5.91,26.09-.67,2.53-1.27,14.97-1.64,19.68-.11,1.35-.25,5.93-.39,6.76v.05c-.36,2.02-.73,2.74-.73,3.34Z" style="stroke-width: 0px; fill: fillColor;"/>
        <path d="M16.95,70.89h0c.2.25,8.24,13.6,13.76,12.42,1.04-.22,1.79-.92,2.28-1.5,0,0,.13-7.95.99-14.42.86-6.46-1.66-20.32-7.76-25.09-.64-.5-1.26-.73-1.86-.73-5.18-.02-11.01,14.07-8.54,16.12.25.2.54.26.74.27.13,4.31.25,8.62.38,12.92Z" style="fill:#db8bc2; mix-blend-mode:multiply; stroke-width:0px;"/>
        <path d="M13.83,97.36c5.66-5.45,13.47-.98,10.51,14.17-2.96,15.14-11.29,26.52-15.33,26.09-4.05-.43,2.12-32.49,2.56-35.21.45-2.71,2.26-5.05,2.26-5.05Z" style="fill:#ff9c7c; mix-blend-mode:soft-light; stroke-width:0px;"/>
        <path d="M10.71,172.36c.67.93,5.47-4.46,5.49-6.25-.52,1.43-2.68,1.21-3.58-1.1-.39-1-1.14-1.72-1.43-2.77-.06.61-.19,1.12-.41,1.39-.82,1.01-2.69,5.11-.07,8.72Z" style="fill:#ea8bc2; mix-blend-mode:multiply; opacity:.5; stroke-width:0px;"/>
        <path d="M0,172.63c0,.84,3.23,4.81,4.05,7.87,1.04,3.87,3.09,4.4,3.75,4.4s3-6.02,0-12.34c-1.97-4.14-1.87.09-1.87-1.68,0-.37-.1-5.31.03-6.19,0,0-.59,8.38-4.22,8.65-2.11.16-1.4-.85-1.02-4.06-.36,2.02-.73,2.74-.73,3.34Z" style="fill:#ea8bc2; mix-blend-mode:multiply; opacity:.5; stroke-width:0px;"/>
        <path d="M11.51,172.12c.91-.57,3.16-2.75,3.26-3.55s-2.38-1.63-3.53-1.42c-1.15.21-1.54,1.33-1.54,2.8s1.18,2.56,1.81,2.17Z" style="fill:#ffac98; stroke-width:0px;"/>
        <path d="M6.72,184.36c.93.51,1.14-2.08.31-4.03-.83-1.95-2.83-1.98-3.37-1.92-.55.07.8,4.71,3.07,5.95Z" style="fill:#ffac98; stroke-width:0px;"/>
        <path d="M17.07,152.04c.41,4.43-6.12,4.27-8.24-.75-2.12-5.02,1.95-8.54,2.56-8.77.61-.23,5.13,3.52,5.68,9.52Z" style="fill:#ffc7ac; mix-blend-mode:soft-light; opacity:.5; stroke-width:0px;"/>
        <path d="M39.92,246.1c-4.5,5.5-5.11,29.96-.67,47.7,4.45,17.74,6.72,28.84,5.26,34.25-1.46,5.41-6.09,12.85-4.89,17.88,9.1-1.39,13.58,3.95,14.8-1.44,2.14-9.47,2.36-15.54,3.43-18.5,1.55-4.26,0-6.67-.44-12.93-.44-6.25,1.29-50.18,1.92-58.27.62-8.09-11.39-15.44-19.42-8.68Z" style="stroke-width: 0px; fill: fillColor;"/>
        <path d="M41.38,302.48s2.91,9.24,5.66,12.21c2.75,2.97,10.05-9.92,10.23-11.36.18-1.44.26-4.8.26-4.8,0,0-4.12-19.54-10.94-26.13-6.82-6.59-8.53,12.87-5.22,30.08Z" style="fill:#c98bc2; mix-blend-mode:multiply; stroke-width:0px;"/>
        <path d="M62.6,361.56s-34.13.64-36.32.35c-2.19-.29-5.36-1.8-5.57-3.12-.21-1.32,2.09-7.66,9.91-13.88.24-.19.48-.39.72-.58,0,0,.01,0,.02-.01,7.17-5.94,8.35-10.72,8.35-10.72,1.56-3.29,1.45-5,6.37-5.75,1.96-.3,3.57.49,4.89,1.58,1.99,1.64,3.35,4,4.28,4.46,1.58.75,1.48-3.49,1.48-3.49,0,0,4.89,1.98,2.18,8.11,0,0,2.61,12.07,3.23,13.77.63,1.7,1.4,6.83.46,9.28Z" style="fill:url(#j); stroke-width:0px;"/>
        <path d="M61.84,351.29s-1.22,1.61-3.46,3.82c-2.24,2.22-2.35,3.02-6.42,3.06-4.07.05-11.17-7.08-18.84-6.89-7.67.19-12.37,6.51-12.42,7.5-.05.99,3.6,2.85,5.22,3.12,1.62.27,35.81.1,36.66-.35.85-.46,1.67-4.8-.75-10.27Z" style="fill:#720e4a; stroke-width:0px;"/>
        <path d="M52.33,334.17c-.44,2.93-2.92,11.89-9.61,10.16-6.4-1.65-10.99-.14-11.37-.01,7.17-5.94,8.35-10.72,8.35-10.72,1.56-3.29,1.45-5,6.37-5.75,1.96-.3,3.57.49,4.89,1.58,1.17,1.57,1.58,3.33,1.37,4.74Z" style="fill:#720e4a; stroke-width:0px;"/>
        <path d="M59.71,334.66s-1.95,2.91-2.58,4.23c-.63,1.32,3.11,5.67,3.11,5.67,0,0-1.19-5.92-.53-9.9Z" style="fill:url(#k); stroke-width:0px;"/>
        <path d="M20.88,359.24s3.58-6.48,12.56-5.45c8.97,1.04,18.37,8.02,18.37,8.02,0,0-23.06.86-25.88.1-2.82-.76-5.04-2.67-5.04-2.67Z" style="fill:#ae89c2; mix-blend-mode:multiply; stroke-width:0px;"/>
        <path d="M32.13,344.11s1.89-1.4,6.27-1.02c4.38.38,5.71,1.23,8.14.14,3.54-1.58,5.64-8.2,5.64-8.2,0,0-.78,7.84-5.27,9.53-4.49,1.69-6.99-.2-10.23-.76s-4.55.31-4.55.31Z" style="fill:#c98bc2; mix-blend-mode:multiply; stroke-width:0px;"/>
        <path d="M48.32,357.06c-3.4-2.8,2.13-13.27,8.81-18.17,1.32-1.25,4.79,11.31,4.47,12.71-.32,1.38-4.85,7-7.21,7.19-2.37.19-6.07-1.73-6.07-1.73Z" style="fill:#c98bc2; mix-blend-mode:multiply; stroke-width:0px;"/>
        <path d="M88.85,247.27c4.45,5.57,4.81,30.09.19,47.8-4.62,17.72-7,28.8-5.59,34.25,1.41,5.44,5.97,12.97,4.72,17.99-9.08-1.53-13.62,3.76-14.79-1.65-2.05-9.52-2.21-15.61-3.26-18.59-1.51-4.29.06-6.69.56-12.95s-.8-50.31-1.34-58.42c-.54-8.11,11.54-15.31,19.51-8.42Z" style="stroke-width: 0px; fill: fillColor;"/>
        <path d="M86.84,303.74s-3,9.22-5.78,12.15c-2.78,2.93-9.96-10.09-10.12-11.53-.17-1.44-.21-4.82-.21-4.82,0,0,4.3-19.52,11.19-26.03,6.88-6.51,8.41,13.02,4.93,30.23Z" style="fill:#c98bc2; mix-blend-mode:multiply; stroke-width:0px;"/>
        <path d="M65.23,362.22s34.13.64,36.32.35c2.19-.29,5.36-1.8,5.57-3.12.21-1.32-2.09-7.66-9.91-13.88-.24-.19-.48-.39-.72-.58,0,0-.01,0-.02-.01-7.17-5.94-8.35-10.72-8.35-10.72-1.56-3.29-1.45-5-6.37-5.75-1.96-.3-3.57.49-4.89,1.58-1.99,1.64-3.35,4-4.28,4.46-1.58.75-1.48-3.49-1.48-3.49,0,0-4.89,1.98-2.18,8.11,0,0-2.61,12.07-3.23,13.77-.63,1.7-1.4,6.83-.46,9.28Z" style="fill:url(#m); stroke-width:0px;"/>
        <path d="M65.98,351.95s1.22,1.61,3.46,3.82c2.24,2.22,2.35,3.02,6.42,3.07,4.07.05,11.17-7.08,18.84-6.89,7.67.19,12.37,6.51,12.42,7.5.05.99-3.6,2.85-5.22,3.12-1.62.27-35.81.1-36.66-.35-.85-.46-1.67-4.8.75-10.27Z" style="fill:#720e4a; stroke-width:0px;"/>
        <path d="M75.49,334.84c.44,2.93,2.92,11.89,9.61,10.16,6.4-1.65,10.99-.14,11.37-.01-7.17-5.94-8.35-10.72-8.35-10.72-1.56-3.29-1.45-5-6.37-5.75-1.96-.3-3.57.49-4.89,1.58-1.17,1.57-1.58,3.33-1.37,4.74Z" style="fill:#720e4a; stroke-width:0px;"/>
        <path d="M68.11,335.32s1.95,2.91,2.58,4.23c.63,1.32-3.11,5.67-3.11,5.67,0,0,1.19-5.92.53-9.9Z" style="fill:url(#n); stroke-width:0px;"/>
        <path d="M106.94,359.9s-3.58-6.48-12.56-5.45c-8.97,1.04-18.37,8.02-18.37,8.02,0,0,23.06.86,25.88.1,2.82-.76,5.04-2.67,5.04-2.67Z" style="fill:#ae89c2; mix-blend-mode:multiply; stroke-width:0px;"/>
        <path d="M95.69,344.77s-1.89-1.4-6.27-1.02c-4.38.38-5.71,1.23-8.14.14-3.54-1.58-5.64-8.2-5.64-8.2,0,0,.78,7.84,5.27,9.53,4.49,1.69,6.99-.2,10.23-.76,3.23-.57,4.55.31,4.55.31Z" style="fill:#c98bc2; mix-blend-mode:multiply; stroke-width:0px;"/>
        <path d="M79.5,357.72c3.4-2.8-2.13-13.27-8.81-18.17-1.32-1.25-4.79,11.31-4.47,12.71.32,1.38,4.85,7,7.21,7.19,2.37.19,6.07-1.73,6.07-1.73Z" style="fill:#c98bc2; mix-blend-mode:multiply; stroke-width:0px;"/>
        <path d="M64.95,153.23l-2.49-.18c1.37,4.94.82,12.51.1,26.49v.03c-.2,3.58-.39,7.58-.58,12.09-.93,22.77-.15,35.23.12,41.75.28,6.6.02,8.36-.82,17.9-.15,1.69-.22,4.06-.21,6.82,0,8.81.6,25.68.79,33.45v.03c.07,3.69.08,6.19-.12,6.49-.78,1.13-7.91,2.3-13.77,1.01-5.87-1.27-14.11-5.72-13.03-8.52.17-.41.27-1.04.33-1.87.04-.49.07-1.07.07-1.69.07-5.1-.55-18.27.36-28.95,1.19-13.92,3.5-17.02,4.44-19.37.91-2.34,1.59-5.9-2.29-19.41-2.26-7.87-7.66-21.89-10.83-38.29-.03-.09-.04-.14-.04-.14-2.13-11.11-3.24-23.25-1.66-35.29.69-5.3,2.04-9.76,3.64-13.43.22-.49.11-1.77.32-2.23.93-1.96,2.23-2.87,3.14-4.36.32-.53-.32-2.08-.01-2.56.28-.43,2.28-.93,2.55-1.31,1.27-1.9,1.45-2.06,1.66-2.84.57-2.1,1.31-4.8,1.8-5.93.11-.23.19-.4.27-.48l.13-.09c.58-.29,1.93.54,1.93.54l-.47.71c6.62,3.9,15.61,5.83,20.92,6.68h.01c2.7.44,4.45.59,4.45.59l-.69,32.37Z" style="fill:url(#o); stroke-width:0px;"/>
        <path d="M65.44,130s-18.06-3.39-28.84-11.15l1.11-3.93s-1.82,3.05,7.26,7.92c9.13,4.89,20.49,6.19,20.49,6.19l-.02.98Z" style="fill:url(#p); mix-blend-mode:multiply; stroke-width:0px;"/>
        <path d="M65.01,149.99s-1.49,1.41-3.88-.91c-1.47-1.42-7.74-5.91-14.34-11.37-6.56-5.43-8.31-7.08-8.31-7.08,0,0,7.36,8.52,12.68,12.05,5.35,3.54,9.44,7.91,9.44,7.91,0,0-8.19-8.12-16.45-10.12-8.25-2-16.43,4.25-17.04,4.44-.6.19,10.35-1.19,19.83.28,9.48,1.48,15.51,7.86,15.51,7.86l2.49.18.07-3.25Z" style="fill:url(#q); mix-blend-mode:multiply; stroke-width:0px;"/>
        <path d="M32.49,125.21s2.42.68,7.05,4.39c4.65,3.72,9.52,8.92,9.52,8.92,0,0-5.06-7.75-8.72-11.16-3.64-3.4-7.95-4.36-7.95-4.36,0,0-.17.08-.03.61.14.53.13,1.59.13,1.59Z" style="fill:url(#r); mix-blend-mode:multiply; stroke-width:0px;"/>
        <path d="M61.27,251.31c-.15,1.7-.21,4.06-.21,6.82-.17,1.2-.3,6.22-.34,7.3-.31,7.35-11.79,8.49-17.44,12.11-5.67,3.64-7.96,9.49-7.96,9.49.07-5.11-.54-18.28.36-28.95,1.18-13.93,3.5-17.01,4.44-19.37.92-2.35,1.59-5.9-2.29-19.4-2.26-7.88-7.66-21.89-10.83-38.3.82,2.74,14.28,44.4,18.52,50.45,4.42,6.28,8.69,4.39,11.95,3,3.23-1.39,3.05-3.39,3.33-21.23.25-16.93,1.67-32.78,1.75-33.64-.19,3.58-.39,7.59-.57,12.09-.93,22.76-.15,35.23.12,41.75.28,6.59.03,8.36-.82,17.88Z" style="fill:#ae89c2; mix-blend-mode:multiply; stroke-width:0px;"/>
        <path d="M36.84,145.05c-7.21,1.21-8.9,38.85.89,60.56,10.07,22.32,18.71,6.96,21.78-23.42,2.94-29.14-5-39.64-22.67-37.14Z" style="fill:#90a9ef; mix-blend-mode:soft-light; opacity:.3; stroke-width:0px;"/>
        <path d="M61.72,298.1c-.78,1.14-7.91,2.3-13.77,1.02-5.87-1.28-14.11-5.73-13.02-8.52.17-.43.27-1.05.33-1.88,0,0,4.59,7.67,13.26,9.67,8.69,2.01,13.43-3.26,13.33-6.64v-.13c.08,3.69.09,6.18-.12,6.48Z" style="fill:#ae89c2; mix-blend-mode:multiply; stroke-width:0px;"/>
        <path d="M45.08,232.03c.72-.62,3.07,4.6,6.33,5.44,3.26.84,7.92-2.14,9.12-4.17,1.19-2.03-.77,6.22-3.16,13.57-2.41,7.42-7.62.56-8.22-4.09-.59-4.62-4.07-10.75-4.07-10.75Z" style="fill:url(#s); mix-blend-mode:multiply; opacity:.88; stroke-width:0px;"/>
        <path d="M28.66,132.84s-5.61,32.98,5.13,73.79c0,0-16.66-42.98-5.13-73.79Z" style="fill:#ae89c2; mix-blend-mode:multiply; stroke-width:0px;"/>
        <path d="M100.58,181.89s0,.05-.03.14c-3.08,16.28-8.36,30.17-10.57,38-3.79,13.43-3.09,16.99-2.18,19.35.93,2.36,3.25,5.47,4.46,19.38.94,10.66.37,23.78.46,28.88,0,.62.02,1.19.06,1.69.06.82.16,1.45.33,1.88,1.09,2.79-7.06,7.22-12.88,8.5-5.83,1.28-12.95.12-13.74-1.03-.21-.3-.21-2.79-.15-6.49t0-.03c.16-7.8.71-24.71.67-33.53,0-2.77-.08-5.14-.24-6.85-.88-9.55-1.13-11.33-.88-17.94.24-6.53.96-19.03-.06-41.86-.21-4.52-.41-8.55-.62-12.14,0-.02,0-.03,0-.03-.78-14.03-1.36-21.64,0-26.56l-2.45-.14-1.59-32.82s.35,0,.96-.04h.01c3.63-.16,16.64-1.08,25.1-5.83l-.58-.89s1.59-.72,2.08-.17c.06.06.12.17.2.32.48,1.02,1.27,3.92,1.87,6.14.22.79.38.95,1.65,2.89.26.39,2.24.95,2.53,1.39.31.48-.32,2.01,0,2.55.9,1.51,2.18,2.47,3.12,4.43.22.48.1,1.74.32,2.24,1.6,3.71,2.95,8.2,3.66,13.48,1.6,12.03.56,24.09-1.51,35.1Z" style="fill:url(#t); stroke-width:0px;"/>
        <path d="M62.16,130.03s18-2.83,28.67-10.22l-1.12-3.96s1.81,3.11-7.17,7.67c-9.06,4.6-20.4,5.54-20.4,5.54l.02.98Z" style="fill:url(#u); mix-blend-mode:multiply; stroke-width:0px;"/>
        <path d="M62.66,150.09s2.19.03,3.83-1.1c1.64-1.13,7.74-5.4,14.29-10.67,6.5-5.22,8.22-6.82,8.22-6.82,0,0-7.27,8.29-12.55,11.66-5.31,3.39-9.39,7.65-9.39,7.65,0,0,8.14-7.9,16.35-9.66,8.18-1.75,16.28,4.71,16.88,4.92.6.21-10.24-1.48-19.63-.28-9.43,1.21-15.43,7.44-15.43,7.44l-2.45-.15-.12-3Z" style="fill:url(#v); mix-blend-mode:multiply; stroke-width:0px;"/>
        <path d="M94.91,126.28s-1.95,1.71-6.52,5.27c-4.6,3.58-9.86,7.51-9.86,7.51,0,0,6.13-5.4,9.75-8.7,3.6-3.28,6.73-6.27,6.73-6.27,0,0,.16.09.03.61-.13.53-.12,1.59-.12,1.59Z" style="fill:url(#w); mix-blend-mode:multiply; stroke-width:0px;"/>
        <path d="M66.8,251.77c.16,1.7.23,4.07.23,6.84.18,1.2.3,6.22.36,7.31.34,7.37,11.79,8.56,17.42,12.21,5.64,3.66,7.92,9.5,7.92,9.5-.09-5.1.48-18.22-.45-28.89-1.22-13.91-3.54-17.01-4.47-19.38-.92-2.35-1.61-5.92,2.18-19.35,2.21-7.83,7.5-21.71,10.56-37.99-.79,2.71-13.94,44.04-18.13,50.03-4.37,6.23-8.63,4.29-11.88,2.85-3.23-1.43-3.07-3.45-3.42-21.33-.32-16.97-1.79-32.89-1.88-33.76.2,3.59.41,7.62.62,12.14,1.02,22.84.3,35.33.05,41.87-.25,6.6,0,8.38.89,17.94Z" style="fill:#ae89c2; mix-blend-mode:multiply; stroke-width:0px;"/>
        <path d="M90.68,145.94c7.14,1.41,8.95,38.96-.65,60.42-9.91,22.15-18.57,6.64-21.75-23.85-3.05-29.28,4.84-39.58,22.4-36.57Z" style="fill:#90a9ef; mix-blend-mode:soft-light; opacity:.3; stroke-width:0px;"/>
        <path d="M66.51,298.67c.79,1.15,7.9,2.31,13.73,1.03,5.82-1.28,13.98-5.71,12.89-8.5-.17-.43-.27-1.05-.33-1.88,0,0-4.51,7.65-13.12,9.65-8.65,2.01-13.4-3.27-13.32-6.66v-.13c-.07,3.7-.07,6.2.15,6.5Z" style="fill:#ae89c2; mix-blend-mode:multiply; stroke-width:0px;"/>
        <path d="M82.86,232.65c-.72-.63-3.04,4.56-6.27,5.36-3.24.81-7.9-2.23-9.11-4.29-1.2-2.05.8,6.25,3.21,13.63,2.43,7.45,7.59.64,8.17-4.01.57-4.62,4-10.7,4-10.7Z" style="fill:url(#x); mix-blend-mode:multiply; opacity:.88; stroke-width:0px;"/>
        <path d="M98.73,134.01s5.66,33-4.79,73.44c0,0,16.27-42.45,4.79-73.44Z" style="fill:#ae89c2; mix-blend-mode:multiply; stroke-width:0px;"/>
        <path d="M61.19,120.27s-5.1.42-5.59.67c-.49.24-.78,4.93-.51,5.9.27.97,4.64,2.8,9.91,2.13,5.25-.67,11.69-2.41,12.88-3.44,1.18-1.03,2.27-5.67,2.27-5.67,0,0-10.92-.26-18.96.42Z" style="fill:#90a9ef; mix-blend-mode:soft-light; opacity:.5; stroke-width:0px;"/>
        <path d="M55.6,120.94s.03,4.87,1,6.13c.97,1.27,8.66,1.44,12.7.91,4.04-.53,10.9-3.38,10.9-3.38,0,0-8.25,4.33-15.2,5.31-6.97.99-9.03-.69-10.03-1.81-1-1.12.63-7.17.63-7.17Z" style="fill:url(#y); mix-blend-mode:multiply; stroke-width:0px;"/>
        <path d="M61.17,130.01s1.27,18.41,1.39,19.49c.12,1.07,4.61-.13,7.05-5.25,2.42-5.08.6-15.28.49-15.52-.11-.24-4.29,1.24-8.93,1.28Z" style="fill:#90a9ef; mix-blend-mode:soft-light; opacity:.5; stroke-width:0px;"/>
        <path d="M61.17,130.01s-1.07,5.95-.96,10.14c.11,4.22,2.41,9.69,2.41,9.69,0,0-.9-13.04-1.45-19.84Z" style="fill:url(#z); mix-blend-mode:multiply; stroke-width:0px;"/>
        <path d="M59.72,125.36c-1.61-1.98,1.31-5.96,4.98-2.72,3.68,3.26-2.01,7.3-4.98,2.72Z" style="fill:#8b3416; stroke-width:0px;"/>
        <path d="M59.27,123.93s.34,2.61,3.58,2.66c3.23.05,2.79-2.75,2.79-2.75,1.19,3.96-1.39,4.73-3.82,4.05-2.43-.68-2.92-2.75-2.54-3.96Z" style="fill:#c98bc2; mix-blend-mode:multiply; stroke-width:0px;"/>
        <path d="M61.18,120.27l-2.81.26s-8.5-.84-13.98-3.75c-4.36-2.3-5.98-3.2-6-3.87,0-.17.1-.32.27-.48l.13-.09c.58-.29,1.93.54,1.93.54l-.47.71c6.62,3.9,15.61,5.83,20.92,6.68Z" style="fill:#ffffe5; mix-blend-mode:soft-light; opacity:.8; stroke-width:0px;"/>
        <path d="M88.95,113.66c-.4,1.45-3.52,4.62-9.17,5.55-5.97.98-17.16,1.02-17.63,1.02,3.63-.16,16.64-1.08,25.1-5.83l-.58-.89s1.59-.72,2.08-.17c.06.06.12.17.2.32Z" style="fill:#ffffe5; mix-blend-mode:soft-light; opacity:.8; stroke-width:0px;"/>
        <path d="M43.58,126.25c-1.27,1.32,10.08,23.57,20.25,22.76,10.13-.8,23.35-20.45,24.19-22.66.83-2.2-15.3,4.39-26.84,3.66-11.56-.72-16.63-4.77-17.59-3.77Z" style="fill:#90a9ef; mix-blend-mode:soft-light; opacity:.3; stroke-width:0px;"/>
        <path d="M82.88,149.86c-5.82-1.56-9.89,29.67-3.77,40.6,6.21,11.09,10.84-10.24,10.96-24.55.12-14.03-4.9-15.44-7.2-16.05Z" style="fill:#90a9ef; mix-blend-mode:soft-light; opacity:.5; stroke-width:0px;"/>
        <path d="M36.65,148.78c-4.13,1.74-5.38,28.1,3.42,36.12,8.88,8.1,13.66-11.66,8.11-32.03-.85-3.13-9.97-4.76-11.54-4.09Z" style="fill:#90a9ef; mix-blend-mode:soft-light; opacity:.5; stroke-width:0px;"/>
        <path d="M49.53,139.94s7.4,5.43,13.6,5.62c6.19.19,16.71-6.48,16.71-6.48,0,0-12.48,13.57-15.74,14.09-3.26.52-14.58-13.23-14.58-13.23Z" style="fill:#ae89c2; mix-blend-mode:multiply; stroke-width:0px;"/>
        <path d="M43.53,122.89s-2.18,3.96-3.09,4.17c-.91.21-.97,1.15-1.23,2.27-.26,1.12-11.4,5.6-11.4,5.6l-1.48,5.85s13.27-6.25,13.94-8.15c.66-1.89,1.21-3.4,2.23-2.99,1.02.41,3.06-5.82,3.06-5.82l-2.03-.94Z" style="fill:#ffffe5; mix-blend-mode:soft-light; opacity:.8; stroke-width:0px;"/>
        <path d="M82.18,124.38s3.62,6.49,4.02,6.99c.39.5,1.86-.21,1.94.89.08,1.1,13.66,12.62,13.66,12.62,0,0-.97-5.51-1.96-7.77,0,0-5.55-.7-9.17-7.21-.49-.89-.76-.19-1.44-.43-.68-.24-4.12-6.43-4.12-6.43l-2.93,1.34Z" style="fill:#ffffe5; mix-blend-mode:soft-light; opacity:.8; stroke-width:0px;"/>
        <path d="M39.12,66.14s-1.37,4.52-1.51,5.02c-.14.5-13.94-1.51-21.91-4.7-7.62-3.05-8.16-9.2-8.04-10.29.11-1.08,5.32-4.97,10.27-13.85,4.51-8.08,5.95-11.98,6.93-12.27.97-.29,7.06,6.88,10.98,11.77,4.2,5.23,3.29,24.33,3.29,24.33Z" style="fill:url(#aa); stroke-width:0px;"/>
        <path d="M39.12,66.14s-2.63-4.78-4.33-10.5c-1.59-5.37-2.22-7.86-2.22-7.86,0,0,.35,5.46.62,10.82.29,5.7,4.05,10.71,4.23,11.63.18.93,1.7-4.09,1.7-4.09Z" style="fill:url(#ab); mix-blend-mode:multiply; stroke-width:0px;"/>
        <path d="M8.47,54.96s6.87,9.66,10.26,3.49c8.47-15.46,4.39-25.95,4.39-25.95,0,0-2.98,6.61-6.92,12.82-4.22,6.65-7.73,9.64-7.73,9.64Z" style="fill:#fbd2d3; mix-blend-mode:multiply; opacity:.5; stroke-width:0px;"/>
        <path d="M86.46,65.43s1.12,4.59,1.24,5.1c.12.51,14-.75,22.14-3.5,7.77-2.63,8.65-8.74,8.59-9.84-.05-1.09-5.04-5.26-9.5-14.39-4.06-8.32-5.29-12.29-6.24-12.63-.95-.34-7.43,6.49-11.61,11.15-4.48,4.99-4.61,24.11-4.61,24.11Z" style="fill:url(#ac); stroke-width:0px;"/>
        <path d="M117.68,55.94s-7.39,9.27-10.43,2.92c-7.62-15.9-2.96-26.15-2.96-26.15,0,0,2.61,6.77,6.21,13.17,3.85,6.87,7.19,10.05,7.19,10.05Z" style="fill:#fbd2d3; mix-blend-mode:multiply; opacity:.5; stroke-width:0px;"/>
        <path d="M92.08,66.09s2.32-4.93,3.65-10.76c1.25-5.46,1.72-7.98,1.72-7.98,0,0,.5,4.43-.52,10.79-.87,5.43-2.77,11-2.89,11.93-.13.94-1.96-3.98-1.96-3.98Z" style="fill:url(#ad); mix-blend-mode:multiply; stroke-width:0px;"/>
        <path d="M35.1,66.58s-2.32-4.93-3.65-10.76c-1.25-5.46-1.72-7.98-1.72-7.98,0,0-.5,4.43.52,10.79.87,5.43,2.77,11,2.89,11.93.13.94,1.96-3.98,1.96-3.98Z" style="fill:url(#ae); mix-blend-mode:multiply; stroke-width:0px;"/>
        <path d="M96.6,26.31c-3.31-1.57-17.58-8.04-18.58-8.63-1-.59-2.2-2.32-2.59-2.46-.39-.14-2.05-.17-2.05-.17l.88,1.3c-4.57,6.2-10.62,5.83-10.62,5.83,0,0-6.04.37-10.62-5.83l.88-1.3s-1.67.03-2.05.17c-.39.14-1.59,1.87-2.58,2.46-1.01.59-16.89,7.06-20.22,8.63-3.4,1.6-4.47,3.81-4.47,3.81,0,0,4.28,10.12,5.16,19.91,1,11.04,3.5,16.22,3.65,17.89.15,1.71-.97,36.99-.95,38.39.03,1.42-3.02,3.64-3.34,5.8-.32,2.19.75,5.86.57,7.19-.19,1.34-1.48.61-1.75,2.45-.27,1.87-.29,4.16-.41,7.8-.13,3.75-1.76,3.75-2.23,5.8-.48,2.09,20.13,9,38.44,10.34,18.31-1.34,38.91-8.25,38.43-10.34-.47-2.05-2.11-2.05-2.24-5.8-.13-3.64-.15-5.93-.42-7.8-.27-1.84-1.56-1.11-1.75-2.45-.19-1.33.88-4.99.56-7.19-.32-2.15-3.37-4.37-3.35-5.8.03-1.4-1.13-36.69-.98-38.39.15-1.68,2.64-6.85,3.63-17.89.88-9.79,5.14-19.91,5.14-19.91,0,0-2.73-2.21-6.12-3.81Z" style="fill:url(#af); stroke-width:0px;"/>
        <path d="M49.26,17.68s4.44,9.72,15,9.25c10.49-.46,13.37-9.53,13.37-9.53l-1.81-1.87s-2.72,8.13-11.87,8.13-12.1-8.45-12.1-8.45l-2.58,2.46Z" style="fill:#ffc2c4; mix-blend-mode:multiply; stroke-width:0px;"/>
        <path d="M41.16,41.22s1.24,17.71,1.97,19.27c.74,1.59,14.41-.99,24.84-1.09,10.42-.1,13.28,1.86,14.48,1.17,1.24-.71,1.47-18.96,1.97-19.53.49-.57-12.99.78-23.33,1-9.9.21-19.2-1.36-19.93-.82Z" style="fill:url(#ag); stroke-width:0px;"/>
        <path d="M45.16,23.14s8.5,10.06,15.23,15.37l7.21,5.68s-19.17-.23-22.44-21.04Z" style="fill:url(#ah); mix-blend-mode:multiply; opacity:.88; stroke-width:0px;"/>
        <path d="M34.97,58.18s10.09,38.06,15.58,48.9c6.06,11.98,10.92,14.42,10.92,14.42,0,0-9.82,6.08-20.6-11.99-9.33-15.63-5.89-51.34-5.89-51.34Z" style="fill:url(#ai); mix-blend-mode:multiply; opacity:.88; stroke-width:0px;"/>
        <path d="M94.83,61.78s-5.24,26.99-12.67,40.38c-8.44,15.22-17.64,15.7-17.64,15.7,0,0,21.61-23.19,30.31-56.08Z" style="fill:url(#aj); mix-blend-mode:multiply; opacity:.88; stroke-width:0px;"/>
        <path d="M29.09,112.12s12.83,18.16,31.7,20.78c19.27,2.67,32.1-4.26,32.1-4.26,0,0-9.56,9.02-30.52,9.44-21.02.42-32.3-16.79-32.78-20.22-.47-3.34-.5-5.74-.5-5.74Z" style="fill:url(#ak); mix-blend-mode:multiply; opacity:.88; stroke-width:0px;"/>
        <path d="M97.71,119.3c-.56,1.84-13.82,9.07-29.13,8.81,0,0,14.48-4.73,20.36-10.74,5.6-5.71,9.33-5.26,9.33-5.26,0,0,.4,2.78-.31,4.43-.71,1.67-.25,2.76-.25,2.76Z" style="fill:url(#al); mix-blend-mode:multiply; opacity:.88; stroke-width:0px;"/>
        <path d="M27.3,130.08s9.1,10.92,29.22,11.06c20.14.14,35.58-6.63,35.58-6.63,0,0-25.18,7.08-39.86,3.57-14.29-3.42-24.54-14.19-24.54-14.19l-.39,6.19Z" style="fill:url(#am); mix-blend-mode:multiply; opacity:.88; stroke-width:0px;"/>
        <path d="M31.17,58.18s3.47,5.55,11.42,6.5c8.06.96,18.54-2.05,20.99-2.05s13.13,2.48,19.21,2.23c6.06-.24,12.83-3.26,12.83-3.26,0,0-.29,4.03-3.58,8.43-5.37,7.19-16.72,16.61-27.69,17.73-18.56,1.89-30.32-17.71-30.89-19.11-.56-1.37-2.29-10.48-2.29-10.48Z" style="fill:#fbd2d3; mix-blend-mode:multiply; opacity:.5; stroke-width:0px;"/>
        <path d="M56.57,28.43s3.08,2.89,11,0c7.63-2.78,10.44-10.75,10.44-10.75,0,0,.64,8.42-7.98,11.6-8.99,3.32-13.47-.86-13.47-.86Z" style="fill:url(#an); mix-blend-mode:multiply; opacity:.88; stroke-width:0px;"/>
        <path d="M41.28,53.76c-7.62-2.75-5.91-16.03-2.89-17.36,2.96-1.31,15.53,6.72,33.02,8.14,17.79,1.44,9.94,9.3.2,8.62-9.67-.68-19.42,2.59-30.33.6Z" style="fill:#ffbaef; mix-blend-mode:soft-light; opacity:.3; stroke-width:0px;"/>
        <path d="M68.91,30.55c-13.74,2-5.28,9.54,6,12.04,11.64,2.58,14.87-14.51,14.64-15.64-.23-1.12-4.31,1.21-20.64,3.6Z" style="fill:#ffbaef; mix-blend-mode:soft-light; opacity:.3; stroke-width:0px;"/>
        <path d="M56.68,26.1c-2.51-.83-.78,2.47,3.89,3.18,4.71.72,7.25-1.61,7.25-1.61,0,0-6.95-.19-11.15-1.57Z" style="fill:#ffbaef; mix-blend-mode:soft-light; opacity:.3; stroke-width:0px;"/>
        <path d="M37.71,117.02c-.57-.12,6.38,12.55,20.12,15.21,14.03,2.72,27.78-.89,27.78-.89,0,0-3.48-3.1-17.58-4.66-13.93-1.54-30.32-9.67-30.32-9.67Z" style="fill:#ffbaef; mix-blend-mode:soft-light; opacity:.3; stroke-width:0px;"/>
        <path d="M101.35,29.12s-3.96,11.02-3.71,20.2c0,0,1.68-15.76,4.93-19.19l-1.22-1.01Z" style="fill:#f98ba2; mix-blend-mode:multiply; stroke-width:0px;"/>
        <path d="M25.79,29.12s3.96,11.02,3.71,20.2c0,0-1.68-15.76-4.93-19.19l1.22-1.01Z" style="fill:#f98ba2; mix-blend-mode:multiply; stroke-width:0px;"/>
        <path d="M52.01,57.5c-1.6-.43-3.88-5.75-4.2-10.17-.3-4.2,8.87-2.68,10.46-3.29,1.58-.6,1.45,7.02,1.14,7.86-.31.86.78-5.3,1.46-7.12.67-1.78,3.62-.74,4.78-.35,1.17.39-1.52,7.92-2.16,10.25-.66,2.39-11.48,2.82-11.48,2.82Z" style="fill:#14d6e8; stroke-width:0px;"/>
        <path d="M70.68,45.08c-2.68-.86-5.77,4.3-5.3,9.03.49,4.99,11.43,2.06,13.01-.48,1.54-2.47-3.78-6.15-5.62-5.61-1.85.54-.76,2.83-1.87,2.28-1.1-.54.5-2.82,2.02-2.82s-.19-1.74-2.24-2.39Z" style="fill:#14d6e8; stroke-width:0px;"/>
      </g>
    </g>
  </g>
</svg>