<?xml version="1.0" encoding="UTF-8"?><svg xmlns="http://www.w3.org/2000/svg" xmlns:xlink="http://www.w3.org/1999/xlink" viewBox="0 0 123.31 309.62"><defs><linearGradient id="d" x1="61.74" y1="24.61" x2="61.74" y2="0" gradientUnits="userSpaceOnUse"><stop offset=".02" stop-color="#ff8d5b"/><stop offset="1" stop-color="#ff6f6b"/></linearGradient><linearGradient id="e" x1="48.04" y1="284.49" x2="48.04" y2="255.45" xlink:href="#d"/><linearGradient id="f" x1="41.69" y1="309.37" x2="41.69" y2="275.03" gradientUnits="userSpaceOnUse"><stop offset="0" stop-color="#8b9af9"/><stop offset=".96" stop-color="#c5b3ff"/></linearGradient><linearGradient id="g" x1="56.93" y1="291.87" x2="56.93" y2="281.93" gradientUnits="userSpaceOnUse"><stop offset="0" stop-color="#ae00ab"/><stop offset="1" stop-color="#ac0994"/></linearGradient><linearGradient id="h" x1="690.89" y1="284.49" x2="690.89" y2="255.45" gradientTransform="translate(766.21) rotate(-180) scale(1 -1)" xlink:href="#d"/><linearGradient id="i" x1="684.54" y1="309.37" x2="684.54" gradientTransform="translate(766.21) rotate(-180) scale(1 -1)" xlink:href="#f"/><linearGradient id="j" x1="699.78" y1="291.87" x2="699.78" y2="281.93" gradientTransform="translate(766.21) rotate(-180) scale(1 -1)" xlink:href="#g"/><linearGradient id="k" x1="19.35" y1="164.46" x2="19.35" y2="138.25" gradientUnits="userSpaceOnUse"><stop offset=".02" stop-color="#db5956"/><stop offset="1" stop-color="#cf2747"/></linearGradient><linearGradient id="l" x1="17.77" y1="162.76" x2="17.77" y2="67.58" xlink:href="#d"/><linearGradient id="m" x1="16.49" y1="77.69" x2="16.49" y2="34.17" gradientUnits="userSpaceOnUse"><stop offset="0" stop-color="#b30039"/><stop offset="1" stop-color="#c70018"/></linearGradient><linearGradient id="n" x1="29.32" y1="77" x2="29.32" y2="55.93" gradientUnits="userSpaceOnUse"><stop offset="0" stop-color="#ae47b8"/><stop offset="1" stop-color="#fff"/></linearGradient><linearGradient id="o" x1="645.17" y1="164.46" x2="645.17" y2="138.25" gradientTransform="translate(749.14) rotate(-180) scale(1 -1)" xlink:href="#k"/><linearGradient id="p" x1="643.6" y1="162.76" x2="643.6" y2="67.58" gradientTransform="translate(749.14) rotate(-180) scale(1 -1)" xlink:href="#d"/><linearGradient id="q" x1="642.31" y1="77.69" x2="642.31" gradientTransform="translate(749.14) rotate(-180) scale(1 -1)" xlink:href="#m"/><linearGradient id="r" x1="655.14" y1="77" x2="655.14" y2="55.93" gradientTransform="translate(749.14) rotate(-180) scale(1 -1)" xlink:href="#n"/><linearGradient id="s" x1="61.7" y1="254.2" x2="61.7" y2="116.16" gradientUnits="userSpaceOnUse"><stop offset="0" stop-color="#5a34b5"/><stop offset="1" stop-color="#5c47ae"/></linearGradient><linearGradient id="t" x1="47.32" y1="265.05" x2="47.32" y2="245.39" gradientUnits="userSpaceOnUse"><stop offset="0" stop-color="#8576de"/><stop offset="1" stop-color="#9183c8"/></linearGradient><linearGradient id="u" x1="37.04" y1="132.42" x2="61.7" y2="132.42" gradientUnits="userSpaceOnUse"><stop offset="0" stop-color="#fff"/><stop offset="1" stop-color="#8e47b8"/></linearGradient><linearGradient id="v" x1="35.65" y1="122.65" x2="61.7" y2="122.65" gradientUnits="userSpaceOnUse"><stop offset="0" stop-color="#8e47b8"/><stop offset="1" stop-color="#fff"/></linearGradient><linearGradient id="w" x1="39.26" y1="251.61" x2="39.26" y2="234.48" xlink:href="#v"/><linearGradient id="x" x1="54.32" y1="252.79" x2="54.32" y2="234.45" xlink:href="#v"/><linearGradient id="y" x1="49.37" y1="244.82" x2="55.39" y2="244.82" xlink:href="#v"/><linearGradient id="z" x1="36.57" y1="245.21" x2="44.09" y2="245.21" xlink:href="#v"/><linearGradient id="aa" x1="690.17" x2="690.17" y2="245.39" gradientTransform="translate(766.21) rotate(-180) scale(1 -1)" xlink:href="#t"/><linearGradient id="ab" x1="679.89" x2="704.54" gradientTransform="translate(766.21) rotate(-180) scale(1 -1)" xlink:href="#u"/><linearGradient id="ac" x1="678.5" x2="704.54" gradientTransform="translate(766.21) rotate(-180) scale(1 -1)" xlink:href="#v"/><linearGradient id="ad" x1="682.11" y1="251.61" x2="682.11" y2="234.48" gradientTransform="translate(766.21) rotate(-180) scale(1 -1)" xlink:href="#v"/><linearGradient id="ae" x1="693.46" y1="252.22" x2="693.46" y2="233.88" gradientTransform="translate(766.21) rotate(-180) scale(1 -1)" xlink:href="#v"/><linearGradient id="af" x1="688.51" y1="244.25" x2="694.52" y2="244.25" gradientTransform="translate(766.21) rotate(-180) scale(1 -1)" xlink:href="#v"/><linearGradient id="ag" x1="679.42" y1="245.21" x2="686.94" y2="245.21" gradientTransform="translate(766.21) rotate(-180) scale(1 -1)" xlink:href="#v"/><linearGradient id="ah" x1="61.74" y1="120.1" x2="61.74" y2="12.3" xlink:href="#m"/><linearGradient id="ai" x1="60.81" y1="67.74" x2="60.81" y2="47.33" gradientUnits="userSpaceOnUse"><stop offset="0" stop-color="#ef1d83"/><stop offset="1" stop-color="#f50088"/></linearGradient><linearGradient id="aj" x1="52.38" y1="51.01" x2="52.38" y2="24.61" gradientUnits="userSpaceOnUse"><stop offset="0" stop-color="#bd36c9"/><stop offset="1" stop-color="#fff"/></linearGradient><linearGradient id="ak" x1="46.53" y1="109.32" x2="46.53" y2="65.16" xlink:href="#aj"/><linearGradient id="al" x1="77.38" y1="106.97" x2="77.38" y2="68.44" xlink:href="#aj"/><linearGradient id="am" x1="35.03" y1="110.33" x2="82.8" y2="110.33" xlink:href="#aj"/><linearGradient id="an" x1="76.86" y1="112.15" x2="76.86" y2="103.87" gradientUnits="userSpaceOnUse"><stop offset="0" stop-color="#fff"/><stop offset="1" stop-color="#bd36c9"/></linearGradient><linearGradient id="ao" x1="35.28" y1="114.11" x2="81.76" y2="114.11" xlink:href="#aj"/><linearGradient id="ap" x1="66.79" y1="34.73" x2="66.79" y2="16.46" xlink:href="#aj"/></defs><g style="isolation:isolate;"><g id="b"><g id="c"><path d="M72.49,0l-10.75,1.24-10.75-1.24s.27,8.95-3.27,14.63c0,0,.51,9.98,14.02,9.98s14.02-9.98,14.02-9.98c-3.54-5.68-3.27-14.63-3.27-14.63Z" style="fill:url(#d); stroke-width:0px;"/><path d="M50.75,4.57s2.72,9.05,10.99,9.43c8.27.38,11.04-8.98,11.04-8.98l-.29-5.02h-21.51l-.24,4.57Z" style="fill:#c98bc2; mix-blend-mode:multiply; stroke-width:0px;"/><path d="M63.17,23.14c-2.06-1.43,4.59-11.79,8.09-12.93s2.41,6.87,1.28,7.93c-1.13,1.06-5.85,5.11-9.37,5Z" style="fill:#ffc7ac; mix-blend-mode:soft-light; opacity:.6; stroke-width:0px;"/><path d="M41.24,261.74s1.8,11.94-1.52,19.99c0,0,6.35,3.41,11.46,2.65,5.12-.76,3.98-1.61,3.98-5.68s.38-5.97,1.04-7.48c.66-1.52-1.23-4.55-1.42-12.79-.19-8.24-13.55,3.32-13.55,3.32Z" style="fill:url(#e); stroke-width:0px;"/><path d="M60.51,308.95s-30.98.64-32.97.35-4.87-1.81-5.06-3.13c-.19-1.33,1.9-7.7,9-13.94.22-.19.44-.39.65-.58,0,0,0,0,.02,0,6.51-5.97,7.58-10.77,7.58-10.77,1.42-3.31,1.32-5.02,5.78-5.78,1.78-.3,3.24.49,4.44,1.59,1.81,1.65,3.04,4.02,3.89,4.48,1.43.75,1.34-3.51,1.34-3.51,0,0,4.44,1.99,1.98,8.15,0,0,2.37,12.13,2.93,13.83.57,1.71,1.27,6.86.42,9.32Z" style="fill:url(#f); stroke-width:0px;"/><path d="M59.83,298.63s-1.1,1.62-3.14,3.84c-2.04,2.23-2.13,3.03-5.83,3.08-3.69.05-10.14-7.11-17.1-6.92-6.96.19-11.23,6.54-11.27,7.54s3.27,2.86,4.74,3.13c1.47.28,32.51.1,33.28-.36s1.52-4.83-.68-10.32Z" style="fill:#720e4a; stroke-width:0px;"/><path d="M51.19,281.44c-.4,2.94-2.65,11.94-8.72,10.21-5.81-1.66-9.98-.14-10.32,0,6.51-5.97,7.58-10.77,7.58-10.77,1.42-3.31,1.32-5.02,5.78-5.78,1.78-.3,3.24.49,4.44,1.59,1.06,1.58,1.43,3.35,1.24,4.76Z" style="fill:#720e4a; stroke-width:0px;"/><path d="M57.89,281.93s-1.77,2.92-2.34,4.25c-.57,1.33,2.83,5.69,2.83,5.69,0,0-1.08-5.95-.48-9.94Z" style="fill:url(#g); stroke-width:0px;"/><path d="M22.64,306.62s3.25-6.51,11.4-5.47,16.67,8.05,16.67,8.05c0,0-20.94.87-23.49.1-2.56-.77-4.58-2.68-4.58-2.68Z" style="fill:#ae89c2; mix-blend-mode:multiply; stroke-width:0px;"/><path d="M32.85,291.42s1.71-1.4,5.69-1.02c3.98.38,5.18,1.23,7.39.14,3.22-1.59,5.12-8.24,5.12-8.24,0,0-.71,7.88-4.79,9.57-4.07,1.7-6.35-.2-9.28-.76-2.94-.57-4.13.31-4.13.31Z" style="fill:#c98bc2; mix-blend-mode:multiply; stroke-width:0px;"/><path d="M41.88,267.89s2.52,3.98,7.89,3.85c5.37-.13,5.87-5.32,5.87-5.32l-.39-2.3s-7.74,1.61-13.69.66l.32,3.1Z" style="fill:#c98bc2; mix-blend-mode:multiply; stroke-width:0px;"/><path d="M47.55,304.43c-3.08-2.81,1.94-13.33,8-18.25,1.2-1.26,4.35,11.36,4.06,12.76-.29,1.39-4.4,7.04-6.55,7.23s-5.51-1.74-5.51-1.74Z" style="fill:#c98bc2; mix-blend-mode:multiply; stroke-width:0px;"/><path d="M82.12,261.74s-1.8,11.94,1.52,19.99c0,0-6.35,3.41-11.46,2.65s-3.98-1.61-3.98-5.68-.38-5.97-1.04-7.48c-.66-1.52,1.23-4.55,1.42-12.79.19-8.24,13.55,3.32,13.55,3.32Z" style="fill:url(#h); stroke-width:0px;"/><path d="M62.85,308.95s30.98.64,32.97.35,4.87-1.81,5.06-3.13c.19-1.33-1.9-7.7-9-13.94-.22-.19-.44-.39-.65-.58,0,0,0,0-.02,0-6.51-5.97-7.58-10.77-7.58-10.77-1.42-3.31-1.32-5.02-5.78-5.78-1.78-.3-3.24.49-4.44,1.59-1.81,1.65-3.04,4.02-3.89,4.48-1.43.75-1.34-3.51-1.34-3.51,0,0-4.44,1.99-1.98,8.15,0,0-2.37,12.13-2.93,13.83-.57,1.71-1.27,6.86-.42,9.32Z" style="fill:url(#i); stroke-width:0px;"/><path d="M63.54,298.63s1.1,1.62,3.14,3.84c2.04,2.23,2.13,3.03,5.83,3.08s10.14-7.11,17.1-6.92c6.96.19,11.23,6.54,11.27,7.54s-3.27,2.86-4.74,3.13c-1.47.28-32.51.1-33.28-.36s-1.52-4.83.68-10.32Z" style="fill:#720e4a; stroke-width:0px;"/><path d="M72.17,281.44c.4,2.94,2.65,11.94,8.72,10.21,5.81-1.66,9.98-.14,10.32,0-6.51-5.97-7.58-10.77-7.58-10.77-1.42-3.31-1.32-5.02-5.78-5.78-1.78-.3-3.24.49-4.44,1.59-1.06,1.58-1.43,3.35-1.24,4.76Z" style="fill:#720e4a; stroke-width:0px;"/><path d="M65.48,281.93s1.77,2.92,2.34,4.25c.57,1.33-2.83,5.69-2.83,5.69,0,0,1.08-5.95.48-9.94Z" style="fill:url(#j); stroke-width:0px;"/><path d="M100.72,306.62s-3.25-6.51-11.4-5.47-16.67,8.05-16.67,8.05c0,0,20.94.87,23.49.1,2.56-.77,4.58-2.68,4.58-2.68Z" style="fill:#ae89c2; mix-blend-mode:multiply; stroke-width:0px;"/><path d="M90.51,291.42s-1.71-1.4-5.69-1.02c-3.98.38-5.18,1.23-7.39.14-3.22-1.59-5.12-8.24-5.12-8.24,0,0,.71,7.88,4.79,9.57,4.07,1.7,6.35-.2,9.28-.76,2.94-.57,4.13.31,4.13.31Z" style="fill:#c98bc2; mix-blend-mode:multiply; stroke-width:0px;"/><path d="M81.48,267.89s-2.52,3.98-7.89,3.85c-5.37-.13-5.87-5.32-5.87-5.32l.39-2.3s7.74,1.61,13.69.66l-.32,3.1Z" style="fill:#c98bc2; mix-blend-mode:multiply; stroke-width:0px;"/><path d="M75.82,304.43c3.08-2.81-1.94-13.33-8-18.25-1.2-1.26-4.35,11.36-4.06,12.76.29,1.39,4.4,7.04,6.55,7.23s5.51-1.74,5.51-1.74Z" style="fill:#c98bc2; mix-blend-mode:multiply; stroke-width:0px;"/><path d="M25.29,160.65c-.28,1.36-1.32,1.72-1.32,1.72-.03.97-1.17,2.26-2.4,2.07s-2.96-2.07-2.96-2.07c-.38.16-4.3-5.65-4.3-5.65,0,0-.32-1.12-.61-2.8-.51-3.08-.9-8.04,1.03-11.51,2.99-5.35,8.43-4.68,8.53-2.74.05,1.1-.02,5.07-.08,8.33-.06,2.51-.11,4.6-.11,4.6,2.44,3.38,2.51,6.69,2.22,8.05Z" style="fill:url(#k); stroke-width:0px;"/><path d="M23.97,162.37s-.16-3.55-2.62-6.71c-2.47-3.16-4.36-3.12-6.05-3.61-.51-.15-1.07.67-1.6,1.87-.51-3.08-.9-8.04,1.03-11.51,2.99-5.35,8.43-4.68,8.53-2.74.05,1.1-.02,5.07-.08,8.33h-1.43s-2.01,3.09-2.04,4.05c-.04.96,4.89,5.1,4.26,10.32Z" style="fill:#c98bc2; mix-blend-mode:multiply; stroke-width:0px;"/><path d="M24.47,98.38c-.75,6.95-5.87,24.25-4.1,27.41s7.14,5.87,7.7,9.03c.33,1.84.19,5.17.01,7.63l-.02.29c-.04.57-.09,1.09-.12,1.52-.08.78-.13,1.28-.13,1.28-1.05,2.18-.95,5.92-1.47,6.54-.52.61-2.66.52-2.99.14s-1.18-1.47-1.51-3.46.14-2.27.38-3.36c.09-.41-.07-1.15-.33-1.89-.41-1.21-1.09-2.47-1.38-2.47-.47,0-2.23.57-2.79,2.51-.37,1.24-1.1,4.43-1.47,6.89-.2,1.37-.29,2.52-.14,2.96.42,1.24,3.74,2.99,4.12,5.5s-2.09,4.07-2.75,3.84c-.66-.24-6.77-5.31-6.96-6.16-.04-.16-.1-.94-.19-2.09-.33-4.71-1.01-15.73-1.61-17.33-.76-1.99.09-3.7-1.8-14.31-1.9-10.61-1.99-34.01-1.99-34.86s.94-2.84,2.27-6.54c1.33-3.69,3.32-12.69,3.32-12.69,23.55-4.23,19.89,4.23,19.89,4.23,0,0-3.28,8.97-4.42,11.87-1.14,2.91-.76,6.57-1.52,13.52Z" style="fill:url(#l); stroke-width:0px;"/><path d="M8.53,76.96s4.83-3.47,10.32-1.2c5.49,2.27,7.71,7.6,7.71,7.6,0,0,3.85-9.37,3.85-10.38s-9.38-10.11-13.93-9.35c-4.55.76-6.51,7.46-6.51,7.46l-1.45,5.86Z" style="fill:#db8bc2; mix-blend-mode:multiply; stroke-width:0px;"/><path d="M32.93,73.78s-1.25,3.51-1.38,3.88c-.13.38-13.39-2.88-21.57-6.56C1.8,67.43.1,61.65,0,60.61s4.83-4.17,8.91-12.88c4.07-8.72,5.28-13.36,6.43-13.55,1.15-.19,9.01,9.76,13.69,15.95,4.67,6.19,3.9,23.65,3.9,23.65Z" style="fill:url(#m); stroke-width:0px;"/><path d="M19.47,76.9c-7.06-3.33-12.81,3.92-9.78,16.55,3.03,12.63,8,19.02,10.01,18.95s10.75-30.32-.23-35.49Z" style="fill:#ff9c7c; mix-blend-mode:soft-light; stroke-width:0px;"/><path d="M20.23,158.9c.38,2.51-2.09,4.07-2.75,3.84-.66-.24-6.77-5.31-6.96-6.16-.04-.16-.1-.94-.19-2.09.53,1.47,1.13,2.32,2.95.9,1.83-1.42,2.49-4.16,2.97-4.95-.2,1.37-.29,2.52-.14,2.96.42,1.24,3.74,2.99,4.12,5.5Z" style="fill:#ea8bc2; mix-blend-mode:multiply; opacity:.5; stroke-width:0px;"/><path d="M27.94,144.26c-.08.78-.13,1.28-.13,1.28-1.05,2.18-.95,5.92-1.47,6.54-.52.61-2.66.52-2.99.14s-1.18-1.47-1.51-3.46.14-2.27.38-3.36c.09-.41-.07-1.15-.33-1.89h.01c.86.54,3.82,2.93,5.05,2.41.58-.25.86-.97.99-1.66Z" style="fill:#ea8bc2; mix-blend-mode:multiply; opacity:.5; stroke-width:0px;"/><path d="M23.1,151.35c-.72-.72,1.47-3.12,2.51-3.34,1.04-.22,1.39,1.78.82,3.34s-3.33,0-3.33,0Z" style="fill:#ffac98; stroke-width:0px;"/><path d="M14.06,160.09c-.67-.58,4.48.53,5.02.75.54.22-.57,2.16-1.81,1.78,0,0-2.54-1.96-3.2-2.53Z" style="fill:#ffac98; stroke-width:0px;"/><path d="M20.27,126.92c-4.65-3.18-6.23,5.45-4.35,7.39,5.81,6,11.75,5.22,12.24,1.08.1-.88-.69-3.55-7.88-8.47Z" style="fill:#ffc7ac; mix-blend-mode:soft-light; opacity:.5; stroke-width:0px;"/><path d="M32.93,73.78s-2.65-4.41-4.53-9.82c-1.88-5.42-2.68-8.02-2.68-8.02,0,0,.64,5.48,1.16,10.53s4.29,9.68,4.48,10.44,1.57-3.13,1.57-3.13Z" style="fill:url(#n); mix-blend-mode:multiply; stroke-width:0px;"/><path d="M.64,59.54s8.74,9.92,11.39,4.8c7.44-14.35,1.51-27.37,1.51-27.37,0,0-2.59,7.46-6.12,13.78-3.54,6.32-6.78,8.79-6.78,8.79Z" style="fill:#c486e8; mix-blend-mode:multiply; opacity:.3; stroke-width:0px;"/><path d="M98.02,160.65c.28,1.36,1.32,1.72,1.32,1.72.03.97,1.17,2.26,2.4,2.07s2.96-2.07,2.96-2.07c.38.16,4.3-5.65,4.3-5.65,0,0,.32-1.12.61-2.8.51-3.08.9-8.04-1.03-11.51-2.99-5.35-8.43-4.68-8.53-2.74-.05,1.1.02,5.07.08,8.33.06,2.51.11,4.6.11,4.6-2.44,3.38-2.51,6.69-2.22,8.05Z" style="fill:url(#o); stroke-width:0px;"/><path d="M99.34,162.37s.16-3.55,2.62-6.71c2.47-3.16,4.36-3.12,6.05-3.61.51-.15,1.07.67,1.6,1.87.51-3.08.9-8.04-1.03-11.51-2.99-5.35-8.43-4.68-8.53-2.74-.05,1.1.02,5.07.08,8.33h1.43s2.01,3.09,2.04,4.05c.04.96-4.89,5.1-4.26,10.32Z" style="fill:#c98bc2; mix-blend-mode:multiply; stroke-width:0px;"/><path d="M98.84,98.38c.75,6.95,5.87,24.25,4.1,27.41s-7.14,5.87-7.7,9.03c-.33,1.84-.19,5.17-.01,7.63l.02.29c.04.57.09,1.09.12,1.52.08.78.13,1.28.13,1.28,1.05,2.18.95,5.92,1.47,6.54.52.61,2.66.52,2.99.14s1.18-1.47,1.51-3.46-.14-2.27-.38-3.36c-.09-.41.07-1.15.33-1.89.41-1.21,1.09-2.47,1.38-2.47.47,0,2.23.57,2.79,2.51.37,1.24,1.1,4.43,1.47,6.89.2,1.37.29,2.52.14,2.96-.42,1.24-3.74,2.99-4.12,5.5s2.09,4.07,2.75,3.84c.66-.24,6.77-5.31,6.96-6.16.04-.16.1-.94.19-2.09.33-4.71,1.01-15.73,1.61-17.33.76-1.99-.09-3.7,1.8-14.31,1.9-10.61,1.99-34.01,1.99-34.86s-.94-2.84-2.27-6.54c-1.33-3.69-3.32-12.69-3.32-12.69-23.55-4.23-19.89,4.23-19.89,4.23,0,0,3.28,8.97,4.42,11.87,1.14,2.91.76,6.57,1.52,13.52Z" style="fill:url(#p); stroke-width:0px;"/><path d="M114.78,76.96s-4.83-3.47-10.32-1.2c-5.49,2.27-7.71,7.6-7.71,7.6,0,0-3.85-9.37-3.85-10.38s9.38-10.11,13.93-9.35c4.55.76,6.51,7.46,6.51,7.46l1.45,5.86Z" style="fill:#db8bc2; mix-blend-mode:multiply; stroke-width:0px;"/><path d="M90.39,73.78s1.25,3.51,1.38,3.88c.13.38,13.39-2.88,21.57-6.56,8.18-3.67,9.88-9.45,9.98-10.49.09-1.04-4.83-4.17-8.91-12.88-4.07-8.72-5.28-13.36-6.43-13.55-1.15-.19-9.01,9.76-13.69,15.95s-3.9,23.65-3.9,23.65Z" style="fill:url(#q); stroke-width:0px;"/><path d="M103.84,76.9c7.06-3.33,12.81,3.92,9.78,16.55-3.03,12.63-8,19.02-10.01,18.95-2.01-.07-10.75-30.32.23-35.49Z" style="fill:#ff9c7c; mix-blend-mode:soft-light; stroke-width:0px;"/><path d="M103.08,158.9c-.38,2.51,2.09,4.07,2.75,3.84.66-.24,6.77-5.31,6.96-6.16.04-.16.1-.94.19-2.09-.53,1.47-1.13,2.32-2.95.9-1.83-1.42-2.49-4.16-2.97-4.95.2,1.37.29,2.52.14,2.96-.42,1.24-3.74,2.99-4.12,5.5Z" style="fill:#ea8bc2; mix-blend-mode:multiply; opacity:.5; stroke-width:0px;"/><path d="M95.37,144.26c.08.78.13,1.28.13,1.28,1.05,2.18.95,5.92,1.47,6.54.52.61,2.66.52,2.99.14s1.18-1.47,1.51-3.46-.14-2.27-.38-3.36c-.09-.41.07-1.15.33-1.89h0c-.86.54-3.82,2.93-5.05,2.41-.58-.25-.86-.97-.99-1.66Z" style="fill:#ea8bc2; mix-blend-mode:multiply; opacity:.5; stroke-width:0px;"/><path d="M100.21,151.35c.72-.72-1.47-3.12-2.51-3.34-1.04-.22-1.39,1.78-.82,3.34s3.33,0,3.33,0Z" style="fill:#ffac98; stroke-width:0px;"/><path d="M109.26,160.09c.67-.58-4.48.53-5.02.75-.54.22.57,2.16,1.81,1.78,0,0,2.54-1.96,3.2-2.53Z" style="fill:#ffac98; stroke-width:0px;"/><path d="M103.04,126.92c4.65-3.18,6.23,5.45,4.35,7.39-5.81,6-11.75,5.22-12.24,1.08-.1-.88.69-3.55,7.88-8.47Z" style="fill:#ffc7ac; mix-blend-mode:soft-light; opacity:.5; stroke-width:0px;"/><path d="M90.39,73.78s2.65-4.41,4.53-9.82c1.88-5.42,2.68-8.02,2.68-8.02,0,0,0,4.42-1.75,10.53-1.4,4.88-3.7,9.68-3.89,10.44s-1.57-3.13-1.57-3.13Z" style="fill:url(#r); mix-blend-mode:multiply; stroke-width:0px;"/><path d="M122.67,59.54s-8.74,9.92-11.39,4.8c-7.44-14.35-1.51-27.37-1.51-27.37,0,0,2.59,7.46,6.12,13.78,3.54,6.32,6.78,8.79,6.78,8.79Z" style="fill:#c486e8; mix-blend-mode:multiply; opacity:.3; stroke-width:0px;"/><path d="M90.88,240.23c-1.97,7.07-3.56,11.5-14.23,13.52-10.66,2.02-12.87-3.41-12.87-3.41,0,0-1.47-3.67.12-14.91,1.6-11.24,4.17-26.53,3.31-28.42-.86-1.9-.49-9.22-2.2-29.81-1.72-20.59-1.54-40.93-1.78-41.18-.25-.25-1.54-.57-1.54-.57,0,0-1.28.32-1.53.57-.24.25-.06,20.59-1.78,41.18-.12,1.38-.22,2.71-.32,3.97,0,.02,0,.05,0,.09-1.34,17.51-1.08,23.98-1.87,25.75-.2.43-.21,1.55-.11,3.16.37,5.47,2.18,16.58,3.42,25.26,1.59,11.24.12,14.91.12,14.91,0,0-2.21,5.43-12.88,3.41-10.66-2.02-12.26-6.45-14.22-13.52-1.81-6.52,2.64-28.28,2.76-37.98.02-.82,0-1.56-.06-2.19-.45-4.96-2.47-13.34-3.54-23.14-.68-6.17-.97-12.9-.26-19.68,1.84-17.56,5.76-29.43,5.39-31.58-.36-2.15-2.33-2.78-1.1-3.41s-.05-6.09-.05-6.09c0,0,9.37,2.59,26.04,3.9,16.68-1.31,26.05-3.9,26.05-3.9,0,0-1.28,5.46-.05,6.09,1.22.63-.74,1.26-1.1,3.41-.37,2.15,3.55,14.02,5.39,31.58s-3.07,34.74-3.8,42.82c-.74,8.09,4.66,33.1,2.7,40.17Z" style="fill:url(#s); stroke-width:0px;"/><path d="M62.15,251.41c-.48,1.8-1.52,8.15-1.42,9.66.09,1.52-1.24,3.32-5.59,3.79-4.36.48-14.37,0-15.32-1.01s-1.89-3.66-2.34-5.43c-.08-.33-.1-.55-.06-.68.12-.59,1.01.16.84-.62,0-.03-.01-.06-.02-.09-.25-.91-3.86-5.59-5.26-8.19-.35-.65-.56-1.17-.55-1.47.06-1.52,1.78-1.98,1.78-1.98,0,0,.24.71.43.97.19.25,4.49,3.98,10.49,5.55,6,1.58,13.8-.6,14.27-1.16.47-.57.68-2.94.68-2.94,0,0,2.54,1.8,2.07,3.6Z" style="fill:url(#t); stroke-width:0px;"/><path d="M59.99,141.32s-2.48-6.15-6.75-9.47c-4.26-3.32-16.2-8.34-16.2-8.34,0,0,7.39.76,11.56,3.16,4.17,2.4,8.52,6.69,10.29,7.26,1.77.57,2.8.38,2.8.38v1.14l-1.53.57-.17,5.3Z" style="fill:url(#u); mix-blend-mode:multiply; stroke-width:0px;"/><path d="M36.16,121.42s5.24.86,9.28,2.55,8.91,5.16,8.91,5.16c0,0-5.37-4.29-7.96-6.51-2.59-2.21,15.3-.63,15.3-.63v-1.96l-26.05-3.87s.95,3.19.51,5.25Z" style="fill:url(#v); mix-blend-mode:multiply; stroke-width:0px;"/><path d="M60.35,133.75c-.57-.32,0-13.26,0-13.26l8.34-.95s-1.33,11.29-2.02,12.91c-.69,1.62-6.32,1.3-6.32,1.3Z" style="fill:#90a9ef; mix-blend-mode:soft-light; stroke-width:0px;"/><path d="M56.18,207.01c-.2.43-.21,1.55-.11,3.16-1.31,1.26-4.53,5.24-10.03,3.72-5.49-1.51-5.52-9.75-10.77-11.64.02-.82,0-1.56-.06-2.19-.45-4.96-2.47-13.34-3.54-23.14,0,0,6.13,19.07,11.44,24.75,5.3,5.69,9.56.67,11.55-4.83,1.87-5.15,3.23-14.44,3.39-15.58-1.34,17.51-1.08,23.98-1.87,25.75Z" style="fill:#ae89c2; mix-blend-mode:multiply; stroke-width:0px;"/><path d="M44.09,251.61s.66-1.39-2.44-6.23c-3.09-4.84-6.25-10.9-6.25-10.9,0,0-1.73,4.34-.69,8.57,1.03,4.23,3.49,6.12,9.39,8.57Z" style="fill:url(#w); mix-blend-mode:multiply; opacity:.88; stroke-width:0px;"/><path d="M49.29,252.47s1.77-9.02,4.49-14.89c2.72-5.87,5.59-3.03,5.57,4.93-.01,7.96-2.16,9.11-2.16,9.11,0,0-4.36,1.91-7.9.85Z" style="fill:url(#x); mix-blend-mode:multiply; opacity:.88; stroke-width:0px;"/><path d="M38.5,196.97s2.65,4.99,6.06,6.82c3.41,1.83,5.05,2.78,5.05,2.78,0,0-.85,3.23-5.46,1.52s-5.65-11.12-5.65-11.12Z" style="fill:#ae89c2; mix-blend-mode:multiply; stroke-width:0px;"/><path d="M41.78,191.22c-9.4-3.94-11.73-29.68-4.74-47.12,6.99-17.43,17.57-11.37,21.01,0,3.43,11.37-.61,53.68-16.27,47.12Z" style="fill:#90a9ef; mix-blend-mode:soft-light; opacity:.3; stroke-width:0px;"/><path d="M48.67,143.51c-3.1-.86-6.89,16.76-1.21,27.75,5.68,10.99,11.13-17.99,1.21-27.75Z" style="fill:#90a9ef; mix-blend-mode:soft-light; opacity:.5; stroke-width:0px;"/><path d="M49.37,252.08s1.22.94,2.64.38c1.42-.57,3.79-9.19,3.32-12.22-.47-3.03-1-3.22-1-3.22,0,0-4.18,10.33-4.95,15.07Z" style="fill:url(#y); mix-blend-mode:multiply; opacity:.88; stroke-width:0px;"/><path d="M44.09,251.61s-.89-3.18-4.21-7.99l-3.32-4.81s.43,3.15,1.93,7.01c1.5,3.86,5.6,5.8,5.6,5.8Z" style="fill:url(#z); mix-blend-mode:multiply; opacity:.88; stroke-width:0px;"/><path d="M35.34,225.07c-3.12,1.33,1.99,14.49,7.39,19.33,5.4,4.83,8.53-6.44,10.99-10.33,2.46-3.88-5.21-14.59-18.38-9Z" style="fill:#90a9ef; mix-blend-mode:soft-light; opacity:.5; stroke-width:0px;"/><path d="M60.73,261.07c.09,1.52-1.24,3.32-5.59,3.79-4.36.48-14.37,0-15.32-1.01s-1.89-3.66-2.34-5.43c-.08-.33-.1-.55-.06-.68,0,0,.57,3.24,6.82,4s11.15-1.74,11.15-1.74c0,0-9.54,4.13-17.13-2.88,0-.03-.01-.06-.02-.09-.25-.91-3.86-5.59-5.26-8.19,0,0,6.53,4.42,17.07,5.36,10.55.94,12.1-2.79,12.1-2.79-.48,1.8-1.52,8.15-1.42,9.66Z" style="fill:#dfd1e7; mix-blend-mode:multiply; stroke-width:0px;"/><path d="M61.21,251.41c.48,1.8,1.52,8.15,1.42,9.66-.09,1.52,1.24,3.32,5.59,3.79,4.36.48,14.37,0,15.32-1.01s1.89-3.66,2.34-5.43c.08-.33.1-.55.06-.68-.12-.59-1.01.16-.84-.62,0-.03,0-.06.02-.09.25-.91,3.86-5.59,5.26-8.19.35-.65.56-1.17.55-1.47-.06-1.52-1.78-1.98-1.78-1.98,0,0-.24.71-.43.97-.19.25-4.49,3.98-10.49,5.55-6,1.58-13.8-.6-14.27-1.16-.47-.57-.68-2.94-.68-2.94,0,0-2.54,1.8-2.07,3.6Z" style="fill:url(#aa); stroke-width:0px;"/><path d="M63.37,141.32s2.48-6.15,6.75-9.47,16.2-8.34,16.2-8.34c0,0-7.39.76-11.56,3.16-4.17,2.4-8.52,6.69-10.29,7.26-1.77.57-2.8.38-2.8.38v1.14l1.53.57.17,5.3Z" style="fill:url(#ab); mix-blend-mode:multiply; stroke-width:0px;"/><path d="M87.21,121.42s-5.24.86-9.28,2.55-8.91,5.16-8.91,5.16c0,0,5.37-4.29,7.96-6.51,2.59-2.21-15.3-.63-15.3-.63v-1.96l26.05-3.87s-.95,3.19-.51,5.25Z" style="fill:url(#ac); mix-blend-mode:multiply; stroke-width:0px;"/><path d="M67.18,207.01c.2.43.21,1.55.11,3.16,1.31,1.26,4.53,5.24,10.03,3.72,5.49-1.51,5.52-9.75,10.77-11.64-.02-.82,0-1.56.06-2.19.45-4.96,2.47-13.34,3.54-23.14,0,0-6.13,19.07-11.44,24.75-5.3,5.69-9.56.67-11.55-4.83-1.87-5.15-3.23-14.44-3.39-15.58,1.34,17.51,1.08,23.98,1.87,25.75Z" style="fill:#ae89c2; mix-blend-mode:multiply; stroke-width:0px;"/><path d="M79.27,251.61s-.66-1.39,2.44-6.23c3.09-4.84,6.25-10.9,6.25-10.9,0,0,1.73,4.34.69,8.57-1.03,4.23-3.49,6.12-9.39,8.57Z" style="fill:url(#ad); mix-blend-mode:multiply; opacity:.88; stroke-width:0px;"/><path d="M77.79,251.9s-1.77-9.02-4.49-14.89-5.59-3.03-5.57,4.93c.01,7.96,2.16,9.11,2.16,9.11,0,0,4.36,1.91,7.9.85Z" style="fill:url(#ae); mix-blend-mode:multiply; opacity:.88; stroke-width:0px;"/><path d="M84.87,196.97s-2.65,4.99-6.06,6.82c-3.41,1.83-5.05,2.78-5.05,2.78,0,0,.85,3.23,5.46,1.52,4.61-1.71,5.65-11.12,5.65-11.12Z" style="fill:#ae89c2; mix-blend-mode:multiply; stroke-width:0px;"/><path d="M81.59,191.22c9.4-3.94,11.73-29.68,4.74-47.12-6.99-17.43-17.57-11.37-21.01,0-3.43,11.37.61,53.68,16.27,47.12Z" style="fill:#90a9ef; mix-blend-mode:soft-light; opacity:.3; stroke-width:0px;"/><path d="M74.69,143.51c3.1-.86,6.89,16.76,1.21,27.75-5.68,10.99-11.13-17.99-1.21-27.75Z" style="fill:#90a9ef; mix-blend-mode:soft-light; opacity:.5; stroke-width:0px;"/><path d="M77.71,251.5s-1.22.94-2.64.38c-1.42-.57-3.79-9.19-3.32-12.22.47-3.03,1-3.22,1-3.22,0,0,4.18,10.33,4.95,15.07Z" style="fill:url(#af); mix-blend-mode:multiply; opacity:.88; stroke-width:0px;"/><path d="M79.27,251.61s.89-3.18,4.21-7.99l3.32-4.81s-.43,3.15-1.93,7.01c-1.5,3.86-5.6,5.8-5.6,5.8Z" style="fill:url(#ag); mix-blend-mode:multiply; opacity:.88; stroke-width:0px;"/><path d="M88.03,225.07c3.12,1.33-1.99,14.49-7.39,19.33s-4.42-7.48-6.88-11.37c-2.46-3.88,1.11-13.55,14.27-7.96Z" style="fill:#90a9ef; mix-blend-mode:soft-light; opacity:.5; stroke-width:0px;"/><path d="M62.63,261.07c-.09,1.52,1.24,3.32,5.59,3.79,4.36.48,14.37,0,15.32-1.01s1.89-3.66,2.34-5.43c.08-.33.1-.55.06-.68,0,0-.42-.02-6.67.74s-11.3,1.52-11.3,1.52c0,0,13.7-4.17,17.13-2.88,0-.03,0-.06.02-.09.25-.91,3.86-5.59,5.26-8.19,0,0-6.53,4.42-17.07,5.36-10.55.94-12.1-2.79-12.1-2.79.48,1.8,1.52,8.15,1.42,9.66Z" style="fill:#dfd1e7; mix-blend-mode:multiply; stroke-width:0px;"/><path d="M35.65,116.16s9.76,6.45,25.52,7.35c15.76.9,26.55-7.35,26.55-7.35,0,0-11.53,2.61-26.05,2.61s-26.02-2.61-26.02-2.61Z" style="fill:#c98bc2; mix-blend-mode:multiply; stroke-width:0px;"/><path d="M101.89,29.06c-3.65-2.18-20.33-11.68-21.55-12.6-1.22-.92-2.58-3.66-3.07-3.88s-2.69-.27-2.69-.27l1.03,2.07c-6.31,9.38-13.87,8.85-13.87,8.85,0,0-7.55.53-13.87-8.85l1.03-2.07s-2.19.05-2.69.27c-.49.22-1.85,2.97-3.07,3.88-1.22.92-19.9,10.42-23.55,12.6-3.65,2.18-4.26,5.12-4.26,5.12,0,0,7.65,12.41,10.78,23.02,3.13,10.61,6.42,15.16,6.82,16.58.4,1.42,3.9,25.99,4.08,26.81.17.82-1.97,2.08-1.97,3.28s1.22,3.16,1.22,3.85-1.04.32-1.04,1.26.23,2.08.52,3.85c.29,1.77-.87,1.77-.98,2.72-.12.95,14.57,3.98,27,4.55,12.43-.57,27.11-3.6,27-4.55-.12-.95-1.27-.95-.98-2.72.29-1.77.52-2.91.52-3.85s-1.04-.57-1.04-1.26,1.22-2.65,1.22-3.85-2.14-2.46-1.97-3.28c.17-.82,3.68-25.39,4.08-26.81.4-1.42,3.69-5.97,6.82-16.58,3.13-10.61,10.78-23.02,10.78-23.02,0,0-2.61-2.94-6.26-5.12Z" style="fill:url(#ah); stroke-width:0px;"/><path d="M43.14,16.46s6.57,14.08,19.34,13.45c12.77-.63,17.38-13.88,17.38-13.88l-2.13-2.94s-4.28,12.28-15.62,12.28-15.9-12.79-15.9-12.79l-3.07,3.88Z" style="fill:#d68bc2; mix-blend-mode:multiply; stroke-width:0px;"/><path d="M36.85,47.7s3.66,18.15,4.57,19.58,14.24-.91,24.62-1,13.05,1.69,14.3,1.07c1.31-.65,3.79-19.21,4.42-19.86.63-.65-14.44.89-25.84,1.14-10.89.24-21.34-1.55-22.07-.93Z" style="fill:url(#ai); stroke-width:0px;"/><path d="M38.73,24.61s11.38,13.52,19.34,19.96l7.96,6.44s-20.87-.25-27.3-26.4Z" style="fill:url(#aj); mix-blend-mode:multiply; opacity:.88; stroke-width:0px;"/><path d="M32.97,65.16s13.35,29.31,18.41,35.87c5.05,6.57,8.72,7.83,8.72,7.83,0,0-7.07,3.03-16.17-6.44-9.09-9.47-10.95-37.26-10.95-37.26Z" style="fill:url(#ak); mix-blend-mode:multiply; opacity:.88; stroke-width:0px;"/><path d="M92.39,68.44s-8.42,21.09-15.75,29.68-14.27,8.84-14.27,8.84c0,0,18.11-13.52,30.02-38.53Z" style="fill:url(#al); mix-blend-mode:multiply; opacity:.88; stroke-width:0px;"/><path d="M35.03,103.87s11.11,9.32,24.65,10.55c13.55,1.23,23.12-2.02,23.12-2.02,0,0-7.39,4.2-21.98,4.39-14.59.19-24.06-8.04-24.78-9.82-.72-1.78-1.01-3.09-1.01-3.09Z" style="fill:url(#am); mix-blend-mode:multiply; opacity:.88; stroke-width:0px;"/><path d="M87.23,107.72c-.61.95-10.9,4.55-21.96,4.42,0,0,10.74-2.34,15.54-5.43,4.8-3.09,7.63-2.84,7.63-2.84,0,0-.01,1.52-.73,2.4s-.49,1.45-.49,1.45Z" style="fill:url(#an); mix-blend-mode:multiply; opacity:.88; stroke-width:0px;"/><path d="M35.65,113.09s7.33,4.99,21.16,5.05c13.83.06,24.95-2.98,24.95-2.98,0,0-17.81,3.17-27.98,1.62-10.17-1.55-18.5-6.72-18.5-6.72l.36,3.03Z" style="fill:url(#ao); mix-blend-mode:multiply; opacity:.88; stroke-width:0px;"/><path d="M26.11,57.2s5.06,6.94,13.59,8.08c8.53,1.14,19.38-2.46,21.97-2.46s13.71,2.97,20.09,2.69c6.38-.29,14.21-3.94,14.21-3.94,0,0-1.28,4.85-5.58,9.85-6.5,7.55-18.07,16.44-28.02,17.43-16.52,1.64-30.5-17.41-31.37-18.96-.87-1.56-4.89-12.67-4.89-12.67Z" style="fill:#c486e8; mix-blend-mode:multiply; opacity:.3; stroke-width:0px;"/><path d="M53.25,31.94s3.79,3.79,13.21,0c9.42-3.79,13.87-15.47,13.87-15.47,0,0-.28,12.32-10.95,16.61-10.67,4.29-16.13-1.14-16.13-1.14Z" style="fill:url(#ap); mix-blend-mode:multiply; opacity:.88; stroke-width:0px;"/><path d="M38.73,60.93c-8.32-2.74-8.98-17.28-5.81-18.87,3.17-1.59,18.17,7.78,37.23,9.34,19.06,1.56,9.77,9.62-.21,8.95-9.98-.67-19.86,2.52-31.21.59Z" style="fill:#ffbaef; mix-blend-mode:soft-light; opacity:.3; stroke-width:0px;"/><path d="M67.98,34.73c-16.15,2.57-6.26,11.67,6.13,14.52,12.39,2.84,19.1-17.77,19.06-19.31-.04-1.54-5.44,1.64-25.19,4.79Z" style="fill:#ffbaef; mix-blend-mode:soft-light; opacity:.3; stroke-width:0px;"/><path d="M53.25,28.78c-3.12-1.15-.8,3.35,4.82,4.29,5.62.95,8.72-2.15,8.72-2.15,0,0-8.39-.25-13.54-2.15Z" style="fill:#ffbaef; mix-blend-mode:soft-light; opacity:.3; stroke-width:0px;"/><path d="M42.1,106.52c-.44-.06,5.56,6.32,15.47,7.58,9.92,1.26,19.81-.42,19.81-.42,0,0-2.32-1.48-12.48-2.24-10.17-.76-22.8-4.93-22.8-4.93Z" style="fill:#ffbaef; mix-blend-mode:soft-light; opacity:.3; stroke-width:0px;"/><path d="M106.83,32.85s-7.48,13.61-9.23,23.61c0,0,5.59-17.89,10.38-22.28l-1.15-1.33Z" style="fill:#c98bc2; mix-blend-mode:multiply; stroke-width:0px;"/><path d="M16.49,32.85s7.48,13.61,9.23,23.61c0,0-5.59-17.89-10.38-22.28l1.15-1.33Z" style="fill:#c98bc2; mix-blend-mode:multiply; stroke-width:0px;"/><path d="M50.02,64.51c-1.64-.4-4.42-5.58-5.18-10.13-.76-4.55,9.35-2.87,11.05-3.54,1.71-.66,1.74,7.39,1.44,8.24s.7-5.48,1.4-7.43c.7-1.95,3.92-.81,5.18-.39s-1.68,8.26-2.34,10.55c-.66,2.29-11.56,2.69-11.56,2.69Z" style="fill:#ffd6e8; stroke-width:0px;"/><path d="M69.34,51.98c-2.87-.93-6.27,4.55-5.84,9.29.44,4.74,11.57,1.99,13.39-.47,1.82-2.46-3.48-6.25-5.47-5.68-1.99.57-.95,2.91-2.09,2.36-1.13-.56.67-2.92,2.28-2.92s-.1-1.85-2.28-2.56Z" style="fill:#ffd6e8; stroke-width:0px;"/></g></g></g></svg>