<?xml version="1.0" encoding="UTF-8"?><svg xmlns="http://www.w3.org/2000/svg" xmlns:xlink="http://www.w3.org/1999/xlink" viewBox="0 0 48.67 43.12"><defs><linearGradient id="d" x1="24.33" y1="0" x2="24.33" y2="29.15" gradientUnits="userSpaceOnUse"><stop offset="0" stop-color="#f68374"/><stop offset=".4" stop-color="#fb877a"/><stop offset="1" stop-color="#ff8a7f"/></linearGradient><linearGradient id="e" x1="2.74" y1="18.21" x2="17.34" y2="18.21" gradientUnits="userSpaceOnUse"><stop offset="0" stop-color="#ffe7d8"/><stop offset=".44" stop-color="#f7dcdd"/><stop offset=".99" stop-color="#f1d4e2"/></linearGradient><linearGradient id="f" x1="1980.46" y1="18.3" x2="1995.05" y2="18.3" gradientTransform="translate(2026.55) rotate(-180) scale(1 -1)" xlink:href="#e"/></defs><g style="isolation:isolate;"><g id="b"><g id="c"><path d="M48.63,27.8c-.14,4.02-9.59,5.28-17.18,9.33-3.75,2-7.02,1.25-7.02,1.25h-.19s-3.27.75-7.02-1.25C9.63,33.08.18,31.82.03,27.8c-.21-5.98.6-9.69,1.79-12.1h0c1.74-3.53,4.31-4.31,5.68-5.4C9.8,8.48,15.88.18,23.25,0h.09S23.35,0,23.35,0c7.37.18,15.51,8.47,17.81,10.3,1.36,1.09,3.93,1.86,5.68,5.39,1.19,2.42,2.01,6.12,1.79,12.11Z" style="fill:url(#d); stroke-width:0px;"/><path d="M48.63,27.8c-.14,4.02-9.59,5.28-17.18,9.33-3.75,2-7.02,1.25-7.02,1.25h-.19s-3.27.75-7.02-1.25C9.63,33.08.18,31.82.03,27.8c-.21-5.98.6-9.69,1.79-12.1h0c-.66,10.93.59,13.16,4.59,12.92,4-.24,10.79,7.19,17.91,7.19s13.39-7.76,18.84-7.89c5.45-.13,4.31-8.67,3.66-12.24,1.19,2.42,2.01,6.12,1.79,12.11Z" style="fill:#ce77b5; mix-blend-mode:multiply; opacity:.6; stroke-width:0px;"/><path d="M4.9,32.07c-.97-1.92.32-3.46,2.45-2.27s5.53,5.33,5.53,5.33c0,0-7.56-2.23-7.98-3.06Z" style="fill:#812751; stroke-width:0px;"/><path d="M43.82,32.07c.97-1.92-.32-3.46-2.45-2.27s-5.53,5.33-5.53,5.33c0,0,7.56-2.23,7.98-3.06Z" style="fill:#812751; stroke-width:0px;"/><path d="M.03,27.8c8.64-.67,16.02,7.3,24.3,8.02,8.28.72,13.99-11.35,24.29-8.02,0,0,.8,3.5-8.95,9.33-13.51,8.08-19.96,8.08-32-.67C-.75,30.34.03,27.8.03,27.8Z" style="fill:#ce5982; mix-blend-mode:multiply; opacity:.6; stroke-width:0px;"/><path d="M2.74,14.18s2.81-1.97,6.81,2.68c4,4.65-2,11.76-2,11.76l4.75,2.26s.12-8.25,1.75-11.88,4.12-6.76,3-10.32c-1.12-3.56-3.73-4.02-5.83-1.85-1.32,1.37-2.25,2.39-3.71,3.47s-3.86,2.36-4.77,3.88Z" style="fill:url(#e); mix-blend-mode:multiply; opacity:.7; stroke-width:0px;"/><path d="M46.09,14.18s-2.81-1.97-6.81,2.68c-4,4.65,2,11.76,2,11.76l-4.75,2.26s-.12-8.25-1.75-11.88-4.12-6.76-3-10.32c1.12-3.56,3.21-3.48,5.13-2.04,1.52,1.14,2.95,2.57,4.41,3.65,1.46,1.08,3.86,2.36,4.77,3.88Z" style="fill:url(#f); mix-blend-mode:multiply; opacity:.7; stroke-width:0px;"/><path d="M35.3,29.38c1.08-3.2-2-12.63-4.62-13.69s-4.87,1.17-5.37,2.61c-.5,1.45-3.57,15.33-.97,15.95,2.6.62,10-1.99,10.97-4.88Z" style="fill:#fff9b5; mix-blend-mode:soft-light; opacity:.5; stroke-width:0px;"/><path d="M35.48,26.69c-1.07-1.47-2.8,2.29-2.67,3.46.12,1.17,2.3.37,2.5-.77.2-1.13.53-2.21.17-2.7Z" style="fill:#fff; stroke-width:0px;"/></g></g></g></svg>