<?xml version="1.0" encoding="utf-8"?>
<svg viewBox="0 0 51.83 41.09" xmlns="http://www.w3.org/2000/svg" xmlns:xlink="http://www.w3.org/1999/xlink">
  <defs>
    <linearGradient id="e" x1="10.83" y1="27.62" x2="10.83" y2="9.84" gradientUnits="userSpaceOnUse">
      <stop offset="0" stop-color="#ffe7d8"/>
      <stop offset="0.44" stop-color="#f7dcdd"/>
      <stop offset="0.99" stop-color="#f1d4e2"/>
    </linearGradient>
    <linearGradient id="f" x1="1849.24" y1="27.6" x2="1849.24" y2="10.22" gradientTransform="translate(1890.59) rotate(-180) scale(1 -1)" xlink:href="#e"/>
  </defs>
  <g style="isolation:isolate;">
    <g id="b">
      <g id="c">
        <path d="M51.39,26.83c-1.47,1.67-9.18,2.7-12.53,4.22-3.35,1.52-5.43,4.24-12.69,4.24h-.27c-7.26,0-9.34-2.72-12.69-4.24-3.34-1.52-11.06-2.55-12.53-4.22-.05-.07-.1-.13-.14-.2-.7-1.27-.18-5.04,1.71-8.58,0,0,0,0,0,0,.01-.03.02-.04.02-.04,1.27-2.38,3.17-4.67,5.72-6.01C14.46,8.61,21.52,1.11,25.78,0h.27c4.25,1.11,11.56,8.61,18.01,12,2.11,1.11,3.78,2.87,5.02,4.8,2.61,4.07,3.31,8.91,2.31,10.04Z" style="stroke-width: 0px; fill: fillColor;"/>
        <path d="M49.33,27.96c-3.67,1.08-9.33-2.78-11.77,3.09l11.77-3.09Z" style="fill:#812751; stroke-width:0px;"/>
        <path d="M3.03,27.96c3.67,1.08,9.33-2.78,11.77,3.09l-11.77-3.09Z" style="fill:#812751; stroke-width:0px;"/>
        <path d="M51.39,26.83c-1.47,1.67-9.18,2.7-12.53,4.22-3.35,1.52-5.43,4.24-12.69,4.24h-.27c-7.26,0-9.34-2.72-12.69-4.24-3.34-1.52-11.06-2.55-12.53-4.22-.05-.07-.1-.13-.14-.2-1.8-2.77,1.39-8.07,1.71-8.58,0,0,0,0,0,0-.18.43-1.79,4.39.13,7.11,2.03,2.87,43.47,1.81,45.91.54,2.44-1.27.78-8.9.78-8.9,2.61,4.07,3.31,8.91,2.31,10.04Z" style="fill:#ce77b5; mix-blend-mode:multiply; opacity:.6; stroke-width:0px;"/>
        <path d="M.55,26.63c7.46,1.05,12.29,0,25.49,0s21.6.71,25.35.2c0,0-9.19,8.4-14.56,11.69-5.37,3.29-16.83,3.25-20.35.84C11.77,36.13.55,26.63.55,26.63Z" style="fill:#ce5982; mix-blend-mode:multiply; opacity:.6; stroke-width:0px;"/>
        <path d="M4.49,14.81s7.38-4.28,7.79,11.93l4.88-.1s-4.03-4.87-4.15-8.63,3.7-6.03,3.5-7.77-2.15-3.18-3.08-1.72-2.76,1.77-4.52,2.87c-1.76,1.09-4.08,2.59-4.42,3.43Z" style="fill:url(#e); mix-blend-mode:multiply; opacity:.7; stroke-width:0px;"/>
        <path d="M47.69,14.81s-7.38-4.28-7.79,11.93l-4.88-.1s4.03-4.87,4.15-8.63-2.21-6.03-2.01-7.77,1.06-2.64,1.99-1.18c.93,1.46,2.36,1.23,4.12,2.33,1.76,1.09,4.08,2.59,4.42,3.43Z" style="fill:url(#f); mix-blend-mode:multiply; opacity:.7; stroke-width:0px;"/>
        <path d="M37.56,14.29c-2.02-6.91-4.52-9.7-7.2-9.9s-5.49,20.44-3.3,20.85,9.07-1.93,10.5-3.94c1.43-2.01.56-5.07,0-7.01Z" style="fill:#fff9b5; mix-blend-mode:soft-light; opacity:.5; stroke-width:0px;"/>
        <path d="M37.63,21.39c-.03-3.15-3.59-1.31-4-.47-.42.84-1.44,3.11-.61,3.45.27.11,4.62-2.23,4.61-2.97Z" style="fill:#fff; stroke-width:0px;"/>
      </g>
    </g>
  </g>
</svg>