<?xml version="1.0" encoding="utf-8"?>
<svg viewBox="0 0 45.81 48.78" xmlns="http://www.w3.org/2000/svg" xmlns:xlink="http://www.w3.org/1999/xlink">
  <defs>
    <linearGradient id="e" x1="2.58" y1="20.25" x2="15.44" y2="20.25" gradientUnits="userSpaceOnUse">
      <stop offset="0" stop-color="#ffe7d8"/>
      <stop offset="0.44" stop-color="#f7dcdd"/>
      <stop offset="0.99" stop-color="#f1d4e2"/>
    </linearGradient>
    <linearGradient id="f" x1="2103.34" y1="20.24" x2="2116.3" y2="20.24" gradientTransform="translate(2146.73) rotate(-180) scale(1 -1)" xlink:href="#e"/>
  </defs>
  <g style="isolation:isolate;" transform="matrix(1, 0, 0, 1, 0, 3.552713678800501e-15)">
    <g id="b">
      <g id="c">
        <path d="M45.78,35.31c-.14,3.54-9.03,4.65-16.18,8.21-3.53,1.76-6.61,1.1-6.61,1.1h-.17s-3.07.66-6.6-1.1C9.07,39.96.17,38.85.03,35.31c-.2-5.26.56-8.52,1.69-10.64h0c1.64-3.1,4.06-3.79,5.35-4.74C9.23,18.32,15.92.16,22.86,0h0s.09,0,.09,0h0c6.94.16,13.63,18.32,15.79,19.92,1.28.96,3.7,1.64,5.35,4.74,1.12,2.12,1.9,5.38,1.69,10.65Z" style="stroke-width: 0px; fill: fillColor;"/>
        <path d="M45.78,35.31c-.14,3.54-9.03,4.65-16.18,8.21-3.53,1.76-6.61,1.1-6.61,1.1h-.17s-3.07.66-6.6-1.1C9.07,39.96.17,38.85.03,35.31c-.2-5.26.56-8.52,1.69-10.64h0c-.62,9.62-.01,11.29,3.4,11.32,4.85.04,3.62-4.34,7.49-1.95,3.01,1.86,8.29,4.06,10.29,4.06,2.66,0,10.16-3.95,12.56-4.76,1.7-.58,2.62,3.08,6.55,2.31,5.05-.99,2.7-7.84,2.08-10.98,1.12,2.12,1.9,5.38,1.69,10.65Z" style="fill:#ce77b5; mix-blend-mode:multiply; opacity:.6; stroke-width:0px;"/>
        <path d="M4.61,39.07c-.91-1.69,4.93-.88,6.93.16,2,1.04.58,2.53.58,2.53,0,0-7.11-1.96-7.51-2.69Z" style="fill:#812751; stroke-width:0px;"/>
        <path d="M41.25,39.07c.91-1.69-5.87-.88-7.87.16-2,1.04.36,2.53.36,2.53,0,0,7.11-1.96,7.51-2.69Z" style="fill:#812751; stroke-width:0px;"/>
        <path d="M.03,35.31c3.69.44,4.65,2.03,9.3-1.27,2.59-1.84,9.74,4.01,13.57,4.06,3.34.04,6.54-1.89,12.19-4.63,1.7-.83,2.2,3.24,10.69,1.84,0,0,.75,3.08-8.43,8.21-12.72,7.11-18.79,7.11-30.12-.59C-.71,37.54.03,35.31.03,35.31Z" style="fill:#ce5982; mix-blend-mode:multiply; opacity:.6; stroke-width:0px;"/>
        <path d="M2.58,23.33s4.21-5.05,7.98-.96c3.77,4.09-.14,10.99-.14,10.99l2.2.68s-.17-6.18,1.36-9.37,1.85-19.59,1-18.11c-.85,1.47-6.53,12.42-7.9,13.37-1.37.95-3.64,2.08-4.49,3.41Z" style="fill:url(#e); mix-blend-mode:multiply; opacity:.7; stroke-width:0px;"/>
        <path d="M43.38,23.33s-4.39-5.05-8.15-.96c-3.77,4.09,1.02,10.99,1.02,10.99l-2.68.74s.16-6.25-1.37-9.44c-1.53-3.19-2.28-19.67-1.43-18.19s6.74,12.5,8.11,13.45c1.37.95,3.64,2.08,4.49,3.41Z" style="fill:url(#f); mix-blend-mode:multiply; opacity:.7; stroke-width:0px;"/>
        <path d="M32.23,31.65c1.01-2.81-.11-6.29-2.58-7.23-2.47-.93-6.27-1.9-6.74-.62s-1.42,9.5,1.02,10.05c2.44.55,7.39.33,8.3-2.21Z" style="fill:#fff9b5; mix-blend-mode:soft-light; opacity:.5; stroke-width:0px;"/>
        <path d="M32.06,29.21c-1.01-1.29-2.63,2.02-2.51,3.05.12,1.03,2.16.32,2.35-.67s.5-1.94.16-2.37Z" style="fill:#fff; stroke-width:0px;"/>
      </g>
    </g>
  </g>
</svg>