<?xml version="1.0" encoding="UTF-8"?><svg xmlns="http://www.w3.org/2000/svg" xmlns:xlink="http://www.w3.org/1999/xlink" viewBox="0 0 158.38 25.44"><defs><linearGradient id="d" x1="1067.1" y1="-495.23" x2="1067.1" y2="-514.93" gradientTransform="translate(-1110.61 317.06) rotate(10.37)" gradientUnits="userSpaceOnUse"><stop offset="0" stop-color="#ebdfff"/><stop offset="1" stop-color="#bac6f8"/></linearGradient><clipPath id="e"><path id="f" d="M53.29,23.37c-.73,1.5-7.9,1.52-10.07,1.34S13.32,16.3,4.35,17.46c0,0-.27-2.23,5.5-10.03C15.61-.37,30.91,2.19,38.5,4.34c7.58,2.14,15.95,16.66,14.79,19.03Z" style="fill:none; stroke-width:0px;"/></clipPath><linearGradient id="g" x1="18.26" y1="10.55" x2="42.74" y2="10.55" gradientTransform="translate(6.42 -10.94) rotate(22.68)" gradientUnits="userSpaceOnUse"><stop offset="0" stop-color="#4d0e2e"/><stop offset="1" stop-color="#36063b"/></linearGradient><linearGradient id="h" x1="19.43" y1="10.55" x2="41.57" y2="10.55" gradientTransform="matrix(1,0,0,1,0,0)" xlink:href="#g"/><linearGradient id="i" x1="23.62" y1="10.55" x2="37.38" y2="10.55" gradientUnits="userSpaceOnUse"><stop offset="0" stop-color="#caa7db"/><stop offset=".99" stop-color="#8460b8"/></linearGradient><linearGradient id="j" x1="-674.84" y1="-176.49" x2="-674.84" y2="-196.18" gradientTransform="translate(-501.92 317.06) rotate(169.63) scale(1 -1)" xlink:href="#d"/><clipPath id="k"><path id="l" d="M105.09,23.37c.73,1.5,7.9,1.52,10.07,1.34,2.17-.18,29.9-8.41,38.88-7.25,0,0,.27-2.23-5.5-10.03-5.77-7.8-21.07-5.24-28.66-3.09-7.58,2.14-15.95,16.66-14.79,19.03Z" style="fill:none; stroke-width:0px;"/></clipPath><linearGradient id="m" x1="-1752.66" x2="-1728.18" gradientTransform="translate(-1564.06 -397.5) rotate(-166.79) scale(1 -1)" xlink:href="#g"/><linearGradient id="n" x1="-1751.49" y1="10.55" x2="-1729.35" y2="10.55" gradientTransform="translate(-1612.54) rotate(-180) scale(1 -1)" xlink:href="#g"/><linearGradient id="o" x1="-1747.3" x2="-1733.54" gradientTransform="translate(-1612.54) rotate(-180) scale(1 -1)" xlink:href="#i"/></defs><g style="isolation:isolate;"><g id="b"><g id="c"><path d="M53.11,23.96c-.95,1.15-7.78,1.29-9.88.75s-26.3-7.99-39.5-7.22c0,0,1.17-6.05,8.07-11.68C18.68.18,32.13,1.75,39.4,4.68c7.27,2.93,15.22,17.46,13.71,19.28Z" style="fill:url(#d); stroke-width:0px;"/><g style="clip-path:url(#e);"><circle cx="30.5" cy="10.55" r="12.24" transform="translate(-1.71 12.57) rotate(-22.68)" style="fill:url(#g); stroke-width:0px;"/><circle cx="30.5" cy="10.55" r="11.07" style="fill:url(#h); stroke-width:0px;"/><circle cx="30.5" cy="10.55" r="6.88" style="fill:url(#i); mix-blend-mode:multiply; stroke-width:0px;"/><path d="M21.47,11.6c-1.17,1.01-6.93-1.1-5.76-2.11,1.17-1.01,6.93,1.1,5.76,2.11Z" style="fill:#fffbf8; stroke-width:0px;"/><path d="M21.99,16.37c-.19,2.33,5.44,5.42,8.51,5.25,5.01-.29,9.32-3.96,9.44-6.76.12-2.8-2.47-.7-5.5,1.32-3.03,2.02-6.5,1.37-8.96-.45-.86-.64-3.36-1.01-3.5.64Z" style="fill:#ffd59e; mix-blend-mode:soft-light; opacity:.33; stroke-width:0px;"/></g><path d="M6.71,11.23c-.74.76-1.33-4.32.96-8.06C9.96-.56,29.85-1.61,40.55,5.24c0,0-20.19-8.06-33.84,6Z" style="fill:#270039; stroke-width:0px;"/><path d="M3.72,17.49s2.99-2.06,8.82-.75c5.83,1.31,14.23,3.95,14.23,3.95,0,0-18.36-3.92-23.05-3.19Z" style="fill:#da6b7c; stroke-width:0px;"/><path d="M52.48,20.23s.14,3.67-1.6,4.52c0,0,2.68.79,2.91-.48.23-1.26-1.31-4.04-1.31-4.04Z" style="fill:#da6b7c; stroke-width:0px;"/><path d="M52.73,19.92C49.33,7.08,42.46,3.04,37.28,0c0,0,5.75,1.79,9.07,4.86,5.27,4.86,6.38,15.06,6.38,15.06Z" style="fill:#da4c6a; stroke-width:0px;"/><path d="M5.31,13.5C1.38,15.79-.81,19.48.28,21.2c2.14,3.39,13,5.07,11.72,3.82-2.17-2.12-7.35-5.3-7.65-7.57-.21-1.6.96-3.96.96-3.96Z" style="fill:#ed7172; stroke-width:0px;"/><path d="M5.31,13.5S14.38,2.68,30.63,4.58c16.25,1.9,22.28,16.79,22.28,16.79,0,0-5.35-18.81-23.97-19.1C11.82,2.01,5.31,13.5,5.31,13.5Z" style="fill:#ce77b5; mix-blend-mode:multiply; opacity:.6; stroke-width:0px;"/><path d="M105.27,23.96c.95,1.15,7.78,1.29,9.88.75,2.11-.55,26.3-7.99,39.5-7.22,0,0-1.17-6.05-8.07-11.68-6.89-5.63-20.34-4.06-27.61-1.13-7.27,2.93-15.22,17.46-13.71,19.28Z" style="fill:url(#j); stroke-width:0px;"/><g style="clip-path:url(#k);"><circle cx="127.88" cy="10.55" r="12.24" transform="translate(.97 29.51) rotate(-13.21)" style="fill:url(#m); stroke-width:0px;"/><circle cx="127.88" cy="10.55" r="11.07" style="fill:url(#n); stroke-width:0px;"/><circle cx="127.88" cy="10.55" r="6.88" style="fill:url(#o); mix-blend-mode:multiply; stroke-width:0px;"/><path d="M136.91,11.6c1.17,1.01,6.93-1.1,5.76-2.11-1.17-1.01-6.93,1.1-5.76,2.11Z" style="fill:#fffbf8; stroke-width:0px;"/><path d="M136.39,16.37c.19,2.33-5.44,5.42-8.51,5.25-5.01-.29-9.32-3.96-9.44-6.76-.12-2.8,2.47-.7,5.5,1.32,3.03,2.02,6.5,1.37,8.96-.45.86-.64,3.36-1.01,3.5.64Z" style="fill:#ffd59e; mix-blend-mode:soft-light; opacity:.33; stroke-width:0px;"/></g><path d="M151.67,11.23c.74.76,1.33-4.32-.96-8.06s-22.18-4.79-32.88,2.06c0,0,20.19-8.06,33.84,6Z" style="fill:#270039; stroke-width:0px;"/><path d="M154.66,17.49s-2.99-2.06-8.82-.75c-5.83,1.31-14.23,3.95-14.23,3.95,0,0,18.36-3.92,23.05-3.19Z" style="fill:#da6b7c; stroke-width:0px;"/><path d="M105.9,20.23s-.14,3.67,1.6,4.52c0,0-2.68.79-2.91-.48-.23-1.26,1.31-4.04,1.31-4.04Z" style="fill:#da6b7c; stroke-width:0px;"/><path d="M105.65,19.92c3.4-12.84,10.27-16.88,15.45-19.92,0,0-5.75,1.79-9.07,4.86-5.27,4.86-6.38,15.06-6.38,15.06Z" style="fill:#da4c6a; stroke-width:0px;"/><path d="M153.07,13.5c3.93,2.29,6.12,5.98,5.03,7.7-2.14,3.39-13,5.07-11.72,3.82,2.17-2.12,7.35-5.3,7.65-7.57.21-1.6-.96-3.96-.96-3.96Z" style="fill:#ed7172; stroke-width:0px;"/><path d="M153.07,13.5s-9.08-10.82-25.32-8.92c-16.25,1.9-22.28,16.79-22.28,16.79,0,0,5.35-18.81,23.97-19.1,17.12-.27,23.63,11.23,23.63,11.23Z" style="fill:#ce77b5; mix-blend-mode:multiply; opacity:.6; stroke-width:0px;"/></g></g></g></svg>