<?xml version="1.0" encoding="UTF-8"?><svg xmlns="http://www.w3.org/2000/svg" xmlns:xlink="http://www.w3.org/1999/xlink" viewBox="0 0 143.74 29.48"><defs><linearGradient id="d" x1="25.93" y1="22.46" x2="25.93" y2="1.58" gradientUnits="userSpaceOnUse"><stop offset="0" stop-color="#ebdfff"/><stop offset="1" stop-color="#bac6f8"/></linearGradient><clipPath id="f"><path id="g" d="M48.8,19.78c-.67,1.38-6.83,2.83-8.83,2.67-2-.17-25.15-3.31-36.99.01,0,0,.06-6.53,5.37-13.72C13.66,1.55,26.11.62,33.18,2.29c7.07,1.67,16.69,15.3,15.62,17.49Z" style="fill:url(#d); stroke-width:0px;"/></clipPath><linearGradient id="h" x1="117.81" x2="117.81" xlink:href="#d"/><linearGradient id="k" x1="117.81" x2="117.81" xlink:href="#d"/><clipPath id="j"><path id="l" d="M94.94,19.78c.67,1.38,6.83,2.83,8.83,2.67,2-.17,25.15-3.31,36.99.01,0,0-.06-6.53-5.37-13.72-5.31-7.18-17.76-8.12-24.83-6.45-7.07,1.67-16.69,15.3-15.62,17.49Z" style="fill:url(#k); stroke-width:0px;"/></clipPath></defs><g style="isolation:isolate;"><g id="b"><g id="c"><path id="e" d="M48.8,19.78c-.67,1.38-6.83,2.83-8.83,2.67-2-.17-25.15-3.31-36.99.01,0,0,.06-6.53,5.37-13.72C13.66,1.55,26.11.62,33.18,2.29c7.07,1.67,16.69,15.3,15.62,17.49Z" style="fill:url(#d);"/><g style="clip-path:url(#f);"><circle cx="26.91" cy="11.09" r="12.33" style="fill:#521b32; stroke-width:0px;"/><circle cx="26.91" cy="11.09" r="11.16" style="fill:#71322e; stroke-width:0px;"/><path d="M33.84,11.09c0,3.83-3.1,6.93-6.93,6.93s-6.93-3.1-6.93-6.93,3.1-6.93,6.93-6.93,6.93,3.1,6.93,6.93Z" style="fill:#4a161d; stroke-width:0px;"/><path d="M17.81,12.15c-1.18,1.02-6.98-1.11-5.81-2.12,1.18-1.02,6.98,1.11,5.81,2.12Z" style="fill:#fffbf8; stroke-width:0px;"/><path d="M18.34,16.96c-.19,2.35,5.48,5.46,8.57,5.29,5.05-.29,9.4-3.99,9.51-6.81.12-2.82-2.49-.7-5.54,1.33-3.05,2.04-6.55,1.38-9.02-.45-.86-.64-3.39-1.02-3.52.65Z" style="fill:#eba280; mix-blend-mode:soft-light; stroke-width:0px;"/></g><path d="M4.65,15.36c-.54.93-1.92-4.25-.46-8.58C5.64,2.44,23.48-2.45,34.32,2.65c0,0-19.63-4.55-29.67,12.71Z" style="fill:#4a1a40; stroke-width:0px;"/><path d="M2.98,22.45s2.37-2.72,7.87-2.47,14.37,1.23,14.37,1.23c0,0-18.11-.41-22.24,1.24Z" style="fill:#da6b7c; stroke-width:0px;"/><path d="M47.62,16s.74,3.8-.7,5.02c0,0,2.56.31,2.56-1.05s-1.86-3.96-1.86-3.96Z" style="fill:#da6b7c; stroke-width:0px;"/><path d="M45.82,11.09C39.14,1.58,32.8.77,28.02.16c0,0,4.78-.66,8.21.67,5.43,2.11,9.58,10.25,9.58,10.25Z" style="fill:#da4c6a; stroke-width:0px;"/><path d="M3.75,17.99C.57,21.13-.8,25.4.47,26.98c2.51,3.13,12.62,2.81,11.25,1.75-2.31-1.79-7.54-4.12-8.19-6.43-.46-1.63.22-4.31.22-4.31Z" style="fill:#ed7172; stroke-width:0px;"/><path d="M3.75,17.99S10.18,4.98,25.22,3.86c15.04-1.12,22.97,13.26,22.97,13.26,0,0-7.97-18.59-24.89-15.34C7.75,4.77,3.75,17.99,3.75,17.99Z" style="fill:#ce77b5; mix-blend-mode:multiply; opacity:.6; stroke-width:0px;"/><path id="i" d="M94.94,19.78c.67,1.38,6.83,2.83,8.83,2.67,2-.17,25.15-3.31,36.99.01,0,0-.06-6.53-5.37-13.72-5.31-7.18-17.76-8.12-24.83-6.45-7.07,1.67-16.69,15.3-15.62,17.49Z" style="fill:url(#h);"/><g style="clip-path:url(#j);"><circle cx="116.83" cy="11.09" r="12.33" style="fill:#521b32; stroke-width:0px;"/><circle cx="116.83" cy="11.09" r="11.16" style="fill:#71322e; stroke-width:0px;"/><path d="M109.9,11.09c0,3.83,3.1,6.93,6.93,6.93s6.93-3.1,6.93-6.93-3.1-6.93-6.93-6.93-6.93,3.1-6.93,6.93Z" style="fill:#4a161d; stroke-width:0px;"/><path d="M125.93,12.15c1.18,1.02,6.98-1.11,5.81-2.12-1.18-1.02-6.98,1.11-5.81,2.12Z" style="fill:#fffbf8; stroke-width:0px;"/><path d="M125.4,16.96c.19,2.35-5.48,5.46-8.57,5.29-5.05-.29-9.4-3.99-9.51-6.81-.12-2.82,2.49-.7,5.54,1.33,3.05,2.04,6.55,1.38,9.02-.45.86-.64,3.39-1.02,3.52.65Z" style="fill:#eba280; mix-blend-mode:soft-light; stroke-width:0px;"/></g><path d="M139.09,15.36c.54.93,1.92-4.25.46-8.58s-19.3-9.23-30.14-4.13c0,0,19.63-4.55,29.67,12.71Z" style="fill:#4a1a40; stroke-width:0px;"/><path d="M140.76,22.45s-2.37-2.72-7.87-2.47-14.37,1.23-14.37,1.23c0,0,18.11-.41,22.24,1.24Z" style="fill:#da6b7c; stroke-width:0px;"/><path d="M96.12,16s-.74,3.8.7,5.02c0,0-2.56.31-2.56-1.05s1.86-3.96,1.86-3.96Z" style="fill:#da6b7c; stroke-width:0px;"/><path d="M97.92,11.09C104.6,1.58,110.94.77,115.72.16c0,0-4.78-.66-8.21.67-5.43,2.11-9.58,10.25-9.58,10.25Z" style="fill:#da4c6a; stroke-width:0px;"/><path d="M139.99,17.99c3.18,3.14,4.55,7.4,3.28,8.99-2.51,3.13-12.62,2.81-11.25,1.75,2.31-1.79,7.54-4.12,8.19-6.43.46-1.63-.22-4.31-.22-4.31Z" style="fill:#ed7172; stroke-width:0px;"/><path d="M139.99,17.99s-6.43-13.02-21.47-14.13c-15.04-1.12-22.97,13.26-22.97,13.26,0,0,7.97-18.59,24.89-15.34,15.56,2.99,19.55,16.22,19.55,16.22Z" style="fill:#ce77b5; mix-blend-mode:multiply; opacity:.6; stroke-width:0px;"/></g></g></g></svg>